<?xml version="1.0" encoding="utf-8"?>
<!-- Generator: Adobe Illustrator 16.2.1, SVG Export Plug-In . SVG Version: 6.00 Build 0)  -->
<!DOCTYPE svg PUBLIC "-//W3C//DTD SVG 1.1//EN" "http://www.w3.org/Graphics/SVG/1.1/DTD/svg11.dtd">
<svg version="1.1" id="OlSAySHedw2RadnfWyJ43E9H3-SpCaGWDD65jGmv7OM_xA0_Image_1_"
	 xmlns="http://www.w3.org/2000/svg" xmlns:xlink="http://www.w3.org/1999/xlink" x="0px" y="0px" width="640px" height="960px"
	 viewBox="0 0 640 960" enable-background="new 0 0 640 960" xml:space="preserve">
<g>
	<path d="M603.889,875.226c1.533,2.563,4.153,3.646,6.677,4.824c3.493,1.633,3.656,3.896,1.281,6.59
		c-5.048,5.725-10.21,6.54-17.333,3.874c-3.857-1.442-8.53-0.815-11.561-4.387c-6.145-7.245-13.021-13.758-20.001-20.162
		c-5.414-4.968-9.438-11.13-14.411-16.439c-4.239-4.525-6.002-9.806-6.479-15.654c-0.354-4.364-1.729-8.245-3.704-12.121
		c-8.479-16.623-19.405-31.934-27.396-48.707c-6.891-14.467-16.305-27.471-22.618-42.166c-5.966-13.889-8.708-28.546-10.356-43.47
		c-0.876-7.917-4.397-15.104-6.582-22.657c-4.513-15.595-6.954-31.493-8.35-47.596c-0.168-1.95-0.767-2.716-2.604-3.479
		c-19.044-7.898-34.259-21.12-48.401-35.648c-9.161-9.412-18.612-18.565-26.993-28.729c-2.3-2.788-5.218-2.731-8.556-1.273
		c-4.813,2.102-8.75,6.496-14.772,5.685c-1.299-0.175-0.763,1.563-0.668,2.282c0.75,5.794-1.609,10.408-4.521,15.264
		c-4.855,8.099-6.323,17.532-8.467,26.59c-4.872,20.6-12.875,39.658-26.186,56.291c-0.828,1.037-1.701,2.04-2.568,3.046
		c-4.784,5.546-9.966,10.565-10.955,18.685c-0.667,5.469-4.089,10.265-8.075,14.438c-5.475,5.732-8.833,13.214-15.076,18.405
		c-1.171,0.975-1.27,3.298-1.75,5.03c-4.491,16.163-10.419,31.854-15.771,47.731c-2.373,7.037-4.683,14.408-4.72,21.492
		c-0.021,4.086,2.554,9.356,4.498,13.856c0.669,1.549,3.4,1.676,5.314,2.225c12.312,3.53,24.55,7.306,36.555,11.787
		c2.155,0.805,4.252,1.827,6.26,2.957c3.966,2.232,6.764,5.248,6.418,10.263c-0.342,4.933-2.144,8.949-6.732,11.294
		c-8.067,4.12-16.739,5.324-25.575,4.283c-11.689-1.377-23.313-3.354-35.145-2.605c-3.63,0.229-7.239,0.796-10.869,1.031
		c-4.46,0.29-5.689,2.812-4.613,6.681c1.197,4.303,2.969,8.201,6.917,10.983c10.218,7.203,21.424,12.468,32.825,17.391
		c4.994,2.155,9.755,4.719,14.371,7.591c5.894,3.668,8.59,8.812,6.713,15.595c-1.854,6.696-6.312,11.095-13.245,12.686
		c-11.545,2.646-22.605-0.327-33.688-2.96c-19.802-4.704-39.638-9.278-58.906-15.966c-3.616-1.255-6.981-2.856-9.982-5.282
		c-7.053-5.703-8.911-12.81-5.419-21.153c3.295-7.877,6.885-15.624,9.525-23.78c0.981-3.031,2.396-6.368,5.965-7.439
		c2.084-0.626,2.332-2.39,2.626-3.792c2.76-13.183,7-26.001,9.389-39.277c1.735-9.646,3.385-19.332,2.737-29.106
		c-1.177-17.741,4.735-33.313,13.353-48.283c7.321-12.721,15.754-24.789,22.227-38.001c7.509-15.327,11.552-31.483,11.514-48.604
		c-0.044-20.485-0.665-41.013,1.128-61.426c1.931-21.985,4.305-43.984,11.768-65.011c0.272-0.768,0.57-1.528,0.906-2.271
		c3.54-7.799,3.578-7.848-3.43-12.737c-8.53-5.95-16.942-12.104-25.768-17.587c-4.989-3.099-10.596-5.233-15.434-8.673
		c-1.082-0.77-1.921-0.62-2.54,0.296c-2.041,3.021-3.969,1.551-6.191,0.167c-4.518-2.812-8.982-5.65-12.542-9.688
		c-15.068-17.088-34.329-29.043-52.225-42.669c-3.792-2.889-7.552-5.818-11.848-9.13c0.12,3.974,2.075,6.694,2.958,9.726
		c3.479,11.938,8.659,23.441,9.879,35.961c1.129,11.583,1.305,23.188-0.307,34.788c-1.208,8.695-2.575,17.279-7.496,24.816
		c-5.249,8.038-12.38,8.221-17.89,0.277c-5.702-8.221-7.437-17.87-8.892-27.458c-2.52-16.599-0.574-33.015,2.919-49.3
		c0.906-4.223,2.488-8.059,5.268-11.507c3.383-4.196,1.93-9.813,3.6-14.599c0.565-1.619,0.471-3.534,0.984-5.312
		c0.639-2.209,0-4.081-2.114-5.566c-8.64-6.069-17.178-12.284-25.951-18.589c-2.955,5.455-1.339,10.821-0.248,16.003
		c2.302,10.933,6.128,21.508,7.816,32.596c1.731,11.371,2.267,22.755,1.026,34.237c-0.778,7.199-0.927,14.466-3.336,21.406
		c-1.316,3.79-2.523,8.281-7.176,8.414c-4.532,0.128-6.369-4.045-7.939-7.794c-4.044-9.654-2.936-19.859-3.13-29.902
		c-0.363-18.76,1.975-37.105,6.87-55.326c3.151-11.733-0.934-21.546-11.68-28.916c-12.807-8.785-24.731-18.897-36.821-28.634
		c-14.912-12.007-30.739-22.712-45.75-34.53C2.062,297.116,1.478,297.126,1,297c0-1,0-2,0-3
		c14.444,10.619,28.871,21.261,43.374,31.798c0.819,0.595,1.632,3.241,3.387,0.72c1.283-1.844,1.352-3.297-0.778-4.469
		c-0.437-0.24-0.857-0.517-1.257-0.812C30.815,310.16,15.908,299.08,1,288c0-0.667,0-1.333,0-2
		c19.511,13.808,39.109,27.496,58.495,41.477c9.204,6.639,8.935,6.838,14.856-2.574c1.51-2.398,1.668-3.554-0.874-5.483
		c-14.358-10.905-28.396-22.232-42.789-33.093C20.806,278.868,11.458,270.691,1,264c0-0.667,0-1.333,0-2
		c9.232,5.853,17.433,13.08,26.111,19.667c15.943,12.102,31.753,24.378,47.611,36.59c0.524,0.404,0.96,1.297,1.455,1.312
		c11.287,0.311,16.641,10.029,24.328,15.765c14.322,10.685,28.639,21.624,41.443,34.021c11.126,10.771,24.754,17.36,36.966,26.229
		c12.313,8.94,26.017,15.55,39.669,22.214c11.823,5.771,22.132,13.843,32.057,22.392c1.451,1.25,3.244,2.449,1.729,4.988
		c-0.941,1.576,0.618,2.124,1.755,2.884c10.701,7.147,21.384,14.324,31.995,21.605c1.969,1.352,3.159,1.301,5.142-0.25
		c12.886-10.083,27.87-14.168,43.975-14.233c17.223-0.067,34.436,0.053,51.633,1.717c15.931,1.542,31.919,2.825,47.259,7.478
		c18.277,5.542,34.456,15.104,48.188,28.484c12.271,11.956,25.58,22.729,39.068,33.181c16.223,12.569,26.724,28.19,29.397,48.555
		c0.959,7.308,2.342,14.715,0.533,22.247c-1.181,4.91,3.84,9.048,9.631,8.331c7.342-0.908,14.333-3.448,21.688-4.521
		c10.532-1.539,20.155-0.293,28.521,6.599c7.686,6.331,15.476,12.639,18.012,23.055c1.479,6.074,1.312,12.136-0.2,18.113
		c-2.758,10.903-5.97,21.542-13.933,30.174c-7.729,8.378-28.847,12.808-38.285,6.521c-2.689-1.79-5.666-1.583-8.622-0.581
		c-3.583,1.215-7.251,2.229-10.726,3.699c-3.425,1.448-5.521,0.519-6.382-2.914c-0.685-2.733-1.553-4.467-4.728-5.574
		c-3.187-1.113-6.347-3.091-9.002-5.646c-1.269-1.221-4.699-2.896-4.168,1.346c1.458,11.644,0.766,23.643,4.119,34.914
		c2.512,8.438,6.484,16.466,8.749,25.058c2.781,10.562,2.96,21.53,5.024,32.199c3.185,16.451,4.901,33.287,10.386,49.158
		c5.162,14.938,15.889,26.513,26.081,38.275c4.835,5.58,10.017,10.537,17.02,13.321c1.521,0.604,2.749,1.797,2.544,3.871
		c-0.207,2.086-1.498,2.804-3.268,3.123c0.497-1.645,3.334-3.423,0.129-4.909c-5.876-2.727-11.104-6.322-15.754-10.869
		C592.173,866.091,596.977,871.729,603.889,875.226z M525.678,613.405c6.469-0.92,12.34-3.14,17.507-7.073
		c4.858-3.7,6.688-8.69,6.869-14.646c0.151-5.018-0.382-9.955-1.09-14.873c-2.131-14.814-6.636-28.549-17.881-39.284
		c-6.975-6.658-14.387-12.806-21.928-18.763c-12.779-10.094-24.206-21.737-36.893-31.894
		c-17.509-14.015-37.532-22.149-59.896-25.047c-10.827-1.403-21.679-2.592-32.526-3.63c-10.246-0.979-20.604-0.769-30.902-1.229
		c-4.071-0.183-4.932,1.159-4.039,5.187c3.418,15.425,6.603,30.894,8.384,46.637c0.472,4.165-0.438,9.329,2.493,12.419
		c8.404,8.856,14.875,20.018,27.338,24.396c1.324,0.467,2.537,1.551,3.531,2.604c2.277,2.416,4.31,5.065,6.58,7.488
		c16.018,17.091,32.022,34.152,51.446,47.623c7.624,5.286,15.774,8.807,24.745,10.586c2.705,0.536,5.211,0.719,4.225-3.908
		c-0.659-3.099-1.301-5.981-2.795-8.815c-3.858-7.319-3.723-14.726-0.299-22.304c9.539-21.109,27.354-31.004,48.713-35.732
		c8.909-1.973,14.669,0.935,18.405,8.214c6.138,11.959,10.146,24.672,11.182,38.098c0.564,7.325-1.611,13.599-9.357,16.805
		C534.716,608.235,530.271,610.997,525.678,613.405z M491.429,570.448c-0.136,0.301-0.198,0.676-0.419,0.892
		c-13.599,13.389-17.229,29.749-14.215,48.024c1.26,7.64,3.494,15.184,4.049,22.859c1.128,15.582,4.645,30.538,9.598,45.267
		c2.614,7.778,6.432,15.283,6.528,23.727c0.232,19.961,5.636,38.658,13.494,56.802c4.946,11.419,12.784,21.161,18.417,32.177
		c6.552,12.812,15.755,24.537,16.228,39.854c0.036,1.218,0.788,2.604,1.604,3.577c5.094,6.081,9.51,12.682,15.02,18.466
		c6.86,7.203,15.319,12.8,21.043,21.135c1.438,2.097,3.757,3.113,5.996,4.241c1.72,0.865,3.077,0.453,3.95-0.808
		c1.047-1.511-0.92-1.748-1.591-2.477c-10.132-10.988-17.314-23.634-21.853-39.398c2.556,2.909,3.933,5.021,4.714,7.461
		c2.026,6.327,5.691,11.811,8.617,17.651c3.519,7.021,11.525,10.648,13.04,18.844c0.104,0.551,1.647,1.057,2.578,1.189
		c2.205,0.316,4.474,0.578,7.938-1.316c-15.288-9.353-23.964-22.672-28.96-38.559c0.835,0.6,1.359,1.41,1.796,2.269
		c6.304,12.416,12.604,24.75,25.078,32.521c2.603,1.622,4.474,3.286,6.421,0.06c2.029-3.364-1.737-3.182-3.169-4.102
		c-8.46-5.437-16.341-11.734-20.795-20.769c-1.999-4.053-4.082-7.639-6.954-11.08c-7.311-8.76-14.321-17.758-18.76-28.461
		c-6.244-15.06-7.243-31.306-10.81-46.969c-2.816-12.379-2.841-25.202-5.973-37.554c-2.236-8.819-6.562-16.927-8.867-25.624
		c-3.181-11.997-2.796-24.572-4.167-36.877c-0.879-7.886-1.707-15.777-2.521-23.671c-1.151-11.188-5.229-21.347-10.721-31.039
		c-1.302-2.297-2.7-4.692-1.195-9.521c0.838,6.078,3.229,5.033,5.85,3.651c5.511-2.904,11.007-5.848,16.622-8.537
		c6.3-3.019,8.487-8.299,7.878-14.692c-1.279-13.425-5.085-26.162-11.522-38.067c-2.518-4.654-6.188-7.014-11.68-6.672
		c-2.817,0.176-5.589,0.333-8.306,1.098c-19.832,5.582-36.035,15.6-43.872,35.861c-2.641,6.826-2.131,13.281,2.021,19.69
		C483.249,574.803,485.414,571.046,491.429,570.448z M258,599.281c0,5.163,0.126,10.33-0.053,15.485
		c-0.09,2.58,0.7,3.823,3.082,5.239c18.287,10.865,38.345,16.362,59.057,19.812c4.41,0.733,9.079,2.229,12.12-4.317
		c4.595-9.892,8.896-19.779,11.829-30.298c3.867-13.868,6.085-28.222,13.934-40.88c2.977-4.799,2.338-11.569-1.354-15.899
		c-8.49-9.962-17.172-19.892-27.947-27.602c-14.353-10.27-28.719-20.518-43.09-30.759c-7.385-5.265-7.236-5.16-11.624,2.662
		c-8.881,15.833-9.904,33.695-12.697,50.94C258.29,561.994,257.94,580.672,258,599.281z M258.822,620.94
		c-1.182,1.377-0.808,2.579-0.799,3.672c0.133,16.773-3.644,32.633-10.667,47.841c-6.04,13.08-14.34,24.816-21.503,37.228
		c-8.667,15.019-16.066,30.335-14.923,48.445c0.649,10.284-0.809,20.48-2.596,30.622c-2.626,14.901-7.437,29.274-10.533,44.064
		c-0.459,2.192-0.35,3.082,1.519,4.304c9.194,6.006,18.784,6.493,28.774,2.457c2.255-0.911,3.5-2.641,4.328-5.043
		c11.171-32.446,22.581-64.812,33.643-97.293c4.212-12.366,8.539-24.429,20.14-32.102c1.323-0.875,2.244-2.427,3.205-3.77
		c3.661-5.11,7.346-10.19,11.553-14.888c3.96-4.422,6.457-10.017,6.516-15.6c0.041-3.846,1.67-5.542,3.777-7.611
		c5.233-5.141,9.643-10.947,13.87-16.906c0.733-1.034,1.946-2.059,1.257-3.414c-0.597-1.174-2.062-0.752-3.184-0.956
		c-11.936-2.187-23.995-3.631-35.558-7.736C277.579,630.684,268.058,626.032,258.822,620.94z M550.17,601.552
		c-6.691,9.78-16.596,12.731-26.495,15.22c-4.181,1.052-3.929,2.472-2.173,5.229c7.424,11.67,10.021,25.068,10.008,38.236
		c-0.008,10.104,6.844,11.562,12.277,15.955c2.604,2.104,7.075,0.164,8.263,4.762c1.662,6.433,1.874,6.348,7.899,4.24
		c2.466-0.862,5.065-1.386,7.459-2.408c3.638-1.558,7.24-1.519,10.377,0.638c8.075,5.549,28.286,1.402,35.132-5.639
		c7.346-7.555,10.444-16.884,13.281-26.518c3.562-12.102,2.979-23.467-6.048-33.233c-9.003-9.742-19.073-17.51-33.414-15.982
		c-7.354,0.783-14.567,2.447-21.7,4.457C559.283,608.13,553.877,608.12,550.17,601.552z M194.313,834.392
		c-1.571,1.13-2.715,2.647-3.498,4.587c-3.504,8.689-7.26,17.278-10.658,26.009c-2.979,7.649-0.685,14.141,6.174,18.938
		c3.281,2.296,6.89,3.849,10.665,5.09c19.816,6.523,40.117,11.219,60.398,15.971c9.504,2.228,19.05,4.396,28.904,2.018
		c6.028-1.455,10.026-5.264,11.571-11.081c1.5-5.646-0.249-10.183-5.676-13.443c-3.836-2.305-7.645-4.622-11.741-6.361
		c-9.844-4.18-19.452-8.821-28.705-14.172c-7.812-4.52-14.56-9.834-14.926-20.064c-0.058-1.619-1.284-5.165-3.877-3.089
		c-6.074,4.86-12.956,5.696-20.131,5.128C205.459,843.336,198.736,841.003,194.313,834.392z M261.55,787.36
		c-3.003,9.499-2.992,9.604-12.402,10.561c-2.471,0.251-2.74,1.658-3.336,3.489c-3.244,9.953-6.645,19.854-9.971,29.78
		c-1.679,5.01-0.19,6.713,5.072,5.652c5.862-1.181,11.756-1.694,17.74-1.926c10.524-0.405,20.774,1.562,31.124,2.775
		c8.023,0.939,15.85-0.362,23.297-3.342c4.304-1.722,6.49-5.305,6.963-10.017c0.484-4.84-2.36-7.298-6.079-9.24
		c-1.589-0.83-3.206-1.646-4.887-2.257c-12.643-4.597-25.419-8.782-38.407-12.301c-4.434-1.2-7.614-3.282-6.663-8.646
		C264.337,789.993,264.236,788.173,261.55,787.36z M351.991,517.859c0-2.8,0.155-4.15-0.023-5.455
		c-2.354-17.12-5.522-34.099-9.067-51.006c-0.437-2.077-1.392-3.174-3.814-3.714c-4.409-0.98-8.59,0.011-12.88,0.273
		c-12.218,0.75-22.921,5.42-32.848,12.249c-2.497,1.718-2.168,2.789,0.313,4.511C313.206,488.271,334.412,499.528,351.991,517.859z
		 M501.119,750.409c-0.269-1.91-0.278-2.726-0.503-3.476c-2.312-7.723-3.691-15.596-4.774-23.597
		c-1.272-9.407-0.662-19.035-4.728-28.154c-10.38-23.288-11.124-48.809-15.993-73.369c-0.78-3.94-1.688-5.508-6.126-6.162
		c-4.316-0.637-4.545,0.566-3.999,3.739c1.728,10.049,2.239,20.279,4.663,30.225c4.653,19.087,10.656,37.817,13.521,57.377
		C485.438,722.407,492.149,736.332,501.119,750.409z M133.917,494.019c11.639-11.803,9.196-62.381,1.346-69.896
		C124.585,447.052,129.998,469.945,133.917,494.019z M281.456,712.411c-5.307,4.255-7.691,8.988-9.281,13.953
		c-6.908,21.573-15.446,42.562-22.63,64.032c-0.541,1.616-2.959,3.984-0.61,5.187c2.677,1.369,5.925,0.432,8.066-1.937
		c1.029-1.14,1.572-2.902,1.888-4.475c3.53-17.566,8.741-34.627,14.824-51.472C276.549,729.849,279.583,721.992,281.456,712.411z
		 M177.683,409.876c0.767-1.378,1.42-2.524,2.047-3.685c3.12-5.772,3.138-5.806-2.531-9.434
		c-10.463-6.695-20.948-13.355-31.436-20.013c-0.764-0.484-1.563-1.658-2.503-0.909c-2.324,1.852-2.609,4.902-3.722,7.417
		c-0.845,1.91,1.456,2.676,2.774,3.54C153.966,394.429,165.644,402.027,177.683,409.876z M167.484,416.021
		c2.678-3.78,3.012-6.23-1.075-8.488c-3.435-1.897-6.362-4.7-9.571-7.022c-6.724-4.867-13.486-9.682-20.233-14.519
		c-0.41,0.481-0.82,0.964-1.23,1.444C142.416,400.732,157.364,405.547,167.484,416.021z M133.045,388.797
		c2.037,8.962,4.105,17.917,6.086,26.893c0.461,2.09,2.05,2.964,3.628,2.568c1.934-0.482,1.142-2.464,0.73-3.738
		C140.662,405.745,137.967,396.913,133.045,388.797z M123.125,455.208c-0.592-8.587,3.26-16.774,2.419-25.383
		C121.617,438.006,123.123,446.675,123.125,455.208z M99.845,388.415c-2.087,2.923-2.626,6.228-2.799,9.918
		C106.838,397.024,98.11,391.425,99.845,388.415z M95.704,420.159c-2.863,5.311-0.459,10.262-1.223,14.977
		C94.924,430.397,97.05,425.785,95.704,420.159z"/>
	<path d="M585.257,646.153c4.242-0.055,6.359-1.985,5.801-6.197c-0.46-3.468-5.463-6.718-9.687-5.858
		c-5.146,1.047-9.917,3.185-14.208,6.354c1.5,2.134,4.197,1.938,6.22,3.522c-3.575,0.821-7.011-0.259-7.773-2.401
		c-1.19-3.341,1.874-3.805,3.709-4.738c6.41-3.267,12.775-7.39,20.257-2.491c3.265,2.138,3.86,5.189,3.406,8.707
		c-0.351,2.705-2.328,3.871-4.589,4.698C587.18,648.191,586.09,648.027,585.257,646.153z"/>
</g>
</svg>
