<?xml version="1.0" encoding="utf-8"?>
<!-- Generator: Adobe Illustrator 16.2.1, SVG Export Plug-In . SVG Version: 6.00 Build 0)  -->
<!DOCTYPE svg PUBLIC "-//W3C//DTD SVG 1.1//EN" "http://www.w3.org/Graphics/SVG/1.1/DTD/svg11.dtd">
<svg version="1.1" id="_x32_9BnNcwyfddZGFzVQ546G5C4bB1pzTbyV7Subd_x5F_Aecs_xA0_Image_1_"
	 xmlns="http://www.w3.org/2000/svg" xmlns:xlink="http://www.w3.org/1999/xlink" x="0px" y="0px" width="640px" height="960px"
	 viewBox="0 0 640 960" enable-background="new 0 0 640 960" xml:space="preserve">
<g>
	<path d="M532.107,111.08c0.445,2.336,1.647,5.385,3.914,2.261c15.229-20.999,31.614-41.152,45.942-62.805
		c1.813-2.741,3.556-5.547,5.088-8.451c1.188-2.249,2.984-3.712,5.31-3.958c2.126-0.225,3.013-1.183,4.117-2.854
		c1.173-1.771,2.793-4.18,5.641-2.753c2.76,1.383,3.771,4.094,2.792,6.774c-1.829,5.009-2.046,10.586-2.227,15.401
		c-0.241,6.503-1.614,12.616-2.785,18.791c-3.618,19.082-13.321,34.628-28.581,46.657c-1.678,1.322-3.504,2.632-5.689,2.897
		c-7.121,0.864-9.619,6.239-11.595,11.939c-4.144,11.953-7.267,24.212-10.354,36.465c-6.334,25.129-18.726,47.063-34.766,67.148
		c-4.64,5.809-8.839,11.96-12.268,18.55c-7.065,13.586-17.444,24.541-27.932,35.361c-8.109,8.368-11.301,18.95-13.468,29.696
		c-0.981,4.86,1.271,10.37,2.03,15.589c2.27,15.575,4.634,31.146,2.704,46.963c-0.725,5.937-3.925,10.8-6.962,15.697
		c-14.862,23.971-31.582,46.823-44.161,72.157c-3.862,7.777-7.989,15.459-11.093,23.654c-3.666,9.686-10.271,17.641-17.197,25.176
		c-8.307,9.039-13.086,19.491-15.049,31.602c-2.19,13.528-8.012,26.002-12.572,38.82c-7.995,22.469-16.768,44.617-28.991,65.211
		c-1.685,2.838-3.293,6.038-5.776,8.02c-5.603,4.469-7.63,10.519-9.158,17.009c-2.797,11.88-9.481,21.896-18.476,29.3
		c-8.933,7.352-13.664,16.058-16.327,26.766c-3.328,13.381-7.936,26.423-10.75,39.953c-0.463,2.229-0.868,4.104,0.989,5.929
		c1.354,1.328,1.795,3.171,1.532,5.08c-0.848,6.138,2.762,9.026,7.803,11.088c9.29,3.797,19.072,5.949,28.641,8.814
		c5.188,1.554,10.359,3.09,14.916,6.303c5.076,3.579,5.138,8.688,4.541,13.856c-0.514,4.452-4.266,5.985-8.038,6.94
		c-9.682,2.451-19.417,3.515-29.473,2.246c-16.422-2.073-32.895-2.954-49.621,1.344c2.316,2.955,3.446,6.154,3.388,9.942
		c-0.07,4.524,3.208,7.031,6.898,8.878c12.816,6.414,26.121,11.576,39.91,15.495c5.276,1.499,10.553,3.193,14.001,7.835
		c7.852,10.565,1.529,23.566-12.775,26.071c-13.673,2.395-27.207,1.712-40.837-1.294c-12.837-2.828-25.935-4.477-38.918-6.641
		c-5.685-0.948-11.161-2.606-16.577-4.575c-12.76-4.639-15.625-14.737-11.356-25.968c2.914-7.665,6.106-15.215,8.527-23.073
		c1.073-3.48,2.608-6.857,6.48-8.156c1.766-0.593,1.889-2.187,2.396-3.459c6.809-17.104,10.04-34.989,12.268-53.201
		c1.297-10.604,0.181-21.225,1.709-31.811c1.761-12.202,7.396-22.426,14.186-32.283c2.811-4.08,5.543-8.215,8.246-12.366
		c0.62-0.953,1.363-2.072,1.388-3.13c0.238-10.343,5.61-18.613,11.402-26.356c6.968-9.313,7.818-19.92,8.991-30.779
		c1.874-17.343,2.197-34.777,3.703-52.138c0.647-7.455,0.631-14.957,0.99-22.425c0.757-15.776,0.762-31.617,2.339-47.328
		c1.977-19.693,7.034-38.28,22.627-52.274c7.308-6.559,14.171-13.61,21.408-20.252c2.469-2.266,1.637-3.131-0.778-4.374
		c-16.134-8.301-32.135-16.867-48.383-24.937c-5.408-2.688-11.519-3.9-16.907-6.813c-0.917-0.495-2.159-0.723-2.689,0.32
		c-2.117,4.162-4.786,1.963-7.503,0.898c-8.397-3.29-14.605-9.671-21.386-15.189c-14.196-11.555-31.169-18.494-46.412-28.296
		c-3.417-2.197-6.991-4.151-10.802-6.4c-0.697,3.055,0.985,4.917,1.684,7c3.642,10.86,8.65,21.283,10.477,32.724
		c1.813,11.359,2.086,22.725,0.864,34.202c-0.911,8.553-2.254,16.936-5.445,24.94c-1.294,3.247-3.081,6.221-5.594,8.735
		c-5.614,5.615-12.172,5.06-16.705-1.502c-5.098-7.38-7.192-15.92-8.439-24.52c-2.618-18.067-0.673-35.9,3.705-53.585
		c1.272-5.138,5.735-8.455,6.5-13.75c0.846-5.846,1.977-11.662,3.286-17.422c0.443-1.953-0.765-2.458-1.773-3.042
		c-9.238-5.345-18.528-10.6-28.257-16.139c-2.064,9.507,0.014,17.948,2.903,26.089c6.897,19.435,7.799,39.471,6.377,59.7
		c-0.514,7.315-1.42,14.729-4.685,21.583c-1.507,3.165-3.313,6.264-6.967,6.139c-3.508-0.12-5.743-3.081-7.225-6.158
		c-3.542-7.355-3.799-15.409-3.883-23.265c-0.224-20.894,1.131-41.671,7.297-61.841c2.071-6.773,0.921-13.289-1.285-19.812
		c-0.663-1.961-1.928-2.852-3.516-3.837c-15.144-9.4-30.261-18.854-45.411-28.228c-16.765-10.375-34.086-19.726-50.924-29.926
		C2.615,283.324,1.764,283.235,1,283c0-1,0-2,0-3c16.103,9.181,32.19,18.388,48.335,27.493c1.356,0.766,2.983,3.373,4.687-0.004
		c1.434-2.841-0.615-3.312-2.324-4.294C34.789,293.481,17.897,283.736,1,274c0-0.667,0-1.333,0-2
		c22.087,12.108,44.141,24.278,66.277,36.298c10.088,5.479,6.976,4.938,13.54-4.504c2.306-3.316,1.989-4.991-1.659-7.146
		c-16.506-9.747-32.728-19.975-49.228-29.733C20.316,261.229,11.152,254.764,1,250c0-0.667,0-1.333,0-2
		c9.442,4.324,17.92,10.322,26.809,15.595c18.141,10.76,36.084,21.852,54.135,32.764c1.119,0.677,2.306,1.993,3.817,0.436
		c1.627-1.677,2.938-0.382,4.342,0.531c20.765,13.508,41.652,26.829,62.291,40.524c23.939,15.887,49.873,27.396,77.034,36.442
		c13.194,4.396,25.221,11.178,36.495,19.285c0.781,0.562,2.036,1.793,1.87,2.142c-2.467,5.186,2.269,5.122,4.717,6.394
		c16.551,8.591,33.2,16.994,49.733,25.618c3.313,1.729,4.757,1.307,5.913-2.41c2.945-9.47,4.768-19.157,5.783-28.957
		c3.07-29.589,11.082-57.504,27.519-82.58c6.674-10.183,15.926-17.744,26.449-23.673c2.954-1.665,5.198-3.34,6.452-6.694
		c1.375-3.675,3.32-7.23,6.521-9.79c3.163-2.53,2.208-4.894-0.092-7.354c-3.859-4.131-7.286-8.759-11.571-12.378
		c-8.188-6.916-11.857-16.066-13.99-26.013c-2.479-11.56-1.113-22.86,7.26-31.551c9.546-9.907,21.631-15.944,35.367-18.351
		c10.381-1.817,20.018-0.159,28.856,5.683c4.261,2.815,6.582,7.365,10.014,11.326c9.555-16.753,20.938-32.106,32.2-47.534
		c6.673-9.143,12.435-19.037,21.208-26.506c-0.538,1.006-0.934,2.127-1.635,3.002c-17.785,22.193-33.692,45.713-49.167,69.539
		c-1.261,1.941-1.722,3.823-0.14,5.871c2.594,3.356,4.092,7.017,3.625,11.446c-0.261,2.459,1.98,3.845,3.726,4.918
		c1.643,1.011,2.018-0.897,2.601-2.037c11.562-22.605,27.273-42.466,41.784-63.122c6.922-9.854,13.808-19.735,20.604-29.675
		c1.171-1.713,2.552-3.803,0.646-5.875c-2.406-2.616-3.99,0.334-5.438,1.322c-5.814,3.967-9.908,9.806-15.099,14.476
		c-0.899,0.811-1.51,2.539-4.057,1.56c2.565-2.364,5.109-4.132,6.903-6.475c4.805-6.272,12.513-10.368,14.14-19.077
		c0.486-2.603,0.66-5.434,2.454-7.673l-0.16-0.197c0.497,3.681-0.722,7.025-1.938,10.396c-0.387,1.068-1.981,2.442-0.297,3.368
		c1.508,0.828,2.006-1.241,3.031-1.904L532.107,111.08z M445.61,345.688c3.325-10.85,6.498-20.3,9.099-29.903
		c3.098-11.439,8.516-21.148,17.149-29.541c8.521-8.283,16.326-17.459,22.021-28.039c4.165-7.738,8.838-15.102,14.312-21.925
		c13.228-16.485,23.861-34.474,30.386-54.574c4.756-14.653,8.141-29.747,12.564-44.516c2.196-7.327,4.639-14.955,14.21-16.123
		c1.371-0.167,2.782-1.033,3.926-1.904c9.883-7.536,17.656-16.803,22.916-28.128c4.547-9.791,6.208-20.379,8.619-30.76
		c0.339-1.46,0.531-2.854-1.478-3.621c-2.4-0.917-2.532,1.176-3.002,2.218c-2.896,6.419-5.501,12.969-8.416,19.377
		c-1.071,2.355-2.309,4.766-4.665,6.289c4.339-9.046,8.338-18.166,11.817-27.518c0.371-0.998,1.417-2.415,2.228-2.469
		c5.187-0.349,4.766-4.017,4.671-7.468c-0.042-1.569,0.838-3.901-1.096-4.453c-1.906-0.544-2.362,1.866-3.201,3.184
		c-6.47,10.17-10.934,21.485-17.907,31.367c-0.64,0.906-0.931,2.324-2.936,2.038c7.247-10.257,12.097-21.626,18.248-32.273
		c1.295-2.24,2.188-5.339,5.047-5.753c2.482-0.359,3.736-1.372,3.751-3.56c0.012-1.605-0.731-3.339-2.755-3.569
		c-2.526-0.289-3.352,1.687-4.232,3.497c-4.058,8.331-9.597,15.733-14.782,23.346c-3.234,4.748-6.814,9.26-10.239,13.877
		c0.422-2.445,1.707-4.283,2.979-6.132c5.986-8.698,12.005-17.376,17.88-26.149c0.443-0.663,1.924-1.966,0.375-2.922
		c-1.094-0.676-2.158,0.305-2.877,1.105c-0.638,0.713-0.958,1.707-1.438,2.564c-4.29,7.647-9.317,14.819-14.466,21.89
		c-11.087,15.225-22.874,29.97-33.4,45.567c-16.627,24.64-34.06,48.699-51.132,73.019c-7.313,10.419-14.651,20.928-19.438,32.74
		c-4.904,12.104-12.309,22.105-21.761,30.871c-12.074,11.196-23.783,22.748-33.547,36.102c-2.789,3.815-5.623,7.599-8.886,12.003
		c-0.218-2.575,1.709-3.562,1.196-5.503c-13.619,4.927-23.297,13.741-28.66,27.07c-5.645,14.026-3.385,23.282,7.947,33.251
		c9.397,8.267,20.715,12.666,32.604,15.63c4.7,1.172,9.41,2.93,14.566,1.63c13.785-3.472,18.51-17.62,17.307-31.72
		C448.849,338.527,449.943,342.777,445.61,345.688z M290.572,466.84c-4.984,4.788-9.846,9.271-13.799,14.635
		c-8.819,11.969-12.243,25.979-13.564,40.262c-1.789,19.327-2.251,38.777-3.19,58.182c-0.754,15.588-1.046,31.208-2.261,46.758
		c-0.333,4.262,1.066,5.206,4.323,6.591c19.567,8.316,40.35,11.645,61.062,15.318c2.666,0.473,3.834-0.912,4.948-3.062
		c14.274-27.521,24.353-56.702,33.836-86.089c3.116-9.653,3.054-20.47,9.371-28.913c3.524-4.71,2.772-6.24-2.085-9.296
		c-21.648-13.61-42.588-28.348-64.702-41.232C298.884,476.714,293.357,473.529,290.572,466.84z M411.006,284.611
		c-0.347-0.161-0.653-0.442-0.898-0.397c-20.159,3.661-35.946,14.511-47.168,31.154c-16.438,24.38-23.979,52.005-27.008,81.051
		c-1.106,10.615-2.606,21.258-6.762,31.223c-1.054,2.525-0.349,3.411,1.771,4.359c25.236,11.294,47.922,27.04,71.481,41.248
		c2.669,1.609,3.086,0.739,4.164-1.229c3.096-5.646,6.376-11.191,9.513-16.816c11.112-19.934,24.784-38.248,36.468-57.818
		c3.051-5.108,5.001-10.396,5.762-16.537c0.858-6.938-0.164-13.625-0.413-20.397c-0.399-10.864-2.262-21.579-4.248-33.017
		c-1.044,2.698-0.492,4.62-0.344,6.555c0.697,9.062-0.36,17.786-5.298,25.687c-4.423,7.075-11.09,11.074-19.153,10.119
		c-14.915-1.769-28.896-6.894-41.073-15.898c-9.924-7.341-16.415-16.92-13.422-29.878c4.097-17.729,15.06-29.817,32.319-35.955
		C408.586,287.391,410.573,287.039,411.006,284.611z M299.47,679.645c7.862-6.115,15.278-12.709,21.068-20.911
		c5.032-7.134,4.937-7.171-3.417-8.875c-19.319-3.941-38.819-7.221-57.041-15.249c-1.906-0.841-2.882-1.08-3.138,1.633
		c-0.839,8.886-1.756,17.771-3.003,26.607c-1.219,8.641-3.012,17.113-8.013,24.625c-6.861,10.306-12.831,21.256-20.256,31.12
		c-11.211,14.897-15.362,31.486-14.666,49.692c0.332,8.672-1.023,17.229-2.349,25.709c-2.413,15.431-5.949,30.637-12.298,45.029
		c-1.21,2.741-0.178,4.46,2.418,5.464c3.978,1.539,7.916,3.21,11.971,4.513c8.267,2.657,19.238-2.713,22.363-10.705
		c12.861-32.886,25.156-65.979,36.925-99.273c3.123-8.835,5.752-18.085,13.833-24.134c4.965-3.717,9.072-8.259,12.861-13.136
		c6.211-7.992,10.454-16.814,12.118-27.304C305.446,676.336,303.075,678.984,299.47,679.645z M376,218.974
		c1.718,11.541,3.826,23.054,13.298,32.25c8.452,8.207,19.14,15.667,17.779,29.952c-0.089,0.924,0.475,1.741,1.499,1.341
		c2.296-0.897,4.779-0.188,6.902-2.907c8.811-11.279,18.428-21.875,29.285-31.293c8.08-7.008,14.993-15.03,20.123-24.498
		c1.659-3.062,2.791-5.817-1.411-7.95c-1.167-0.592-2.641-1.757-2.482-3.486c0.79-8.655-5.067-14.312-9.31-20.651
		c-6.849-10.24-17.474-12.921-28.668-12.388c-12.457,0.594-23.305,6.169-33.49,13.375C380.414,199.165,376.934,208.032,376,218.974z
		 M268.718,907.453c8.042-0.375,16.173-0.4,23.823-3.604c5.027-2.104,7.291-5.972,7.455-11.249
		c0.266-8.563-4.095-13.646-14.707-16.459c-13.083-3.468-25.518-8.569-37.803-14.144c-6.718-3.048-12.305-6.753-11.53-15.376
		c0.121-1.344-0.526-2.785-1.647-3.338c-1.275-0.629-1.909,0.966-2.747,1.676c-11.405,9.654-28.766,8.419-37.669-2.788
		c-0.904-1.138-1.546-1.164-2.265-0.226c-0.898,1.173-1.88,2.421-2.303,3.797c-2.509,8.153-5.565,16.064-8.804,23.973
		c-4.93,12.038-0.759,19.979,11.552,24.312c3.232,1.137,6.537,2.098,9.854,2.964c11.5,3.003,23.378,3.816,35.04,5.915
		C247.485,904.798,257.81,908.164,268.718,907.453z M314.418,445.016c-0.862,0.639-1.835,1.242-2.673,1.996
		c-4.572,4.116-9.161,8.216-13.65,12.42c-6.707,6.281-6.305,10.18,1.508,15.474c0.954,0.646,2.043,1.088,3.035,1.685
		c7.075,4.251,14.245,8.356,21.188,12.813c16.234,10.422,32.355,21.019,48.529,31.532c1.84,1.195,3.528,3.175,5.824,0.431
		c7.219-8.629,14.502-17.183,18.699-27.854c1.038-2.64,0.566-4.045-2.078-5.301c-26.392-12.527-51.048-28.294-77.12-41.425
		C316.645,446.265,315.64,445.681,314.418,445.016z M235.947,836.75c1.113,0.077,1.97,0.337,2.723,0.159
		c15.414-3.657,30.9-2.309,46.335-0.453c9.54,1.146,18.814,0.1,28.014-2.117c3.13-0.754,6.668-1.605,6.956-5.896
		c0.317-4.733,0.239-9.22-4.625-12.153c-5.286-3.189-11.182-4.506-16.941-6.324c-9.657-3.049-19.765-4.721-28.797-9.698
		c-3.9-2.147-5.783-5.115-5.665-9.571c0.047-1.786,0.851-3.974-1.73-5.431c-1.076,6.095-3.012,11.394-10.337,11.859
		c-1.07,0.068-1.406,1.31-1.754,2.225C245.421,811.729,240.733,824.115,235.947,836.75z M151.94,428.23
		c0.539-9.188-0.771-18.309-2.971-27.314c-0.602-2.466-0.794-6.605-2.971-6.649c-2.755-0.055-3.06,4.034-3.952,6.521
		c-5.439,15.161-3.346,30.616-1.526,46.029c0.517,4.376,0.902,8.813,2.523,12.982c0.287,0.736,0.726,1.741,1.331,1.955
		c1.233,0.437,1.549-0.954,2.008-1.697c0.678-1.099,1.176-2.329,1.602-3.557C151.152,447.383,152.465,437.994,151.94,428.23z
		 M154.033,343.423c-3.364,1.573-2.791,5.289-4.289,7.878c-1.121,1.936,0.236,2.713,1.636,3.396
		c12.045,5.873,24.044,11.848,36.183,17.521c3.896,1.82,3.085-2.701,4.32-4.213c2.651-3.246,2.18-5.627-2.283-7.601
		c-11.421-5.051-22.577-10.699-33.838-16.111C155.181,344.014,154.611,343.71,154.033,343.423z M147.065,355.411
		c-1.604,0.171-1.47,1.1-1.163,2.152c0.768,2.63,2.172,4.746,4.597,6.167c8.403,4.918,16.76,9.913,25.198,14.77
		c1.27,0.731,2.925,3.137,4.302-0.053c0.868-2.011,1.81-3.676-1.118-5.249c-10.004-5.374-19.843-11.057-29.746-16.62
		C148.42,356.177,147.706,355.772,147.065,355.411z M251.944,794.924c4.433-0.587,6.995-2.138,7.2-6.523
		c0.098-2.095,0.919-4.153,1.415-6.229c2.103-8.793,4.207-17.587,6.311-26.38c-0.197-0.055-0.394-0.109-0.59-0.163
		C261.574,768.527,256.868,781.428,251.944,794.924z M142.424,357.778c2.19,8.698,4.475,17.376,6.496,26.113
		c0.448,1.936,0.753,2.973,3.046,2.69c2.769-0.339,2.239-2.407,1.761-3.681C150.51,374.322,147.889,365.469,142.424,357.778z
		 M236.71,697.495c4.901-8.076,11.553-15.186,12.928-25.024C244.725,680.515,238.083,687.638,236.71,697.495z M395.404,285.722
		c9.719-1.981,10.648-3.001,9.585-10.336c-0.116-0.801,0.021-1.915-0.945-2.01c-0.625-0.062-1.49,0.571-1.976,1.13
		C399.188,277.819,396.678,281.371,395.404,285.722z M135.664,399.928c-3.983,4.416-5.612,21.726-2.248,27.082
		C131.869,417.254,135.669,409.169,135.664,399.928z M107.694,362.581c-1.494,3.229-2.621,6.531-2.418,10.171
		C114.779,371.029,107.35,366.037,107.694,362.581z M102.572,410.101c-0.433-4.767,2.906-9.294,0.979-14.778
		C100.655,400.479,103.148,405.421,102.572,410.101z"/>
	<path d="M531.081,99.148c-0.745-2.835,2.451-5.654-0.343-9.072c-6.821,10.103-11.731,21.19-19.789,30.132
		c0.682-4.088,4.038-6.573,5.961-9.92c3.657-6.365,7.467-12.645,11.036-19.058c0.978-1.755,2.21-2.753,4.062-3.172l-0.08-0.123
		c1.185,3.812,2.49,7.634-1.009,11.016L531.081,99.148z"/>
	<path d="M532.01,88.059c3.132-1.075,4.599-0.275,4.953,2.987c0.285,2.612,0.086,5.183-0.869,7.748
		c-1.5,4.032-2.674,8.185-3.985,12.286l-0.39-0.269c-0.306-5.532,2.821-10.204,3.879-15.403c0.725-3.557,0.746-6.543-3.668-7.473
		L532.01,88.059z"/>
	<path d="M433.743,243.378c0.425,7.983-0.887,8.954-7.065,6.416c-8.17-3.356-12.854-10.164-11.704-16.98
		c0.521-3.083,2.2-5.176,5.293-5.788c2.183-0.433,4.477-0.619,6.223,2.44c-3.752-0.605-7.36-1.66-8.997,1.804
		c-1.614,3.416-0.927,7.052,1.479,10.247c2.059,2.73,4.604,4.705,7.731,6.044C431.919,249.793,432.215,249.68,433.743,243.378z"/>
</g>
</svg>
