<?xml version="1.0" encoding="utf-8"?>
<!-- Generator: Adobe Illustrator 16.2.1, SVG Export Plug-In . SVG Version: 6.00 Build 0)  -->
<!DOCTYPE svg PUBLIC "-//W3C//DTD SVG 1.1//EN" "http://www.w3.org/Graphics/SVG/1.1/DTD/svg11.dtd">
<svg version="1.1" id="_x33_lCwgNvOG4UqHYAit0kw4k4bG9uFQeVaAynyyqTIjR0_xA0_Image_1_"
	 xmlns="http://www.w3.org/2000/svg" xmlns:xlink="http://www.w3.org/1999/xlink" x="0px" y="0px" width="640px" height="960px"
	 viewBox="0 0 640 960" enable-background="new 0 0 640 960" xml:space="preserve">
<g>
	<path d="M1,248c11.284,5.435,21.572,12.578,32.314,18.938c16.318,9.659,32.445,19.642,48.665,29.47
		c0.823,0.498,2.282,1.404,2.541,1.16c4.057-3.816,6.352,0.449,8.895,2.065c19.241,12.229,38.686,24.173,57.461,37.087
		c24.865,17.104,52.211,28.618,80.53,38.329c12.527,4.295,23.946,10.868,34.652,18.646c0.757,0.551,1.913,1.865,1.732,2.197
		c-2.504,4.592,1.789,4.867,3.96,5.986c16.58,8.545,33.28,16.857,49.854,25.416c3.061,1.581,3.826,1.485,4.551-2.242
		c2.031-10.465-1.096-20.341-2.736-30.361c-2.425-14.806-6.318-29.387-6.435-44.524c-0.021-2.806-0.86-4.62-3.938-5.967
		c-7.765-3.397-13.864-9.246-18.694-16.056c-4.46-6.285-9.254-11.634-16.241-15.422c-6.455-3.499-12.173-8.251-14.517-16.133
		c-0.862-2.897-5.232-4.746-1.838-8.735c0.313-0.369-1.195-2.505-2.088-3.639c-2.384-3.027-4.275-5.926,0.811-8.117
		c0.895-0.385,1.237-0.539,0.883-1.677c-1.363-4.38,1.922-5.623,5.077-6.952c-2.772-4.396-5.553-8.692-8.194-13.074
		c-0.616-1.022-1.118-1.932-2.287-2.434c-11.158-4.785-17.624-14.869-25.663-23.118c-2.147-2.204-3.532-5.668-4.068-8.762
		c-0.434-2.501-1.48-4.438-2.904-6.079c-4.204-4.849-5.78-10.536-6.307-16.72c-0.24-2.821-1.719-5.239-2.848-7.782
		c-0.941-2.122-2.621-4.216-0.443-6.828c2.041-2.447,4.25-1.553,6.564-0.853c-0.105-1.691-0.351-3.14-0.255-4.565
		c0.265-3.932,3.44-5.69,6.912-3.974c2.465,1.218,4.382,3.125,5.872,5.292c4.608,6.703,9.796,12.909,15.151,19.021
		c3.828,4.37,9.815,5.161,14.126,9.955c-0.324-5.181-2.87-8.463-5-11.857c-2.356-3.753-4.701-7.465-6.297-11.646
		c-1.556-4.076-1.241-7.442,2.696-9.901c3.94-2.462,6.339,0.04,8.904,2.621c3.505,3.528,4.349,8.545,7.264,12.36
		c3.518,4.603,7.24,9.055,10.656,13.73c6.719,9.199,8.331,19.294,4.065,29.906c-1.214,3.021-0.706,4.566,1.472,6.689
		c12.63,12.312,25.137,24.751,37.585,37.247c1.582,1.588,3.422,2.256,5.328,2.187c2.902-0.105,5.58,0.825,8.297,1.369
		c6.72,1.345,8.1,0.121,7.537-6.811c-0.492-6.067-3.176-10.925-7.033-15.43c-7.768-9.068-15.188-18.5-19.317-29.818
		c-8.478-23.229,4.344-46.663,28.905-53.082c8.438-2.206,16.916-4.046,25.912-2.537c8.695,1.459,14.854,5.761,19.275,13.171
		c3.032,5.081,8.173,9.662,9.129,15.043c1.422,7.999,6.65,12.111,11.713,16.845c3.477,3.249,4.178,6.279,0.16,9.495
		c-3.274,2.624,0.13,5.988-1.12,9.104c-1.531,3.821-1.59,7.898,1.452,11.786c1.641,2.096-2.36,8.673-5.494,9.927
		c-3.483,1.395-7.045,2.599-10.577,3.87c-2.489,0.896-3.425,2.104-2.837,5.181c1.729,9.046,2.899,18.199,4.214,27.321
		c0.252,1.745,0.957,3.173,2.188,4.33c11.399,10.719,17.705,24.585,23.75,38.58c4.367,10.111,8.826,20.179,10.557,31.237
		c0.847,5.41-1.891,9.938-2.52,14.954c-1.705,13.578-3.728,27.108-6.286,40.561c-3.045,16.007-9.772,30.567-16.48,45.274
		c-4.196,9.2-8.728,18.271-12.634,27.613c-3.87,9.258-10.081,16.987-16.786,24.277c-8.416,9.153-13.342,19.748-15.319,32.031
		c-2.154,13.377-7.937,25.686-12.431,38.358c-7.978,22.483-16.662,44.667-28.967,65.229c-1.607,2.688-2.949,5.94-5.328,7.687
		c-6.928,5.084-8.235,12.784-10.481,20.099c-3.619,11.782-10.905,21.156-19.933,29.07c-5.774,5.062-10.321,10.324-12.225,18.025
		c-3.862,15.624-9.281,30.834-12.672,46.6c-0.481,2.235-0.746,4.11,1.122,5.909c1.37,1.317,1.7,3.209,1.453,5.104
		c-0.764,5.866,2.578,8.767,7.47,10.806c10.33,4.308,21.312,6.471,31.906,9.896c3.759,1.216,7.405,2.553,10.856,4.603
		c5.911,3.511,6.518,8.95,5.66,14.743c-0.761,5.146-5.456,6.42-9.511,7.414c-12.74,3.124-25.618,2.585-38.503,0.688
		c-8.402-1.238-16.864-1.255-25.248-0.005c-4.5,0.671-9.163,0.531-14.015,2.367c2.768,2.928,3.505,6.261,3.536,10.014
		c0.039,4.779,3.641,7.232,7.44,9.074c12.734,6.173,25.843,11.387,39.499,15.197c5.268,1.47,10.518,3.22,13.943,7.928
		c7.768,10.676,1.423,23.525-12.966,25.952c-13.836,2.334-27.491,1.724-41.289-1.518c-12.631-2.966-25.643-4.292-38.47-6.444
		c-5.831-0.979-11.495-2.563-16.981-4.868c-10.968-4.605-15.24-12.614-11.244-23.867c3.229-9.097,6.845-18.066,9.948-27.222
		c0.808-2.384,2.113-4.506,4.752-5.332c1.766-0.553,2.467-2.029,3.07-3.55c5.734-14.456,8.635-29.582,11.322-44.848
		c2.35-13.353,0.884-26.845,2.811-40.157c1.268-8.761,3.769-17.021,8.781-24.424c2.877-4.249,5.691-8.542,8.443-12.872
		c3.237-5.093,6.657-9.798,7.356-16.407c0.841-7.953,5.803-14.695,10.596-20.932c6.982-9.084,7.767-19.605,8.919-30.298
		c1.887-17.511,2.234-35.113,3.727-52.644c0.635-7.455,0.386-14.939,1.018-22.43c0.991-11.757,0.482-23.634,1.265-35.416
		c1.295-19.512,3.583-38.856,15.694-55.349c7.25-9.873,16.977-17.204,25.979-25.276c1.969-1.766,4.017-3.443,5.888-5.041
		c-0.169-1.838-1.505-1.882-2.438-2.37c-16.221-8.492-32.366-17.136-48.715-25.372c-5.549-2.795-11.862-3.936-17.376-6.979
		c-0.905-0.5-2.168-0.767-2.694,0.273c-2.097,4.147-4.771,2.023-7.5,0.951c-8.393-3.299-14.605-9.676-21.386-15.196
		c-14.198-11.557-31.174-18.492-46.411-28.309c-3.422-2.204-7.007-4.155-10.801-6.391c-0.757,3.018,0.95,4.874,1.649,6.954
		c3.648,10.859,8.637,21.287,10.471,32.729c1.822,11.361,2.094,22.725,0.878,34.201c-0.906,8.553-2.249,16.935-5.44,24.938
		c-1.294,3.249-3.075,6.226-5.585,8.742c-5.628,5.646-12.149,5.103-16.702-1.463c-5.114-7.373-7.205-15.916-8.454-24.513
		c-2.626-18.067-0.681-35.902,3.688-53.592c1.232-4.987,5.527-8.189,6.323-13.282c0.938-6,2.197-11.952,3.437-17.899
		c0.245-1.175,0.083-1.828-0.914-2.463c-9.41-5.987-19.219-11.235-29.061-16.39c-2.716,10.704,0.645,20.37,3.879,29.528
		c6.474,18.335,6.282,37.069,5.356,55.904c-0.359,7.309-1.392,14.729-4.652,21.584c-1.506,3.166-3.315,6.32-6.957,6.146
		c-3.692-0.178-5.939-3.291-7.447-6.584c-3.323-7.257-3.597-15.127-3.676-22.816c-0.214-20.894,1.111-41.677,7.289-61.847
		c2.076-6.778,0.924-13.288-1.275-19.812c-0.661-1.961-1.922-2.854-3.511-3.841c-15.143-9.401-30.252-18.867-45.414-28.228
		c-16.776-10.355-34.079-19.743-50.928-29.931C2.615,283.325,1.764,283.235,1,283c0-1,0-2,0-3
		c16.103,9.178,32.191,18.381,48.335,27.484c1.356,0.765,2.981,3.393,4.681,0.007c1.418-2.826-0.609-3.31-2.328-4.296
		C34.78,293.484,17.893,283.737,1,274c0-0.667,0-1.333,0-2c22.088,12.105,44.149,24.263,66.277,36.295
		c10.11,5.497,6.984,4.91,13.539-4.5c2.307-3.312,1.987-4.998-1.659-7.15c-16.649-9.828-33.027-20.116-49.661-29.973
		C20.031,261.062,11.003,254.691,1,250C1,249.333,1,248.667,1,248z M237.024,199.978c-3.675-2.84-7-6.024-9.726-9.809
		c-2.272-3.156-5.025-5.757-8.808-6.963c-1.664-0.53-3.424-0.467-4.324,1.368c-0.594,1.211,4.773,10.254,6.167,10.38
		c5.368,0.483,8.812,3.738,11.053,8.161c0.931,1.837,2.021,3.095,3.505,4.42c4.005,3.575,8.003,7.275,8.579,13.233
		c-2.887-7.146-10.404-10.429-13.88-17.134c-1.442-2.782-3.788-5.07-6.803-6.333c-1.208-0.507-2.585-0.657-3.776,0.291
		c-1.471,1.173-0.424,2.326-0.008,3.519c0.752,2.153,1.204,4.447,2.208,6.47c1.588,3.198,3.108,7.743,6.803,7.76
		c4.748,0.022,7.406,2.001,9.606,5.45c1.254,1.966,2.869,3.445,4.532,5.032c3.098,2.957,7.629,4.927,8.603,11.242
		c-5.74-7.712-12.875-12.296-17.978-18.888c-1.078-1.393-3.04-1.936-4.368-0.612c-1.069,1.066-0.64,2.898,0.228,4.181
		c2.1,3.103,3.255,6.738,6.169,9.412c7.745,7.104,13.604,16.491,24.431,19.806c0.448,0.138,1.5-0.336,1.255,0.853
		c-0.656,3.178,1.764,5.054,3.144,7.333c10.077,16.65,22.297,31.975,30.524,49.785c1.818,3.938,5.191,6.681,9.529,8.162
		c6.573,2.246,13.046,4.86,18.788,8.822c10.795,7.45,22.146,7.217,34.076,3.392c7.566-2.426,15.323-4.259,22.995-6.356
		c-7.333,4.627-15.937,5.809-24.653,9.255c7.834,2.02,14.803,1.799,21.729,2.284c-4.743,2.354-9.672,1.683-14.524,1.016
		c-4.392-0.604-8.935-2.865-13.041-2.182c-7.572,1.261-14.629,0.234-21.887-1.996c4.061,14.319,16.655,20.664,27.497,21.699
		c10.171,0.97,20.118-0.494,30.136-1.961c17.681-2.589,20.863-11.549,18.635-27.267c-1.796-12.658-9.176-22.244-16.162-32.283
		c-5-7.185-11.488-10.752-19.807-11.467c-7.246-0.622-14.339,0.566-21.695,2.599c1.783,2.53,5.691,2.489,6.266,6.169
		c-4.116-1.995-7.752-4.359-11.739-5.521c-4.044-1.179-8.196-3.131-12.786-1.988c0.776,2.371,2.976,3.866,2.561,6.114
		c-14.244-17.571-32.266-31.55-47.229-48.355c-2.138,1.587-1.697,4.306-4.709,5.083c1.484-4.065,2.75-7.725,4.151-11.333
		c3.583-9.23,3.259-18.254-2.217-26.567c-6.146-9.331-13.84-17.598-18.869-27.735c-1.214-2.446-3.576-4.813-6.918-2.846
		c-3.28,1.931-2.658,4.729-1.516,7.804c1.816,4.89,4.839,9.034,7.538,13.395c5.311,8.582,4.835,14.275-1.908,22.468
		c0.124-2.492,0.709-4.743,1.873-6.695c1.355-2.273,1.193-3.803-1.15-5.218c-1.688-1.02-3.008-2.755-4.774-3.521
		c-6.166-2.674-9.603-8.085-13.94-12.732c-4.326-4.634-7.33-10.262-11.893-14.604c-1.405-1.338-3.142-3.729-5.498-1.845
		c-2.223,1.776-2.313,4.183-0.396,6.499c3.535,4.27,6.018,9.383,10.591,12.833c1.943,1.467,3.712,3.254,3.718,6.018L237.024,199.978
		z M262.215,541.109c-0.737,12.944-1.555,25.886-2.191,38.835c-0.766,15.598-1.154,31.219-2.22,46.794
		c-0.254,3.718,0.626,5.037,3.86,6.403c19.739,8.345,40.679,11.753,61.562,15.459c2.76,0.489,3.807-1.095,4.887-3.174
		c14.298-27.526,24.365-56.729,33.853-86.134c3.017-9.351,3.317-19.524,8.772-28.166c3.902-6.182,3.83-6.351-2.562-10.433
		c-22.658-14.467-44.556-30.129-68.107-43.191c-3.352-1.858-6.234-4.422-7.949-7.964c-1.119-2.309-2.134-2.962-4.267-0.885
		c-7.429,7.236-13.853,15.169-17.801,24.867C263.842,508.778,262.46,524.864,262.215,541.109z M393.688,294.406
		c-0.582,0.934-0.768,1.126-0.73,1.188c0.572,0.983,1.107,2,1.781,2.914c7.563,10.288,11.58,21.688,11.3,34.578
		c-0.211,9.672-5.604,16.843-14.981,18.832c-9.551,2.026-19.205,3.312-29,3.498c-19.18,0.362-28.859-6.116-37.291-25.017
		c-0.908-2.038-3.095-3.656-5.036-3.499c-1.888,0.151-1.731,2.724-1.726,4.498c0.02,6.146,0.545,12.273,0.812,18.396
		c0.666,15.268,4.188,30.016,6.719,44.961c1.779,10.51,5.249,21.062,2.298,31.833c-0.878,3.203,0.353,4.026,2.552,5.134
		c8.66,4.364,17.561,8.337,25.874,13.286c15.454,9.2,30.562,18.981,45.811,28.524c1.413,0.884,2.592,1.801,3.73-0.564
		c6.58-13.647,13.936-26.93,17.248-41.964c3.481-15.797,5.88-31.754,7.899-47.776c0.574-4.565,3.581-8.777,2.609-13.445
		c-4.821-23.189-14.521-44.324-28.11-63.611C402.328,301.751,397.725,298.378,393.688,294.406z M301.812,679.082
		c-0.236-0.229-0.472-0.459-0.708-0.688c1.432-1.329,2.784-2.763,4.312-3.972c5.762-4.561,10.95-9.686,15.171-15.701
		c4.99-7.107,4.91-7.142-3.515-8.871c-19.301-3.962-38.795-7.217-57.004-15.245c-1.916-0.846-2.875-1.058-3.127,1.643
		c-0.842,9.047-1.685,18.108-3.032,27.088c-1.291,8.609-3.184,17.056-8.243,24.54c-6.927,10.249-12.926,21.16-20.286,31.073
		c-10.983,14.796-15.084,31.251-14.376,49.271c0.34,8.669-1.021,17.222-2.332,25.698c-2.384,15.43-6.001,30.609-12.26,45.02
		c-1.189,2.735-0.369,4.473,2.279,5.485c4.133,1.583,8.229,3.293,12.441,4.628c7.989,2.533,18.909-2.857,21.936-10.635
		c12.863-33.041,25.377-66.211,36.976-99.723c3.653-10.555,8.591-19.897,17.724-27.405c11.238-9.239,18.651-21.583,21.135-36.954
		C306.282,676.091,304.047,677.586,301.812,679.082z M396.965,294.693c-1.457-9.929-2.445-18.925-4.224-27.763
		c-0.802-3.982,0.851-5.632,3.8-6.853c3.337-1.381,6.84-2.358,10.198-3.692c4.782-1.898,6.273-7.081,3.061-10.989
		c-1.573-1.914-1.867-3.146-0.589-5.606c1.188-2.288,1.379-5.585,0.8-8.166c-0.605-2.699-0.246-4.406,1.823-5.957
		c2.851-2.136,2.498-3.992,0.021-6.418c-5.295-5.185-12.209-9.419-12.002-18.275c0.011-0.419-0.458-0.861-0.731-1.272
		c-3.571-5.336-7.245-10.605-10.694-16.019c-3.253-5.105-8.057-7.482-13.74-8.719c-12.194-2.653-23.666,0.211-34.605,5.105
		c-18.559,8.303-26.494,27.236-20.117,46.604c2.997,9.103,8.671,16.583,14.289,24.146c4.835,6.508,11.373,11.915,12.203,21.035
		c0.238,2.624-2.05,6.67,0.979,7.791c2.551,0.943,6.06-0.699,9.144-1.202c0.161-0.027,0.312-0.145,0.472-0.156
		c10.788-0.813,21.109-0.394,29.292,8.387C389.08,289.613,392.818,291.62,396.965,294.693z M268.361,907.47
		c8.209-0.393,16.515-0.336,24.314-3.672c4.807-2.057,7.046-5.794,7.312-10.843c0.458-8.688-4.165-14.073-14.84-16.869
		c-13.908-3.642-27.089-9.13-40.044-15.242c-5.668-2.675-9.559-6.564-9.082-13.374c0.114-1.628-0.383-3.366-1.445-4.038
		c-1.661-1.051-2.421,1.126-3.476,1.997c-9.688,8.002-26.135,7.81-35.584-0.465c-4.421-3.871-4.459-3.884-6.576,2.364
		c-2.469,7.287-5.131,14.476-8.068,21.607c-5.009,12.165-1.34,21.584,11.324,25.142c3.302,0.928,6.551,2.048,9.866,2.923
		c11.498,3.032,23.387,3.788,35.044,5.924C247.457,904.821,257.634,908.027,268.361,907.47z M397.712,490.478
		c0.159-1.203-1.5-1.272-2.539-1.837c-25.649-13.895-51.34-27.718-76.934-41.716c-2.952-1.614-4.706-0.979-6.888,1.132
		c-4.055,3.927-8.188,7.812-12.6,11.32c-7.556,6.01-7.746,8.116-0.381,14.439c1.238,1.062,2.744,1.818,4.152,2.676
		c7.197,4.379,14.501,8.593,21.587,13.145c16.252,10.44,32.443,20.978,48.55,31.643c2.815,1.864,4.571,1.605,6.526-0.961
		c3.012-3.955,6.313-7.69,9.274-11.681C392.415,503.311,395.534,497.505,397.712,490.478z M235.996,836.79
		c1.116,0.054,1.97,0.284,2.728,0.104c15.416-3.654,30.901-2.258,46.339-0.43c9.534,1.128,18.814,0.132,28.004-2.154
		c3.124-0.776,6.658-1.597,6.916-5.924c0.283-4.739,0.19-9.2-4.676-12.135c-5.146-3.103-10.852-4.519-16.474-6.201
		c-9.558-2.86-19.399-4.836-28.444-9.265c-4.42-2.164-6.817-5.497-6.441-10.643c0.118-1.61,0.707-3.621-1.562-4.734
		c-1.809,4.24-1.43,10.076-7.702,10.926c-3.272,0.442-4.579,2.578-5.584,5.293C244.834,813.153,240.521,824.661,235.996,836.79z
		 M262.483,289.352c-0.849,3.173,0.623,3.971,1.97,4.969c2.701,2.004,5.37,4.482,6.288,7.543c1.543,5.146,5.227,7.894,9.485,9.859
		c6.938,3.2,11.237,8.762,15.382,14.794c4.355,6.339,10.145,11.283,16.74,15.277c2.493,1.51,3.903,1.646,3.685-1.96
		c-0.171-2.818-0.777-5.919,0.11-8.434c2.459-6.958-2.586-8.21-6.931-10.186c-0.594-0.27-1.252-0.406-1.89-0.566
		c-8.872-2.253-14.065-8.096-17.797-16.335c-5.178-11.433-12.967-21.409-19.692-31.976c-1.317-2.069-3.194-3.229-5.409-1.974
		c-2.723,1.543-1.168,3.717-0.137,5.588c1.352,2.452,2.858,4.781,4.675,6.957c1.589,1.902,3.684,3.845,2.519,7.001
		c-1.038-4.52-5.616-6.408-7.329-10.386c-0.911-2.114-2.629-1.963-4.078-0.962c-1.985,1.372-0.023,2.414,0.575,3.638
		c2.637,5.4,7.571,9.154,10.069,14.748C268.131,294.56,265.541,292.171,262.483,289.352z M151.963,427.69
		c0.549-8.728-0.855-17.84-3.004-26.851c-0.586-2.459-0.688-6.454-3.05-6.614c-2.525-0.171-2.991,3.815-3.752,6.156
		c-6.308,19.393-3.206,38.735,0.569,58.055c0.253,1.297,0.401,3.183,1.684,3.32c1.634,0.175,2.077-1.753,2.642-3.083
		C151.184,448.947,152.345,438.734,151.963,427.69z M193.866,364.124c0.069-2.133-1.743-2.349-2.965-2.941
		c-11.685-5.671-23.403-11.271-35.12-16.877c-0.691-0.331-1.744-0.959-2.131-0.702c-3.032,2.016-3.015,5.676-4.134,8.649
		c-0.777,2.066,1.861,2.459,3.178,3.107c11.427,5.633,22.916,11.14,34.394,16.669c0.809,0.391,1.819,1.626,2.545,0.394
		C191.217,369.734,192.493,366.863,193.866,364.124z M180.937,375.895c0.176-2.19-1.718-2.358-2.868-3.021
		c-8.989-5.175-18.001-10.313-27.098-15.294c-1.508-0.826-3.487-3.356-4.925-1.413c-1.197,1.617,0.75,3.94,2.069,5.602
		c0.602,0.759,1.457,1.368,2.302,1.87c8.509,5.056,17.025,10.1,25.574,15.086C178.822,380.377,180.986,379.029,180.937,375.895z
		 M251.923,794.963c4.607-0.604,7.027-2.379,7.254-6.673c0.11-2.08,0.933-4.123,1.423-6.185c2.094-8.792,4.185-17.586,6.277-26.379
		c-0.188-0.054-0.375-0.106-0.562-0.16C261.585,768.513,256.856,781.459,251.923,794.963z M142.433,357.979
		c2.184,8.572,4.5,17.115,6.461,25.737c0.502,2.207,0.925,3.306,3.384,2.787c2.728-0.574,1.833-2.716,1.379-3.899
		C150.433,374.19,147.87,365.48,142.433,357.979z M236.683,697.505c4.913-7.973,11.463-15.128,12.961-24.938
		C244.62,680.487,238.2,687.65,236.683,697.505z M132.088,425.786c-0.268-8.498,3.652-16.601,2.821-25.162
		C129.923,408.555,133.237,417.438,132.088,425.786z M107.655,362.706c-1.551,3.251-2.4,6.506-2.498,10.021
		C114.635,371.204,107.519,366.079,107.655,362.706z M102.537,410.409c-0.264-4.826,2.782-9.456,0.917-15.51
		C100.903,400.69,102.981,405.625,102.537,410.409z"/>
	<path d="M236.926,200.073c4.973,1.96,6.046,7.925,10.296,10.62c-5.044-1.914-7.764-6.172-10.199-10.716L236.926,200.073z"/>
	<path d="M360.295,215.755c-1.752,0.106-3.236-0.05-4.572,0.325c-3.591,1.008-5.188,3.714-4.269,7.159
		c1.608,6.021,6.325,9.794,11.511,12.309c4.354,2.112,3.702-2.509,4.471-5.061c2.506,1.658,1.736,3.373,0.465,5.086
		c-1.476,1.989-3.629,2.521-5.592,1.356c-4.994-2.961-9.836-6.351-11.908-12.071c-1.154-3.186-1.01-6.705,2.267-8.951
		C354.921,214.361,357.377,212.531,360.295,215.755z"/>
</g>
</svg>
