<?xml version="1.0" encoding="utf-8"?>
<!-- Generator: Adobe Illustrator 16.2.1, SVG Export Plug-In . SVG Version: 6.00 Build 0)  -->
<!DOCTYPE svg PUBLIC "-//W3C//DTD SVG 1.1//EN" "http://www.w3.org/Graphics/SVG/1.1/DTD/svg11.dtd">
<svg version="1.1" id="YJXSsG6an_x5F_GafEWcctdprWZRHUIFHamMZU1YnTeEFEE_xA0_Image_1_"
	 xmlns="http://www.w3.org/2000/svg" xmlns:xlink="http://www.w3.org/1999/xlink" x="0px" y="0px" width="640px" height="960px"
	 viewBox="0 0 640 960" enable-background="new 0 0 640 960" xml:space="preserve">
<path d="M577.328,781.408c-10.426-6.197-21.269-12.395-33.466-3.492c-0.227,0.165-0.652,0.049-0.984,0.076
	c-7.929,0.668-15.848,1.523-23.789,1.973c-23.062,1.301-45.286-4.231-67.694-8.396c-9.714-1.807-19.421-3.456-29.552-1.858
	c-6.828,1.076-13.553,2.582-20.858,4.334c0.783-1.211,1.135-1.771,1.503-2.316c1.189-1.771,2.24-3.662,3.605-5.288
	c13.71-16.334,20.42-35.499,23.025-56.368c1.219-9.759,3.706-18.617,11.176-26.149c17.965-18.118,24.49-40.221,21.024-65.583
	c-1.027-7.517-1.676-15.695,0.194-22.871c4.04-15.503,10.13-30.44,21.488-42.374c3.731-3.921,7.121-7.836,9.217-12.933
	c2.923-7.108,8.093-12.318,14.791-16.128c4.21-2.396,7.737-5.74,10.824-9.438c7.114-8.52,13.75-17.394,20.093-26.522
	c13.407-19.3,18.09-39.904,11.184-62.802c-1.869-6.196-2.798-12.679-4.15-19c1.93-0.488,2.455,0.841,3.349,1.482
	c6.367,4.579,11.841,3.229,14.558-4.136c4.655-12.628,6.865-26.112,12.365-38.402c5.086-11.36,7.057-22.863,5.816-35.165
	c-1.598-15.851-8.051-29.008-26.09-33.873c-13.598-3.666-27.273-2.313-40.941-0.242c-2.085,0.315-3.651,1.277-3.889,3.188
	c-0.336,2.718-2.092,3.764-4.074,5.104c-8.157,5.514-13.671,12.853-15.09,22.88c-0.424,2.991-1.548,5.698-3.694,7.969
	c-2.875,3.038-6.135,5.571-9.562,7.938c-3.119,2.153-3.882,4.996-1.424,8.049c1.256,1.559,0.986,2.918,1.142,4.675
	c0.287,3.279-3.212,5.737-1.446,8.9c1.362,2.44,1.028,4.39-0.333,6.838c-3.127,5.629-1.635,9.185,4.562,11.534
	c3.204,1.215,6.556,2.049,9.854,3.002c6.956,2.01,6.905,8.185,7.835,13.563c0.772,4.466-1.062,7.996-5.052,10.482
	c-10.218,6.373-20.805,12.279-30.396,19.499c-10.337,7.783-20.931,15.021-32.129,21.46c-7.688,4.419-14.631,9.72-18.416,18.165
	c-0.593,1.321-1.502,2.181-3.146,1.487c-4.811-2.021-10.079-2.787-14.464-6.023c-7.835-5.782-15.91-11.237-23.827-16.911
	c-1.206-0.865-3.195-1.74-1.635-3.883c2.072-2.842,0.471-4.347-1.84-5.95c-2.981-2.07-5.646-4.543-8.854-6.361
	c-5.42-3.07-9.368-8.347-11.792-13.386c-4.33-9.007-9.258-17.137-17.064-23.331c-16.061-12.743-35.541-17.701-54.777-7.318
	c-3.007,1.623-5.107,1.232-7.733-0.364c-23.324-14.179-48.001-25.848-70.96-40.911c-22.818-14.974-46.926-28.175-71.351-40.826
	C82.428,283.63,42.064,258.64,1,235c0,1,0,2,0,3c0.152,0.093,0.303,0.188,0.454,0.281L84,285.667c3.89,1.374-2.645-2.57,0.008-0.084
	c0.571,0.535,1.16,1.032,1.758,1.51l10.25,5.935c4.995,2.255,10.125,4.184,14.628,7.326c3.929,2.742,8.173,5.089,12.468,7.229
	c2.221,1.104,2.055,2.28,1.353,4.077c-1.456,3.729-2.939,8.102-6.018,10.056c-3.472,2.204-6.319-1.954-9.217-3.826l-0.995-0.584
	c-5.667-3.192-11.941-6.046-16.943-9.943L1,254.37c0,4.876,0,9.753,0,14.63c1.458,0.752,2.951,1.444,4.37,2.266
	c48.738,28.183,96.627,57.779,144.741,87c3.094,1.881,7.688,3.071,8.953,5.804c2.471,5.334,6.944,7.554,11.382,9.562
	c16.458,7.452,30.887,17.998,45.28,28.639c8.519,6.297,16.666,13.131,25.455,19.014c4.364,2.922,5.174,6.144,4.75,10.812
	c-0.633,6.963,0.117,13.806,2.752,20.431c3.126,7.858,8.208,14.599,12.398,21.813c7.325,12.613,19.354,18.302,33.618,18.562
	c17.293,0.313,31.171-7.604,42.633-19.934c2.554-2.748,4.129-2.425,6.891-0.813c23.267,13.566,43.898,30.714,64.91,47.36
	c2.02,1.601,2.066,2.912,1.258,5.055c-1.99,5.27-4.309,10.383-7.533,14.984c-8.346,11.911-16.951,23.644-25.205,35.617
	c-1.881,2.73-4.242,4.218-7.166,4.74c-8.428,1.508-16.868,3.071-25.371,4.006c-14.422,1.585-28.584,4.362-42.696,7.664
	c-24.752,5.792-47.726,16.589-71.583,24.889c-8.906,3.1-15.353,9.14-20.566,16.514c-7.645,10.812-7.397,22.822-2.594,34.4
	c9.029,21.767,11.433,44.532,12.506,67.725c0.33,7.129,0.389,14.299,1.055,21.411c1.323,14.127,0.958,28.272,0.653,42.412
	c-0.044,2.062,0.043,5.091-2.499,5.932c-5.823,1.925-9.742,6.081-13.725,10.362c-7.626,8.202-16.671,12.861-28.333,12.993
	c-7.268,0.082-14.995-0.112-21.648,4.135c-9.323,5.952-9.414,17.681,0.292,22.692c16.333,8.436,33.84,8.903,51.704,6.602
	c8.802-1.136,17.705-2.325,25.923,3.146c5.154,3.432,11.254,3.462,17.28,3.219c6.709-0.271,11.675-3.993,13.096-10.603
	c1.278-5.943,2.148-11.984,2.988-18.012c1.171-8.405-2.136-15.875-5.281-23.332c-0.74-1.756-2.042-3.071-4.161-3.06
	c-2.064,0.012-2.373-1.341-2.519-2.97c-1.581-17.632-0.164-35.03,3.398-52.361c3.983-19.379,8.304-38.725,7.688-58.753
	c-0.21-6.835-1.89-12.946-5.279-18.823c-3.847-6.672-8.749-12.583-13.783-19.249c37.096,3.013,73.49,10.221,109.506-2.062
	c1.117,4.122-0.336,7.255-1.098,10.391c-5.014,20.652-8.611,41.582-11.278,62.625c-2.097,16.536-4.704,33.001-6.56,49.578
	c-1.683,15.048,0.771,28.651,10.123,40.599c6.189,7.909,13.906,13.106,24.764,12.107c5.64-0.519,10.998-2.055,16.394-3.414
	c22.387-5.641,44.896-10.375,68.023-11.795c7.741-0.475,15.432-1.777,23.143-2.727c11.146-1.371,22.295-2.702,33.425-4.188
	c3.691-0.492,5.353,0.753,6.651,4.409c3.297,9.275,2.46,18.973,3.619,28.449c0.264,2.159-0.798,4.469-3.427,5.484
	c-3.609,1.396-6.516,3.979-9.254,6.574c-3.588,3.4-7.62,7.208-6.691,12.579c1.082,6.258,6.762,8.143,12.116,9.469
	c10.864,2.689,21.133,0.313,31.359-3.679c9.156-3.574,15.553-9.504,17.96-18.97c3.932-15.451,10.119-29.622,18.88-43.119
	C593.524,799.542,590.858,789.452,577.328,781.408z M161.423,359.883c-1.539,2.884-3.51,0.661-4.963-0.222
	c-38.261-23.254-76.469-46.596-114.719-69.866c-7.875-4.791-15.884-9.358-23.832-14.028c-0.827-0.486-1.788-0.838-2.051-2.376
	c2.832-0.841,4.814,0.72,6.894,1.527c32.952,12.796,61.601,33.246,90.867,52.349c14.956,9.763,30.5,18.604,45.112,28.882
	C160.02,357.055,162.774,357.35,161.423,359.883z M516.896,297.101c6.332,0.021,12.521-2.093,18.259-0.968
	c8.332-0.628,15.735,0.681,23.047,3.12c13.804,4.607,18.938,16.032,20.81,28.673c1.919,12.973-0.548,25.025-5.666,37.119
	c-4.451,10.515-6.966,21.848-10.367,32.812c-0.533,1.725-1.167,3.425-1.859,5.093c-2.459,5.909-5.852,7.054-11.131,3.516
	c-7.541-5.053-14.956-10.275-23.026-14.503c-8.524-4.464-17.868-6.631-26.801-9.944c-7.541-2.797-8.643-5.057-6.176-12.757
	c2.849-8.894,7.039-17.209,12.86-24.434c6.546-8.121,6.938-17.192,5.768-26.743c-0.582-4.751-1.592-9.437-1.652-14.265
	C510.905,299.623,512.783,297.086,516.896,297.101z M492.617,412.487c4.751-2.89,7.963-6.708,7.241-12.463
	c-0.91-7.249-1.768-14.739-11.259-16.339c-3.022-0.509-6.021-1.564-8.84-2.806c-3.566-1.568-4.958-4.309-2.761-7.99
	c1.749-2.931,3.286-5.777,0.562-8.975c-0.283-0.333-0.401-1.319-0.386-1.325c4.515-1.411,0.649-5.509,2.516-7.854
	c0.88-1.105,0.272-2.515-0.898-3.504c-3.345-2.827-1.986-5.345,0.888-7.215c2.704-1.758,4.641-4.278,7.097-6.229
	c3.89-3.09,5.353-7.163,6.319-11.896c1.869-9.131,6.719-16.334,15.701-20.974c1.237,10.503,4.273,20.496,1.132,30.669
	c-2.075,6.721-7.659,11.412-10.821,17.58c-2.94,5.734-5.848,11.438-7.594,17.664c-1.777,6.335-0.524,9.47,5.456,11.957
	c4.847,2.015,9.889,3.593,14.914,5.13c9.876,3.019,18.813,7.875,27.457,13.407c2.155,1.379,3.128,3.216,3.662,5.551
	c1.599,6.998,3.258,13.982,4.895,20.972c-12.074-12.709-26.559-11.327-41.411-8.413c-8.521,1.671-17.043,3.686-27.211,1.897
	C484.362,417.941,488.393,415.055,492.617,412.487z M412.345,473.18c2.229-7.914,7.785-13.16,14.283-17.709
	c8.532-5.972,18.441-9.752,26.486-16.419c6.785-5.622,13.896-10.692,21.491-15.133c2.023-1.184,3.559-1.518,6.157-0.635
	c6.259,2.124,12.778,0.329,19.131-0.565c7.159-1.008,14.231-2.648,21.397-3.584c11.155-1.453,26.666,7.826,27.303,16.758
	c-8.079-11.021-19.047-15.502-32.226-14.865c-15.449,0.744-34.082,13.315-37.171,31.096c-0.597,3.428,0.77,6.538,2.748,9.235
	c1.188,1.619,1.462,2.764-0.062,4.283c-8.639,8.621-14.367,19.357-21.156,29.321c-5.641,8.279-8.186,9.096-17.164,4.43
	c-7.16-3.722-14.114-7.842-21.222-11.671c-3.449-1.858-2.749-5.164-2.592-7.879c0.528-9.147,5.869-15.837,12.151-21.89
	c1.184-1.141,2.575-2.061,3.871-3.081c-11.482,5.121-16.84,14.181-18.05,29.436C412.094,482.424,410.583,479.435,412.345,473.18z
	 M407.706,472.111c4.719,1.181,0.978,5.075,2.182,7.677c-11.839-5.921-23.053-12.436-33.428-20.315
	C386.828,463.953,396.704,469.359,407.706,472.111z M318.268,394.688c-8.661-4.339-18.279-4.425-27.858-6.585
	C297.125,383.337,309.789,386.429,318.268,394.688z M328.957,416.869c-14.305-6.401-28.204-12.999-42.554-18.917
	C300.381,391.765,325.139,402.94,328.957,416.869z M274.567,406.66c3.646-2.935,7.616-4.977,10.568-4.499
	c6.73-0.043,8.353,2.119,6.303,6.374c-1.48,3.072-2.19,6.435-4.339,9.309c-1.673,2.236-2.866,2.202-4.812,0.892
	c-2.46-1.66-4.964-3.254-7.462-4.857C271.322,411.627,271.234,409.343,274.567,406.66z M273.636,417.3
	c0.013,2.546-1.866,5.438-3.923,7.431c-1.04,0.095-7.545-5-7.216-5.52c1.523-2.396,1.791-6.597,4.748-6.786
	C269.655,412.271,273.622,414.233,273.636,417.3z M199.309,354.052c0.775-1.362,1.605-0.602,2.467-0.146
	c5.119,2.705,10.277,5.338,15.359,8.11c17.189,9.385,34.352,18.816,51.646,28.299c-7.794,6.441-7.795,6.443-15.938,1.202
	c-16.532-10.639-33.065-21.274-49.589-31.926c-1.252-0.807-2.43-1.729-3.662-2.569C198.287,356.13,198.693,355.135,199.309,354.052z
	 M231.46,411.102c-4.752-2.196-8.395-6.063-12.244-9.867c4.333,2.92,8.667,5.839,13,8.759
	C231.964,410.362,231.712,410.731,231.46,411.102z M232.649,412.053c5.939,0.599,13.59,6.375,13.852,10.299
	C241.404,419.657,237.321,416.037,232.649,412.053z M255.913,419.59c-2.697-0.138-5.292-3.088-7.855-4.893
	c-18.404-12.951-36.747-25.991-55.222-38.841c-3.129-2.178-4.126-4.071-1.854-7.468c1.831-2.734,3.142-5.815,4.708-8.729
	c0.358-0.666,0.41-1.701,1.596-1.527c0.849,0.47,1.744,0.896,2.568,1.43c19.664,12.796,39.358,25.544,58.96,38.435
	c8.704,5.724,8.736,5.939,2.676,14.355C259.667,414.883,259.67,419.782,255.913,419.59z M264.021,434.005
	c-1.996-0.758-4.128-2.247-4.048-5.062c0.034-1.205,0.105-2.52,1.812-2.226c2.439,0.42,4.438,1.442,4.538,4.438
	C265.823,432.331,265.738,434.657,264.021,434.005z M282.917,483.129c6.284,1.238,12.579,2.364,20.406,1.776
	C295.78,487.193,289.117,486.504,282.917,483.129z M278.421,473.396c3.487-0.95,14.552,0.074,22.239,2.061
	C296.069,479.323,285.496,478.343,278.421,473.396z M296.521,471.851c-8.835,0.116-17.053-2.507-24.646-7.534
	c-8.569-5.677-8.698-20.861-3.979-28.357c4.354-6.917,4.229-7.04,11.095-2.584c4.95,3.212,10.404,5.762,13.876,10.919
	c1.119,1.662,3.012,2.517,5.072,2.695c6.266,0.542,10.071,4.599,13.072,9.496c1.879,3.066,4.049,5.56,8.066,6.938
	C312.582,469.985,304.635,471.743,296.521,471.851z M376.961,491.874c-14.141-11.006-29.191-21.134-45.855-28.381
	c-3.731-1.623-7.631-2.006-11.53-2.422c-2.137-0.229-3.901-0.963-5.2-2.468c-3.057-3.537-2.198-5.243,4.994-9.158
	c-2.23-0.187-3.695-0.377-5.165-0.413c-2.409-0.061-3.533-1.403-4.005-3.61c-0.484-2.265,1.011-3.228,2.516-4.365
	c2.296-1.733,5.678-0.001,7.786-2.369c-1.469-1.938-5.256,1.214-5.4-2.518c-0.139-3.569,2.862-4.504,5.652-5.114
	c2.252-0.491,4.485-0.89,6.411-2.229c-0.958-2.255-3.635,1.146-4.039-1.169c-0.43-2.456,2.062-3.114,3.751-4.019
	c4.095-2.19,8.004-2.629,11.817,0.895c4.918,4.541,10.599,7.769,17.312,8.943c5.791,1.016,9.131,4.952,9.807,10.33
	c1.412,11.247,8.551,17.669,17.455,23.167c19.098,11.793,38.866,22.408,58.286,33.637c1.564,0.903,3.281,1.568,4.976,2.226
	c6.346,2.459,10.16,1.319,14.041-4.362c5.592-8.188,10.806-16.648,16.707-24.604c4.719-6.361,10.579-11.851,14.884-18.579
	c2.705-4.228,2.836-8.713,1.858-14.736c-3.553,15.094-4.154,16.396-9.558,21.157c-4.183-4.402-4.211-9.499-2.039-14.606
	c5.864-13.789,16.878-21.631,31.198-23.898c15.346-2.432,27.934,3.692,35.531,17.156c2.992,5.304,2.194,12.438,0.364,18.799
	c-4.513,15.683-13.374,28.964-23.025,41.782c-5.08,6.746-10.339,13.357-16.804,18.92c-6.156,5.295-12.418,9.773-21.62,5.081
	c10.113-9.953,20.729-19.736,30.557-30.26c9.654-10.338,18.59-21.364,24.84-34.318c-4.742,6.298-9.471,12.605-14.229,18.893
	c-9.156,12.095-19.587,23.008-30.758,33.245c-10.92,10.007-20.342,21.542-31.649,31.15c-7.593,6.452-14.021,7.491-22.028,1.036
	C422.487,526.703,399.574,509.475,376.961,491.874z M388.047,563.303c6.312-8.629,12.336-17.471,18.42-26.266
	c2.453-3.546,4.134-7.52,5.495-11.565c0.929-2.763,2.159-2.373,3.892-1.038c8.776,6.765,17.642,13.419,26.3,20.331
	c10.387,8.293,16.785,8.572,26.609-0.259c3.007-2.702,5.035-2.818,7.853-0.581c0.379,0.301,0.879,0.447,1.312,0.685
	c6.952,3.787,6.779,3.634,1.59,9.445c-8.522,9.547-13.05,21.309-17.456,33.062c-1.491,3.978-3.151,7.945-3.096,12.386
	c0.082,6.518-0.021,6.519-6.689,6.538c-6.406-0.111-12.185-2.614-17.876-5.104c-17.373-7.603-33.646-16.819-45.944-31.847
	C386.658,566.894,386.271,565.729,388.047,563.303z M256.103,816.091c0.851-1.91,2.712-1.612,3.926,0.867
	c3.839,7.839,6.104,16.07,4.843,24.89c-0.767,5.359-1.606,10.736-2.907,15.983c-1.283,5.175-5.181,7.85-10.438,8.183
	c-7.251,0.458-14.13-0.378-20.377-4.578c-3.884-2.611-8.405-2.825-11.445-2.502c-11.964,0.072-22.277,2.683-32.753,2.021
	c-9.885-0.625-19.556-2.401-28.606-6.747c-4.379-2.104-8.205-4.807-8.023-10.171c0.176-5.178,5.117-10.576,10.437-11.979
	c5.292-1.396,10.753-2.039,16.194-1.99c11.245,0.098,20.533-4.016,28.427-11.879c3.39-3.376,6.302-7.305,10.586-9.73
	c1.138-0.645,2.282-2.016,3.547-1.122c1.151,0.812,0.388,2.478,0.445,3.757c0.036,0.801-0.234,1.624-0.419,2.426
	c-2.466,10.716,3.827,18.17,14.579,16.328C243.083,828.309,251.85,825.646,256.103,816.091z M341.402,660.875
	c-19.185,3.556-38.38,4.039-57.782,1.336c-12.603-1.756-25.391-2.167-38.093-3.225c-3.817-0.317-7.569-1.573-11.496-0.954
	c0.163,1.163,1.015,1.016,1.565,1.013c9.158-0.041,12.932,7.219,17.876,12.996c11.614,13.568,11.819,29.41,9.922,45.971
	c-2.308,20.146-7.95,39.72-10.14,59.82c-1.252,11.489-1.551,23.216,0.646,34.779c0.544,2.861,0.061,5.434-2.489,7.568
	c-6.054,5.073-12.819,8.092-20.785,7.779c-6.136-0.239-9.674-4.085-9.613-10.15c0.047-4.642,1.356-9.124,1.914-13.691
	c1.818-14.887,1.5-29.81,0.273-44.729c-0.612-7.45-0.621-14.938-1.009-22.398c-1.246-23.985-3.478-47.557-12.844-70.15
	c-9.51-22.944,3.681-41.621,21.509-48.198c21.253-7.84,41.897-17.406,63.919-23.082c10.48-2.7,21.058-5.039,31.624-7.394
	c3.263-0.729,5.388-0.256,6.845,3.937c6.345,18.261,10.116,37.037,12.772,56.104c0.226,1.624,0.728,3.209,0.961,4.833
	C347.92,659.581,347.915,659.669,341.402,660.875z M356.18,674.226c3.264-13.087,4.721-26.308,5.182-39.695
	c0.117-3.438-0.356-6.897-0.942-10.365c-0.446,5.32-0.681,10.637-1.257,15.93c-0.5,4.591-0.801,9.252-0.998,13.862
	c-0.21,4.862-3.889,3.893-6.301,4.524c-3.018,0.79-2.499-2.271-2.805-3.892c-2.942-15.646-4.408-31.577-9.072-46.891
	c-1.768-5.805-3.45-11.639-5.438-17.366c-0.827-2.386-0.602-3.076,2.078-3.413c8.987-1.129,17.896-3.032,26.907-3.781
	c8.422-0.701,14.837-3.891,18.839-11.392c1.604-3.005,2.713-3.634,5.39-0.638c16.181,18.1,36.584,29.358,59.654,36.196
	c3.771,1.117,7.459,0.746,11.252,0.22c1.456,14.63,2.896,29.411-0.843,43.926c-3.611,14.023-12.88,24.802-22.216,35.358
	c-3.596,4.063-6.426,8.322-6.62,13.919c-0.076,2.195-1.309,2.786-3.347,3.479c-6.216,2.113-12.353,0.385-18.287-0.416
	c-13.985-1.889-27.867-4.533-40.912-10.467C353.48,687.431,352.898,687.389,356.18,674.226z M512.817,810.236
	c-12.938,1.663-25.835,3.646-38.839,4.766c-30.748,2.646-61.432,6.24-90.979,15.34c-25.719,7.921-38.794-11.521-42.958-28.843
	c-2.86-11.9-0.257-23.763,1.185-35.518c1.442-11.771,3.242-23.512,4.894-35.263c1.987-14.149,3.991-28.322,7.262-42.686
	c15.414,10.601,32.54,14.441,50.092,16.958c7.176,1.028,14.325,2.697,21.657,1.084c1.519-0.334,3.246-0.208,2.771,2.159
	c-3.138,15.645-5.608,31.596-14.868,45.128c-7.835,11.45-15.986,22.687-23.354,34.452c-3.222,5.143-6.324,10.357-9.766,16.007
	c3.088-0.331,3.716-2.688,4.764-4.276c3.439-5.223,7.075-10.385,9.836-15.966c2.904-5.872,7.843-7.98,13.543-9.596
	c16.403-4.646,32.72-3.1,49.035,0.4c19.545,4.192,39.113,8.335,59.271,7.561c7.113-0.274,14.215-1.072,21.301-1.83
	c10.082-1.078,14.002,1.465,16.352,14.816c1.189,6.76-2.563,10.976-7.33,14.648c-1.817,1.401-4.053,2.27-5.848,3.694
	c-3.19,2.532-5.687,2.655-8.762-0.558C526.51,806.907,519.301,809.402,512.817,810.236z M576.633,822.733
	c-5.949,8.581-8.98,18.396-11.043,28.28c-3.297,15.818-14.139,22.446-28.253,25.854c-3.676,0.888-7.446,1.681-11.296,1
	c-4.76,0.756-9.222-0.392-13.524-2.227c-6.966-2.972-8.269-8.218-3.454-14.117c3.183-3.898,7.078-7.094,11.555-9.322
	c3.499-1.742,4.684-4.294,4.61-7.94c-0.201-10.247-0.126-20.521-4.193-30.228c-0.974-2.322-0.319-3.195,2.312-3.086
	c4.328,0.18,7.511,2.529,10.288,5.337c1.672,1.688,2.979,1.578,4.705,0.628c4.361-2.399,8.635-4.965,12.403-8.219
	c7.657-6.611,6.745-22.253-1.595-28.703c-0.863-0.667-2.423-0.835-2.042-2.356c0.401-1.604,1.866-1.533,3.233-1.653
	c13.743-1.212,24.91,3.942,34.052,13.89c5.17,5.626,3.726,12.098,1.062,18.044C583.119,813.13,579.904,818.013,576.633,822.733z"/>
</svg>
