<?xml version="1.0" encoding="utf-8"?>
<!-- Generator: Adobe Illustrator 16.2.1, SVG Export Plug-In . SVG Version: 6.00 Build 0)  -->
<!DOCTYPE svg PUBLIC "-//W3C//DTD SVG 1.1//EN" "http://www.w3.org/Graphics/SVG/1.1/DTD/svg11.dtd">
<svg version="1.1" id="gOcsfyZB1xG3UIv-id2Y9uZX5NvGzCfelfQLBvYJSFY_xA0_Image_1_"
	 xmlns="http://www.w3.org/2000/svg" xmlns:xlink="http://www.w3.org/1999/xlink" x="0px" y="0px" width="640px" height="960px"
	 viewBox="0 0 640 960" enable-background="new 0 0 640 960" xml:space="preserve">
<g>
	<path d="M402.5,656.274c-0.84,4.594-1.432,7.679,0.125,11.675c1.865,4.789-1.453,10.187-2.569,15.318
		c-3.066,14.114-5.354,28.396-9.042,42.379c-0.168,0.636,0.034,1.469-0.307,1.941c-7.678,10.67-7.581,23.684-10.688,35.703
		c-4.562,17.639-8.701,35.389-12.887,53.123c-1.41,5.979,0.534,12.124-0.97,18.264c-1.894,7.728-6.503,12.907-14.384,14.291
		c-15.254,2.68-23.883-2.95-27.79-18.072c-1.478-5.718-3.331-11.354-4.474-17.135c-0.769-3.887-2.7-4.343-5.898-3.425
		c-5.311,1.524-10.531,0.747-15.587-1.047c-7.17-2.544-9.789-9.188-7.54-18c2.072-8.123,6.085-15.272,10.82-22.047
		c3.01-4.308,3.844-8.376,2.141-13.752c-4.263-13.459-7.695-27.184-11.432-40.809c-0.636-2.319-1.063-4.281-4.009-5.317
		c-2.91-1.022-3.2-4.42-3.209-7.309c-0.032-10.448-4.991-19.688-7.186-29.604c-1.737-7.85-3.097-15.801-6.256-23.268
		c-0.489-1.154-0.582-2.35,0.298-3.284c3.12-3.318,1.918-6.828,0.843-10.527c-1.458-5.013-2.55-10.132-4.501-15.198
		c0,10.271-0.03,20.538,0.009,30.808c0.032,8.306-0.586,16.553-2.026,24.733c-0.085,0.486-0.163,0.986-0.343,1.44
		c-1.627,4.091-3.57,8.484-8.49,8.655c-5.054,0.178-6.605-4.562-7.769-8.416c-2.15-7.125-3.009-14.55-3.349-21.976
		c-0.96-20.977,1.856-41.656,4.734-62.367c0.781-5.619,0.224-11.759-1.182-17.288c-5.409-21.281-7.338-43.273-13.411-64.409
		c-0.435-1.515-1.792-4.131,2.049-4.705c1.627-0.244,0.843-2.896,0.538-4.415c-5.558-27.697-11.138-55.391-16.784-83.068
		c-2.263-11.094-4.686-22.155-7.053-33.228c-0.556-2.602-1.52-4.239-4.877-4.031c-10.954,0.678-21.917-0.551-32.907-0.008
		c-9.457,0.467-13.799-3.372-15.05-12.679c-2.098-15.602-3.667-31.271-3.98-47.017c-0.082-4.079-1.737-7.709-1.465-12.037
		c0.57-9.073,6.133-15.827,8.953-23.785c0.52-1.467,1.655-2.36,3.409-2.471c1.656-0.105,3.328-0.562,4.412-1.983
		c2.692-3.53,5.864-3.168,9.009-0.935c1.944,1.381,2.983,0.669,4.01-0.938c2.721-4.253,6.946-7.186,9.959-11.101
		c3.421-4.445,3.213-10.142,2.105-15.199c-2.949-13.466-6.612-26.773-9.889-40.17c-2.611-10.673-5.229-21.349-7.517-32.094
		c-0.87-4.085-4.049-7.169-6.445-8.965c-2.936-2.201-2.11-4.386-2.869-6.606c-0.918-2.688-0.812-4.389,1.866-6.695
		c1.95-1.681,2.534-6.13,2.123-9.124c-0.901-6.556-1.834-13.059-1.819-19.7c0.009-4.128-2.79-6.932-6.157-8.219
		c-3.626-1.387-7.324-3.191-11.381-3.107c-3.657,0.075-3.578-2.427-3.272-4.747c0.312-2.372-1.811-5.8,3.042-6.498
		c3.317-0.478,6.627-0.871,9.907-0.679c4.858,0.284,9.616-0.228,14.299-1.206c8.091-1.69,15.329,3.477,23.371,2.588
		c2.308-0.255,4.924,0.457,7.417,0.458c61.832,0.032,123.666-0.146,185.496,0.22c17.149,0.102,34.306,0.326,51.455,0.23
		c10.067-0.057,19.928-2.919,30.124-2.546c9.767,0.356,19.534,2.121,29.366,0.209c2.713-0.527,5.123,0.92,4.309,4.298
		c-0.662,2.745,2.833,7.464-3.747,7.674c-7.958,0.255-13.126,6.456-19.528,10.023c-0.408,0.228-0.674,1.173-0.603,1.733
		c0.953,7.433-2.57,14.663,0.301,22.546c1.307,3.584,5.81,6.715,3.727,11.771c-0.823,1.998-0.981,4.4-3.054,5.354
		c-1.896,0.871-2.995,1.875-3.074,3.968c-0.019,0.466-0.199,1.202-0.515,1.341c-7.926,3.484-5.721,11.427-7.173,17.407
		c-3.797,15.636-7.103,31.431-9.643,47.315c-1.488,9.306-1.146,18.906-1.584,28.376c-0.027,0.604,0.21,1.708,0.488,1.764
		c4.04,0.813,6.736,5.453,9.601,5.822c8.562,1.104,14.192,6.366,18.39,12.302c2.467,3.489,5.46,8.954,3.287,14.292
		c-0.682,1.673-0.513,2.781,0.241,4.047c1.094,1.834,0.433,3.395-1.115,4.182c-6.38,3.241-6.93,9.533-7.834,15.336
		c-2.231,14.314-3.914,28.721-8.015,42.681c-2.565,8.735-5.786,14.858-18.435,13.675c-1.155-0.107-2.34,0.077-3.496-0.033
		c-2.604-0.246-3.909,0.217-4.445,3.439c-2.668,16.06-5.798,32.042-8.689,48.065c-3.242,17.962-6.449,35.932-9.543,53.921
		c-0.371,2.151-2.515,5.438,2.42,5.733c1.729,0.104,0.583,1.453,0.295,2.229c-3.702,9.979-2.714,20.589-4.111,30.876
		c-1.381,10.153-3.479,20.253-3.184,30.59c0.015,0.479-0.055,1.198-0.36,1.416c-5.77,4.095-3.296,10.146-3.438,15.388
		c-0.393,14.255-0.483,28.556,3.928,42.361c1.989,6.227,6.253,11.495,7.441,18.152c2.456,13.77,3.808,27.554,1.454,41.444
		c-1.445,8.533-6.928,14.053-14.646,15.352c-5.73,0.965-12.177-3.115-16.351-10.023C406.312,674.304,404.989,665.626,402.5,656.274z
		 M472.537,126.577c-0.413,0.26-1.188,0.52-1.188,0.779c-0.005,7.029-0.202,14.037-1.288,21.007
		c-0.176,1.134-0.758,3.168,0.977,3.415c4.091,0.583,8.245,0.782,12.381,0.935c1.131,0.041,1.445-1.199,1.516-2.248
		c0.359-5.304,0.532-10.628,1.129-15.905c0.408-3.634-1.225-4.548-4.401-4.567c-3.425-0.021-7.151,0.469-9.146-3.447
		c4.017,1.732,8.134,2.947,12.475,1.447c1.516-0.523,2.571-0.375,1.236-3.409c-1.831-4.166-4.64-3.061-7.186-3.646
		c0.053-2.77,3.068-1.562,4.193-3.566c-5.889-0.685-10.733,0.23-15.322,3.854c3.188,2.354,6.576,2.528,9.911,3.25
		C476.292,126.809,473.998,125.449,472.537,126.577z M200.097,248.874c0.464,7.906-0.826,15.883,0.928,23.734
		c0.259,1.162-0.169,3.061,1.894,2.811c1.65-0.199,1.263-1.743,1.088-2.811c-1.293-7.895-2.653-15.778-3.991-23.666
		c0.042-6.639-1.429-13.133-1.938-19.706c-1.585-20.508-2.585-41.053-3.048-61.617c-0.19-8.448-0.032-8.451-8.292-6.117
		c-6.884,1.945-7.996,3.992-6.335,10.774c3.603,14.707,6.937,29.481,10.673,44.154C193.846,227.305,197.075,238.062,200.097,248.874
		z M348.938,297.951c-2.016,6.801,1.904,12.131,8.633,16.164c2.404,1.44,4.633,3.172,6.998,4.684
		c6.836,4.37,13.045,8.696,22.47,7.669c10.63-1.158,19.945,4.759,28.277,11.354c3.388,2.681,6.897,4.711,11.415,5.48
		c7.09,1.21,14.304,2.09,21.123,4.671c5.458,2.065,5.313,1.951,6.18-3.997c1.469-10.086,3.503-20.1,4.638-30.218
		c0.337-3.004,2.954-6.484,0.088-9.335c-2.312-2.297-3.684-5.092-5.37-7.729c-3.404-5.324-2.254-8.549,4.015-10.386
		c1.861-0.546,2.022-0.816,1.783-2.749c-0.475-3.836-1.671-7.489-0.535-11.693c2.308-8.543,4.767-17.309,5.116-26.063
		c0.885-22.098,2.628-44.18,2.256-66.324c-0.047-2.736,0.363-5.412-3.703-5.583c-2.067-0.087-2.834-1.764-1.959-3.609
		c0.601-1.268,0.685-2.143-0.422-3.024c-2.358-1.879-1.404-4.271-1.493-6.748c-0.134-3.75,3.79-5.32,3.691-8.751
		c-0.074-2.634,0.998-4.094,3.877-3.785c2.319,0.249,2.923-1.532,2.896-3.176c-0.082-5.173,1.41-10.19,1.184-15.397
		c-0.134-3.069-1.393-4.659-3.87-6.257c-5.088-3.283-10.66-4.112-16.451-4.13c-77.78-0.243-155.561,0.231-233.339,0.659
		c-7.497,0.041-14.677-0.032-21.539,3.669c-2.703,1.459-3.802,2.881-3.201,5.818c0.998,4.873,1.598,9.786,1.329,14.79
		c-0.193,3.59,0.067,6.919,5.219,6.117c0.66-0.104,1.92,0.427,2.096,0.938c1.6,4.669,5.619,9.188,3.406,14.224
		c-1.411,3.212-0.18,7.835-3.626,9.562c-3.131,1.57-3.294,3.59-3.117,6.275c0.994,15.067,1.174,30.168,2.801,45.22
		c1.241,11.477,1.937,23.028,4.312,34.33c1.648,7.848,3.493,15.891,1.218,23.5c-1.584,5.3-1.409,9.912-0.337,14.944
		c2.771,13.011,5.417,26.049,8.191,39.06c0.52,2.439,1.312,4.414,4.806,3.982c4.792-0.593,9.351-1.239,13.67-3.783
		c9.39-5.53,19.05-11.714,30.242-11.069c13.961,0.805,25.002-4.705,35.718-12.343c4.582-3.266,7.117-7.136,6.455-13.011
		c-0.408-3.619,0.056-7.328-0.111-10.985c-0.189-4.15-0.903-8.963-3.632-11.466c-3.426-3.142-5.431-6.449-6.43-10.67
		c-1.092-4.612-2.701-9.419,3.468-12.043c1.008-0.429,0.64-1.779,0.608-2.721c-0.139-4.163,0.359-8.246,0.977-12.364
		c2.484-16.565,21.622-28.381,36.968-22.285c14.046,5.579,20.996,18.335,19.543,33.351c-0.134,1.389-1.384,3.487,0.336,4.049
		c7.478,2.442,4.104,8.393,3.619,12.584c-0.369,3.184-1.709,8.385-4.782,9.09c-3.688,0.846-3.574,3.115-4.474,5.213
		C348.402,287.768,349.134,292.173,348.938,297.951z M358.389,317.697c0.395,6.915-0.854,9.44-7.578,11.946
		c-11.229,4.186-22.813,7.337-34.85,4.223c-8.322-2.153-17.501-3.402-21.841-12.604c-0.58-1.229-1.043-0.83-1.755-0.43
		c-2.72,1.53-5.382,2.818-6.473,6.341c-2.919,9.424-6.727,18.522-11.061,27.399c-3.917,8.021-7.224,16.34-7.755,25.317
		c-0.865,14.636,1.963,28.941,4.471,43.281c1.359,7.772,4.175,15.25,4.465,23.229c0.63,17.326-3.648,34.11-5.682,51.141
		c-0.414,3.465-0.53,5.96,3.606,6.341c8.251,0.759,16.51,1.438,24.768,2.112c15.458,1.264,30.935,1.111,46.368-0.071
		c11.072-0.85,22.188-1.217,33.214-2.788c2.624-0.374,3-1.378,2.557-3.514c-3.894-18.783-5.069-37.683-2.907-56.802
		c1.502-13.276,3.504-26.465,5.828-39.612c1.988-11.25,3.305-22.288-0.568-33.667c-4.982-14.635-11.944-28.481-16.502-43.24
		C365.32,321.857,362.771,319.008,358.389,317.697z M330.268,619.349c4.932-2.928,8.998-5.891,14.321-6.491
		c11.986-1.354,23.82-0.512,35.604,1.652c1.435,0.265,2.479,0.909,2.807-1.226c2.342-15.318,5.014-30.597,5.982-46.089
		c0.416-6.66-0.989-13.155-1.91-19.711c-1.881-13.389-3.463-26.818-5.043-40.246c-0.256-2.176-1.473-2.425-3.049-2.199
		c-8.879,1.273-17.82,1.666-26.761,2.22c-12.61,0.779-25.214,2.162-37.853,1.543c-13.087-0.642-26.231-1.251-39.182-3.073
		c-6.262-0.881-6.103,2.172-6.14,5.986c-0.175,17.81-1.643,35.591-1.109,53.414c0.104,3.494-0.351,7.085,0.298,10.47
		c3.192,16.645,8.562,32.69,13.858,48.751c0.959,2.909,2.714,4.894,5.749,5.356c13.946,2.128,27.048,0.713,38.099-9.239
		c1.188-1.07,1.147-2.277,1.145-3.6c-0.055-17.144-0.821-34.258-1.854-51.366c-0.195-3.253-0.967-6.628,0.957-9.729
		C328.535,576.683,327.98,597.743,330.268,619.349z M423.94,491.595c5.925,3.875,6.358-0.233,6.994-3.894
		c0.281-1.617,0.327-3.258,0.606-4.901c2.921-17.2,5.691-34.427,8.441-51.655c2.593-16.238,5.108-32.489,7.723-49.141
		c-2.178,0-4.354-0.24-6.462,0.041c-9.997,1.332-19.863,0.14-29.498-2.187c-7.796-1.884-15.322-4.891-22.957-7.429
		c-2.295-0.764-3.104-0.499-2.231,2.21c1.479,4.605,2.059,9.438,1.383,14.222c-1.313,9.294-3.125,18.518-4.42,27.812
		c-1.752,12.578-4.252,25.061-4.56,37.829c-0.372,15.465,1.056,30.707,3.886,45.924c2.229,11.987,3.779,24.129,5.016,36.266
		c1.068,10.51,3.854,20.878,3.094,31.538c-0.411,5.759-1.295,11.481-1.947,17.224c-1.601,14.087-4.162,27.974-7.298,41.821
		c-4.508,19.92-10.351,39.795-6.745,60.678c0.477,2.759,1.25,5.475,1.074,8.374c-0.62,10.244-2.793,20.175-5.572,30.016
		c-5.037,17.842-13.998,34.828-10.615,54.462c1.116,6.482,1.438,13.147,2.59,20.487c0.787-1.267,1.289-1.76,1.424-2.338
		c3.705-15.986,7.854-31.893,10.867-48.01c1.754-9.378,7.328-18.481,3.311-28.589c-0.218-0.55,0.01-1.325,0.161-1.966
		c4.097-17.255,8.462-34.451,12.155-51.79c1.025-4.812,4.625-8.074,5.654-12.64c2.236-9.914,4.938-19.753,6.562-29.769
		c3.972-24.52,12.743-48.053,13.733-73.256c0.499-12.703,4.104-25.289,5.962-37.992C423.371,507.414,423.95,499.89,423.94,491.595z
		 M250.582,503.853c1.156,14.673,5.715,28.563,7.119,42.938c0.558,5.713,5.649,11.148,1.363,17.27
		c-0.271,0.388,0.109,1.276,0.268,1.911c3.766,15.116,7.895,30.152,11.217,45.364c3.146,14.403,7.89,28.282,12.319,42.282
		c2.139,6.759,4.04,13.592,6.048,20.392c1.074-7.353,1.45-14.484,0.942-21.556c-0.337-4.696-0.757-9.753-3.156-13.87
		c-5.126-8.8-8.194-18.356-11.12-27.954c-4.743-15.556-10.033-30.909-9.801-47.655c0.235-16.982,0.72-33.96,1.382-50.919
		c0.393-10.051,2.419-20.028,3.482-30.063c1.183-11.162,4.14-22.156,3.371-33.507c-1.005-14.834-6.037-28.967-7.608-43.729
		c-0.985-9.262-2.359-18.56-0.994-27.755c0.651-4.383-0.652-5.001-4.06-4.993c-1.981,0.006-3.894-0.023-5.833,0.875
		c-8.895,4.123-18.436,5.832-28.064,7.116c-3.512,0.468-5.909,0.895-4.628,5.876c2.325,9.045,3.618,18.352,5.457,27.525
		c5.876,29.317,11.865,58.613,17.632,87.954C246.573,504.688,247.139,506.479,250.582,503.853z M356.971,614.124
		c-13.281,0.014-15.215,0.629-22.812,5.015c-2.589,1.494-3.478,3.207-3.171,5.963c0.736,6.606,1.187,13.224,1.045,19.888
		c-0.151,7.148,0.752,14.227,1.933,21.273c0.98,5.856,2.994,11.423,4.53,17.121c0.29,1.078,1.438,3.899-0.706,2.986
		c-2.647-1.128-1.587,0.498-1.897,1.332c-4.916,13.167-2.045,26.455-0.498,39.688c1.502,12.86,5.326,25.646,0.313,38.58
		c-1.666,4.3,0.94,6.932,4.647,7.685c3.641,0.738,7.473,0.708,11.295-0.301c2.556-0.675,3.818-2.226,4.219-4.268
		c2.952-15.067,8.781-29.273,12.889-43.98c3.497-12.521,6.899-25.219,4.227-38.484c-0.201-0.997,0.714-2.975-1.742-2.273
		c-1.812,0.518-1.881,0.517-1.541-1.197c4.123-20.775,5.027-42.153,11.523-62.469c1.113-3.483-0.562-4.271-3.011-4.612
		C371.01,615.066,363.816,613.822,356.971,614.124z M327.253,621.271c-12.758,12.653-27.162,11.938-41.827,10.117
		c0.871,3.019,2.901,5.436,4.546,8.067c0.519,0.83,1.529,1.784,1.4,2.521c-1.283,7.36,1.328,14.517,0.839,21.919
		c-0.521,7.886-1.083,15.931,0.544,23.843c2.261,10.996,6.798,21.248,10.405,31.802c2.863,8.378,6.831,16.443,6.832,25.571
		c0,1.393,0.69,2.266,1.84,2.646c5.146,1.699,10.336,2.021,15.552,0.233c2.734-0.938,3.085-2.476,1.662-4.943
		c-1.048-1.82-1.715-3.815-2.127-5.989c-2.282-12.017,0.505-23.788,1.655-35.596c1.16-11.91,2.236-23.696-1.836-35.251
		c-0.305-0.861-0.436-3.099-1.467-2.523c-3.227,1.798-2.656-0.17-1.936-1.785C328.995,649.229,326.439,635.865,327.253,621.271z
		 M350.163,270.604c2.582,1.558,1.419,3.282,1.931,4.547c0.229,0.566,0.618,1.218,1.119,1.489c0.674,0.365,1.27-0.182,1.523-0.817
		c1.828-4.564,4.231-8.992,3.275-14.216c-0.183-0.998-0.133-2.073-1.3-2.424c-1.305-0.393-1.579,0.696-2.122,1.54
		c-0.453,0.703-0.229,2.15-2.113,1.9c0.279-6.447,1.93-12.803,0.629-19.384c-2.263-11.45-8.715-18.866-19.699-22.427
		c-8.605-2.788-20.016,0.896-26.347,8.336c-8.06,9.47-7.408,20.741-6.617,32.023c0.115,1.636,1.172,3.308-0.577,5.116
		c-1.51-2.432-0.556-5.749-3.557-6.922c-2.619,5.628-0.995,12.32,4.154,17.234c1.434-0.837-1.165-2.631,1.499-3.565
		c1.804,7.008,2.055,14.449,9.437,19.305c7.189,4.729,14.683,6.163,22.142,4.275C346.136,293.428,350.074,283.212,350.163,270.604z
		 M175.154,285.623c11.002,7.263,10.981,7.273,16.24,17.423c0.512,0.988,0.729,3.145,2.62,1.934
		c1.096-0.701,2.617-2.328,1.596-3.626c-4.048-5.143-4.926-12.122-10.8-16.374c-5.759-4.168-5.891-4.777-11.579-0.795
		c-0.785,0.549-1.76,0.919-2.701,1.133c-2.619,0.592-3.589,2.593-4.5,4.787c-1.642,3.954-2.849,8.244-5.249,11.689
		c-2.766,3.97-2.652,8.507-2.04,12.222c2.086,12.642,1.734,25.429,3.289,38.064c0.845,6.863,1.671,13.757,3.095,20.512
		c1.021,4.847,4.498,7.707,9.706,7.373c11.465-0.735,22.918,0.14,34.376,0.134c3.639-0.001,4.305-1.378,3.651-4.387
		c-1.536-7.069-3.072-14.14-4.632-21.203c-2.021-9.146-1.952-8.925-11-5.698c-5.056,1.805-8.946,3.614-8.397,10.158
		c0.29,3.454-1.392,4.688-4.958,5.643c3.407-3.743,3.333-8.025,3.249-12.361c-0.234-11.982-4.708-23.188-6.334-34.916
		c-0.225-1.621-1.188-2.136-3.076-1.241c-3.271,1.549-6.781,2.593-10.428,3.937c0.36-2.662,3.061-1.711,3.742-3.503
		c-2.036-2.951-6.054-3.443-8.64-6.352c3.075-0.182,5.103,1.61,7.289,2.878c2.942,1.707,6.559,4.072,8.482-0.08
		c1.703-3.674-2.97-4.166-5.208-5.395c-3.428-1.882-6.862-3.666-10.204-6.514c3.794,0.614,13.158,5.856,17.242,9.392
		c0.792,0.686,1.39,2.143,2.841,1.115c1.28-0.907,1.359-2.048,0.771-3.495c-1.217-2.992-3.033-5.378-5.681-7.308
		c-2.947-2.147-6.544-3.678-8.35-7.516c3.964,0.994,13.515,8.399,15.045,12.092c0.963,2.323,2.228,3.45,4.426,2.49
		c2.244-0.98,0.68-2.633,0.295-4.175c-1.518-6.089-4.545-10.823-10.488-13.516C177.336,289.46,175.675,288.369,175.154,285.623z
		 M387.54,369.752c4.646,1.621,9.185,3.016,13.581,4.773c14.496,5.794,29.587,6.366,44.89,5.506c2.462-0.14,2.532-2.065,2.782-3.432
		c1.212-6.635,2.032-13.341,3.249-19.975c0.678-3.695-0.52-5.693-4.146-6.645c-4.118-1.079-8.146-2.45-12.404-3.017
		c-8.7-1.153-16.85-3.245-23.974-9.189c-9.243-7.717-20.146-11.156-32.374-8.869c-2.127,0.396-3.821-0.641-5.49-1.752
		c-1.678-1.12-3.381-2.206-5.072-3.308c-0.254,0.213-0.508,0.427-0.762,0.64c5.812,14.604,11.628,29.207,17.492,43.938
		c1.5-1.372,2.121-3.369,4.326-3.263C390.386,367.497,387.688,367.822,387.54,369.752z M333.502,762.369
		c-3.645,8.941-6.303,17.91-4.977,27.725c0.658,4.881,3.209,9.491,2.322,14.548c-1.053,5.997-2.639,11.91-3.49,17.931
		c-1.606,11.349,0.805,23.422,16.231,24.953c7.234,0.719,17.669-2.304,19.748-9.874c1.381-5.026,2.203-10.073,1.49-15.2
		c-2.304-16.592-8.39-32.631-6.619-50.336c-7.211,4.773-14.276,5.489-21.254,2.169C331.838,771.847,333.398,766.82,333.502,762.369z
		 M284.048,325.916c-5.112,1.594-9.561,3.463-14.384,3.062c-12.563-1.041-23.706,3.088-34.132,9.498
		c-5.465,3.359-11.118,5.747-17.601,5.487c-3.111-0.124-3.244,1.675-2.815,3.825c1.924,9.651,3.976,19.277,5.852,28.938
		c0.319,1.645,0.918,2.534,2.549,2.153c7.511-1.753,15.221-2.445,22.667-4.635c6.018-1.771,11.513-5.812,17.921-4.164
		c0.839-3.164-2.874-3.923-2.903-6.874c3.473,0.104,3.453,3.839,6.022,5.007C271.886,353.908,280.014,341.172,284.048,325.916z
		 M306,290.669c0,4.327-0.382,7.808,0.081,11.173c0.922,6.708-2.25,11.391-7.359,14.635c-3.565,2.266-2.88,4.239-1.157,6.881
		c1.126,1.727,2.79,2.759,4.584,3.681c15.601,8.02,31.283,6.875,47.321,1.135c7.69-2.752,9.614-10.323,2.903-15.335
		c-4.132-3.086-6.301-6.931-5.456-12.366c0.463-2.977,0.083-6.083,0.083-9.436C333.128,302.589,319.836,301.773,306,290.669z
		 M482.024,320.371c-3.425-0.521-5.514-1.852-6.921-4.296c-0.854-1.488-1.227-3.556-3.726-3.07
		c-2.316,0.449-1.817,2.696-2.081,3.977c-1.754,8.512-4.636,16.731-5.937,25.378c-1.759,11.683-4.204,23.26-6.325,34.888
		c-0.476,2.599,0.255,4.172,3.344,3.786c1.474-0.186,3-0.111,4.489,0.011c9.598,0.787,12.327-3.244,14.896-10.652
		c2.641-7.612,3.615-15.68,5.287-23.557c2.313-10.903,1.557-22.474,6.973-32.697c1.023-1.931,0.063-2.485-1.52-3.042
		c-4.531-1.592-9.321-2.09-13.879-3.795c-5.952-2.228-10.456-6.566-15.744-9.711c-1.571-0.934-2.612-0.934-3.621-0.469
		c-2.027,0.933-0.245,2.281,0.338,2.854c4.572,4.49,8.346,10.291,15.788,10.407c0.781,0.012,1.32,0.197,1.44,0.936
		C475.494,315.386,479.132,317.161,482.024,320.371z M414.9,115.028c0-0.01-0.001-0.02-0.001-0.028
		c11.993,0,23.987,0.04,35.979-0.056c1.39-0.011,3.887,1.14,3.946-1.473c0.062-2.691-2.53-1.135-3.878-1.628
		c-0.442-0.162-0.99-0.043-1.489-0.043c-36.141,0.017-72.278-0.115-108.419-0.379c-41.958-0.305-83.921,0.196-125.882,0.352
		c-1.666,0.007-3.331,0.09-4.996,0.082c-1.522-0.007-3.219-0.247-3.098,2.062c0.132,2.521,1.96,1.016,2.971,1.046
		c27.435,0.831,54.928-1.6,82.332,1.732c6.398,0.778,12.967,0.646,19.426,0.322c22.289-1.117,44.604,1.477,66.942-1.692
		C390.564,113.647,402.831,115.028,414.9,115.028z M433.052,659.52c0.257-13.646-2.486-24.828-9.545-34.722
		c-1.408-1.975-3.091-4.275-5.965-3.836c-2.894,0.442-2.887,3.354-3.518,5.429c-3.457,11.375-2.652,22.951-0.691,34.388
		c1.096,6.391,2.622,12.936,7.443,17.91c3.864,3.987,7.289,3.277,9.378-1.895C432.604,670.729,433.417,664.407,433.052,659.52z
		 M330.033,739.444c0,0.466-0.135,0.98,0.02,1.389c2.631,6.975,0.881,9.487-6.796,10.215c-5.212,0.493-10.139-0.391-16.238-3.08
		c2.613,20.187,10.035,38.019,14.569,57.729c3.826-5.602,5.238-10.52,4.727-16.086c-0.896-9.721,0.408-19.473,5.043-27.783
		C336.02,753.466,333.542,746.725,330.033,739.444z M306.127,765.582c-6.021,8.718-11.786,16.665-13.65,26.332
		c-1.708,8.859-0.742,14.501,9.609,16.431c4.33,0.809,8.414,0.617,12.715-0.145c2.79-0.494,2.734-1.61,2.189-3.569
		C313.456,791.914,309.916,779.199,306.127,765.582z M197.79,303.507c-2.614,3.423-5.679,5.237-9.139,6.515
		c-5.467,2.019-6.735,4.498-5.466,10.21c2.171,9.768,4.301,19.544,6.468,29.408c4.717-1.768,9.584-3.716,14.545-5.385
		c1.708-0.575,2.029-1.539,1.73-2.938C203.273,328.862,200.575,316.418,197.79,303.507z M466.794,240.13
		c0.14-1.639,0.089-3.321,0.449-4.91c4.707-20.779,9.174-41.604,13.017-62.565c1.912-10.43,2.135-10.185-8.27-12.2
		c-3.721-0.721-4.041,0.539-4.047,3.63c-0.022,13.312-0.024,26.611-0.708,39.932C466.614,216.104,465.28,228.23,466.794,240.13z
		 M448.902,410.854c5.679-31.453,11.225-62.934,17.182-94.335c0.895-4.709,0.188-7.187-4.844-8.378
		C457.354,342.521,448.858,376.183,448.902,410.854z M189.695,127.21c-3.558,0.708-6.692,2.212-10.29,0.894
		c-2.776-1.018-4.052,1.072-3.696,3.434c0.718,4.767-0.049,9.552,1.001,14.36c2.367,10.834,2.369,10.989,13.406,7.502
		c1.778-0.562,2.388-0.896,2.068-3.152C191.122,142.741,191.209,135.097,189.695,127.21z M218.956,384.704
		c-3.617-29.111-10.374-57.672-16.123-86.438c-4.116,2.016-3.109,5.161-2.425,8.171c2.598,11.444,5.454,22.837,7.797,34.332
		C211.213,355.526,213.979,370.327,218.956,384.704z M493.346,295.518c-4.251,2.748-10.176,2.527-12.588,8.01
		c-0.475,1.081-2.091,1.786-0.518,3.252c1.292,1.202,2.363,1.233,3.967,0.415c3.167-1.618,6.096-5.734,10.218-1.555
		c0.11,0.112,1.115-0.28,1.203-0.583c0.758-2.599,4.134-5.016,0.894-7.947c-1.6-1.446-1.373-3.154-1.523-4.965
		c-0.281-3.387-3.309-4.755-6.567-4.275c-7.564,1.112-11.243,6.471-14.668,12.296c-1.004,1.708-1.446,3.452,0.662,4.714
		c1.981,1.187,2.985,0.341,4.184-1.538C481.985,298.039,486.986,295.318,493.346,295.518z M423.37,561.248
		c-0.471-0.025-0.941-0.051-1.413-0.076c-3.426,16.744-6.852,33.489-10.422,50.942c2.01-1.157,3.619-0.81,4.275-2.292
		C422.714,594.256,419.995,577.317,423.37,561.248z M489.777,284.67c-0.978-1.636-2.133-2.751-4.319-2.702
		c-8.385,0.186-16.458,6.583-18.266,14.678c-0.448,2.011,0.389,3.592,2.062,4.589c2.559,1.523,2.59-1.18,3.301-2.3
		c3.699-5.826,6.912-12.119,15.093-12.63C488.429,286.256,489.762,286.12,489.777,284.67z M267.162,614.03
		c-3.847-15.37-7.694-30.741-11.542-46.111C254.404,584.496,257.997,599.899,267.162,614.03z M331.02,697.52
		c0.207-0.046,0.416-0.091,0.623-0.137c0.36-1.582,0.881-3.146,1.051-4.748c0.631-5.882,3.789-11.401,1.414-17.743
		c-2.062-5.507-2.609-11.459-3.361-17.359c-0.84-6.59-0.212-13.226-1.441-19.792c0.157,6.986-0.412,13.854-2.381,20.548
		c-0.458,1.559,0.342,2.801,0.723,4.208c2.657,9.849,6.108,19.615,3.429,30.107C330.68,694.146,331.02,695.876,331.02,697.52z
		 M330.35,702.565c-0.771,7.886-1.621,15.764-2.267,23.658c-0.256,3.126-1.015,6.934,1.247,9.146
		c3.107,3.043,4.809,6.612,6.436,10.467C333.893,731.411,331.875,717.074,330.35,702.565z M305.317,747.054
		c3.82-5.151-2.177-29.36-9.81-38.353C297.545,721.702,301.941,734.119,305.317,747.054z M194.419,117.83
		c-8.274-2.474-15.303-2.382-22.703,0.537c4.439,0.855,2.827,7.489,7.869,7.401c3.96-0.068,7.271-2.097,10.824-4.178
		c-2.398,0.383-4.675,1.11-6.142-1.551c-0.334-0.606-2.298,0.655-2.612-1.416C185.435,116.836,189.424,118.411,194.419,117.83z
		 M163.886,109.514c-0.005-0.091-0.009-0.182-0.014-0.272c-2.141,0.11-4.291,0.133-6.42,0.354c-2.147,0.224-2.422,1.8-2.475,3.628
		c-0.057,1.971,0.813,2.592,2.665,2.617c3.105,0.041,6.225,0.521,9.306,0.32c2.175-0.142,5.1-0.344,4.938-3.634
		c-0.176-3.567-2.952-3.351-5.519-3.156C165.541,109.434,164.713,109.467,163.886,109.514z M482.157,280.443
		c-4.148-4.419-7.263-0.217-10.436,0.584c-6.074,1.534-10.104,7.45-9.819,13.582c0.056,1.177-0.405,2.912,1.442,3.27
		c1.664,0.321,2.169-0.896,2.66-2.268c2.658-7.417,5.994-14.191,15.288-14.766C481.447,280.836,481.594,280.711,482.157,280.443z
		 M465.329,249.634c-0.794,3.729-1.803,8.39-2.773,13.057c-0.904,4.354-1.906,8.696-2.599,13.085
		c-0.378,2.403,0.34,4.003,3.51,3.978c3.611-0.029,2.604-2.321,2.326-4.005c-0.517-3.145-0.573-6.261-0.502-9.432
		C465.424,260.347,465.329,254.371,465.329,249.634z M464.353,116.048c0.004,0.051,0.007,0.102,0.01,0.152
		c1.801-0.089,3.612-0.354,5.398-0.229c3.261,0.228,3.17-1.936,3.386-4.154c0.286-2.965-1.921-2.192-3.303-2.172
		c-3.59,0.055-7.174,0.423-10.764,0.565c-2.223,0.089-2.053,1.69-2.188,3.138c-0.142,1.504,0.248,2.658,2.03,2.692
		C460.731,116.074,462.542,116.048,464.353,116.048z M487.134,116.086c1.765-0.714,4.674,0.747,4.888-2.71
		c0.08-1.309,0.173-3.006-1.646-3.032c-4.578-0.066-9.164,0.053-13.739,0.265c-2.214,0.102-1.538,2.244-1.899,3.502
		c-0.311,1.074,0.865,1.351,1.627,1.167C480.041,114.392,483.542,115.745,487.134,116.086z M197.953,110.062c0-0.03,0-0.06,0-0.089
		c-1.997,0-3.995,0.03-5.991-0.01c-1.565-0.032-2.084,0.837-1.927,2.203c0.115,0.998-0.789,2.658,1.114,2.725
		c3.96,0.14,7.695,1.834,11.842,1.127c2.585-0.441,2.863-1.805,2.97-3.674c0.124-2.153-1.397-2.309-3.015-2.287
		C201.282,110.079,199.617,110.062,197.953,110.062z M187.873,106.537c-1.213,0.567-2.036,1.146-2.94,1.337
		c-1.98,0.417-3.589,4.024-6.237,0.55c-0.434-0.57-3.801,0.478-5.243,1.546c-0.747,0.553-0.82,3.14-0.182,4.189
		c1.112,1.827,2.974-0.134,4.354,0.018c3.7,0.404,7.235-1.396,10.9-0.488C188.317,111.421,188.111,109.152,187.873,106.537z
		 M501.697,109.879c-1.985,0.1-3.304,0.265-4.611,0.209c-2.273-0.098-3.235,0.736-3.121,3.157c0.126,2.631,1.736,2.226,3.409,2.164
		c3.276-0.121,6.557-0.225,9.834-0.203c1.754,0.012,2.368-1.047,2.506-2.425c0.153-1.54-0.572-2.347-2.312-2.37
		C505.279,110.382,503.163,110.026,501.697,109.879z M257.529,624.417c-3.075,11.592-0.687,22.489,0.779,33.421
		C258.539,646.845,260.113,635.802,257.529,624.417z M328.088,798.182c-3.681,6.284-7.775,12.159-2.018,19.403
		C326.904,811.06,330.354,805.113,328.088,798.182z M196.01,289.977c-3.141,0.19-1.839,2.568-1.958,4.05
		c-0.186,2.331,0.069,4.977,3.004,5.193c2.69,0.199,3.662-2.497,3.486-4.425C200.33,292.457,199.009,290.136,196.01,289.977z
		 M425.898,604.431c-4.724,2.589-1.492-1.949-2.391-2.641c-2.124,1.24-3.306,2.434-3.01,5.057c0.303,2.685,2.797,5.222,0.796,8.133
		c-0.041,0.06,0.364,0.427,0.795,0.916C423.854,612.314,425.223,608.844,425.898,604.431z M460.948,290.1
		c-0.083-1.6-1.099-2.157-2.611-2.08c-2.796,0.143-4.721,1.681-5.193,4.306c-0.392,2.173,1.573,2.478,3.274,2.667
		C460.078,295.401,459.676,292.052,460.948,290.1z M221.581,400.027c-0.692-3.497-1.368-6.998-2.086-10.489
		c-0.185-0.897-0.21-2.312-1.591-1.863c-1.219,0.396-0.604,1.523-0.357,2.487C218.42,393.573,218.876,397.108,221.581,400.027z"/>
</g>
</svg>
