<?xml version="1.0" encoding="utf-8"?>
<!-- Generator: Adobe Illustrator 16.2.1, SVG Export Plug-In . SVG Version: 6.00 Build 0)  -->
<!DOCTYPE svg PUBLIC "-//W3C//DTD SVG 1.1//EN" "http://www.w3.org/Graphics/SVG/1.1/DTD/svg11.dtd">
<svg version="1.1" id="YSfqZIa5hFh6AGqkrkrSeUzS_x5F_nwmPCBt7qoJVYe4VPU_xA0_Image_1_"
	 xmlns="http://www.w3.org/2000/svg" xmlns:xlink="http://www.w3.org/1999/xlink" x="0px" y="0px" width="640px" height="960px"
	 viewBox="0 0 640 960" enable-background="new 0 0 640 960" xml:space="preserve">
<path d="M511.942,111.52c0.772-3.311-1.413-4.945-4.214-4.408c-9.832,1.886-19.604,0.229-29.362-0.224
	c-10.711-0.497-21.028,2.678-31.625,2.627c-16.983-0.083-33.972-0.213-50.952-0.305c-62.162-0.337-124.329,0.043-186.488-0.528
	c-6.82-0.063-14.83,2.239-21.084-3.52c-0.499-0.459-1.902-0.023-2.866,0.124c-5.682,0.87-11.315,2.004-17.13,1.843
	c-4.135-0.115-8.31-0.261-12.398,0.821c-0.969,0.256-1.962,0.233-2.524,1.262c-2.161,3.953,0.459,9.284,4.964,10.074
	c0.98,0.172,2.023,0.175,2.932,0.528c4.968,1.93,12.206,2.784,12.336,8.978c0.19,9.021,3.004,17.866,1.08,27.225
	c-0.604,2.941-2.288,5.116-2.871,7.888c-1.378,6.555,4.464,9.547,6.756,14.153c0.675,1.357,2.841,3.256,3.255,5.163
	c3.374,15.566,8.158,30.767,11.826,46.249c2.797,11.808,7.003,23.382,6.507,35.794c-0.049,1.236,1.028,2.839-0.566,3.63
	c-4.874,2.419-7.28,7.236-10.679,11.024c-2.305,2.567-3.619,2.271-5.422,0.024c-2.052-2.558-4.597-4.029-7.822-2.705
	c-3.024,1.241-6.528,2.303-8.642,4.552c-3.422,3.643-7.229,7.424-7.904,12.836c-0.193,1.549-0.355,3.039-1.462,4.106
	c-1.977,1.905-1.985,4.154-1.218,6.435c2.976,8.845,3.333,18.139,4.507,27.255c1.641,12.736,3.005,25.495,6.269,37.949
	c1.896,7.239,5.517,9.708,12.942,10.729c8.477,1.165,16.922,0.739,25.395,0.737c4.313-0.001,9.721-1.202,12.626,0.906
	c2.823,2.049,2.475,7.765,3.063,11.977c0.47,3.365,3.664,6.95-0.916,9.89c-0.165,0.104,0.216,1.157,0.428,1.737
	c5.212,14.26,9.093,28.852,10.752,43.969c0.963,8.771,6.529,16.672,4.634,26.015c-0.756,3.726-0.997,7.607-1.02,11.422
	c-0.085,14.147-1.098,28.24-1.953,42.353c-1.569,25.884-2.951,51.78-4.028,77.688c-0.864,20.769-2.045,41.521-2.902,62.285
	c-1.035,25.095-2.118,50.19-2.993,75.291c-0.551,15.797-1.559,31.562-2.116,47.352c-0.081,2.296-0.944,2.96-3.02,3.612
	c-4.249,1.336-8.194,3.437-12.025,5.78c-24.274,14.845-17.914,48.235-1.605,59.118c10.312,6.881,21.246,8.951,32.966,7.574
	c9.857-1.158,19.21-4.761,25.613-12.68c19.87-24.57,4.864-51.893-19.575-59.909c-3.734-1.225-4.535-2.619-4.468-6.062
	c0.246-12.823,1.275-25.612,1.139-38.461c-0.202-18.992,0.34-37.992,0.485-56.982c0.483-62.994,0.333-125.992,0.388-188.988
	c0.002-2.656-0.534-5.312-0.549-7.971c-0.064-11.291-0.027-22.583-0.027-33.874c4.313,16.341,10.37,32.106,14.638,48.409
	c0.951,3.632,1.63,7.8,4.33,10.27c6.817,6.24,10.294,14.574,10.282,22.812c-0.026,17.384,1.633,34.349,6.442,50.979
	c4.004,13.849,6.434,28.311,14.143,40.821c3.247,5.27,4.229,10.887,4.809,16.792c0.803,8.176-1.463,16.229-0.807,24.401
	c1.082,13.474,6.036,25.891,10.198,38.544c4.06,12.34,10.708,23.915,5.905,38.173c-2.819,8.37-5.106,16.811-9.241,24.706
	c-3.338,6.374-6.947,12.752-6.144,20.512c0.405,3.909,1.84,6.395,5.783,7.519c5.374,1.53,10.857,1.684,16.255,1.075
	c11.42-1.282,14.133-3.854,16.03-14.808c1.287-7.424,1.586-15.134,6.193-21.51c2.945-4.073,3.697-8.417,2.779-13.159
	c-1.271-6.578-0.18-14.228-4.848-19.346c-4.079-4.476-4.326-9.028-4.093-14.146c0.219-4.801,0.368-9.648,1.173-14.371
	c2.789-16.402,2.598-32.621-2.594-48.538c-0.899-2.758-0.233-4.737,2.386-6.819c0,2.062-0.149,4.136,0.024,6.183
	c0.937,10.901,2.324,21.684,9.037,30.905c2.024,2.778,4.534,5.242,7.951,5.573c6.107,0.595,12.264,0.497,17.988-2.345
	c3.043-1.51,5.584-3.5,6.854-6.807c3.832-9.982,4.066-19.881-0.373-29.785c-2.488-5.549-4.66-11.239-7.117-16.803
	c-1.637-3.71-1.396-7.188-0.078-11c8.738-25.303,17.294-50.669,25.934-76.006c1.193-3.499,1.756-7.448,6.556-8.277
	c1.58-0.272,1.812-2.236,2.178-3.633c4.766-18.242,9.435-36.511,14.291-54.729c0.614-2.305,1.388-3.799-1.646-4.986
	c-2.355-0.923-0.289-2.704,0.146-4.069c0.331-1.043,0.34-2.489,2.038-2.285c1.441,0.174,1.144,1.385,1.203,2.311
	c0.683,10.606,1.723,21.208,1.938,31.825c0.48,23.48-1.043,46.925-1.725,70.386c-1.083,37.282-2.472,74.568-2.979,111.855
	c-0.467,34.148-1.003,68.306-1.159,102.46c-0.014,3.087-0.856,4.488-3.959,5.633c-17.36,6.4-28.343,21.9-25.358,42.423
	c4.121,28.354,34.774,42.031,54.178,36.854c13.251-3.535,24.226-10.673,27.938-24.683c5.647-21.314-3.561-44.533-27.349-53.105
	c-5.575-2.009-8.044-4.666-7.364-10.468c0.249-2.129-0.127-4.325-0.135-6.49c-0.068-17.499,0.334-35.013-0.26-52.493
	c-1.689-49.75,0.063-99.581-3.703-149.282c-1.004-13.248-0.875-26.601-2.275-39.797c-1.273-12.002-0.359-23.959-0.818-35.928
	c-0.445-11.597-1.469-22.857,1.549-34.783c4.62-18.261,8.008-36.901,12.567-55.243c0.562-2.259,4.943-5.747-1.435-6.869
	c-0.938-0.166-0.597-1.662-0.287-2.657c3.215-10.357,5.547-20.933,7.837-31.522c0.441-2.044,1.229-3.503,4.153-3.735
	c7.91-0.631,13.354-5.214,16.641-12.351c1.446-3.14,2.837-6.312,4.075-9.538c4.135-10.764,4.829-22.448,8.94-33.242
	c2.868-7.529,3.631-8.335,11.535-8.672c1.355-0.06,2.705,0.037,3.388-1.487c0.619-1.383,0.366-2.824-0.704-3.634
	c-4.017-3.034-4.269-6.13-1.514-10.392c1.629-2.522-3.561-13.559-6.569-14.471c-2.341-0.709-3.615-2.019-4.74-3.943
	c-0.674-1.152-1.754-2.216-3.221-2.018c-3.44,0.465-6.396-1.49-9.514-1.826c-4.526-0.489-5.54-2.713-5.565-6.515
	c-0.08-12.043,0.239-23.653,4.477-35.556c5.418-15.223,8.119-31.469,11.243-47.42c1.044-5.329,4.846-8.562,7.54-12.152
	c4.037-5.378,5.705-8.565,1.71-13.487c-0.456-0.562-0.592-1.032-0.735-1.681c-1.19-5.35-1.044-10.713-0.319-16.093
	c0.503-3.741-0.336-9.197,1.8-10.889c5.663-4.487,11.338-10.098,19.273-10.345C514.605,118.902,511.297,114.279,511.942,111.52z
	 M456.881,113.322c0.158-1.456,0.017-3.033,2.229-3.115c3.593-0.133,7.179-0.494,10.771-0.561c1.409-0.025,3.569-0.748,3.271,2.206
	c-0.228,2.238-0.17,4.384-3.424,4.106c-1.787-0.152-3.59,0.617-4.914,0.12c-2.141,0-3.786-0.025-5.433,0.007
	C457.459,116.124,456.679,115.185,456.881,113.322z M209.059,111.827c1.999-0.009,3.997-0.04,5.995-0.048
	c41.793-0.156,83.588-0.653,125.377-0.361c36.473,0.255,72.943,0.426,109.416,0.378c0.333,0,0.702-0.084,0.993,0.029
	c1.355,0.531,3.902-1.043,3.979,1.541c0.078,2.703-2.458,1.563-3.827,1.578c-9.994,0.103-19.988,0.056-29.983,0.056
	c-1.332,0-2.665,0-3.997,0c0,0.011,0,0.021,0,0.033c-12.729,0-25.593-1.177-38.164,0.237c-28.637,3.222-57.322,2.438-85.854,0.994
	c-27.981-1.416-55.905-0.673-83.849-1.174c-0.976-0.018-2.016,0.556-2.093-1.067C206.984,112.604,207.588,111.835,209.059,111.827z
	 M190.034,112.208c-0.133-1.3,0.259-2.271,1.849-2.248c1.978,0.029,3.957,0.008,5.936,0.008c0,0.031,0,0.063,0,0.096
	c1.814,0,3.628,0.036,5.441-0.011c1.788-0.047,2.941,0.572,2.699,2.55c-0.194,1.581-0.182,3.063-2.579,3.446
	c-4.237,0.677-8.141-0.917-12.222-1.145C189.263,114.799,190.135,113.2,190.034,112.208z M173.842,109.487
	c2.001,0.002,4.497-3.508,6.205,0.392c0.678,1.548,1.192,0.127,1.707-0.15c1.886-1.017,3.743-2.086,6.182-3.456
	c0.24,3.123,0.414,5.381,0.591,7.688c-1.409,0.833-1.562-3.03-4.102-0.517c-2.05,2.029-6.562,0.307-9.866,1.474
	c-0.872,0.308-1.555-0.478-1.505-1.459C173.126,112.031,172.508,109.485,173.842,109.487z M166.512,116.286
	c-2.723,0.321-5.549-0.267-8.333-0.411c-1.729-0.089-3.255-0.076-3.228-2.602c0.026-2.484,0.969-3.767,3.435-3.833
	c1.816-0.049,3.635-0.009,5.453-0.009c0.001,0.026,0.002,0.053,0.003,0.079c0.827-0.043,1.655-0.072,2.481-0.131
	c2.544-0.178,5.373-0.49,5.552,3.105C172.057,116.128,168.717,116.026,166.512,116.286z M172.145,118.098
	c0.174-1.173,1.178-0.879,1.919-1.076c5.688-1.518,11.861-1.361,20.184,0.812c-4.929,0.641-8.937-1.13-14.038,1.67
	c4.448-0.246,6.189,4.033,10.066,2.166c-3.276,2.019-6.53,3.739-10.311,4.12C178.596,125.928,171.97,119.274,172.145,118.098z
	 M177.87,153.919c-1.492-7.975-2.025-16.013-1.854-24.11c0.053-2.511,1.952-1.73,3.258-1.739c1.96-0.013,3.706,1.297,5.817,0.841
	c5.805-1.257,5.818-1.2,5.87,4.555c0.006,0.664,0,1.328,0,2.842c0.308,4.438,0.638,9.723,1.062,15c0.144,1.795-0.255,2.6-2.314,2.78
	c-3.104,0.271-6.186,0.965-9.232,1.671C178.716,156.166,178.18,155.578,177.87,153.919z M184.741,188.919
	c-1.781-6.748-2.59-13.584-3.685-20.408c-0.431-2.687-0.124-4.268,3.533-4.845c11.348-1.792,11.482-2.066,11.368,9.223
	c-0.175,17.314,1.992,34.422,3.733,51.596c1.029,10.154,2.927,20.321,2.086,31.529C197.005,232.787,190.55,210.933,184.741,188.919z
	 M201.536,291.729c3.422,15.182,6.844,30.363,10.266,45.545c-4.485-14.934-10.163-29.583-12.642-44.987
	C199.951,292.101,200.743,291.915,201.536,291.729z M202.567,261.84c0.616,3.903,1.233,7.806,1.849,11.709
	c0.122,0.77,0.612,1.817-0.506,2.061c-1.442,0.312-1.697-0.921-1.514-1.914C203.126,269.72,201.896,265.774,202.567,261.84z
	 M196.222,296.497c0.464,0.109,0.929,0.22,1.394,0.329c3.461,13.229,7.009,26.438,10.352,39.698c2.16,8.567,2.03,8.615-6.338,11.157
	c-1.721,0.522-3.505,0.841-5.229,1.355c-1.891,0.564-2.691-0.349-3.199-2.001c-3.357-10.924-6.776-21.829-10.107-32.761
	c-1.106-3.631-0.612-5.978,3.65-7.887C190.805,304.571,196.607,303.41,196.222,296.497z M195.187,286.982
	c1.614,0.228,3.891,0.603,3.552,2.417c-0.366,1.96-0.292,5.363-3.232,5.319c-2.609-0.039-1.628-3.254-2.475-4.488
	C192.964,288.248,192.871,286.655,195.187,286.982z M216.169,379.949c-13.065-0.576-26.193,1.197-39.222-1.501
	c-4.961-1.027-6.748-4.3-7.797-8.34c-3.233-12.448-4.973-25.151-6.201-37.943c-0.531-5.531-1.557-11.016-2.353-16.484
	c2.18-0.654,3.62,1.951,6.56,0.438c-6.67-1.026-7.961-5.646-8.999-10.605c-0.535-2.556-0.927-4.783,1.449-6.697
	c1.199-0.967,1.792-2.395,1.091-4.038c-0.184-0.433-0.46-1.256-0.354-1.318c4.676-2.73,4.559-8.997,10.146-11.861
	c6.499-3.331,9.854-1.865,15.202,2.002c5.495,3.974,5.651,9.692,8.083,14.645c0.864,1.76-1.298,2.726-3.261,4.201
	c-2.063-9.798-7.251-16.647-17.166-19.297c0.608,2.225,2.417,2.882,3.96,3.516c5.924,2.433,8.792,7.175,10.335,13.02
	c0.524,1.983,1.029,4.158-1.369,5.154c-2.242,0.931-2.803-1.383-3.49-2.666c-3.319-6.201-9.213-9.046-15.293-12.463
	c0.311,2.605,2.194,2.997,3.512,3.922c1.354,0.95,2.645,2.052,4.122,2.755c3.409,1.623,4.807,4.863,6.723,7.734
	c1.046,1.568,0.689,2.796-0.509,3.907c-1.5,1.391-2.427,0.337-3.746-0.674c-4.701-3.604-8.887-8.188-15.331-8.667
	c4.015,2.389,7.516,5.349,11.333,7.835c1.321,0.858,3.424,1.777,2.303,3.74c-1.043,1.826-2.906,0.688-4.442,0.124
	c-2.979-1.095-5.973-2.144-9.341-2.223c3.519,1.562,7.002,3.216,10.578,4.636c1.181,0.471,2.604,0.503,3.684-0.683
	c3.27-3.589,3.819-1.218,4.721,1.896c3.28,11.329,6.787,22.595,10.27,33.864c1.568,5.075,0.35,9.961-1.354,15.442
	c3.817-2.517,2.679-6.146,3.688-8.933c0.702-1.935,1.228-3.105,3.459-3.461c4.595-0.729,9.947-5.048,13.183-2.823
	c2.85,1.961,2.671,8.373,3.759,12.838c1.281,5.259,2.531,10.524,3.69,15.812C218.088,378.11,218.654,380.06,216.169,379.949z
	 M223.467,375.382c-1.719-8.997-5.235-17.564-6.832-26.64c-0.349-1.981-0.525-2.737,1.674-2.742
	c9.915-0.02,18.428-3.938,26.721-9.024c9.603-5.892,19.877-9.466,31.571-7.646c4.187,0.652,8.392-1.08,13.015-3.667
	c-2.839,9.576-5.838,17.924-9.99,25.778c-3.096,5.856-5.98,11.754-7.634,18.191c-0.271,1.053-0.155,2.737-1.946,1.792
	c-5.592-2.95-10.57,0.052-15.595,1.614c-7.975,2.48-15.685,5.717-24.122,6.705C226.384,380.206,224.329,379.895,223.467,375.382z
	 M310.924,293.251c13.266,8.248,26.434,9.771,40.076-0.82c0,3.531,0.23,6.212-0.046,8.841c-0.685,6.521,2.063,11.09,7.413,14.534
	c3.458,2.227,3.736,5.277,0.951,8.584c-4.289,5.094-10.373,6.994-16.448,8.513c-12.218,3.051-23.932,0.261-35.147-4.437
	c-8.324-3.483-8.812-8.707-1.803-14.158c3.435-2.672,5.078-5.992,5.015-10.287C310.884,300.539,310.924,297.056,310.924,293.251z
	 M301.078,260.469c1.839-0.304,1.775,1.386,1.979,2.7c0.117,0.754,0.585,1.453,1.726,2.131c0-2.778,0.383-5.623-0.081-8.322
	c-0.926-5.382,0.004-10.573,1.05-15.743c2.608-12.9,15.16-21.114,25.699-20.928c13.671,0.242,23.796,12.007,25.654,22.315
	c0.983,5.455,1.336,10.75,0.117,16.189c-0.412,1.838-0.065,3.847-0.065,5.837c0.522-0.135,0.899-0.125,1.118-0.306
	c1.369-1.134,0.228-4.968,3.119-3.883c1.5,0.562,1.775,3.443,1.164,5.848c-1.037,4.075-1.957,8.105-4.451,11.894
	c-2.135-1.84-0.174-4.46-2.825-7.02c-1.399,15.442-6.9,26.823-24.101,26.762c-16.438-0.06-23.854-9.342-23.867-25.312
	c-3.149,1.189-1.698,2.958-2.604,4.019c-0.362-0.201-0.923-0.318-1.12-0.651c-2.287-3.862-4.016-7.903-3.624-12.542
	C300.062,262.345,299.669,260.702,301.078,260.469z M308.965,331.249c14.195,4.997,28.428,7.353,42.803,0.753
	c5.67-2.604,10.896-5.692,11.68-12.852c4.238,1.035,6.197,4.029,7.498,7.786c4.498,13.013,7.869,26.47,15.389,38.291
	c1.503,2.361,1.574,5.271,1.734,8.139c1.01,18.016-2.355,35.552-4.734,53.289c-2.837,21.154-4.378,42.602,0.639,63.821
	c0.147,0.628,0.019,1.321,0.019,2.429c-9.554-7.628-19.306-12.155-31.154-8.904c-5.61,1.54-10.858,4.738-13.487,9.51
	c-5.336,9.688-13.709,9.037-22.351,8.381c-10.737-0.813-21.454-1.914-32.179-2.889c-0.99-0.09-2.007-0.048-2.97-0.257
	c-6.217-1.354-6.445-2.271-5.462-8.748c1.783-11.746,4.226-23.556,4.3-35.352c0.078-12.459-2.709-24.857-5.012-37.195
	c-3.8-20.369-7.257-40.864,3.317-60.457c4.858-9,8.906-18.347,11.761-28.124c1.3-4.452,3.877-6.938,7.907-8.604
	C299.994,325.906,303.599,329.359,308.965,331.249z M369.891,514.351c-0.465-0.993-0.69-2.312-3.07-2.143
	c4.861,10.256,6.871,20.506-0.592,30.643c3.013-0.016,3.013-2.806,5.207-3.706c1.01,8.861,3.937,17.17,0.116,26.181
	c-5.833,13.764-9.764,28.22-13.125,42.793c-0.44,1.908-0.622,3.995-0.36,5.923c0.584,4.321-1.273,6.358-5.36,7.296
	c-3.622,0.831-7.229,1.093-10.845,0.628c-3.863-0.497-7.594-5.327-6.27-9.137c5.067-14.576,0.114-28.268-3.113-42.108
	c-1.672-7.16-2.408-14.318-1.426-21.6c0.281-2.078,0.524-5.345,3.924-0.48c-0.23-4.432-2.271-7.067-3.522-9.931
	c-5.543-12.677-2.92-24.544,3.472-35.976c2.93-5.238,6.91-9.657,11.686-13.414c13.389-10.532,38.578-1.062,42.5,18.604
	c2.763,13.854-2.307,25.571-8.021,37.352c-1.396,2.88-3.062,5.63-5.35,9.792c-0.499-8.499-3.352-15.184-2.732-22.365
	C373.557,526.297,372.605,520.178,369.891,514.351z M327.986,618.241c0.063,0.992,0.084,2.013-0.075,2.987
	c-0.404,2.476-2.651,3.639-4.435,4.309c-1.529,0.575-1.817-2.016-2.4-3.194c-14.974-30.292-31.106-59.978-46.884-89.85
	c-0.862-1.633-1.365-3.301-1.208-5.195c0.709-8.569,1.406-17.14,2.004-25.718c0.182-2.596,1.329-2.079,3.269-1.77
	c17.681,2.821,35.522,3.697,53.56,4.346c-5.847,12.075-7.859,24.172-1.549,36.568c1.709,3.356-1.016,5.928-1.375,8.926
	c-1.231,10.262,1.842,19.877,3.441,29.771c1.605,9.938,1.48,20.092-2.385,29.745C328.773,612.1,327.777,615.021,327.986,618.241z
	 M223.147,787.939c0.209-3.138,0.733-6.252,1.208-10.091c3.178,3.678,4.56,1.191,5.924-1.438c1.853,0.487,1.553,4.257,4.281,2.869
	c1.707-0.869,1.054-2.593,1.065-4.036c-2.658,0.305-1.354-1.939-1.812-2.978c-0.521-1.18-0.148-2.478,1.354-2.606
	c1.597-0.138,1.742,1.202,1.771,2.414c0.109,4.465,0.234,8.93,0.292,13.395c0.024,1.825-0.103,3.651-0.164,5.478
	c-0.365,10.951-0.36,10.877-11.208,10.08c-2.622-0.193-2.904-1.604-2.862-3.625C223.064,794.246,222.938,791.082,223.147,787.939z
	 M214.389,858.014c4.729,1.476,9.457,2.948,14.185,4.423C223.076,863.391,218.538,861.271,214.389,858.014z M256.381,817.98
	c8.392,12.093,7.724,30.169-10.236,37.197c-13.913,5.444-26.719,4.729-37.925-6.216c-7.59-7.414-10.081-18.01-6.289-27.174
	c3.634-8.785,14.221-15.785,23.876-15.789c1.498-0.001,2.996,0,5.516,0C241.41,804.734,250.15,809.001,256.381,817.98z
	 M238.819,632.265c-0.001,9.479-0.012,18.955-0.062,28.434c-0.176,33.62-0.644,67.237-0.711,100.857
	c-0.01,4.918-1.753,6.617-6.305,6.334c-1.324-0.083-2.693-0.12-3.986,0.118c-3.167,0.588-3.369-0.804-3.232-3.57
	c0.98-19.93,2.041-39.863,2.448-59.811c0.065-3.208,0.21-6.411,0.4-9.609c0.165-3.709,0.88-19.756,1.799-40.271
	c-0.033-1.801,0.073-3.595,0.241-5.388c2.078-46.392,4.983-110.869,5.09-111.189l4.333-1.334c0,0,0.002,0.363,0.005,1.046
	c0.017-0.095,0.028-0.189,0.045-0.285c0,3.819,0.004,7.641,0.006,11.46c0.026,6.081,0.057,13.942,0.08,22.458
	c0.083,0.469,0.141,0.948,0.004,1.362C239.036,595.602,239.049,622.44,238.819,632.265z M264.975,499.865
	c-1.082-4.128-2.28-8.271-4.424-11.981c-5.715-9.894-9.445-20.313-12.142-31.551c-2.888-12.036-6.279-24.047-9.673-36.006
	c-1.555-5.477-2.362-10.991-2.053-16.629c0.163-2.972-0.512-4.286-3.476-2.688c-3.039,1.64-3.588-0.547-4.086-2.57
	c-1.292-5.255-2.451-10.541-3.8-16.407c13.454,0.202,25.153-6.485,37.847-9.44c5.71-1.329,7.786,0.603,7.096,6.243
	c-1.077,8.812,0.093,17.608,1.308,26.291c2.257,16.137,6.462,32.024,7.15,48.346c0.295,7.017-1.205,14.128-2.117,21.167
	c-1.314,10.143-3.233,20.215-3.574,30.463c-0.133,3.985-1.703,7.811-1.406,11.999C268.493,511.682,266.545,505.854,264.975,499.865z
	 M287.337,627.241c-6.539-19.299-12.142-38.892-15.097-59.047c-1.241-8.462-0.207-17.257-0.207-25.901
	c0.302-0.099,0.604-0.197,0.905-0.295c5.319,9.792,10.632,19.587,15.958,29.375c9.501,17.463,18.996,34.927,27.776,52.773
	c1.709,3.473,1.302,4.973-2.58,6.306c-7.599,2.608-15.022,3.146-22.721,0.639C289.219,630.39,288.007,629.219,287.337,627.241z
	 M334.596,739.364c2.989,3.245,3.502,7.062,4.244,10.559c0.921,4.342,0.992,8.867,1.385,13.317c0.162,1.83,0.032,3.608-1.045,5.236
	c-5.434,8.193-7.261,17.515-8.131,27.058c-0.521,5.709-3.429,8.792-8.904,10.183c-7,1.777-13.875,2.188-20.956,0.377
	c-2.788-0.713-3.988-2.126-4.162-4.71c-0.325-4.819-0.141-9.565,2.213-13.986c1.311-2.46,2.357-5.066,3.741-7.482
	c4.604-8.038,8.261-16.406,8.988-25.766c0.289-3.714,1.849-4.153,5.064-2.923c2.736,1.048,5.681,2.045,8.67,1.675
	C334.146,751.855,336.229,748.737,334.596,739.364z M332.445,710.615c-0.926,10.146-3.086,20.361,0.248,30.566
	c1.953,5.984-2.715,10.699-9.248,9.712c-8.183-1.233-8.328-1.698-9.525-10.488c-1.253-9.193-5.33-17.593-8.27-26.305
	c-3.823-11.33-7.999-22.482-9.238-34.586c-0.693-6.762,0.899-13.229,0.696-19.887c-0.282-9.273,0.805-18.729-6.849-26.299
	c8.933,2.674,17.213,1.972,25.139-1.416c3.692-1.578,4.805-0.103,6.263,2.794c2.803,5.564,4.442,11.685,8.229,16.796
	c1.361,1.838,0.127,4.12-0.213,6.112c-0.576,3.356-1.598,6.639-2.563,10.478c1.728-0.587,2.959-3.311,4.116,0.706
	C335.249,682.741,333.725,696.597,332.445,710.615z M372.386,657.911c4.058,8.58,5.951,17.352,2.921,26.754
	c-2.658,8.242-6.996,11.541-15.535,12.394c-12.789,1.276-17.08-3.74-21.627-19.745c-2.026-7.141-2.557-14.666-2.111-22.14
	c0.396-6.661-1.023-12.779-4.678-18.366c-2.51-3.836-3.004-7.93-1.785-12.321c1.154-4.163-0.364-8.618,1.423-12.766
	c0.92-2.134,1.733-4.258,4.354-6.833c-2.558,7.806-3.455,15.175,4.178,18.266c7.205,2.918,14.889,1.452,21.213-4.229
	C362.352,632.653,366.534,645.534,372.386,657.911z M393.365,850.481c2.521,3.52,4.649,7.225,7.222,10.644
	C396.556,858.672,395.002,854.503,393.365,850.481z M458.832,840.979c2.582,12.713-10.222,29.517-23.257,30.013
	c-1.496,0.058-2.996,0.008-4.494,0.008C413.003,871,395.968,854.821,396,837.683c0.026-13.895,11.432-24.642,25.489-25.853
	C439.249,810.301,455.702,825.574,458.832,840.979z M428.702,613.327c0.124,1.851,0.213,3.708,0.234,5.581
	c0.582,48.62,1.57,97.236,1.855,145.856c0.075,12.819,1.168,25.574,1.134,38.377c-0.008,3.184-0.053,5.871-4.595,4.204
	c-1.288-0.474-3.108-0.355-4.398,0.181c-5.831,2.419-6.122-1.119-6.01-5.293c0.229-8.484-0.055-17.021,0.818-25.438
	c0.645-6.217-1.291-12.153-0.593-18.339c0.743-6.601,0.675-13.301,0.8-19.961c0.123-6.493,0.034-12.991,0.053-19.487
	c0.02-6.663-0.063-13.329,0.104-19.988c1.016-40.274,2.063-80.551,3.181-120.823c0.033-1.208,0.112-2.418,0.209-3.633l1.338-33.562
	H424C424,541.001,429.327,598.636,428.702,613.327z M423.492,508.61c0.468,10.017,0.828,19.437,0.024,28.498
	C422.593,528.051,423.093,518.63,423.492,508.61z M428.527,410.523c-3.191-1.496-4.29,0.349-4.481,3.123
	c-1.276,18.531-8.026,35.823-12.097,53.722c-0.673,2.957-3.28,5.706-0.443,9.204c0.725,0.893-0.644,5.192-1.787,5.547
	c-2.862,0.887-2.735,3.084-3.238,4.883c-3.536,12.649-7.873,25.025-12.808,37.179c-2.252,5.548-3.397,11.328-4.587,17.108
	c-0.467,2.266-1.934,5.111,1.952,6.466c1.664,0.58,0.622,2.188,0.174,3.443c-8.815,24.72-17.598,49.452-26.846,75.479
	c-2.736-10.937-4.445-20.267-1.153-30.43c5.676-17.519,11.002-35.058,20.146-51.231c5.121-9.054,8.725-18.799,8.652-29.507
	c-0.033-4.683-1.221-9.075-2.727-13.478c-6.152-17.987-7.235-36.478-5.676-55.317c0.875-10.557,0.963-21.271,3.546-31.521
	c3.575-14.185,2.534-28.555,2.922-43.484c14.795,6.806,29.796,5.771,44.817,4.268c3.905-0.392,5.675,0.04,4.225,4.866
	c-2.687,8.936-4.672,18.083-6.8,27.178C431.786,410.307,431.28,411.812,428.527,410.523z M434.47,409.584
	c1.938-10.75,4.456-21.314,8.646-31.422C442.828,389.339,438.317,399.388,434.47,409.584z M444.933,357.117
	c-0.146,0.63-0.603,1.188-0.753,1.816c-1.146,4.79-0.879,10.812-3.757,14.038c-2.808,3.146-9.071,1.267-13.774,1.703
	c-11.682,1.086-23.405,0.768-34.816-4.463c2.066-3.062,5.635-3.288,8.462-6.133c-3.383-0.193-5.536,1.229-7.438,2.561
	c-2.551,1.786-3.002,0.893-4.451-1.515c-6.938-11.508-10.766-24.198-14.912-36.794c-0.312-0.955-0.713-1.82-0.309-3.326
	c3.576,3.854,7.99,4.468,12.723,4c8.559-0.847,16.139,2.124,22.507,7.306c5.634,4.584,11.938,5.895,18.698,6.726
	c3.567,0.438,7.146,1.045,10.617,1.965C442.971,346.391,446.136,351.928,444.933,357.117z M452.188,326.411
	c-1.852,7.73-3.7,15.463-5.551,23.194C439.632,344.077,440.394,340.309,452.188,326.411z M490.362,290.077
	c0.993,1.357,2.686,3.155,1.123,4.79c-3.484,3.645-8.727,4.737-11.936,8.074c-1.479-0.023-2.176-0.38-2.397-1.314
	c-0.275-1.161-0.307-2.348,0.646-3.23c2.893-2.682,5.778-5.372,8.768-7.943C487.643,289.527,489.123,288.385,490.362,290.077z
	 M482.859,283.086c1.117-1.335,2.719-1.61,3.701,0.12c0.799,1.403,2.552,2.922,0.467,4.754c-2.113,1.856-3.876,4.309-6.277,5.595
	c-4.111,2.203-5.362,5.817-6.286,9.827c0.009,0.022,0.023,0.041,0.031,0.064c2.131-0.515,3.334,1.528,5.146,2.074
	c1.786,0.537,4.074,2.557,3.982,4.652c-0.092,2.076-2.707,2.4-4.612,2.867c-1.724,0.423-3.423,0.943-5.607,1.691
	c6.679-0.849,5.85,2.435,4.207,6.354c-4.274,10.199-4.593,21.471-8.55,31.772c-1.415,3.684-3.011,7.243-4.999,10.649
	c-2.807,4.809-6.589,7.987-12.295,9.065c-3.372,0.637-4.289,0.25-3.368-3.255c4.197-15.995,8.274-32.022,12.384-48.041
	c1.424-5.554,2.917-11.091,4.178-16.679c0.775-3.439,1.875-4.879,5.231-2.182c1.062,0.854,2.455,2.516,4.305,1.03l-0.001-0.001
	c-0.018,0.004-0.032,0.005-0.049,0.009c0.006-0.024,0.012-0.049,0.018-0.073c-0.864-2.116-5.206-1.646-4.242-4.524
	c1.188-3.549,1.329-7.726,5.13-10.22C477.93,286.945,480.789,285.557,482.859,283.086z M464.628,276.121
	c1.935-2.038,2.505-1.935,9.197,1.071c-7.47,4.345-10.146,11.148-11.256,18.819c-0.209,1.442-0.972,2.952,1.292,3.145
	c0.004-0.054,0.013-0.106,0.017-0.16c0.062,0.017,0.118,0.026,0.18,0.041c0.188-8.891,3.807-16.039,10.885-21.476
	c2.196-1.688,3.932-1.037,5.497,0.823c1.41,1.676,2.12,3.33-0.224,4.923c-1.771,1.204-3.347,2.718-5.175,3.819
	c-2.897,1.746-4.546,4.146-5.135,7.487c-0.564,3.201-2.154,5.346-5.85,4.423c-0.001,0.046-0.005,0.09-0.006,0.136
	c-0.068-0.003-0.126-0.012-0.189-0.017c-0.508,7.295-3.289,14.05-5.108,21.019c-2.972,11.38-6.367,22.648-9.634,33.95
	c-0.342,1.182-0.356,2.593-2.226,3.821c2.038-8.706,3.87-16.866,5.867-24.984c2.732-11.104,3.603-22.564,6.558-33.647
	c0.605-2.272-1.568-4.872-1.491-7.782C457.992,285.314,460.536,280.432,464.628,276.121z M455.954,289.754
	c-0.3,3.275-2.329,4.54-6.199,4.293c-0.877-0.136-2.878,0.614-2.834-2.487c0.068-4.734,3.944-3.622,6.387-4.437
	C455.002,286.558,456.124,287.906,455.954,289.754z M456.471,274.231c1.294-5.769,2.786-11.492,4.271-17.501
	c0.29,6.09,0.56,11.947,0.853,17.804c0.146,2.904-1.361,4.727-4.087,4.213C455.001,278.275,456.119,275.799,456.471,274.231z
	 M453.184,295.671c2.863-0.52,4.773,1.695,4.053,4.665c-0.692,2.851-1.88,3.904-4.13,1.263c-1.469-1.722-3.637-2.822-4.731-5.389
	C450.259,296.006,451.738,295.934,453.184,295.671z M462.175,216.601c-0.47,19.598-2.487,38.908-7.768,57.805
	c-1.03,3.689,0.711,6.762,1.107,10.178c-1.523,0.422-3.214,0.973-4.939,1.354c-5.495,1.212-7.398,5.505-4.653,10.631
	c1.61,3.006,3.955,5.512,6.812,7.134c2.507,1.424,2.979,2.388,2.562,5.508c-1.191,8.957-5.677,16.054-10.941,22.889
	c-1.741,2.264-3.331,4.436-3.462,7.498c-0.12,2.874-1.395,3.879-4.631,2.938c-4.236-1.232-8.716-2.104-13.11-2.207
	c-5.944-0.14-10.316-3.121-14.722-6.407c-6.434-4.801-13.579-7.561-21.696-6.873c-5.25,0.445-9.562-1.031-13.729-4.288
	c-4.274-3.34-9.042-6.08-13.724-8.863c-4.43-2.635-6.61-6.193-6.332-11.467c0.297-5.634-0.348-11.339,1.396-16.843
	c0.847-2.67,0.255-6.159,5.153-6.062c2.15,0.043,2.236-3.73,3.035-5.787c1.464-3.767,4.393-8.804,1.531-11.644
	c-5.859-5.817-3.295-12.953-4.863-19.333c-3.393-13.795-13.191-23.004-27.053-24.405c-12.894-1.304-28.091,12.152-29.091,25.94
	c-0.275,3.798-1.467,7.547-0.73,11.42c0.113,0.592,0.023,1.746-0.183,1.798c-5.385,1.351-4.376,5.698-4.038,9.279
	c0.423,4.473,1.619,9.232,5.341,11.907c3.943,2.834,4.171,6.725,4.997,10.631c0.201,0.951,0.048,1.979,0.049,2.973
	c0.005,6.33,3.021,13.64-2.208,18.597c-7.986,7.569-16.673,16.514-28.234,15.92c-16.115-0.827-29.336,4.929-42.162,13.005
	c-5.382,3.39-11.378,3.027-17.144,4.152c-2.281,0.446-3.247-0.923-3.724-2.978c-3.635-15.673-7.248-31.353-11.019-46.993
	c-0.91-3.773,1.378-6.695,2.117-9.994c1.658-7.402-0.062-14.516-1.307-21.601c-1.099-6.253-1.123-12.547-1.677-18.8
	c-1.374-15.486-3.087-30.926-4.844-46.369c-0.693-6.097-0.538-12.29-0.752-18.44c-0.011-0.318,0.083-0.896,0.216-0.925
	c4.412-0.919,3.617-4.88,4.915-7.787c1.915-4.289,2.014-9.614-1.165-13.03c-1.004-1.08-1.682-2.03-1.487-3.441
	c0.316-2.295-1.021-3.198-2.873-2.793c-3.117,0.683-3.005-0.994-3.209-3.233c-0.453-4.966-1.087-9.904-1.057-14.91
	c0.018-2.76-1.218-7.497-0.283-7.938c3.772-1.779,7.303-4.384,11.753-4.795c9.938-0.919,19.868-0.018,29.801-0.15
	c72.295-0.961,144.596-0.861,216.896-0.767c5.824,0.008,11.332,1.43,16.255,4.792c1.46,0.997,2.743,2.03,2.593,3.872
	c-0.524,6.44-1.217,12.866-1.748,19.305c-0.155,1.89-1.174,2.374-2.63,1.743c-1.992-0.861-4.156,0.146-4.063,1.443
	c0.318,4.478-4.193,6.996-3.986,11.285c0.119,2.459-2.472,5.384,1.937,6.931c1.618,0.567-1.522,3.075,0.312,4.318
	c7.882,5.344,3.468,12.783,3.383,19.463C462.988,200.33,462.37,208.477,462.175,216.601z M480.703,170.053
	c-5.158,20.187-10.275,40.379-14.798,60.719c-0.382,1.722-1.377,3.306-2.088,4.954c-0.38-8.615,0.154-17.229,0.364-25.863
	c0.335-13.779,1.2-27.546,1.854-41.317c0.055-1.162,0.242-2.318,0.28-3.48c0.133-3.989,1.823-5.714,5.896-4.23
	c0.769,0.279,1.626,0.326,2.449,0.433C481.191,162.116,482.378,163.498,480.703,170.053z M483.461,128.489
	c-3.868,0.891-7.432-0.384-10.909-1.934c-0.007,0.005-0.014,0.008-0.021,0.013c0,0-0.001,0-0.002,0.001
	c2.296,4.491,6.466,4.555,10.672,4.412c2.367-0.081,3.681,0.115,3.113,3.277c-1.018,5.669-0.984,11.488-2.161,17.178
	c-0.469,2.266-1.435,2.627-3.37,2.362c-2.791-0.381-5.601-0.633-8.4-0.933c-1.152-0.123-2.476-0.06-2.469-1.74
	c0.035-7.931-0.038-15.872,1.426-23.713c0.063-0.343,0.777-0.565,1.189-0.844c-0.005-0.011-0.012-0.02-0.018-0.03
	c0.014,0.006,0.025,0.011,0.039,0.017c1.468-1.059,3.728,0.198,5.243-2.117c-1.781-0.305-3.41-0.442-4.95-0.886
	c-1.564-0.45-3.044-1.202-5.347-2.144c5.005-3.553,9.727-5.046,15.497-3.901c-1.01,1.912-3.639,0.637-3.956,2.98
	c0.772,1.6,2.383,0.737,3.366,0.558c4.187-0.763,2.068,4.531,4.921,4.888C486.854,128.006,484.977,128.14,483.461,128.489z
	 M489.923,115.76c-4.8,0.894-9.415-1.588-14.22-0.558c-1.093,0.234-1.054-0.831-0.839-1.738c0.292-1.237,0.017-2.851,1.923-2.912
	c2.441-0.078,4.887-0.019,7.33-0.019c0.001-0.113,0.002-0.226,0.002-0.339c1.812,0,3.625,0.001,5.437,0
	c1.573-0.001,2.483,0.693,2.49,2.352C492.053,114.087,492.013,115.371,489.923,115.76z M509.708,112.897
	c-0.188,1.423-0.928,2.324-2.674,2.302c-3.482-0.046-6.979,0.013-10.449,0.279c-2.132,0.164-2.539-0.796-2.604-2.59
	c-0.067-1.871,0.576-2.784,2.527-2.77c1.661,0.014,3.324-0.144,5.451-0.249c1.531,0.173,3.504,0.543,5.482,0.575
	C509.234,110.475,509.916,111.337,509.708,112.897z"/>
<path d="M223.625,783c0,0,0.375-3.5,2.875-3.25c0,0,8.375-0.375,9.375,0.125c0,0,1.5,1,1.75,3.375l1.25-14.875l-11.75,1.375h-3.875
	l-0.5,12.25"/>
<path d="M416.625,792c0,0,14.375-2.375,15.75,0.5l-0.25-11.625c0,0-14.5,3-15.25-0.125L416.625,792z"/>
</svg>
