<?xml version="1.0" encoding="utf-8"?>
<!-- Generator: Adobe Illustrator 16.2.1, SVG Export Plug-In . SVG Version: 6.00 Build 0)  -->
<!DOCTYPE svg PUBLIC "-//W3C//DTD SVG 1.1//EN" "http://www.w3.org/Graphics/SVG/1.1/DTD/svg11.dtd">
<svg version="1.1" id="OZp03C9Lz26TQk5IsMRRgfZQ99WQX9kN48XRdqDIUx4_xA0_Image_1_"
	 xmlns="http://www.w3.org/2000/svg" xmlns:xlink="http://www.w3.org/1999/xlink" x="0px" y="0px" width="640px" height="960px"
	 viewBox="0 0 640 960" enable-background="new 0 0 640 960" xml:space="preserve">
<g>
	<path d="M394.771,533.007c-3.174,12.392-6.59,24.541-10.365,36.571c-4.278,13.629-9.836,26.896-13.465,40.681
		c-8.062,30.633-15.387,61.463-22.692,92.288c-1.011,4.268-0.036,8.973-0.285,13.457c-0.474,8.503-2.368,16.588-7.478,23.682
		c-3.959,5.494-9.467,7.113-15.76,6.24c-5.951-0.823-11.154-3.924-12.494-9.833c-2.026-8.939-6.573-16.736-9.808-25.376
		c-2.517,7.068-2.581,14.229-2.39,21.413c0.017,0.617,0.146,1.416,0.542,1.812c6.513,6.512,6.572,15.098,7.549,23.372
		c0.458,3.876-0.411,7.52-2.146,11.028c-3.165,6.405-5.786,12.814-4.121,20.38c0.913,4.146-0.101,8.4-1.794,12.539
		c-4.652,11.37-16.879,13.617-26.5,9.971c-6.384-2.421-7.957-7.508-8.521-13.277c-0.904-9.234,2.567-17.521,6.301-25.631
		c3.325-7.223,7.031-14.271,5.186-22.646c-0.067-0.306-0.009-0.696,0.129-0.98c5.066-10.417-0.122-20.021-3.042-29.437
		c-4.995-16.102-8.124-32.118-6.88-49.158c0.761-10.435-1.02-20.691-7.022-30.258c-5.961-9.497-7.638-20.934-9.572-31.9
		c-2.449-13.88-4.671-28.063-2.844-42.039c1.612-12.329-1.486-23.347-5.109-35.811c-0.418,9.302,0.233,17.383,0.446,25.48
		c0.419,15.987,0.119,31.994,0.527,47.981c0.943,36.969,1.669,73.936,1.942,110.915c0.097,13.148,0.81,26.302,1.042,39.462
		c0.116,6.547,1.29,14.365,5.231,18.707c10.262,11.305,7.305,24.433,7.683,37.094c0.365,12.229-0.357,24.484-4.039,36.345
		c-1.042,3.356-2.564,6.46-4.82,9.113c-5.03,5.915-12.427,5.023-16.331-1.657c-4.185-7.164-4.249-15.19-4.766-22.993
		c-1.128-17.01,1.93-33.486,7.078-49.708c3.551-11.19,5.255-22.638,4.976-34.604c-1.122-48.128-1.576-96.271-2.386-144.404
		c-0.488-28.977-1-57.952-1.882-86.916c-0.261-8.572-3.677-16.657-5.824-24.927c-2.561-9.866-4.973-19.759-8.545-29.34
		c-1.175-3.151-2.219-4.078-5.71-2.759c-9.36,3.542-9.744,3.516-14.856-5.229c-6.588-11.271-9.846-23.928-13.868-36.232
		c-2.545-7.789-4.243-15.831-7.047-23.562c-1.882-5.191-1.71-10.789-1.904-16.244c-0.205-5.792-0.834-11.495-1.969-17.18
		c-1.045-5.235,1.967-9.098,5.785-11.624c3.114-2.062,4.323-4.203,4.07-7.662c-0.133-1.823-0.332-3.737,0.062-5.482
		c0.803-3.551,1.471-6.448-4.003-5.627c-2.284,0.343-2.965-1.749-3.054-3.704c-0.619-13.604-1.208-27.213-1.778-40.82
		c-0.02-0.46,0.097-1.145,0.406-1.366c6.938-4.966,2.383-11.449,1.806-17.024c-1.287-12.437-3.578-24.77-5.46-37.146
		c-2.105-13.843-4.327-27.67-6.247-41.539c-0.583-4.208-4.159-6.297-6.035-9.564c-2.621-4.565-3.576-7.839-1.152-12.939
		c2.977-6.266,2.96-13.479,1.303-20.241c-1.399-5.712-0.918-11.507-1.598-17.232c-0.484-4.079-2.738-6.482-5.353-7.633
		c-2.965-1.304-6.092-3.317-9.729-2.833c-2.964,0.395-4.827-0.322-4.466-3.917c0.335-3.346-1.607-7.805,4.312-8.047
		c2.995-0.122,5.999-0.046,8.998-0.029c6.622,0.035,13.184-0.467,19.555-2.395c1.049-0.317,2.29-0.643,2.662,0.336
		c1.298,3.416,4.425,2.636,6.762,2.852c7.089,0.657,14.222,1.146,21.338,1.153c77.656,0.077,155.321,0.658,232.963-0.393
		c18.663-0.252,37.43-1.081,56.15-1.568c3.148-0.082,6.156-0.379,5.588,4.43c-0.433,3.669,1.515,8.286-5.463,7.707
		c-6.125-0.508-9.536,5.456-14.698,7.521c-3.134,1.253-3.952,3.643-4.018,7.062c-0.141,7.425-1.473,14.854-1.248,22.248
		c0.095,3.107,0.067,7.102,3.581,9.613c3.097,2.213,0.548,11.223-2.245,13.611c-3.91,3.346-8.132,6.509-9.031,12.749
		c-4.2,29.13-10.777,57.862-15.041,86.995c-0.479,3.271-2.366,6.318,2.704,7.68c1.258,0.337,1.383,2.754,1.438,4.485
		c0.423,13.508-0.717,26.972-1.012,40.458c-0.036,1.725-0.613,2.709-2.257,3.368c-3.38,1.357-3.762,4.004-0.962,6.301
		c0.877,0.72,1.954,1.209,2.978,1.73c11.167,5.688,13.209,10.389,8.137,21.676c-2.783,6.191-4.743,12.627-6.417,19.063
		c-1.497,5.757-4.521,10.358-7.384,15.312c-5.445,9.424-10.271,19.204-15.405,28.809c-2.658,4.972-5.787,9.563-9.629,13.786
		c-4.39,4.824-7.166,11.473-7.53,17.312c-0.463,7.408-4.163,13.459-5.229,20.478c-2.146,14.104-6.516,27.807-8.467,41.995
		c-0.304,2.21-0.074,4.999-2.839,6.454c-1.849,0.975-0.99,3.021-0.979,4.565c0.489,61.159-0.556,122.31-1.178,183.46
		c-0.163,15.978-0.84,31.961-0.905,47.953c-0.049,11.592,2.467,22.572,7.082,33.097c7.883,17.974,11.729,36.716,10.906,56.335
		c-0.193,4.589-1.621,9.051-6.557,10.655c-5.193,1.688-8.378-1.74-10.984-5.545c-8.547-12.472-12.256-26.776-15.383-41.272
		c-1.602-7.421-2.933-14.966-2.845-22.519c0.063-5.412-0.929-11.67,6.078-14.965c1.688-0.794,2.104-4.94,2.531-7.638
		c1.085-6.859,2.079-13.745,2.223-20.718c1.013-49.453,1.644-98.92,3.246-148.354C393.988,578.254,393.264,555.594,394.771,533.007z
		 M177.056,132.855c-2.669-1.499-5.208,0.388-7.847,0.389c-3.233,0.002-2.716,1.969-1.09,3.837c-2.01,0.731-2.676-2.43-4.762-1.658
		c-0.574,3.248,0.748,6.12,1.54,9.112c0.521,1.967,1.395,0.413,2.106,0.455c1.716,2.005,9.083,1.156,10.217-1.206
		c0.093-0.194-0.215-0.581-0.337-0.878c0.907-0.769,3.167,0.805,2.736-0.229C178.286,139.476,180.451,135.4,177.056,132.855z
		 M462.126,137.067c1.788,0.716,2.362,3.404,4.851,2.982c0.604,2.98,2.882,5.766,5.243,5.399c2.679-0.415,1.547-4.12,1.762-6.463
		c0.072-0.808,0.141-1.724-0.159-2.434c-0.51-1.203-1.339-0.095-2.033-0.046c-2.771-3.766-6.705-1.99-10.336-2.401
		c0.328,1.212,0.587,2.166,0.836,3.113c-1.382,0.309-1.462-2.349-3.277-1.328c0,1.921,0.118,3.898-0.027,5.856
		c-0.222,2.957,2.15,1.955,3.352,2.024c2.062,0.118,1.405-1.822,1.439-2.947C463.815,139.398,461.323,138.938,462.126,137.067z
		 M437.471,360.396c6.941-4.64,13.601-3.095,18.279,4.468c-3.317-0.749-5.752-2.438-8.068-4.571
		c-2.722-2.508-5.517-1.119-8.257,0.333c-1.856,0.985-1.384,2.094-0.789,3.678c3.305,8.796,1.177,15.249-6.412,21.188
		c-4.21,3.295-8.849,6.093-10.208,12.147c-2.941,13.113-6.418,26.105-9.632,39.158c-0.367,1.493-1.379,3.454,1.057,4.096
		c2.297,0.604,2.945-1.021,3.704-2.95c5.104-13.003,10.578-25.863,15.538-38.919c3.644-9.588,9.229-18.633,8.391-29.596
		c-0.277-3.63,1.506-4.722,4.842-2.155c1.889,1.452,4.343,2.171,6.777,3.33c-2.037,0.397-2.563,1.611-2.555,3.273
		c0.026,4.394-1.541,8.435-3.245,12.327c-5.015,11.446-10.379,22.738-15.378,34.188c-2.175,4.981-5.163,9.669-6.749,16.384
		c4.158-5.428,6.81-10.111,9.319-14.933c4.796-9.209,9.909-18.252,14.823-27.398c1.555-2.895,4.243-4.998,5.028-8.479
		c1.768-7.825,3.521-15.706,7.26-22.896c0.998-1.92,0.555-3.013-0.861-4.26c-4.058-3.573-8.994-5.821-13.916-7.43
		c-3.085-1.008-6.415,1.809-9.208,3.799c-2.529,1.804,0.208,3.494,0.299,5.246c-4.216-0.866-1.094-5.626-3.88-7.662
		c-1.603,6.212-3.148,12.05-4.606,17.907c-1.461,5.869-2.833,11.76-4.544,18.895c3.278-2.544,5.36-4.151,7.435-5.771
		c6.215-4.848,7.88-10.644,5.414-18.124C436.773,363.994,435.141,362.079,437.471,360.396z M413.349,404.834
		c2.025-2.43,3.849-4.896,4.45-7.74c3.846-18.143,7.615-36.304,11.171-54.506c3.316-16.979,8.104-33.68,8.989-51.128
		c0.459-9.046,2.046-18.032,3.026-27.057c1.106-10.195,2.027-20.412,3.17-30.604c1.544-13.787,3.46-27.539,4.71-41.352
		c0.425-4.691,3.366-10.576-3.435-13.699c-0.21-0.097-0.296-0.576-0.347-0.892c-1.249-7.776,0.781-14.982,3.948-21.954
		c0.588-1.293,2.184-1.944,3.329-1.467c3.371,1.406,3.354-1.353,3.545-2.974c0.85-7.21,1.652-14.441,2.023-21.688
		c0.338-6.615-2.718-10.515-9.082-11.652c-3.392-0.605-6.812-1.195-10.359-1.191c-79.162,0.09-158.325,0.148-237.487-0.068
		c-7.114-0.02-13.218,2.287-19.486,4.773c-1.526,0.605-1.89,1.513-1.879,3.412c0.048,8.305,1.27,16.474,2.494,24.628
		c0.382,2.543-0.116,6.414,4.489,6.382c1.836-0.012,1.881,1.852,2.107,2.939c0.359,1.729,0.991,2.572,2.632,3.531
		c3.355,1.96,2.755,8.229,0.112,11.319c-2.205,2.577-4.046,6.675-3.988,9.358c0.098,4.538,0.156,9.247,0.689,13.851
		c1.313,11.331,2.636,22.661,3.803,34.007c1.152,11.197,2.438,22.396,3.06,33.628c0.466,8.42,3.97,15.853,6.332,23.664
		c0.398,1.316,1.146,2.699,0.208,3.754c-2.769,3.107-2.207,6.692-1.503,10.128c2.535,12.378,5.272,24.714,7.976,37.057
		c0.305,1.392,0.457,3.137,2.098,3.607c4.117,1.18,3.544,4.677,2.314,6.765c-1.709,2.901-0.92,5.365-0.394,7.986
		c1.587,7.892,3.088,15.815,5.134,23.595c0.968,3.684,0.933,7.797,3.409,11.076c-0.168-3.007,1.235-5.639,1.385-8.445
		c0.933-17.547,11.196-30.613,26.939-35.976c10.388-3.538,20.903-6.888,30.211-13.063c5.321-3.53,9.12-7.495,7.93-14.571
		c-0.491-2.921,0.326-6.088-0.306-8.954c-0.959-4.354-0.729-8.987-5.828-12.025c-6.272-3.735-6.674-14.454-1.503-19.348
		c0.946-0.895,0.816-1.605,0.689-2.583c-0.542-4.177,0.24-8.258,0.862-12.363c1.732-11.437,14.183-22.691,25.221-23.025
		c15.326-0.465,30.421,11.362,29.838,29.389c-0.122,3.777-1.562,8.207,3.831,10.16c1.648,0.598,1.479,2.762,1.033,4.039
		c-1.967,5.636-0.694,13.131-8.645,15.525c-0.594,0.179-0.979,1.701-1.109,2.646c-0.775,5.562-1.418,11.144-2.162,16.709
		c-0.771,5.767,1.799,9.638,6.336,13.014c6.736,5.013,14.234,8.112,22.141,10.609c7.336,2.318,15.021,3.938,21.666,7.925
		c8.729,5.237,12.551,14.139,15.877,23.242c1.465,4.007,1.914,8.661,4.786,11.812C404.839,392.569,409.234,398.521,413.349,404.834z
		 M338.421,338.027c-0.812,6.942-5.411,10.451-11.011,13.069c-10.921,5.106-22.246,4.253-33.44,1.57
		c-7.842-1.878-15.894-4.252-16.375-14.508c-5.208,1.294-7.301,4.752-9.077,9.166c-6.808,16.922-12.579,34.206-18.684,51.376
		c-1.12,3.148-1.191,6.307-0.643,9.316c2.326,12.77,4.789,25.52,7.573,38.194c3.378,15.377,3.401,30.673,0.589,46.142
		c-1.327,7.301-1.543,14.799-2.394,22.19c-0.293,2.547,0.427,3.243,3.097,3.588c4.964,0.642,9.944,0.562,14.888,1.027
		c13.542,1.273,27.083,2.462,40.686,2.864c2.837,0.084,4.648-0.674,6.554-3.206c4.896-6.505,10.399-12.966,18.882-14.519
		c8.019-1.468,16.074-0.933,23.137,6.095c-3.078-12.311-4.621-23.742-5.113-35.235c-0.791-18.479,3.594-36.341,7.438-54.239
		c1.312-6.104,3.437-12.194,3.127-18.435c-0.367-7.408-2.871-14.502-6.023-21.188c-5.257-11.146-11.543-21.881-14.471-33.956
		C345.975,342.455,343.611,339.466,338.421,338.027z M365.986,525.301c-0.174-3.673-1.84-6.189-2.957-8.855
		c-3.65-8.727-12.784-13.066-22.103-10.999c-11.024,2.446-17.271,10.445-22.744,19.248c-1.915,3.081-2.886,6.75-4.595,10.894
		c-1.353-5.162,2.577-8.257,2.777-12.587c-20.529,0.903-40.719-2.616-61.538-3.069c3.012,10.382,6.612,19.981,8.416,29.909
		c1.406,7.734,8.054,14.732,3.845,23.39c-0.158,0.323,0.251,0.922,0.39,1.395c6.161,20.936,12.416,41.843,18.384,62.832
		c0.923,3.247,2.271,2.83,4.085,1.462c3.305-2.492,6.323-5.371,9.676-7.791c3.281-2.368,4.426-5.298,4.49-9.32
		c0.081-5.104,1.134-10.183,1.524-15.291c0.567-7.435,2.541-14.93,1.077-22.31c-1.804-9.094,0.419-17.869,0.826-26.782
		c0.041-0.916-0.016-2.05,1.693-2.823c-2.104,8.624,2.327,14.065,8.547,19.365c0.424-13.518,3.234-25.699,10.232-36.705
		C335.871,524.906,352.955,519.28,365.986,525.301z M327.234,593.367c-6.336,12.051-6.749,25.029-6.021,38.176
		c0.389,7.028,0.072,13.863-4.039,19.994c-2.391,3.566-1.984,7.047-0.442,11.098c1.695,4.455,4.331,5.803,8.642,5.469
		c4.644-0.36,9.416-0.59,11.317-5.875c3.244-9.017,7.774-17.412,13.242-25.148c4.734-6.698,8.404-13.849,11.57-21.282
		c3.708-8.707,6.413-17.996,5.206-27.374c-0.83-6.44,1.104-11.903,2.36-17.731c0.312-1.441,0.967-2.805,1.382-4.228
		c2.655-9.1,4.267-18.258,2.592-27.81c-1.055-6.013-8.72-14.347-14.633-14.566c-9.183-0.342-17.849,2.218-24.429,8.59
		c-9.688,9.378-12.944,21.747-14.032,34.862c-0.545,6.564,1.342,12.062,6.221,17.578c-0.298-3.483-2.112-6.116,0.021-8.936
		c0.479,6.604,2.24,12.916,3.82,19.229C328.184,595.709,328.323,593.896,327.234,593.367z M375.921,548.818
		c0.358-0.886,0.896-1.74,1.05-2.66c1.736-10.334,6.592-19.694,9-29.953c2.752-11.727,6.129-23.439,9.016-35.216
		c0.822-3.348,1.291-6.78,2.149-10.115c0.863-3.351,1.996-6.663,1.922-10.146c-0.076-3.668,3.282-4.453,4.73-6.51
		c2.453-3.479,3.393-8.647,3.294-13.069c-0.058-2.548-4-4.353-6.395-6.318c-9.69-7.963-21.664-13.088-29.332-23.567
		c-0.58-0.792-1.365-1.632-2.496-1.134c-1.139,0.503-0.664,1.715-0.885,2.63c-3.67,15.179-6.852,30.47-8.707,45.964
		c-0.646,5.382-1.935,10.818-1.142,16.357c0.701,4.896,1.062,9.849,1.912,14.717c2.11,12.09,2.239,24.758,8.769,35.669
		C373.171,532.76,376.161,540.196,375.921,548.818z M333.609,288.801c0.469-7.213,0.947-14.429,0.398-21.691
		c-1.17-15.463-15.328-24.912-28.895-23.303c-13.652,1.619-22.932,13.329-23.193,27.205c-0.11,5.902,0.904,11.701,0.906,17.632
		c-0.862-1.561-1.494-3.176-1.769-4.85c-0.178-1.086-0.504-2.308-1.421-2.354c-1.341-0.065-1.537,1.381-1.838,2.485
		c-1.671,6.133,1.392,10.611,4.525,14.916c2.981-0.427-0.848-3.425,2.094-3.588c3.399,15.074,9.159,22.614,19.217,23.628
		c17.513,1.766,26.886-6.722,27.646-24.38c3.305,1.271-0.729,3.767,1.75,4.249c2.32,0.452,2.678-2.109,3.449-3.562
		c1.385-2.605,2.537-5.414,2.461-8.431c-0.043-1.637,1.238-4.252-1.191-4.725c-2.855-0.555-2.534,2.285-3.001,4.124
		C334.516,287.075,333.998,287.922,333.609,288.801z M410.147,413.015c3.192-4.803,1.824-8.946-1.378-12.522
		c-8.242-9.206-14.185-19.511-17.986-31.399c-2.537-7.931-7.987-14.556-16.209-17.671c-7.812-2.96-15.896-5.19-23.793-7.938
		c-3.155-1.099-3.248,0.479-2.51,2.555c2.979,8.352,5.131,17.054,9.957,24.651c3.471,5.463,5.602,11.596,8.598,17.307
		c2.386,4.547,2.343,10.2,2.215,15.527c-0.034,1.417-0.801,3.346,0.568,4.216c3.75,2.385,5.916,6.248,9.119,9.14
		c8.381,7.568,18.795,12.381,26.996,20.182c1.895,1.801,2.807,0.531,3.269-1.514c2.263-10.021,4.574-20.028,6.954-30.413
		C412.956,407.23,413.32,411.043,410.147,413.015z M317.831,646.105c-4.633,2.718-5.923,7.312-8.604,10.834
		c-3.976,5.218-4.501,11.146-2.126,16.903c3.811,9.241,3.763,18.737,3.079,28.351c-0.769,10.815-0.287,21.466,2.801,31.959
		c2.033,6.911,7.27,9.924,13.574,10.567c5.444,0.558,10.521-1.729,13.277-6.939c7.421-14.03,10.133-28.473,2.846-43.484
		c-3.144-6.476-4.986-13.13-4.812-20.459c0.088-3.646,1.757-7.111,0.961-10.859c-4.22,6.017-13.657,8.955-18.983,5.971
		C313.841,665.582,313.126,658.299,317.831,646.105z M262.06,640.711c1.838,4.396,4.46,7.43,5.018,11.581
		c1.11,8.271,1.174,16.561,0.853,24.834c-0.442,11.381,1.316,22.292,4.791,33.127c3.15,9.823,5.646,19.87,8.071,29.905
		c1.781,7.374,1.894,7.747,9.588,7.892c0.831,0.017,1.665,0.031,2.494-0.013c5.795-0.312,7.744-3.167,6.673-8.774
		c-1.143-5.981-1.926-11.9-0.879-18.197c0.936-5.624,3.712-11.441,2.03-17.071c-5.869-19.643-12.317-39.111-18.413-58.688
		c-0.555-1.779-1.21-2.452-2.989-2.315C273.666,643.423,268.174,642.491,262.06,640.711z M267.9,343.228
		c-9.017,3.185-18.113,5.414-26.388,9.823c-7.024,3.743-11.491,9.674-14.75,16.811c-2.032,4.448-2.657,9.122-3.315,13.831
		c-1.148,8.223-3.016,16.35-0.494,24.757c1.835,6.116,2.72,12.514,4.12,18.765c1.168,5.216,2.471,10.402,3.813,16.021
		c2.047-2.286,3.731-4.088,5.327-5.965c8.417-9.896,14.891-20.104,11.536-34.371c-1.313-5.586-0.523-12.174,2.445-19.028
		c0.834,3.22-1.367,5.344,0.519,7.452C256.338,375.256,261.818,359.288,267.9,343.228z M279.208,745.562
		c-0.617,0.981-1.393,1.925-1.193,3.188c1.677,10.605-2.812,19.718-7.198,28.76c-3.519,7.255-4.438,14.836-3.742,22.664
		c0.343,3.854,1.723,7.482,5.755,9.141c6.772,2.781,13.937,3.11,19.917-0.922c5.701-3.845,7.918-10.24,7.422-17.396
		c-0.469-6.771-0.889-13.609,2.8-19.83c3.793-6.397,5.083-13.238,2.953-20.417c-1.404-4.731-1.094-10.14-5.345-14.064
		c2.246,4.982,1.702,9.197-3.146,11.958C292.913,751.217,283.781,750.374,279.208,745.562z M181.426,370.084
		c3.817-7.723,14.64-9.64,20.304-4.912c0.69,0.576,1.129,2.425,2.632,0.92c0.705-0.705,0.628-1.394,0.197-2.229
		c-3.055-5.916-8.298-8.392-14.714-6.521c-1.654,0.482-3.252,0.445-4.865,0.71c-4.39,0.721-6.227,3.271-5.223,7.678
		c1.302,5.717,1.309,11.483,1.265,17.28c-0.015,1.973-0.029,3.899,0.611,5.896c5.099,15.903,8.958,32.191,15.042,47.799
		c2.685,6.889,4.685,14.035,9.815,19.733c0.955,1.06,1.773,1.986,3.118,2.056c8.736,0.442,12.005-4.234,9.193-12.38
		c-8.125-23.536-18.681-46.033-28.835-68.711c-0.869-1.94-2.515-2.278-4.628-3.606c4.65-1.365,8.446-2.479,12.627-3.709
		c-4.036,3.704-4.05,4.792-0.485,11.83c1.029-2.565,2.059-5.133,3.112-7.759c-1.836-0.306-2.479,2.224-4.546,0.989
		c1.028-2.085,3.188-2.612,4.814-3.747c1.93-1.347,2.9-2.339,0.322-4.382C195.628,362.619,188.238,363.267,181.426,370.084z
		 M288.224,312.171c0,3.122-0.103,5.575,0.021,8.019c0.292,5.819-0.07,10.942-6.126,14.468c-4.242,2.469-3.73,7.896,0.462,11.283
		c1.896,1.532,4.148,2.841,6.452,3.613c8.367,2.809,17.049,4.299,25.826,3.319c7.206-0.805,14.237-2.714,19.377-8.588
		c3.72-4.25,3.738-6.608-0.627-10.146c-4.168-3.376-6.508-7.254-5.682-12.86c0.418-2.829,0.073-5.771,0.073-9.217
		C313.605,324.723,301.097,322.792,288.224,312.171z M181.361,167.455c-3.851,0.526-7.125,1.147-10.426,1.369
		c-2.442,0.163-3.192,1.275-2.907,3.481c0.424,3.276,0.773,6.564,1.292,9.825c2.197,13.827,4.525,27.634,6.654,41.471
		c2.562,16.649,5.203,33.294,7.316,50.003c0.717,5.671,3.043,5.854,7.683,4.765c2.857-0.671,4.403-0.915,3.936-4.401
		c-1.449-10.817-2.782-21.656-3.837-32.519c-1.824-18.782-3.171-37.613-5.247-56.365c-0.545-4.926-0.252-9.938-1.479-14.815
		C183.82,168.172,183.301,166.761,181.361,167.455z M445.169,281.881c4.668,1.064,4.443-2.855,4.476-5.201
		c0.072-5.19,1.338-10.196,2.354-15.12c5.934-28.737,10.961-57.635,15.978-86.536c1.131-6.511,0.985-6.536-5.596-7.512
		c-9.773-1.451-9.636-1.379-10.422,8.424c-1.165,14.517-2.49,29.024-4.053,43.503c-2.094,19.416-4.494,38.798-6.724,58.199
		C440.855,280.486,441.423,282.742,445.169,281.881z M308.591,701.072c0.097-7.71,2.039-15.723-1.717-22.83
		c-6.885-13.028-0.317-23.19,7.815-31.452c4.452-4.523,5.394-8.353,5.327-13.654c-0.073-5.828,0.136-11.662-0.06-17.483
		c-0.197-5.905,0.434-11.931,3.298-16.815c3.932-6.709,2.395-11.752-1.521-17.587c-3.654-5.446-9.256-8.778-12.757-14.803
		c-1.613,2.796-1.065,4.781-1.07,6.701c-0.029,9.986,0.75,20.058-0.276,29.939c-1.279,12.313-2.426,24.641-3.643,36.959
		c-0.65,6.575-1.029,13.218-2.315,19.674c-0.685,3.438-0.811,6.573,0.438,9.66c2.795,6.908,3.706,14.005,2.912,21.379
		C304.596,694.715,306.475,697.916,308.591,701.072z M250.12,559.562c-2.121,28.386,0.177,49.163,7.62,71.733
		c2.35,7.125,5.269,9.291,12.765,9.699c1.828,0.1,3.667,0.086,5.483,0.287c3.762,0.415,5.309-0.377,3.972-4.729
		c-5.927-19.3-11.596-38.68-17.296-58.048c-0.833-2.831-1.406-5.521-5.455-4.424c-2.114,0.573-2.324-1.56-2.814-2.793
		C252.86,567.425,251.53,563.479,250.12,559.562z M319.475,109.231c0,0.077,0,0.154,0,0.232c-40.155,0-80.309-0.002-120.464,0.011
		c-0.961,0.001-2.167-0.161-2.832,0.331c-1.439,1.064-1.259,2.55-0.166,3.899c0.259,0.319,0.565,1.78,0.93,0.547
		c0.984-3.324,3.417-1.343,4.928-1.396c7.323-0.257,14.661-0.091,21.993-0.072c5.5,0.015,10.999,0.038,16.499,0.049
		c5.314,0.009,10.629,0.071,15.942-0.012c4.547-0.07,9.059,1.941,13.638,0.204c0.435-0.165,0.997,0.045,1.49-0.01
		c3.333-0.368,6.414,1.555,9.463,1.588c27.49,0.296,54.983,0.214,82.477,0.183c0.877-0.001,2.842,0.688,2.109-1.658
		c0.826,0.001,1.652,0.012,2.479,0.003c18.961-0.182,37.921-0.365,56.882-0.551c5.332-0.052,10.664-0.121,15.997-0.157
		c1.269-0.008,2.365-0.08,2.219-1.816c-0.122-1.445-1.129-1.349-2.131-1.345c-1,0.004-1.999-0.028-2.999-0.028
		C398.444,109.231,358.959,109.231,319.475,109.231z M249.033,420.736c-4.128,8.792-10.587,16.078-16.814,23.532
		c-0.627,0.753-1.513,1.352-0.676,2.515c0.572,0.796,1.085,0.873,2.042,0.513c2.118-0.798,3.195,0.433,3.346,2.378
		c0.941,12.071,5.302,23.346,8.139,34.969c2.295,9.406,5.086,18.69,7.773,28.45C259.492,481.711,259.228,451.117,249.033,420.736z
		 M303.997,688.824c0-1.954,0.194-3.934-0.041-5.858c-0.478-3.922-0.372-8.981-3.114-11.148c-3.537-2.795-0.812-5.444-1.665-7.939
		c-0.08-0.231,0.284-0.586,0.358-0.902c2.434-10.313,2.273-20.898,3.491-31.688c-4.658,1.713-6.881,6.333-10.944,7.971
		c-5.186,2.09-4.28,5.364-3.073,9.352C293.13,662.225,296.944,675.942,303.997,688.824z M358.105,628.724
		c-14.457,16.464-22.474,34.681-16.635,57.888C347.188,666.716,352.635,647.763,358.105,628.724z M213.443,409.062
		c2.353-4.188-1.756-24.394-7.951-40.874c-0.441,0.695-1.047,1.316-1.266,2.054c-1.44,4.849-6.112,8.954-3.82,14.658
		C203.78,393.302,207.91,401.323,213.443,409.062z M246.578,787.553c-5.455,7.972-8.167,48.143-3.925,54.348
		C247.525,824.165,249.879,806.281,246.578,787.553z M422.342,435.491c0.517-1.168,1.003-2.302,1.516-3.424
		c6.911-15.131,13.864-30.24,20.684-45.411c0.716-1.595,2.212-3.986-0.596-5.076c-2.662-1.033-2.817,1.691-3.413,3.181
		c-6.35,15.882-13.139,31.593-18.757,47.766C421.348,433.756,420.934,434.644,422.342,435.491z M201.934,394.206
		c7.854,18.277,15.707,36.555,23.561,54.832c0.397-0.153,0.795-0.307,1.192-0.46c-3.426-13.165-6.852-26.33-10.449-40.154
		c-2.913,3.713,1.865,5.393,0.414,8.297C211.341,409.413,206.719,401.865,201.934,394.206z M164.309,150.521
		c2.079,3.829,0.147,9.854,4.576,9.904c4.088,0.047,10.822,1.564,12.484-3.943c0.759-2.516,0.42-9.759-3.254-9.948
		C174.018,146.321,167.971,145.822,164.309,150.521z M392.318,794.843c1.304,16.299,3.506,32.425,11.268,47.196
		C403.3,825.504,399.177,809.873,392.318,794.843z M205.229,362.198c1.475-1.749,3.535-2.42,1.51-5.113
		c-4.699-6.251-9.478-11.021-17.995-6.312c-1.789,0.988-4.194,0.795-6.219,1.444c-1.704,0.548-3.208,1.477-3.888,3.456
		c-0.343,0.999-0.792,1.748,0.006,2.669c1.052,1.213,1.764-0.104,2.541-0.379C189.987,354.862,198.76,351.738,205.229,362.198z
		 M459.799,155.006c1.772-2.377,2.896-3.154,4.815-2.183c1.135,0.573,2.482,0.922,3.755,0.985c2.495,0.122,4.484-0.338,4.701-3.655
		c0.229-3.518-1.967-3.104-4.09-3.133c-1.326-0.018-2.776-0.362-3.954,0.053c-2.306,0.812-5.391-2.671-6.836,0.829
		c-1.036,2.505-0.907,5.49-1.31,8.26c-0.127,0.875-0.146,1.647,1.026,1.781c4.108,0.471,8.174,1.318,12.359,1.082
		c1.75-0.098,1.559-1.197,1.814-2.316c0.456-1.989-0.91-1.681-1.984-1.691C466.99,154.986,463.881,155.006,459.799,155.006z
		 M462.72,357.501c2.358-2.894,1.041-4.972-1.837-6.639c-2.136-1.237-4.318-2.396-6.414-3.699
		c-6.535-4.062-11.512-3.543-16.971,1.825c-0.97,0.954-2.106,2.031-1.232,3.384c0.901,1.394,2.184,0.267,3.015-0.319
		c4.806-3.387,9.26-2.678,13.928,0.481C456.147,354.523,459.525,355.863,462.72,357.501z M471.381,115.401
		c-7.976-0.953-10.243-0.386-14.797,3.715c2.479,2.498,6.159,1.705,9.339,3.416c-1.393,0.88-3.345,0.301-4.097,2.514
		c3.804,1.482,7.711,1.417,11.552,0.673c0.939-0.183,2.109-0.824,1.204-3.386c-1.566-4.428-5.381-2.461-7.729-3.982
		C467.757,115.994,470.425,117.138,471.381,115.401z M199.642,309.524c0.055,10.596-1.456,21.415,1.909,31.887
		c0.534,1.66,1.339,2.659,3.157,2.4c2.117-0.3,1.301-1.479,1.023-2.854C203.617,330.496,201.652,320.006,199.642,309.524z
		 M159.7,115.525c4,2.171,3.393,8.121,8.636,7.876c3.829-0.18,7.14-2.236,10.914-3.814c-2.318-1.358-4.125,0.398-6.564,0.062
		c0.962-1.051,1.489-1.626,2.016-2.205c-1.44-0.991-3.181,0.801-4.829-0.618c3.825-3.675,8.165-0.513,12.109-1.218
		C174.87,113.193,167.76,113.438,159.7,115.525z M153.605,114.258c0.971-0.201,1.792-0.314,2.579-0.545
		c1.976-0.58,4.285-0.688,3.84-3.887c-0.409-2.939-2.499-2.635-4.419-2.661c-3.128-0.045-6.258,0.098-9.387,0.075
		c-2.349-0.018-3.283,1.234-3.163,3.385c0.102,1.832,0.752,2.846,3.036,2.918C148.632,113.622,151.293,113.137,153.605,114.258z
		 M453.148,113.762c0-0.05-0.001-0.101-0.001-0.151c1.823,0,3.658-0.128,5.471,0.027c3.379,0.289,2.516-2.724,2.985-4.204
		c0.723-2.273-1.455-2.066-2.896-2.015c-3.815,0.137-7.627,0.368-11.44,0.55c-1.677,0.08-2.265,1.012-2.281,2.604
		c-0.019,1.634,0.121,3.097,2.188,3.174C449.163,113.82,451.156,113.762,453.148,113.762z M191,337.294
		c0,0.697-0.065,1.043,0.011,1.354c0.431,1.749-1.181,4.343,1.276,5.136c1.912,0.617,4.587,1.046,6.188-0.314
		c1.765-1.5-0.213-3.626-0.529-5.454c-0.414-2.388-1.332-4.684-1.84-7.061c-0.319-1.49-0.281-3.029-2.423-2.983
		c-2.082,0.045-1.488,1.738-1.851,2.867C191.116,333.062,190.855,335.336,191,337.294z M163.387,133.15
		c4.3-0.982,8.414-2.078,12.696-2.269c2.026-0.091,2.923-1.146,2.361-3.329c-0.485-1.888-0.95-2.543-3.244-1.843
		c-2.265,0.69-4.965,0.589-7.344,0.141c-4.819-0.906-5.443,1.521-4.842,5.301C163.114,131.779,163.246,132.401,163.387,133.15z
		 M176.88,108.886c0.153-1.51,0.199-3.55-1.059-4.069c-1.624-0.671-3.265,0.893-4.729,1.778c-2.521,1.527-2.689,1.73-3.036,1.068
		c-1.694-3.239-4.087-0.882-5.846-0.459c-1.679,0.402-0.539,2.575-0.625,3.952c-0.046,0.743,0.324,1.979,1.368,1.384
		c2.843-1.622,6.347,0.738,8.454-0.788C173.19,110.46,177.534,114.076,176.88,108.886z M186.1,108.006
		c-0.001-0.043-0.002-0.086-0.003-0.13c-1.642-0.117-3.291-0.178-4.924-0.37c-1.472-0.173-2.648-0.043-2.91,1.744
		c-0.23,1.569-0.206,3.069,1.762,3.402c3.869,0.656,7.696,1.512,11.711,0.97c2.146-0.29,2.166-1.486,2.281-3.05
		c0.138-1.875-0.49-2.729-2.475-2.593C189.735,108.104,187.914,108.006,186.1,108.006z M488.972,113.096
		c2.651-0.138,4.457-0.292,6.264-0.307c1.512-0.011,2.575-0.405,2.71-2.126c0.122-1.582-0.471-2.33-2.143-2.633
		c-3.779-0.687-7.561-0.475-11.342-0.322c-2.266,0.092-2.344,1.817-2.418,3.573c-0.097,2.282,1.547,2.245,2.966,2.239
		C486.605,113.515,488.203,113.187,488.972,113.096z M470.619,112.996c0,0.03,0,0.061,0,0.091c2.479,0,4.962,0.065,7.438-0.023
		c1.655-0.06,2.211-1.272,2.262-2.734c0.047-1.354-0.721-2.398-1.992-2.403c-4.453-0.017-8.916,0.041-13.356,0.343
		c-1.878,0.127-2.094,1.886-1.98,3.45c0.135,1.877,1.675,1.169,2.658,1.243C467.296,113.087,468.961,112.996,470.619,112.996z
		 M462.387,349.059c-1.786-3.447-13.972-10.388-16.974-10.03c-3.082,0.366-9.141,5.7-10.014,9.188
		c1.616-0.966,3.09-1.604,4.27-2.591c4.962-4.149,9.901-4.427,15.045-0.343C456.874,346.996,459.388,348.054,462.387,349.059z
		 M460.512,126.494c-2.136,5.84,0.904,6.847,5.516,6.529c1.973-0.136,3.973-0.129,5.941,0.026c2.172,0.172,2.461-1.271,2.578-2.78
		c0.159-2.052-1.225-1.894-2.646-1.688C467.854,129.167,464.096,128.141,460.512,126.494z M209.567,356.391
		c-1.868-5.134-5.4-7.75-7.912-11.034c-0.381-0.497-2-0.454-2.831-0.123c-2.093,0.837-4.248,0.557-6.371,0.805
		c-3.713,0.434-7.209,1.524-10.088,4.04c4.403-0.655,8.67-1.667,12.925-2.722c3.326-0.824,6.069-0.688,7.829,3.016
		C204.206,352.654,205.493,355.114,209.567,356.391z M407.77,457.369c0.435,0.156,0.866,0.312,1.3,0.469
		c1.862-4.448,3.717-8.9,5.593-13.343c0.6-1.42-0.508-1.672-1.375-2.093c-1.37-0.665-2.016-0.292-2.403,1.268
		C409.749,448.221,408.021,452.641,407.77,457.369z M440.574,326.483c-0.862,2.763-1.507,5.094-2.322,7.362
		c-0.825,2.296,1.513,2.624,2.3,3.903c0.283,0.462,0.837,1.099,1.596,0.484c1.435-1.164,0.316-2.425,0.094-3.621
		C441.763,332.062,441.203,329.524,440.574,326.483z M209.491,351.672c1.242-2.304,3.523-4.596,0.97-7.004
		c-1.578-1.487-4.285,0.148-4.55,1.263C205.309,348.461,207.469,350.164,209.491,351.672z M440.013,339.577
		c-1.108-0.974-1.625-2.364-3.314-2.543c-1.916-0.202-3.23,0.499-3.654,2.479c-0.421,1.968,0.84,3.828,2.196,3.897
		C437.183,343.512,438.166,341.127,440.013,339.577z"/>
	<path d="M355.805,601.843c0.963-6.2,2.838-12.138,5.682-17.784c2.592-5.146,1.949-10.637,0.871-15.965
		c-0.489-2.418-1.514-5.038-4.728-5.772c4.329,0.183,6.745,3.354,7.304,9.415c0.444,4.816,0.074,9.525-2.428,13.943
		C359.632,590.754,358.484,596.566,355.805,601.843z"/>
	<path d="M177.094,143.09c-2.717-0.328-5.481-4.236-8.138,0.104c1.33-2.376,0.817-4.445-1.049-6.288
		c4.317,3.487,5.43-1.946,8.143-2.925c0.005,0.162,0.082,0.401,0.004,0.474C172.417,137.819,173.37,140.619,177.094,143.09z"/>
</g>
</svg>
