<?xml version="1.0" encoding="utf-8"?>
<!-- Generator: Adobe Illustrator 16.2.1, SVG Export Plug-In . SVG Version: 6.00 Build 0)  -->
<!DOCTYPE svg PUBLIC "-//W3C//DTD SVG 1.1//EN" "http://www.w3.org/Graphics/SVG/1.1/DTD/svg11.dtd">
<svg version="1.1" id="mQh9XH3LznxSsT3vvfSR3oVnryeGmsWerJ1G-Q_x5F_IzJY_xA0_Image_1_"
	 xmlns="http://www.w3.org/2000/svg" xmlns:xlink="http://www.w3.org/1999/xlink" x="0px" y="0px" width="640px" height="960px"
	 viewBox="0 0 640 960" enable-background="new 0 0 640 960" xml:space="preserve">
<g>
	<path d="M399.415,567.182c-0.472,4.074-1.135,8.138-1.35,12.225c-0.157,2.997-0.755,5.141-4.192,5.678
		c-2.705,0.423-3.448,2.536-3.905,5.048c-3.776,20.739-7.715,41.45-11.506,62.188c-3.552,19.432-7.014,38.879-10.463,58.329
		c-3.625,20.44-7.546,40.838-10.677,61.354c-3.133,20.536-7.822,40.828-9.504,61.607c-0.312,3.853-0.262,7.526,0.428,11.188
		c3.038,16.164-8.428,27.072-24.446,23.857c-10.308-2.068-16.364-4.737-13.829-22.186c1.022-7.037-0.896-13.769-2.02-20.56
		c-2.09-12.636-3.807-25.355-7.464-38.44c-1.217,5.942-1.941,11.271-4.064,16.236c-3.406,7.968-10.181,11.076-20.173,9.22
		c-6.561-1.219-11.898-8.104-12.28-15.427c-0.537-10.302,3.647-19.326,7.54-28.395c2.25-5.239,4.056-10.445,3.507-16.241
		c-0.109-1.155-0.425-2.565,0.07-3.462c5.677-10.283,0.21-19.759-2.11-29.393c-2.495-10.356-6.174-20.405-8.278-30.881
		c-1.2-5.973-0.624-11.889-0.132-17.868c0.862-10.479,0.803-20.611-5.606-30.049c-5.021-7.394-5.628-16.69-7.912-25.219
		c-4.119-15.379-4.084-31.153-4.061-46.912c0.003-2.229,0.649-4.665-2.03-6.12c-0.546-0.297-0.909-1.439-0.896-2.184
		c0.176-10.22-3.319-19.804-5.358-29.604c-1.004-4.828,0.772-10.038-2.511-14.495c1.733,15.521,0.15,31.094,1.228,46.615
		c0.208,2.989,0.486,5.979,0.563,8.971c0.706,27.299,1.278,54.603,2.082,81.898c0.872,29.623,1.504,59.266,3.127,88.851
		c0.783,14.27,4.235,28.286,7.159,42.341c3.934,18.911,5.041,38.102-1.33,56.924c-0.577,1.703-1.406,3.37-2.389,4.878
		c-3.61,5.54-10.245,5.459-13.723-0.129c-3.524-5.663-3.695-12.244-4.872-18.524c-2.622-13.991-2.404-28.094-0.973-42.175
		c0.598-5.885,1.824-11.584,4.879-16.966c3.349-5.897,4.71-12.923,4.797-19.449c0.237-17.799-0.724-35.613-1.24-53.421
		c-0.053-1.828-0.413-3.648-0.45-5.478c-0.701-35.301-1.63-70.601-1.937-105.905c-0.136-15.67-1.372-31.306-1.088-46.972
		c0.175-9.66,0.653-19.312,0.958-28.972c0.061-1.945,0.487-4.09-1.995-5.092c-1.202-0.485-0.982-1.62-0.974-2.572
		c0.108-13.399-4.706-25.854-7.469-38.697c-1.034-4.805-2.615-9.496-4.034-14.213c-0.51-1.692-0.407-2.361,1.252-3.861
		c3.164-2.86,0.984-7.305-0.708-9.75c-8.732-12.623-14.274-27.124-23.687-39.332c-4.083-5.297-4.317-11.96-3.15-18.11
		c1.523-8.026,1.541-16.147,2.631-24.184c0.41-3.021,1.544-5.478,4.1-6.183c4.029-1.112,3.393-3.906,2.935-6.438
		c-0.642-3.547-1.843-6.995-2.841-10.477c-2.014-7.021-2.021-6.966-9.25-6.523c-2.323,0.143-4.42-0.708-4.709-3.326
		c-1.111-10.039-2.112-20.09-3.055-30.146c-0.217-2.31,0.011-4.643-0.634-6.938c-0.619-2.202-0.25-5.322,1.179-6.06
		c4.44-2.287,2.977-5.651,2.372-8.81c-4.516-23.574-9.137-47.129-13.719-70.69c-0.72-3.705-2.195-7.472-1.94-11.112
		c0.444-6.337-4.366-9.526-7.261-13.688c-2.917-4.192-4.66-7.809-1.451-12.404c0.747-1.069,0.345-2.23,0.125-3.354
		c-0.187-0.948-1.091-2.289-0.173-2.79c5.511-3.007,2.239-7.752,2.424-11.735c0.277-5.951-0.688-11.894-1.247-17.777
		c-1.132-11.94-2.238-10.585-14.022-13.944c-2.779-0.792-6.341,0.08-6.079-5.093c0.365-7.209-0.031-7.494,7.454-7.274
		c8.549,0.252,16.909-0.798,25.245-2.432c0.642-0.126,1.608-0.354,1.94-0.034c5.691,5.487,13.152,3.531,19.503,3.603
		c55.991,0.625,111.99,0.56,167.986,0.749c23.996,0.081,47.998,0.075,71.986,0.601c4.973,0.109,9.371-1.547,14.035-2.241
		c13.007-1.935,25.899,0.623,38.837,0.166c1.165-0.041,2.345,0.081,3.498-0.042c7.601-0.812,9.659,1.718,7.95,9.365
		c-0.447,2.003-1.766,1.806-2.924,1.827c-7.506,0.14-12.448,5.626-18.475,8.814c-1.312,0.694-2.705,1.761-2.679,3.866
		c0.111,8.614-1.271,17.136-1.759,25.699c-0.206,3.621-0.527,7.959,4.035,10.706c3.023,1.82,0.332,10.756-3.305,11.685
		c-1.418,0.362-1.76,0.88-2.091,2.163c-0.484,1.883-1.028,3.95-3.725,3.964c-1.805,0.009-1.892,1.451-2.122,2.816
		c-5.378,31.816-10.754,63.634-16.248,95.431c-0.291,1.685-0.933,2.571,1.439,3.007c3.58,0.657,4.169,3.732,3.717,6.603
		c-1.966,12.496-2.719,25.066-2.934,37.691c-0.063,3.796-2.647,4.925-5.783,4.329c-4.973-0.94-6.535,1.521-7.158,5.848
		c-0.797,5.527-2.021,10.994-2.896,16.514c-0.27,1.695-0.853,4.36,1.674,4.493c7.237,0.379,8.303,5.804,9.032,10.972
		c0.738,5.233,2.335,10.317,2.766,15.537c0.504,6.13-0.812,12.261-3.697,17.631c-6.482,12.062-11.698,24.763-18.697,36.558
		c-1.521,2.564-2.838,5.063-5.509,6.806c-3.008,1.962-3.78,11.377-1.409,13.832c0.886,0.918,0.56,1.688,0.218,2.667
		c-4.434,12.709-4.642,26.23-7.515,39.243c-1.458,6.603-1.506,13.667-3.383,19.912c-5.835,19.414-0.614,38.647-0.772,57.931
		c-0.114,13.994,0.633,28.031-0.222,41.975c-0.824,13.476-0.979,26.975-1.36,40.431c-0.72,25.448-2.616,50.832-3.545,76.266
		c-0.352,9.646-0.397,19.29-0.727,28.931c-0.086,2.512,0.29,3.785,3.35,4.872c17.087,6.072,26.695,18.536,29.695,36.359
		c2.941,17.479-3.571,31.093-17.02,41.714c-7.834,6.188-16.911,6.315-26.435,4.653c-18.931-3.306-28.567-16.644-32.549-33.524
		c-4.829-20.475,5.541-39.904,18.05-45.646c7.6-3.488,8.225-8.029,8.034-14.89c-0.492-17.794,2.157-35.413,3.733-53.093
		c1.25-14.036,2.057-28.111,3.168-42.16c1.217-15.381,2.966-30.73,3.729-46.133C398.528,598.888,400.915,583.214,399.415,567.182z
		 M178.004,137.009c1.883-1.379,1.247-8.419-0.92-10.192c-2.631-1.826-5.206-0.532-7.789,0.144
		c-1.279,0.335-3.624-0.787-2.996,2.177c-2.308-0.521-3.595,0.187-3.021,2.736c0.553,2.459,1.279,4.878,1.97,7.469
		c1.54-1.155,2.126-2.897,3.823-3.371c0.422,1.619-1.977,2.188-1.322,4.335C171,138.542,175.279,140.638,178.004,137.009z
		 M465.047,135.106c0.34-0.15,0.679-0.302,1.02-0.452c1.052,0.769,2.203,1.435,3.129,2.333c1.033,1.002,2.04,2.985,3.489,1.679
		c2.327-2.096,1.305-5.262,1.212-7.953c-0.084-2.511-2.061,0.148-2.911-0.707c-0.112-0.608,0.99-1.6,0.286-1.621
		c-3.414-0.103-6.995-1.737-10.219,0.755c-0.875-0.266-1.977-0.979-2.016,0.772c-0.054,2.404-0.013,4.812-0.013,7.596
		C461.312,136.597,463.179,135.852,465.047,135.106z M217.959,348.111c-0.669-1.615-1.998-2.249-3.591-1.987
		c-5.172,0.849-10.525,0.96-15.299,3.541c-2.983,1.033-3.118,3.54-3.056,6.071c0.15,6.161-0.872,12.178-1.849,18.231
		c-0.833,5.169-1.721,10.361-0.13,15.683c1.337,4.471,4.797,7.426,7.018,11.244c5.764,9.914,10.736,20.303,17.708,30.438
		c0.088-1.447,0.255-2.077,0.143-2.653c-3.634-18.686-8.87-37.047-11.337-55.977c-0.191-1.464-0.721-2.923,0.943-3.157
		c3.248-0.457,5.798-2.706,9.45-3.5c-1.2,1.943-4.192,2.332-2.876,4.923c0.783,1.541,1.958-0.904,2.872,0.155
		c-1.109,1.726-2.704,3.114-2.004,5.669c1.43,5.219,2.615,10.51,3.737,15.806c0.506,2.389,2.037,3.548,3.977,4.712
		c4.268,2.561,4.983,2.207,5.356-2.877c0.284-3.856-0.606-7.506-1.333-11.25c-1.167-6.014-1.777-12.151,1.258-17.915
		c4.651-8.831,11.317-15.435,21.105-18.298c11.169-3.269,21.416-8.355,30.946-14.997c2.41-1.68,4.421-3.322,4.278-6.674
		c-0.22-5.157,0.042-10.344-0.37-15.479c-0.246-3.071-0.622-8.148-2.253-8.749c-7.666-2.818-6.369-9.52-8.015-15.06
		c-0.744-2.503,0.002-5.251,1.675-5.56c4.458-0.821,3.025-3.479,2.796-6.031c-0.268-2.997,0.35-5.92,0.709-8.891
		c1.695-14.007,13.673-22.83,24.444-23.477c13.653-0.819,25.227,7.78,28.944,20.697c1.335,4.64,0.357,9.259,0.822,13.859
		c0.117,1.159-0.795,2.872,1.168,3.306c4.039,0.891,4.158,4.234,3.66,6.997c-0.858,4.749-1.448,10.341-6.006,12.824
		c-2.096,1.142-2.34,1.966-3.059,3.783c-2.686,6.792-1.396,13.809-1.835,20.725c-0.177,2.792,0.745,4.938,2.981,6.385
		c9.103,5.879,17.849,12.453,28.936,14.408c20.091,3.544,32.146,15.366,36.136,35.393c0.497,2.492,1.664,4.755,3.44,6.453
		c5.551,5.304,10.437,11.088,13.79,18.125c5.165-4.689,6.559-8.549,7.76-19.381c0.395-3.556-3.135-3.425-4.294-5.428
		c-0.242-0.418-0.708-0.943-0.609-1.287c1.333-4.618,0.441-9.241,0.47-13.877c0.021-3.895,1.494-7.393-2.823-9.956
		c-1.051-0.623-2.058-2.175-1.104-3.895c0.822-1.479,2.177-1.414,3.474-1.26c2.058,0.245,4.009-0.942,5.839-0.763
		c4.011,0.396,4.104-1.609,4.134-4.671c0.035-3.955,0.632-7.91,1.085-11.854c1.591-13.841,5.854-27.382,3.941-41.622
		c-0.752-5.597,2.3-10.776,3.508-16.089c3.17-13.944,4.41-28.329,6.372-42.545c2.277-16.506,4.52-33.016,6.744-49.528
		c0.344-2.55,1.7-6.166,0.54-7.486c-3.25-3.694-3.404-7.974-4.33-12.245c-0.918-4.231,2.969-6.485,3.635-9.945
		c0.562-2.913,1.729-4.591,4.896-4.175c2.444,0.321,3.305-1.167,3.476-3.187c0.725-8.559,1.372-17.124,2.061-25.687
		c0.15-1.879,0.221-3.818-1.639-4.897c-5.456-3.168-11.244-5.256-17.679-5.245c-30.646,0.047-61.29-0.038-91.936,0.099
		c-49.8,0.221-99.599,1.34-149.4,0.571c-6.178-0.096-10.931,3.358-16.531,4.5c-1.41,0.287-1.121,1.73-1.144,3.19
		c-0.128,8.166,1.57,16.121,2.278,24.181c0.294,3.348-0.636,7.117,4.34,7.956c0.656,0.11,1.542,1.548,1.539,2.368
		c-0.008,2.25,0.794,2.841,3.049,3.4c3.013,0.748,3.983,9.206,1.511,11.075c-3.688,2.787-4.288,7.366-4.204,10.932
		c0.292,12.364,2.665,24.572,4.797,36.752c3.681,21.028,2.919,42.887,11.189,63.031c2.438,5.94,0.004,11.576,0.703,17.303
		c1.698,13.923,3.411,27.844,5.206,41.755c0.289,2.239,1.011,6.316,1.567,6.321c3.695,0.039,7.017,1.933,10.634,1.814
		c1.717-0.058,3.522-1.337,4.972,0.617c1.408,1.898,0.811,3.771-0.167,5.565c-2.589,4.758-3.248,10.155-4.934,15.209
		c-0.854,2.559-1.886,4.045-4.357,4.645c0.089-2.256,3.773-2.386,2.785-5.692c-1.434-4.798-4.57-5.13-8.428-4.388
		c-2.828,0.544-5.481,2.078-8.531,1.258c5.363-0.851,10.204-5.09,16.676-1.93c-2.115-3.159-2.19-7.742-7.187-6.449
		c-5.033,1.304-10.597,0.721-14.973,4.406c2.553-3.032,2.553-3.032,11.189-5.06c6.859-1.609,8.442-0.859,11.412,5.393
		c0.352,0.741,0.708,1.506,1.944,1.344c1.021-1.754,0.64-3.304-0.768-4.771C219.953,353.326,218.733,350.836,217.959,348.111z
		 M421.018,359.034l-0.091-0.104c0.675,3.313-4.56,4.896-2.828,8.504c7.303-3.361,13.365,1.888,19.981,1.96
		c-3.918,1.284-7.432-0.273-11.082-1.222c-6.02-1.561-6.812-0.958-8.841,5.729c5.588-0.041,10.566,1.983,15.459,4.373
		c-3.501-0.446-6.915-1.262-10.24-2.35c-2.175-0.711-4.222-1.409-5.343,1.312c-1.298,3.148,1.616,3.345,3.306,4.282
		c3.969,2.204,10.649,1.726,9.098,9.347c-0.053,0.259,0.646,0.7,1.031,1.013c0.421,0.343,1.396,0.918,0.133,1.038
		c-3.558,0.338-2.276,3.004-2.623,4.907c-1.232,6.803-2.519,13.597-3.69,20.409c-1.207,7.012-2.306,14.042-3.614,22.063
		c3.4-2.347,4.486-4.963,5.849-7.349c6.62-11.596,11.745-23.948,18.149-35.672c3.057-5.596,4.279-12.28,3.166-18.782
		c-0.94-5.496-2.124-10.96-3.097-16.462c-0.399-2.258-0.763-5.284-3.721-5.933c-5.437-1.189-10.698-3.324-16.411-3.137
		c-4.241,0.141-4.949,3.606-6.312,6.488C419.871,359.312,420.444,359.174,421.018,359.034z M276.777,336.59
		c-3.916,2.33-7.474,3.503-8.701,7.781c-2.635,9.191-6.632,17.869-10.485,26.607c-3.436,7.791-7.732,15.291-7.899,24.258
		c-0.334,18.001,2.899,35.567,5.748,53.213c1.366,8.457,3.327,16.911,2.365,25.604c-1.291,11.671-2.438,23.36-3.975,34.999
		c-0.382,2.896,0.97,3.563,3,3.868c7.343,1.102,14.679,2.409,22.069,3.002c14.443,1.158,28.945,1.562,43.421,0.988
		c10.57-0.42,21.189-0.731,31.63-2.905c3.856-0.804,5.743-2.587,5.084-6.775c-1.13-7.178-2.698-14.374-2.894-21.595
		c-0.49-18.062-0.018-36.139,5.574-53.576c6.443-20.094,6.305-39.689-4.51-58.288c-5.256-9.037-9.273-18.551-11.921-28.525
		c-1.378-5.192-4.677-6.904-8.722-8.706c-0.939,2.885,0.086,5.896-2.533,8.123c-4.198,3.564-8.377,6.9-13.833,8.517
		c-11.225,3.322-21.96,1.268-32.43-2.771C281.899,348.146,276.706,344.751,276.777,336.59z M359.716,514.076
		c-2.712,0.738-4.905,1.34-7.103,1.933c-8.424,2.274-17.105,1.751-25.682,2.37c-20.122,1.454-40.204,0.724-60.104-2.327
		c-13.929-2.136-14.849-2.06-15.221,9.175c-0.032,0.975,0.132,1.991,0.402,2.934c2.581,8.988,3.243,18.471,7.029,27.152
		c1.738,3.985,3.534,7.983-0.614,11.805c-0.601,0.554-0.435,2.251-0.214,3.336c4.567,22.395,9.238,44.769,13.758,67.172
		c0.614,3.043,2.24,3.626,4.913,3.357c9.758-0.979,17.296-6,23.852-12.889c0.993-1.043,1.17-2.234,1.303-3.611
		c1.748-18.193,3.18-36.399,2.966-54.698c-0.01-0.832,0.011-1.666,0.02-2.499c0.009-0.908,0.369-1.755,1.23-1.953
		c0.915-0.21,1.334,0.689,1.881,1.318c0.994,1.143,0.729,2.481,0.884,3.783c1.441,12.051,0.082,24.239,1.946,36.278
		c1.391,8.979,2.403,18.019,3.687,27.017c0.221,1.547,0.038,3.7,2.118,4.146c6.257,1.336,12.408,3.727,18.938,3.002
		c6.886-0.764,13.741-1.845,20.584-2.951c2.353-0.38,4.862-0.865,5.448-3.937c2.441-12.814,4.751-25.627,5.303-38.72
		C368.191,567.948,363.809,541.164,359.716,514.076z M343.359,824.006c0.17-2.938,1.168-5.445,1.646-8.029
		c3.9-21.045,7.901-42.071,11.736-63.129c3.185-17.485,6.169-35.008,9.275-52.508c3.193-18.001,6.156-36.05,9.723-53.978
		c3.755-18.884,5.459-37.937,6.355-57.118c0.146-3.116-1.229-5.819-0.593-9.203c3.293-17.467,7.919-34.625,11.674-51.979
		c0.952-4.4-0.231-9.043,0.769-12.774c4.88-18.216,8.096-36.645,10.337-55.328c0.276-2.308-1.693-7.008,3.953-7.537
		c2.006-0.188,2.247-9.333,0.39-10.523c-10.327-6.615-18.406-16.103-28.838-22.571c-4.869-3.021-8.205-7.722-12.992-12.523
		c0.598,7.245,0.203,13.188-1.85,18.874c-6.447,17.867-7.463,36.59-7.616,55.218c-0.091,10.969,2.257,21.984,3.847,32.931
		c3.067,21.107,7.042,42.12,7.094,63.547c0.03,12.956,0.715,26.007-1.699,38.809c-3.073,16.307-7.547,32.386-9.867,48.781
		c-1.442,10.194-2.584,20.64-1.001,31.22c1.909,12.759,2.567,25.616-0.446,38.515c-3.701,15.841-8.145,31.48-12.799,47.027
		c-4.116,13.753,1.382,27.106-0.07,40.622C342.331,822.857,343.018,823.45,343.359,824.006z M321.343,696.333
		c-4.021,17.33-4.141,34.195-1.562,51.279c2.055,13.62,2.312,27.379-1.06,40.946c-1.432,5.766-0.316,7.507,5.229,6.276
		c4.993-1.106,9.432-0.99,13.72,2.027c0.292-1.983,0.371-3.656,0.796-5.236c3.878-14.422,7.74-28.85,11.757-43.234
		c3.922-14.044,7.413-28.017,4.959-42.896c-0.935-5.659-2.469-11.533-1.932-17.19c1.432-15.065,1.109-30.406,6.297-44.987
		c1.465-4.117,0.451-4.728-4.037-3.973c-7.318,1.231-14.557,2.846-22.1,2.77c-6.196-0.063-11.957-2.051-18.66-3.109
		c2.542,20.621,2.583,41.228,9.904,61.485C322.264,699.393,322.292,697.896,321.343,696.333z M283.955,294.717
		c-0.515,14.087,6.732,22.701,19.719,23.989c16.977,1.683,25.441-8.141,26.105-25.545c1.939,2.347,0.287,4.604,2.527,6.117
		c3.043-4.067,4.754-8.365,4.738-13.265c-0.005-1.41,0.607-3.174-0.833-4.199c-2.104-1.499-1.86,2.499-4.062,1.668
		c-0.293-2.314,0.115-4.677,0.396-7.117c1.102-9.57-0.175-18.526-7.997-25.288c-9.215-7.966-17.168-9.962-27.677-5.687
		c-9.932,4.04-15.792,13.234-15.906,24.127c-0.065,6.222,0.206,12.418,0.771,18.666c-1.006-1.562-1.597-3.223-2.342-4.812
		c-0.388-0.827-0.53-2.256-1.805-2.013c-1.278,0.244-1.602,1.493-1.58,2.723c0.069,3.996,0.674,7.85,2.775,11.364
		c0.717,1.198,0.763,3.267,2.332,3.348C283.433,298.914,281.562,295.927,283.955,294.717z M417.486,403.449
		c-5.5,5.554-8.712,10.597-10.09,17.963c-1.152-5.618,1.123-9.001,3.308-12.196c1.354-1.979,1.29-3.43,0.293-5.38
		c-2.755-5.386-6.471-10.013-10.826-14.146c-3.344-3.176-5.231-6.933-6.287-11.5c-3.206-13.89-10.823-24.401-24.81-29.069
		c-7.49-2.501-15.428-3.534-23.189-7.13c3.131,11.046,6.285,21.292,12.284,30.235c2.79,4.16,3.334,9.35,7.44,13.097
		c1.73,1.58,1.527,6.741,1.199,10.03c-1.021,10.216,5.407,15.874,12.047,21.445c4.914,4.123,10.039,8.033,15.341,11.643
		c4.718,3.213,7.771,8.254,12.795,11.058c2.395,1.337,3.761,1.599,4.447-1.944c0.402-2.084,0.55-4.229,0.979-6.318
		C414.236,422.416,415.688,413.522,417.486,403.449z M398.188,839.998c10.585,0.01,18.521-4.546,23.777-11.929
		c10.687-15.009,5.244-38.202-11.677-47.783c-8.659-4.904-25.44-3.958-33.108,6.637c-9.548,13.189-9.434,24.233,0.604,41.267
		C382.873,836.822,390.945,839.59,398.188,839.998z M306.082,567.708c-0.464,6.808,0.804,13.146,0.16,19.675
		c-1.691,17.152-1.997,34.438-3.425,51.622c-0.545,6.562-0.196,13.323-2.302,19.68c-1.09,3.288-1.013,6.242,0.014,9.525
		c2.22,7.099,4.411,14.344,3.401,21.877c-1.619,12.077-3.637,24.104-5.542,36.142c-0.415,2.621-1.544,6.169,0.32,7.593
		c5.77,4.402,5.177,11.122,7.234,16.84c1.424,3.958,1.076,7.94,0.25,12.153c-1.318,6.728-6.009,12.617-3.382,20.435
		c3.368,10.021,4.055,20.837,8.006,31.989c0.101-2.007,0.021-2.857,0.202-3.649c1.218-5.337,0.48-10.881,1.892-16.226
		c0.873-3.309,4.01-5.151,4.662-8.604c2.258-11.959,3.281-23.911,1.191-36.013c-2.834-16.412-3.678-32.808,0.005-49.268
		c1.136-5.081,1.933-10.259,0.291-15.628c-2.917-9.53-2.781-19.566-4.012-29.377c-1.134-9.034-1.076-18.242-2.329-27.207
		c-2.64-18.872-5.703-37.646-4.742-56.803C308.059,570.867,308.433,569.062,306.082,567.708z M221.364,397.791
		c-0.15,0.997-0.434,1.649-0.306,2.208c3.197,13.942,6.394,27.883,9.379,41.87c0.213,0.997,4.382,3.075,5.984,5.516
		c0.021,0.031,0.291-0.137,0.452-0.158c7.82-1.063,15.551-10.609,13.981-18.014c-3.341-15.757-2.201-31.8-3.547-47.682
		c1.621,0.572,1.286,2.536,2.412,3.87c5.792-14.562,13.283-28.021,17.509-43.501c-6.486,3.325-12.755,4.818-18.724,7.114
		c-14.508,5.582-21.647,17.922-19.56,33.103c0.472,3.433,2.715,6.622,1.969,10.099c-1.084,5.061-2.067,9.876,2.914,13.92
		C230.031,402.601,225.851,400.292,221.364,397.791z M341.068,806.646c-0.28-4.587-0.43-7.893-5.385-9.535
		c-4.211-1.396-8.146-1.472-12.113-0.612c-2.247,0.486-4.111,0.311-5.483-1.05c-4.104-4.067-3.657-0.159-4.073,2.186
		c-1.317,7.413-0.896,14.908-1.04,22.381c-0.128,6.634,0.544,13.278-0.873,19.898c-0.788,3.681-0.92,7.53-1.062,11.314
		c-0.194,5.166-0.571,11.168,5.119,13.375c7.417,2.878,15.517,5.756,23.135,0.505c8.614-5.938,8.842-12.505,7.189-22.02
		C344.338,830.736,337.298,819.141,341.068,806.646z M295.255,746.672c2.704-2.682,3.252-3.934,2.593-6.465
		c-0.374-1.438-0.755-2.814-0.894-4.324c-1.042-11.371,2.168-22.271,3.722-33.333c1.658-11.812,2.835-23.465-2.137-34.794
		c-1.773,0.687-0.833,3.482-3.869,4.197c6.196-13.688,6.325-27.714,6.813-41.952c-0.708,0.304-1.255,0.379-1.555,0.691
		c-6.66,6.935-14.403,11.49-24.366,11.357c-2.517-0.033-2.187,1.24-1.759,3.248c4.24,19.922,8.254,39.894,12.441,59.827
		C289.114,718.792,292.157,732.423,295.255,746.672z M445.226,277.657c2.75,1.173,3.326-0.835,3.854-3.84
		c3.827-21.791,8.074-43.511,11.702-65.334c2.325-13.987,4.286-28.037,7.566-41.841c0.827-3.48-0.247-4.878-3.516-4.479
		c-3.23,0.395-6.222-0.219-9.283-1.031c-2.025-0.538-3.263,0.019-3.606,2.618c-1.845,13.902-4.045,27.758-5.884,41.661
		c-2.819,21.332-5.418,42.693-8.17,64.034C436.912,277.039,436.832,277.029,445.226,277.657z M166.955,167.683
		c0.096,0.728,0.153,1.728,0.367,2.693c7.425,33.493,13.29,67.291,19.687,100.984c0.42,2.21,0.947,3.859,3.829,2.89
		c1.216-0.409,2.645-0.36,3.96-0.27c4.068,0.282,4.623-1.992,4.109-5.277c-1.655-10.6-3.356-21.193-4.866-31.813
		c-3.413-24.005-6.72-48.025-10.075-72.038c-0.308-2.201-0.891-3.36-3.81-3.024c-3.498,0.402-6.979,3.409-9.571,2.579
		C166.307,163.037,167.134,165.191,166.955,167.683z M299.096,782.834c-0.832-9.033-3.773-17.664-5.222-26.576
		c-0.65-4-1.878-6.923-6.848-6.788c-1.982,0.056-4.277-0.964-5.953-2.162c-4.207-3.005-4.297-0.423-4.065,2.719
		c0.525,7.12-1.376,13.717-4.302,20.068c-3.391,7.363-6.537,14.889-7.187,22.988c-1.013,12.622,5.983,20.396,18.998,18.448
		c4.998-0.748,8.511-3.192,10.378-7.948C297.512,796.922,298.575,789.967,299.096,782.834z M287,312.008
		c0,2.771-0.182,4.729,0.033,6.642c0.752,6.697-0.224,12.507-7.03,15.892c-2.356,1.173-2.47,3.287-1.52,5.553
		c1.104,2.631,2.524,4.891,5.097,6.475c10.027,6.175,21.088,7.289,32.359,6.14c6.683-0.682,12.45-4.2,17.051-9.212
		c3.298-3.591,2.812-7.487-1.182-10.232c-4.551-3.127-6.672-7.129-5.479-12.755c0.602-2.829,1.061-5.753,0.361-8.856
		C314.924,322.884,299.721,323.007,287,312.008z M251.1,435.695c-1.024,8.395-6.833,10.608-12.725,12.457
		c-2.953,0.926-3.812,2.232-3.156,5.283c4.355,20.256,8.468,40.562,12.977,60.782c0.448,2.008-0.338,4.986,2.363,6.382
		C254.46,492.601,259.929,464.8,251.1,435.695z M319.422,102.91c-39.314,0-78.627,0-117.941,0.001
		c-1.166,0.001-2.337,0.092-3.497,0.011c-1.59-0.111-2.782,0.491-2.762,2.096c0.032,2.509,1.833,1.01,2.911,1.03
		c27.186,0.522,54.408-1.28,81.564,1.763c8.021,0.899,16.213,0.68,24.308,0.415c22.634-0.74,45.25,0.148,67.937-1.787
		c21.74-1.855,43.76-0.38,65.653-0.521c1.803-0.012,5.32,1.594,5.218-1.538c-0.093-2.799-3.565-1.295-5.441-1.315
		C398.057,102.642,358.734,103.349,319.422,102.91z M259.639,640.354c8.58,9.895,6.581,23.154,12.837,33.479
		c-3.766-2.05-3.466-6.595-6.664-10.707c0.957,11.969-1.031,22.556,2.03,33.189c4.119,14.308,8.71,28.506,11.569,43.167
		c1.525,7.82,4.199,9.418,12.187,7.977c-0.245-1.465-0.377-2.957-0.751-4.386c-8.318-31.767-15.61-63.777-22.821-95.805
		C267.056,642.957,265.582,639.991,259.639,640.354z M266.187,639.527c-5.262-24.538-10.503-48.981-15.746-73.427
		c-0.477,0.06-0.954,0.117-1.43,0.176c-0.104,0.572-0.291,1.145-0.302,1.719c-0.421,21.532,1.071,42.772,7.795,63.496
		C258.165,636.609,260.288,639.444,266.187,639.527z M179.823,139.069c-2.452,0.627-4.62,1.291-6.833,1.719
		c-2.613,0.505-6.357-0.582-7.616,1.445c-1.247,2.009-0.28,5.398-0.258,8.182c0.003,0.488,0.066,0.997,0.212,1.461
		c0.732,2.339,0.629,5.353,4.853,3.343c2.399-1.141,5.462-0.993,8.243-1.192c3.086-0.221,4.312-1.82,3.313-4.589
		C180.549,146.151,179.868,142.82,179.823,139.069z M240.001,833.72c2.942-17.254,2.732-34.413-1.944-51.38
		C234.54,799.6,237.205,816.644,240.001,833.72z M389.143,762.243c0.045,0,0.09,0,0.135,0c0,2.162-0.108,4.332,0.033,6.483
		c0.127,1.904,2.035,3.104,2.922,1.792c1.181-1.743,2.875-0.938,3.621-1.593c2.158-1.896,6.312-1.408,6.075-6.451
		c-0.44-9.359,0.05-9.157-9.114-7.853c-2.979,0.425-4.092,1.217-3.696,4.129C389.271,759.896,389.143,761.078,389.143,762.243z
		 M461.001,148.088c2.886-3.075,5.991-0.881,9.067-1.023c2.625-0.122,2.8-1.657,2.95-3.618c0.158-2.044-0.831-2.454-2.63-2.545
		c-3.134-0.159-6.251-0.632-9.382-0.879c-1.255-0.1-2.423-0.315-3.04,1.572c-3.828,11.7-3.324,12.45,9.141,12.405
		c0.496-0.002,1.001-0.056,1.489,0.008c2.477,0.318,3.449-0.502,3.501-3.23c0.062-3.302-1.821-2.771-3.822-2.708
		C465.853,148.147,463.426,148.088,461.001,148.088z M300.834,772.735c6.111-11.902,5.114-29.198-2.456-36.251
		c2.066,5.292,1.71,9.201-2.193,12.209c-0.422,0.324-0.303,1.622-0.135,2.402C297.524,757.945,299.065,764.78,300.834,772.735z
		 M177.584,104.621c-1.099-7.684-1.573-7.909-7.579-3.727c-0.577,0.401-1.354,1.768-1.714,0.472c-1.19-4.286-3.782-0.735-5.58-1.023
		c-1.925-0.309-1.347,1.709-1.174,2.98c0.139,1.02-0.434,3.095,1.231,2.506c3.623-1.282,7.737,1.088,10.998-1.718
		c0.52-0.447,0.46-0.614,1.264-0.097c4.999,3.218,10.672,3.191,16.367,3.035c2.362-0.064,2.591-1.354,2.633-3.247
		c0.046-2.113-1.127-2.521-2.815-2.537c-2.997-0.027-6.025,0.197-8.981-0.164C179.363,100.75,177.725,101.426,177.584,104.621z
		 M430.672,324.791c-0.362,8.104-3.821,15.921-2.228,24.146c0.226,1.162-2.579,1.895-0.093,3.039
		c4.533,2.089,6.952,0.862,7.635-4.114c0.2-1.469,0.621-2.934,0.612-4.397c-0.01-1.909,1.281-4.21-0.294-5.65
		c-1.816-1.661-2.963,1.685-4.815,1.653C430.618,334.414,433.96,329.591,430.672,324.791z M466.002,115.339
		c-1.015,2.646-3.426,0.614-4.248,2.74c2.848,1.416,5.823,2.197,8.979,1.743c1.907-0.274,3.995-0.562,4.817-2.827
		c-2.605-0.673-1.074-6.249-5.645-4.716c-0.92,0.309-2.335,0.768-2.938-0.894c1.13-2.028,3.37-1.27,5.056-1.976
		c-5.303-2.225-10.394-1.21-15.784,3.104C459.057,114.631,462.477,114.942,466.002,115.339z M159.067,109.152
		c4.633,1.725,3.896,7.188,8.473,7.674c2.299,0.244,6.392-1.173,10.026-3.721c-3.226,0.653-4.754-3.188-7.955-2.735
		c3.892-2.434,8.115-0.944,12.133-1.439C174.677,106.935,167.626,106.482,159.067,109.152z M152.215,100.514
		c-0.008-0.095-0.016-0.189-0.023-0.284c-2.286,0.178-4.594,0.224-6.851,0.584c-1.394,0.222-2.297,1.27-2.26,2.822
		c0.033,1.38,0.339,2.868,1.87,3.104c4.348,0.664,8.739,1.086,13.095,0.021c1.812-0.442,2.067-1.861,1.948-3.485
		c-0.132-1.801-1.103-2.694-2.841-2.751C155.508,100.472,153.861,100.514,152.215,100.514z M205.612,317.901
		c-1.826,4.908-0.093,10.121-3.017,15.178c-1.529,2.645,0.864,7.578,1.55,11.467c0.173,0.981,0.8,1.08,1.832,0.89
		c2.283-0.423,3.473-1.284,3.066-3.896C207.821,333.711,206.755,325.858,205.612,317.901z M452.82,107.177
		c1.821,0,3.646-0.048,5.468,0.011c3.359,0.107,3.01-2.715,3.276-4.569c0.354-2.455-2.011-1.764-3.222-1.779
		c-3.637-0.046-7.275,0.257-10.916,0.342c-2.08,0.048-2.351,1.352-2.433,2.997c-0.087,1.734,0.312,2.979,2.339,2.994
		C449.163,107.187,450.991,107.175,452.82,107.177z M163.299,127.072c4.221-2.304,8.57-2.164,12.708-2.959
		c2.604-0.501,2.646-1.536,2.353-3.689c-0.398-2.916-2.05-1.675-3.308-1.186c-1.762,0.685-3.271,0.667-5.176,0.146
		c-6.054-1.653-7.05-0.707-6.86,5.568C163.031,125.439,163.142,125.924,163.299,127.072z M471.943,101.661
		c-1.892,0.707-4.317-0.937-6.832-0.097c-1.837,0.613-2.153,1.837-2.185,3.416c-0.019,0.922,0.36,1.915,1.308,1.676
		c4.649-1.181,9.194,0.952,13.843,0.271c2.123-0.312,2.258-1.774,2.388-3.135c0.149-1.559-0.93-2.452-2.505-2.435
		C476.141,101.379,474.323,101.534,471.943,101.661z M489.907,106.452c0.002,0.018,0.003,0.036,0.004,0.054
		c1.802-0.102,3.602-0.267,5.404-0.287c1.534-0.018,2.518-0.476,2.642-2.191c0.125-1.723-0.765-2.193-2.302-2.472
		c-3.773-0.683-7.546-0.434-11.32-0.26c-1.944,0.09-2.329,1.446-2.291,3.122c0.047,2.015,1.251,2.487,2.949,2.381
		C486.633,106.696,488.27,106.568,489.907,106.452z M460.421,120.057c-0.722,5.812-0.72,5.773,4.791,6.016
		c2.133,0.094,4.291,0.241,6.374,0.671c2.146,0.443,2.51-0.787,2.876-2.352c0.54-2.306-0.887-2.5-2.515-2.374
		C467.954,122.326,464.122,121.666,460.421,120.057z M423.237,351.001c-2.333,0-4.29-0.079-6.237,0.033
		c-1.009,0.058-2.405-0.631-2.891,0.976c-0.399,1.323,0.461,2.192,1.335,2.921c1.605,1.342,3.241,3.239,4.688-0.313
		C420.592,353.485,421.78,352.652,423.237,351.001z M224.349,354.072c1.388-3.334,3.795-5.036,1.81-7.446
		c-1.188-1.441-3.151-0.701-3.908,0.442C220.63,349.516,223.533,350.739,224.349,354.072z"/>
	<path d="M217.959,348.111c-5.2-1.744-9.982,1.201-15.021,1.418c-1.277,0.055-2.553,0.5-3.868,0.136
		c4.773-2.581,10.126-2.692,15.299-3.541C215.961,345.862,217.29,346.496,217.959,348.111z"/>
	<path d="M421.018,359.034c0.362-1.238,1.217-2.239,2.461-1.961c6.585,1.471,13.133,3.099,19.593,5.034
		c-7.66,0.491-14.414-4.364-22.145-3.179L421.018,359.034z"/>
</g>
</svg>
