<?xml version="1.0" encoding="utf-8"?>
<!-- Generator: Adobe Illustrator 16.2.1, SVG Export Plug-In . SVG Version: 6.00 Build 0)  -->
<!DOCTYPE svg PUBLIC "-//W3C//DTD SVG 1.1//EN" "http://www.w3.org/Graphics/SVG/1.1/DTD/svg11.dtd">
<svg version="1.1" id="bgrMsymCwLspOZPbGtVCLcHP3Kjp_x5F_S6zabd8zosK8mo_xA0_Image_1_"
	 xmlns="http://www.w3.org/2000/svg" xmlns:xlink="http://www.w3.org/1999/xlink" x="0px" y="0px" width="640px" height="960px"
	 viewBox="0 0 640 960" enable-background="new 0 0 640 960" xml:space="preserve">
<g>
	<path d="M288.768,489.46c-5.569-1.753-6.728-6.077-7.897-10.688c-1.245-4.908-3.985-9.435-3.861-14.704
		c0.115-4.908,1.716-6.232,6.764-5.729c1.349-6.238-1.433-12.32,0.069-18.797c6.401-27.602,41.503-39.528,62.409-20.56
		c7.314,6.638,12.363,15.021,11.792,25.708c-0.257,4.806-0.043,9.637-0.043,14.511c4.628-1.305,6.155-0.381,5.923,4.427
		c-0.445,9.232-1.587,18.293-9.044,25.146c-2.147,1.975,0.164,2.679,1.688,3.304c12.021,4.925,23.668,10.826,36.398,13.875
		c4.004,0.959,7.939,2.079,11.646,3.933c1.79,0.896,2.887,0.606,3.416-1.705c1.938-8.477,4.061-16.913,6.184-25.347
		c0.318-1.267,1.401-2.941-0.348-3.409c-4.814-1.287-1.719-3.513-1.196-5.849c2.392-10.707,8.47-20.155,10.408-30.994
		c0.086-0.482,0.176-1.027,0.453-1.402c6.35-8.583,6.896-19.46,11.203-28.576c2.776-5.884,5.356-11.784,7.149-17.913
		c14.502-49.576,28.677-99.25,43.16-148.832c3.164-10.833,2.263-22.297,5.885-33.025c1.308-3.866,1.944-7.969,2.739-11.992
		c0.633-3.2,2.146-6.242-1.354-9.316c-2.604-2.289-0.661-6.064,0.012-8.923c2.706-11.504,5.825-22.911,8.83-34.345
		c0.292-1.107,0.562-2.774,1.321-3.119c7.251-3.28,6.037-10.506,7.142-16.191c2.104-10.854,8.065-20.114,11.26-30.458
		c0.426-1.381,1.294-2.387,2.343-3.135c2.479-1.771,4.868-5.288,7.798-4.229c2.076,0.75-0.151,4.402-0.129,6.796
		c0.073,7.132-1.89,14.288-0.767,21.373c1.175,7.405-0.146,14.34-2.03,21.343c-0.253,0.939-0.529,2.33-0.057,2.938
		c5.677,7.292,1.123,14.642-0.26,21.641c-3.399,17.24-8.616,34.186-10.431,51.668c-1.586,15.294-4.725,30.358-5.523,45.781
		c-0.852,16.34-3.188,32.6-4.692,48.911c-1.188,12.863-1.994,25.761-3.156,38.626c-1.146,12.689-2.573,25.355-3.789,38.042
		c-0.807,8.406-1.417,16.832-2.188,25.241c-1.244,13.513-2.577,27.018-3.82,40.527c-0.773,8.412-1.432,16.834-2.175,25.248
		c-1.252,14.187-2.585,28.362-3.776,42.553c-0.833,9.912-1.434,19.847-2.229,29.764c-1.25,15.52-2.62,31.03-3.862,46.551
		c-0.78,9.751-1.421,19.512-2.126,29.271c-1.12,15.511-2.108,31.021-4.774,46.389c-1.883,10.851-1.156,21.869-1.268,32.826
		c-0.02,1.886,0.999,2.557,2.34,3.354c16.938,10.103,24.396,25.771,24.497,44.749c0.066,12.546-3.276,24.592-12.18,34.274
		c-2.045,2.225-2.933,4.646-2.656,7.687c0.347,3.839-0.362,7.672-1.784,11.172c-1.432,3.525-3.386,7.225-8.394,5.58
		c-1.519-0.498-1.683,0.398-2.043,1.266c-1.46,3.486-3.937,4.132-7.213,2.644c-1.206-0.547-2.245-0.426-2.998,0.809
		c-2.105,3.447-5.065,2.999-8.257,1.885c-2.462-0.861-4.561-1.873-7.614-0.291c-3.076,1.593-5.646-1.146-6.604-4.266
		c-0.96-3.126-1.317-6.43-2.108-9.611c-0.625-2.515-1.045-5.353-4.697-5.583c-1.104,4.986,2.184,9.857-0.002,14.8
		c-0.652,1.476-0.412,3.427-2.519,3.792c-2.182,0.379-4.269-0.584-5.134-2.324c-3.73-7.506-9.599-14.513-5.857-23.971
		c0.892-2.255,0.264-4.634-1.202-7.017c-14.316-23.25-9.772-48.213,8.222-67.599c2.842-3.062,3.44-5.24,1.621-8.924
		c-2.76-5.592-4.929-11.476-7.365-17.229c-3.884-9.163-6.163-18.631-7.419-28.581c-1.542-12.225-8.3-22.743-13.743-33.563
		c-6.702-13.324-10.651-27.244-10.944-43.344c-5.035,6.188-8.299,12.104-9.891,18.947c-1.396,6.02,0.443,11.709,1.7,17.467
		c2.945,13.489,7.863,26.667,6.304,40.865c-1.517,13.794-1.457,27.751-4.729,41.368c-1.43,5.951,0.89,11.833,1.938,17.591
		c1.043,5.738-0.408,10.776-1.826,15.959c-2.032,7.439-4.33,14.812-6.606,22.183c-0.396,1.274-1.354,2.677-0.603,3.795
		c3.502,5.191,3.613,11.237,4.271,17.052c0.859,7.604,5.135,13.453,8.938,19.599c5.793,9.354,7.76,19.209,3.636,29.713
		c-3.121,7.946-8.896,10.551-17.084,8.267c-11.675-3.256-15.491-12.948-18.812-22.941c-1.129-3.398-1.613-7.042-2.127-10.609
		c-0.867-6-3.771-10.771-7.935-15.072c-5.367-5.553-7.944-12.415-8.056-20.122c-0.088-6.234,2.336-10.552,8.299-11.979
		c4.732-1.134,4.238-3.809,3.49-6.749c-1.494-5.868-3.367-11.643-5.115-17.443c-1.432-4.748-2.778-9.525-2.651-14.531
		c0.046-1.837-0.751-3.223-1.688-4.539c-7.791-10.932-12.717-22.982-14.368-36.331c-0.228-1.833-1.343-3.011-2.699-3.989
		c-8.616-6.209-18.596-3.009-22.418,6.924c-3.838,9.973-7.254,20.216-12.25,29.598c-3.466,6.506-6.769,12.525-7.546,20.1
		c-0.824,8.029-4.825,15.312-7.862,22.766c-0.9,2.211-0.857,3.864,1.516,5.108c1.308,0.688,2.554,1.63,3.574,2.698
		c6.837,7.17,7.967,11.37,2.553,18.271c-8.122,10.354-13.329,21.729-15.977,34.573c-1.398,6.78-4.061,13.311-8.855,18.595
		c-5.822,6.419-13.349,7.543-21.122,3.354c-6.965-3.751-10.116-11.482-8.394-19.438c2.315-10.696,8.032-19.836,12.925-29.357
		c1.966-3.827,3.939-7.542,3.683-12.111c-0.106-1.896,0.221-4.415,1.396-5.677c5.182-5.561,2.381-11.205,0.746-16.886
		c-3.082-10.708-5.043-21.562-4.237-32.763c0.225-3.134,0.312-6.338,1.063-9.359c2.248-9.052-0.032-17.865-1.596-26.562
		c-2.094-11.642-1.375-23.104,0.03-34.635c1.825-14.976,7.113-28.94,12.583-42.866c1.759-4.479,1.601-8.94-1.282-13.219
		c-2.167-3.215-3.817-6.779-6.017-10.769c-3.502,6.438-3.978,13.064-5.556,19.271c-3.706,14.571-10.5,27.296-20.545,38.374
		c-7.166,7.903-10.327,17.471-11.5,27.832c-1.304,11.523-6.1,21.804-11.53,31.781c-3.169,5.824-5.738,11.887-8.496,17.884
		c-0.944,2.054-0.759,3.469,0.785,5.229c15.265,17.396,17.745,43.343,5.992,63.095c-1.537,2.583-2.185,5.143-1.922,8.013
		c0.444,4.866-1.046,9.034-3.93,12.96c-1.426,1.941-2.224,4.398-3.037,6.717c-0.475,1.354-0.918,2.576-2.437,2.774
		c-1.601,0.21-2.764-0.553-3.764-1.893c-2.805-3.753-2.522-7.979-1.812-12.393c-3.508,0.508-4.056,2.518-4.099,5.337
		c-0.128,8.438-4.5,11.431-12.048,8.039c-1.897-0.852-2.369,0.146-3.187,0.913c-2.979,2.8-5.808,2.46-7.967-0.726
		c-1.511-2.229-3.13-3.036-5.658-2.391c-0.625,0.159-1.329-0.011-1.994,0.022c-4.326,0.217-4.359-5.853-9.778-5.771
		c-4.556,0.067-3.931-6.47-4.166-10.348c-0.203-3.355-1.336-5.829-3.186-8.543c-16.432-24.112-15.692-59.417,12.541-77.751
		c2.424-1.573,3.885-3.335,4.368-5.989c1.091-6.007,1.983-12.021,2.173-18.161c0.964-31.15,1.707-62.319,0.678-93.462
		c-0.958-28.995-0.236-57.984-0.856-86.971c-1.242-57.971-1.362-115.954-2.187-173.929c-0.285-19.988-0.498-39.978-0.724-59.966
		c-0.05-4.444-2.461-8.442-2.084-13.191c1.344-16.925-1.343-33.692-2.732-50.508c-0.205-2.484,0.151-5.031-0.203-7.484
		c-0.524-3.626,0.234-8.016-5.196-9.13c-1.816-0.372-2.336-2.402-2.446-4.41c-0.647-11.754-1.479-23.497-2.133-35.251
		c-0.264-4.738-1.028-9.497,3.394-13.341c1.833-1.593,0.634-4.795,0.313-7.111c-1.69-12.233-2.253-24.464-1.046-36.771
		c0.409-4.175-0.183-8.28-1.947-12.083c-0.95-2.048-0.412-2.59,1.603-2.842c4.47-0.56,9.271,2.26,10.787,6.537
		c3.51,9.9,8.217,19.399,10.248,29.792c0.567,2.905,0.239,5.985,0.802,8.892c0.981,5.067,0.782,10.061,5.037,14.703
		c3.481,3.797,2.588,10.781,1.405,15.969c-1.809,7.936,0.604,15.469,0.569,23.187c-0.02,4.304-0.902,8.468,2.356,13.205
		c3.757,5.461,2.892,13.504,2.986,20.333c0.218,15.807,3.426,31.293,4.149,46.966c0.732,15.891,5.575,30.831,8.735,46.141
		c6.435,31.177,13.596,62.202,20.43,93.296c1.481,6.738,2.699,13.539,4.366,20.229c0.45,1.807-0.189,5.216,3.854,4.521
		c0.725-0.125,1.54,1.476,1.784,2.729c2.092,10.768,4.671,21.44,8.394,31.745c4.438,12.283,6.847,25.003,9.337,37.734
		c0.229,1.161,0.491,2.144-0.533,3.176c-0.95,0.959-3.641,0.295-2.981,2.539c1.161,3.951,0.943,8.229,2.836,11.967
		c0.549,1.085,1.333,0.276,1.997-0.179c10.068-6.896,22.007-9.195,33.143-13.472C269.676,497.353,278.883,492.981,288.768,489.46z
		 M254.796,569.404c-2.082,2.923-2.416,5.849-1.153,9.015c0.483,1.212,0.41,2.97,1.828,3.316c1.75,0.429,2.533-1.265,3.34-2.49
		c7.17-10.903,10.196-23.272,11-35.944c0.842-13.278,0.103-26.653,0.244-39.984c0.039-3.649-1.033-3.583-4.013-2.439
		c-6.907,2.65-13.981,4.869-21.009,7.198c-19.17,6.353-32.373,18.557-38.051,38.341c-2.858,9.958-6.415,19.659-11.558,28.72
		c-4.096,7.217-6.944,15.042-8.272,23.114c-3.124,18.993-8.665,37.101-17.284,54.31c-2.897,5.784-4.123,12.189-4.757,18.524
		c-1.115,11.135,1.509,22.139,2.097,33.229c0.153,2.894,1.496,4.895,4.728,5.965c4.375,1.445,8.364,4.052,11.796,7.126
		c2.671,2.393,3.325,1.29,4.309-1.27c2.656-6.898,6.184-13.383,9.586-19.94c4.466-8.611,8.417-17.488,9.511-27.33
		c1.209-10.874,4.251-21.165,11.926-29.272c13.108-13.847,19.262-30.771,22.985-48.975
		C243.771,582.19,247.964,575.025,254.796,569.404z M165.506,657.926c1.288-3.293,2.48-6.628,3.884-9.871
		c3.851-8.896,8.847-17.323,10.907-26.946c2.644-12.354,4.271-24.977,8.839-36.83c4.313-11.194,10.931-21.387,14.264-33.059
		c3.134-10.977,6.908-21.72,15.621-29.879c1.66-1.555-2.96-17.521-5.072-18.376c-0.14-0.056-0.33,0.005-0.495,0.021
		c-2.773,0.278-2.99-1.656-3.609-3.698c-6.047-19.922-10.767-40.188-15.736-60.387c-0.863-3.512-2.441-7.666-0.863-10.706
		c1.241-2.392,1.006-4.099,0.496-6.021c-8.903-33.602-17.878-67.184-26.865-100.763c-2.131-7.963-4.365-15.897-6.701-24.385
		c-1.55,2.367-0.488,4.162-0.444,5.858c1.048,40.286-0.387,80.584,1.074,120.884c1.019,28.099,1.521,56.231,2.029,84.352
		c0.598,33.125,1.708,66.25,1.225,99.396C163.814,624.291,165.489,641.042,165.506,657.926z M382.104,568.166
		c6.059,6.871,9.324,13.723,9.871,21.723c0.817,11.943,3.52,23.329,8.432,34.323c5.681,12.715,14.193,24.423,16.069,38.527
		c1.431,10.752,4.116,20.927,8.457,30.776c2.188,4.966,4.436,9.931,6.162,15.061c1.398,4.149,2.85,4.306,6.312,1.851
		c2.869-2.032,6.515-3.036,9.909-4.232c1.588-0.562,2.419-1.164,2.729-2.964c1.545-8.896,2.979-17.828,5.033-26.612
		c1.656-7.083,1.752-13.864-1.12-20.578c-6.118-14.308-6.79-29.406-7.128-44.682c-0.15-6.836-1.582-13.772-3.356-20.417
		c-4.267-15.979-9.853-31.568-14.099-47.59c-3.496-13.191-10.319-24.816-23.539-30.901c-11.454-5.271-24.282-6.533-36.095-12.699
		c0.931,17.483-0.362,34.15,1.346,50.718c0.942,9.141,3.479,18.004,6.971,26.534c0.617,1.517,1.387,4.103,3.754,2.474
		c1.68-1.152,4.146-2.646,2.408-5.653C383.439,572.467,382.152,571.295,382.104,568.166z M456.999,700.297
		c0.008,11.629,0.007,11.63,8.677,12.896c0.659,0.096,1.419-0.006,1.966,0.291c4.218,2.292,4.41,0.021,4.41-3.443
		c-0.003-12.464-0.809-24.98,1.312-37.356c3.232-18.89,4.02-38.012,5.605-57.057c1.159-13.909,2.107-27.837,3.212-41.752
		c1.236-15.564,2.544-31.124,3.819-46.687c0.773-9.434,1.478-18.87,2.335-28.296c1.158-12.701,2.49-25.391,3.648-38.095
		c1.146-12.548,2.103-25.114,3.262-37.661c1.175-12.705,2.573-25.389,3.729-38.095c1.158-12.713,2.049-25.451,3.225-38.162
		c1.511-16.337,3.225-32.654,4.786-48.986c1.341-14.016,2.607-28.038,3.868-42.061c0.443-4.956,0.686-9.932,1.179-14.882
		c0.267-2.688-0.84-4.232-3.396-4.424c-3.966-0.298-7.895-2.933-11.901-0.36c-0.439,0.282-0.606,1.173-0.687,1.808
		c-1.699,13.777-3.389,27.556-5.037,41.339c-1.726,14.442-3.104,28.935-5.191,43.323c-2.025,13.959-2.766,28.001-3.82,42.028
		c-0.723,9.6-1.438,19.199-2.188,28.796c-1.256,16.048-2.559,32.092-3.804,48.14c-0.784,10.099-1.454,20.201-2.258,30.296
		c-1.212,15.229-2.561,30.444-3.727,45.677c-0.824,10.767-1.342,21.557-2.177,32.319c-1.191,15.403-2.622,30.787-3.819,46.19
		c-1.147,14.745-1.761,29.541-3.272,44.246C458.607,661.194,458.888,682.18,456.999,700.297z M486.038,304.988
		c-0.984,1.952-1.607,2.875-1.941,3.892c-10.7,32.599-21.434,65.188-31.959,97.843c-1.041,3.23-4.235,6.815-0.254,10.396
		c0.271,0.242,0.007,1.311-0.258,1.879c-4.131,8.866-5.921,18.346-8.246,27.782c-2.856,11.598-5.1,23.397-8.851,34.781
		c-0.723,2.187-0.195,5.878-4.708,3.62c-1.719-0.855-2.312,1.15-2.854,2.605c-3.262,8.758-6.603,17.485-9.882,26.237
		c-0.568,1.517-0.858,2.794,0.653,4.343c5.728,5.868,9.381,13.021,12.338,20.632c4.122,10.604,5.292,22.027,9.403,32.634
		c6.31,16.274,9.683,33.052,9.685,50.646c0.002,12.12,2.229,24.08,8.155,36.114c0.941-11.24,1.898-21.55,2.653-31.871
		c1.104-15.053,1.928-30.123,3.11-45.167c1.509-19.162,3.446-38.29,4.848-57.459c1.231-16.861,2.64-33.707,3.92-50.562
		c1.648-21.651,3.237-43.305,5.064-64.942c1.646-19.494,2.463-39.062,4.274-58.537c0.505-5.428,0.508-10.896,1.387-16.33
		C484.052,324.435,484.836,315.235,486.038,304.988z M387.004,577.63c-5.936,5.696-8.699,5.632-10.85,0.126
		c-5.202-13.32-8.502-27.141-7.868-41.487c0.493-11.187-0.813-22.306-0.359-33.464c0.073-1.8-0.079-3.771-2.155-4.661
		c-3.317-1.421-6.686-2.733-9.986-4.189c-2.059-0.907-2.678-0.067-2.799,1.875c-0.096,1.551,0.346,2.877,1.021,4.252
		c6.807,13.823,6.986,28.137,1.967,42.359c-8.615,24.409-34.847,34.104-55.814,20.462c-14.64-9.525-18.643-24.983-20.057-41.165
		c-0.813-9.305,1.333-18.076,7.961-25.209c1.065-1.146,1.396-2.536,0.516-3.546c-0.429-0.492-2.127-0.169-3.118,0.173
		c-3.262,1.119-6.402,2.626-9.705,3.582c-3.09,0.895-3.776,2.646-3.84,5.717c-0.329,15.953,1.267,31.954-0.937,47.856
		c-1.386,10.003-4.222,19.595-9.343,28.355c-1.37,2.344-2.958,5.318-6.169,5.104c-3.018-0.202-3.102-3.41-4.071-5.61
		c-0.195-0.444-0.083-1.422-1.213-1.295c-0.137,0.609-0.582,1.375-0.37,1.839c3.385,7.391,6.861,14.756,13.131,20.261
		c6.755,5.934,14.53,10.369,22.373,14.617c17.732,9.604,36.379,13.139,56.391,8.563c17.384-3.978,29.738-14.512,39.201-28.938
		C383.818,588.766,387.018,584.214,387.004,577.63z M254.452,613.2c-0.279,0.262-0.81,0.534-0.982,0.954
		c-6.95,16.903-10.832,34.488-11.455,52.765c-0.375,11.003,2.506,21.668,3.713,32.508c0.307,2.759-1.241,6.239,1.786,8.376
		c10.846,7.66,24.948,11.207,37.895,4.784c1.73-0.858,2.86-2.125,3.578-3.929c3.586-9.009,8.141-17.748,10.654-27.041
		c3.76-13.902,16.167-12.867,25.425-8.669c2.371,1.075,3.656,3.351,3.901,5.955c0.998,10.549,5.353,19.929,10.024,29.205
		c1.182,2.344,3.238,3.689,5.508,4.802c10.429,5.105,27.258,1.729,35.162-7.05c1.238-1.377,2-2.9,2.378-4.767
		c1.983-9.765,2.062-19.725,3.209-29.559c1.604-13.781,0.937-27.1-4.119-40.76c-1.214,2.474-2.168,4.496-3.188,6.485
		c-4.276,8.32-10.137,14.983-19.168,18.36c-8.877,3.318-18.117,5.021-27.519,5.275c-8.446,0.229-16.896,0.103-25.384-0.724
		c-11.092-1.077-21.938-2.938-32.06-7.459c-9.53-4.256-18.062-10.149-20.228-21.425C252.426,625.27,254.456,619.211,254.452,613.2z
		 M355.749,486.734c3.601-8.827,7.396-16.525,5.892-25.729c-5.888,1.597-3.5,7.455-6.195,10.527
		c1.271-9.851,0.328-19.619,0.529-29.366c0.037-1.79,0.004-3.527-0.654-5.359c-6.928-19.312-23.262-28.161-43.202-23.882
		c-16.646,3.573-29.859,24.504-26.539,37.949c1.525,6.174,1.033,12.85,1.399,19.302c0.057,0.996,0.329,2.188-0.861,3.18
		c-1.821-1.919-0.978-3.994-1.075-5.835c-0.126-2.402-0.729-4.522-2.356-6.34c-1.402-1.562-2.52-1.339-3.382,0.473
		c-1.734,3.643,4.277,21.728,8.071,24.177c1.531-1.171-0.515-4.019,2.231-4.925c0.629,5.602,0.854,11.038,1.912,16.308
		c2.299,11.447,10.868,18.784,18.876,26.032c5.534,5.009,17.029,4.833,22.209,0.188c7.486-6.71,14.582-13.89,17.504-24.135
		c1.817-6.378,2.045-13.009,3.397-19.81C356.143,481.413,354.234,483.867,355.749,486.734z M158,379.742
		c0-19.827,0.028-39.654-0.008-59.48c-0.031-16.827-0.109-33.654-0.252-50.479c-0.013-1.525,0.799-3.526-1.111-4.516
		c-3.269-1.694-11.638,3.47-11.616,7.143c0.148,25.153-0.131,50.305,0.603,75.463c0.665,22.809,0.299,45.646,0.568,68.468
		c0.894,75.958,2.096,151.914,2.642,227.874c0.125,17.428,0.039,34.934-1.685,52.361c-0.475,4.802-2.082,9.377-2.142,14.199
		c-0.022,1.81-0.413,4.021,2.439,3.885c3.024-0.146,6.039-0.848,9.051-0.803c3.061,0.044,3.994-1.797,4.273-4.113
		c0.854-7.075,2.107-14.173,2.132-21.266c0.095-26.646-0.033-53.295-0.525-79.942c-0.758-40.964-0.843-81.937-2.22-122.896
		C158.96,450.356,158.674,415.043,158,379.742z M378.162,603.719c-1.467,1.318-2.465,1.957-3.124,2.849
		c-5.147,6.944-11.797,12.104-19.511,15.761c-14.229,6.742-28.776,11.43-44.76,6.146c-12.134-4.012-23.455-9.629-34.227-16.417
		c-6.334-3.99-12.584-8.117-19.214-12.402c-0.566,6.348-0.68,11.987-1.064,17.589c-0.322,4.705-2.008,9.396-0.688,14.273
		c3.029,11.193,11.682,16.777,21.448,20.304c23.247,8.388,47.237,9.154,71.426,4.856c15.63-2.774,25.518-12.229,30.727-27.042
		c0.822-2.338,0.976-4.471,0.489-6.758C378.378,616.812,376.462,610.823,378.162,603.719z M463.463,797.188
		c0.461,0.026,0.921,0.055,1.382,0.08c-0.121,4.408,0.534,8.815-0.776,13.224c-0.938,3.146,1.18,4.592,3.769,5.328
		c2.762,0.784,3.586-0.782,4.32-3.288c1.696-5.782,1.438-12.062,4.692-18.02c0.267,4.995-1.464,9.179-1.908,13.525
		c-0.174,1.684,0.056,3.055,1.609,3.759c1.403,0.635,2.613-0.131,3.488-1.229c0.916-1.15,2.137-2.307,2.457-3.643
		c1.469-6.12,2.535-12.286,0.562-18.559c-2.359-7.521-5.178-14.955-6.766-22.643c-3.021-14.613-10.049-28.269-10.337-43.517
		c-0.048-2.529-2.036-2.373-3.631-2.166c-4.283,0.555-8.507,0.355-12.816,0.146c-4.586-0.226-8.431,2.867-11.456,6.064
		c-1.79,1.893,0.465,4.547,0.93,6.85c0.646,3.219,1.401,6.411,2.064,9.625c3.854,18.692,7.135,15.821-8.911,30.639
		c-0.244,0.226-0.441,0.514-0.715,0.692c-2.702,1.803-2.582,3.836-0.53,6.045c1.128,1.215,2.042,2.875,3.436,3.546
		c3.354,1.615,3.953,4.726,4.576,7.692c0.675,3.221,0.583,6.595,1.151,9.844c0.793,4.515,1.796,8.995,2.904,13.442
		c0.452,1.815,1.662,3.536,3.784,3.275c1.932-0.238,2.838-1.802,3.342-3.784c0.872-3.441,0.952-6.896,0.923-10.393
		c-0.017-1.955-0.322-4.021,1.824-5.598c0.179,4.953,0.538,9.68-0.736,14.403c-1.424,5.273,2.899,5.589,6.078,6.156
		c4.052,0.727,3.7-2.428,3.869-5.161C462.383,808.076,462.976,802.635,463.463,797.188z M161.531,797.574
		c0.587,0.001,1.174,0.002,1.761,0.003c0,4.617-0.051,9.233,0.022,13.852c0.034,2.157,0.905,4.117,3.254,4.334
		c2.367,0.218,4.45-0.576,5.599-3.108c0.573-1.265,0.79-2.456,0.848-3.789c0.313-7.129,2.245-13.955,3.968-20.82
		c0.379-1.512,0.919-2.938,2.487-3.485c7.617-2.655,8.938-7.606,3.45-13.091c-1.415-1.413-2.754-2.908-4.231-4.252
		c-4.847-4.412-5.86-9.811-3.962-15.83c1.681-5.332,3.411-10.667,5.531-15.832c1.01-2.459,0.796-3.982-1.232-5.582
		c-6.35-5-12.398-10.402-21.627-8.098c-2.426,0.605-3.961,0.478-4.592,3.683c-3.183,16.175-8.034,31.79-15.362,46.689
		c-4.611,9.376-7.308,19.434-4.701,30.2c0.646,2.666,0.977,5.317,4.399,4.444c3.493-0.891,1.222-3.469,1.174-5.513
		c-0.066-2.802-3.074-5.739,1.068-9.643c-1.452,6.262,1.306,10.7,1.858,15.587c0.327,2.894,1.573,5.375,5.508,4.691
		c4.326-0.749,3.241-3.863,3.124-6.523c-0.057-1.291-0.814-2.565-0.799-3.841c0.016-1.267-0.768-2.778,1.117-4.278
		c0.92,4.467,1.916,8.58,1.778,12.857c-0.093,2.885,0.44,5.736,3.374,6.456c2.768,0.681,4.121-2.076,5.649-4.031
		c1.062-1.357,1.04-2.594,0.618-4.152C160.626,804.86,160.638,801.19,161.531,797.574z M289.482,497.888
		c-3.711,4.562-5.553,8.49-6.515,12.939c-2.713,12.55,0.23,24.354,5.444,35.508c10.729,22.948,39.53,28.175,57.278,9.367
		c11-11.657,12.695-26.063,10.86-41.178c-0.556-4.58-1.571-9.191-4.636-13.697c-1.789,4.267-3.312,8.104-5.885,11.279
		c-2.608,3.223-5.75,6.021-8.272,9.305c-8.341,10.847-25.627,8.587-32.714-0.125C299.294,514.218,291.793,508.37,289.482,497.888z
		 M494.012,241.072c-0.749-1.111,1.094-3.098-1.502-4.175c-4.673-1.942-3.866,2.383-4.344,4.018
		c-10.362,35.468-20.54,70.99-30.723,106.511c-5.637,19.657-11.092,39.368-16.913,58.972c-1.35,4.537,1.35,4.507,4.174,5.747
		c3.694,1.624,3.635-0.613,4.396-2.925c8.611-26.123,17.492-52.156,25.903-78.344c4.865-15.146,11.673-29.737,13.489-45.793
		c0.613-5.417,1.438-10.81,2.113-16.219C491.752,259.69,492.857,250.511,494.012,241.072z M375.282,767.859
		c-0.159,1.341-0.257,1.832-0.271,2.323c-0.191,7.288-2.529,11.025-7.395,11.793c-7.567,1.194-13.524-2.606-16.018-9.236
		c-1.457-3.884,1.076-7.169,0.369-10.739c-0.201-1.015,0.963-2.846-1.562-2.7c-4.447,0.258-9.132,4.806-9.405,9.328
		c-0.42,6.919,1.316,13.635,5.91,18.445c6.646,6.957,9.729,14.938,11.182,24.133c1.059,6.69,3.654,12.976,7.594,18.603
		c4.104,5.863,12.679,9.572,18.101,7.83c5.7-1.832,8.796-7.854,9.308-16.041c0.527-8.479-2.701-15.541-7.219-22.159
		c-4.77-6.99-7.55-14.462-8.027-22.966C377.705,773.902,377.634,770.896,375.282,767.859z M247.429,768.848
		c-1.297,8.543-2.594,15.485-6.229,22.043c-4.752,8.573-9.779,17.15-11.834,26.991c-1.415,6.774,1.188,13.763,6.779,16.706
		c6.458,3.402,13.713,4.287,19.258-2.312c4.15-4.938,6.959-10.646,8.247-16.668c2.91-13.608,8.005-25.919,16.813-36.846
		c4.315-5.353,3.355-9.435-1.667-14.443c-1.626-1.623-3.408-3.058-5.538-3.954c-1.208,1.299-1.512,2.939-1.014,4.287
		c1.376,3.709,0.263,7.309-0.378,10.814c-0.729,3.988-2.93,6.707-7.778,6.604C255.106,781.879,251.218,779.249,247.429,768.848z
		 M380.219,708.72c-10.455,6.534-21.498,12.034-34.828,7.034c0.789,3.771,3.075,6.379,4.555,9.599
		c-2.807-0.268-2.368-3.436-4.902-3.937c0.628,6.512,2.671,12.473,4.438,18.523c2.523,8.64,5.985,17.252,4.006,26.487
		c-0.606,2.84-0.137,5.306,0.682,7.729c1.425,4.228,8.282,7.084,13.59,5.754c4.602-1.154,5.406-4.856,5.223-8.896
		c-0.209-4.559,1.256-8.76,2.572-12.981C380.59,741.877,387.499,725.927,380.219,708.72z M245.426,708.938
		c-2.004,13.09-2.174,25.418,1.32,37.83c1.853,6.582,4.838,13.221,4.115,20.197c-0.945,9.122,1.955,11.684,12.439,13.028
		c4.439,0.57,6.907-1.693,6.627-5.897c-0.887-13.299,4.145-25.058,8.757-37.024c1.739-4.515,3.202-9.328,2.198-14.513
		c-1.555,0.372-2.943,0.704-4.604,1.103c1.879-3.347,5.98-3.928,7.528-7.808C269.677,720.444,257.43,717.002,245.426,708.938z
		 M200.938,425.736c-0.246-7.111-2.359-12.81-3.607-18.622c-7.398-34.464-14.936-68.898-22.517-103.322
		c-2.495-11.326-5.254-22.595-7.911-33.886c-0.225-0.958-0.021-2.838-1.859-1.556c-1.064,0.742-2.574-1.576-3.19,0.757
		c-1.83,6.925-3.2,14.058-1.406,21.01c5.814,22.54,11.873,45.021,18.278,67.398c3.303,11.541,5.684,23.316,11.319,34.271
		c3.482,6.77,3.988,15.032,6.17,22.522C197.256,417.882,197.026,422.077,200.938,425.736z M504.957,180.845
		c-4.238,1.347-6.604,4.438-6.022,8.146c0.576,3.692,4.021,2.378,6.313,2.991c1.58,0.423,3.343,0.401,4.776,1.093
		c3.441,1.66,4.971-0.091,5.706-3.007c1.846-7.322,3.515-14.688,5.28-22.03c1.498-6.227,2.077-12.919,4.856-18.515
		c2.256-4.541,0.04-4.387-2.585-4.427c-3.188-0.049-6.3-0.463-9.372-1.086c-6.096-1.236-4.98,3.882-6.565,6.885
		c-1.942,3.682,1.118,3.896,3.462,4.906c-7.238,2.678-7.525,3.885-3.835,10.925c0.625,1.191,1.175,3.837-2.1,2.71
		c-1.001-0.345-1.448,0.122-1.961,0.9C500.749,173.622,501.528,178.372,504.957,180.845z M131.313,83.158
		c-0.427,3.151,2.37,4.477,2.407,7.213c0.075,5.652-1.088,11.221-1.308,16.842c-0.319,8.167-0.045,16.194,0.873,24.196
		c0.875,7.624,1.28,7.558,8.991,6.594c2.288-0.286,4.435-1.349,6.838-1.047c1.801,0.227,2.193-0.901,2.114-2.497
		c-0.328-6.606-0.617-13.221-2.113-19.692c-2.008-8.684-6.269-16.601-8.755-25.087C138.899,84.702,136.046,83.19,131.313,83.158z
		 M133.548,774.972c8.282-15.094,13.748-30.648,16.498-47.149c0.256-1.535,2.081-3.514,0.304-4.47
		c-1.529-0.82-3.96-0.612-5.765-0.086c-1.637,0.479-3.02,1.941-4.425,3.082C126.045,737.807,126.145,761.42,133.548,774.972z
		 M529.308,93.76c-5.205,1.664-6.514,6.146-8.669,10.517c-5.417,10.979-9.312,22.319-11.164,34.4
		c-0.218,1.423-1.328,3.121,1.215,3.265c4.296,0.243,8.484,1.511,12.854,1.109c1.536-0.141,2.414-0.484,2.755-2.075
		c1.165-5.447,3.649-10.925,2.521-16.441C526.699,114.187,529.722,104.144,529.308,93.76z M480.814,776.205
		c14.7-21.307,4.09-49.049-13.062-54.499C469.293,740.365,477.445,757.172,480.814,776.205z M427.889,774.134
		c3.604-3.086,6.978-5.772,10.104-8.722c2.139-2.016,4.424-4.263,4.022-7.568c-1.191-9.849-3.837-19.358-6.539-29.16
		C424.314,738.312,422.127,759.951,427.889,774.134z M182.926,734.27c-1.721,4.521-3.148,8.141-4.484,11.795
		c-4.573,12.514-3.098,17.41,7.443,25.686c1.725,1.354,2.693,1.22,3.035-0.887C190.946,758.394,191.098,746.195,182.926,734.27z
		 M423.438,791.413c-5.11,9.562,1.321,16.715,5.124,24.259c0.99,1.966,2.985,1.873,3.868-1.231
		c1.535-5.402-1.146-10.475-0.671-15.742c0.042-0.462-0.68-1.083-1.166-1.487C428.309,795.312,425.981,793.465,423.438,791.413z
		 M191.591,793.251c-2.724,2.209-5.429,4.062-7.714,6.337c-3.081,3.066-4.246,6.896-2.849,11.176
		c0.536,1.644,0.891,4.008,3.015,3.938c1.422-0.046,1.283-2.339,1.959-3.565c1.101-1.994,2.126-4.037,3.34-5.961
		C191.587,801.617,192.745,797.894,191.591,793.251z M525.93,159.939c-2.403,7.281-4.808,14.563-5.268,22.316
		C523.891,175.174,524.795,167.528,525.93,159.939z M520.682,184.562c-0.404-0.115-0.812-0.229-1.221-0.344
		c-0.961,3.165-1.921,6.331-3.15,10.383C520.745,191.698,520.387,188.009,520.682,184.562z"/>
</g>
</svg>
