<?xml version="1.0" encoding="utf-8"?>
<!-- Generator: Adobe Illustrator 16.2.1, SVG Export Plug-In . SVG Version: 6.00 Build 0)  -->
<!DOCTYPE svg PUBLIC "-//W3C//DTD SVG 1.1//EN" "http://www.w3.org/Graphics/SVG/1.1/DTD/svg11.dtd">
<svg version="1.1" id="_x39_FvACBs6ozYJjAxpgAaxp7Ql9ZiakVS0kmN5wapclIE_xA0_Image_1_"
	 xmlns="http://www.w3.org/2000/svg" xmlns:xlink="http://www.w3.org/1999/xlink" x="0px" y="0px" width="640px" height="960px"
	 viewBox="0 0 640 960" enable-background="new 0 0 640 960" xml:space="preserve">
<g>
	<path d="M232.449,507.369c8.757-5.119,16.753-10.221,26.167-12.708c7.392-1.953,14.748-1.837,22.186-1.625
		c2.704,0.077,4.011-0.053,3.458-3.606c-3.436-22.087,14.128-38.716,29.374-41.859c25.731-5.307,48.196,13.892,47.372,36.16
		c-0.043,1.164,0.075,2.34-0.021,3.497c-0.24,2.887,0.175,3.538,3.754,3.299c9.671-0.649,19.025,2.06,27.83,5.862
		c4.521,1.953,5.402,0.845,6.585-3.437c4.449-16.123,9.324-32.13,14.208-48.13c0.84-2.751,1.4-4.89-1.59-6.644
		c-1.788-1.049-1.714-2.479-0.993-4.642c6.807-20.418,15.891-39.966,23.954-59.847c6.86-16.917,11.032-34.415,16.548-51.599
		c5.613-17.49,10.507-35.215,15.66-52.853c6.618-22.656,14.108-45.115,19.43-68.074c3.309-14.277,9.048-28.483,9.457-42.837
		c0.459-16.124,6.344-30.463,9.24-45.696c0.441-2.328,1.405-4.568,3.976-5.214c1.904-0.479,2.21-1.934,2.38-3.309
		c1.66-13.4,6.915-25.579,12.06-37.901c2.301-5.514,6.14-8.18,11.155-10.929c1.347,7.342-0.792,14.14-0.768,21.008
		c0.036,10.461,1.453,21.086-2.22,31.305c-0.109,0.303-0.477,0.703-0.384,0.862c6.903,11.883-0.396,22.604-3.233,33.411
		c-4.924,18.749-8.663,37.762-13.371,56.519c-3.89,15.495-3.132,31.072-4.651,46.589c-1.907,19.493-2.733,39.065-4.133,58.594
		c-1.363,19.037-2.71,38.07-3.99,57.112c-1.346,20.017-3.268,39.991-4.846,59.992c-1.096,13.882-1.799,27.8-3.106,41.661
		c-1.666,17.655-2.756,35.346-4.067,53.024c-1.326,17.855-2.877,35.693-3.941,53.574c-0.629,10.573-1.933,21.106-2.857,31.665
		c-0.188,2.118-0.125,4.182,0.854,6.284c4.335,9.296,5.507,19.362,5.958,29.396c0.493,10.976,0.14,21.993-0.041,32.99
		c-0.043,2.648,0.598,4.764,2.175,6.847c10.565,13.945,11.25,29.896,9.281,46.375c-0.55,4.597-1.415,9.104-2.979,13.478
		c-0.321,0.898-0.504,2.085-0.19,2.933c2.688,7.274-0.729,13.597-3.222,19.948c-1.312,3.339-4.078,5.699-8.094,4.562
		c-1.677-0.477-2.104,0.576-2.814,1.306c-2.211,2.272-4.84,3.05-7.698,1.819c-1.46-0.629-2.1-0.188-2.918,0.765
		c-0.429,0.498-0.977,0.901-1.502,1.308c-1.369,1.055-3.849,2.25-4.491,1.265c-3.736-5.733-10.314,0.365-14.145-3.729
		c-0.979-1.045-1.522-2.597-1.233-4.182c0.729-4.003-1.385-6.512-4.794-9.051c0.146,3.271,1.532,6.013-0.05,8.855
		c-1.259,2.262-3.014,3.771-5.324,3.898c-2.413,0.135-3.74-2.004-4.43-4.086c-2.554-7.727-5.545-15.214-2.749-23.838
		c1.317-4.063,0.517-8.94,0.139-13.403c-1.483-17.537,0.798-34.476,12.48-48.061c5.54-6.44,6.332-11.564,3.951-19.008
		c-2.235-6.983-1.839-14.571-1.055-21.777c0.86-7.891-2.782-12.021-8.857-15.967c-6.781-4.404-14.066-7.965-20.481-13.022
		c-10.651-8.397-19.284-18.029-23.121-31.412c-0.776-2.713-1.751-5.621-4.208-7.906c-2.485,9.608-5.104,18.854-7.194,28.216
		c-0.943,4.223,1.19,8.388,1.938,12.55c1.855,10.344,4.441,20.555,6.462,30.873c0.965,4.927,0.207,9.859-1.125,14.721
		c-3.867,14.124-6.982,28.447-9.322,42.875c-1.685,10.38-0.367,21.027,3.002,30.912c7.226,21.193,5.109,41.854-1.571,62.567
		c-2.567,7.964-4.799,16.03-6.403,24.257c-0.318,1.635-0.812,3.318,0.807,4.589c3.392,2.661,3.842,6.667,3.791,10.325
		c-0.24,17.062,2.479,33.473,8.646,49.45c2.016,5.221,3.459,10.896,1.689,16.94c-1.172,4.002-3.27,6.827-6.637,8.758
		c-8.74,5.014-17.938,6.236-27.646,2.994c-4.943-1.649-8.088-4.972-9.838-9.727c-3.223-8.762-1.916-17.798-0.709-26.583
		c0.914-6.657,0.51-12.815-1.981-18.886c-1.37-3.339-1.797-6.39-0.75-10.059c0.882-3.083,0.257-6.607,0.224-9.937
		c-0.028-3.158-0.362-6.479,1.722-9.092c5.655-7.087,3.603-15.258,2.93-22.938c-1.364-15.587-7.079-30.332-9.892-45.671
		c-1.029-5.615-1.09-11.289-0.76-16.886c0.312-5.287-0.514-9.971-2.844-14.74c-6.597-13.506-10.308-27.685-10.191-42.924
		c0.062-8.164-3.307-15.693-7.534-22.686c-0.68-1.125-1.552-2.47-3.043-2.189c-1.707,0.32-1.897,1.959-2.325,3.451
		c-1.909,6.652-0.439,13.567-1.866,20.295c-2.655,12.528-2.963,25.559-7.148,37.738c-3.357,9.77-6.361,19.116-6,29.941
		c0.479,14.354-5.089,28.016-9.375,41.648c-3.53,11.229-5.981,22.798-1.773,33.979c3.429,9.107,3.712,18.171,2.95,27.312
		c-0.659,7.915-2.071,15.781-1.692,23.758c0.219,4.617,0.485,9.3,1.431,13.806c3.016,14.365-4.17,23.886-18.993,23.887
		c-6.373,0-12.729-1.112-18.847-3.573c-9.104-3.663-12.634-13.925-11.312-22.01c1.339-8.189,4.69-15.737,6.937-23.63
		c2.784-9.78,3.581-19.786,4.691-29.775c0.335-3.016,1.643-5.492,2.783-8.211c2.073-4.943,2.86-10.435,1.983-15.922
		c-2.155-13.485-5.27-26.768-8.724-39.967c-4.195-16.03-0.502-31.021,5.806-45.686c0.451-1.05,1.232-1.912,1.205-3.187
		c-0.332-15.484,1.627-31.105-4.66-46.114c-2.634-6.287-4.635-12.966-5.404-19.925c-1.761-15.919,1.161-31.259,5.399-46.437
		c1.371-4.909,3.177-9.709,5.013-14.47c0.64-1.66,0.848-3.267,0.491-4.859c-0.572-2.556-1.322-5.091-2.234-7.545
		c-4.555-12.256-6.829-12.872-17.051-4.41c-7.793,6.451-15.207,13.383-23.218,19.544c-10.276,7.904-22.478,12.363-34.216,17.53
		c-3.943,1.734-4.56,4.163-4.024,7.751c1.878,12.585,1.125,25.126-0.855,37.617c-0.318,2.004-0.083,3.422,1.491,4.848
		c11.577,10.48,15.914,24.005,17.516,39.177c0.947,8.971,0.001,17.404-1.971,25.994c-1.001,4.362,0.097,8.949-0.933,13.41
		c-0.512,2.22-1.228,4.097-3,5.487c-2.381,1.868-4.097,4.197-5.613,6.828c-2.28,3.959-7.179,4.093-8.905,0.024
		c-2.12-4.996-4.421-2.302-6.752-0.739c-1.218,0.816-2.096,2.123-3.196,3.134c-0.863,0.793-2.187,1.938-3.051,1.298
		c-4.271-3.154-9.159-1.624-13.753-2.244c-1.35-0.182-2.24-1.449-2.659-2.725c-0.496-1.51-1.357-2.08-2.917-1.945
		c-2.573,0.224-4.527-0.699-5.563-3.23c-0.412-1.006-1.282-1.487-2.378-1.481c-4.318,0.025-5.959-3.027-6.144-6.435
		c-0.344-6.34-2.353-12.592,0.061-19.13c1.862-5.045-0.641-10.429-0.738-15.718c-0.211-11.511,0.628-23.16,7.917-32.064
		c6.465-7.897,5.097-15.521,3.962-23.936c-2.682-19.896-3.805-39.645,7.597-57.687c1.208-1.911,0.74-3.864,0.755-5.793
		c0.419-53.15,0.707-106.301,1.197-159.45c0.606-65.813,2.036-131.631,1.58-197.437c-0.106-15.312,0.34-30.982-2.471-46.391
		c-1.688-9.246-1.672-18.816-2.208-28.253c-0.133-2.341-0.128-3.952-3.056-4.484c-2.047-0.372-3.893-1.771-4.012-4.417
		c-0.643-14.273-1.315-28.546-2.011-42.817c-0.105-2.152,0.468-4.096,2.231-5.238c2.149-1.394,2.103-3.421,1.713-5.288
		c-3.127-14.989-1.556-30.161-1.917-45.255c-0.052-2.163,0.088-4.292-1.224-6.237c-1.515-2.245-0.794-3.218,1.904-3.273
		c4.824-0.1,8.75,2.566,10.38,7.116c1.546,4.317,3.028,8.678,4.923,12.845c4.808,10.57,5.688,21.916,6.965,33.2
		c0.11,0.977-0.066,2.457,0.488,2.84c7.403,5.115,5.716,13.678,4.84,19.702c-1.394,9.592,1.6,18.596,0.778,27.882
		c-0.24,2.71-2.793,6.434,2.406,7.811c0.54,0.144,0.33,2.775,0.629,4.22c1.286,6.184,1.814,12.419,1.944,18.741
		c0.313,15.242,3.331,30.244,4.529,45.378c2.197,27.762,11.035,54.056,16.527,81.075c5.491,27.014,11.896,53.842,17.909,80.749
		c0.178,0.796,0.2,1.891,0.724,2.305c6.514,5.147,5.656,12.593,6.269,19.596c0.806,9.21,3.496,18.031,5.815,26.908
		c2.546,9.748,4.245,19.612,5.164,29.627c0.09,0.988,0.301,2.693-0.109,2.891c-7.067,3.396-3.011,9.412-2.604,13.773
		C228.337,484.07,229.474,495.587,232.449,507.369z M384.842,600.704c-1.238,2.336-2.088,3.722-2.736,5.196
		c-2.438,5.536-6.355,9.343-12.094,11.557c-10.916,4.211-21.646,8.829-31.957,14.448c-7.59,4.137-16.045,4.021-24.215,2.524
		c-14.157-2.592-26.697-9.341-38.61-17.074c-7.825-5.08-14.36-11.589-17.114-21.189c-9.223,26.334-15.115,52.688-2.117,79.958
		c3.118-5.231,6.859-9.576,13.062-11.178c8.697-2.245,16.222,0.966,23.621,4.698c7.059,3.562,12.186,9.365,16.938,16.236
		c1.558-7.023,2.688-13.35,2.339-19.814c-0.165-3.049,0.446-5.954,1.161-8.819c0.447-1.794,0.938-3.887,3.453-4.319
		c2.581-0.442,3.934,0.902,5.247,2.828c1.119,1.639,1.462,3.947,3.763,5.032c0.621-4.005,2.371-7.151,4.804-9.912
		c7.002-7.949,15.965-12.362,26.084-15.131c6.395-1.75,11.283,0.352,15.096,4.798c4.822,5.626,9.152,11.712,12.705,18.271
		c1.117,2.061,2.427,4.142,0.91,7.681c-3.095-9.573-9.002-16.443-14.197-23.759c-3.293-4.638-8.279-6.159-13.887-5.068
		c-6.656,1.296-12.461,4.414-18.014,7.979c-6.831,4.385-12.833,10.433-11.764,18.843c1.141,8.976,2.107,17.944,3.117,26.935
		c1.494,13.307,6.328,25.793,12.912,37.538c1.489,2.658,2.533,5.567,3.978,8.793c-2.685-0.562-2.265-3.117-4.413-3.628
		c-0.184,6.799-0.594,13.423,0.839,19.938c2.854,12.977,6.226,25.85,8.726,38.892c1.865,9.721,3.035,19.612-0.151,29.44
		c-1.322,4.077,1.354,7.303,6.008,7.583c6.015,0.361,11.778-0.979,17.486-2.723c2.542-0.776,3.403-1.85,2.454-4.7
		c-1.012-3.04-1.426-6.131-0.723-9.65c1.812-9.05,4.477-17.832,7.111-26.629c5.197-17.345,7.616-34.738,2.332-52.559
		c-2.434-8.208-4.498-16.507-5.029-25.135c-0.816-13.254,3.219-25.762,5.514-38.55c1.707-9.523,6.353-18.603,5.412-28.477
		C391.602,628.012,387.227,615.032,384.842,600.704z M471.596,589.706c0.21-1.634,0.345-2.245,0.358-2.86
		c0.355-14.306,0.267-28.64,1.192-42.908c0.668-10.315,0.465-20.639,1.118-30.935c1.634-25.715,1.438-51.513,3.684-77.203
		c1.01-11.561,1.347-23.178,2.188-34.755c1.19-16.376,2.666-32.73,3.827-49.109c0.856-12.09,1.225-24.215,2.133-36.299
		c1.492-19.837,3.406-39.643,4.778-59.486c0.344-4.976,0.676-9.997,0.876-15.024c-0.738,0.813-1.302,1.622-1.582,2.519
		c-12.067,38.656-24.089,77.327-36.175,115.977c-2.256,7.214-3.011,14.925-5.317,21.894c-3.802,11.484-6.033,23.387-10.092,34.845
		c-2.702,7.63-4.593,16.059-6.193,24.271c-0.556,2.855-1.607,4.085-4.528,3.515c-1.957-0.382-3.251-0.041-4.116,2.309
		c-6.531,17.725-13.246,35.383-19.967,53.037c-0.435,1.14-1.104,2.096,0.111,3.055c10.038,7.909,15.549,20.01,25.35,27.973
		c10.843,8.81,17.954,20.202,24.93,31.874C459.542,571.379,463.794,581.089,471.596,589.706z M165.797,568.202
		c5.382-5.222,11.079-10.073,15.976-15.629c13.144-14.912,28.101-27.756,43.851-39.759c2.029-1.548,2.54-3.201,1.87-5.995
		c-3.064-12.777-5.697-25.657-8.497-38.498c-0.556-2.55-0.079-5.862-4.422-5.545c-1.031,0.074-1.397-1.148-1.57-2.229
		c-1.303-8.119-2.702-16.224-3.994-24.345c-2.17-13.634-4.212-27.294-8.103-40.578c-0.52-1.771-0.463-3.681-1.024-5.287
		c-1.475-4.224,1.554-7.902,0.403-12.349c-8.713-33.658-16.929-67.445-25.352-101.18c-1.969-7.888-4.137-15.725-6.213-23.585
		c-1.179,52.441,0.59,104.73-1.596,157.015c-1.071,25.615-0.813,51.285-1.173,76.931c-0.026,1.831-0.18,3.659-0.286,5.488
		c-1.441,24.805-0.351,49.629-0.593,74.441C165.072,567.347,165.387,567.596,165.797,568.202z M364.994,496.055
		c-3.383,2.455-5.049,4.528-5.014,7.683c0.033,2.858-0.66,5.56-1.793,8.146c-1.172-0.527-1.31-1.302-1.121-1.857
		c1.563-4.652,0.863-9.544,1.508-14.306c0.861-6.379,1.146-12.937-0.186-19.335c-3.128-15.043-18.644-28.846-38.942-27.551
		c-17.4,1.11-33.595,16.791-33.373,34.171c0.091,7.095,0.594,14.211,1.779,21.252c0.254,1.51,0.92,3.46-1.304,4.938
		c-1.089-3.546-0.1-7.378-2.874-9.99c-0.811-0.765-1.47-2.259-2.689-1.896c-1.602,0.479-1.379,2.274-1.079,3.416
		c1.783,6.789,3.669,13.556,5.736,20.263c0.286,0.928,1.429,2.202,3.464,1.519c-1.057-2.343-1.525-4.65-0.775-7.014
		c1.356,0.427,1.509,1.367,1.672,2.406c1.071,6.812,1.726,13.823,3.466,20.367c3.567,13.412,13.699,22.441,24.474,30.283
		c4.167,3.032,9.434,2.006,14.021-0.939c6.32-4.061,10.312-10.201,14.79-15.932c4.897-6.269,8.377-12.899,7.376-21.342
		c-0.354-2.987,0.704-6.173,1.334-9.224c0.152-0.738,0.299-2.144,1.787-1.935c1.648,0.231-0.518,2.267,1.839,2.632
		C360.253,513.289,366.639,506.022,364.994,496.055z M279.286,495.215c-2.286-0.703-4.257-0.545-6.253-0.533
		c-14.126,0.085-26.199,5.788-37.644,13.417c-25.771,17.179-46.486,39.954-68.334,61.482c-1.697,1.671-2.085,3.584-2.087,5.859
		c-0.013,19.646-0.163,39.296-0.143,58.941c0.007,6.962,2.087,13.652,3.205,20.469c0.469,2.855,3.175,3.386,5.172,3.714
		c1.002,0.164,1.701-2.37,1.813-4.062c0.188-2.812,0.771-5.616,0.772-8.424c0.001-8.781,0.816-17.548-0.533-26.358
		c-0.632-4.129-2.343-8.248-1.424-13.206c1.551,7.158,4.915,4.947,8.738,2.742c3.266-1.883,6.911-3.104,10.379-4.639
		c11.863-5.253,22.785-11.744,32.179-21.001c7.644-7.532,16.373-13.912,26.162-18.698c8.569-4.189,8.483-4.359,14.716,2.946
		c0.134,0.157,0.534,0.089,0.715,0.112c1.013-5.091,1.488-10.202,1.292-15.383c-0.41-10.815,1.343-21.356,3.94-31.822
		c1.922-7.742,7.796-14.439,6.123-23.156C277.957,496.99,278.772,496.188,279.286,495.215z M453.27,619.145
		c-1.618,15.176-2.531,29.943,1.479,44.688c1.028,3.775,1.979,3.044,4.454,2.184c2.444-0.85,3.076-2.803,3.506-4.81
		c4.573-21.319,9.684-42.568,8.354-64.664c-0.143-2.381-0.459-4.328-1.986-6.348c-5.082-6.722-9.324-13.973-13.484-21.322
		c-7.807-13.795-15.485-27.787-28.675-37.588c-2.61-1.939-4.864-4.47-6.743-7.297c-10.545-15.863-24.1-27.537-43.665-30.441
		c-4.53-0.673-9.079-1.852-13.747-0.613c-1.099,0.291-1.938,0.461-1.758,1.78c0.051,0.362-0.062,0.775,0.775,0.831
		c5.943,0.392,6.502,1.129,5.253,7.296c-0.582,2.871-0.195,5.252,1.376,7.852c5.834,9.645,9.193,19.97,8.705,31.501
		c-0.241,5.69,0.705,11.435,1.131,17.376c5.597-4.261,5.765-4.207,10.262-0.569c5.401,4.369,9.365,9.619,11.553,16.329
		c2.73,8.38,7.17,15.52,13.441,22.114c10.727,11.277,25.62,16.213,36.706,26.642C451.642,622.469,450.103,619.886,453.27,619.145z
		 M257.361,723.213c-4.946,11.639-7.991,22.482-7.054,33.744c0.688,8.277,3.416,16.375,5.108,24.579
		c2.615,12.676,7.113,25.104,4.653,38.442c-0.718,3.896-0.265,8.082,4.545,9.137c5.409,1.187,10.836,2.793,16.575,1.224
		c4.299-1.176,5.957-3.33,5.07-7.865c-1.497-7.661-1.933-15.373-0.53-23.176c2.188-12.163,6.988-23.581,9.752-35.594
		c2.102-9.136,2.746-18.224,2.765-27.525c0.004-2.068-3.67-1.755-1.562-4.53c7.206-9.485,9.258-20.956,11.093-32.31
		c0.792-4.897,2.5-9.74-1.571-14.998c-7.852-10.139-17.689-16.112-30.073-18.221c-8.76-1.492-22.715,8.624-18.073,19.194
		c0.98,2.23,0.953,4.507,0.955,6.817c0.011,11.489,0.013,22.979-0.012,34.467c0,0.183-0.373,0.361-0.688,0.647
		C258.085,726.271,257.873,725.373,257.361,723.213z M472.873,601.828c-0.186,13.14-0.213,26.309-1.897,39.346
		c-0.599,4.626-1.283,9.189-0.853,13.81c0.445,4.773,1.271,9.513,1.939,14.266c0.135,0.956,0.028,2.495,1.193,2.419
		c3.281-0.217,6.888,2.727,9.036,1.352c1.821-1.164,0.813-5.534,0.295-8.487c-0.086-0.487-0.324-0.946-0.438-1.432
		c-1.023-4.331-2.846-8.658-2.894-13.004c-0.118-10.968,0.282-21.962,0.991-32.911c1.008-15.558,2.562-31.08,3.724-46.629
		c0.842-11.256,1.295-22.542,2.155-33.796c1.529-20.019,3.26-40.021,4.859-60.034c1.085-13.57,2.06-27.15,3.139-40.724
		c1.593-20.023,3.369-40.034,4.819-60.068c1.533-21.201,2.673-42.433,4.181-63.638c1.495-21.02,3.455-42.007,4.793-63.035
		c0.938-14.74,1.538-29.501,3.074-44.197c0.301-2.878-0.526-4.437-3.547-5.432c-9.608-3.166-11.138-2.011-11.514,8.182
		c-0.396,10.776-1.247,21.54-2.047,32.298c-1.229,16.531-2.626,33.05-3.871,49.579c-0.811,10.758-1.454,21.528-2.214,32.291
		c-1.249,17.715-2.56,35.426-3.791,53.143c-0.759,10.932-1.337,21.877-2.143,32.805c-1.221,16.557-2.859,33.086-3.774,49.658
		c-0.771,13.957-0.343,27.984-1.235,41.93c-0.674,10.488-0.636,20.973-1.07,31.451C474.804,554.587,473.843,578.207,472.873,601.828
		z M167,291.432c-0.218,0-0.436,0-0.653,0c0-6.164,0.031-12.329-0.006-18.492c-0.098-16.328-0.199-32.655-0.391-48.982
		c-0.015-1.26,0.981-3.554-1.118-3.669c-4.216-0.232-7.046,3.718-11.244,4.336c-1.375,0.202-0.533,3.291-0.552,5.038
		c-0.621,54.144-1.232,108.287-1.758,162.433c-0.793,81.63-1.579,163.263-2.167,244.895c-0.046,6.475,0.353,12.85-1.539,19.158
		c-0.86,2.866-1.589,6.364,0.262,8.646c1.08,1.33,4.014-1.716,6.021-1.279c3.867,0.845,4.156-1.169,4.177-3.995
		c0.008-1.145,0.475-2.278,0.528-3.428c0.324-7.014,3.801-13.422,4.066-20.392c0.342-8.98,0.222-17.979,0.339-26.968
		c0.481-36.982-0.316-73.964,0.675-110.954c1.311-48.946,1.969-97.911,3.273-146.862C167.44,331.1,167,311.26,167,291.432z
		 M365.578,509.789c-2.912,3.73-2.812,8.107-4.487,11.812c-0.411,0.912,0.208,1.846,0.769,2.747
		c6.38,10.271,6.164,21.368,3.472,32.529c-5.31,22.01-28.569,31.972-45.701,30.801c-29.109-1.987-49.468-26.919-37.603-58.041
		c1.293-3.394,3.12-6.505,1.062-10.43c-1.656-3.158-1.304-7.188-3.691-10.491c-2.195,3.06-3.4,6.093-4.43,9.239
		c-4.222,12.891-5.05,26.152-5.117,39.623c-0.036,7.301,0.168,15.144-5.88,20.896c-1.717,1.634-0.366,2.786,0.318,3.863
		c5.231,8.244,10.517,16.512,17.555,23.342c9.427,9.149,20.857,13.938,34.073,13.198c6.558-0.366,13.042-1.938,19.571-2.881
		c22.275-3.213,37.068-15.936,46.049-36.104c0.887-1.99,1.544-3.452-1.121-4.991c-3.161-1.828-4.385-5.081-4.458-8.873
		c-0.203-10.481-0.295-20.982-1.058-31.432C374.244,525.634,370.421,517.639,365.578,509.789z M257.727,825.962
		c-1.418,2.014-1.525,3.933-1.808,5.914c-0.978,6.87-1.203,13.808-2.489,20.669c-1.769,9.439-5.372,18.276-7.958,27.438
		c-3.161,11.196-1.023,19.602,6.424,23.888c7.359,4.234,15.478,5.229,23.892,4.432c13.612-1.291,15.552-10.646,13.894-20.514
		c-2.117-12.594-2.253-25.042,0.098-37.551c0.977-5.197,0.108-17.699-1.567-21.645C280.136,835.497,264.881,834.305,257.727,825.962
		z M475.666,747.266c-0.002,3.938,1.021,7.762-0.304,11.513c-0.96,2.721-0.356,5.203,2.507,6.063
		c2.78,0.837,5.187-0.784,5.644-3.493c1.265-7.503,4.833-14.74,2.928-22.689c1.345,2.903,3.279,5.481,1.772,9.125
		c-1.175,2.842-1.664,6.013-2.116,9.088c-0.247,1.683-0.854,3.979,1.329,4.88c1.979,0.816,3.455-0.755,4.667-2.104
		c0.753-0.84,1.246-1.949,1.718-2.999c3.529-7.864,3.802-15.682,0.809-23.942c-3.188-8.792-6.468-17.645-5.854-27.379
		c0.228-3.572-0.522-7.274-1.268-10.826c-1.873-8.935-8.735-13.33-16.393-16.268c-5.29-2.029-13.506,3.916-12.06,8.29
		c1.831,5.531,0.675,11.237,0.931,16.859c0.261,5.708-1.808,10.356-6.835,13.376c-2.178,1.308-3.431,2.856-3.134,5.609
		c1.419,13.138,4.088,26.146,4.021,39.438c-0.012,2.067,0.442,4.3,3.149,4.068c2.082-0.178,3.768-0.868,3.946-3.89
		c0.354-5.973,1.439-11.899,2.222-17.847c0.401,3.994,1.04,7.92,0.019,11.874c-0.66,2.557-0.838,5.281,0.182,7.851
		c0.871,2.193,1.941,4.562,4.845,4.05c2.53-0.446,3.936-1.969,4.78-4.841C474.721,757.82,472.652,752.104,475.666,747.266z
		 M156.117,732.599c1.554,2.901,1.974,5.263,1.903,7.775c-0.085,2.995,0.033,5.996-0.034,8.992
		c-0.052,2.339,0.526,4.638,2.735,5.399c2.428,0.84,3.805-1.411,5.159-3.066c1.826-2.23,2.581-4.952,3.084-7.684
		c1.232-6.691,3.369-13.006,6.86-18.881c4.403-7.408,6.925-14.91,0.46-22.612c-0.695-0.827-0.909-2.074-1.292-3.146
		c-1.969-5.498-0.73-11.192-0.923-16.793c-0.092-2.657-0.772-4.749-2.607-6.696c-4.572-4.854-14.042-7.118-19.964-3.479
		c-3.267,2.008-6.941,4.656-5.863,10.348c1.591,8.405-0.664,16.397-5.467,23.527c-2.4,3.562-4.953,7.027-7.527,10.469
		c-5.84,7.809-2.684,16.166-1.514,24.384c0.175,1.229,1.339,1.889,2.646,1.831c1.942-0.084,1.26-1.558,1.262-2.6
		c0.011-4.329-0.016-8.659-0.033-12.989c-0.012-2.92,0.913-5.349,4.11-7.471c-4.084,8.587-2.396,16.678-0.851,24.713
		c0.433,2.252,1.986,3.607,4.708,3.428c2.871-0.188,1.564-2.275,2.078-3.602c1.665-4.288,0.085-8.785,0.817-13.147
		c2.085,5.289,0.802,10.724,1.111,16.062c0.164,2.831-0.451,5.868,4.096,5.688c4.143-0.165,5.27-2.26,5.096-6.038
		C155.957,742.449,156.117,737.872,156.117,732.599z M348.941,825.344c0,6.295,0.744,11.364-0.224,16.083
		c-0.862,4.207-0.27,7.64,1.169,11.437c2.192,5.79,2.312,11.721,1.561,17.996c-1.014,8.449-2.393,17.075,0.459,25.589
		c1.547,4.616,4.433,7.6,8.996,9.047c8.436,2.673,16.586,1.812,24.369-2.252c6.058-3.163,8.805-8.751,7.506-15.298
		c-0.768-3.87-1.506-7.828-2.967-11.463c-6.008-14.959-8.059-30.521-7.845-46.506c0.019-1.391,0.576-2.959-0.618-4.23
		C372.182,833.742,355.691,834.19,348.941,825.344z M364.994,544.146c0.24-4.701-0.725-9.253-2.153-13.652
		c-0.827-2.548-1.745-6.423-4.725-6.044c-1.912,0.243-2.111,4.255-2.128,6.877c-0.027,4.104,0.507,8.26-1.709,12.11
		c-4.812,8.356-10.174,16.352-17.252,22.914c-8.754,8.117-17.736,7.701-26.186-0.7c-2.714-2.699-5.286-5.539-7.97-8.27
		c-6.633-6.744-12.153-13.99-11.956-24.153c0.038-1.932-0.618-3.882-1.014-5.812c-0.243-1.186-0.762-2.188-2.16-2.373
		c-1.507-0.2-2.066,0.888-2.517,1.95c-5.524,13.039-7.563,26.376,0.6,38.843c9.766,14.913,23.851,21.986,41.968,19.136
		C348.718,581.681,365.209,568.301,364.994,544.146z M447.422,374.133c0.827-2.214,1.657-4.15,2.283-6.15
		c12.113-38.719,24.262-77.426,36.251-116.183c2.423-7.831,6.089-15.382,6.92-23.585c0.835-8.233,0.999-16.536,1.96-24.78
		c0.238-2.044,1.36-4.614-2.697-5.668c-4.551-1.183-3.479,2.589-3.854,3.865c-15.231,52.17-30.176,104.423-45.426,156.587
		c-1.815,6.212-3.615,11.635,3.529,15.437C446.535,373.732,446.688,373.794,447.422,374.133z M210.933,380.315
		c-5.322-23.747-10.562-47.46-15.962-71.138c-6.232-27.328-12.609-54.623-18.903-81.938c-0.291-1.265-0.021-2.86-1.706-3.251
		c-1.607-0.372-1.998,1.139-2.942,2.008c-5.83,5.366-4.492,12.672-2.911,18.251c7.588,26.774,11.612,54.488,22.269,80.494
		c6.091,14.864,8.491,30.994,11.163,46.874C202.785,376.641,202.997,382.095,210.933,380.315z M521.212,121.301
		c5.6,0.147,6.118-3.738,7.332-6.796c0.947-2.386,0.862-4.116-2.723-4.715c-4.11-0.686-8.243-0.845-12.348-1.246
		c-4.146-0.405-8.907,4.974-6.937,7.866c1.746,2.562,0.648,1.627-0.723,3.17c-2.457,2.766-0.739,7.561-1.59,10.727
		c-0.972,3.621-4.974,6.685-3.611,11.222c0.314,1.053,0.855,0.969-0.319,1.777c-3.276,2.255-2.753,6.277-2.83,9.372
		c-0.057,2.291,3.604,2.018,5.84,2.415c2.753,0.489,5.47,1.188,8.19,1.843c6.148,1.481,6.872,0.822,8.095-5.415
		c0.588-2.999-1.964-3.736-3.31-5.539c5.147-0.598,6.99-3.389,6.069-8.35c-0.357-1.927-2.038-4.144,0.146-5.834
		C526.442,128.739,526.468,125.234,521.212,121.301z M139.223,38.021c1.752,3,1.737,5.636,1.799,8.306
		c0.313,13.578-0.724,27.172,0.901,40.744c0.87,7.269,1.133,7.766,8.351,6.258c3.169-0.662,7.436,0.442,9.265-2.205
		c1.952-2.825-0.389-6.718-0.54-10.169c-0.101-2.305-0.094-4.577-0.517-6.907c-1.924-10.609-6.874-20.163-10.107-30.297
		C146.88,39.063,143.953,38.273,139.223,38.021z M381.629,602.41c-10.1,7.742-19.793,13.062-30.123,17.223
		c-7.525,3.029-15.445,5.53-23.457,5.07c-12.632-0.728-25.25-2.607-37.29-6.831c-12.205-4.282-22.623-10.713-26.961-24.052
		c-0.635-1.951-1.41-4.349-3.556-5.854c-0.473,8.412,1.771,14.341,7.202,20.006c10.362,10.81,23.669,16.646,37.234,21.94
		c9.118,3.558,19.062,5.435,28.104,1.697c13.659-5.646,26.999-12.143,40.562-18.096C377.374,611.746,379.221,607.605,381.629,602.41
		z M532.37,59.45c-1.683,2.36-5.352,1.608-6.421,4.867c-4.115,12.532-11.245,24.062-12.331,37.62
		c-0.152,1.906-1.686,4.697,1.38,4.473c5.021-0.368,10.229,4.399,14.949-0.367c0.798-0.806,0.687-2.49,1.047-3.755
		c1.772-6.237,1.896-12.519,1.061-18.942C531.029,75.474,533.604,67.618,532.37,59.45z M147.475,595.101
		c-10.99,14.074-7.941,46.315-3.128,66.076c0.461-6.329,4.354-12.146,3.481-18.461c-1.29-9.334-0.407-18.576-0.36-27.859
		C147.501,608.308,147.475,601.76,147.475,595.101z M483.538,610.916c-1.663,1.506-1.489,2.929-1.495,4.183
		c-0.041,8.478-0.194,16.932-0.913,25.399c-0.446,5.256-1.294,10.712,1.254,15.894c1.603,3.259,2.242,6.875,2.602,10.494
		c0.135,1.359,0.11,3.021,1.88,2.896c1.692-0.122,0.901-1.932,0.92-2.835c0.172-8.479,0.179-16.961,0.213-25.442
		C488.04,631.224,486.578,621.169,483.538,610.916z M456.455,687.044c-5.577,8.991-7.189,18.461-6.168,28.845
		C457.961,711.468,461.104,696.457,456.455,687.044z M437.423,737.883c-4.415,8.117-0.501,15.203,1.742,22.364
		c0.426,1.358,0.861,3.742,2.969,3.369c2.028-0.358,3.286-2.195,3.751-4.248c0.292-1.29-0.18-2.588-0.383-3.896
		C444.48,748.888,439.693,744.156,437.423,737.883z M377.934,567.255c0.191,1.896,1.01,4.08,2.727,5.71
		c0.986,0.938,2.455,2.127,3.434-0.335c1.336-3.363,2.561-6.792,2.84-10.383c0.219-2.831-1.949-4.476-4.254-3.172
		C380.023,560.576,378.018,563.252,377.934,567.255z M190.94,734.466c-2.497,3.32-4.022,5.868-6.058,7.907
		c-2.069,2.073-4.634,3.654-6.997,5.431c-1.273,0.957-2.178,2.14-1.743,3.779c0.344,1.296,1.03,2.357,2.699,2.431
		c1.774,0.078,2.803-0.814,3.473-2.244c0.917-1.959,1.762-4.108,3.674-5.163C190.515,744.11,190.857,739.984,190.94,734.466z
		 M259.113,564.1c-1.951-0.173-2.073,0.772-2.106,1.851c-0.126,4.019,2.008,7.191,3.903,10.445c0.739,1.27,1.684,0.85,2.366-0.025
		c1.24-1.59,3.394-2.949,1.957-5.467C263.61,568.062,262.182,565,259.113,564.1z M179.792,703.488
		c0.471-8.771-0.741-14.602-3.79-18.479C176.346,691.252,174.525,697.686,179.792,703.488z M408.277,472.123
		c-0.362-0.115-0.726-0.23-1.087-0.346c-2.745,9.265-5.491,18.529-8.236,27.796c0.515,0.148,1.03,0.299,1.545,0.447
		C403.092,490.723,405.685,481.423,408.277,472.123z M143.316,684.586c-2.43,4.959-2.728,10.303-2.684,15.708
		C143.482,695.432,144.328,690.194,143.316,684.586z M152.071,221.028c1.3-3.947,0.947-7.999,0.362-12.065
		C152.583,213.002,149.736,216.852,152.071,221.028z"/>
</g>
</svg>
