<?xml version="1.0" encoding="utf-8"?>
<!-- Generator: Adobe Illustrator 16.2.1, SVG Export Plug-In . SVG Version: 6.00 Build 0)  -->
<!DOCTYPE svg PUBLIC "-//W3C//DTD SVG 1.1//EN" "http://www.w3.org/Graphics/SVG/1.1/DTD/svg11.dtd">
<svg version="1.1" id="LuAMIIVySwwQqMAl7CDti_x5F_k9Xi5oYBWGVoNblSU1IFg_xA0_Image_1_"
	 xmlns="http://www.w3.org/2000/svg" xmlns:xlink="http://www.w3.org/1999/xlink" x="0px" y="0px" width="640px" height="960px"
	 viewBox="0 0 640 960" enable-background="new 0 0 640 960" xml:space="preserve">
<g>
	<path d="M534.099,91.226c-0.778,5.153-1.283,10.222-2.355,15.166c-1.419,6.548-1.489,12.906-0.253,19.56
		c1.026,5.524-2.027,10.832-3.013,16.287c-0.208,1.15-0.963,2.538-0.138,3.302c5.279,4.884,2.461,10.661,1.432,15.839
		c-3.14,15.778-7.16,31.382-10.263,47.166c-1.748,8.896-1.646,18.176-3.627,27.002c-5.076,22.62-4.588,45.728-6.929,68.578
		c-1.672,16.332-2.678,32.714-4.054,49.065c-1.736,20.643-3.35,41.294-5.027,61.938c-1.652,20.317-3.345,40.632-4.989,60.951
		c-1.296,16.013-2.686,32.019-3.972,48.033c-1.727,21.48-3.503,42.956-5.056,64.451c-0.896,12.398-1.89,24.804-3.062,37.175
		c-0.545,5.751-0.039,11.627-1.591,17.299c-0.652,2.385-0.351,3.779,2.915,4.152c4.028,0.459,8.017,1.852,11.854,3.286
		c8.117,3.036,11.537,8.812,12.109,17.416c1.161,17.452-3.761,33.638-9.665,49.63c-1.392,3.771-1.228,6.588,0.994,10.084
		c12.301,19.362,9.898,47.72-5.338,64.675c-2.308,2.566-4.978,5.201-8.029,6.618c-5.469,2.537-6.522,7.395-8.021,12.236
		c-1.838,5.938-2.75,6.548-8.652,4.68c-1.681-0.533-2.032,0.562-2.846,1.119c-2.408,1.652-4.771,3.104-7.656,0.99
		c-0.382-0.28-1.203-0.639-1.312-0.515c-6.251,7.132-11.894-2.219-18.227-0.757c-3.036,0.7-4.134-3.684-4.29-6.721
		c-0.237-4.587-0.607-9.123-1.816-13.982c-2.153,2.94-2.024,2.947-2.264,7.988c-0.212,4.49-0.554,9.052-5.587,11.229
		c-3.632,1.571-5.341,0.623-5.329-3.322c0.01-3.359-0.526-6.498-1.631-9.704c-1.292-3.754-0.351-7.553,1.7-10.901
		c2.583-4.223,2.758-8.022,0.583-12.809c-11.551-25.416,1.523-54.444,21.015-66.479c1.953-1.205,4.111-2.149,6.278-2.924
		c6.624-2.366,7.192-3.17,6.655-11.195c-6.646,3.241-13.618,3.562-20.655,3.142c-3.121-0.188-6.391-0.146-9.302-1.1
		c-5.229-1.711-9.125-0.222-13.123,3.182c-5.82,4.954-13.185,7.466-19.664,11.417c-2.041,1.245-4.078,2.197-4.195,4.965
		c-0.012,0.294-0.359,0.56-0.479,0.865c-1.99,5.117-7.428,9.257-7.562,14.173c-0.14,5.133,1.634,10.638,1.298,16.074
		c-0.54,8.74-1.177,17.379,0.514,26.168c0.777,4.039-1.738,8.275-3.268,12.303c-2.098,5.522-1.007,10.604,0.301,16.488
		c2.07,9.317,7.665,14.119,14.48,19.206c5.896,4.399,10.169,10.519,11.944,17.852c2.115,8.729-3.603,12.016-11.897,13.307
		c-4.355,0.678-8.832,0.771-13.389,0.327c-6.457-0.628-10.73-3.436-12.463-9.479c-2.031-7.09-5.897-11.923-12.771-15.241
		c-5.056-2.442-4.062-8.87-5.354-13.655c-0.379-1.397-0.308-3.036-0.009-4.474c0.716-3.441,1.586-6.61-2.104-9.23
		c-2.592-1.841-3.899-5.33-7.953-5.285c-1.623,0.02-2.805-1.786-3.455-3.301c-3.291-7.648-9.907-10.536-17.362-11.242
		c-5.251-0.497-10.526-1.188-15.903-0.961c-13.983,0.592-20.885,11.93-30.388,19.331c-1.274,0.992-1.327,2.729-0.795,3.662
		c4.064,7.146,1.838,14.433,0.507,21.582c-1.042,5.604-5.479,8.979-9.989,11.831c-3.687,2.331-6.39,5.257-7.607,9.403
		c-3.721,12.675-25.381,13.243-33.201,6.118c-4.054-3.692-3.241-8.271-1.912-12.857c2.245-7.748,8.973-12.185,13.532-18.214
		c3.49-4.615,7.373-8.936,10.561-13.791c1.819-2.771,2.503-5.799,1.986-9.027c-1.646-10.281-2.636-20.688-3.585-31.002
		c-1.005-10.921,0.988-22.078,6.07-32.146c3.037-6.017,4.704-11.626,1.812-18.349c-1.33-3.094-2.511-5.104-5.722-6.458
		c-7.167-3.02-13.58-7.5-20.091-11.709c-2.94-1.898-5.887-2.732-9.302-2.742c-4.655-0.012-9.35,0.543-13.817,1.284
		c-10.844,1.797-20.618-0.603-30.188-5.193c-0.576-0.275-1.262-0.321-1.994-0.499c-0.372,3.186-0.018,6.325-1.025,9.424
		c-1.339,4.115,0.004,6.677,4.221,9.073c16.875,9.594,24.994,24.558,25.732,43.925c0.463,12.152-1.683,23.349-9.276,33.122
		c-1.663,2.142-1.224,4.688-0.566,6.696c1.192,3.641,0.662,6.645-1.062,9.917c-1.448,2.748-2.219,5.853-3.307,8.791
		c-0.603,1.632-1.576,3.072-3.366,3.342c-2.035,0.309-3.429-1.028-4.51-2.563c-3.137-4.453-2.054-9.065-0.404-13.681
		c-3.042,0.587-2.983,0.604-3.612,2.845c-0.796,2.838-1.354,5.814-2.638,8.426c-1.956,3.977-4.414,7.688-9.965,5.175
		c-1.328-0.601-2.506,0.292-3.759,0.742c-1.537,0.552-3.755,1.237-4.786,0.061c-2.684-3.063-6.587-2.586-9.726-4.111
		c-3.295-1.603-6.443-2.846-10.278-2.942c-3.646-0.093-5.898-2.681-5.827-6.675c0.009-0.5-0.042-1.004,0.006-1.5
		c0.696-7.109-1.347-13.001-5.188-19.341c-12.396-20.458-11.979-48.326,5.479-66.037c1.28-1.299,2.027-2.468,1.336-4.365
		c-4.019-11.04-3.85-22.423-2.796-33.904c0.333-3.639,0.437-7.355,0.1-10.985c-0.778-8.41,4.687-17.484,14.624-20.554
		c2.827-0.873,3.458-1.894,3.499-4.607c0.565-37.322,0.545-74.654,1.222-111.968c0.586-32.329,0.272-64.656,0.897-96.978
		c1.021-52.812,1.624-105.626,1.793-158.446c0.01-3.203,0.093-6.222-1.65-9.474c-1.765-3.293,0.705-7.454,0.647-11.262
		c-0.197-13.114-1.542-26.15-2.781-39.195c-0.596-6.275-0.926-12.582-1.125-18.883c-0.073-2.284-0.517-3.736-2.953-4.286
		c-2.435-0.55-4.062-1.824-4.146-4.744c-0.394-13.779-2.389-27.481-1.991-41.307c0.083-2.879-0.172-5.797,3.02-7.287
		c1.502-0.702,1.136-2.035,0.927-3.004c-3.261-15.139-1.463-30.479-1.911-45.727c-0.059-1.989,0.134-3.981-0.941-5.822
		c-2.362-4.046-0.333-5.029,3.319-4.396c3.99,0.693,7.326,2.016,8.718,6.689c2.011,6.754,4.571,13.364,7.228,19.901
		c2.599,6.395,3.273,13.062,3.661,19.817c0.242,4.217,0.171,8.392,4.05,11.486c1.811,1.445,2.082,3.965,2.001,6.43
		c-0.208,6.339-0.019,12.649-0.542,19.027c-0.487,5.942,1.546,12.097,1.498,18.254c-0.006,0.833,0.222,1.757-0.059,2.483
		c-1.029,2.656-1.059,4.098,1.861,6.297c2.509,1.892,1.885,6.669,2.167,10.225c1.558,19.617,3.865,39.194,5.39,58.764
		c1.218,15.628,4.455,30.738,6.747,46.071c2.77,18.529,6.364,36.935,9.574,55.397c2.791,16.051,5.554,32.104,8.309,48.16
		c0.724,4.216,1.362,8.445,2.066,12.663c0.078,0.473,0.232,1.236,0.515,1.322c7.838,2.365,6.249,10.299,6.903,15.061
		c1.688,12.281,4.658,24.212,7.078,36.295c1.421,7.101,2.399,14.295,3.398,21.472c0.401,2.885,0.047,5.681-3.181,7.116
		c-1.329,0.592-1.648,1.434-1.378,3.147c4.641,29.442,9.065,58.919,13.669,88.367c2.518,16.1,5.27,32.162,7.94,48.238
		c0.763,4.59,5.03,7.619,9.368,6.001c10.638-3.972,21.656-6.599,32.546-9.667c2.757-0.776,3.323-2.272,3.092-4.695
		c-0.292-3.067,0.729-5.13,4.192-4.142c2.742,0.783,1.694-1.191,1.764-2.132c0.44-5.928-0.668-11.896,0.992-17.814
		c4.584-16.351,24.736-28.046,41.386-24.786c13.374,2.617,23.358,8.866,28.164,21.88c2.899,7.852,3.481,16.067,1.481,24.189
		c2.168,0.845,3.285-2.854,5.127-0.771c1.541,1.745,2.576,3.956,1.459,6.388c-1.305,2.841-0.293,3.447,2.586,4.029
		c7.555,1.526,14.996,3.608,22.477,5.498c2.643,0.667,3.809,0.445,4.548-2.971c11.391-52.652,23.043-105.246,34.614-157.859
		c0.546-2.479,0.875-4.799-2.752-5.46c-2.383-0.435-3.438-1.7-2.397-4.689c1.555-4.468,2.226-9.239,3.311-13.873
		c0.222-0.949,0.338-2.179,0.977-2.735c5.131-4.478,4.702-10.605,5.018-16.484c0.073-1.396,0.437-2.594,1.129-3.71
		c4.613-7.439,6.432-15.785,7.961-24.238c0.818-4.525,4.494-7.582,5.603-12.281c11.22-47.57,22.61-95.104,34.496-142.512
		c5.271-21.026,8.178-42.529,13.716-63.479c0.329-1.245,0.614-2.836-0.471-3.807c-3.501-3.131-2.355-6.706-1.604-10.535
		c2.381-12.113,6.398-23.786,9.314-35.752c0.261-1.068,0.907-2.683,1.68-2.886c5.729-1.505,5.204-6.628,6.021-10.608
		c2.301-11.218,6.107-21.596,12.181-31.49C524.333,97.868,526.665,92.495,534.099,91.226z M161.901,302.039
		c-0.476,19.477-1.741,38.777-1.806,58.082c-0.257,76.307-0.106,152.613-0.201,228.92c-0.022,18.156-0.417,36.312-0.623,54.469
		c-0.023,2.003-0.256,4.445,2.875,3.979c5.766-0.858,11.58-0.339,17.388-1.091c8.99-1.164,18.015-2.345,27.216-0.644
		c6.133,1.135,12.004,3.486,18.414,3.563c2.962,0.034,2.808-0.271,2.267-2.826c-3.606-17.042-7.074-34.114-10.391-51.215
		c-5.445-28.073-10.739-56.176-16.106-84.264c-0.285-1.494-0.604-3.002-2.642-3.005c-5.931-0.009-6.488-4.317-6.397-8.585
		c0.092-4.348,0.174-8.521-1.665-12.654c-0.831-1.867-1.059-4.097-1.189-6.302c-0.605-10.183-2.815-20.206-2.892-30.466
		c-0.044-5.927-2.911-11.58-2.169-17.646c1.14-9.326-1.959-18.156-3.428-27.131c-3.504-21.396-7.665-42.687-11.55-64.021
		C166.625,328.153,164.267,315.096,161.901,302.039z M485.334,331.092c-0.317-0.087-0.635-0.174-0.952-0.261
		c-0.454,1.53-1.014,3.037-1.347,4.594c-6.366,29.782-15.095,58.998-20.83,88.957c-2.37,12.383-4.671,24.857-6.714,37.249
		c-1.6,9.699-4.323,19.277-4.488,29.258c-7.021-1.602-6.934-1.575-9.009,5.448c-10.038,33.988-18.532,68.396-27.979,102.545
		c-4.502,16.275-8.837,32.599-13.479,48.832c-0.978,3.418-0.475,4.228,2.961,3.356c2.857-0.725,5.798-1.114,8.697-1.674
		c11.295-2.182,22.322-6.092,34.064-5.381c4.297,0.261,8.593,0.608,12.867,1.105c2.237,0.26,2.77-0.524,2.924-2.674
		c1.235-17.027,2.854-34.031,3.867-51.071c0.827-13.903,2.02-27.776,2.941-41.666c1.264-19.032,2.648-38.052,4.048-57.073
		c1.251-17.019,2.538-34.028,3.989-51.033c1.662-19.484,2.591-39.031,4.222-58.521c0.442-5.289,0.694-10.586,1.131-15.87
		C483.242,355.17,484.302,343.133,485.334,331.092z M461.915,689.446c0,7.163,0.054,14.327-0.028,21.488
		c-0.028,2.578,0.006,4.284,3.606,3.77c2.994-0.43,6.188,0.077,9.229,0.572c2.708,0.441,3.039-0.497,2.869-2.914
		c-1.904-27.161,0.907-54.181,2.696-81.222c1.019-15.401,2.479-30.774,3.704-46.164c0.775-9.771,1.436-19.552,2.233-29.319
		c1.219-14.886,2.559-29.763,3.76-44.649c1.106-13.73,2.048-27.476,3.157-41.207c1.229-15.203,2.581-30.396,3.853-45.597
		c0.772-9.259,1.477-18.523,2.241-27.782c1.242-15.034,2.525-30.064,3.757-45.1c0.784-9.59,1.466-19.188,2.26-28.776
		c1.219-14.699,2.487-29.394,3.749-44.089c0.893-10.4,1.504-20.836,2.808-31.185c1.056-8.369,0.856-9.108-7.633-10.45
		c-0.983-0.155-1.961-0.39-2.923-0.654c-4.056-1.114-5.79,0.798-6.112,4.621c-1.043,12.375-2.091,24.75-3.145,37.124
		c-0.716,8.412-1.414,16.827-2.175,25.235c-1.251,13.846-2.626,27.681-3.797,41.532c-0.854,10.086-1.412,20.196-2.192,30.289
		c-1.239,16.033-2.576,32.059-3.825,48.09c-0.772,9.925-1.432,19.856-2.189,29.781c-1.252,16.379-2.583,32.751-3.806,49.131
		c-0.803,10.767-1.417,21.546-2.212,32.312c-1.224,16.555-2.6,33.099-3.777,49.656c-0.825,11.599-1.287,23.225-2.163,34.819
		C464.082,642.297,461.624,665.793,461.915,689.446z M318.385,774.2c5.787-0.698,12.508-0.854,18.875-2.434
		c9.329-2.313,18.295-5.864,23.965-14.477c6.529-9.914,12.527-20.186,19.748-29.63c1.441-1.887,0.463-2.106-0.85-3.192
		c-3.292-2.723-6.68-5.41-7.986-9.886c-3.664-12.528-5.791-25.346-7.066-38.285c-0.952-9.681-3.359-19.348-1.125-29.176
		c0.166-0.731,0.172-1.701-0.896-2.022c-1.056-0.316-2.095-0.195-2.576,0.856c-0.611,1.337-1.01,2.774-1.457,4.183
		c-0.887,2.793-0.752,6.407-3.072,8.114c-3.08,2.268-2.457,4.107-1.006,6.682c0.623,1.107,0.748,2.506,1.057,3.78
		c1.924,7.982,0.37,15.89-1.111,23.643c-3.294,17.236-16.754,34.902-40.581,31.607c-11.581-1.603-21.067-6.976-26.501-17.641
		c-7.183-14.099-8.704-28.787-2.953-43.884c0.299-0.784,1.297-1.556,0.531-2.668c-3.135-4.556-3.913-9.987-5.494-15.111
		c-0.909-2.943-2.729-2.057-4.813-1.725c-2.827,0.448-2.349,2.042-1.962,3.932c0.692,3.383,1.811,6.792,1.792,10.186
		c-0.086,15.578-0.816,31.225-5.197,46.211c-2.47,8.448-4.507,18.001-14.339,22.029c-1.179,0.483-0.97,1.257-0.681,2.387
		c3.371,13.162,8.134,25.26,19.921,33.65C287.59,770.577,302.293,773.045,318.385,774.2z M280.735,634.201
		c-1.117,8.229,3.173,15.162,5.028,22.659c0.101,0.407,0.636,1.002,0.982,1.011c4.531,0.117,3.856,3.673,4.239,6.429
		c1.246,8.97,1.723,18.186,8.557,25.253c3.693,3.82,7.232,7.812,11.157,11.379c2.441,2.219,5.533,3.236,9.076,3.311
		c6.628,0.136,11.224-2.534,14.805-8.106c4.657-7.248,12.427-12.483,14.043-21.702c0.854-4.869,1.582-9.761,2.374-14.641
		c0.181-1.114-0.586-2.82,1.945-2.18c2.014,0.51,2.274-1.775,2.676-2.905c1.809-5.106,3.304-10.323,4.915-15.5
		c0.452-1.457,1.022-3.249-0.498-4.082c-1.839-1.007-2.207,1.143-3.112,2.151c-1.54,1.714-1.582,3.777-2.062,5.877
		c-0.938,4.106,0.164,8.707-2.896,12.359c0.181-5.888,0.897-11.689,1.627-17.489c1.069-8.505,2.376-16.915-0.149-25.503
		c-4.297-14.604-14.918-21.301-28.926-23.329c-13.251-1.922-23.937,3.663-32.343,13.591c-8.48,10.015-6.527,22.031-5.553,33.69
		c0.525,6.291,1.67,12.53,2.535,18.793C284.07,648.981,287.907,639.641,280.735,634.201z M159.998,282.136
		c0-4.332,0.032-8.664-0.022-12.995c-0.014-1.058,0.458-2.372-0.946-3.015c-3.468-1.589-12.003,3.894-12.016,7.786
		c-0.058,17.157-0.068,34.309-0.657,51.465c-1.084,31.636-0.349,63.293-0.949,94.946c-1.245,65.62-1.388,131.26-2.381,196.886
		c-0.472,31.194,2.243,62.55-3.999,93.518c-0.638,3.17-1.693,7.711,4.521,4.39c0.528-0.283,1.631,0.671,2.312,0.483
		c3.37-0.923,8.456,1.312,9.01-4.944c0.584-6.608,1.813-13.184,2.022-19.795c0.495-15.635,0.617-31.28,0.773-46.923
		C158.872,523.34,156.414,402.719,159.998,282.136z M166,679.112c0.274-0.019,0.549-0.036,0.824-0.055
		c0.393,3.388,0.846,6.771,1.148,10.165c0.12,1.349,0.054,2.518,1.569,3.29c8.518,4.348,17.372,7.201,27.084,6.259
		c4.943-0.479,9.857-1.272,14.804-1.712c3.967-0.352,7.96-0.272,11.513,1.946c3.637,2.271,7.155,4.739,10.85,6.911
		c3.677,2.161,7.388,4.346,11.306,5.993c3.686,1.55,7.661,2.411,11.713,3.638c-1.764,1.188-5.314-1.104-4.716,2.951
		c0.23,1.562,0.304,3.639,1.794,4.391c1.915,0.967,3.298-0.705,4.692-1.922c1.904-1.66,3.322-3.604,4.416-5.876
		c9.04-18.752,9.394-38.967,9.871-59.13c0.069-2.896-1.031-5.821-1.597-8.731c-0.27-1.386-0.691-2.702-2.525-2.25
		c-8.262,2.037-16.542,4.031-25.269,7.718c1.362,0.999,2.092,1.432,2.689,2.003c0.583,0.56,1.031,1.261,1.539,1.899
		c-5.767-3.437-11.68-4.723-18.124-4.878c-6.253-0.15-12.446-1.294-18.532-2.94c-3.162-0.856-6.446-1.579-9.702-1.716
		c-13.135-0.547-26.062,2.311-39.147,2.646c-2.932,0.075-3.048,1.688-3.041,3.885c0.026,7.823-0.21,15.651-0.037,23.472
		c0.22,9.928,1.682,19.755,2.883,29.6c0.122,0.999,0.104,2.201,1.446,2.153c1.206-0.043,1.492-1.115,1.53-2.188
		c0.144-4.125,1.345-8.122,1.092-12.329C165.768,689.257,166,684.178,166,679.112z M438.071,698.938
		c4.607,0.766,9.389-0.541,14.107-2.133c2.249-0.759,3.53-1.832,3.999-4.769c2.208-13.842,4.729-27.624,5.581-41.651
		c0.136-2.226-0.681-3.121-2.633-3.291c-4.618-0.401-9.237-0.903-13.866-1.062c-13.376-0.456-25.866,4.487-38.838,6.518
		c-3.556,0.557-7.5,2.836-10.629,1.21c-6.135-3.188-12.75-4.167-19.236-5.693c-11.052-2.603-12.414-1.21-11.519,10.477
		c0.024,0.332,0.047,0.664,0.084,0.995c0.96,8.54,1.646,17.122,2.957,25.608c1.53,9.897,2.996,19.845,6.247,29.39
		c1.227,3.597,3.48,6.349,6.887,8.096c1.141,0.586,2.229,0.647,3.012-0.616c0.517-0.834,1.28-2.523,0.844-2.592
		c-5.258-0.805-0.254-2.305-0.02-2.82c0.678-1.485,2.277-2.146,3.771-2.95c8.553-4.604,17.622-8.338,25.06-14.855
		c2.257-1.978,5.092-2.141,8.004-1.548C427.068,698.305,432.264,699.336,438.071,698.938z M459.077,760.902
		c-8.513,4.479-15.206,10.867-23.969,13.63c-1.924,0.605-1.596,3.061-0.938,3.811c2.317,2.65,0.92,5.312,0.997,8.103
		c0.229,8.281,1.111,16.553,1.939,24.808c0.269,2.675,2.087,3.938,4.918,3.76c3.255-0.205,1.867-2.625,1.914-4.089
		c0.188-5.967-0.199-11.98,1.87-18.654c0.527,1.286,0.893,1.724,0.822,2.073c-1.139,5.771-0.624,11.608-0.544,17.402
		c0.048,3.439,2.231,5.901,5.773,6.168c3.507,0.264,3.917-2.241,4.331-5.221c0.462-3.312,0.21-6.626,0.706-9.885
		c0.375-2.466-0.816-5.3,2.214-8.294c-0.389,6.112-0.646,11.268-1.068,16.406c-0.207,2.515-0.032,4.807,2.703,5.712
		c2.992,0.99,4.7-1.176,5.985-3.271c0.816-1.333,0.806-3.154,1.272-4.726c1.505-5.052,1.157-10.599,4.291-16.521
		c-0.101,6.829-1.078,12.311-2.575,17.591c-0.774,2.733-0.376,4.302,1.972,5.09c2.853,0.957,3.64-1.303,4.312-3.473
		c0.969-3.127,1.387-6.645,3.131-9.271c5.072-7.638,4.413-15.461,2.391-23.76c-0.923-3.781-1.812-7.703-1.222-11.79
		c1.37-9.47,3.777-18.626,7.463-27.457c0.612-1.468,1.195-2.992,0.083-4.573c-6.271-8.908-13.858-15.129-25.743-13.381
		c-2.198,0.323-3.004,0.724-3.193,3.145c-0.815,10.361-1.98,20.711-4.191,30.872C453.887,758.938,452.464,762.223,459.077,760.902z
		 M145.286,794.479c1.68,0.585,1.647,1.611,1.711,2.616c0.327,5.13,0.625,10.263,1.024,15.387c0.209,2.672,0.76,5.696,4.009,5.749
		c3.415,0.055,5.328-2.041,5.021-5.864c-0.252-3.145-0.189-6.331-0.011-9.484c0.165-2.931-0.846-6.062,1.399-8.778
		c0.561,5.725,0.43,11.433,0.625,17.129c0.078,2.266-1.483,5.745,1.773,6.476c3.237,0.725,4.575-2.62,5.933-5.045
		c0.555-0.99,0.91-2.131,1.16-3.247c1.366-6.102,2.642-12.218,3.094-18.479c0.206-2.851,0.435-5.38,3.851-6.961
		c3.814-1.765,3.564-4.229,0.13-6.82c-4.884-3.688-9.736-7.418-14.566-11.178c-0.899-0.698-2.883-1.589-1.565-2.771
		c1.958-1.758,1.018-3.684,1.064-5.461c0.276-10.626-0.573-21.292,1.195-31.858c0.679-4.06-0.413-5.179-4.377-4.644
		c-5.079,0.686-10.174,1.319-15.284,1.685c-6.804,0.485-11.049,6.492-10.385,13.235c1.337,13.574,3.661,27.307-2.176,40.543
		c-4.254,9.646-2.838,19.877-2.798,29.917c0.017,4.31,3.718,4.786,6.945,4.274c3.893-0.617,1.061-3.26,0.898-4.896
		c-0.487-4.908-1.332-9.779-1.897-14.682c-0.19-1.646-0.337-3.494,1.923-4.54c-0.2,8.035,1.444,15.592,2.962,23.186
		c0.899,4.499,4.873,4.678,7.625,4.691c2.975,0.015,1.388-3.511,1.304-5.288C145.64,804.417,144.372,799.517,145.286,794.479z
		 M488.181,236.215c-3.656,14.906-7.272,29.546-10.838,44.197c-10.362,42.594-20.712,85.19-31.025,127.798
		c-0.313,1.298-1.267,2.994,0.812,3.806c2.842,1.111,4.925,3.354,7.479,4.861c3.832,2.259,6.372,1.158,7.418-3.071
		c6-24.265,11.919-48.549,17.979-72.798c3.914-15.66,7.716-31.311,8.938-47.495c1.122-14.854,2.938-29.66,3.889-44.522
		C493.111,244.655,495.766,238.77,488.181,236.215z M252.306,733.582c-0.067,0.036-0.503,0.113-0.626,0.353
		c-6.396,12.416-9.628,25.454-7.776,39.505c0.453,3.435,0.357,6.989,1.211,10.312c1.076,4.187-0.295,8.749,1.819,12.623
		c3.503,6.419,16.301,9.795,22.53,5.234c5.817-4.261,11.694-8.791,16.693-13.856c3.66-3.708,7.477-5.051,12.435-6.227
		C275.598,772.399,258.924,757.809,252.306,733.582z M162.089,283.478c-0.64,13.048,3.011,25.554,5.218,38.208
		c5.905,33.872,12.418,67.639,18.732,101.438c0.315,1.688-0.953,5.05,2.707,4.056c3-0.813,8.405,0.824,7.238-5.688
		c-3.555-19.831-7.063-39.671-10.527-59.52c-3.865-22.149-7.649-44.313-11.491-66.468c-1.33-7.667-2.914-15.296-4.012-22.994
		c-0.52-3.641-2.989-2.43-4.953-2.749c0.283,2.545-2.89,3.341-2.907,5.724C162.075,278.149,162.089,280.813,162.089,283.478z
		 M288.633,660.247c-4.221,6.336-4.984,12.22-4.979,18.104c0.012,13.486,2.19,26.146,13.028,35.956
		c13.522,12.239,37.198,10.235,48.116-4.133c8.091-10.646,9.451-22.992,9.923-35.57c0.108-2.88,0.004-6.298-2.281-9.254
		c-2.035,6.752-1.52,13.944-6.36,19.55c-4.431,5.128-8.256,10.774-12.567,16.014c-4.469,5.428-15.127,7.547-20.885,3.562
		c-10.797-7.471-19.863-16.535-22.359-30.223C289.506,670.076,289.264,665.804,288.633,660.247z M495.098,721.064
		c5.976-16.979,11.954-33.29,11.002-51.285c-0.553-10.439-3.787-15.565-13.648-18.613c-2.504-0.773-5.071-1.349-7.617-1.982
		c-2.608-0.651-4.074-0.089-3.931,3.087c0.088,1.945-0.879,3.932-0.841,5.889c0.298,14.986-1.493,29.908-1.229,44.908
		c0.084,4.787,1.182,7.463,5.721,9.314C488.531,714.006,491.376,717.555,495.098,721.064z M377.691,737.292
		c-2.383,6.205-4.504,11.671-6.582,17.154c-2.916,7.692-7.773,13.195-15.5,16.837c-10.352,4.877-20.848,9.005-32.315,11.5
		c7.001,2.036,11.644,6.572,14.78,12.807c0.213,0.423,0.627,0.912,1.047,1.039c6.439,1.941,12.197,5.456,19.803,3.584
		c13.379-3.292,21.129-12.65,20.098-26.474c-0.453-6.056-1.268-11.978-0.304-18.221
		C379.587,749.883,379.997,743.749,377.691,737.292z M245.811,810.682c-4.59,5.613-9.309,10.936-13.5,16.645
		c-3.781,5.149-9.375,8.861-11.489,15.369c-2.37,7.293,0.195,12.56,7.537,14.251c1.61,0.371,3.243,0.897,4.867,0.904
		c7.719,0.035,16.923-1.396,19.464-10.78c0.884-3.264,2.875-6.146,5.89-7.732c12.354-6.494,13.445-17.385,12.056-29.766
		c-3.805,5.115-4.28,13.248-13.029,12.48C250.667,821.445,246.681,817.531,245.811,810.682z M377.891,809.545
		c-1.404,6.445-5.147,10.777-10.887,12.147c-8.809,2.102-11.148-5.774-14.914-12.174c-2.098,6.091-0.749,10.928,0.768,15.821
		c0.598,1.932,0.82,3.913,3.021,4.729c7.35,2.726,11.121,8.408,13.143,15.646c1.234,4.426,3.859,7.486,8.703,8.294
		c5.301,0.884,10.6,0.684,15.84-0.107c9.264-1.398,11.832-6.63,7.972-15.078c-2.771-6.065-7.171-10.827-12.261-14.716
		C384.217,820.24,377.751,817.902,377.891,809.545z M430.001,757.65c0,1.494-0.208,3.024,0.032,4.479
		c2.175,13.162,0.582,12.499,11.857,7.025c1.923-0.934,3.69-2.179,5.592-3.16c3.084-1.594,3.993-4.217,4.615-7.509
		c1.957-10.35,3.6-20.729,4.574-31.214c0.191-2.06,1.378-4.67-0.568-5.99c-1.795-1.217-4.146,0.01-6.062,1.059
		C436.084,729.977,430.045,742.114,430.001,757.65z M162.001,748.34c0,4.492,0.018,8.985-0.01,13.479
		c-0.009,1.513-0.137,3.099,1.384,3.981c5.047,2.931,9.314,6.875,13.771,10.561c2.952,2.439,3.865,1.112,4.884-1.828
		c2.224-6.42,2.053-13.013,1.962-19.619c-0.177-12.932-6.157-22.572-16.773-29.635c-3.005-1.998-3.786-1.094-4.299,2.198
		C161.838,734.42,162.046,741.376,162.001,748.34z M140.995,665.504c0-3.991-0.089-7.984,0.033-11.972
		c0.074-2.412-0.999-2.831-3.041-2.317c-6.499,1.636-12.915,9.62-12.95,16.555c-0.038,7.319-0.468,14.613-0.79,21.92
		c-0.341,7.731,0.086,15.503,2.723,22.955c0.396,1.119,0.799,2.869,2.042,1.842c3.244-2.683,8.072-3.457,9.099-8.894
		C140.621,692.312,140.336,678.885,140.995,665.504z M507.482,182.11c-1.874,0.202-2.714,0.155-3.457,0.396
		c-3.927,1.276-3.39,5.058-3.831,7.888c-0.414,2.65,2.416,1.293,3.759,1.667c2.844,0.792,5.795,1.188,8.647,1.951
		c3.16,0.844,4.759,0.192,5.546-3.402c2.364-10.795,5.119-21.505,7.786-32.232c2.8-11.262,5.067-12.513-9.979-12.299
		c-1.834,0.025-5.169-1.583-5.326,1.576c-0.156,3.158-4.461,7.698,2.592,9.439c-6.47,1.986-7.349,4.449-4.641,10.149
		c0.654,1.377,0.956,2.977-1.646,4.163C502.306,173.518,502.302,179.105,507.482,182.11z M134.832,107.177
		c0.162,10.688-0.088,19.488,1.181,28.229c0.494,3.398,1.339,5.645,5.711,4.036c2.865-1.053,6.124-1.22,9.228-1.38
		c2.425-0.125,3.299-1.086,3.04-3.366c-0.56-4.928-1.119-9.855-1.667-14.784c-1.26-11.329-7.357-21.074-10.43-31.813
		c-0.881-3.077-3.941-3.243-6.4-4.002c-1.136-0.351-1.896,0.274-1.5,1.671C136.175,93.464,134.369,101.314,134.832,107.177z
		 M531.724,94.393c-6.269,0.716-6.2,6.341-8.88,9.77c-8.358,10.701-10.626,23.426-13.486,36.052
		c-0.414,1.826-0.247,2.651,1.705,3.208c4.539,1.295,9.276-0.101,13.829,1.268c1.36,0.408,1.685-1.562,1.832-2.486
		c1.107-6.856,3.821-13.339,2.439-20.736C527.48,112.466,530.452,103.521,531.724,94.393z M349.746,803.119
		c-0.331,0.424-0.663,0.847-0.994,1.27c1.912,1.54,4.141,2.826,5.648,4.691c1.513,1.87,2.297,4.325,3.42,6.514
		c1.812,3.533,4.783,5.063,8.589,4.219c5.47-1.218,9.245-6.554,8.837-12.192c-0.295-4.07-0.786-8.126-1.203-12.319
		C365.299,800.796,359.104,802.77,349.746,803.119z M490.007,738.35c-5.011,14.521-10.631,27.83-5.588,42.768
		C493.137,775.947,498.743,753.856,490.007,738.35z M247.016,799.958c0.488,4.875,0.646,8.783,1.323,12.6
		c0.791,4.452,4.162,6.362,8.25,7.46c4.281,1.148,6.35-1.381,8.399-4.428c2.214-3.292,3.177-6.874,3.621-10.771
		C261.066,804.846,253.574,806.659,247.016,799.958z M127.678,774.143c5.266-13.764,1.694-27.133,1.659-41.226
		C120.849,741.416,121.495,765.127,127.678,774.143z M424.517,786.993c-2.34,4.928-5.918,9.214-4.138,14.682
		c1.042,3.196,1.811,6.301,1.657,9.657c-0.04,0.876-0.458,2.099,0.874,2.509c1.065,0.328,1.857-0.271,2.667-0.935
		c2.854-2.342,3.223-5.561,3.462-8.931c0.171-2.415-1.035-5.074,0.771-7.215c1.815-2.15,0.631-3.643-0.776-5.158
		C427.683,790.151,426.26,788.766,424.517,786.993z M184.592,794.805c-6.448,1.786-8.021,7.113-9.347,12.555
		c-0.744,3.053-0.154,5.883,1.954,8.331c1.548,1.799,3.228,1.558,3.647-0.531C182.221,808.304,188.876,802.431,184.592,794.805z
		 M181.871,727.432c-1.361-3.412-3.358-6.192-7.709-8.652C176.734,722.842,179.064,725.372,181.871,727.432z"/>
</g>
</svg>
