<?xml version="1.0" encoding="utf-8"?>
<!-- Generator: Adobe Illustrator 16.2.1, SVG Export Plug-In . SVG Version: 6.00 Build 0)  -->
<!DOCTYPE svg PUBLIC "-//W3C//DTD SVG 1.1//EN" "http://www.w3.org/Graphics/SVG/1.1/DTD/svg11.dtd">
<svg version="1.1" id="Z4TNzeRS4g7JXgNTwMcykgAp48jnEu5BFCkPeaN38Bg_xA0_Image_1_"
	 xmlns="http://www.w3.org/2000/svg" xmlns:xlink="http://www.w3.org/1999/xlink" x="0px" y="0px" width="640px" height="960px"
	 viewBox="0 0 640 960" enable-background="new 0 0 640 960" xml:space="preserve">
<g>
	<path d="M1,170c14.875,12.707,29.725,25.443,44.632,38.113c17.071,14.507,34.239,28.9,51.279,43.443
		c17.056,14.555,33.971,29.275,51.015,43.846c16.914,14.459,33.911,28.82,50.87,43.226c5.181,4.401,10.363,8.801,15.53,13.218
		c1.541,1.317,2.569,3.557,5.343,2.263c0.987-0.461,1.746,0.764,2.38,1.49c11.532,13.226,26.985,22.306,38.492,35.292
		c8.74,9.863,20.045,16.257,28.973,25.465c4.878,5.029,10.501,3.978,15.995,4.434c6.006,0.499,11.792,1.683,17.138,4.255
		c12.336,5.938,25.006,11.65,29.963,26.113c0.9,2.626,1.76,5.266,2.636,7.894c5.128-3.689,11.692-3.505,16.116-1.219
		c6.709,3.469,15.25,7.168,15.129,16.951c-0.133,10.738,7.226,15.808,14.397,21.438c13.621,10.695,29.533,17.335,44.521,25.612
		c2.186,1.207,2.954,0.305,3.607-1.847c7.526-24.771,23.312-43.249,45.069-56.413c6.251-3.781,9.174-7.89,9.965-14.712
		c0.863-7.44,1.154-7.513-6.501-7.755c-2.853-0.092-5.644-0.335-8.251-1.394c-4.027-1.634-6.391-5.061-5.045-9.043
		c1.311-3.875-0.146-6.732-1.232-9.941c-0.259-0.765-1.113-1.594-0.951-2.19c1.117-4.111-1.211-6.149-4.256-8.11
		c-2.14-1.378-2.283-3.45-0.713-5.555c1.287-1.724,2.537-3.476,3.777-5.234c3.036-4.304,5.647-8.048,5.514-14.352
		c-0.313-14.789,11.074-29.266,25.014-33.966c14.442-4.871,28.938-5.588,42.57,2.456c20.134,11.88,25.433,35.814,12.262,57.047
		c-4.982,8.031-8.031,16.52-9.995,25.504c-1.558,7.123-2.14,14.397-0.3,21.657c0.25,0.986,0.403,1.873,1.156,2.626
		c9.668,9.671,12.431,22.121,12.774,34.97c0.975,36.324-13.545,66.518-36.474,94c-12.532,15.021-24.853,31.071-26.306,52.056
		c-0.86,12.437-1.339,24.896-2.112,37.338c-0.944,15.15-5.428,28.843-16.937,39.472c-10.824,9.999-23.521,13.33-38.022,11.083
		c-6.862-1.062-13.828-1.414-20.814-1.635c-18.19-0.577-36.477-0.41-54.332-4.885c-12.968-3.249-25.266-8.264-37.296-13.999
		c-1.612-0.769-3.256-1.475-5.57-2.519c0.146,5.762,1.13,10.752,0.117,15.882c-2.493,12.639-3.983,25.438-4.633,38.325
		c-0.427,8.491,0.577,17.003,2.032,25.186c0.74,4.164,5.562,7.914,5.914,13.013c0.666,9.663,3.153,19.333-0.258,29.009
		c-1.941,5.508-5.067,9.245-11.356,9.068c-2.646-0.072-2.474,0.684-2.196,3.168c0.821,7.338,2.958,14.55,1.662,22.155
		c-0.865,5.075-3.686,7.348-8.135,8.733c-9.451,2.943-19.244,3.209-28.958,3.38c-15.455,0.271-30.667,3.251-46.093,3.581
		c-11.126,0.238-20.58-3.995-28.769-11.222c-3.452-3.047-6.334-6.901-5.171-11.719c1.501-6.214,6.49-9.361,12.313-11.018
		c13.104-3.727,26.281-7.211,39.005-12.142c3.027-1.173,5.929-2.669,9.586-4.334c-8.778-2.353-17.01-3.834-24.205-8.129
		c-4.711-2.812-10.824-4.94-9.689-12.207c0.923-5.911,6.753-9.795,14.661-10.195c8.674-0.44,16.833-2.825,24.799-6.086
		c1.944-0.796,2.833-1.479,2.604-4.258c-2.061-25.062-8.505-49.212-14.645-73.438c-2.982-11.769-5.869-23.562-8.682-35.373
		c-4.811-20.199,5.879-33.684,22.497-39.614c10.943-3.904,22.465-6.18,33.706-9.268c5.689-1.562,11.307-3.384,16.992-4.958
		c9.244-2.558,18.518-0.344,27.742,0.186c8.912,0.511,17.758,2.146,26.67,2.683c8.453,0.508,16.887,1.531,25.405,1.188
		c3.854-0.155,5.966-1.343,7.167-5.203c2.543-8.177,6.051-16.007,9.897-23.658c1.109-2.209,1.059-3.654-0.792-5.629
		c-17.187-18.327-34.367-36.662-51.249-55.27c-7.796-8.592-14.562-18.152-25.028-23.936c-3.593-1.983-7.076-4.17-10.585-6.307
		c-1.81-1.102-3.426-0.143-5.106,0.322c-8.829,2.44-17.047,6.815-26.668,6.693c-21.566-0.274-40.433-14.411-46.481-35.699
		c-3.355-11.81-1.796-23.197,4.174-33.874c1.234-2.208,1.359-3.441-0.439-5.407c-11.899-13.003-23.751-26.053-35.404-39.276
		c-8.76-9.939-19.914-17.353-28.501-27.44c-9.953-11.693-22.184-21.013-33.009-31.704c-7.444-7.354-14.899-14.757-22.626-21.823
		c-14.346-13.119-28.997-25.905-43.497-38.855c-10.545-9.418-21.035-18.898-31.581-28.315c-14.88-13.289-29.803-26.531-44.68-39.823
		c-4.466-3.989-8.835-8.086-13.261-12.121C5.314,198.991,3.699,196.781,1,196C1,187.333,1,178.667,1,170z M73.757,239.144
		c4.95,4.413,9.829,8.909,14.86,13.227c26.129,22.427,52.316,44.786,78.422,67.24c2.46,2.115,4.463,4.926,7.865,1.167
		c-31.861-27.124-63.703-54.25-95.604-81.31c-1.222-1.036-2.707-2.868-4.742-1.017c1.487-1.299,0.639-2.244-0.458-3.188
		c-5.419-4.668-11.307-8.78-16.351-13.898c-1.401-1.422-2.978-1.638-4.388,0.642C60.159,227.718,66.958,233.431,73.757,239.144z
		 M81.571,255.309c0.875,4.678,5.601,6.229,7.908,9.743c0.513-0.363,1.026-0.728,1.539-1.091c2.129-0.167,3.227,1.574,4.545,2.678
		c9.655,8.079,19.321,16.151,28.771,24.47c6.655,5.858,12.974,12.098,19.398,18.126c-1.213,1.52-2.145-0.789-3.372,0.577
		c5.676,4.55,10.22,9.855,15.179,14.747c1.888,1.862,3.772,3.763,5.867,5.371c3.423,2.63,3.941-1.485,5.511-2.763
		c1.703-1.383,1.399-3.053-0.477-4.518c-5.146-4.021-10.286-8.06-15.261-12.285c-17.766-15.094-35.533-30.188-53.163-45.439
		c-15.08-13.047-29.95-26.334-44.976-39.444c-1.676-1.462-3.184-3.767-6.646-2.787c3.984,4.371,8.03,7.98,12.205,11.539
		C66.507,240.973,74.63,247.506,81.571,255.309z M331.604,628.633c-6.809-1.725-11.722,3.392-15.27,11.365
		c-4.542,10.209-6.417,20.593-4.481,31.732c0.9,5.18,1.766,10.395,2.385,15.646c0.579,4.922,1.469,10.386,7.395,12.446
		c6.072,2.111,11.791,5.005,17.564,7.792c22.703,10.958,46.347,17.424,71.868,17.656c13.706,0.125,27.562,0.124,41.247,2.517
		c4.803,0.84,9.994,0.939,14.875-0.301c24.378-6.2,35.892-29.09,35.845-50.977c-0.004-1.933-0.72-2.39-2.522-2.707
		c-7.775-1.366-15.554-2.781-23.255-4.513c-16.075-3.613-31.141-10.42-46.878-15.082c-8.791-2.604-15.237-7.695-19.847-15.405
		c-0.751-1.257-1.116-2.718-3.056-2.828c-3.967-0.227-7.925-0.612-11.881-0.982c-7.748-0.727-15.512-1.335-23.234-2.267
		C359.704,631.205,347.062,629.581,331.604,628.633z M327.045,494.309c-0.062,4.431,2.028,7.385,4.939,9.661
		c2.722,2.13,5.727,3.932,8.733,5.656c8.228,4.72,15.884,9.958,22.146,17.361c6.429,7.6,12.916,15.18,19.858,22.366
		c11.205,11.604,21.916,23.682,32.959,35.442c5.639,6.005,10.585,12.933,19.086,15.452c4.895,1.45,9.774,3.409,14.603-0.137
		c18.077-13.279,38.896-22.69,54.837-38.997c5.45-5.576,12.233-10.188,15.724-17.225c5.344-10.771,14.701-16.335,24.667-21.492
		c-6.102,6.05-14.947,9.118-19.571,17.413c15.554,0.644,31.546-5.202,34.901-21.462c3.219-15.591,3.053-30.101-6.18-43.616
		c-4.492-6.576-10.449-10.836-18.762-9.662c-19.24,2.717-35.539,10.96-47.271,26.858c-3.622,4.908-6.323,10.43-5.268,18.068
		c6.739-6.942,9.501-15.023,13.804-22.145c0.535,0.729,0.702,1.238,0.558,1.632c-5.254,14.225-14.135,25.584-26.604,34.269
		c-13.956,9.719-23.25,22.747-27.262,39.437c-0.945,3.931-2.125,7.862-4.636,11.545c-0.798-2.23,0.321-4.057,0.969-5.458
		c2.521-5.471,0.632-9.897-2.641-14.054c-4.02-5.104-8.57-9.749-13.961-13.405c-14.995-10.175-29.354-21.16-42.146-34.008
		c-2.899-2.911-9.192-4.967-4.756-11.752c1.584-2.422-0.444-6.593,0.715-9.772c1.11-3.043,0.043-5.564-1.312-8.007
		c-1.435-2.586-3.505-4.837-4.8-7.479c-2.518-5.133-7.547-4.61-11.862-5.698c-1.335-0.336-1.991,0.916-2.731,1.801
		c-1.07,1.278-0.233,2.235,0.644,2.975c3.304,2.784,6.461,5.844,11.063,6.751c-2.94,0.521-5.354,4.028-8.521,1.983
		c-6.624-4.277-12.96-8.998-19.515-13.385c-1.092-0.729-2.372-1.599-4.141-0.778c-3.377,1.566-3.74,3.931-1.004,7.379
		c2.244,2.826,6.303,4.373,6.652,9.135c-2.736-2.562-5.15-4.775-7.509-7.046c-2.117-2.04-3.541-0.936-4.789,0.982
		c-1.528,2.347-0.188,3.927,1.342,5.666c1.856,2.108,4.944,3.487,4.347,7.377c-1.506-1.042-2.455-2.612-3.742-3.822
		c-1.014-0.951-1.902-3.208-3.973-1.22c-1.806,1.733-1.486,3.598-0.016,5.122c2.729,2.827,3.723,6.557,6.309,9.979
		C330.016,497.59,329.396,495.136,327.045,494.309z M320.47,629.74c-11.164-0.903-20.842,5.126-31.528,6.738
		c-4.717,0.713-9.396,1.716-13.83,3.534c-18.847,7.732-24.913,20.034-21.567,36.396c3.346,16.365,7.948,32.478,12.154,48.661
		c5.177,19.92,9.373,39.998,11.419,60.521c0.84,8.424,1.134,16.872,1.931,25.286c0.339,3.572,0.969,6.977,3.944,9.787
		c7.129,6.738,21.413,7.571,29.41,1.695c1.744-1.282,0.822-2.104,0.633-3.207c-0.92-5.367-2.084-10.699-2.038-16.188
		c0.131-15.454,4.053-30.355,6.531-45.473c1.255-7.656,3.205-15.372,2.286-23.138c-1.237-10.443-4.608-20.436-7.858-30.429
		c-1.691-5.198-4.791-8.542-9.771-10.9c-7.101-3.364-13.858-7.452-20.762-11.231c11.825,2.916,21.321,10.652,32.87,14.953
		c-0.238-1.276-0.425-2.229-0.593-3.185c-1.568-8.889-3.929-17.725-4.515-26.678C308.289,653.185,311.618,640.318,320.47,629.74z
		 M553.875,457.935c-2.802-12.301,1.469-33.589,8.896-45.204c2.942-4.602,5.369-9.444,6.755-14.701
		c3.984-15.126,1.069-29.596-12.53-39.767c-12.103-9.05-25.402-10.088-39.45-6.539c-8.903,2.249-17.532,5.107-22.301,14.07
		c-3.111,5.848-4.894,12.189-7.06,18.387c-0.31,0.885-0.397,2.169,0.024,2.927c1.716,3.069,0.135,5.438-1.433,7.771
		c-2.204,3.28-4.288,6.705-6.922,9.619c-3.021,3.344-1.309,5.077,1.699,6.216c1.737,0.658,3.638,1.43,2.918,3.146
		c-1.697,4.053,1.495,6.791,2.263,10.109c0.338,1.464,0.89,2.735,0.229,4.066c-2.934,5.928,0.104,10.215,8.001,10.96
		c7.396,0.698,14.782,0.928,22.614-1.152c-1.941,2.692-4.525,2.855-6.525,2.967c-2.925,0.162-3.712,1.117-4.384,3.896
		c-1.612,6.662-1.685,13.651-4.944,21.304C519.014,459.867,535.556,454.201,553.875,457.935z M520.697,603.506
		c-1.176-0.861-2.248-1.369-3.613-1.544c-14.852-1.895-28.575-7.274-41.88-13.851c-1.646-0.814-2.803-0.926-4.404,0.089
		c-5.725,3.626-11.495,7.163-16.87,11.318c-3.999,3.093-8.372,5.582-13.691,4.369c-4.298-0.979-8.717-1.964-12.349-4.614
		c-2.265-1.651-3.235-1.409-4.364,1.14c-3.933,8.869-7.52,17.853-10.957,26.935c-3.122,8.248,0.668,13.318,5.715,18.257
		c2.673,2.615,6.046,4.523,9.731,5.69c23.271,7.367,45.799,17.206,70.407,20.123c4.932,0.585,5.416-0.979,5.55-4.646
		c0.224-6.133,0.509-12.272,0.791-18.393C505.534,631.685,510.287,616.671,520.697,603.506z M316.994,822.045
		c-2.531,1.464-4.466,2.714-6.512,3.743c-7.932,3.99-24.055,3.746-30.523-5.247c-2.869-3.988-4.353-3.784-5.859,1.067
		c-1.618,5.212-5.303,7.521-9.853,9.56c-14.616,6.549-30.083,10.414-45.382,14.833c-4.961,1.434-9.406,3.983-10.671,9.263
		c-1.211,5.056,2.525,8.413,5.963,11.291c7.18,6.01,15.504,9.201,24.96,9.473c12.831,0.366,25.323-2.987,38.136-3.146
		c11.404-0.142,22.846-0.615,34.119-2.868c7.949-1.589,11.108-4.511,10.382-12.277C320.652,845.954,318.669,834.256,316.994,822.045
		z M441.614,558.719c0.253-0.235,0.586-0.421,0.722-0.701c0.282-0.58,0.465-1.209,0.679-1.819
		c3.831-10.954,9.57-20.669,18.595-28.173c5.61-4.666,11.339-9.192,17.045-13.743c1.336-1.065,2.792-2.047,2.216-4.044
		c-2.341-8.122,1.585-14.604,6.046-20.492c11.904-15.717,28.312-23.945,47.55-26.587c6.414-0.88,12.51,0.686,17.142,5.926
		c11.62,13.151,14.862,28.375,11.019,45.208c-1.407,6.162-2.099,12.74-6.986,17.57c-7.249,7.162-16.412,9.592-26.154,10.026
		c-3.841,0.171-6.698,0.388-8.716,4.441c-1.575,3.169-4.399,5.832-7.033,8.338c-6.377,6.065-12.965,11.907-19.583,17.945
		c10.385,6.274,19.509,14.646,32.149,16.809c2.984,0.511,4.261-0.419,5.9-1.983c10.361-9.895,17.169-22.246,23.258-34.914
		c8.834-18.381,13.959-37.751,12.477-58.372c-0.677-9.422-2.626-18.599-7.875-26.738c-2.566-3.98-5.48-8.035-10.521-8.272
		c-8.243-0.389-16.513-0.733-24.696,1.607c-9.625,2.755-18.98,6.438-28.841,8.382c-1.222,0.241-2.751,1.603-3.476-0.148
		c-1.225-2.954-2.526-0.822-3.469-0.147c-8.281,5.937-15.575,12.916-21.902,20.92c-14.93,18.886-20.649,41.512-26.174,64.221
		C440.578,555.638,439.438,557.436,441.614,558.719z M314.965,496.977c1.1,0,2.931,0.051,4.755-0.027
		c0.63-0.026,1.244-0.38,1.868-0.573c4.553-1.406,5.61-3.691,3.212-7.533c-1.444-2.314-2.305-5.021-0.063-6.588
		c3.264-2.282,1.109-3.305-0.467-4.434c-10.186-7.298-18.401-16.713-27.374-25.314c-4.179-4.006-5.961-3.815-8.623,1.355
		C276.695,476.355,295.894,498.74,314.965,496.977z M280.631,435.275c-1.054-1.293-1.902-2.525-2.937-3.573
		c-15.183-15.393-30.377-30.771-45.597-46.125c-6.557-6.614-6.46-6.498-11.654,0.963c-3.05,4.381,0.379,6.739,2.542,9.341
		c12.749,15.331,26.272,29.979,39.749,44.667c1.905,2.076,3.615,5.354,5.876,5.814c2.641,0.539,3.847-3.353,5.687-5.322
		c1.458-1.562,3.179-2.877,4.778-4.307C279.54,436.317,279.986,435.881,280.631,435.275z M385.18,490.774
		c1.848-3.447,1.357-6.671,0.618-9.847c-1.003-4.307-1.585-8.845-3.409-12.794c-2.386-5.168-16.746-10.446-22.707-9.12
		c-0.861,0.191-1.693,0.291-1.621,1.386c0.051,0.797,0.053,2.001,0.522,2.283c1.097,0.662,2.483,1.272,3.716,1.205
		c4.799-0.26,7.809,2.333,9.864,6.129c2.47,4.562,7.894,8.494,6.548,13.927c-1.564,6.317,2.169,8.481,5.812,11.371
		c8.561,6.789,17.083,13.627,25.687,20.361c10.384,8.129,20.834,16.173,31.634,24.547c0.972-2.852,1.722-5.188,2.559-7.494
		c2.896-7.976,2.934-8.021-4.601-11.705c-17.361-8.488-34.544-17.266-48.881-30.569C388.839,488.522,387.254,489.781,385.18,490.774
		z M275.831,791.729c-7.672,3.359-14.943,5.719-22.604,6.841c-3.581,0.523-7.239,0.321-10.764,1.461
		c-4.014,1.296-6.582,3.878-7.385,7.927c-0.751,3.781,2.036,5.562,4.718,7.388c8.643,5.881,18.664,7.91,28.529,10.403
		c0.96,0.243,1.862-0.042,2.111-0.801c2.155-6.562,8.943-11.604,6.543-19.658C275.728,801.089,276.106,796.741,275.831,791.729z
		 M311.833,698.179c0.79,2.102,1.416,3.576,1.905,5.097c3.781,11.74,8.458,23.375,8.14,35.932
		c-0.251,9.887-2.536,19.605-4.309,29.338c-1.355,7.443-3.108,14.82-3.574,22.403c-0.09,1.458-0.539,3.15,1.906,3.062
		c2.82-0.103,5.681,0.073,8.447-0.359c1.414-0.222,3.75-0.814,3.196-3.028c-0.989-3.961-0.079-7.976-0.764-11.91
		c-2.388-13.724-0.729-27.366,0.755-41.021c1.025-9.45,4.424-18.615,2.648-28.441c-0.564-3.136-1.67-4.769-4.319-5.78
		C321.416,701.766,316.951,700.104,311.833,698.179z M331.072,790.628c-3.42,4.554-4.737,5.24-9.309,5.371
		c-9.147,0.263-9.147,0.263-8.755,9.519c0.007,0.166-0.021,0.341,0.017,0.498c1.027,4.168-0.27,9.4,2.602,12.428
		c3.188,3.361,4.005,6.856,4.369,10.926c0.171,1.914-0.707,4.455,1.634,5.312c2.323,0.853,4.893,0.62,7.16-0.872
		c2.506-1.648,4.029-4.105,4.645-6.824C336.152,814.941,334.7,803.149,331.072,790.628z M289.458,421.147
		c-3.966-3.241-7.361-6.11-10.856-8.854c-14.976-11.757-29.963-23.5-45.029-35.14c-0.723-0.56-1.626-2.81-3.093-0.938
		c-1.104,1.408-2.127,3.093,0.051,4.653c0.661,0.474,1.125,1.214,1.708,1.805c12.135,12.298,24.264,24.603,36.415,36.884
		c7.077,7.153,7.091,7.131,16.472,3.17C286.309,422.228,287.541,421.842,289.458,421.147z M295.817,502.698
		c-5.68-4.293-11.078-8.819-14.99-14.888c-8.54-13.247-8.152-26.659-0.702-40.118c1.065-1.926,1.535-3.4-0.387-4.641
		c-1.935-1.247-2.492,0.951-3.377,1.873c-10.133,10.542-11.705,22.748-6.742,36.104
		C274.164,493.254,282.481,501.009,295.817,502.698z M409.728,629.645c-11.141,1.363-21.896-0.132-32.628-0.9
		c-14.67-1.052-29.252-3.271-43.982-3.766c-2.84-0.095-5.496,0.367-9.107,2.032c11.495-0.243,21.816,0.558,32.148,1.881
		c15.721,2.017,31.523,3.393,47.294,5.018C406.348,634.207,409.27,634.427,409.728,629.645z M292.817,437.078
		c0.64,4.42,3.159,7.721,6.331,8.964c3.634,1.425,2.876-2.305,4.264-3.257c1.61-1.104,3.664-1.945,2.39-3.715
		c-1.396-1.939-4.548-3.187-6.616-1.949C296.821,438.534,295.005,438.028,292.817,437.078z M329.454,436.473
		c-7.401-8.687-16.118-14.233-27.969-12.116C311.199,427.464,321.3,429.647,329.454,436.473z M214.018,354.218
		c-11.043-9.446-22.086-18.896-33.129-28.343C191.04,336.422,201.752,346.301,214.018,354.218z M278.066,500.873
		c6.649,4.596,13.456,8.923,22.212,6.255C293.036,504.565,285.426,503.254,278.066,500.873z M329.494,447.623
		c-4.924-8.023-7.305-9.711-12.358-9.333C321.348,441.471,325.421,444.547,329.494,447.623z M280.73,440.351
		c1.397,2.804,3.539,4.354,5.389,6.117c0.369,0.354,1.265,0.499,1.736,0.304c0.491-0.204,1.122-0.963,0.473-1.598
		C286.276,443.166,284.941,439.988,280.73,440.351z M294.707,495.452c4.268,3.129,8.325,5.398,14.463,5.518
		c-4.967-2.277-8.95-4.116-12.951-5.914C296.006,494.96,295.644,495.194,294.707,495.452z"/>
	<path d="M81.571,255.309c4.115,1.829,7.027,4.973,9.447,8.652c-0.513,0.363-1.026,0.728-1.539,1.091
		C87.172,261.537,82.445,259.986,81.571,255.309z"/>
	<path d="M529.753,403.524c-0.474-3.93,1.746-5.609,4.681-6.465c2.886-0.84,5.144,0.393,6.867,2.751
		c3.447,4.719,3.147,10.971-0.931,15.273c-1.816,1.918-3.771,3.777-5.923,5.289c-4.013,2.818-5.582,2.208-8.784-4.084
		c3.791,3.662,6.698,4.486,9.579,1.01c2.76-3.331,7.46-5.627,6.343-10.988c-0.586-2.812-1.106-6.341-4.421-7.226
		C533.752,398.176,531.277,400.185,529.753,403.524z"/>
</g>
</svg>
