<?xml version="1.0" encoding="utf-8"?>
<!-- Generator: Adobe Illustrator 16.2.1, SVG Export Plug-In . SVG Version: 6.00 Build 0)  -->
<!DOCTYPE svg PUBLIC "-//W3C//DTD SVG 1.1//EN" "http://www.w3.org/Graphics/SVG/1.1/DTD/svg11.dtd">
<svg version="1.1" id="RS_x5F_straps11_xA0_Image_1_"
	 xmlns="http://www.w3.org/2000/svg" xmlns:xlink="http://www.w3.org/1999/xlink" x="0px" y="0px" width="528px" height="396px"
	 viewBox="0 0 528 396" enable-background="new 0 0 528 396" xml:space="preserve">
<g>
	<path d="M42.72,396.24c-0.062-6.798,0.239-13.591,0.33-20.387c0.1-7.514,0.292-15.025,0.438-22.539
		c0.165-8.554,0.324-17.105,0.518-25.657c0.084-3.717,0.08-7.437,0.19-11.15c0.243-8.15,0.336-16.306,0.501-24.459
		c0.163-8.073,0.311-16.146,0.48-24.22c0.173-8.192,0.3-16.387,0.503-24.578c0.101-4.077,0.091-8.154,0.212-12.23
		c0.23-7.752,0.331-15.506,0.479-23.259c0.159-8.313,0.301-16.627,0.51-24.938c0.105-4.197,0.087-8.395,0.222-12.59
		c0.257-7.991,0.327-15.985,0.49-23.978c0.16-7.874,0.303-15.747,0.465-23.62c0.168-8.153,0.308-16.306,0.483-24.458
		c0.171-7.953,0.314-15.906,0.474-23.859c0.159-7.913,0.313-15.826,0.476-23.739c0.174-8.433,0.291-16.867,0.522-25.298
		c0.127-4.639,0.197-9.274,0.131-13.91c-0.053-3.711-0.303-7.42-0.465-11.13c0.64,0,1.28,0,1.92,0
		c0.371,2.979,0.231,5.984,0.441,8.975c0.397,5.667,0.082,11.345-0.022,17.014c-0.156,8.473-0.32,16.947-0.495,25.42
		c-0.156,7.593-0.293,15.187-0.452,22.78c-0.177,8.473-0.304,16.948-0.524,25.419c-0.109,4.197-0.084,8.394-0.216,12.59
		c-0.231,7.352-0.311,14.707-0.458,22.06c-0.174,8.673-0.321,17.347-0.528,26.018c-0.084,3.517-0.072,7.035-0.18,10.551
		c-0.266,8.591-0.353,17.186-0.525,25.779c-0.146,7.314-0.301,14.627-0.442,21.941c-0.169,8.754-0.312,17.508-0.535,26.259
		c-0.104,4.077-0.07,8.155-0.207,12.23c-0.269,8.031-0.335,16.066-0.497,24.101c-0.15,7.515-0.302,15.026-0.449,22.541
		c-0.166,8.514-0.322,17.026-0.511,25.539c-0.082,3.677-0.084,7.354-0.195,11.03c-0.255,8.433-0.313,16.867-0.538,25.3
		c-0.111,4.197-0.021,8.396-0.228,12.589c-0.279,5.672-0.097,11.354-0.408,17.023c-0.016,0.278,0.004,0.561,0.007,0.841
		C44,396.24,43.36,396.24,42.72,396.24z"/>
	<path d="M377.182,159.214c0.608,2.77,3.014,2.436,4.482,1.187c1.008-0.856,1.775-1.94,2.717-2.866
		c1.309-1.287,2.479-2.708,3.372-4.33c0.87-1.579,1.226-3.222,0.913-5.052c-0.227-1.327-0.316-2.681-0.568-4.01
		c-0.102-0.531-0.281-0.993-0.8-1.329c-0.749,0.059-1.521,0.082-2.226,0.568c-0.658,0.453-1.115,1.133-1.805,1.545
		c-0.371-0.249-0.461-0.529-0.33-0.932c0.367-1.125,2.819-3.011,4.029-3.111c1.182-0.098,1.979,0.428,2.538,1.422
		c0.64,1.14,0.731,2.43,0.91,3.671c0.162,1.133,0.293,2.281,0.319,3.443c0.05,2.09-0.656,3.905-1.781,5.578
		c-1.887,2.807-4.191,5.225-6.979,7.159c-1.224,0.849-2.543,1.32-4.045,0.779C376.334,162.362,375.938,160.4,377.182,159.214z"/>
	<path d="M444.027,254.514c-0.506-4.14-1.236-8.229-2.151-12.293c-0.215-0.953-0.738-1.906-0.464-2.91
		c0.152-0.559,0.169-1.097,0.179-1.65c0.043-2.52-0.202-5.018-0.451-7.52c-0.402-4.043-1.188-7.988-2.613-11.801
		c-1.95-5.221-4.726-9.895-8.874-13.701c-1.177-1.078-2.505-1.969-3.627-3.027c-0.019-0.238-0.04-0.397-0.04-0.557
		c-0.001-7.839,0.01-15.678-0.018-23.516c-0.003-0.733,0.312-1.191,0.799-1.636c1.744-1.593,3.352-3.324,4.876-5.12
		c3.746-4.411,6.551-9.392,8.694-14.752c1.58-3.95,2.992-7.975,3.34-12.235c0.321-3.938,0.099-7.869-1.026-11.718
		c-2.588-8.855-7.91-15.703-15.326-21.013c-0.931-0.666-1.366-1.323-1.361-2.521c0.105-23.833,0.165-47.666,0.231-71.498
		c0.012-4.559,0.019-9.118,0.017-13.677c0-1.21-0.45-1.832-1.479-1.971c-1.495-0.202-3-0.34-4.501-0.508
		c-1.58-0.177-3.161-0.354-4.741-0.539c-1.854-0.216-3.706-0.444-5.561-0.661c-1.619-0.189-3.238-0.368-4.857-0.558
		c-1.776-0.209-3.553-0.434-5.33-0.639c-1.618-0.187-3.239-0.347-4.857-0.536c-2.524-0.294-5.049-0.607-7.573-0.903
		c-1.617-0.189-3.238-0.354-4.856-0.543c-2.527-0.295-5.054-0.604-7.579-0.9c-1.579-0.185-3.16-0.349-4.74-0.533
		c-1.853-0.216-3.705-0.447-5.558-0.666c-1.62-0.191-3.24-0.371-4.86-0.561c-1.775-0.209-3.552-0.429-5.328-0.636
		c-1.658-0.193-3.318-0.368-4.979-0.564c-1.735-0.205-3.469-0.428-5.204-0.636c-1.774-0.213-3.552-0.42-5.328-0.625
		c-2.41-0.276-4.821-0.548-7.231-0.819c-1.617-0.182-3.236-0.347-4.854-0.54c-1.736-0.207-3.468-0.454-5.204-0.654
		c-2.368-0.273-4.741-0.51-7.11-0.78c-2.565-0.292-5.129-0.608-7.695-0.908c-1.578-0.184-3.159-0.35-4.738-0.536
		c-1.816-0.214-3.63-0.448-5.445-0.662c-1.619-0.191-3.24-0.363-4.859-0.552c-1.815-0.211-3.631-0.435-5.445-0.647
		c-1.658-0.194-3.316-0.377-4.977-0.571c-1.774-0.208-3.549-0.421-5.324-0.633c-1.696-0.203-3.393-0.409-5.09-0.61
		c-1.657-0.197-3.313-0.398-4.975-0.581c-1.697-0.187-3.399-0.335-5.095-0.536c-2.408-0.285-4.809-0.62-7.217-0.9
		c-2.37-0.277-4.757-0.433-7.109-0.812c-0.802-0.129-1.689,0.118-2.424-0.411c-5.76,0-11.52,0-17.28,0
		c1.65,0.457,3.363,0.458,5.043,0.695c1.653,0.233,3.32,0.363,4.979,0.555c2.528,0.293,5.055,0.604,7.583,0.899
		c1.619,0.189,3.24,0.354,4.859,0.545c1.776,0.209,3.551,0.442,5.327,0.652c1.659,0.195,3.321,0.364,4.98,0.56
		c1.734,0.205,3.466,0.439,5.201,0.638c1.699,0.195,3.402,0.35,5.102,0.545c2.527,0.291,5.052,0.604,7.578,0.901
		c1.58,0.186,3.163,0.354,4.742,0.537c2.564,0.298,5.129,0.604,7.693,0.902c1.578,0.184,3.159,0.357,4.738,0.543
		c1.814,0.214,3.63,0.433,5.443,0.656c1.734,0.213,3.466,0.443,5.201,0.648c1.658,0.196,3.318,0.37,4.979,0.551
		s3.321,0.349,4.979,0.541c1.816,0.209,3.631,0.446,5.446,0.659c1.619,0.189,3.241,0.356,4.86,0.545
		c1.812,0.212,3.625,0.442,5.438,0.656c1.658,0.195,3.317,0.376,4.977,0.571c1.736,0.204,3.472,0.425,5.209,0.625
		c1.658,0.19,3.32,0.354,4.98,0.544c2.564,0.294,5.129,0.602,7.693,0.901c1.579,0.185,3.158,0.359,4.736,0.549
		c1.736,0.209,3.472,0.443,5.209,0.643c1.658,0.191,3.326,0.301,4.979,0.54c1.889,0.272,3.785,0.454,5.68,0.668
		c1.58,0.179,3.162,0.354,4.742,0.539c2.526,0.296,5.051,0.604,7.577,0.899c1.579,0.184,3.162,0.348,4.741,0.532
		c1.854,0.217,3.707,0.449,5.561,0.668c1.619,0.191,3.239,0.371,4.857,0.561c1.776,0.209,3.552,0.428,5.328,0.635
		c1.658,0.193,3.318,0.369,4.976,0.564c1.736,0.205,3.472,0.429,5.207,0.636c2.198,0.261,4.397,0.514,6.61,0.771
		c0,28.518,0,56.931,0,85.551c-2.438-1.313-4.82-2.36-7.275-3.252c-2.423-0.881-4.851-1.705-7.38-2.256
		c-2.561-0.559-5.178-0.55-7.649-0.785c-0.262-0.545-0.193-0.909-0.192-1.265c0.052-12.276,0.109-24.553,0.155-36.83
		c0.022-6.279,0.009-12.558,0.053-18.836c0.011-1.529-0.598-2.22-2.075-2.233c-1.903-0.017-3.806-0.322-5.708-0.508
		c-2.178-0.213-4.355-0.438-6.533-0.646c-1.941-0.187-3.886-0.35-5.826-0.539c-2.178-0.212-4.352-0.447-6.527-0.661
		c-1.98-0.195-3.964-0.372-5.945-0.563c-2.14-0.208-4.275-0.432-6.416-0.635c-1.941-0.185-3.892-0.302-5.826-0.537
		c-2.213-0.268-4.43-0.462-6.646-0.667c-1.943-0.18-3.887-0.358-5.829-0.545c-2.219-0.214-4.437-0.436-6.653-0.657
		c-1.861-0.185-3.728-0.34-5.587-0.534c-2.294-0.239-4.591-0.446-6.886-0.673c-1.863-0.185-3.725-0.381-5.59-0.528
		c-2.221-0.175-4.436-0.445-6.651-0.661c-1.901-0.185-3.806-0.344-5.707-0.529c-2.217-0.216-4.433-0.456-6.649-0.672
		c-1.94-0.189-3.885-0.351-5.826-0.544c-2.059-0.206-4.113-0.45-6.174-0.648c-2.021-0.193-4.049-0.302-6.064-0.536
		c-2.294-0.266-4.593-0.458-6.889-0.694c-1.069-0.11-2.143-0.187-3.211-0.292c-2.098-0.207-4.193-0.44-6.293-0.642
		c-1.979-0.19-3.963-0.343-5.944-0.531c-2.257-0.214-4.512-0.455-6.768-0.675c-1.902-0.186-3.806-0.353-5.708-0.539
		c-2.178-0.212-4.354-0.443-6.531-0.654c-1.941-0.188-3.885-0.353-5.827-0.542c-2.177-0.212-4.353-0.449-6.53-0.661
		c-1.981-0.194-3.965-0.361-5.946-0.556c-2.099-0.206-4.194-0.441-6.292-0.643c-1.981-0.189-3.97-0.305-5.945-0.539
		c-2.253-0.267-4.512-0.461-6.77-0.667c-1.904-0.174-3.808-0.347-5.71-0.539c-2.058-0.208-4.111-0.454-6.17-0.652
		c-2.021-0.194-4.05-0.301-6.066-0.535c-2.293-0.268-4.59-0.483-6.89-0.676c-1.071-0.09-2.141-0.2-3.21-0.308
		c-2.097-0.212-4.193-0.442-6.291-0.643c-1.981-0.189-3.97-0.299-5.944-0.536c-2.253-0.271-4.512-0.472-6.771-0.671
		c-1.111-0.098-2.221-0.204-3.331-0.315c-2.097-0.209-4.193-0.435-6.292-0.635c-1.981-0.189-3.966-0.342-5.948-0.532
		c-2.217-0.213-4.432-0.458-6.648-0.675c-1.942-0.191-3.887-0.356-5.829-0.55c-2.059-0.206-4.114-0.446-6.174-0.643
		c-2.02-0.193-4.046-0.331-6.065-0.528c-2.059-0.201-4.111-0.465-6.169-0.664c-2.062-0.199-4.132-0.308-6.191-0.534
		c-3.283-0.361-6.564-0.734-9.862-0.937c-1.417-0.087-1.984,0.402-1.97,1.836c0.062,6.48-0.175,12.956-0.254,19.433
		c-0.051,4.158-0.047,8.315-0.152,12.475c-0.198,7.875-0.236,15.753-0.329,23.63c-0.044,3.758-0.011,7.516-0.152,11.275
		C91.303,89,91.408,95.44,91.284,101.878c-0.223,11.594-0.25,23.192-0.515,34.786c-0.13,5.716,0.025,11.435-0.212,17.153
		c-0.238,5.752,0.007,11.514-0.232,17.273c-0.248,5.952,0.005,11.915-0.245,17.872c-0.237,5.633-0.091,11.274-0.206,16.914
		c-0.248,12.151-0.336,24.31-0.527,36.464c-0.184,11.635-0.233,23.271-0.495,34.906c-0.127,5.677,0.031,11.355-0.209,17.033
		c-0.243,5.753,0.022,11.516-0.232,17.272c-0.254,5.753,0.03,11.517-0.229,17.272c-0.269,5.953,0.028,11.916-0.247,17.873
		c-0.256,5.553-0.096,11.114-0.188,16.673c-0.181,10.955-0.434,21.911-0.386,32.869c0.64,0,1.28,0,1.92,0
		c0.102-8.598,0.136-17.195,0.335-25.79c0.095-4.08,0.021-8.159,0.148-12.234c0.28-9.034,0.279-18.073,0.399-27.107
		c0.122-9.196,0.247-18.396,0.354-27.592c0.148-12.756,0.302-25.513,0.534-38.267c0.071-3.919,0.088-7.837,0.144-11.756
		c0.146-10.315,0.377-20.632,0.45-30.946c0.063-8.878,0.238-17.755,0.35-26.631c0.072-5.718,0.061-11.438,0.186-17.155
		c0.251-11.475,0.307-22.952,0.488-34.427c0.195-12.355,0.282-24.712,0.539-37.065c0.119-5.719-0.032-11.441,0.209-17.154
		c0.241-5.718,0.013-11.44,0.229-17.154c0.205-5.399,0.065-10.799,0.205-16.195c0.257-9.915,0.255-19.833,0.461-29.748
		c0.003-0.156,0.029-0.311,0.059-0.614c1.426,0.108,2.822,0.207,4.221,0.535c-0.272,0.584-0.422,1.139-0.415,1.761
		c0.114,9.599-0.188,19.195-0.292,28.792c-0.144,13.195-0.262,26.392-0.531,39.585c-0.13,6.398,0.039,12.799-0.236,19.193
		c-0.248,5.757,0.033,11.521-0.208,17.274c-0.276,6.598-0.003,13.199-0.274,19.793c-0.237,5.758,0.031,11.521-0.201,17.274
		c-0.256,6.358-0.01,12.72-0.252,19.073c-0.22,5.759-0.077,11.519-0.194,17.275c-0.245,12.075-0.316,24.152-0.491,36.229
		c-0.192,13.234-0.29,26.472-0.542,39.705c-0.111,5.84,0.033,11.682-0.196,17.514c-0.253,6.479-0.001,12.961-0.264,19.433
		c-0.261,6.438,0.017,12.88-0.257,19.314c-0.245,5.757,0.03,11.521-0.205,17.272c-0.265,6.479-0.007,12.96-0.265,19.435
		c-0.234,5.878-0.08,11.757-0.181,17.635c-0.016,0.913-0.231,1.83,0.013,2.743c0.64,0,1.28,0,1.92,0
		c0.001-4.279-0.037-8.558,0.135-12.836c0.261-6.474-0.02-12.954,0.26-19.433c0.249-5.753-0.045-11.517,0.207-17.272
		c0.286-6.515,0.104-13.034,0.241-19.554c0.27-12.833,0.341-25.669,0.532-38.503c0.185-12.436,0.238-24.873,0.501-37.308
		c0.12-5.677-0.027-11.354,0.189-17.033c0.25-6.554,0.009-13.114,0.266-19.674c0.221-5.633-0.036-11.274,0.199-16.914
		c0.271-6.513,0.118-13.034,0.244-19.553c0.236-12.273,0.25-24.552,0.517-36.826c0.14-6.437-0.025-12.876,0.231-19.314
		c0.234-5.873,0.091-11.754,0.204-17.634c0.245-12.833,0.374-25.67,0.51-38.505c0.11-10.357,0.405-20.713,0.326-31.072
		c-0.015-1.905,0.13-3.812,0.2-5.702c0.814-0.053,182.91,32.61,184.67,33.098c0.23,0.063,0.443,0.181,0.562,0.371
		c-0.078,1.977-0.268,3.921-0.422,5.865c-0.263,3.298-0.486,6.598-0.724,9.897c-0.126,1.755-0.099,3.515-0.271,5.262
		c-0.349,3.515-0.191,7.023,0.123,10.525c0.242,2.692,0.629,5.372,0.895,8.062c0.312,3.146,0.296,6.304,0.254,9.46
		c-0.021,1.596-0.238,3.173-0.653,4.711c-0.95,3.526-2.354,6.9-3.541,10.348c-1.485,4.318-2.671,8.655-2.299,13.288
		c0.076,0.95-0.017,1.912-0.263,2.968c-1.034-0.613-1.583,0.039-2.111,0.727c-1.336,1.739-2.693,3.463-3.997,5.226
		c-3.933,5.314-7.877,10.62-11.619,16.073c-3.896,5.678-7.606,11.457-10.672,17.644c-3.88,7.832-7.62,15.718-10.352,24.039
		c-0.515,1.568-0.979,3.154-1.498,4.831c-0.521-0.363-0.913-0.694-1.354-0.935c-1.021-0.557-2.029-0.938-3.289-0.629
		c-2.301,0.564-4.223,3.264-4.048,5.316c0.053,0.621,0.119,1.271-0.084,1.883c-0.522,0.406-1.039,0.782-1.526,1.192
		c-1.77,1.489-2.846,3.302-2.676,5.713c0.051,0.715,0.01,1.438-0.021,2.157c-0.051,1.187-0.19,1.328-1.32,1.585
		c-1.101,0.251-1.77,0.866-2.082,2.026c-0.312,1.157-0.162,2.297,0.212,3.283c0.768,2.023,0.546,3.572-1.291,4.865
		c-0.913,0.643-1.133,1.673-1.049,2.781c0.037,0.484,0.259,0.908,0.271,1.4c0.038,1.484,0.726,2.684,1.863,3.59
		c1.277,1.018,2.596,1.983,3.921,2.938c2.136,1.54,4.246,3.108,6.207,4.873c0.585,0.526,0.825,1.076,0.76,1.88
		c-0.093,1.15-0.198,2.309-0.245,3.458c-0.118,2.911-0.427,5.808-0.581,8.716c-0.074,1.391-0.105,2.79-0.245,4.182
		c-0.23,2.297-0.431,4.598-0.66,6.896c-0.17,1.7-0.351,3.401-0.555,5.099c-0.28,2.326-0.601,4.648-0.874,6.978
		c-0.059,0.504-0.095,0.991-0.389,1.444c-0.675-0.276-0.998-1.039-1.776-1.029c-0.726,0.262-1.003,0.785-0.979,1.564
		c0.027,0.873-0.151,1.748-0.274,2.604c-0.475,3.317-0.658,6.66-0.862,9.993c-0.343,5.583-0.204,11.186-0.503,16.773
		c-0.085,1.594-0.251,3.182-0.33,4.774c-0.055,1.105-0.124,2.229-0.233,3.34c-0.226,2.296-0.438,4.594-0.662,6.89
		c-0.208,2.141-0.43,4.277-0.635,6.416c-0.183,1.903-0.397,3.807-0.501,5.715c-0.038,0.696,0.142,1.46,0.677,1.98
		c0.428,0.418,0.467,0.877,0.472,1.405c0.022,2.081-0.188,4.155-0.21,6.229c-0.036,3.279-0.262,6.55-0.347,9.827
		c-0.061,2.354-0.049,4.719-0.226,7.068c-0.283,3.75-0.23,7.509-0.39,11.262c-0.131,3.073-0.1,6.155-0.292,9.229
		c0.72,0,1.44,0,2.16,0c-0.089-5.476,0.161-10.941,0.404-16.407c0.112-2.516,0.06-5.029,0.23-7.546
		c0.221-3.266,0.129-6.552,0.341-9.816c0.208-3.183,0.061-6.383,0.489-9.668c5.303,0.668,10.583,0.541,15.794,0.265
		c0.354,0.324,0.257,0.658,0.238,0.968c-0.284,4.699-0.499,9.403-0.709,14.108c-0.234,5.223-0.611,10.438-0.893,15.657
		c-0.135,2.511-0.148,5.029-0.302,7.538c-0.1,1.634-0.27,3.262-0.233,4.901c0.64,0,1.28,0,1.92,0
		c0.132-2.191,0.238-4.385,0.405-6.572c0.125-1.633,0.125-3.271,0.225-4.905c0.126-2.069,0.239-4.146,0.333-6.219
		c0.182-4.027,0.43-8.051,0.658-12.075c0.098-1.714,0.144-3.434,0.213-5.146c0.098-2.396,0.401-4.782,0.311-7.184
		c-0.031-0.829,0.106-1.459,1.042-1.754c0.755-0.238,1.101-0.928,1.111-1.693c0.026-2.115,0.138-4.235-0.165-6.344
		c-0.023-0.158-0.044-0.316-0.052-0.477c-0.286-5.753-0.425-11.515-0.202-17.266c0.14-3.616,0.475-7.233,0.848-10.845
		c0.274-2.649,0.583-5.3,0.807-7.957c0.164-1.938,0.498-3.862,0.756-5.803c0.511-0.021,0.512,0.446,0.662,0.724
		c1.825,3.367,3.022,6.993,4.359,10.562c1.067,2.848,2.358,5.584,4.546,7.766c2.59,2.582,5.413,4.823,9.098,5.66
		c2.065,0.469,4.116,0.321,6.14-0.215c4.287-1.137,8.108-3.219,11.656-5.836c2.407-1.776,4.67-3.735,6.979-5.635
		c3.836-3.152,8.066-5.659,12.529-7.807c3.869-1.863,7.676-3.848,11.342-6.091c0.236-0.146,0.459-0.297,0.775-0.31
		c0.127,0.853-0.193,1.655-0.268,2.479c-0.281,3.153-0.279,6.3,0.008,9.447c0.116,1.271,0.159,2.549,0.244,3.818
		c0.208,3.103,0.541,6.191,0.828,9.282c0.3,3.229,0.527,6.449,0.408,9.684c-0.109,2.985-0.36,5.967-0.644,8.943
		c-0.222,2.338-0.472,4.671-0.774,6.999c-0.424,3.266-0.976,6.508-1.559,9.749c-0.787,4.379-2.234,8.593-3.123,12.944
		c-0.412,2.024-0.645,4.077-0.85,6.134c-0.529,5.306-0.155,10.623-0.247,15.936c0.72,0,1.438,0,2.16,0
		c-0.08-1.096-0.16-2.189-0.237-3.248c0.26-0.104,0.396-0.072,0.539,0.024c1.969,1.355,4.17,2.209,6.421,2.949
		c0.181,0.06,0.399,0.037,0.478,0.272c3.119,0,6.24,0,9.359,0c-0.101-0.062-0.197-0.164-0.304-0.177
		c-2.173-0.243-4.295-0.749-6.411-1.266c-3.645-0.889-7.131-2.146-10.081-4.597c-0.062-3.554,0.033-7.095,0.41-10.64
		c0.353-3.328,0.951-6.587,1.877-9.798c1.604-5.568,2.631-11.259,3.417-16.989c0.329-2.399,0.572-4.816,0.823-7.229
		c0.259-2.498,0.452-5.001,0.614-7.502c0.188-2.904,0.289-5.824,0.037-8.739c-0.183-2.104-0.306-4.215-0.539-6.312
		c-0.267-2.372-0.422-4.756-0.685-7.126c-0.206-1.869-0.199-3.745-0.354-5.615c-0.264-3.152-0.121-6.301,0.633-9.393
		c0.268-1.098,0.718-2.152,1.65-2.839c4.729-3.479,8.731-7.704,12.581-12.099c0.905-1.035,1.688-2.209,2.845-3.081
		c0.293,0.299,0.547,0.547,0.791,0.805c1.44,1.532,3.304,2.208,5.314,2.402c3.536,0.343,6.984-0.255,10.354-1.306
		c6.774-2.113,12.998-5.316,18.668-9.59c3.898-2.938,6.867-6.582,8.763-11.137c2.7-6.486,3.735-13.279,4.038-20.227
		c0.123-2.834-0.161-5.656-0.426-8.48c-0.379-4.052-1.205-8.004-2.485-11.852c-1.472-4.42-4.416-7.488-8.81-9.121
		c-4.045-1.504-8.215-1.743-12.459-1.237c-0.332,0.039-0.687,0.112-1.039-0.124c0.422-0.668,0.867-1.234,1.16-1.872
		c0.422-0.917,1.121-1.319,2.056-1.614c3.89-1.232,7.896-1.836,11.937-2.101c4.227-0.274,8.463-0.013,12.635,0.747
		c4.719,0.857,9.367,2.039,14.003,3.273c2.979,0.793,5.933,1.698,9.016,2.073c1.409,0.173,2.707-0.049,3.912-0.729
		c2.289-1.293,3.79-5.23,3.297-7.604c-0.21-1.009-0.593-2-0.658-3.026c0.306-0.09,0.472,0.015,0.654,0.104
		c2.635,1.278,5.017,2.941,7.189,4.885c5.313,4.745,9.074,10.543,11.452,17.239c2.215,6.238,3.967,12.613,5.467,19.058
		c0.701,3.012,1.248,6.06,1.677,9.119c0.308,2.205,0.424,4.438,0.611,6.66c0.292,3.459-0.028,6.844-0.726,10.212
		c-0.77,3.726-1.841,7.368-2.938,11.009c-1.798,5.965-3.729,11.885-6.117,17.637c-1.923,4.632-4.513,8.938-6.771,13.408
		c-2.312,4.578-4.753,9.101-6.729,13.84c-1.313,3.148-2.425,6.382-3.979,9.433c-1.28,2.511-2.573,5.021-3.384,7.741
		c-0.6,2.009-0.896,4.02-0.445,6.111c0.375,1.743,0.659,3.508,0.986,5.263c0.835,4.479,1.814,8.928,2.773,13.382
		c1.093,5.071,2.767,10.005,3.588,15.138c0.226,1.404,0.595,2.793,0.6,4.24c-0.343,0.314-0.64,0.646-0.991,0.902
		c-3.608,2.632-7.407,4.945-11.536,6.68c-1.868,0.785-3.789,1.369-5.814,1.657c-0.762,0.107-1.599-0.044-2.308,0.404
		c2.88,0,5.762,0,8.642,0c0.656-0.579,1.513-0.78,2.274-1.149c3.403-1.646,6.593-3.633,9.634-5.865
		c0.132-0.096,0.255-0.19,0.529-0.104c0.271,2.343,0.781,4.698,0.762,7.118c0.721,0,1.439,0,2.159,0
		c-0.327-2.685-0.595-5.378-0.996-8.051c-0.734-4.896-1.562-9.775-2.918-14.555c-1.448-5.11-2.486-10.319-3.541-15.522
		c-0.637-3.146-1.223-6.301-1.879-9.441c-0.562-2.691,0.075-5.193,1.074-7.653c1.439-3.541,3.419-6.84,4.796-10.401
		c1.217-3.146,2.455-6.278,3.93-9.312c0.135-0.274,0.208-0.6,0.577-0.807c0.252,0.276,0.161,0.604,0.161,0.889
		c-0.014,10.118-0.022,20.236-0.054,30.354c-0.043,14.436-0.102,28.869-0.153,43.305c-0.001,0.398-0.023,0.798-0.037,1.197
		c0.722,0,1.44,0,2.16,0c-0.006-0.28-0.019-0.561-0.019-0.841c0.002-24.915,0.054-49.831-0.048-74.746
		c-0.015-3.354,0.703-6.265,2.324-9.174c2.383-4.272,4.75-8.579,6.603-13.12c3.397-8.336,6.078-16.918,8.359-25.619
		c0.726-2.763,1.359-5.563,1.462-8.429C444.559,261.041,444.427,257.777,444.027,254.514z M98.42,24.786
		c-0.987-0.114-1.978-0.201-2.968-0.291c-0.354-0.032-0.729,0.042-1.099-0.344c-0.146-2.693,0.046-5.465,0.205-8.292
		c101.693,9.852,203.276,19.692,304.965,29.543c0,19.039,0,38.09,0,57.273c-4.088,0.382-8.029,1.489-11.816,3.175
		c-3.771,1.679-7.258,3.761-9.991,6.934c-0.292-0.305-0.204-0.552-0.208-0.774c-0.123-6.917-0.191-13.834-0.292-20.75
		c-0.157-10.915-0.378-21.829-0.44-32.746c-0.01-1.533-0.465-1.954-1.952-2.118c-2.449-0.27-4.892-0.614-7.339-0.897
		c-1.736-0.201-3.481-0.338-5.221-0.533c-1.736-0.195-3.468-0.438-5.203-0.639c-1.699-0.197-3.399-0.361-5.1-0.555
		c-1.777-0.203-3.553-0.431-5.33-0.638c-1.658-0.193-3.318-0.369-4.979-0.561c-1.895-0.219-3.785-0.456-5.68-0.668
		c-1.699-0.19-3.399-0.357-5.1-0.537c-1.661-0.177-3.322-0.351-4.98-0.538c-1.897-0.214-3.793-0.438-5.688-0.665
		c-2.407-0.288-4.812-0.593-7.22-0.874c-1.737-0.202-3.479-0.366-5.217-0.563c-1.774-0.202-3.547-0.429-5.322-0.634
		c-1.699-0.196-3.399-0.372-5.1-0.567c-1.816-0.209-3.633-0.436-5.449-0.645c-1.66-0.19-3.322-0.361-4.982-0.553
		c-1.854-0.214-3.706-0.448-5.561-0.661c-1.658-0.189-3.319-0.356-4.979-0.542c-1.816-0.204-3.633-0.42-5.449-0.626
		c-1.701-0.193-3.402-0.374-5.104-0.571c-1.816-0.21-3.63-0.44-5.447-0.647c-1.698-0.193-3.399-0.36-5.098-0.553
		c-1.815-0.206-3.628-0.437-5.443-0.645c-1.699-0.195-3.401-0.368-5.1-0.561c-1.778-0.202-3.553-0.422-5.331-0.626
		c-1.7-0.194-3.401-0.372-5.1-0.566c-1.815-0.208-3.629-0.429-5.444-0.639c-1.658-0.191-3.316-0.371-4.974-0.561
		c-1.855-0.212-3.709-0.435-5.564-0.644c-1.701-0.192-3.403-0.367-5.104-0.561c-1.777-0.203-3.551-0.425-5.328-0.63
		c-1.699-0.195-3.399-0.375-5.097-0.569c-1.854-0.213-3.706-0.44-5.559-0.652c-1.66-0.189-3.322-0.357-4.981-0.547
		c-2.529-0.29-5.056-0.592-7.585-0.884c-1.62-0.188-3.242-0.364-4.862-0.552c-2.603-0.302-5.204-0.615-7.807-0.911
		c-1.659-0.189-3.322-0.349-4.981-0.534c-1.818-0.203-3.635-0.423-5.453-0.63c-1.7-0.193-3.401-0.374-5.101-0.571
		c-1.815-0.211-3.627-0.446-5.443-0.653c-1.698-0.194-3.399-0.355-5.097-0.547c-1.816-0.206-3.629-0.436-5.445-0.645
		c-1.66-0.191-3.322-0.362-4.983-0.553c-1.816-0.208-3.631-0.437-5.448-0.642c-1.739-0.196-3.481-0.362-5.22-0.562
		c-1.774-0.203-3.544-0.438-5.318-0.643c-1.658-0.193-3.318-0.361-4.977-0.549c-1.856-0.21-3.711-0.433-5.567-0.645
		c-1.661-0.189-3.323-0.364-4.983-0.558C102.126,25.238,100.275,25,98.42,24.786z M284.506,60.154
		c-3.354-0.614-6.708-1.211-10.061-1.822c-3.781-0.689-7.559-1.396-11.34-2.079c-3.315-0.599-6.636-1.168-9.951-1.765
		c-3.783-0.681-7.562-1.384-11.345-2.067c-3.315-0.598-6.634-1.173-9.949-1.774c-3.78-0.685-7.556-1.397-11.336-2.077
		c-3.784-0.68-7.575-1.323-11.358-2.006c-3.313-0.598-6.618-1.245-9.932-1.841c-3.784-0.682-7.576-1.322-11.361-1.997
		c-3.277-0.584-6.549-1.194-9.824-1.787c-3.356-0.607-6.714-1.203-10.069-1.811c-2.846-0.515-5.689-1.045-8.536-1.558
		c-2.924-0.527-5.852-1.039-8.776-1.561c-2.81-0.502-5.62-1.006-8.429-1.514c-3.393-0.613-6.785-1.229-10.178-1.847
		c-3.275-0.595-6.549-1.196-9.825-1.79c-3.785-0.686-7.571-1.364-11.356-2.048c-1.437-0.259-2.872-0.524-4.308-0.787
		c0.011-0.083,0.021-0.166,0.031-0.249c44.648,5.079,89.298,10.144,133.944,15.24c44.66,5.097,89.316,10.225,134.11,15.355
		c0.077,1.915,0.198,3.819,0.224,5.725c0.053,4.278-0.041,8.562,0.107,12.835c0.158,4.519,0.022,9.039,0.171,13.553
		c0.231,7.077,0.155,14.155,0.296,21.232c0.02,0.919,0.062,1.838,0.131,2.755c0.064,0.88-0.21,1.626-0.706,2.344
		c-1.339,1.94-3.009,3.617-4.371,5.537c-1.465,2.064-2.749,4.202-2.881,6.833c-0.063,1.287,0.124,2.552,0.394,3.791
		c0.391,1.796,0.08,3.3-1.108,4.778c-2.753,3.421-4.623,7.296-5.464,11.638c-0.143,0.732-0.37,1.447-0.612,2.377
		c-1.639-1.801-2.919-3.578-4.28-5.287c-1.613-2.028-3.183-4.094-4.801-6.12c-0.475-0.595-0.654-1.208-0.662-1.971
		c-0.082-9.156-0.102-18.315-0.33-27.469c-0.166-6.559,0.031-13.118-0.205-19.671c-0.207-5.798-0.129-11.595-0.182-17.393
		c-0.013-1.371-0.352-1.827-1.754-2.097c-3.426-0.657-6.857-1.276-10.289-1.906c-3.352-0.616-6.702-1.232-10.057-1.836
		c-2.887-0.52-5.784-0.979-8.662-1.544c-2.799-0.549-5.639-0.881-8.396-1.641c-1.688-0.465-3.438-0.588-5.191-0.818
		c-0.658-0.642-0.684-1.572-0.992-2.373c-0.439-1.143-0.807-2.316-1.194-3.479c-0.215-0.642-0.595-1.091-1.252-1.341
		c-5.147-1.961-10.239-4.08-15.51-5.709c-1.714-0.53-2.447,0.123-2.156,1.879c0.267,1.604,0.595,3.196,0.865,4.799
		c0.126,0.746,0.168,1.504-0.022,2.253C285.357,60.372,284.938,60.233,284.506,60.154z M325.439,82.047
		c-0.623-2.794-2.156-5.113-3.89-7.315c-1.534-1.951-3.293-3.692-5.112-5.375c-0.521-0.48-1.067-0.945-1.58-1.73
		c11.238,2.028,22.287,4.023,33.49,6.044c0.236,20.99,0.473,41.875,0.709,62.758c-0.106,0.012-0.213,0.024-0.318,0.036
		c-3.043-4.045-5.999-8.153-8.937-12.276c-3.395-4.768-6.784-9.538-9.892-14.501c-1.705-2.724-2.926-5.652-3.453-8.825
		c-0.354-2.127-0.359-4.284-0.258-6.448C326.396,90.27,326.352,86.128,325.439,82.047z M301.494,90.309
		c-1.321-1.587-2.643-3.175-3.958-4.767c-0.853-1.03-1.503-2.128-1.401-3.552c0.039-0.546,0.234-0.893,0.87-1.197
		c2.72,2.869,5.634,5.524,6.394,9.6C302.398,91.049,302.091,91.025,301.494,90.309z M303.633,96.783
		c0.1,0.577-0.027,1.068-0.57,1.31c-0.545,0.242-1.002-0.011-1.373-0.442c-1.867-2.165-3.022-4.644-3.307-7.503
		c-0.059-0.586,0.079-0.705,0.92-0.926c0.58,0.746,1.141,1.517,1.754,2.243c0.6,0.708,1.36,1.209,2.312,1.494
		C303.318,94.257,303.415,95.526,303.633,96.783z M297.611,87.344c-0.172,0.445-0.336,0.9-0.719,1.424c0-0.708,0-1.249,0-1.928
		c0.262,0.111,0.377,0.138,0.463,0.203C297.443,87.111,297.506,87.216,297.611,87.344z M291.023,59.851
		c-0.346-0.985-0.41-1.848-0.576-2.772c1.016-0.05,1.859,0.351,2.717,0.59c2.023,0.566,4.01,1.272,6.035,1.833
		c1.002,0.277,1.593,0.741,1.675,1.835c0.035,0.469,0.12,0.927,0.099,1.515C297.543,62.003,294.302,60.875,291.023,59.851z
		 M280.824,139.297c0.08-1.518,0.166-3.033,0.214-4.553c0.042-1.321,0.534-2.555,0.896-3.812c1.274-4.422,3.028-8.683,4.412-13.067
		c1.129-3.581,1.284-7.283,1.027-11.001c-0.12-1.751-0.111-3.507-0.334-5.255c-0.266-2.092-0.462-4.194-0.646-6.296
		c-0.168-1.908-0.373-3.812-0.379-5.733c-0.012-4.12,0.15-8.23,0.479-12.337c0.219-2.746,0.31-5.503,0.562-8.246
		c0.118-1.289,0.098-2.608,0.409-3.956c2.56,0.648,5.011,1.269,7.479,1.895c0.021,1.993,0.49,3.879-0.305,5.761
		c-0.447,1.062-0.156,2.245,0.139,3.307c0.592,2.135,0.504,4.25,0.203,6.401c-0.241,1.737-0.033,3.494-0.205,5.25
		c-0.297,3.055-0.571,6.11-0.945,9.158c-0.484,3.948-1.21,7.841-2.196,11.693c-0.761,2.971-1.75,5.858-2.972,8.667
		c-1.688,3.883-2.71,7.93-3.334,12.119c-0.574,3.861-0.416,7.721-0.428,11.587c-0.002,0.783,0.438,1.545,0.123,2.382
		c-1.407,0-2.721,0-4.149,0C280.701,141.905,280.755,140.595,280.824,139.297z M276.561,186.458c2.061,1.283,4.088,2.617,6.14,3.917
		c1.726,1.094,2.323,0.834,2.692-1.173c0.556-3.007,0.957-6.037,1.41-9.06c0.508-3.373,1.098-6.732,1.617-10.104
		c0.52-3.374,0.98-6.756,1.499-10.13c0.433-2.82,0.907-5.634,1.363-8.45c0.213-1.315,0.151-2.485-1.043-3.439
		c-1.275-1.017-2.415-2.204-3.675-3.375c0.738-0.642,0.55-1.395,0.494-2.197c-0.229-3.304-0.379-6.6-0.082-9.926
		c0.402-4.5,1.254-8.871,2.887-13.083c1.019-2.627,2.193-5.191,2.996-7.905c1.137-3.847,1.978-7.751,2.582-11.714
		c0.396-2.595,0.795-5.186,0.957-7.809c0.021-0.322,0.104-0.627,0.361-0.945c0.846,2.921,2.43,5.326,4.607,7.37
		c1.23,1.155,1.248,1.208,3.02,1.116c0.598,1.215,1.172,2.471,1.823,3.687c1.093,2.04,2.476,3.894,3.776,5.8
		c2.015,2.954,3.332,6.21,4.207,9.669c1.973,7.802,3.953,15.603,5.979,23.391c2.628,10.103,5.783,20.041,9.667,29.733
		c1.553,3.875,3.266,7.685,5.45,11.269c1.681,2.755,3.921,5.029,6.065,7.386c2.528,2.779,5.16,5.463,7.855,8.079
		c0.566,0.55,0.592,1.185,0.62,1.857c0.167,3.918,0.091,7.838,0.088,11.758c-0.001,0.877,0.534,1.787-0.213,2.762
		c-2.485,0.432-4.978,0.92-7.485,1.283c-3.47,0.504-6.826,1.406-10.102,2.635c-4.668,1.748-9.146,3.875-13.367,6.547
		c-6.141,3.888-11.075,8.896-14.784,15.185c-3.188,5.403-5.714,11.095-7.956,16.925c-1.002,2.607-2.59,4.738-4.647,6.572
		c-3.132,2.789-6.46,5.328-9.843,7.798c-2.422,1.769-4.61,3.813-6.877,5.81c-0.765-0.243-1.039-0.973-1.468-1.51
		c-4.022-5.055-7.829-10.252-10.483-16.197c-1.879-4.211-3.284-8.579-4.418-13.04c-0.167-0.655-0.136-1.319,0.185-1.976
		c1.036-2.129,1.648-4.387,1.824-6.744c0.095-1.281-0.18-2.537-0.521-3.766c-1.303-4.693-1.108-4.096-0.04-8.49
		c0.478-1.965,0.008-3.422-1.602-4.593c-0.702-0.511-1.52-0.892-2.055-1.688c1.11-3.412,2.341-6.795,3.651-10.148
		c2.489-6.373,5.103-12.705,8.443-18.681c2.358-4.217,4.083-8.689,5.946-13.112c0.369-0.871,0.785-1.721,1.365-2.575
		c0.02,0.285,0.059,0.569,0.055,0.854c-0.021,2.678,0.104,5.36-0.193,8.032C275.215,185.131,275.645,185.889,276.561,186.458z
		 M240.143,212.753c1.702-6.396,4.039-12.555,6.774-18.569c2.85-6.268,5.766-12.507,9.326-18.412
		c4.083-6.773,8.692-13.193,13.376-19.558c0.07-0.096,0.161-0.176,0.273-0.297c0.812,0.001,1.467-0.405,2.14-0.872
		c1.196-0.83,2.347-1.746,3.731-2.473c0.215,0.708,0.256,1.339,0.241,1.971c-0.101,4.518-0.21,9.036-0.321,13.553
		c-0.012,0.439-0.072,0.868-0.246,1.286c-1.955,4.668-3.918,9.333-5.836,14.017c-0.709,1.735-1.524,3.408-2.422,5.054
		c-4.043,7.421-7.361,15.172-10.324,23.076c-1.072,2.859-2.103,5.738-3.052,8.64c-0.547,1.671-1.6,2.804-3.104,3.601
		c-0.703,0.373-1.404,0.746-2.22,1.181c-1.54-2.06-3.026-3.983-4.439-5.959c-1.094-1.53-2.406-2.878-3.539-4.373
		C240.053,214.021,239.945,213.5,240.143,212.753z M234.725,257.499c0.517,0.017,0.525,0.379,0.632,0.597
		c2.12,4.299,3.599,8.805,4.432,13.528c0.93,5.276,2.089,10.506,3.412,15.696c0.3,1.178,0.418,2.339,0.305,3.547
		c-0.107,1.148-0.125,2.306-0.189,3.605c-4.062,0.512-7.988,0.414-11.962-1.109C233.103,281.426,234.011,269.471,234.725,257.499z
		 M358.686,214.645c0.555-0.121,1.117-0.174,1.67-0.09c2.367,0.358,4.772,0.27,7.137,0.698c5.388,0.979,9.326,3.664,11.058,9.095
		c1.22,3.83,1.964,7.743,2.371,11.742c0.351,3.436,0.371,6.878,0.169,10.299c-0.377,6.373-1.609,12.578-4.398,18.405
		c-1.566,3.272-3.81,5.964-6.646,8.181c-6.124,4.785-12.893,8.295-20.423,10.301c-2.438,0.648-4.911,1.063-7.431,0.877
		c-2.242-0.166-4.309-0.789-5.475-3.028c0.758-1.22,1.74-2.222,2.629-3.292c3.002-3.623,5.932-7.305,8.785-11.046
		c0.467-0.611,1.094-1.206,0.752-2.115c-0.199-0.037-0.322,0.062-0.438,0.179c-1.803,1.812-3.68,3.561-5.389,5.457
		c-1.841,2.045-3.518,4.234-5.277,6.353c-4.725,5.68-9.42,11.392-14.881,16.396c-3.51,3.219-7.461,5.832-11.604,8.17
		c-4.101,2.314-8.389,4.26-12.536,6.479c-3.49,1.868-6.654,4.216-9.701,6.734c-3.41,2.816-6.738,5.755-10.727,7.772
		c-2.199,1.114-4.447,2.068-6.895,2.561c-3.352,0.673-6.252-0.227-9.015-2.096c-3.496-2.364-5.911-5.516-7.352-9.456
		c-1.608-4.397-3.413-8.704-5.41-12.95c-2.521-5.358-3.937-11.117-5.361-16.854c-1.232-4.965-2.011-10.021-3.126-15.009
		c-0.992-4.437-2.601-8.664-4.788-12.655c-1.212-2.213-3.084-3.843-5.013-5.408c-2.413-1.959-5.01-3.67-7.492-5.537
		c-1.16-0.871-1.676-1.953-1.957-3.377c-0.252-1.281,0.128-2.037,1.033-2.768c1.703-1.372,2.096-3.092,1.325-5.125
		c-0.432-1.141-0.46-2.33-0.327-3.497c0.284-0.25,0.566-0.341,0.899-0.379c1.156-0.132,1.851-0.797,2.191-1.907
		c0.391-1.275,0.57-2.584,0.434-3.893c-0.246-2.374,1.202-3.629,2.871-4.812c0.616,0.262,0.67,0.842,0.939,1.26
		c0.151,0.232,0.251,0.5,0.403,0.731c0.287,0.438,0.683,0.735,1.206,0.458c0.507-0.27,0.711-0.703,0.463-1.3
		c-0.354-0.851-0.791-1.653-1.225-2.461c-1.016-1.892-0.52-3.837,0.466-4.894c1.21-1.298,2.833-1.313,4.092-0.057
		c0.544,0.543,0.891,1.223,1.325,1.839c1.633,2.317,3.638,4.338,5.269,6.657c1.032,1.468,2.147,2.878,3.209,4.324
		c1.215,1.652,1.619,1.76,3.486,0.817c2.15-1.084,4.183-2.317,5.411-4.415c0.167,0.016,0.215,0.006,0.245,0.023
		c2.565,1.664,2.567,1.665,1.892,4.592c-0.151,0.656-0.29,1.316-0.484,1.961c-0.55,1.823-0.063,3.564,0.52,5.244
		c1.196,3.445,0.79,6.745-0.744,9.941c-0.677,1.41-0.723,2.711-0.315,4.231c1.495,5.575,3.325,11.011,6.042,16.12
		c1.972,3.705,4.373,7.127,6.903,10.462c1.15,1.519,2.332,3.013,3.555,4.588c-3.26,3.272-6.74,6.279-8.85,10.593
		c0.76,0.051,1.122-0.311,1.487-0.666c2.295-2.227,4.601-4.44,6.881-6.681c4.25-4.171,8.737-8.054,13.582-11.53
		c2.463-1.768,4.754-3.758,7.015-5.785c2.474-2.221,4.047-4.977,5.192-8.045c2.299-6.156,5.127-12.053,8.676-17.6
		c2.976-4.648,6.848-8.39,11.378-11.467c5.833-3.963,12.2-6.801,18.96-8.771c2.326-0.68,4.742-0.928,7.104-1.453
		C349.18,216.713,353.936,215.688,358.686,214.645z M352.17,214.037c-0.498-4.197-0.299-8.405-0.348-12.61
		c0.078-0.034,0.158-0.069,0.236-0.104c2.219,1.972,4.437,3.942,6.625,5.89C357.7,210.955,355.219,213.85,352.17,214.037z
		 M359.466,205.148c-1.37-0.863-2.507-2.039-3.696-3.123c-6.053-5.526-11.845-11.314-17.145-17.575
		c-1.943-2.296-3.261-4.991-4.501-7.696c-4.089-8.917-7.169-18.201-9.942-27.6c-3.027-10.26-5.336-20.704-8.093-31.033
		c-1.144-4.283-3.001-8.181-5.587-11.773c-1.932-2.684-3.671-5.488-4.585-8.723c-0.459-1.625-0.706-3.283-0.628-4.954
		c0.188-3.995-1.277-7.293-3.997-10.126c-1.271-1.322-2.493-2.692-3.489-4.235c-1.058-1.635-1.4-3.483-1.125-5.375
		c0.229-1.581,1.961-2.337,3.412-1.646c0.473,0.225,0.875,0.532,1.245,0.904c1.661,1.675,3.33,3.342,5.008,5
		c1.489,1.471,2.556,3.258,3.675,4.994c1.285,1.992,3.182,3.206,5.147,4.362c0.099,0.057,0.226,0.076,0.341,0.083
		c0.071,0.004,0.146-0.048,0.416-0.146c-1.113-1.176-2.074-2.331-2.98-3.533c-0.594-0.788-0.94-1.521-0.769-2.603
		c0.228-1.436-0.065-2.933,0.423-4.459c-0.678,0.156-1.002,0.707-1.58,0.572c-0.57-0.133-0.98-0.5-1.406-0.872
		c-1.446-1.264-2.922-2.5-3.188-4.523c-0.679-0.395-1.33-0.305-1.938-0.162c-0.857,0.202-1.553,0.002-2.219-0.541
		c-0.809-0.658-1.719-1.084-2.748-1.361c-0.812-0.218-1.481,0.219-2.289,0.181c-0.188-0.57-0.162-1.135-0.015-1.762
		c1.854,0.404,3.672,0.775,5.515,1.037c2.17,0.307,3.551-0.643,3.801-2.9c0.832-0.397,1.699-0.345,2.613-0.116
		c2.178,0.544,3.879,1.871,5.412,3.383c2.217,2.186,4.317,4.49,6.452,6.757c0.603,0.639,1.154,1.324,1.728,1.99
		c1.175,1.369,1.404,3.092,1.744,4.762c0.893,4.394,0.83,8.803,0.051,13.201c-0.719,4.045,0.199,7.813,1.794,11.487
		c1.403,3.235,3.435,6.096,5.394,8.994c4.506,6.665,9.199,13.197,13.993,19.656c3.994,5.382,8.168,10.628,12.356,15.861
		c0.721,0.9,1.619,1.746,2.033,2.778c0.405,1.008-0.235,2.16-0.373,3.252c-0.254,2.043-0.4,4.106-0.898,6.12
		c-0.38,1.539-0.694,3.113-1.348,4.546c-1.422,3.126-0.182,5.202,1.83,6.996c1.131,1.009,2.434,1.79,3.687,2.638
		c1.617,1.094,3.22,2.214,4.541,3.684c1.046,1.165,1.388,2.438,0.897,3.964c-0.986,3.071-2.381,5.969-3.713,8.894
		c-1.615,3.547-3.675,6.883-5.041,10.549C359.657,205.021,359.566,205.062,359.466,205.148z M305.051,73.021
		c0.516-0.174,0.997-0.215,1.286,0.24c0.72,1.132,1.718,2.059,2.356,3.247c0.643,0.655,1.572,1.11,1.469,2.29
		c-0.532-0.725-1.064-1.45-1.598-2.174C307.413,75.441,306.26,74.26,305.051,73.021z M412.388,210.547
		c-0.566,0.617-1.272,0.872-2.121,0.924c-2.312,0.139-4.494-0.503-6.673-1.087c-5.246-1.407-10.494-2.799-15.816-3.887
		c-4.108-0.84-8.264-1.147-12.463-1.097c-4.646,0.057-9.191,0.662-13.654,1.938c-0.18,0.053-0.387,0.008-0.707,0.008
		c0.97-3.23,2.506-6.064,3.96-8.938c1.973-3.9,3.843-7.848,5.303-11.977c0.873-2.472,0.343-4.585-1.47-6.462
		c-1.934-2.002-4.294-3.426-6.555-4.99c-0.789-0.546-1.547-1.122-2.215-1.818c-1.055-1.098-1.478-2.283-0.854-3.788
		c0.896-2.165,1.533-4.416,1.908-6.734c0.222-1.372,0.46-2.744,0.602-4.125c0.317-3.088,1.094-6.077,1.857-9.071
		c0.549-2.151,1.119-4.294,2.062-6.313c0.646-1.382,1.538-2.602,2.524-3.757c0.988-1.159,1.837-2.369,2.125-3.937
		c0.175-0.954,0.027-1.896-0.219-2.713c-1.117-3.729,0.123-6.822,2.404-9.63c2.213-2.723,4.303-5.528,6.342-8.381
		c1.912-2.676,4.584-4.514,7.5-5.996c3.562-1.809,7.273-3.212,11.233-3.787c2.683-0.39,5.389-0.433,8.112-0.114
		c7.365,0.863,14.13,3.397,20.206,7.552c6.993,4.782,12.126,11.11,14.7,19.32c1.105,3.532,1.575,7.157,1.33,10.839
		c-0.24,3.62-1.148,7.12-2.414,10.513c-1.812,4.855-3.998,9.526-7.095,13.718c-1.946,2.636-4.138,5.048-6.528,7.302
		c-3.514,3.311-7.065,6.604-9.694,10.723c-1.675,2.625-3.058,5.364-3.773,8.43c-0.715,3.064-0.34,5.987,0.831,8.85
		c0.624,1.527,0.989,3.086,0.9,4.758C413.96,208.292,413.357,209.493,412.388,210.547z M423.878,178.66c0,7.288,0,14.346,0,21.611
		c-3.224-1.899-6.445-3.41-9.861-4.596c-0.071-1.324,0.3-2.49,0.663-3.652c1.103-3.52,3.09-6.533,5.391-9.362
		C421.179,181.296,422.408,180.04,423.878,178.66z M439.027,231.344c-0.585-1.834-1.17-3.667-1.756-5.5
		c-2.342-7.328-6.045-13.839-11.646-19.174c-3.105-2.957-6.56-5.43-10.581-7.029c-0.219-0.088-0.423-0.217-0.729-0.375
		c-0.104-0.416-0.195-0.793-0.286-1.165c0.343-0.241,0.639-0.11,0.936,0.003c5.03,1.914,9.662,4.507,13.621,8.188
		c3.351,3.115,5.751,6.905,7.496,11.108c1.542,3.716,2.481,7.59,2.925,11.591C439.091,229.77,439.298,230.527,439.027,231.344z"/>
</g>
</svg>
