<?xml version="1.0" encoding="utf-8"?>
<!-- Generator: Adobe Illustrator 16.2.1, SVG Export Plug-In . SVG Version: 6.00 Build 0)  -->
<!DOCTYPE svg PUBLIC "-//W3C//DTD SVG 1.1//EN" "http://www.w3.org/Graphics/SVG/1.1/DTD/svg11.dtd">
<svg version="1.1" id="RS_x5F_straps11c_xA0_Image_1_"
	 xmlns="http://www.w3.org/2000/svg" xmlns:xlink="http://www.w3.org/1999/xlink" x="0px" y="0px" width="528px" height="396px"
	 viewBox="0 0 528 396" enable-background="new 0 0 528 396" xml:space="preserve">
<g>
	<path d="M197.28,396.24c-0.219-4.952-0.13-9.913-0.414-14.863c-0.03-0.519-0.051-1.04-0.042-1.559
		c0.101-5.2-0.382-10.392-0.262-15.592c0.016-0.688-0.071-1.347-0.625-1.867c-0.23-0.218-0.337-0.542-0.323-0.879
		c0.067-1.644-0.204-3.27-0.284-4.903c-0.109-2.23-0.118-4.469-0.378-6.693c-0.185-1.585-0.152-3.189-0.226-4.783
		c-0.103-2.231-0.266-4.465-0.343-6.699c-0.126-3.626-0.421-7.247-0.648-10.87c-0.1-1.595-0.128-3.191-0.206-4.785
		c-0.107-2.192-0.342-4.381-0.326-6.58c0.014-1.971,0.003-1.986,1.841-2.366c0.335-0.327,0.241-0.734,0.215-1.131
		c-0.03-0.479-0.098-0.958-0.09-1.436c0.083-5.28-0.268-10.552-0.305-15.831c-0.039-5.436-0.355-10.867-0.431-16.303
		c-0.114-8.195-0.412-16.387-0.546-24.58c-0.107-6.556-0.307-13.108-0.466-19.662c-0.162-6.676-0.331-13.349-0.485-20.022
		c-0.151-6.554-0.391-13.106-0.463-19.663c-0.02-1.749-0.181-3.496-0.279-5.281c-0.747-0.202-1.469-0.107-2.175-0.162
		c-1.657-0.128-1.855-0.31-1.857-1.946c-0.007-9.118-0.007-18.237-0.008-27.355c0-1.64,0.046-3.281-0.013-4.919
		c-0.038-1.064,0.37-1.75,1.332-2.156c0.584-0.247,1.157-0.522,1.839-0.832c-0.059-2.987,0.077-6.02-0.138-9.051
		c-0.029-0.399-0.09-0.798-0.084-1.196c0.06-4.48-0.165-8.954-0.287-13.43c-0.425-15.554-0.134-31.111-0.231-46.667
		c-0.002-0.354,0.063-0.718-0.167-1.185c-12.175-2.132-24.4-4.372-36.596-6.383c-0.239,0.23-0.248,0.43-0.247,0.631
		c0.033,7.277,0.24,14.551,0.419,21.825c0.082,3.318,0.061,6.638,0.168,9.955c0.058,1.798,0.17,3.594,0.155,5.395
		c-0.046,5.519,0.215,11.033,0.3,16.55c0.114,7.475,0.296,14.949,0.457,22.424c0.167,7.754,0.324,15.509,0.486,23.263
		c0.155,7.435,0.319,14.869,0.473,22.303c0.161,7.755,0.32,15.509,0.486,23.264c0.161,7.475,0.312,14.949,0.474,22.424
		c0.168,7.754,0.326,15.51,0.499,23.264c0.081,3.638,0.096,7.275,0.208,10.912c0.238,7.752,0.334,15.508,0.499,23.262
		c0.16,7.515,0.312,15.029,0.476,22.544c0.168,7.674,0.312,15.349,0.483,23.021c0.167,7.516,0.311,15.029,0.476,22.544
		c0.169,7.715,0.412,15.427,0.467,23.144c0.012,1.637,0.152,3.271,0.233,4.909c-0.72,0-1.44,0-2.16,0
		c-0.015-3.397,0.125-6.797-0.131-10.191c-0.075-0.996-0.068-1.998-0.085-2.998c-0.107-6.276-0.166-12.556-0.337-18.831
		c-0.062-2.277-0.116-4.556-0.161-6.834c-0.113-5.756-0.268-11.511-0.389-17.267c-0.074-3.519-0.11-7.037-0.178-10.557
		c-0.025-1.317-0.146-2.638-0.131-3.954c0.066-5.801-0.224-11.595-0.307-17.393c-0.107-7.555-0.308-15.11-0.466-22.665
		c-0.161-7.675-0.312-15.351-0.481-23.025c-0.167-7.555-0.312-15.109-0.477-22.664c-0.167-7.676-0.321-15.352-0.484-23.025
		c-0.16-7.516-0.313-15.029-0.474-22.545c-0.165-7.675-0.322-15.35-0.483-23.025c-0.158-7.515-0.325-15.03-0.478-22.545
		c-0.156-7.675-0.326-15.35-0.481-23.025c-0.154-7.595-0.32-15.19-0.479-22.785c-0.16-7.635-0.304-15.27-0.489-22.904
		c-0.153-6.315-0.23-12.632-0.435-18.946c-0.01-0.319-0.011-0.64-0.001-0.96c0.037-1.106,0.551-1.616,1.661-1.512
		c1.462,0.137,2.919,0.346,4.376,0.536c1.615,0.21,3.227,0.435,4.841,0.65c2.204,0.294,4.407,0.589,6.612,0.875
		c2.089,0.272,4.18,0.531,6.269,0.802c2.284,0.295,4.566,0.602,6.85,0.896c1.458,0.188,2.918,0.356,4.376,0.543
		c2.285,0.293,4.567,0.603,6.853,0.891c2.167,0.273,4.338,0.516,6.504,0.794c2.205,0.283,4.405,0.602,6.61,0.89
		c1.497,0.196,2.999,0.36,4.497,0.552c2.243,0.288,4.484,0.593,6.728,0.879c2.128,0.272,4.258,0.523,6.386,0.795
		c2.206,0.281,4.41,0.581,6.616,0.864c2.167,0.278,4.336,0.538,6.503,0.818c2.205,0.285,4.407,0.59,6.612,0.875
		c1.537,0.199,3.076,0.37,4.613,0.567c2.206,0.283,4.409,0.584,6.614,0.868c2.128,0.274,4.258,0.535,6.386,0.808
		c2.246,0.289,4.49,0.588,6.734,0.877c2.088,0.27,4.179,0.53,6.268,0.801c2.285,0.296,4.568,0.607,6.854,0.898
		c2.127,0.271,4.258,0.515,6.387,0.787c2.244,0.287,4.488,0.599,6.732,0.89c2.09,0.271,4.18,0.523,6.27,0.792
		c2.281,0.294,4.562,0.604,6.848,0.895c2.129,0.27,4.262,0.515,6.391,0.785c2.205,0.281,4.409,0.583,6.614,0.868
		c2.128,0.274,4.257,0.533,6.384,0.807c2.244,0.29,4.487,0.597,6.731,0.885c2.128,0.272,4.258,0.524,6.386,0.793
		c2.205,0.278,4.409,0.565,6.613,0.849c1.536,0.198,3.07,0.396,4.607,0.593c2.205,0.283,4.41,0.566,6.613,0.849
		c1.537,0.197,3.073,0.397,4.61,0.592c2.169,0.274,4.337,0.54,6.505,0.817c2.206,0.282,4.406,0.603,6.615,0.845
		c0.753,0.083,1.484,0.271,2.25,0.302c0.635,0.026,1.096,0.457,1.183,1.152c0.08,0.634,0.196,1.269,0.213,1.906
		c0.052,1.917,0.15,3.835,0.19,5.749c0.064,3.158,0.277,6.308,0.347,9.464c0.103,4.671,0.41,9.337,0.644,14.004
		c0.104,2.075,0.117,4.153,0.201,6.229c0.116,2.793,0.271,5.588,0.334,8.385c0.07,3.034,0.242,6.066,0.41,9.097
		c0.117,2.115,0.133,4.234,0.213,6.349c0.112,2.993,0.291,5.986,0.346,8.985c0.059,3.313,0.33,6.623,0.44,9.936
		c0.189,5.589,0.446,11.176,0.663,16.764c0.109,2.833,0.332,5.667,0.305,8.504c-0.018,1.638,0.271,3.244,0.362,4.874
		c0.271-0.669,0.159-1.36,0.118-2.034c-0.128-2.134,0.332-4.119,1.495-5.907c1.088-1.673,2.03-3.421,2.884-5.219
		c1.709-3.599,4.223-6.434,7.771-8.307c0.388-0.205,0.75-0.456,1.124-0.685c0.442-0.271,0.709-0.636,0.637-1.185
		c-0.354-2.669-0.048-5.36-0.249-8.029c-0.295-3.91-0.28-7.83-0.385-11.743c-0.185-6.833-0.441-13.664-0.574-20.499
		c-0.103-5.273-0.311-10.546-0.462-15.82c-0.16-5.594-0.325-11.188-0.486-16.781c-0.153-5.353-0.327-10.706-0.478-16.059
		c-0.155-5.514-0.353-11.026-0.492-16.541c-0.057-2.236-0.184-4.472-0.198-6.711c-0.002-0.234,0.038-0.483-0.288-0.892
		c-90.627-15.64-181.441-31.312-272.21-46.976c-0.414,0.304-0.319,0.688-0.318,1.035c0.036,11.357,0.1,22.713,0.11,34.07
		c0.027,29.519,0.033,59.038,0.044,88.557c0.009,24.839,0.004,49.678,0.026,74.518c0.01,11.918,0.062,23.836,0.105,35.754
		c0.179,48.557,0.076,97.113,0.111,145.671c0,0.402,0.006,0.806,0.01,1.209c-0.64,0-1.28,0-1.92,0
		c-0.011-13.998-0.001-27.997-0.038-41.995c-0.073-27.635-0.192-55.27-0.181-82.902c0.015-35.957,0.001-71.912-0.016-107.87
		c-0.007-15.998-0.012-31.995-0.091-47.992c-0.164-33.274-0.115-66.549-0.138-99.824c0-0.32-0.022-0.643,0.011-0.959
		c0.111-1.049,0.763-1.52,1.802-1.338c4.725,0.826,9.445,1.686,14.178,2.463c6.025,0.99,12.039,2.048,18.052,3.108
		c4.841,0.854,9.699,1.62,14.543,2.457c4.881,0.844,9.752,1.745,14.633,2.588c4.413,0.762,8.837,1.461,13.251,2.221
		c3.907,0.672,7.804,1.408,11.711,2.083c3.943,0.681,7.896,1.307,11.841,1.986c3.479,0.6,6.947,1.256,10.425,1.856
		s6.964,1.146,10.441,1.742c3.439,0.59,6.871,1.221,10.308,1.822c3.398,0.595,6.799,1.173,10.197,1.762
		c3.592,0.622,7.182,1.256,10.775,1.871c3.907,0.668,7.819,1.31,11.727,1.981c3.477,0.597,6.947,1.224,10.424,1.828
		c2.968,0.516,5.938,1.019,8.908,1.525c3.009,0.513,6.019,1.022,9.026,1.537c2.618,0.447,5.236,0.896,7.854,1.348
		c3.397,0.586,6.796,1.177,10.193,1.765c2.617,0.452,5.235,0.899,7.854,1.354c3.436,0.597,6.869,1.207,10.307,1.798
		c2.617,0.451,5.239,0.876,7.855,1.325c2.931,0.502,5.857,1.021,8.787,1.528c3.084,0.533,6.173,1.055,9.257,1.592
		c3.438,0.6,6.87,1.218,10.308,1.817c2.539,0.442,5.081,0.867,7.622,1.297c1.017,0.172,2.039,0.31,3.048,0.514
		c0.883,0.179,1.333,0.757,1.35,1.715c0.053,3.237,0.186,6.474,0.292,9.708c0.146,4.473,0.283,8.948,0.406,13.422
		c0.182,6.592,0.419,13.183,0.557,19.777c0.108,5.233,0.311,10.466,0.461,15.7c0.162,5.672,0.331,11.345,0.498,17.018
		c0.15,5.154,0.306,10.307,0.458,15.46c0.167,5.673,0.389,11.344,0.49,17.019c0.026,1.552,0.228,3.104,0.203,4.729
		c0.869-0.106,1.538-0.549,2.262-0.828c3.785-1.46,7.683-2.217,11.758-2.175c8.685,0.09,16.721,2.42,24.021,7.065
		c7.021,4.466,11.372,10.872,13.1,19.041c0.75,3.55,1.258,7.121,1.181,10.763c-0.089,4.227-1.208,8.146-3.399,11.757
		c-2.601,4.28-6.089,7.784-9.781,11.099c-2.945,2.643-5.979,5.186-7.931,8.732c-1.632,2.964-3.117,5.975-3.935,9.289
		c-0.416,1.693-0.454,3.387-0.388,5.1c0.027,0.712,0.365,1.26,0.931,1.721c4.547,3.719,8.431,8.047,11.701,12.918
		c3.25,4.844,5.55,10.103,6.512,15.875c0.809,4.838,1.229,9.732,1.176,14.633c-0.029,2.938-0.252,5.889-0.576,8.83
		c-0.913,8.272-3.32,16.123-6.31,23.837c-2.521,6.514-5,13.044-7.922,19.394c-1.479,3.213-3.036,6.39-4.75,9.485
		c-2.376,4.294-4.06,8.871-5.563,13.521c-1.924,5.951-3.578,11.977-4.888,18.094c-0.215,1.005-0.418,2.011-0.627,3.017
		c-0.64,0-1.28,0-1.92,0c-0.016-1.21,0.368-2.354,0.623-3.513c1.178-5.339,2.569-10.62,4.192-15.841
		c1.545-4.967,3.192-9.9,5.589-14.536c1.681-3.252,3.405-6.479,4.976-9.786c2.469-5.203,4.592-10.553,6.681-15.914
		c3.167-8.13,6.32-16.257,7.538-24.982c0.419-2.998,0.793-5.991,0.886-9.015c0.147-4.872-0.046-9.733-0.725-14.565
		c-0.379-2.707-0.837-5.401-1.758-7.993c-2.819-7.932-7.824-14.353-13.854-20.064c-0.116-0.109-0.247-0.194-0.455-0.037
		c-0.016,0.199,0.005,0.418,0.076,0.656c0.326,1.076,0.438,2.179,0.389,3.303c-0.041,0.941-0.512,1.559-1.351,1.938
		c-0.643,0.291-1.331,0.361-1.991,0.215c-1.005-0.224-2.012-0.443-2.98-0.815c-4.961-1.903-9.951-3.724-15.175-4.789
		c-1.12-0.229-2.218-0.707-3.45-0.569c0.207,0.596,0.584,0.846,1.042,1.043c2.685,1.153,5.098,2.75,7.406,4.524
		c3.002,2.306,5.335,5.108,6.791,8.646c1.316,3.197,1.974,6.543,2.202,9.95c0.289,4.308-0.016,8.61-0.744,12.868
		c-0.663,3.873-1.622,7.676-2.799,11.427c-1.58,5.036-4.438,9.116-8.815,12.119c-5.236,3.59-11.136,4.947-17.354,5.136
		c-3.957,0.12-7.863-0.433-11.689-1.431c-5.73-1.495-11.204-3.619-16.023-7.143c-5.75-4.202-8.75-10.015-9.396-17.003
		c-0.266-2.881-0.225-5.813,0.377-8.702c0.146-0.71,0.488-1.451,0.24-2.24c-0.418,0.196-0.473,0.631-0.629,0.972
		c-2.133,4.657-4.073,9.393-5.709,14.252c-2.111,6.271-3.252,12.693-3.226,19.312c0.013,3.354-0.116,6.707,0.171,10.063
		c0.141,1.623,0.192,3.271,0.36,4.89c0.313,3.019,0.491,6.044,0.608,9.067c0.117,3.032-0.237,6.062-0.377,9.094
		c-0.131,2.869-0.412,5.729-0.554,8.598c-0.063,1.312-0.196,2.622-0.288,3.935c-0.171,2.462-0.509,4.915-0.633,7.378
		c-0.13,2.591-0.406,5.166-0.564,7.753c-0.205,3.343-0.565,6.675-0.66,10.023c-0.019,0.604-0.096,1.195-0.227,1.782
		c-0.64,0-1.279,0-1.92,0c-0.054-1.124,0.225-2.229,0.236-3.343c0.031-2.915,0.388-5.811,0.555-8.717
		c0.198-3.457,0.609-6.901,0.887-10.354c0.207-2.583,0.289-5.177,0.539-7.754c0.11-1.154,0.137-2.31,0.232-3.46
		c0.33-3.978,0.679-7.952,0.688-11.946c0.004-2.279,0.078-4.564-0.062-6.837c-0.212-3.458-0.669-6.902-0.863-10.362
		c-0.255-4.552-0.192-9.117,0.019-13.669c0.088-1.894,0.203-3.809,0.604-5.693c0.312-1.476,0.45-3.005,0.244-4.521
		c-0.131-0.956-0.195-1.91-0.178-2.87c0.064-3.32-0.229-6.631-0.312-9.947c-0.058-2.312-0.058-4.638-0.216-6.949
		c-0.359-5.264-0.402-10.541-0.62-15.811c-0.146-3.551-0.414-7.104-0.313-10.667c0.031-1.134-0.238-2.19-0.992-3.108
		c-0.657-0.799-1.229-1.668-1.85-2.498c-3.129-4.186-6.209-8.407-10.01-12.043c-1.705-1.631-3.014-3.601-4.236-5.616
		c-2.889-4.761-4.822-9.923-6.479-15.208c-0.202-0.646-0.287-1.381-0.802-1.989c-0.194,0.472-0.127,0.872-0.11,1.257
		c0.282,6.514,0.233,13.033,0.388,19.549c0.228,9.594,0.377,19.19,0.504,28.787c0.1,7.355,0.42,14.711,0.31,22.071
		c-0.011,0.679,0.03,1.36,0.076,2.038c0.241,3.552,0.131,7.105,0.141,10.712c0.562,0.427,0.91,0.988,0.866,1.791
		c-0.146,2.672-0.294,5.344-0.37,8.019c-0.158,5.556-0.192,11.112,0.271,16.653c0.135,1.591,0.205,3.186,0.334,4.775
		c0.237,2.907,0.271,5.822-1.146,8.521c-0.2,0.38-0.198,0.769-0.155,1.165c0.303,2.929,0.656,5.854,0.906,8.788
		c0.293,3.451,0.624,6.898,0.949,10.347c0.324,3.446,0.645,6.896,0.961,10.343s0.638,6.896,0.963,10.344
		c0.258,2.735,0.473,5.476,0.766,8.208c-0.721,0-1.439,0-2.16,0c-0.01-0.199-0.014-0.399-0.031-0.599
		c-0.455-4.889-0.921-9.775-1.363-14.665c-0.283-3.139-0.514-6.281-0.801-9.419c-0.275-3.018-0.615-6.028-0.893-9.046
		c-0.353-3.851-0.646-7.708-1.024-11.556c-0.071-0.725-0.063-1.495-0.382-2.242c-1.805,0.422-3.59,0.183-5.391,0.159
		c-0.207,0.466-0.147,0.906-0.144,1.337c0.053,5.313,0.161,10.628,0.155,15.941c-0.012,10.031,0.17,20.059,0.271,30.088
		c-0.72,0-1.439,0-2.16,0c0.028-8.56-0.017-17.115-0.174-25.673c-0.128-6.917-0.046-13.837-0.062-20.756
		c-0.002-0.47,0.105-0.963-0.213-1.452c-1.078-0.276-2.185-0.569-3.295-0.841c-0.987-0.24-1.265-0.577-1.264-1.55
		c0.014-11.877,0.021-23.753,0.034-35.63c0.001-0.479-0.001-0.96,0.017-1.438c0.047-1.392,0.213-1.618,1.493-2.093
		c0.214-0.28,0.13-0.611,0.128-0.925c-0.027-6.557-0.199-13.109-0.462-19.66c-0.003-0.08-0.012-0.16-0.011-0.24
		c0.115-5.399-0.255-10.791-0.291-16.189c-0.041-5.954-0.284-11.906-0.451-17.861c-0.152-5.434-0.165-10.871-0.421-16.303
		c-0.047-0.998-0.043-1.999-0.052-2.999c-0.07-8.395-0.403-16.784-0.535-25.18c-0.104-6.634-0.35-13.266-0.471-19.901
		c-0.058-3.196-0.118-6.396-0.238-9.59c-0.068-1.818-0.327-3.639-0.6-5.451c-0.248-1.649-0.319-3.324-0.526-4.983
		c-0.101-0.812-0.351-1.545-0.681-2.267c-0.647-1.415-1.156-2.883-1.696-4.339c-0.179-0.481-0.32-0.975-0.269-1.66
		c0.601,0.63,0.918,1.359,1.873,1.789c0.019-1.704,0.137-3.217-0.273-4.694c-1.276-0.377-1.368-0.306-2.08,1.618
		c-0.326-0.859-0.373-1.601,0.087-2.341c0.468-0.754,1.423-0.423,2.032-0.919c0.203-2.795-0.312-5.565-0.242-8.368
		c-1.162-0.711-2.278-1.394-3.395-2.077c-2.902-1.775-5.02-4.279-6.64-7.227c-0.919-1.673-1.792-3.372-2.675-5.063
		c-1.145-2.191-0.922-3.831,0.794-5.649c0.655-0.697,1.354-1.36,2.067-1.999c0.666-0.597,1.022-1.282,0.99-2.2
		c-0.046-1.278,0.615-2.181,1.67-2.835c0.781-0.487,1.654-0.775,2.508-1.096c0.974-0.366,1.541-1,1.86-1.998
		c0.668-2.091,1.076-2.546,2.753-3.449c0.295-1.267,1.104-2.223,2.237-2.97c0-0.868,0.062-1.709-0.015-2.539
		c-0.15-1.665-0.14-3.343-0.438-4.999c-0.1-0.547-0.355-0.807-0.818-1.056c-1.576-0.851-3.324-1.032-5.033-1.347
		c-4.366-0.803-8.737-1.583-13.11-2.353c-4.294-0.755-8.595-1.473-12.888-2.23c-3.786-0.667-7.565-1.374-11.349-2.052
		c-2.888-0.518-5.779-1.019-8.669-1.529c-2.967-0.523-5.933-1.047-8.9-1.571c-2.928-0.518-5.857-1.033-8.785-1.555
		c-3.901-0.695-7.799-1.405-11.702-2.092c-3.397-0.598-6.799-1.164-10.197-1.761c-1.992-0.35-3.978-0.729-5.965-1.105
		c-0.391-0.074-0.773-0.151-1.233,0.041c0,1.213-0.021,2.444,0.007,3.674c0.019,0.838,0.165,1.676,0.154,2.513
		c-0.072,5.52,0.193,11.035,0.334,16.548c0.117,4.554,0.077,9.113,0.34,13.666c0.17,2.951,0.055,5.918,0.169,8.874
		c0.071,1.838,0.158,3.675,0.152,5.514c-0.016,4.799,0.367,9.59,0.266,14.391c-0.016,0.748,0.008,1.513,0.321,2.278
		c1.064,0.206,2.047,0.542,2.802,1.405c0.906,1.036,1.064,2.285,1.17,3.556c0.8,9.617,0.389,19.255,0.486,28.885
		c0.005,0.554,0.009,1.091,0.199,1.646c0.599,1.745,0.189,2.756-1.393,3.713c-0.133,0.081-0.264,0.166-0.495,0.312
		c0.545,40.253,1.091,80.541,1.636,120.799c1.972,0.311,2.132,0.592,2.226,2.522c0.166,3.387,0.417,6.769,0.652,10.149
		c0.097,1.393,0.137,2.791,0.213,4.184c0.106,1.951,0.267,3.901,0.348,5.856c0.132,3.186,0.389,6.368,0.63,9.549
		c0.108,1.433,0.14,2.871,0.222,4.304c0.116,2.03,0.243,4.065,0.367,6.096c0.112,1.827,0.088,3.67,0.37,5.489
		c0.21,1.354-0.385,2.107-1.764,2.341c-0.743,0.125-1.49,0.23-2.233,0.356c-0.062,0.011-0.11,0.109-0.209,0.214
		c0.198,2.369,0.38,4.784,0.608,7.193c0.113,1.19,0.111,2.385,0.24,3.58c0.286,2.652,0.303,5.335,0.566,7.991
		c0.255,2.576,0.304,5.169,0.645,7.738c0.151,1.145,0.128,2.309,0.229,3.462c0.111,1.269,0.216,2.539,0.314,3.812
		c-0.72,0-1.44,0-2.16,0c0.007-0.159,0.031-0.319,0.02-0.479c-0.25-3.858-0.458-7.723-0.786-11.574
		c-0.091-1.075-0.082-2.157-0.225-3.223c-0.35-2.61-0.386-5.245-0.65-7.862c-0.264-2.616-0.344-5.251-0.534-7.876
		c-0.062-0.86-0.214-1.714-0.335-2.644c-3.497,0.437-6.956,0.402-10.432,0.515c0,0.781-0.029,1.38,0.005,1.975
		c0.159,2.756,0.224,5.513,0.209,8.271c-0.005,0.959,0.026,1.918,0.057,2.877c0.211,6.672,0.431,13.344,0.43,20.02
		C198.56,396.24,197.92,396.24,197.28,396.24z M357.992,285.064c-0.383,0.521-0.506,1.023-0.649,1.513
		c-0.729,2.478-1.221,4.989-1.5,7.565c-0.366,3.373-0.151,6.67,0.708,9.934c1.539,5.839,5.129,10.104,10.297,13.048
		c6.868,3.91,14.217,6.233,22.188,6.447c4.877,0.131,9.604-0.464,14.099-2.436c5.082-2.229,8.981-5.68,11.179-10.887
		c1.1-2.602,1.812-5.321,2.506-8.045c1.162-4.562,1.768-9.215,1.968-13.908c0.139-3.271-0.225-6.526-0.956-9.718
		c-0.929-4.048-2.737-7.626-5.963-10.371c-2.532-2.154-5.215-4.086-8.297-5.382c-0.888-0.373-1.542-0.908-2.031-1.729
		c-0.868-1.459-1.927-2.793-2.812-4.252c-1.382-2.283-3.001-4.416-4.608-6.549c-3.746-4.963-7.848-9.531-13.303-12.74
		c-4.428-2.605-8.879-5.139-13.685-7c-1.03-0.398-2.146-0.621-3.062-1.295c-1.846-1.354-3.444-2.966-4.877-4.746
		c-2.088-2.596-3.678-5.488-5.109-8.478c-2.825-5.894-7.113-10.538-12.29-14.429c-2.041-1.533-4.229-2.842-6.369-4.228
		c-0.978-0.633-1.577-1.467-1.86-2.644c-0.694-2.896-1.092-5.842-1.614-8.766c-0.656-3.667-1.216-7.358-2.312-10.92
		c-3.001-9.732-5.644-19.558-7.887-29.49c-0.356-1.58-0.631-3.169-0.44-4.831c0.258-2.262,0.879-4.438,1.368-6.643
		c0.623-2.805,1.14-5.56,0.435-8.469c-0.535-2.21-0.441-4.511-0.082-6.781c0.193-1.225-0.064-2.354-0.842-3.377
		c-0.625-0.823-1.154-1.72-1.705-2.598c-0.295-0.474-0.513-1.028-1.228-0.924c-0.703,0.103-1.3,0.334-1.55,1.108
		c-0.182,0.564-0.41,1.122-0.688,1.645c-0.324,0.61-0.24,1.062,0.193,1.614c1.204,1.526,1.809,3.335,2.303,5.195
		c0.176,0.667,0.022,1.141-0.572,1.362c-0.66,0.245-1.049-0.182-1.256-0.773c-0.146-0.411-0.266-0.831-0.392-1.249
		c-0.705-2.342-1.903-4.22-4.31-5.216c-2.123-0.88-4.149-1.992-6.246-2.942c-0.893-0.404-1.754-0.92-2.766-1.106
		c-0.347,0.344-0.787,0.573-0.854,1.052c0.138,0.382,0.446,0.366,0.698,0.476c1.164,0.509,2.332,1.016,3.291,1.888
		c0.377,0.344,0.502,0.764,0.227,1.174c-0.291,0.434-0.75,0.59-1.262,0.33c-0.248-0.126-0.479-0.288-0.721-0.426
		c-0.793-0.454-1.593-0.896-2.467-1.186c-1.388-0.46-2.086-0.15-2.639,1.195c-0.166,0.404-0.312,0.816-0.456,1.229
		c-0.397,1.151-1.117,2.003-2.267,2.463c-0.698,0.28-1.394,0.57-2.096,0.842c-0.957,0.371-1.486,1.016-1.443,2.089
		c0.043,1.061-0.39,1.925-1.153,2.652c-0.812,0.771-1.62,1.545-2.386,2.36c-1.062,1.128-1.192,1.985-0.476,3.354
		c1.072,2.044,2.171,4.076,3.308,6.085c0.63,1.11,1.396,2.141,2.308,3.043c1.741,1.726,3.763,3.053,5.972,4.104
		c0.662,0.314,1.272,0.648,1.315,1.522c0.146,2.991,0.37,5.979,0.456,8.97c0.053,1.798,0.242,3.585,0.326,5.379
		c0.057,1.187,0.102,2.388,0.219,3.578c0.223,2.257,0.471,4.513,0.668,6.772c0.186,2.098,0.499,4.175,0.839,6.251
		c0.449,2.739,0.921,5.477,1.31,8.225c0.314,2.242,0.498,4.502,0.781,6.749c0.363,2.877,0.803,5.744,1.141,8.624
		c0.238,2.037,0.781,3.945,1.812,5.732c1.336,2.315,2.939,4.448,4.442,6.65c2.274,3.334,4.233,6.826,5.423,10.702
		c0.814,2.653,1.708,5.274,2.732,7.854c2.24,5.646,5.139,10.855,9.729,14.983c0.826,0.743,1.527,1.635,2.23,2.502
		c4.68,5.763,8.979,11.804,13.207,17.899c4.767,6.873,9.407,13.828,13.725,20.994c1.291,2.145,2.582,4.295,3.596,6.594
		c0.449,1.017,0.36,1.232-0.599,1.803c-0.628-0.088-0.954-0.511-1.194-1.046c-0.996-2.224-2.275-4.291-3.486-6.397
		C359.541,287.449,358.768,286.3,357.992,285.064z M153.458,72.389c0.882,0.132,1.583,0.247,2.288,0.342
		c1.967,0.265,3.935,0.522,5.903,0.782c2.282,0.301,4.563,0.608,6.846,0.901c2.13,0.273,4.262,0.524,6.392,0.797
		c2.244,0.287,4.486,0.588,6.729,0.881c1.614,0.211,3.229,0.424,4.844,0.629c1.538,0.194,3.072,0.444,4.616,0.551
		c2.263,0.155,4.487,0.591,6.739,0.818c2.289,0.231,4.565,0.589,6.848,0.885c1.498,0.194,2.998,0.373,4.496,0.562
		c2.285,0.29,4.57,0.585,6.855,0.873c1.539,0.193,3.079,0.371,4.616,0.566c2.246,0.286,4.489,0.589,6.735,0.872
		c1.577,0.199,3.159,0.365,4.735,0.564c2.246,0.284,4.488,0.594,6.733,0.878c1.576,0.199,3.157,0.359,4.733,0.559
		c2.246,0.284,4.487,0.598,6.733,0.88c2.207,0.277,4.418,0.525,6.625,0.798c2.325,0.288,4.647,0.592,6.971,0.886
		c1.537,0.194,3.076,0.374,4.611,0.572c2.206,0.284,4.409,0.59,6.616,0.866c2.247,0.281,4.497,0.531,6.744,0.807
		c2.325,0.285,4.647,0.586,6.973,0.875c1.499,0.187,3,0.353,4.498,0.545c2.244,0.289,4.483,0.606,6.729,0.888
		c2.207,0.277,4.42,0.514,6.629,0.786c2.365,0.292,4.729,0.603,7.091,0.908c1.575,0.203,3.151,0.416,4.729,0.615
		c2.205,0.277,4.412,0.547,6.619,0.817c1.578,0.193,3.157,0.377,4.734,0.576c2.244,0.283,4.486,0.586,6.732,0.863
		c2.209,0.271,4.422,0.511,6.631,0.787c2.285,0.285,4.564,0.596,6.848,0.894c1.852,0.242,3.704,0.474,5.554,0.728
		c0.649,0.089,1.054,0.466,1.272,1.104c0.146,0.43,0.195,0.855,0.185,1.294c-0.077,2.801,0.233,5.589,0.315,8.385
		c0.055,1.872,0.096,3.752,0.217,5.625c0.316,4.943,0.482,9.892,0.689,14.84c0.092,2.195,0.142,4.396,0.289,6.583
		c0.284,4.225,0.361,8.458,0.614,12.683c0.207,3.466,0.328,6.94,0.479,10.41c0.164,3.751,0.322,7.501,0.494,11.252
		c0.156,3.431,0.302,6.862,0.467,10.292c0.176,3.669,0.314,7.341,0.49,11.011c0.166,3.509,0.308,7.021,0.474,10.53
		c0.173,3.67,0.333,7.341,0.481,11.012c0.158,3.91,0.338,7.818,0.51,11.729c0.022,0.508,0.135,0.953,0.522,1.283
		c0.728,0.618,1.375,1.381,2.251,1.764c2.141,0.938,4.319,1.781,6.485,2.654c0.062,0.024,0.151-0.025,0.289-0.055
		c0.116-1.146,0.489-2.293,1.245-3.141c1.414-1.586,1.295-3.275,0.736-5.084c-0.047-0.152-0.138-0.299-0.15-0.453
		c-0.133-1.575-0.45-1.941,1.414-2.717c-0.389-0.99-0.6-2.051-0.672-3.1c-0.082-1.189,1.028-1.888,1.653-2.795
		c-0.384-0.415-0.733-0.73-1.12-1.02c-0.811-0.602-1.482-1.334-1.959-2.232c-0.638-1.207-0.484-2.426,0.469-3.398
		c0.39-0.397,0.82-0.766,1.273-1.088c1.816-1.297,3.637-2.588,5.484-3.839c0.638-0.433,0.935-0.931,0.808-1.7
		c-0.429-2.617-0.21-5.267-0.383-7.899c-0.258-3.943-0.343-7.9-0.506-11.852c-0.164-3.991-0.314-7.983-0.481-11.975
		c-0.164-3.951-0.314-7.903-0.478-11.854c-0.167-4.031-0.312-8.063-0.484-12.094c-0.166-3.911-0.313-7.822-0.475-11.733
		c-0.167-4.071-0.327-8.142-0.489-12.213c-0.154-3.872-0.359-7.743-0.461-11.613c-0.137-5.153-0.504-10.296-0.555-15.452
		c-0.012-1.259-0.191-2.517-0.295-3.77C302.181,79.75,227.75,70.202,153.098,60.625C153.543,64.697,153.172,68.551,153.458,72.389z
		 M384.223,201.077c-0.438,0.353-0.799,0.668-1.188,0.944c-2.141,1.526-4.294,3.035-6.43,4.568c-0.67,0.48-1.395,0.932-1.746,1.719
		c0.102,0.623,0.472,1.041,0.839,1.463c0.581,0.668,1.345,1.127,1.989,1.723c0.984,0.908,1.071,1.607,0.299,2.705
		c-0.363,0.518-0.791,0.99-1.229,1.531c0.213,1.117-0.02,2.414,1.221,3.152c0.479,0.285,0.864,0.6,0.742,1.219
		c-0.136,0.676-0.705,0.799-1.259,0.912c-0.452,0.092-0.95-0.123-1.378,0.182c-0.145,1.131,0.314,2.146,0.555,3.172
		c0.209,0.896,0.023,1.572-0.504,2.211c-0.562,0.68-0.984,1.445-1.439,2.191c-0.615,1.008-0.646,1.974,0.164,2.929
		c0.298,0.35,0.645,0.587,1.023,0.799c1.042,0.583,2.104,1.133,3.139,1.728c2.766,1.584,5.475,3.262,7.938,5.293
		c3.603,2.972,6.438,6.635,9.237,10.328c1.609,2.127,3.127,4.32,4.6,6.545c0.325,0.492,0.666,1.004,1.328,1.127
		c0.854,0.16,1.712,0.312,2.559,0.508c4.088,0.951,8.182,1.863,12.136,3.318c2.342,0.861,4.622,1.905,7.059,2.504
		c0.766,0.188,1.524,0.41,2.361,0.047c0-0.338,0.049-0.662-0.008-0.969c-0.326-1.752-0.704-3.49-1.391-5.146
		c-0.651-1.578-0.794-3.258-0.691-4.916c0.133-2.139,0.63-4.229,1.385-6.244c1.828-4.891,4.215-9.438,8.097-13.051
		c1.842-1.715,3.733-3.375,5.58-5.086c2.318-2.147,4.393-4.512,6.261-7.066c3.058-4.18,4.415-8.889,4.261-14
		c-0.103-3.374-0.584-6.732-1.417-10.015c-1.164-4.591-3.299-8.667-6.57-12.14c-3.233-3.431-7.119-5.871-11.429-7.658
		c-4.384-1.818-8.933-2.97-13.679-3.439c-2.531-0.251-5.032-0.207-7.517,0.119c-4.22,0.554-8.098,2.126-11.78,4.252
		c-3.366,1.943-6.124,4.404-7.727,8.036c-0.787,1.785-1.79,3.465-2.824,5.122c-0.379,0.607-0.767,1.222-0.927,1.928
		c-0.316,1.402-1.024,2.829,0.178,4.177c0.092,0.103,0.135,0.32,0.096,0.455c-0.238,0.824-0.092,1.606,0.082,2.429
		c0.149,0.711-0.564,1.18-1.257,0.909C384.716,201.493,384.514,201.283,384.223,201.077z M312.566,100.478
		c0.23,0.125,0.363,0.244,0.512,0.271c1.951,0.348,3.904,0.677,5.855,1.023c3.004,0.534,6.004,1.083,9.008,1.617
		c2.849,0.507,5.694,1.03,8.551,1.493c1.722,0.279,2.139,0.655,2.119,2.39c-0.037,3.519,0.18,7.034,0.33,10.543
		c0.227,5.308,0.356,10.619,0.603,15.926c0.194,4.228,0.328,8.461,0.474,12.692c0.161,4.75,0.34,9.5,0.498,14.251
		c0.137,4.111,0.301,8.222,0.45,12.333c0.175,4.791,0.37,9.582,0.495,14.373c0.091,3.475,0.416,6.945,0.297,10.426
		c-0.008,0.238,0.016,0.481,0.055,0.716c0.082,0.524,0.293,0.916,0.778,1.255c1.045,0.729,2.022,1.557,2.998,2.38
		c4.063,3.435,7.411,7.45,9.847,12.201c1.174,2.291,2.231,4.647,3.704,6.772c0.369,0.532,0.65,1.157,1.291,1.521
		c0.226-1.65-0.179-3.191-0.155-4.745c0.041-2.801-0.242-5.587-0.324-8.382c-0.057-1.871-0.117-3.75-0.213-5.623
		c-0.217-4.348-0.531-8.69-0.646-13.039c-0.07-2.716-0.257-5.426-0.342-8.14c-0.062-1.952-0.062-3.916-0.225-5.865
		c-0.354-4.22-0.402-8.453-0.619-12.679c-0.143-2.788-0.285-5.583-0.353-8.38c-0.045-1.871-0.078-3.755-0.22-5.624
		c-0.342-4.501-0.434-9.013-0.645-13.519c-0.121-2.631-0.257-5.266-0.344-7.901c-0.062-1.871-0.113-3.75-0.211-5.624
		c-0.229-4.385-0.529-8.769-0.648-13.157c-0.072-2.675-0.387-5.34-0.304-8.022c0.021-0.667-0.147-1.341-0.245-2.153
		c-14.929-1.865-29.836-3.727-45.031-5.625c1.229,1.974,2.895,3.24,3.742,4.945C313.509,99.854,313.018,100.096,312.566,100.478z
		 M207.924,311.938c0.264-0.484,0.182-0.893,0.177-1.283c-0.058-4.998,0.022-9.996-0.153-14.995
		c-0.236-6.755-0.157-13.515-0.275-20.272c-0.196-11.314-0.241-22.633-0.492-33.947c-0.128-5.758,0.038-11.518-0.205-17.274
		c-0.248-5.874-0.016-11.756-0.219-17.636c-0.166-4.795-0.103-9.597-0.152-14.396c-0.004-0.468,0.087-0.968-0.315-1.456
		c-3.877-0.489-7.834-0.67-11.745-0.796c-0.24,0.522-0.155,0.927-0.154,1.319c0.029,6.318,0.274,12.63,0.427,18.945
		c0.163,6.715,0.352,13.43,0.466,20.145c0.089,5.236,0.272,10.473,0.351,15.71c0.055,3.676,0.103,7.356,0.241,11.032
		c0.212,5.634,0.285,11.271,0.433,16.904c0.157,5.996,0.392,11.99,0.453,17.984c0.048,4.799,0.337,9.592,0.305,14.393
		c-0.015,2.113,0.237,4.23,0.204,6.353c-0.003,0.236-0.023,0.484,0.257,0.777C200.933,312.95,204.417,312.446,207.924,311.938z
		 M339.768,197.738c0.215-1.381-0.104-2.564-0.125-3.756c-0.082-4.514-0.295-9.023-0.466-13.534
		c-0.167-4.43-0.31-8.862-0.477-13.292c-0.173-4.551-0.322-9.103-0.489-13.654c-0.162-4.432-0.331-8.863-0.479-13.295
		c-0.223-6.708-0.496-13.415-0.705-20.122c-0.112-3.593-0.402-7.184-0.307-10.784c0.021-0.832-0.09-1.655-0.328-2.433
		c-7.629-1.35-15.179-2.686-22.957-4.062c1.127,3.055,1.891,5.9,2.529,8.834c1.23-1.095,1.598-1.32,2.546-1.594
		c1.331-0.385,2.646,0.015,3.248,1.097c0.736,1.326,1.625,2.551,2.414,3.841c0.371,0.606,0.793,1.199,0.779,1.964
		c-0.021,1.199,0.069,2.411-0.074,3.594c-0.216,1.772-0.063,3.502,0.276,5.229c0.326,1.658,0.434,3.338,0.188,4.996
		c-0.349,2.35-0.934,4.658-1.518,6.962c-0.594,2.341-0.811,4.699-0.26,7.083c1.973,8.531,4.114,17.019,6.67,25.395
		c1.191,3.909,2.31,7.832,3.045,11.852c0.699,3.82,1.322,7.655,2.002,11.479c0.123,0.695,0.218,1.445,0.846,1.915
		C337.238,196.284,338.4,197.033,339.768,197.738z M305.909,195.633c-0.247,0.441-0.14,0.837-0.155,1.216
		c-0.09,2.242,0.208,4.473,0.225,6.711c0.045,6.117,0.258,12.229,0.418,18.346c0.153,5.955,0.207,11.912,0.354,17.867
		c0.2,8.233,0.49,16.466,0.654,24.699c0.127,6.274,0.271,12.551,0.451,18.823c0.176,6.155,0.266,12.312,0.406,18.468
		c0.036,1.666,0.121,3.329,0.184,4.965c0.977,0.251,8.086,0.399,8.765,0.197c-0.021-0.428-0.053-0.862-0.06-1.299
		c-0.153-10.314-0.316-20.631-0.526-30.945c-0.173-8.475-0.285-16.951-0.446-25.427c-0.186-9.675-0.322-19.351-0.494-29.024
		c-0.035-1.944-0.48-3.59-1.625-5.1c-0.072-0.095-0.127-0.203-0.194-0.302c-1.521-2.245-3.064-4.474-4.552-6.74
		c-1.393-2.12-2.338-4.409-2.604-6.972C306.521,199.307,306.188,197.512,305.909,195.633z M192.792,79.633
		c-0.596,5.738,0.089,68.562,0.787,72.33c3.281-0.437,6.61-0.506,9.949-1.036c0-0.5,0.008-0.896-0.001-1.292
		c-0.156-6.434-0.326-12.866-0.469-19.3c-0.113-5.115-0.178-10.231-0.294-15.347c-0.127-5.634-0.32-11.267-0.423-16.901
		c-0.079-4.316-0.322-8.628-0.295-12.948c0.009-1.383-0.167-2.767-0.26-4.174C198.742,80.515,195.8,80.079,192.792,79.633z
		 M204.09,80.928c-0.022,0.153-0.045,0.305-0.068,0.458c30.268,5.365,60.535,10.73,90.802,16.096
		c0.031-0.088,0.064-0.176,0.097-0.265c-1.222-0.798-2.428-1.622-3.672-2.383c-0.54-0.33-0.979-0.677-1.072-1.325
		c0.573-1.017,0.759-1.125,1.782-0.973c1.389,0.206,2.775,0.084,4.174-0.074C265.451,88.618,234.771,84.773,204.09,80.928z
		 M344.255,264.785c-0.147,1.124,0.162,2.091,0.13,3.066c-0.111,3.477,0.223,6.942,0.303,10.416
		c0.055,2.392,0.092,4.789,0.225,7.182c0.221,3.986,0.339,7.975,0.445,11.965c0.062,2.393,0.298,4.779,0.268,7.178
		c-0.002,0.106,0.062,0.146,0.184,0.107c0.119-0.059,0.217-0.159,0.27-0.326c2.389-7.557,5.629-14.752,9.288-21.766
		c0.362-0.695,0.362-1.213-0.076-1.859c-3.076-4.546-6.106-9.124-9.198-13.659C345.57,266.328,345.148,265.453,344.255,264.785z
		 M314.109,113.777c-0.651-4.735-1.84-9.258-4.066-13.431c-2.005-0.397-3.938-0.233-5.926-0.48c1.29,3.335,0.714,6.714,1.206,9.984
		C308.244,111.152,311.141,112.45,314.109,113.777z M310.223,98.241c-0.287-0.946-0.951-1.389-1.359-2.006
		c-0.492-0.745-1.133-0.987-2.019-0.985c-3.034,0.004-6.062-0.237-9.092-0.4c-0.772-0.042-1.549-0.006-2.323-0.006
		c1.79,1.14,3.184,2.852,5.637,2.719c1.603-0.087,3.262,0.117,4.892,0.303C307.33,98.022,308.729,97.963,310.223,98.241z"/>
	<path d="M402.211,219.923c0.733,0.177,1.004,0.636,0.981,1.323c-0.018,0.52-0.009,1.039-0.009,1.559
		c-0.001,0.324,0.001,0.649,0.4,0.848c0.249,0.104,0.493-0.073,0.745-0.174c2.334-0.934,4.59-2.057,6.599-3.553
		c2.61-1.943,3.133-4.759,2.729-7.807c-0.146-1.096-0.433-2.178-1.146-3.085c-0.677-0.86-1.237-0.998-2.145-0.398
		c-1.285,0.853-2.287,1.96-2.898,3.399c-0.23,0.548-0.454,1.134-1.31,1.225c-0.661-0.13-0.989-0.708-0.736-1.381
		c0.937-2.479,2.529-4.408,5.03-5.458c1.017-0.426,1.938-0.116,2.768,0.544c1.503,1.199,2.123,2.912,2.362,4.688
		c0.372,2.768,0.118,5.48-1.576,7.883c-0.751,1.064-1.68,1.947-2.78,2.589c-1.784,1.039-3.636,1.965-5.468,2.92
		c-0.349,0.183-0.734,0.296-1.113,0.411c-1.84,0.561-3.127-0.3-3.407-2.193c-0.12-0.812,0.071-1.59,0.083-2.385
		C401.328,220.33,401.754,220.066,402.211,219.923z"/>
</g>
</svg>
