<?xml version="1.0" encoding="utf-8"?>
<!-- Generator: Adobe Illustrator 16.2.1, SVG Export Plug-In . SVG Version: 6.00 Build 0)  -->
<!DOCTYPE svg PUBLIC "-//W3C//DTD SVG 1.1//EN" "http://www.w3.org/Graphics/SVG/1.1/DTD/svg11.dtd">
<svg version="1.1" id="RS_x5F_straps11d_xA0_Image_1_"
	 xmlns="http://www.w3.org/2000/svg" xmlns:xlink="http://www.w3.org/1999/xlink" x="0px" y="0px" width="528px" height="396px"
	 viewBox="0 0 528 396" enable-background="new 0 0 528 396" xml:space="preserve">
<g>
	<path d="M152.4,396.24c0.143-2.371,0.94-4.564,1.868-6.713c2.218-5.142,5.612-9.419,9.703-13.189
		c2.915-2.687,6.064-5.048,9.477-7.062c0.273-0.161,0.555-0.321,0.759-0.655c0-0.792,0.058-1.633-0.011-2.463
		c-0.19-2.315-0.183-4.635-0.181-6.954c0.005-6.078-0.217-12.152-0.303-18.229c-0.119-8.354-0.307-16.708-0.451-25.062
		c-0.15-8.715-0.438-17.427-0.449-26.144c0-0.365-0.008-0.707-0.25-1.018c-0.173-0.223-0.238-0.5-0.231-0.791
		c0.042-1.881-0.239-3.745-0.261-5.627c-0.058-4.954-0.365-9.9-0.502-14.854c-0.115-4.15-0.292-8.305-0.486-12.451
		c-0.151-3.231-0.096-6.474-0.428-9.694c-0.111-1.08,0.135-1.91,1.499-2.133c-0.501-1.982-0.158-3.943-0.413-5.88
		c-0.062-0.475-0.102-0.954-0.111-1.434c-0.214-10.955-0.286-21.912-0.27-32.869c0.033-22.596,0.029-45.19,0.041-67.787
		c0-0.678,0-1.356,0-2.135c-1.1-0.349-1.215-1.223-1.247-2.259c-0.169-5.51-0.374-11.019-0.641-16.525
		c-0.101-2.071-0.147-4.146-0.312-6.213c-0.18-2.259-0.506-4.509-0.625-6.771c-0.078-1.484,0.538-2.786,1.697-3.771
		c0.271-0.23,0.599-0.395,0.831-0.716c0-20.128,0-40.28,0-60.642c-4.319-0.729-8.679-1.169-13.013-1.775
		c-4.404-0.614-8.812-1.199-13.222-1.772c-4.362-0.568-8.728-1.105-13.07-1.654c-0.459,0.425-0.284,0.937-0.28,1.39
		c0.064,7.037,0.173,14.075,0.212,21.112c0.055,9.958-0.044,19.918,0.113,29.874c0.227,14.356-0.035,28.715,0.214,43.069
		c0.248,14.316-0.011,28.635,0.229,42.949c0.254,15.236-0.004,30.474,0.256,45.708c0.259,15.156-0.023,30.314,0.25,45.469
		c0.26,14.438-0.025,28.875,0.232,43.311c0.255,14.316-0.025,28.636,0.228,42.949c0.281,15.877,0.017,31.754,0.278,47.629
		c0.01,0.595-0.076,1.202,0.151,1.781c-0.72,0-1.44,0-2.16,0c0.002-10.278-0.009-20.558-0.14-30.835
		c-0.145-11.479,0.062-22.96-0.133-34.438c-0.284-16.758-0.018-33.517-0.306-50.272c-0.234-13.598,0.047-27.198-0.195-40.795
		c-0.269-15.157,0.009-30.316-0.253-45.474c-0.249-14.358,0.027-28.718-0.228-43.074c-0.283-15.917,0.011-31.836-0.278-47.752
		c-0.248-13.638,0.035-27.278-0.201-40.914c-0.25-14.438-0.097-28.876-0.205-43.314c-0.008-1.16-0.062-2.319-0.06-3.479
		c0.002-1.58,0.59-2.018,2.155-1.78c3.453,0.523,6.915,0.993,10.37,1.506c2.944,0.438,5.882,0.916,8.825,1.358
		c2.394,0.36,4.794,0.686,7.189,1.041c2.356,0.35,4.709,0.722,7.065,1.075c2.434,0.365,4.87,0.718,7.305,1.081
		c2.356,0.351,4.712,0.704,7.067,1.061c2.394,0.362,4.787,0.731,7.18,1.096c2.983,0.455,5.966,0.915,8.95,1.359
		c2.395,0.357,4.793,0.691,7.188,1.045c2.358,0.348,4.714,0.709,7.071,1.061c2.475,0.37,4.951,0.728,7.424,1.104
		c2.905,0.442,5.807,0.906,8.713,1.347c2.356,0.357,4.717,0.692,7.074,1.044c2.436,0.364,4.869,0.74,7.304,1.106
		c2.357,0.355,4.715,0.707,7.074,1.055c2.396,0.354,4.794,0.697,7.19,1.053c2.435,0.362,4.868,0.733,7.302,1.104
		c2.435,0.372,4.868,0.758,7.304,1.122c2.396,0.358,4.797,0.689,7.193,1.043c2.358,0.348,4.715,0.71,7.071,1.064
		c2.437,0.366,4.871,0.731,7.307,1.095c2.357,0.353,4.716,0.703,7.073,1.053c2.475,0.369,4.95,0.73,7.423,1.107
		c2.906,0.443,5.81,0.91,8.716,1.35c2.396,0.362,4.795,0.695,7.189,1.047c2.357,0.347,4.717,0.698,7.072,1.055
		c2.395,0.362,4.787,0.738,7.181,1.1c2.437,0.369,4.873,0.729,7.31,1.09c0.825,0.123,1.651,0.241,2.479,0.355
		c1.722,0.239,2.502,0.496,2.439,2.626c-0.086,2.918-0.166,5.837-0.181,8.756c-0.043,8.679,0.073,17.361-0.108,26.037
		c-0.254,12.158,0.01,24.318-0.269,36.474c-0.249,10.878,0.038,21.759-0.22,32.634c-0.271,11.478,0.021,22.958-0.246,34.434
		c-0.252,10.839-0.021,21.679-0.217,32.515c-0.109,6.119-0.197,12.236-0.178,18.355c0.002,0.438,0,0.875,0,1.443
		c4.979,1.488,10.061,2.478,14.916,4.121c0.312-0.553,0.217-0.961,0.219-1.353c0.104-13.438,0.09-26.878,0.342-40.312
		c0.162-8.639-0.029-17.279,0.254-25.915c0.234-7.158-0.025-14.32,0.184-21.475c0.254-8.758,0.012-17.52,0.272-26.273
		c0.255-8.558-0.022-17.118,0.262-25.673c0.238-7.198-0.024-14.4,0.187-21.595c0.256-8.678,0.012-17.36,0.271-26.034
		c0.257-8.598,0.007-17.197,0.253-25.794c0.053-1.799,0.104-3.598,0.133-5.396c0.008-0.387,0.111-0.801-0.193-1.231
		c-1.553-0.414-3.211-0.562-4.842-0.843c-2.854-0.491-5.715-0.937-8.576-1.387c-2.744-0.432-5.492-0.836-8.236-1.27
		c-2.781-0.439-5.559-0.907-8.338-1.35c-2.743-0.437-5.488-0.854-8.23-1.289c-3.291-0.522-6.578-1.059-9.869-1.58
		c-2.78-0.44-5.562-0.862-8.344-1.3c-2.742-0.432-5.481-0.876-8.224-1.313c-2.78-0.443-5.562-0.885-8.345-1.324
		c-2.741-0.433-5.485-0.856-8.229-1.292c-2.271-0.361-4.543-0.734-6.814-1.103c-2.816-0.456-5.633-0.922-8.452-1.366
		c-2.783-0.438-5.571-0.844-8.354-1.283c-2.743-0.433-5.481-0.894-8.222-1.335c-2.702-0.436-5.404-0.87-8.108-1.291
		c-2.744-0.427-5.493-0.827-8.238-1.253c-2.978-0.463-5.954-0.943-8.931-1.412c-0.165-0.026-0.312-0.069-0.413-0.21
		c4.24,0,8.48,0,12.72,0c1.176,0.521,2.464,0.488,3.697,0.706c3.359,0.593,6.734,1.092,10.104,1.621
		c2.783,0.436,5.568,0.852,8.35,1.295c2.743,0.436,5.481,0.898,8.224,1.341c2.193,0.354,4.389,0.695,6.582,1.044
		c2.859,0.456,5.719,0.917,8.578,1.368c2.742,0.432,5.486,0.852,8.229,1.28c2.744,0.429,5.488,0.856,8.229,1.293
		c2.781,0.442,5.562,0.896,8.342,1.343c3.326,0.536,6.654,1.076,9.982,1.604c2.742,0.435,5.488,0.846,8.229,1.282
		c2.819,0.448,5.634,0.925,8.453,1.37c2.78,0.438,5.567,0.841,8.35,1.28c2.742,0.433,5.479,0.901,8.22,1.336
		c2.783,0.442,5.569,0.863,8.354,1.294c1.606,0.249,3.219,0.475,4.819,0.755c1.06,0.185,1.404,0.674,1.4,1.875
		c-0.021,6.039-0.033,12.076-0.173,18.115c-0.153,6.637,0.038,13.281-0.149,19.916c-0.242,8.519,0.024,17.039-0.252,25.554
		c-0.259,7.918,0.035,15.839-0.224,23.753c-0.261,7.999,0.019,16-0.235,23.995c-0.273,8.638,0.015,17.279-0.268,25.913
		c-0.26,7.917,0.046,15.84-0.225,23.754c-0.293,8.597,0.02,17.199-0.271,25.792c-0.245,7.277-0.021,14.559-0.173,21.836
		c-0.082,3.957-0.236,7.914-0.191,11.875c0.006,0.437,0.002,0.873,0.002,1.256c0.649,0.585,1.399,0.765,2.082,1.068
		c4.225,1.885,8.211,4.239,12.383,6.23c0.502,0.24,1.02,0.454,1.514,0.713c2.518,1.32,5.181,1.337,7.914,0.979
		c1.421-0.188,2.859-0.285,4.294-0.315c2.479-0.052,4.965-0.131,7.438,0.005c3.332,0.184,6.657,0.539,9.925,1.28
		c0.395,0.089,0.771,0.185,1.271,0.048c0.653-1.384,1.072-2.904,1.513-4.42c0.863-2.96,1.363-5.964,1.146-9.062
		c-0.097-1.373-0.666-2.427-1.882-3.11c-1.339-0.753-2.823-1.033-4.296-1.354c-2.094-0.453-4.209-0.828-6.002-2.144
		c-1.583-1.16-2.387-2.69-2.492-4.653c-0.106-1.943,0.496-3.679,1.329-5.377c0.438-0.89,1-1.719,1.312-2.65
		c-1.604-3.367-1.025-3.854,0.2-5.777c-0.14-0.887-0.276-1.783-0.425-2.68c-0.143-0.857,0.179-1.455,0.943-1.867
		c0.825-0.443,1.41-1.115,1.764-1.906c-0.299-0.627-0.839-0.616-1.266-0.789c-1.231-0.499-2.371-1.137-3.277-2.126
		c-1.506-1.644-1.435-2.961,0.3-4.356c2.082-1.678,4.199-3.312,6.306-4.959c1.917-1.5,3.84-2.992,5.76-4.487
		c0.188-0.146,0.378-0.291,0.512-0.394c0-1.128,0.021-2.127-0.005-3.125c-0.044-1.632,0.317-3.167,1.14-4.566
		c3.018-5.137,6.479-9.949,10.62-14.247c1.551-1.609,3.484-2.642,5.534-3.462c2.773-1.11,5.652-1.782,8.616-2.208
		c2.622-0.377,5.243-0.54,7.87-0.403c2.417,0.125,4.788,0.652,7.132,1.272c6.14,1.623,11.996,3.941,17.424,7.26
		c3.624,2.216,6.947,4.803,9.498,8.275c2.178,2.966,3.497,6.306,4.387,9.839c1.088,4.322,1.437,8.732,1.17,13.159
		c-0.367,6.086-1.645,11.953-4.8,17.286c-1.047,1.771-2.358,3.308-3.844,4.718c-3.798,3.606-7.501,7.299-10.642,11.516
		c-2.986,4.012-5.476,8.293-7.222,12.992c-0.529,1.426-0.812,2.902-1.045,4.394c-0.118,0.755,0.09,1.37,0.692,1.917
		c4.254,3.852,7.862,8.271,11.113,12.975c3.29,4.762,6.008,9.84,7.961,15.304c1.379,3.856,2.324,7.805,2.812,11.887
		c0.539,4.508,0.541,9.013,0.161,13.509c-0.576,6.814-1.85,13.518-3.658,20.115c-3.733,13.608-9.181,26.526-15.673,39.029
		c-3.152,6.067-6.462,12.059-9.267,18.306c-1.153,2.571-2.282,5.15-3.182,7.825c-0.078,0.232-0.123,0.456-0.088,0.697
		c-0.722,0-1.44,0-2.16,0c0.758-2.679,1.812-5.247,2.939-7.782c3.061-6.878,6.651-13.49,10.126-20.16
		c6.11-11.729,11.219-23.855,14.889-36.575c1.675-5.805,2.92-11.701,3.698-17.687c0.405-3.122,0.59-6.273,0.579-9.433
		c-0.012-3.273-0.048-6.552-0.579-9.787c-0.821-4.998-2.369-9.779-4.526-14.359c-2.907-6.174-6.719-11.754-11.154-16.915
		c-0.736-0.858-1.401-1.815-2.415-2.45c0.031,0.234,0.124,0.436,0.228,0.632c0.184,0.354,0.401,0.692,0.556,1.06
		c1.01,2.404-0.114,3.967-2.589,4.315c-2.441,0.345-4.858-0.028-7.221-0.604c-5.427-1.326-10.784-2.959-16.355-3.608
		c-1.127-0.132-2.249-0.478-3.424-0.295c0.051,0.101,0.064,0.196,0.119,0.228c0.311,0.18,0.629,0.346,0.946,0.51
		c5.352,2.748,10.685,5.528,15.675,8.908c2.725,1.846,5.216,3.92,6.945,6.805c4.587,7.646,6.87,15.914,6.941,24.828
		c0.038,4.748-0.722,9.324-2.401,13.767c-2.975,7.865-8.198,13.776-15.538,17.794c-4.686,2.565-9.723,3.988-15.075,4.462
		c-3.062,0.271-6.07,0.136-9.056-0.366c-4.354-0.731-8.557-2.062-12.617-3.812c-5.346-2.305-10.288-5.24-14.53-9.276
		c-3.011-2.863-5.482-6.104-7.028-9.993c-1.582-3.977-1.963-8.074-1.309-12.302c0.236-1.524,0.693-2.994,1.048-4.627
		c-1.361-0.599-2.685-1.178-3.999-1.756c-0.262,0.239-0.447,0.389-0.605,0.562c-3.008,3.289-4.976,7.188-6.488,11.318
		c-2.039,5.568-3.184,11.344-3.912,17.225c-0.418,3.366-0.744,6.742-0.872,10.118c-0.286,7.55-0.37,15.106-0.537,22.66
		c-0.011,0.439-0.024,0.879-0.044,1.318c-0.223,5.106-0.432,10.216-0.671,15.322c-0.134,2.829-0.306,5.657-0.478,8.484
		c-0.145,2.353,0.069,4.704-0.177,7.065c-0.149,1.454-0.453,2.925-0.287,4.408c-0.72,0-1.44,0-2.159,0
		c0.282-1.854,0.452-3.716,0.51-5.593c0.065-2.194-0.021-4.387,0.166-6.589c0.242-2.819,0.359-5.655,0.504-8.484
		c0.181-3.589,0.339-7.182,0.469-10.772c0.243-6.671,0.359-13.347,0.521-20.021c0.039-1.56-0.006-3.121,0.08-4.678
		c0.195-3.504,0.256-7.017,0.646-10.508c0.182-1.619,0.365-3.239,0.604-4.851c0.07-0.479,0.17-0.933,0.004-1.46
		c-1.877-0.342-3.578-1.417-5.52-1.48c-0.229,0.376-0.156,0.703-0.157,1.017c-0.013,3.239-0.045,6.478-0.144,9.717
		c-0.262,8.635-0.008,17.273-0.264,25.913c-0.188,6.434,0,12.879-0.139,19.314c-0.132,6.158-0.186,12.315-0.162,18.475
		c-0.72,0-1.439,0-2.16,0c0.301-2.023,0.229-4.062,0.246-6.099c0.057-6.634-0.044-13.269,0.143-19.904
		c0.267-9.429,0.033-18.863,0.31-28.296c0.19-6.511-0.032-13.03,0.134-19.546c0.01-0.396,0.09-0.802-0.146-1.19
		c-2.881-0.941-5.885-1.528-8.74-2.631c-0.768-0.296-1.604-0.191-2.426,0.195c-1.188,0.561-2.247,1.326-3.598,1.967
		c0,1.406,0.019,2.843-0.004,4.277c-0.205,13.389-0.037,26.78-0.293,40.17c-0.199,10.351,0.088,20.706-0.264,31.057
		c-0.641,0-1.279,0-1.92,0c-0.048-12.512,0.337-25.02,0.268-37.529c-0.07-12.521,0.439-25.042,0.164-37.655
		c-1.873,0.515-3.642,0.142-5.357,0.329c-0.354,0.575-0.646,1.149-1.03,1.65c-0.822,1.068-2.017,1.26-3.188,0.589
		c-0.709-0.406-1.217-1.027-1.774-1.597c-0.356-0.361-0.636-0.828-1.238-0.924c-0.922,0.452-1.78,1.132-2.979,0.76
		c-1.184-0.365-1.514-1.478-2.162-2.358c-0.299,0.42-0.221,0.786-0.223,1.133c-0.049,7.193-0.291,14.382-0.449,21.572
		c-0.164,7.59-0.269,15.181-0.5,22.769c-0.107,3.554-0.164,7.113-0.199,10.667c-0.057,5.755-0.391,11.504-0.317,17.261
		c0.015,1.112,0.08,2.237-0.211,3.335c-0.64,0-1.28,0-1.92,0c-0.008-2.12,0.207-4.235,0.222-6.353
		c0.055-8.636,0.367-17.266,0.52-25.899c0.129-7.394,0.314-14.786,0.472-22.181c0.035-1.679,0.037-3.357,0.074-5.037
		c0.131-5.954,0.272-11.908,0.401-17.861c0.006-0.306,0.107-0.645-0.186-0.934c-1.148,0.074-2.176-0.247-2.986-1.145
		c-0.754-0.835-0.953-1.975-1.526-2.905c-3.229,1.746-5.707,0.495-7.187-1.288c-2.433-2.929-2.953-6.354-1.908-10.014
		c0.477-1.659,1.441-3.041,2.562-4.334c-0.998-1.154-1.687-2.387-2.079-3.793c-0.541-1.938-0.044-3.041,1.799-3.821
		c0.254-0.108,0.523-0.185,0.79-0.261c1.705-0.481,3.405-0.252,5.082,0.115c2.032,0.446,4.046,0.979,6.097,1.482
		c0.324-0.824,0.256-1.634,0.254-2.418c-0.01-6.678,0.277-13.35,0.382-20.025c0.01-0.627-0.179-1.078-0.679-1.429
		c-2.508-1.751-4.623-3.938-6.606-6.229c-4.181-4.828-7.728-10.119-11.121-15.523c-3.389-5.396-6.354-11.043-9.761-16.426
		c-0.971-1.532-1.873-3.112-3.236-4.516c-0.351,6.021-0.701,12.043-1.056,18.135c1.132,0.312,1.214,1.164,1.21,2.101
		c-0.014,3.078,0.002,6.156,0.004,9.233c0.005,9.557,0.014,19.111,0.008,28.666c-0.002,2.508-0.033,2.52-2.447,2.83
		c-0.021,0.138-0.06,0.289-0.064,0.441c-0.235,5.991-0.292,11.988-0.441,17.98c-0.18,7.192-0.363,14.388-0.457,21.581
		c-0.086,6.437-0.396,12.869-0.313,19.309c0.014,1.085,0.173,2.151,0.348,3.205c0.47,2.853,1.026,5.69,1.595,8.527
		c0.506,2.522,1.098,4.986,2.319,7.328c2.505,4.8,3.95,9.963,4.347,15.37c0.252,3.436-0.166,6.825-1.101,10.154
		c-0.584,2.078-1.551,3.985-2.444,5.93c-0.8,0-1.6,0-2.399,0c-0.015-0.265,0.168-0.442,0.29-0.643
		c3.197-5.173,4.062-10.855,3.518-16.79c-0.283-3.092-1.072-6.104-2.197-9.006c-0.629-1.623-1.252-3.258-2.136-4.765
		c-0.405,0.2-0.419,0.546-0.521,0.839c-0.528,1.541-1.037,3.089-1.586,4.624c-0.25,0.695-0.316,1.395-0.232,2.118
		c0.475,4.146,0.48,8.296-0.021,12.438c-0.479,3.924-1.389,7.703-3.987,10.854c-0.065,0.079-0.06,0.218-0.086,0.328
		c-1.12,0-2.239,0-3.359,0c2.474-1.828,3.837-4.334,4.593-7.271c1.316-5.126,1.244-10.321,0.904-15.536
		c-0.027-0.425-0.205-0.841-0.316-1.28c-2.949-1.082-6.004-1.754-8.912-3.023c-2.133,2.431-4.225,4.877-6.152,7.465
		c-0.848,1.135-1.502,2.336-1.875,3.692c-0.768,2.793-0.961,5.609-0.518,8.49c0.5,3.235,1.801,5.897,4.836,7.463
		c-1.199,0-2.398,0-3.6,0c0.001-0.271-0.201-0.435-0.365-0.587c-1.279-1.185-1.955-2.719-2.434-4.333
		c-0.886-2.997-0.98-6.053-0.477-9.132c0.461-2.81,1.519-5.324,3.332-7.566c2.158-2.671,4.324-5.333,6.728-7.896
		c-0.085-1.91-0.366-3.832-0.604-5.732c-0.369-0.135-0.588,0.061-0.812,0.227c-1.892,1.404-3.74,2.87-5.446,4.496
		c-1.527,1.458-3.117,2.857-4.27,4.675c-2.877,4.535-4.131,9.501-4.15,14.837c-0.013,3.629,0.863,7.019,2.477,10.243
		c0.121,0.242,0.336,0.46,0.262,0.771c-0.721,0-1.44,0-2.161,0c-1.323-2.612-2.103-5.367-2.417-8.291
		c-0.706-6.571,0.779-12.623,4.1-18.278c1.338-2.277,3.285-4.014,5.195-5.763c1.998-1.831,4.071-3.587,6.354-5.066
		c0.51-0.33,0.591-0.715,0.527-1.312c-0.369-3.479-0.861-6.947-1.18-10.431c-0.136-1.487,0.034-3.041,0.223-4.534
		c0.23-1.829,0.198-3.667,0.338-5.495c0.148-1.94,0.267-3.899,0.342-5.854c0.134-3.388,0.424-6.77,0.647-10.152
		c0.095-1.434,0.151-2.873,0.216-4.305c0.088-1.994,0.226-3.988,0.348-5.979c0.207-3.384,0.293-6.774,0.633-10.149
		c0.148-1.469,0.174-2.952,0.23-4.424c0.08-2.074,0.268-4.145,0.348-6.22c0.062-1.632,0.146-3.27,0.267-4.901
		c0.021-0.279,0.107-0.555-0.135-0.834c-0.069-0.021-0.177-0.071-0.287-0.09c-2.325-0.387-2.308-0.942-2.312-2.711
		c-0.032-12.039,0.375-24.074,0.295-36.113c-0.002-0.199,0.007-0.399,0.015-0.6c0.051-1.453,0.403-1.801,1.869-1.845
		c0.192-0.006,0.387-0.026,0.712-0.052c0.009-1.496,0.152-2.965,0.201-4.424c0.088-2.717,0.166-5.433,0.261-8.147
		c0.144-4.153,0.231-8.308,0.465-12.457c0.062-1.11,0.009-2.228,0.009-3.386c-4.803-0.785-8.798-3.338-12.923-5.588
		c-1.3-0.709-2.198-1.799-2.786-3.166c-0.438-1.023-0.737-2.09-1.088-3.143c-0.327-0.979,0.016-1.699,0.658-2.359
		c0.277-0.284,0.604-0.521,0.91-0.776c1.002-0.834,1.038-0.997,0.646-2.252c-0.3-0.957-0.385-1.932-0.326-2.942
		c0.086-1.522,0.735-2.779,2.017-3.463c1.698-0.908,2.305-2.122,2.149-4.023c-0.131-1.588,0.498-2.973,2.16-3.615
		c0.478-0.184,0.629-0.606,0.67-1.054c0.321-3.411,2.59-4.958,5.92-5.135c0.635-0.034,1.273-0.053,1.903,0.143
		c0.419,0.13,0.864,0.132,1.302-0.007c0.323-0.511,0.233-1.085,0.25-1.635c0.179-6.072,0.299-12.147,0.535-18.217
		c0.176-4.472,0.385-8.941,0.459-13.417c0.024-1.477,0.237-2.945,0.223-4.43c-0.019-1.793,0.059-3.585-0.436-5.342
		c-0.105-0.374-0.052-0.795-0.052-1.194c-0.003-2.72-0.097-5.444,0.021-8.159c0.179-4.188,0.299-8.379,0.641-12.561
		c0.127-1.547,0.181-3.105,0.279-4.659c0.082-1.26,0.101-1.384,1.175-2.171c0.237-0.469,0.239-0.992,0.245-1.51
		c0.019-1.72,0.011-3.44,0.041-5.159c0.088-4.877,0.191-9.755,0.301-14.631c0.158-7.154,0.31-14.309,0.466-21.463
		c0.071-3.277,0.194-6.553,0.194-9.832c0.002-0.437,0.074-0.88-0.127-1.464c-33.065-4.338-66.2-8.685-99.505-13.054
		c0.022,2.03-0.059,4.011,0.092,5.995c0.033,0.438,0.117,0.876,0.109,1.313c-0.075,4.64,0.198,9.274,0.331,13.907
		c0.114,3.954,0.053,7.915,0.349,11.865c0.068,0.916,0.055,1.838,0.074,2.757c0.106,5.155,0.237,10.31,0.429,15.463
		c0.095,2.554,0.016,5.114,0.016,7.489c0.235,0.411,0.45,0.469,0.695,0.526c0.719,0.168,1.01,0.654,1.069,1.384
		c0.135,1.676,0.2,3.355,0.179,5.034c-0.111,8.839,0.298,17.673,0.278,26.512c-0.002,1.255-0.172,2.252-1.707,2.393
		c0,3.224,0.085,6.343-0.016,9.456c-0.327,10.075-0.103,20.155-0.406,30.23c-0.164,5.435,0.048,10.882-0.122,16.316
		c-0.227,7.239,0.006,14.48-0.237,21.712c-0.245,7.279-0.038,14.56-0.238,21.836c-0.093,3.397-0.194,6.795-0.167,10.195
		c0.003,0.467-0.111,0.957,0.136,1.422c0.107,0.041,0.213,0.1,0.325,0.119c1.399,0.266,1.674,0.57,1.679,1.979
		c0.014,3.88-0.035,7.76,0.031,11.639c0.169,9.877,0.259,19.755,0.242,29.635c-0.001,0.791,0.122,1.596-0.562,2.235
		c-0.321,0.3-0.163,0.763-0.167,1.151c-0.031,3.479,0.231,6.951,0.263,10.432c0.06,6.636,0.286,13.269,0.452,19.903
		c0.189,7.553,0.376,15.105,0.527,22.661c0.13,6.514,0.416,13.024,0.441,19.543c0.006,1.677,0.295,3.343,0.206,5.073
		c2.336,0.929,4.548,2.005,6.648,3.279c5.652,3.429,10.227,7.855,12.733,14.125c1.347,3.37,1.864,6.891,1.774,10.509
		c-0.72,0-1.44,0-2.16,0c0.048-1.558,0.028-3.104-0.19-4.66c-0.649-4.646-2.566-8.685-5.677-12.167
		c-3.302-3.694-7.384-6.299-11.847-8.354c-0.342-0.157-0.689-0.45-1.219-0.197c0.07,1.585,0.141,3.21,0.216,4.915
		c1.311,0.346,2.653,0.535,3.877,1.113c3.691,1.744,5.881,4.801,7.361,8.457c1.413,3.489,1.903,7.154,1.958,10.893
		c-0.72,0-1.44,0-2.16,0c0.022-1.314-0.031-2.618-0.191-3.932c-0.334-2.741-1.024-5.359-2.208-7.854
		c-2.034-4.284-5.613-6.293-10.133-6.929c-0.153-0.021-0.319,0.009-0.474,0.039c-3.571,0.713-7.134,1.469-10.715,2.127
		c-1.666,0.308-3.062,1.02-4.292,2.151c-0.703,0.646-1.479,1.213-2.191,1.852c-3.375,3.028-6.339,6.385-8.269,10.545
		c-0.294,0.635-0.762,1.229-0.647,2.001c-0.8,0-1.6,0-2.4,0c2.509-7.343,7.853-12.439,13.622-17.187
		c0.27-2.65,0.128-6.717-0.304-7.641c-0.58,0.356-1.164,0.692-1.724,1.063c-2.299,1.525-4.472,3.216-6.503,5.083
		c-3.702,3.403-6.91,7.19-9.06,11.791c-1.031,2.207-1.814,4.493-2.272,6.889C153.68,396.24,153.04,396.24,152.4,396.24z
		 M283.842,210.004c0.51,0.383,0.936,0.743,1.4,1.045c1.179,0.762,2.171,1.655,2.986,2.85c2.226,3.256,4.521,6.463,6.729,9.731
		c4.148,6.144,7.671,12.664,11.494,19.003c4.039,6.695,8.295,13.237,13.56,19.061c2.367,2.619,4.919,5.021,8.136,6.574
		c2.756,1.332,5.482,2.711,8.153,4.2c5.286,2.949,10.552,5.95,15.429,9.542c3.682,2.713,7.573,4.959,11.828,6.62
		c4.51,1.761,8.998,3.577,13.484,5.394c1.555,0.629,2.928,1.619,4.503,2.229c5.958,2.31,11.827,4.81,17.078,8.536
		c2.64,1.874,5.223,3.832,7.441,6.197c2.077,2.216,3.836,4.705,5.561,7.203c0.528,0.766,0.89,1.648,1.183,2.653
		c-0.771,0.013-1.087-0.468-1.396-0.904c-1.036-1.474-2.178-2.863-3.386-4.19c-4.324-4.752-9.183-8.862-14.766-12.082
		c-2.025-1.169-4.09-2.256-6.253-3.223c-0.132,0.219-0.272,0.373-0.327,0.557c-0.49,1.641-0.856,3.32-0.983,5.018
		c-0.331,4.426,0.519,8.622,2.754,12.493c2.737,4.743,6.694,8.278,11.229,11.218c3.885,2.517,8.062,4.42,12.449,5.892
		c3.243,1.088,6.547,1.997,9.944,2.271c5.984,0.481,11.842-0.253,17.413-2.632c6.858-2.928,12.258-7.532,15.886-14.099
		c2.334-4.224,3.573-8.763,4.055-13.572c0.354-3.533,0.167-7.023-0.347-10.49c-0.558-3.769-1.574-7.443-3.057-10.969
		c-1.347-3.197-2.82-6.335-5.267-8.877c-2.094-2.177-4.637-3.777-7.19-5.332c-8.056-4.902-16.559-8.932-25.155-12.773
		c-7.093-3.168-14.591-4.306-22.275-4.502c-3.396-0.088-6.794,0.177-10.158,0.539c-2.315,0.252-4.416-0.069-6.516-0.916
		c-3.031-1.222-5.893-2.785-8.747-4.353c-5.391-2.958-11.073-5.119-17.046-6.573c-3.77-0.918-7.549-1.807-11.216-3.107
		c-1.916-0.68-3.55-1.699-4.835-3.324c-2.797-3.537-5.619-7.057-8.616-10.428c-1.938-2.178-3.843-4.396-6.09-6.274
		c-2.417-2.021-4.897-3.962-7.117-6.217c-4.151-4.218-7.948-8.747-11.88-13.161c-1.657-1.861-2.416-3.836-2.248-6.298
		c0.126-1.831-0.227-3.656-0.482-5.467c-0.309-2.169-0.859-4.272-2.213-6.078c-0.646-0.862-1.189-1.808-1.895-2.617
		c-0.611-0.702-1.057-1.604-2.041-2.011c-0.836,1.62-1.654,3.208-2.462,4.773c0.59,0.89,1.354,1.486,2.02,2.169
		c1.438,1.472,1.45,1.46,1.604,2.201c-0.289-0.192-0.537-0.398-0.819-0.537c-2.659-1.308-4.93-3.105-7.198-5.025
		c-3.033-2.567-6.867-3.206-10.797-2.879c-1.695,0.141-2.742,1.516-2.73,3.344c0.67,0.051,1.318-0.003,1.986-0.163
		c1.131-0.271,1.479-0.088,1.879,0.795c-1.09,0.484-2.279,0.333-3.408,0.543c-1.475,0.274-2.74,0.947-3.647,2.092
		c-0.825,1.043-0.585,2.263-0.041,3.399c0.29,0.607,0.091,1.083-0.342,1.5c-0.455,0.439-0.874,0.899-1.591,0.98
		c-0.506,0.057-1.018,0.32-1.342,0.734c-1.078,1.382-1.724,2.884-1.02,4.662c0.188,0.476,0.414,0.938,0.639,1.44
		c-0.988,0.658-1.83,1.406-2.103,2.638c-0.548,2.484,0.752,5.453,3.093,6.484c2.664,1.174,5.211,2.58,7.858,3.783
		c2.395,1.088,4.905,1.268,7.476,1.061c0.092-0.008,0.172-0.15,0.275-0.246C284.079,211.46,283.229,210.971,283.842,210.004z
		 M402.196,221.671c-0.548,1.624-1.165,3.13-1.768,4.642c-0.526,1.33-0.877,2.742-0.428,4.195c0.847,2.737,3.002,3.856,5.562,4.471
		c1.439,0.345,2.927,0.193,4.389,0.447c2.221,0.385,3.903,1.307,4.576,3.588c0.235,0.801,0.412,1.613,0.417,2.459
		c0.014,2.32-0.373,4.588-0.879,6.844c-0.486,2.166-1.232,4.256-1.904,6.304c0.147,0.272,0.361,0.295,0.544,0.351
		c4.008,1.192,7.802,2.906,11.562,4.709c0.246,0.117,0.521,0.188,0.789,0.248c1.482,0.338,3.009,0.319,4.511,0.442
		c2.342,0.19,4.672,0.479,6.986,0.831c3.959,0.601,7.838,1.587,11.695,2.672c2.828,0.796,5.695,1.459,8.677,1.35
		c0.689-0.024,1.332-0.119,1.867-0.521c0.25-0.603-0.029-1.062-0.276-1.507c-0.501-0.905-1.024-1.797-1.554-2.688
		c-1.575-2.65-1.801-5.468-1.045-8.406c1.191-4.638,3.402-8.804,5.997-12.776c3.604-5.521,8.047-10.319,12.909-14.745
		c1.757-1.6,3.174-3.461,4.288-5.561c2.904-5.475,3.841-11.412,3.992-17.496c0.087-3.502-0.385-6.979-1.174-10.404
		c-1.375-5.974-4.44-10.815-9.398-14.491c-4.354-3.228-9.111-5.641-14.188-7.48c-5.828-2.112-11.723-3.734-18.037-3.102
		c-3.649,0.366-7.226,0.957-10.645,2.342c-2.21,0.895-4.199,2.087-5.797,3.887c-3.078,3.465-5.822,7.183-8.321,11.081
		c-1.033,1.611-2.017,3.28-2.016,5.269c0,2.114-0.423,4.206-0.267,6.324c0.016,0.195-0.002,0.4-0.175,0.553
		c-0.968,0.342-0.953-0.683-1.483-1.126c-2.352,2.142-5.14,3.644-7.734,5.428c-1.118,0.769-2.164,1.63-3.232,2.466
		c-1.104,0.86-1.195,2.283,0.14,3.168c1.01,0.67,2.137,1.049,3.216,1.554c1.786,0.835,1.903,2.753,0.27,3.864
		c-0.526,0.358-1.093,0.67-1.584,1.071c-0.846,0.694-1.048,1.581-0.602,2.577c0.325,0.727,0.735,1.41,1.181,2.076
		c0.231,0.345,0.604,0.643,0.599,1.117c-0.745,0.269-0.745,0.269-1.702-0.035c-0.304,0.247-0.636,0.473-0.836,0.82
		C401.08,219.684,401.716,220.637,402.196,221.671z M301.161,50.957c0.233,0.249,0.457,0.359,0.692,0.381
		c2.571,0.243,5.123,0.641,7.684,0.984c2.717,0.363,5.443,0.647,8.162,1.008c3.975,0.526,7.943,1.095,11.917,1.634
		c1.474,0.2,1.801,0.573,1.812,2.094c0.021,2.601-0.173,5.197-0.208,7.792c-0.101,7.437-0.32,14.87-0.48,22.304
		c-0.158,7.395-0.346,14.789-0.465,22.184c-0.084,5.357-0.354,10.711-0.295,16.07c0.019,1.64-0.105,3.277-0.146,4.915
		c-0.197,7.834-0.334,15.669-0.528,23.503c-0.18,7.233-0.251,14.469-0.485,21.702c-0.123,3.755-0.142,7.516-0.203,11.272
		c-0.088,5.317-0.346,10.631-0.316,15.95c0.008,1.239,0.033,2.482-0.055,3.718c-0.35,4.91-0.018,9.839-0.42,14.744
		c-0.068,0.836,0.277,1.435,0.834,2.011c0.996,1.035,1.982,2.088,2.902,3.191c2.573,3.096,5.168,6.18,7.64,9.355
		c1.128,1.451,2.645,2.119,4.237,2.744c0.271,0.105,0.609,0.254,0.967-0.113c0-0.283,0-0.64,0-0.993
		c0.037-10.679-0.014-21.355,0.199-32.034c0.201-10.076-0.053-20.157,0.183-30.234c0.282-12.196-0.007-24.395,0.28-36.593
		c0.256-10.794,0.061-21.595,0.207-32.393c0.23-17.036,0.24-34.074,0.341-51.111c0.013-2.235,0.001-4.471,0.001-6.886
		C274.255,37.457,202.94,26.764,131.621,16.072c-0.281,2.24-0.165,12.066,0.153,12.905c1.432,0.185,2.887,0.371,4.342,0.56
		c2.088,0.271,4.176,0.541,6.263,0.817c2.125,0.282,4.247,0.578,6.372,0.856c2.127,0.278,4.257,0.532,6.384,0.812
		c2.125,0.28,4.246,0.581,6.37,0.869c2.242,0.305,4.478,0.69,6.729,0.876c1.245,0.103,2.562,0.837,3.787-0.162
		c0.217-0.178,0.538-0.037,0.815-0.024c1.434,0.064,2.842,0.333,4.262,0.506c2.209,0.269,4.427,0.471,6.631,0.778
		c0.958,0.134,2.017,0.161,2.642,1.14c0.109,0.172,0.321,0.214,0.528,0.24c1.89,0.238,3.778,0.487,5.668,0.725
		c2.129,0.268,4.262,0.518,6.39,0.793c2.205,0.286,4.406,0.596,6.61,0.89c2.126,0.284,4.253,0.56,6.379,0.84
		c2.126,0.28,4.251,0.563,6.378,0.839c2.088,0.271,4.178,0.527,6.266,0.8c2.203,0.288,4.404,0.592,6.606,0.881
		c2.086,0.274,4.175,0.535,6.261,0.808c2.206,0.289,4.41,0.587,6.615,0.877c2.048,0.27,4.099,0.531,6.147,0.8
		c2.206,0.289,4.41,0.585,6.615,0.874c2.086,0.273,4.174,0.534,6.26,0.813c2.086,0.28,4.167,0.589,6.254,0.861
		c2.127,0.277,4.26,0.507,6.385,0.788c2.754,0.363,5.5,0.803,8.261,1.103c0.684,0.074,1.374,0.471,2.073,0.185
		c0.608-1.457,0.895-1.659,2.047-1.547c3.416,0.329,6.841,0.526,10.267,0.671C300.736,48.345,301.082,48.626,301.161,50.957z
		 M296.379,176.711c1.479,1.407,2.684,2.943,3.777,4.564c1.068,1.583,2.07,3.182,2.508,5.105c0.764,3.361,0.95,6.774,1.138,10.191
		c0.037,0.673,0.188,1.223,0.634,1.738c1.983,2.296,3.924,4.628,5.916,6.916c2.547,2.922,5.164,5.774,7.937,8.486
		c2.203,2.156,4.771,3.88,7.006,5.992c0.156,0.146,0.29,0.413,0.644,0.218c-0.115-3.97,0.342-7.956,0.246-11.958
		c-0.047-1.919,0.092-3.837,0.141-5.755c0.201-7.833,0.34-15.668,0.531-23.502c0.181-7.314,0.32-14.629,0.479-21.943
		c0.163-7.475,0.356-14.949,0.47-22.424c0.084-5.717,0.254-11.433,0.332-17.15c0.1-7.275,0.266-14.551,0.479-21.824
		c0.166-5.715,0.263-11.432,0.387-17.146c0.133-6.075,0.4-12.15,0.337-18.229c-0.007-0.637,0.095-1.275,0.128-1.914
		c0.021-0.39,0.126-0.806-0.335-1.21c-9.276-1.215-18.664-2.445-28.157-3.689c-0.025,2.615-0.164,5.004-0.23,7.391
		c-0.146,5.234-0.354,10.467-0.46,15.7c-0.138,6.754-0.49,13.502-0.537,20.258c-0.008,1.04-0.097,2.077-0.136,3.114
		c-0.069,1.87-0.02,3.745-0.019,5.618c1.205,0.311,1.636,0.671,1.515,1.606c-0.246,1.916-0.057,3.838-0.207,5.75
		c-0.366,4.621-0.411,9.258-0.619,13.885c-0.139,3.07-0.397,6.144-0.315,9.226c0.029,1.083-0.22,2.072-1.378,2.487
		c-0.076,1.737-0.229,3.406-0.328,5.078c-0.098,1.634-0.138,3.27-0.242,4.903c-0.215,3.304-0.51,6.604-0.638,9.911
		c-0.077,2.036-0.233,4.068-0.343,6.1c-0.08,1.513-0.104,3.032-0.227,4.544C296.594,171.371,296.361,173.994,296.379,176.711z
		 M173.691,133.104c-0.231,0.375-0.18,0.66-0.183,0.936c-0.061,6.439-0.159,12.878-0.173,19.317
		c-0.04,18.159-0.106,36.318-0.042,54.478c0.036,10.156,0.17,20.313,0.443,30.47c0.039,1.44,0.342,2.858,0.277,4.305
		c-0.012,0.272,0.094,0.549,0.416,0.752c3.518,0.205,7.086,0.543,10.782,0.486c0.41-37.076,0.819-74.033,1.23-111.201
		C182.057,133.151,177.825,132.762,173.691,133.104z M188.857,375.553c0.071-2.432-0.062-4.702-0.121-6.976
		c-0.177-6.872-0.333-13.743-0.516-20.614c-0.188-7.07-0.323-14.143-0.497-21.215c-0.159-6.472-0.345-12.943-0.446-19.415
		c-0.083-5.354-0.396-10.705-0.315-16.063c0.008-0.509,0.111-1.049-0.365-1.61c-3.875,0.177-7.838-0.347-11.842-0.203
		c-0.128,2.31,0.124,4.458,0.147,6.61c0.102,9.151,0.326,18.303,0.489,27.453c0.134,7.514,0.341,15.024,0.431,22.538
		c0.123,10.231,0.414,20.46,0.573,30.691c0.006,0.381-0.128,0.805,0.312,1.226C180.681,377.183,184.725,376.377,188.857,375.553z
		 M368.754,321.64c1.469-7.752,3.533-15.163,8.007-21.917c-2.026,0.211-3.797,0.4-5.567,0.577c-2.217,0.222-4.434,0.479-6.655,0.63
		c-1.55,0.105-3.104,0.209-4.652,0.317c-3.547,0.246-7.092,0.53-10.646,0.396c-2.62-0.1-5.086-0.787-7.2-2.468
		c-1.247-0.991-2.603-1.853-3.808-2.891c-1.553-1.339-3.262-2.136-5.318-2.412c-1.575-0.212-3.159-0.401-4.734-0.521
		c-2.187-0.162-4.347-0.588-6.55-0.572c-1.147,0.008-2.302-0.148-3.407-0.463c-0.927-0.264-1.882-0.323-2.816-0.438
		c-0.963-0.12-1.98-0.247-2.91,0.048c-0.704,1.102-0.775,1.573-0.531,2.617c0.407,1.745,1.526,2.846,3.124,3.52
		c2.013,0.852,4.05,1.621,6.226,1.98c1.351,0.225,2.641,0.592,3.223,2.059c0.068,0.174,0.273,0.289,0.396,0.446
		c0.894,1.162,1.818,2.283,2.342,3.708c0.656,1.789,1.768,3.282,3.476,4.249c0.406,0.229,0.577,0.618,0.78,1.019
		c0.31,0.609,0.494,1.395,1.07,1.736c0.879,0.521,1.75,1.06,2.578,1.608c2.131-1.099,3.118-0.016,3.607,1.366
		c0.143,0.4,0.099,0.868,0.134,1.305c0.056,0.698-0.203,1.413,0.056,2.092c3.86,0.333,6.879-0.422,8.599-1.872
		c-0.163-0.436-0.869-0.184-0.955-0.758c0.247-0.176,0.53-0.171,0.804-0.19c2.01-0.149,4.008,0.065,5.926,0.6
		c3.357,0.932,6.696,1.93,10.105,2.654C365.197,320.435,366.831,321.169,368.754,321.64z M281.576,284.633
		c-0.105,1.374-0.223,2.674-0.301,3.975c-0.117,1.951-0.191,3.906-0.313,5.856c-0.205,3.265-0.514,6.522-0.623,9.791
		c-0.071,2.116-0.239,4.228-0.342,6.339c-0.072,1.513-0.131,3.03-0.233,4.543c-0.23,3.425-0.445,6.852-0.647,10.277
		c-0.117,1.993-0.109,3.997-0.322,5.979c-0.155,1.438-0.124,2.872-0.235,4.307c-0.242,3.062-0.463,6.125-0.637,9.19
		c-0.117,2.073,0.102,4.127,0.421,6.184c0.287,1.845,0.322,3.727,0.582,5.576c0.365,2.599,0.56,5.217,0.941,7.809
		c0.164,1.115-0.037,2.324,0.612,3.374c2.424,0.771,4.811,1.59,7.32,2.162c1.049-2.672,1.913-5.273,2.73-7.893
		c0.115-0.37,0.01-0.707-0.064-1.059c-0.459-2.187-0.951-4.367-1.357-6.564c-0.69-3.727-1.465-7.436-1.338-11.272
		c0.164-4.992,0.135-9.992,0.306-14.984c0.245-7.188,0.356-14.382,0.601-21.57c0.225-6.628,0.309-13.265,0.432-19.896
		c0.006-0.282-0.004-0.56-0.195-0.876C286.562,285.352,284.115,285.111,281.576,284.633z M173.14,35.682c0,20.309,0,40.398,0,60.587
		c4.362-0.26,8.571,0.416,12.848,0.72c0-1.264,0.051-2.342-0.008-3.415c-0.271-4.911-0.331-9.829-0.435-14.744
		c-0.081-3.837-0.2-7.675-0.306-11.51c-0.231-8.353-0.501-16.704-0.677-25.058c-0.037-1.748-0.175-3.494-0.268-5.262
		C180.539,36.555,176.894,35.974,173.14,35.682z M288.244,49.648c-0.405,18.605-0.809,37.042-1.212,55.564
		c3.55,0.11,6.923,0.202,10.411,0.125c0.545-18.394,1.084-36.637,1.627-54.969C295.42,50.126,291.922,49.893,288.244,49.648z
		 M285.293,137.059c-0.477,13.579-0.95,27.087-1.424,40.586c1.436,0.521,2.707,0.962,3.908,1.577
		c1.218,0.622,2.178,1.584,3.214,2.419c0.245-0.174,0.319-0.404,0.431-0.617c0.708-1.374,1.299-2.832,2.178-4.087
		c0.75-1.07,0.898-2.159,0.896-3.369c-0.003-1.957,0.227-3.904,0.305-5.859c0.139-3.425,0.483-6.843,0.629-10.268
		c0.086-2.034,0.233-4.066,0.35-6.097c0.082-1.433,0.102-2.871,0.213-4.304c0.167-2.148,0.297-4.299,0.412-6.45
		c0.045-0.828,0.008-1.66,0.008-2.616C292.734,137.672,289.104,137.373,285.293,137.059z M326.344,292.568
		c1.504-0.039,2.76,0.129,4.032-0.183c2.604-0.634,5.034-0.142,7.319,1.253c1.773,1.082,3.375,2.394,5.031,3.633
		c0.334,0.25,0.633,0.604,1.191,0.504c0-6.209,0-12.397,0-18.594c-5.514-3.354-11.031-6.582-17.023-9.305
		C326.605,277.496,326.518,284.947,326.344,292.568z M290.348,243.51c0.188-2.699,0.451-5.203,0.514-7.711
		c0.051-2.076,0.199-4.152,0.35-6.216c0.133-1.826,0.021-3.671,0.362-5.491c0.21-1.117,0.009-2.162-0.786-3.126
		c-0.96-1.164-1.705-2.503-2.613-3.713c-0.806-1.073-1.46-2.274-2.503-3.224c-0.931,0.504-2.01,0.047-3.104,0.675
		c-0.194,9.353-0.728,18.782-0.873,28.338C284.636,243.201,287.438,243.354,290.348,243.51z M346.044,280.605
		c0.101,6.271-0.269,12.318-0.198,18.492c5.008,1.2,9.906,0.217,14.881,0.182c0.266-3.235,0.27-6.371,0.217-9.44
		c-0.155-0.155-0.227-0.278-0.327-0.317c-3.736-1.455-6.974-3.727-10.167-6.097C349.122,282.439,347.743,281.492,346.044,280.605z
		 M322.523,311.748c0.039-0.293,0.156-0.367,0.302-0.445c0.877-0.476,1.811-0.773,2.784-0.985c0.797-0.175,1.559-0.517,1.73-1.416
		c0.178-0.926-0.154-1.732-0.884-2.344c-0.593-0.497-1.265-0.805-2.063-0.808c-2.02-0.007-3.658,0.967-5.24,2.049
		c-0.609,0.416-0.777,1.149-0.646,1.829c0.266,1.369,0.598,2.751,2.372,2.979c-0.093,0.184-0.13,0.299-0.2,0.388
		c-0.687,0.866-0.679,1.75-0.06,2.64c0.636,0.913,1.411,1.455,2.624,1.201c1.871-0.391,3.686-0.922,5.381-1.819
		c0.535-0.282,1.014-0.635,1.334-1.158c0.523-0.854,0.341-1.816-0.451-2.442c-0.486-0.384-1.047-0.605-1.652-0.607
		c-0.91,0-1.814-0.048-2.734,0.146C324.245,311.137,323.402,311.417,322.523,311.748z M378.788,297.073
		c-5.164-2.44-10.486-4.408-15.833-6.562c0,2.951,0,5.722,0,8.589C368.293,298.568,373.561,298.309,378.788,297.073z
		 M327.698,316.585c-0.226,0.618-0.388,1.176-0.366,1.788c0.048,1.452,0.872,2.244,2.229,1.787c1.736-0.584,3.316-1.498,4.082-3.354
		c0.305-0.736,0.272-1.402-0.258-1.992c-0.471-0.523-1.248-0.584-2.091-0.155C330.066,315.281,328.938,316.082,327.698,316.585z
		 M333.079,320.253c-0.009,1.785,1.048,2.472,2.598,1.789c1.388-0.611,2.544-2.991,2.308-4.757
		c-0.114-0.869-0.604-1.487-1.312-1.658c-0.632-0.152-1.293,0.182-1.768,0.938c-0.506,0.806-0.979,1.632-1.477,2.442
		C333.174,319.425,332.984,319.852,333.079,320.253z M322.206,302.109c0.601,1.178,0.483,2.305,0.784,3.427
		C324.504,303.876,324.283,302.748,322.206,302.109z"/>
	<path d="M101.28,0.24c-0.004,7.837-0.018,15.675-0.009,23.513c0.015,12.637-0.041,25.274,0.087,37.91
		c0.249,24.633-0.018,49.267,0.196,73.898c0.224,25.913,0.04,51.826,0.23,77.738c0.202,27.393,0.054,54.785,0.25,82.176
		c0.189,26.514,0.146,53.024,0.211,79.536c0.017,6.718,0.113,13.436,0.176,20.152c0.003,0.359,0.038,0.718,0.059,1.077
		c-0.72,0-1.44,0-2.16,0c0.004-9.158,0.033-18.315,0.007-27.474c-0.094-33.109-0.167-66.221-0.295-99.331
		c-0.105-27.23-0.019-54.463-0.229-81.693c-0.212-27.512-0.018-55.024-0.248-82.535c-0.229-27.192-0.087-54.384-0.222-81.576
		c-0.039-7.797-0.14-15.594-0.213-23.391C99.84,0.24,100.56,0.24,101.28,0.24z"/>
	<path d="M265.439,396.24c0.074-0.312-0.141-0.529-0.262-0.771c-1.612-3.225-2.489-6.613-2.476-10.243
		c0.019-5.336,1.273-10.302,4.149-14.837c1.152-1.815,2.741-3.217,4.271-4.675c1.706-1.626,3.555-3.091,5.446-4.496
		c0.224-0.166,0.44-0.359,0.812-0.226c0.237,1.899,0.519,3.822,0.604,5.731c-2.402,2.564-4.568,5.228-6.729,7.897
		c-1.812,2.242-2.871,4.757-3.332,7.565c-0.505,3.079-0.408,6.136,0.477,9.133c0.479,1.613,1.154,3.147,2.434,4.333
		c0.164,0.151,0.367,0.314,0.366,0.587C269.279,396.24,267.359,396.24,265.439,396.24z"/>
	<path d="M154.32,396.24c0.458-2.396,1.241-4.683,2.272-6.89c2.15-4.601,5.357-8.388,9.06-11.791
		c2.031-1.866,4.204-3.558,6.503-5.083c0.56-0.37,1.144-0.707,1.724-1.062c0.432,0.923,0.574,4.989,0.304,7.64
		c-5.769,4.746-11.113,9.845-13.622,17.188C158.48,396.24,156.4,396.24,154.32,396.24z"/>
	<path d="M285.6,396.24c0.027-0.111,0.021-0.249,0.086-0.328c2.601-3.152,3.51-6.932,3.987-10.855
		c0.504-4.142,0.497-8.291,0.022-12.438c-0.084-0.726-0.018-1.423,0.231-2.119c0.55-1.535,1.058-3.083,1.587-4.624
		c0.102-0.293,0.114-0.638,0.521-0.838c0.884,1.506,1.507,3.141,2.136,4.764c1.124,2.902,1.914,5.914,2.197,9.006
		c0.546,5.936-0.32,11.617-3.518,16.79c-0.123,0.199-0.305,0.378-0.291,0.644C290.24,396.24,287.92,396.24,285.6,396.24z"/>
	<path d="M204.24,396.24c-0.055-3.738-0.545-7.403-1.958-10.894c-1.48-3.655-3.67-6.713-7.361-8.457
		c-1.224-0.578-2.566-0.768-3.877-1.112c-0.075-1.705-0.146-3.33-0.216-4.915c0.53-0.253,0.876,0.04,1.219,0.196
		c4.462,2.056,8.544,4.658,11.847,8.354c3.111,3.481,5.027,7.521,5.677,12.167c0.218,1.556,0.238,3.103,0.19,4.66
		C207.92,396.24,206.08,396.24,204.24,396.24z"/>
	<path d="M430.606,218.975c0.33,0.528,0.589,1.002,0.903,1.436c0.91,1.249,2.652,1.71,3.86,0.818c2.79-2.06,5.583-4.139,7.807-6.844
		c1.314-1.6,1.969-3.42,1.588-5.531c-0.077-0.429-0.021-0.879-0.04-1.316c-0.089-2.164-1.382-3.447-3.553-3.543
		c-1.248-0.057-2.412,0.27-3.52,0.795c-0.208-0.299-0.034-0.505,0.131-0.661c2.479-2.346,6.114-2.831,7.969,1.05
		c1.807,3.781,1.581,7.482-1.41,10.85c-2.292,2.58-5.009,4.671-7.752,6.729c-0.576,0.433-1.232,0.755-1.941,0.89
		c-1.67,0.316-2.962-0.403-3.662-1.987C430.578,220.736,430.432,219.811,430.606,218.975z"/>
</g>
</svg>
