<?xml version="1.0" encoding="utf-8"?>
<!-- Generator: Adobe Illustrator 16.2.1, SVG Export Plug-In . SVG Version: 6.00 Build 0)  -->
<!DOCTYPE svg PUBLIC "-//W3C//DTD SVG 1.1//EN" "http://www.w3.org/Graphics/SVG/1.1/DTD/svg11.dtd">
<svg version="1.1" id="RS_x5F_straps11e_xA0_Image_1_"
	 xmlns="http://www.w3.org/2000/svg" xmlns:xlink="http://www.w3.org/1999/xlink" x="0px" y="0px" width="528px" height="396px"
	 viewBox="0 0 528 396" enable-background="new 0 0 528 396" xml:space="preserve">
<g>
	<path d="M387.6,396.24c0.327-2.844,0.596-5.696,0.993-8.53c0.724-5.147,1.665-10.253,2.939-15.299
		c1.698-6.729,4.497-13.035,7.283-19.354c6.112-13.859,12.604-27.539,19.396-41.08c2.526-5.035,4.67-10.236,6.19-15.693
		c0.925-3.319,0.797-6.485-0.365-9.689c-3.25-8.962-6.934-17.735-11.521-26.102c-2.003-3.652-4.529-6.944-7.71-9.691
		c-1.416-1.225-4.165-3.155-5.824-3.436c-0.219,0.354,0.099,0.591,0.216,0.851c0.643,1.416,1.277,2.838,1.336,4.42
		c0.076,2.114-1.018,3.7-3.017,4.377c-1.894,0.641-3.842,0.529-5.801,0.389c-4.676-0.336-9.043-1.984-13.527-3.121
		c-3.365-0.854-6.782-1.121-10.195-0.78c-3.837,0.385-7.518,1.585-11.146,2.865c-4.384,1.544-8.652,3.372-12.879,5.301
		c-0.363,0.166-0.834,0.242-1.084,0.722c1.301,0.452,2.381,0.446,3.635-0.24c2.698-1.48,5.666-2.156,8.748-2.494
		c4.933-0.539,9.59,0.269,14.01,2.437c5.649,2.771,9.23,7.322,11.099,13.269c0.728,2.317,1.017,4.709,1.267,7.131
		c0.278,2.693,0.131,5.359-0.097,8.012c-0.587,6.87-2.431,13.334-6.646,18.966c-3.205,4.283-7.332,7.388-12.074,9.744
		c-4.329,2.153-8.9,3.644-13.641,4.472c-5.192,0.908-10.047-0.371-14.5-3.091c-5.896-3.6-10.191-8.743-13.746-14.566
		c-0.291-0.477-0.58-0.954-0.822-1.455c-0.215-0.444-0.566-0.728-1.018-0.706c-1.36,0.064-2.687-0.44-4.043-0.229
		c-0.058,0.071-0.147,0.133-0.147,0.193c-0.011,3.277-0.165,6.554,0.118,9.829c0.164,1.908,0.14,3.828,0.294,5.742
		c0.217,2.698,0.452,5.396,0.678,8.095c0.215,2.58,0.429,5.164,0.601,7.749c0.264,4.001,0.233,7.997,0.146,11.99
		c-0.081,3.666-0.287,7.334-0.623,10.994c-0.191,2.1-0.357,4.205-0.557,6.307c-0.219,2.334-0.555,4.656-0.856,6.98
		c-0.255,1.969-0.532,3.934-0.802,5.898c-0.27,1.967-0.545,3.932-0.811,5.899c-0.217,1.611-0.437,3.225-0.625,4.84
		c-0.244,2.095-0.472,4.191-0.68,6.291c-0.061,0.595-0.025,1.197-0.033,1.798c-0.721,0-1.439,0-2.16,0
		c0.44-2.15,0.405-4.353,0.717-6.519c0.332-2.319,0.533-4.658,0.832-6.983c0.259-2.007,0.576-4.006,0.863-6.01
		c0.297-2.082,0.6-4.164,0.875-6.249c0.207-1.576,0.411-3.155,0.555-4.738c0.182-1.983,0.375-3.966,0.57-5.946
		c0.283-2.857,0.502-5.724,0.606-8.587c0.179-4.83,0.362-9.662,0.077-14.505c-0.16-2.707-0.447-5.405-0.555-8.116
		c-0.027-0.699-0.225-1.392-0.348-2.111c-3.908-0.173-7.689-0.995-11.556-1.146c-0.146,0.74-0.277,1.394-0.349,2.071
		c-0.244,2.378-0.557,4.748-0.836,7.122c-0.279,2.372-0.554,4.744-0.824,7.117c-0.194,1.7-0.373,3.402-0.57,5.104
		c-0.285,2.452-0.582,4.902-0.873,7.353c-0.291,2.453-0.582,4.906-0.868,7.359c-0.272,2.334-0.543,4.669-0.807,7.004
		c-0.273,2.414-0.53,4.831-0.808,7.244c-0.285,2.493-0.584,4.985-0.882,7.478c-0.286,2.412-0.634,4.819-0.854,7.237
		c-0.176,1.943-0.627,3.858-0.569,5.823c-0.72,0-1.44,0-2.16,0c0.315-2.522,0.648-5.043,0.941-7.568
		c0.274-2.369,0.489-4.746,0.762-7.115c0.278-2.407,0.604-4.812,0.892-7.22c0.196-1.657,0.35-3.321,0.541-4.979
		c0.205-1.776,0.439-3.55,0.651-5.324c0.188-1.578,0.358-3.159,0.544-4.738c0.219-1.855,0.453-3.711,0.665-5.566
		c0.19-1.659,0.351-3.322,0.54-4.98c0.204-1.775,0.438-3.548,0.643-5.323c0.193-1.658,0.36-3.321,0.556-4.98
		c0.286-2.447,0.639-4.89,0.864-7.342c0.182-1.979,0.605-3.935,0.584-6.02c-1.395-0.271-1.586-1.194-1.48-2.474
		c0.3-3.652,0.66-7.299,0.941-10.951c0.178-2.304,0.527-4.596,0.525-6.911c0-0.557,0.327-1.077,0.108-1.781
		c-0.916-0.176-1.912-0.222-2.878-0.31c-4.083-0.373-8.079-1.185-12.018-2.285c-5.318-1.487-10.438-3.537-15.5-5.72
		c-4.867-2.1-9.942-3.43-15.106-4.51c-2.207-0.461-4.402-0.988-6.535-1.725c-3.145-1.084-5.584-3.161-7.767-5.604
		c-2.397-2.683-4.519-5.575-6.578-8.514c-2.513-3.585-5.089-7.125-7.435-10.828c-3.457-5.459-6.51-11.131-9.305-16.947
		c-1.753-3.648-3.374-7.363-5.587-10.774c-1.085-1.672-2.239-3.295-3.462-4.867c-0.234-0.302-0.471-0.639-0.862-0.793
		c-0.275,0.854-0.831,45.56-0.588,47.024c0.208,0.156,0.456,0.084,0.686,0.111c1.088,0.135,1.67,0.774,1.519,1.869
		c-0.32,2.305-0.208,4.629-0.326,6.939c-0.141,2.748-0.229,5.51-0.356,8.26c-0.206,4.469-0.281,8.942-0.632,13.404
		c-0.15,1.91-0.161,3.833-0.218,5.746c-0.079,2.676-0.368,5.345-0.306,8.024c0.012,0.526-0.018,1.045-0.309,1.498
		c-0.287,0.446-0.178,0.933-0.177,1.4c0.03,13.838,0.009,27.675,0.204,41.513c0.143,10.118,0.048,20.239,0.059,30.358
		c-0.64,0-1.28,0-1.92,0c0.054-6.396-0.096-12.791-0.153-19.188c-0.156-17.507,0.022-35.017-0.301-52.522
		c-0.007-0.387,0.104-0.803-0.247-1.233c-3.467-0.006-6.974-0.54-10.56-0.507c-0.094,1.404-0.24,2.674-0.255,3.945
		c-0.067,5.794-0.301,11.583-0.457,17.374c-0.161,5.99-0.384,11.981-0.477,17.974c-0.124,7.952-0.454,15.898-0.557,23.851
		c-0.044,3.437-0.3,6.867-0.193,10.308c-0.72,0-1.44,0-2.16,0c0.021-3.878,0.219-7.752,0.303-11.629
		c0.131-5.993,0.31-11.986,0.474-17.979c0.163-5.953,0.313-11.907,0.479-17.859c0.164-5.913,0.329-11.827,0.49-17.74
		c0.075-2.756,0.189-5.509,0.183-8.361c-1.656-0.244-1.917-1.365-1.939-2.842c-0.08-5.354-0.443-10.7-0.468-16.058
		c-0.022-4.64-0.368-9.274-0.194-13.914c0.117-3.11,0.148-6.229,0.466-9.328c0.048-0.475,0.081-0.975,0.262-1.402
		c0.709-1.673,0.63-3.445,0.654-5.186c0.083-5.836,0.307-11.668,0.454-17.502c0.097-3.836,0.207-7.672,0.287-11.51
		c0.109-5.274,0.221-10.549,0.435-15.822c0.08-1.953,0.013-3.914,0.013-5.937c-0.746-0.608-1.673-0.979-2.512-1.491
		c-1.473-0.898-2.865-1.89-3.457-3.638c-0.687-2.028,0.033-3.824,1.185-5.369c0.918-1.233,0.937-2.342,0.463-3.667
		c-0.688-1.926-0.305-3.109,1.307-4.371c0.157-0.123,0.313-0.251,0.485-0.349c1.14-0.644,1.665-1.472,1.185-2.854
		c-0.264-0.759,0.115-1.574,0.433-2.306c0.221-0.508,0.247-0.94,0.059-1.483c-0.608-1.763-0.568-3.377,1.281-4.471
		c0.559-0.331,0.542-0.949,0.549-1.506c0.021-1.56-0.052-3.124,0.039-4.679c0.259-4.431,0.139-8.872,0.393-13.304
		c0.127-2.225,0.022-4.462,0.022-6.628c-0.254-0.288-0.509-0.235-0.726-0.167c-1.175,0.371-2.138-0.626-2.106-1.894
		c0.041-1.639,0.008-3.279,0.009-4.919c0.001-8.399-0.104-16.799,0.028-25.196c0.194-12.296,0.068-24.595,0.294-36.888
		c0.144-7.839,0.094-15.677,0.147-23.515c0.003-0.467,0.117-0.956-0.16-1.464c-14.27-1.605-28.562-3.213-42.858-4.821
		c-0.22,0.104-0.211,0.314-0.209,0.505c0.02,3.08-0.242,6.151-0.254,9.233c-0.036,8.356-0.194,16.711-0.424,25.065
		c-0.083,3.038,0.065,6.084-0.077,9.118c-0.298,6.354-0.034,12.716-0.39,19.067c-0.044,0.798-0.053,1.6-0.047,2.399
		c0.065,7.919-0.211,15.835-0.346,23.75c-0.086,4.997,0.01,9.999-0.229,14.992c-0.129,2.679-0.148,5.356-0.153,8.035
		c-0.011,6.438-0.195,12.875-0.317,19.311c-0.101,5.275-0.022,10.559-0.257,15.831c-0.116,2.599-0.142,5.194-0.147,7.795
		c-0.013,6.56-0.228,13.114-0.317,19.671c-0.06,4.396-0.077,8.797-0.188,13.193c-0.263,10.312-0.346,20.63-0.535,30.943
		c-0.172,9.396-0.27,18.793-0.488,28.186c-0.115,4.958,0.009,9.92-0.237,14.872c-0.189,3.799-0.014,7.601-0.184,11.394
		c-0.29,6.475-0.111,12.954-0.371,19.43c-0.168,4.192-0.017,8.399-0.187,12.594c-0.177,4.358-0.017,8.719-0.18,13.074
		c-0.119,3.196-0.239,6.392-0.182,9.592c-0.64,0-1.28,0-1.92,0c0.065-4.757-0.092-9.517,0.186-14.271
		c0.105-1.795,0.062-3.599,0.062-5.397c0-6.759,0.224-13.515,0.322-20.271c0.069-4.758,0.075-9.518,0.196-14.272
		c0.239-9.354,0.32-18.711,0.487-28.065c0.176-9.875,0.311-19.75,0.512-29.624c0.09-4.398,0.083-8.797,0.193-13.193
		c0.256-10.112,0.348-20.229,0.518-30.345c0.148-8.835,0.295-17.67,0.453-26.505c0.189-10.555,0.312-21.111,0.554-31.664
		c0.08-3.479,0.022-6.959,0.154-10.435c0.265-6.954,0.116-13.914,0.413-20.867c0.173-4.035-0.071-8.08,0.153-12.115
		c0.104-1.879,0.107-3.757,0.131-5.637c0.094-7.517,0.171-15.034,0.32-22.55c0.188-9.395,0.266-18.792,0.49-28.185
		c0.12-5.038-0.021-10.08,0.238-15.112c0.191-3.718,0.104-7.436,0.158-11.153c0.022-1.496,0.43-1.91,1.945-1.845
		c1.907,0.082,3.79,0.4,5.682,0.636c1.617,0.202,3.238,0.372,4.856,0.567c2.407,0.292,4.812,0.6,7.218,0.891
		c1.578,0.191,3.158,0.358,4.736,0.547c2.446,0.292,4.89,0.599,7.336,0.892c1.578,0.189,3.159,0.357,4.737,0.547
		c2.445,0.295,4.889,0.606,7.333,0.902c1.54,0.186,3.082,0.351,4.623,0.537c2.485,0.299,4.967,0.617,7.453,0.91
		c2.29,0.27,4.583,0.505,6.873,0.776c1.696,0.201,3.387,0.446,5.083,0.651c1.618,0.196,3.24,0.357,4.859,0.548
		c2.368,0.28,4.734,0.575,7.102,0.86c1.618,0.194,3.236,0.379,4.854,0.575c1.774,0.215,3.546,0.447,5.321,0.657
		c2.251,0.267,4.504,0.52,6.755,0.78c1.659,0.192,3.318,0.381,4.976,0.582c1.656,0.2,3.311,0.417,4.966,0.62
		c2.446,0.302,4.892,0.603,7.339,0.896c1.579,0.189,3.161,0.357,4.74,0.545c1.773,0.211,3.544,0.437,5.317,0.651
		c1.54,0.186,3.082,0.362,4.622,0.549c1.814,0.22,3.626,0.457,5.441,0.668c2.289,0.267,4.58,0.507,6.869,0.776
		c2.368,0.279,4.734,0.583,7.104,0.869c1.617,0.195,3.236,0.379,4.855,0.567c1.656,0.192,3.315,0.376,4.973,0.578
		c1.617,0.197,3.231,0.417,4.85,0.617c2.521,0.312,5.044,0.626,7.568,0.919c2.33,0.271,4.664,0.5,6.994,0.776
		c1.656,0.196,3.308,0.453,4.965,0.655c1.615,0.197,3.238,0.348,4.857,0.539c2.367,0.28,4.732,0.581,7.1,0.869
		c1.58,0.192,3.16,0.373,4.738,0.565c1.812,0.221,3.623,0.459,5.436,0.672c1.619,0.189,3.244,0.34,4.861,0.535
		c2.367,0.286,4.729,0.6,7.096,0.892c1.539,0.19,3.076,0.382,4.619,0.535c1.373,0.136,1.852,0.578,1.842,1.957
		c-0.014,1.879-0.116,3.757-0.129,5.636c-0.047,7.079,0.058,14.161-0.133,21.236c-0.274,10.197-0.014,20.396-0.307,30.591
		c-0.242,8.518,0.004,17.038-0.197,25.554c-0.022,0.999-0.068,1.998-0.088,2.997c-0.006,0.264-0.093,0.567,0.312,0.844
		c4.562-4.468,10.247-6.395,16.604-6.759c0-35.561,0-70.978,0-106.543c-89.599-12.686-179.22-25.376-268.971-38.083
		c-0.063,1.318-0.134,2.464-0.17,3.611c-0.184,5.718,0.061,11.441-0.146,17.156c-0.258,7.158-0.011,14.32-0.274,21.473
		c-0.238,6.479,0.033,12.96-0.231,19.434c-0.264,6.478,0.027,12.96-0.245,19.433c-0.273,6.478,0.025,12.959-0.257,19.433
		c-0.251,5.757-0.056,11.517-0.185,17.275c-0.259,11.594-0.285,23.192-0.503,34.786c-0.122,6.438,0.002,12.879-0.27,19.312
		c-0.215,5.079,0.025,10.163-0.192,15.234c-0.246,5.72-0.005,11.44-0.261,17.153c-0.259,5.798,0.011,11.599-0.28,17.391
		c-0.112,2.239-0.099,4.479-0.126,6.717c-0.097,7.797-0.104,15.598-0.35,23.391c-0.16,5.078,0.04,10.158-0.242,15.23
		c-0.082,1.479-0.108,2.957-0.125,4.438c-0.084,7.236-0.089,14.478-0.318,21.71c-0.137,4.318-0.009,8.641-0.226,12.952
		c-0.189,3.759-0.085,7.518-0.202,11.272c-0.241,7.713-0.334,15.428-0.513,23.143c-0.14,6.033-0.284,12.068-0.459,18.103
		c-0.143,4.912-0.313,9.825-0.503,14.736c-0.059,1.515-0.201,3.026-0.167,4.547c-0.72,0-1.44,0-2.16,0
		c0.184-0.782,0.232-1.575,0.258-2.379c0.218-6.55,0.456-13.1,0.688-19.648c0.006-0.159,0.023-0.318,0.02-0.479
		c-0.108-5.24,0.205-10.475,0.304-15.71c0.147-7.755,0.3-15.511,0.5-23.265c0.097-3.758,0.076-7.517,0.188-11.271
		c0.279-9.395,0.299-18.792,0.552-28.186c0.136-5.037,0.085-10.076,0.219-15.113c0.227-8.594,0.254-17.192,0.453-25.787
		c0.173-7.516,0.071-15.035,0.383-22.549c0.134-3.235-0.052-6.483,0.082-9.719c0.31-7.515,0.106-15.035,0.375-22.551
		c0.171-4.794-0.012-9.602,0.168-14.396c0.217-5.759-0.034-11.521,0.223-17.274c0.26-5.838,0.075-11.677,0.21-17.514
		c0.283-12.234,0.291-24.473,0.525-36.708c0.123-6.399-0.032-12.801,0.226-19.194c0.264-6.519-0.019-13.041,0.245-19.554
		c0.27-6.638,0.083-13.277,0.214-19.915c0.241-12.235,0.4-24.471,0.431-36.709c0.004-1.673,0.389-2.091,2.048-1.972
		c1.463,0.105,2.918,0.345,4.374,0.548c2.003,0.28,4.002,0.583,6.003,0.873c2.591,0.377,5.182,0.761,7.775,1.124
		c2.557,0.358,5.119,0.688,7.676,1.044c1.926,0.269,3.849,0.562,5.773,0.839c1.963,0.281,3.926,0.558,5.889,0.833
		c1.968,0.275,3.937,0.545,5.904,0.823c2.004,0.283,4.007,0.569,6.01,0.858c2.005,0.29,4.009,0.587,6.015,0.875
		c1.885,0.271,3.771,0.534,5.656,0.803c2.082,0.297,4.161,0.607,6.243,0.896c2.558,0.353,5.12,0.676,7.677,1.035
		c2.516,0.353,5.028,0.739,7.542,1.102c1.924,0.277,3.851,0.537,5.775,0.812c2.593,0.369,5.184,0.749,7.777,1.116
		c1.928,0.273,3.858,0.53,5.785,0.805c2.593,0.369,5.183,0.757,7.776,1.123c1.965,0.277,3.934,0.527,5.899,0.797
		c1.927,0.265,3.853,0.537,5.779,0.811c2.003,0.285,4.006,0.577,6.009,0.867c2.594,0.375,5.187,0.76,7.782,1.126
		c1.965,0.277,3.934,0.53,5.9,0.799c1.888,0.258,3.775,0.521,5.661,0.788c2.083,0.294,4.167,0.59,6.25,0.894
		c2.554,0.372,5.103,0.764,7.656,1.127c1.965,0.28,3.937,0.52,5.901,0.792c1.927,0.268,3.851,0.555,5.774,0.831
		c1.964,0.282,3.929,0.56,5.894,0.843c2.043,0.295,4.086,0.603,6.132,0.889c1.966,0.275,3.938,0.52,5.903,0.796
		c1.963,0.276,3.922,0.582,5.886,0.865c1.927,0.277,3.854,0.538,5.782,0.812c2.041,0.291,4.08,0.595,6.123,0.881
		c1.969,0.275,3.938,0.532,5.905,0.804c1.927,0.267,3.853,0.542,5.776,0.819c1.963,0.281,3.924,0.576,5.888,0.852
		c2.558,0.359,5.116,0.697,7.673,1.057c2.555,0.36,5.107,0.738,7.661,1.108c2.591,0.375,5.183,0.759,7.774,1.125
		c1.967,0.277,3.937,0.527,5.902,0.797c1.926,0.265,3.853,0.536,5.776,0.81c2.004,0.286,4.006,0.581,6.01,0.868
		c1.179,0.169,2.364,0.301,3.536,0.509c0.88,0.155,1.36,0.876,1.363,1.973c0.01,2.799,0.009,5.599-0.003,8.399
		c-0.136,32.196-0.263,64.393-0.212,96.589c0.002,0.396,0,0.792,0,1.104c0.449,0.444,0.916,0.324,1.339,0.331
		c2.194,0.039,4.397,0.005,6.573,0.327c3.313,0.491,6.532,1.383,9.517,2.92c9.661,4.975,15.712,12.884,18.484,23.3
		c0.712,2.675,0.848,5.457,0.625,8.287c-0.616,7.843-3.594,14.687-8.353,20.826c-1.966,2.536-4.388,4.642-6.793,6.749
		c-1.743,1.527-3.499,3.038-5.084,4.736c-2.051,2.199-2.987,4.943-3.807,7.738c-0.312,1.057-0.744,2.098-0.751,3.206
		c0.333,0.324,0.711,0.187,1.053,0.199c6.051,0.239,12.042,0.89,17.862,2.661c1.901,0.579,3.752,1.3,5.505,2.253
		c3.626,1.974,5.768,4.972,6.562,9.047c0.646,3.312,1.354,6.618,1.604,9.978c0.227,3.016,0.388,6.037,0.119,9.092
		c-0.305,3.458-0.794,6.855-1.745,10.186c-0.261,0.912-0.61,1.799-0.933,2.693c-0.24,0.673-0.433,1.376-1.012,1.732
		c-0.102,1.012,0.324,1.844,0.264,2.729c-0.114,1.708-0.415,3.385-0.852,5.038c-1.668,6.335-4.352,12.262-7.289,18.082
		c-4.805,9.517-9.355,19.152-13.806,28.84c-2.736,5.955-5.398,11.942-7.961,17.974c-2.521,5.934-4.192,12.117-5.395,18.445
		c-0.631,3.315-1.173,6.646-1.574,9.988c-0.25,2.086-0.651,4.174-0.545,6.296C389.04,396.24,388.32,396.24,387.6,396.24z
		 M306.532,86.089c-33.41-3.754-66.96-7.524-100.515-11.295c-0.3,1.458,0.159,2.668,0.122,3.899
		c-0.074,2.48,0.224,4.947,0.314,7.421c0.064,1.752,0.115,3.511,0.216,5.265c0.226,3.904,0.53,7.806,0.641,11.713
		c0.071,2.476,0.266,4.945,0.336,7.421c0.048,1.711,0.09,3.434,0.217,5.145c0.224,3.026,0.385,6.054,0.451,9.088
		c0.009,0.398,0.055,0.797,0.103,1.192c0.252,2.059,0.015,4.136,0.345,6.269c1.22,0.239,1.485,1.194,1.464,2.39
		c-0.07,3.958,0.16,7.914,0.307,11.865c0.222,5.91,0.233,11.826,0.598,17.73c0.074,1.194-0.722,1.989-1.8,1.878
		c-0.464-0.047-0.938-0.008-1.471-0.008c-0.426,6.387-0.221,12.653-0.288,18.813c0.908,1.143,1.91,1.967,3.036,2.681
		c1.142,0.725,2.235,1.516,3.042,2.662c2.215,3.148,3.643,6.7,5.204,10.171c1.368,3.043,2.132,6.305,2.874,9.549
		c0.508,2.224,1.497,4.166,2.879,5.951c1.073,1.385,2.081,2.822,3.146,4.215c3.028,3.963,6.045,7.957,9.544,11.506
		c6.269,6.357,11.624,13.455,17.109,20.455c1.447,1.848,2.759,3.83,4.69,5.248c2.017,1.479,4.226,2.607,6.732,2.826
		c2.424,0.211,4.863,0.266,7.303,0.32c1.993,0.045,3.992,0.134,5.984,0.262c2.623,0.17,5.238,0.438,7.859,0.644
		c2.223,0.173,4.422,0.504,6.623,0.839c2.668,0.406,5.243,1.242,7.891,1.714c1.089,0.192,2.246,0.577,3.316,0.235
		c0.299-0.316,0.225-0.609,0.247-0.883c0.104-1.229,0.199-2.463,0.313-3.691c0.21-2.26,0.443-4.518,0.643-6.776
		c0.194-2.223,0.34-4.448,0.538-6.67c0.198-2.219,0.462-4.432,0.653-6.651c0.201-2.342,0.324-4.689,0.531-7.03
		c0.278-3.173,0.654-6.339,0.898-9.513c0.287-3.733,0.617-7.463,0.958-11.191c0.312-3.412,0.463-6.839,0.779-10.251
		c0.103-1.112,0.163-2.226,0.256-3.337c0.211-2.501,0.463-4.998,0.659-7.5c0.199-2.543,0.271-5.1,0.548-7.634
		c0.294-2.696,0.428-5.403,0.616-8.103c0.213-3.059,0.5-6.125,0.353-9.203c-0.01-0.187,0.038-0.432,0.156-0.562
		c0.915-1.006,0.526-2.211,0.425-3.305c-0.229-2.417-0.427-4.838-0.656-7.254c-0.193-2.014-0.308-4.026-1.26-5.907
		c-1.037-2.051-1.793-4.234-2.561-6.402c-0.447-1.269-0.848-2.564-1.146-3.875c-0.438-1.929,0.41-2.867,2.29-2.674
		c0.062,0.006,0.135-0.059,0.291-0.133c0-0.349-0.02-0.744,0.003-1.137c0.095-1.643-0.229-3.267-0.231-4.901
		c-0.004-1.721-0.221-3.426-0.312-5.138c-0.2-3.779-0.603-7.546-0.889-11.321c-0.198-2.624-0.271-5.258-0.541-7.873
		c-0.118-1.154-0.144-2.308-0.245-3.459c-0.221-2.5-0.465-4.997-0.663-7.498c-0.192-2.423-0.34-4.85-0.51-7.274
		C306.934,86.721,306.85,86.458,306.532,86.089z M322.409,304.299c0.058,0.588,0.319,0.901,0.522,1.236
		c0.955,1.567,2.006,3.071,3.133,4.521c3.369,4.336,7.297,7.993,12.373,10.282c3.215,1.45,6.623,1.935,10.037,1.43
		c4.678-0.69,9.168-2.183,13.433-4.271c4.848-2.375,8.972-5.616,12.071-10.093c3.795-5.479,5.282-11.694,5.668-18.203
		c0.168-2.815,0.22-5.66-0.162-8.494c-0.342-2.534-0.887-4.996-1.95-7.321c-3.308-7.225-9.187-10.833-16.857-11.762
		c-2.368-0.287-4.784-0.221-7.153,0.223c-1.696,0.316-3.383,0.698-4.994,1.545c0.408,0.207,0.734,0.319,1.093,0.398
		c2.012,0.439,4.003,0.973,5.933,1.697c0.607,0.229,1.32,0.346,1.674,1.039c-0.49-0.045-0.963-0.078-1.434-0.133
		c-1.538-0.181-3.094-0.273-4.607-0.572c-2.723-0.534-5.41-1.232-8.199-1.389c-0.869-0.05-1.729-0.252-2.598-0.365
		c-2.088-0.272-4.176-0.539-6.265-0.799c-2.058-0.257-4.129-0.356-6.187-0.57c-2.533-0.264-4.998-0.143-7.461,0.474
		c-4.069,1.019-8.052,2.413-12.26,2.835c-2.549,0.256-5.096,0.293-7.611-0.23c-2.209-0.461-4.379-1.115-6.599-1.512
		c-4.312-0.771-8.678-1.183-13.043-1.429c-4.383-0.248-8.771-0.492-13.167-0.546c-4.636-0.057-8.627-1.771-11.77-5.198
		c-2.889-3.147-5.305-6.687-7.97-10.021c-2.391-2.991-4.777-5.985-7.278-8.889c-1.542-1.791-3.281-3.387-4.861-5.137
		c-4.551-5.038-8.736-10.369-12.771-15.822c-1.572-2.123-2.797-4.371-3.347-7.022c-1.234-5.951-3.623-11.484-6.425-16.855
		c-1.171-2.243-2.934-3.791-5.274-5.009c-0.126,2.105,0.288,4.065,0.203,5.928c1.529,1.654,3.328,2.892,4.183,4.955
		c-1.721-1.977-4.451-2.257-6.367-3.878c-0.17-0.144-0.435-0.173-0.652-0.263c-1.769-0.737-3.665-0.703-5.518-0.845
		c-2.231-0.172-4.472-0.035-6.663,0.42c-1.294,0.27-1.534,0.988-0.934,2.219c0.877,0.009,1.645-0.587,2.529-0.53
		c0.882,0.057,1.821-0.292,2.783,0.357c-1.486,0.224-2.725,0.732-3.937,1.34c-1.547,0.775-2.554,2.57-1.927,4.523
		c0.137,0.426,0.285,0.83,0.008,1.41c-1.445,0.504-2.98,1.131-3.693,2.776c-0.784,1.815,0.215,3.194,1.212,4.478
		c-0.093,0.383-0.293,0.57-0.54,0.719c-1.315,0.791-1.932,2.082-2.434,3.443c-0.604,1.637-0.102,2.721,1.454,3.537
		c2.322,1.221,4.618,2.492,6.817,3.932c1.5,0.979,2.854,2.172,4.434,3.037c1.524,0.836,3.095,1.389,4.827,0.942
		c0.398-0.233-0.23-0.668,0.29-0.887c1.356,1.456,2.883,2.733,4.578,3.796c0.783,0.49,1.561,0.979,2.106,1.744
		c1.018,1.428,1.997,2.88,2.917,4.373c2.033,3.298,3.532,6.861,5.209,10.34c4.019,8.335,8.64,16.316,14.105,23.801
		c2.702,3.699,5.249,7.51,8.228,11.008c2.718,3.192,5.919,5.48,10.116,6.346c3.761,0.773,7.494,1.705,11.21,2.679
		c4.196,1.1,8.145,2.901,12.119,4.596c9.692,4.132,19.776,6.392,30.314,6.567c3.554,0.06,7.098,0.242,10.646,0.453
		c2.946,0.177,5.866,0.494,8.766,1.015c1.83,0.328,3.572,0.778,5.113,2.039c1.5,1.224,3.08,2.396,4.797,3.348
		c0.584,0.323,1.228,0.67,1.646,1.32c-1.012,0.29-1.044,0.325-1.689-0.271C331.008,306.012,326.809,305.081,322.409,304.299z
		 M352.018,255.956c1.119-0.202,1.938-0.615,2.793-0.915c4.562-1.602,9.119-3.161,14-3.578c3.021-0.258,5.955,0.117,8.885,0.699
		c3.029,0.602,5.938,1.677,8.938,2.396c3.034,0.729,6.103,1.104,9.229,0.817c1.975-0.181,2.838-1.22,2.591-3.176
		c-0.246-1.947-1.155-3.607-2.269-5.173c-0.279-0.396-0.621-0.778-0.635-1.262c-0.033-1.276-0.146-2.564,0.061-3.83
		c0.298-1.84,0.854-3.621,1.357-5.412c1.005-3.562,2.706-6.705,5.457-9.222c1.738-1.59,3.512-3.14,5.262-4.717
		c2.375-2.142,4.654-4.376,6.475-7.026c3.396-4.949,5.684-10.332,6.382-16.347c0.408-3.518,0.312-6.998-0.669-10.407
		c-1.827-6.354-5.238-11.732-10.15-16.165c-5.728-5.168-12.521-7.577-20.154-7.754c-2.271-0.053-4.543-0.068-6.819,0.184
		c-3.19,0.354-6.265,1.029-9.106,2.559c-1.799,0.969-3.412,2.201-4.861,3.646c-2.997,2.988-5.948,6.015-8.323,9.545
		c-1.424,2.117-2.235,4.44-1.86,6.993c0.439,3.01-0.348,5.646-1.943,8.147c-0.772,1.209-1.758,2.259-2.461,3.522
		c-1.131,2.035-1.732,4.25-2.346,6.464c-0.957,3.452-1.293,7.047-3.035,10.323c-1.062,1.998-0.325,5.306,1.941,6.826
		c1.024,0.688,2.031,1.396,3.11,1.996c1.424,0.795,2.87,1.553,4.257,2.408c1.834,1.132,2.455,2.842,1.97,4.93
		c-0.461,1.982-1.386,3.795-2.022,5.711c-1.285,3.871-2.443,7.783-3.838,11.618C353.502,251.768,352.794,253.779,352.018,255.956z
		 M366.012,82.83c-72.938-8.721-145.75-17.426-218.629-26.14c-0.361,3.216-0.292,6.342-0.237,9.5c2.624,0.277,5.076,0.5,7.518,0.807
		c1.579,0.198,3.159,0.373,4.741,0.534c1.857,0.188,3.71,0.432,5.565,0.643c1.7,0.193,3.401,0.37,5.101,0.561
		c1.856,0.208,3.71,0.43,5.566,0.637c1.7,0.189,3.402,0.36,5.101,0.553c1.816,0.207,3.627,0.456,5.445,0.642
		c2.01,0.205,4.007,0.52,6.046,0.471c1.667-0.04,3.322,0.297,4.981,0.482c1.857,0.208,3.732,0.285,5.577,0.564
		c0.736,0.111,1.509,0.049,2.227,0.367c0.843,0.373,1.754,0.46,2.672,0.539c1.703,0.145,3.401,0.354,5.1,0.548
		c1.815,0.206,3.628,0.431,5.444,0.634c1.739,0.194,3.481,0.363,5.22,0.557c1.857,0.207,3.711,0.434,5.568,0.645
		c1.7,0.193,3.401,0.372,5.101,0.563c1.856,0.209,3.709,0.431,5.565,0.637c1.699,0.189,3.401,0.354,5.099,0.547
		c1.814,0.207,3.625,0.447,5.44,0.651c1.737,0.195,3.479,0.353,5.217,0.545c1.895,0.21,3.787,0.445,5.681,0.662
		c1.699,0.194,3.4,0.373,5.1,0.567c1.775,0.203,3.551,0.426,5.327,0.624c1.739,0.194,3.481,0.355,5.222,0.551
		c1.814,0.205,3.627,0.446,5.441,0.648c1.739,0.194,3.484,0.34,5.223,0.541c2.447,0.284,4.889,0.634,7.338,0.893
		c2.691,0.283,5.377,0.625,8.066,0.892c1.21,0.12,2.424,0.5,3.654,0.258c0.398-1.843,0.684-2.117,2.252-1.84
		c2.888,0.511,5.757,1.134,8.648,1.619c1.059,0.177,1.625,0.72,1.896,1.694c0.284,0.09,0.546,0.235,0.812,0.247
		c1.515,0.066,3.006,0.318,4.508,0.489c2.488,0.284,4.986,0.488,7.477,0.771c3.159,0.36,6.311,0.785,9.469,1.146
		c3.078,0.351,6.162,0.651,9.243,0.985c1.019,0.11,1.445,0.595,1.479,1.665c0.021,0.639,0.009,1.28-0.01,1.919
		c-0.4,13.713-0.08,27.432-0.406,41.147c-0.172,7.155,0.072,14.32-0.108,21.474c-0.317,12.556,0.063,25.116-0.362,37.668
		c-0.012,0.323-0.17,0.727,0.305,1.002c1.726-1.318,3.32-2.808,4.955-4.193c0-1.453-0.004-2.811,0.004-4.169
		c0.002-0.396,0.056-0.78,0.141-1.177c0.453-2.112,1.512-3.924,2.717-5.663c1.528-2.205,3.42-4.109,5.189-6.112
		c0.428-0.485,0.603-0.976,0.602-1.616c-0.007-5.599,0.036-11.196,0.172-16.794c0.209-8.555,0.041-17.113,0.204-25.671
		c0.229-12.114,0.239-24.232,0.331-36.349C366.031,89.118,366.012,86.042,366.012,82.83z M323.355,137.174
		c0.696,0.152,1.254,0.341,1.861,0.373c0.903,0.048,1.51,0.582,1.625,1.462c0.352,2.678,0.653,5.361,0.985,8.042
		c0.198,1.617,0.426,3.23,0.625,4.847c0.278,2.246,0.539,4.495,0.813,6.742c0.203,1.655,0.461,3.306,0.619,4.965
		c0.17,1.781,0.547,3.539,0.588,5.333c0.033,1.51-0.5,1.976-2.023,1.796c-0.735-0.086-1.488-0.284-2.198,0.102
		c-0.196,2.101-0.394,4.159-0.576,6.22c-0.03,0.355-0.056,0.735,0.22,1.025c0.82,0.861,1.596,1.734,2.896,1.954
		c1.432,0.242,2.684,0.928,3.771,1.922c0.965,0.881,1.6,1.978,2.207,3.104c1.799,3.337,3.697,6.606,6.348,9.37
		c2.49,2.598,5.176,4.992,7.777,7.473c0.123,0.119,0.254,0.183,0.395,0.107c0.165-0.134,0.156-0.301,0.152-0.453
		c-0.021-0.834,0.061-1.662-0.174-2.496c-0.31-1.107,0.186-2.207,0.188-3.319c0.021-6.918,0.021-13.834,0.164-20.752
		c0.229-10.954,0.005-21.912,0.264-32.868c0.222-9.354-0.06-18.714,0.194-28.07c0.199-7.355,0.062-14.716,0.099-22.074
		c0.003-0.311,0.079-0.639-0.167-0.996c-10.117-1.14-20.283-2.285-30.539-3.44c-0.066,0.896-0.051,1.642,0.021,2.394
		c0.15,1.546,0.316,3.093,0.404,4.644c0.078,1.353,0.231,2.699,0.309,4.054c0.137,2.424,0.507,4.834,0.632,7.258
		c0.128,2.47,0.409,4.924,0.556,7.392c0.199,3.377,0.619,6.74,0.894,10.114c0.282,3.494,0.458,6.998,0.778,10.489
		C323.159,134.948,323.21,136.022,323.355,137.174z M323.404,205.21c-0.268,0.745-0.1,1.546-0.18,2.312
		c-0.24,2.336-0.475,4.674-0.668,7.014c-0.197,2.381-0.271,4.773-0.551,7.146c-0.126,1.073-0.132,2.147-0.238,3.219
		c-0.238,2.377-0.459,4.754-0.656,7.135c-0.192,2.342-0.327,4.689-0.526,7.031c-0.199,2.34-0.472,4.673-0.665,7.014
		c-0.2,2.421-0.244,4.859-0.554,7.266c-0.168,1.305-0.222,2.622-0.341,3.924c-0.125,1.371-0.455,2.756-0.271,4.203
		c0.396-0.05,0.76-0.037,1.083-0.146c2.832-0.956,5.767-0.803,8.651-0.604c3.287,0.227,6.582,0.508,9.834,1.111
		c0.474,0.089,0.923-0.021,1.376-0.252c2.69-1.373,5.442-2.616,8.221-3.801c0.361-0.153,0.759-0.243,0.995-0.592
		c0.018-0.086,0.045-0.164,0.045-0.242c0.046-6.516-0.046-13.032,0.189-19.547c0.033-0.895-0.228-1.715-0.674-2.498
		c-1.125-1.969-2.228-3.951-3.315-5.94c-2.521-4.604-5.069-9.194-7.998-13.56c-0.703-1.047-1.376-2.137-2.306-3.014
		c-0.198,0.029-0.355,0.047-0.512,0.077c-2.814,0.55-5.219-0.229-7.115-2.36c-1.189-1.338-2.213-2.819-3.153-4.349
		C323.932,205.523,323.852,205.245,323.404,205.21z M206.599,132.301c0.157-1.869-0.134-3.531-0.148-5.195
		c-0.021-2.48-0.267-4.947-0.333-7.424c-0.049-1.832-0.135-3.671-0.23-5.506c-0.209-4.027-0.518-8.05-0.649-12.08
		c-0.077-2.356-0.25-4.707-0.329-7.062c-0.058-1.712-0.085-3.435-0.226-5.146c-0.227-2.748-0.303-5.501-0.432-8.253
		c-0.095-2.035-0.301-4.064-0.283-6.104c0.004-0.43-0.032-0.88-0.349-1.318c-3.66-0.34-7.345-0.875-11.195-1.116
		c-0.162,19.622-0.322,39.111-0.482,58.613C196.91,132.22,201.712,131.818,206.599,132.301z M316.477,262.139
		c0.444-1.673,0.381-3.359,0.556-5.018c0.247-2.378,0.35-4.771,0.547-7.154c0.203-2.462,0.463-4.92,0.667-7.382
		c0.201-2.425,0.342-4.854,0.547-7.278c0.279-3.298,0.616-6.592,0.891-9.891c0.279-3.379,0.479-6.766,0.778-10.143
		c0.333-3.774,0.651-7.551,0.954-11.328c0.096-1.191,0.175-2.387,0.291-3.578c0.229-2.34,0.464-4.681,0.607-7.027
		c0.088-1.434-0.323-2.844-0.435-4.269c-0.198-2.568-1.384-4.52-3.435-6.015c-1.223-0.894-2.463-1.769-3.588-2.792
		c-0.187-0.168-0.314-0.478-0.728-0.347c-2.159,27.99-4.606,55.974-7.098,83.944C308.648,264.172,311.635,263.623,316.477,262.139z
		 M334.477,209.791c0.284,0.014,0.396,0.122,0.514,0.234c2.779,2.683,4.963,5.82,6.88,9.144c4.075,7.067,8.019,14.208,11.903,21.382
		c0.248,0.459,0.453,0.979,0.851,1.324c0.281-0.145,0.308-0.339,0.362-0.534c0.51-1.75,1.076-3.479,1.724-5.185
		c0.534-1.404,1.2-2.758,1.458-4.268c0.234-1.375,0.066-1.957-1.077-2.74c-1.051-0.721-2.196-1.278-3.313-1.887
		c-1.187-0.645-2.383-1.263-3.504-2.022c-4.336-2.944-4.69-7.927-2.441-11.552c0.488-0.785,0.697-1.681,0.884-2.566
		c0.304-1.434,0.519-2.885,0.91-4.299c0.222-0.799,0.056-1.471-0.573-2.057c-1.549-1.443-3.057-2.933-4.604-4.377
		c-2.632-2.452-5.275-4.888-7.409-7.812c-1.957-2.683-3.464-5.632-5.043-8.532c-0.872-1.602-2.137-2.503-3.877-2.566
		c-1.008-0.037-1.755-0.375-2.457-0.996c-0.27-0.238-0.543-0.472-0.805-0.717c-1.348-1.264-2.791-2.383-4.616-2.861
		c-0.738-0.193-1.236-0.703-1.79-1.154c-0.648-0.529-1.273-1.092-1.961-1.568c-0.521-0.361-1.133-0.399-1.68-0.006
		c-0.51,0.365-0.595,0.887-0.513,1.49c0.128,0.955,0.673,1.689,1.188,2.446c1.068,1.568,2.693,2.589,3.916,4.021
		c1.521,1.783,3.324,3.312,4.181,5.619c0.301,0.812,0.388,1.612,0.493,2.428c0.329,2.524,1.344,4.878,1.771,7.385
		c0.291,1.695,0.941,3.324,1.961,4.744c-0.328,0.277-0.594,0.07-0.721-0.043c-1.561-1.395-1.908-3.506-2.982-5.216
		c-0.936,1.138-1.164,2.931-0.52,4.05c1.191,2.068,2.361,4.154,3.798,6.069c0.597,0.796,1.173,1.615,1.931,2.279
		C330.896,210.834,333.173,210.991,334.477,209.791z M204.302,277.23c0.216-16.194,0.431-32.201,0.646-48.281
		c-0.65,0-1.167-0.026-1.679,0.006c-1.72,0.105-3.298-0.332-4.805-1.143c-1.269-0.683-2.416-1.537-3.579-2.375
		c-0.43-0.31-0.831-0.688-1.562-0.848c-0.455,17.539-0.906,34.977-1.361,52.53C196.119,276.855,200.098,277.074,204.302,277.23z
		 M426.075,286.427c1.621-4.104,2.332-8.128,2.548-12.215c0.326-6.188-0.327-12.299-1.604-18.381
		c-0.828-3.956-2.849-6.695-6.459-8.407c-4.319-2.049-8.93-2.938-13.608-3.598c-2.568-0.361-5.159-0.441-7.741-0.637
		c-0.549-0.041-1.101-0.149-1.665-0.002c-0.175,0.506-0.128,0.973-0.063,1.42c0.218,0.235,0.473,0.353,0.739,0.416
		c3.354,0.807,6.094,2.675,8.588,4.961c3.758,3.442,6.538,7.617,8.825,12.113c3.26,6.411,6.176,12.981,8.694,19.725
		C424.866,283.261,425.418,284.693,426.075,286.427z M321.172,136.939c0.066-0.149,0.164-0.259,0.154-0.359
		c-0.203-1.982-0.322-3.971-0.471-5.958c-0.25-3.376-0.653-6.741-0.897-10.117c-0.284-3.935-0.63-7.864-0.948-11.796
		c-0.316-3.932-0.613-7.865-0.967-11.794c-0.307-3.414-0.51-6.836-0.755-10.255c-0.022-0.325-0.08-0.631-0.377-0.991
		c-2.612-0.477-5.32-0.971-8.048-1.468c-0.055,0.271-0.104,0.386-0.096,0.496c0.273,3.818,0.506,7.641,0.863,11.451
		c0.107,1.153,0.154,2.308,0.256,3.459c0.231,2.62,0.455,5.241,0.656,7.864c0.191,2.504,0.338,5.013,0.527,7.518
		c0.209,2.743,0.513,5.479,0.647,8.227c0.154,3.108,0.503,6.204,0.546,9.319c0.016,1.107,0.19,2.213,0.301,3.402
		c2.136,0.277,4.252,0.562,6.373,0.823C319.68,136.851,320.426,136.881,321.172,136.939z M205.473,192.909
		c-0.185-9.009,0.441-17.766,0.165-26.636c-3.641,0.191-7.167,0.377-10.798,0.568c-0.224,8.533-0.445,16.968-0.668,25.437
		C197.986,192.28,201.654,192.004,205.473,192.909z M314.659,172.344c3.053,1.125,5.858,2.865,9.032,3.714
		c0.383-1.791,0.297-3.617,0.584-5.557c-3.248-0.245-6.356-0.484-9.383-1.484C314.762,170.191,314.525,171.248,314.659,172.344z
		 M351.119,240.273c0,3.953,0,7.906,0,11.858c0.979-2.243,1.775-4.51,2.574-6.774c0.098-0.272,0.149-0.584,0.027-0.818
		C352.953,243.081,352.246,241.584,351.119,240.273z M352.002,199.327c1.078-2.152,2.941-3.785,3.994-6.289
		c-1.117,0.705-1.832,1.441-2.613,2.09c-0.611,0.509-1.22,1.037-1.688,1.686C351.002,197.779,351.096,198.564,352.002,199.327z"/>
	<path d="M306.721,396.24c0.305-4.586,0.611-9.172,0.911-13.758c0.265-4.029,0.502-8.061,0.779-12.088
		c0.385-5.583,0.668-11.172,1.146-16.75c0.237-2.786,0.33-5.587,0.514-8.379c0.378-5.704,0.763-11.406,1.162-17.108
		c0.084-1.19,0.275-1.354,1.425-1.507c0.604,0.54,0.774,1.162,0.62,2.014c-0.242,1.331-0.201,2.706-0.271,4.056
		c-0.153,3.029-0.44,6.049-0.569,9.08c-0.125,2.906-0.443,5.803-0.656,8.706c-0.094,1.272-0.162,2.553-0.219,3.822
		c-0.133,2.991-0.431,5.969-0.562,8.959c-0.13,2.946-0.443,5.884-0.654,8.826c-0.091,1.272-0.174,2.554-0.226,3.822
		c-0.125,3.071-0.382,6.136-0.586,9.198c-0.194,2.901-0.271,5.815-0.632,8.708c-0.099,0.788-0.021,1.599-0.022,2.397
		C308.16,396.24,307.439,396.24,306.721,396.24z"/>
	<path d="M367.014,212.57c0.938,2.347,2.603,2.666,4.44,0.863c0.994-0.979,1.925-2.016,2.979-2.938
		c1.438-1.259,2.068-2.976,2.367-4.818c0.172-1.06,0.323-2.126,0.411-3.194c0.112-1.356-0.416-2.485-1.405-3.424
		c-2.32,0.34-3.3,2.338-4.777,4.117c0.197-1.971,1.181-3.229,2.131-4.492c0.285-0.381,0.623-0.733,0.988-1.038
		c1.34-1.114,2.715-0.855,3.588,0.643c0.445,0.768,0.693,1.604,0.838,2.465c0.568,3.421,0.468,6.753-1.585,9.736
		c-1.269,1.844-3.114,3.066-4.938,4.283c-0.72,0.479-1.418,1.008-2.291,1.256c-1.615,0.459-2.879-0.354-3.023-2.025
		C366.686,213.43,366.74,213.146,367.014,212.57z"/>
</g>
</svg>
