<?xml version="1.0" encoding="utf-8"?>
<!-- Generator: Adobe Illustrator 16.2.1, SVG Export Plug-In . SVG Version: 6.00 Build 0)  -->
<!DOCTYPE svg PUBLIC "-//W3C//DTD SVG 1.1//EN" "http://www.w3.org/Graphics/SVG/1.1/DTD/svg11.dtd">
<svg version="1.1" id="RS_x5F_straps11a_xA0_Image_1_"
	 xmlns="http://www.w3.org/2000/svg" xmlns:xlink="http://www.w3.org/1999/xlink" x="0px" y="0px" width="528px" height="396px"
	 viewBox="0 0 528 396" enable-background="new 0 0 528 396" xml:space="preserve">
<g>
	<path d="M104.16,396.24c0.151-2.906,0.419-5.804,0.683-8.7c0.108-1.19,0.188-2.389,0.248-3.578c0.2-3.984,0.582-7.954,0.804-11.938
		c0.198-3.541,0.486-7.079,0.72-10.619c0.23-3.502,0.487-7.002,0.708-10.505c0.236-3.741,0.525-7.479,0.736-11.225
		c0.132-2.348,0.315-4.693,0.468-7.043c0.246-3.78,0.484-7.562,0.729-11.343c0.24-3.702,0.434-7.408,0.721-11.105
		c0.235-3.021,0.301-6.054,0.638-9.068c0.146-1.304,0.137-2.628,0.24-3.942c0.252-3.221,0.316-6.455,0.542-9.679
		c0.273-3.901,0.506-7.804,0.741-11.706c0.228-3.782,0.467-7.564,0.708-11.348c0.249-3.899,0.503-7.801,0.728-11.703
		c0.147-2.549,0.328-5.096,0.468-7.646c0.241-4.38,0.668-8.75,0.875-13.131c0.092-1.953,0.249-3.902,0.328-5.857
		c0.129-3.188,0.42-6.367,0.643-9.551c0.098-1.393,0.157-2.791,0.218-4.183c0.086-1.953,0.268-3.901,0.344-5.856
		c0.124-3.187,0.425-6.367,0.633-9.551c0.097-1.473,0.14-2.947,0.253-4.421c0.257-3.34,0.313-6.696,0.541-10.039
		c0.275-4.021,0.501-8.043,0.74-12.066c0.231-3.903,0.433-7.81,0.725-11.708c0.235-3.143,0.369-6.292,0.606-9.434
		c0.144-1.903,0.263-3.821,0.325-5.737c0.088-2.751,0.417-5.492,0.463-8.247c0.013-0.739,0.533-1.113,1.042-1.532
		c-0.308-0.479-0.651-0.98-0.205-1.517c0.399-0.48,0.95-0.482,1.536-0.373c1.536,0.287,3.104,0.179,4.655,0.29
		c1.905,0.136,3.827,0.224,5.736,0.342c3.385,0.209,6.777,0.31,10.154,0.653c1.387,0.141,2.791,0.15,4.182,0.212
		c1.914,0.086,3.824,0.25,5.738,0.332c3.348,0.143,6.689,0.421,10.034,0.647c1.473,0.1,2.953,0.161,4.423,0.224
		c2.034,0.086,4.062,0.27,6.098,0.342c3.228,0.113,6.447,0.431,9.671,0.642c1.434,0.094,2.874,0.169,4.304,0.22
		c2.036,0.072,4.063,0.269,6.1,0.335c3.227,0.106,6.446,0.424,9.668,0.647c1.394,0.097,2.793,0.145,4.185,0.209
		c1.914,0.088,3.828,0.223,5.739,0.34c3.383,0.207,6.773,0.308,10.148,0.644c1.428,0.142,2.872,0.177,4.302,0.231
		c3.393,0.128,6.778,0.383,10.164,0.579c3.223,0.188,6.452,0.331,9.671,0.616c1.665,0.147,3.346,0.194,5.02,0.284
		c2.312,0.124,4.623,0.234,6.93,0.444c1.43,0.13,2.873,0.17,4.302,0.227c2.034,0.081,4.062,0.266,6.099,0.338
		c3.228,0.113,6.446,0.42,9.67,0.641c1.435,0.098,2.873,0.156,4.306,0.219c2.032,0.09,4.069,0.218,6.097,0.352
		c3.264,0.215,6.535,0.29,9.791,0.63c1.426,0.149,2.872,0.175,4.303,0.227c2.035,0.074,4.072,0.211,6.099,0.348
		c3.223,0.219,6.454,0.279,9.671,0.625c1.424,0.154,2.871,0.184,4.302,0.234c3.394,0.12,6.778,0.379,10.163,0.582
		c3.223,0.192,6.451,0.349,9.673,0.604c1.783,0.141,3.585,0.217,5.377,0.317c3.507,0.196,7.015,0.337,10.513,0.663
		c1.429,0.133,2.871,0.159,4.302,0.219c1.993,0.084,3.983,0.259,5.979,0.334c3.269,0.124,6.528,0.422,9.792,0.649
		c1.395,0.097,2.793,0.154,4.184,0.212c1.994,0.083,3.981,0.261,5.977,0.339c3.309,0.129,6.607,0.433,9.911,0.642
		c1.514,0.096,3.032,0.178,4.543,0.237c2.075,0.08,4.153,0.205,6.218,0.352c3.183,0.226,6.376,0.271,9.552,0.621
		c1.347,0.148,2.715,0.167,4.064,0.214c1.956,0.067,3.903,0.259,5.859,0.334c3.307,0.127,6.605,0.424,9.909,0.649
		c1.434,0.098,2.872,0.15,4.304,0.214c1.994,0.089,3.991,0.222,5.979,0.35c3.264,0.209,6.534,0.299,9.792,0.63
		c1.505,0.153,3.029,0.173,4.54,0.234c2.074,0.083,4.142,0.3,6.22,0.349c1.35,0.032,2.7,0.228,4.027,0.164
		c8.242-7.095,17.258-13.105,26.013-19.461c-0.023-0.079-0.049-0.158-0.072-0.238c-130.22-6.962-260.44-13.924-390.688-20.888
		c-0.313,1.099-0.252,2.113-0.331,3.082c-0.112,1.387-0.22,2.782-0.336,4.17c-0.223,2.659-0.321,5.328-0.658,7.979
		c-0.14,1.104-0.181,2.229-0.238,3.337c-0.185,3.625-0.596,7.229-0.81,10.851c-0.181,3.061-0.476,6.117-0.716,9.176
		c-0.236,3.019-0.474,6.039-0.717,9.057c-0.243,3.019-0.467,6.038-0.715,9.056c-0.249,3.019-0.493,6.037-0.715,9.057
		c-0.255,3.456-0.628,6.902-0.909,10.356c-0.204,2.502-0.271,5.018-0.528,7.514c-0.253,2.458-0.319,4.93-0.644,7.383
		c-0.15,1.142-0.161,2.303-0.263,3.457c-0.312,3.532-0.467,7.078-0.78,10.611c-0.267,3.018-0.487,6.036-0.729,9.055
		c-0.239,2.979-0.47,5.956-0.715,8.934c-0.246,2.979-0.488,5.957-0.71,8.937c-0.252,3.376-0.679,6.74-0.885,10.119
		c-0.151,2.467-0.4,4.927-0.548,7.394c-0.148,2.465-0.442,4.92-0.649,7.381c-0.094,1.111-0.16,2.225-0.26,3.336
		c-0.313,3.492-0.492,6.996-0.774,10.492c-0.273,3.375-0.691,6.738-0.893,10.117c-0.147,2.467-0.381,4.928-0.571,7.391
		c-0.184,2.38-0.307,4.77-0.624,7.143c-0.147,1.103-0.162,2.226-0.262,3.338c-0.307,3.412-0.473,6.838-0.778,10.251
		c-0.262,2.938-0.48,5.877-0.732,8.814c-0.327,3.81-0.65,7.619-0.946,11.431c-0.253,3.256-0.685,6.499-0.886,9.756
		c-0.145,2.349-0.414,4.685-0.552,7.031c-0.135,2.303-0.447,4.595-0.64,6.896c-0.093,1.111-0.179,2.226-0.268,3.337
		c-0.286,3.572-0.588,7.143-0.953,10.709c-0.227,2.219-0.325,4.449-0.526,6.672c-0.19,2.1-0.515,4.188-0.638,6.292
		c-0.079,1.352-0.398,2.686-0.297,4.048c-0.72,0-1.44,0-2.16,0c0.465-1.019,0.255-2.129,0.411-3.19
		c0.306-2.084,0.374-4.202,0.567-6.303c0.203-2.22,0.446-4.437,0.654-6.656c0.101-1.07,0.18-2.146,0.271-3.217
		c0.307-3.61,0.656-7.218,0.941-10.829c0.182-2.303,0.38-4.605,0.567-6.909c0.19-2.34,0.31-4.688,0.627-7.021
		c0.145-1.062,0.168-2.144,0.266-3.215c0.306-3.373,0.479-6.757,0.782-10.13c0.257-2.856,0.441-5.722,0.724-8.572
		c0.331-3.329,0.562-6.667,0.869-9.997c0.222-2.416,0.422-4.842,0.56-7.271c0.138-2.425,0.51-4.836,0.634-7.261
		c0.069-1.354,0.216-2.702,0.321-4.051c0.198-2.54,0.329-5.087,0.644-7.619c0.138-1.104,0.205-2.228,0.254-3.335
		c0.11-2.472,0.384-4.928,0.572-7.391c0.183-2.379,0.398-4.764,0.604-7.143c0.209-2.42,0.408-4.846,0.564-7.271
		c0.161-2.504,0.437-4.998,0.657-7.496c0.095-1.071,0.176-2.151,0.23-3.219c0.127-2.51,0.375-5.01,0.578-7.51
		c0.196-2.42,0.292-4.852,0.626-7.264c0.152-1.1,0.158-2.223,0.257-3.336c0.316-3.531,0.479-7.076,0.784-10.607
		c0.262-3.02,0.497-6.037,0.732-9.058c0.232-2.978,0.491-5.954,0.709-8.935c0.252-3.455,0.629-6.899,0.909-10.354
		c0.206-2.543,0.308-5.095,0.514-7.637c0.28-3.453,0.637-6.899,0.919-10.352c0.207-2.542,0.271-5.099,0.536-7.634
		c0.258-2.457,0.312-4.929,0.633-7.381c0.15-1.141,0.185-2.304,0.269-3.456c0.214-2.941,0.503-5.876,0.695-8.817
		c0.164-2.505,0.416-5.003,0.554-7.511c0.139-2.505,0.432-5.001,0.65-7.502c0.097-1.112,0.129-2.226,0.245-3.34
		c0.267-2.575,0.339-5.169,0.545-7.751c0.28-3.493,0.677-6.978,0.897-10.475c0.151-2.387,0.409-4.766,0.52-7.156
		c0.062-1.332,0.765-1.911,2.109-1.744c1.666,0.208,3.349,0.143,5.022,0.248c2.108,0.131,4.227,0.229,6.339,0.343
		c3.826,0.207,7.657,0.322,11.477,0.646c1.63,0.138,3.273,0.185,4.904,0.233c2.317,0.069,4.632,0.215,6.94,0.353
		c3.585,0.213,7.176,0.346,10.761,0.598c1.947,0.137,3.907,0.22,5.861,0.315c3.985,0.192,7.973,0.338,11.95,0.672
		c1.55,0.13,3.113,0.152,4.664,0.211c2.195,0.083,4.385,0.258,6.58,0.336c3.707,0.132,7.408,0.427,11.112,0.65
		c1.594,0.096,3.194,0.154,4.785,0.214c2.235,0.083,4.464,0.266,6.701,0.338c3.669,0.119,7.332,0.429,10.998,0.644
		c1.634,0.096,3.273,0.175,4.905,0.228c2.316,0.074,4.632,0.214,6.94,0.353c3.585,0.217,7.179,0.278,10.758,0.622
		c1.586,0.152,3.192,0.182,4.783,0.227c2.277,0.063,4.551,0.211,6.818,0.348c3.583,0.216,7.177,0.268,10.753,0.628
		c1.545,0.155,3.111,0.148,4.663,0.211c2.154,0.088,4.307,0.252,6.461,0.333c3.748,0.141,7.49,0.43,11.235,0.653
		c1.595,0.095,3.194,0.158,4.785,0.215c2.235,0.081,4.465,0.266,6.702,0.337c3.668,0.117,7.33,0.426,10.996,0.648
		c1.595,0.097,3.193,0.152,4.785,0.214c2.195,0.085,4.387,0.259,6.582,0.337c3.709,0.13,7.41,0.438,11.115,0.651
		c1.633,0.094,3.272,0.164,4.903,0.22c2.354,0.081,4.711,0.219,7.058,0.36c3.504,0.21,7.014,0.31,10.516,0.602
		c1.783,0.148,3.586,0.196,5.381,0.277c2.672,0.12,5.343,0.231,8.009,0.457c1.55,0.131,3.112,0.144,4.663,0.209
		c2.193,0.092,4.387,0.258,6.582,0.336c3.748,0.133,7.491,0.427,11.236,0.656c1.555,0.095,3.115,0.148,4.666,0.211
		c2.194,0.089,4.391,0.223,6.581,0.345c3.744,0.208,7.498,0.292,11.235,0.644c1.548,0.146,3.112,0.155,4.663,0.214
		c2.194,0.082,4.391,0.216,6.578,0.341c3.704,0.212,7.416,0.285,11.112,0.64c1.548,0.149,3.11,0.146,4.663,0.214
		c2.192,0.096,4.385,0.259,6.581,0.34c3.708,0.136,7.41,0.412,11.114,0.643c1.675,0.104,3.354,0.156,5.024,0.227
		c2.193,0.093,4.392,0.215,6.58,0.343c3.666,0.214,7.341,0.281,10.999,0.633c1.589,0.152,3.192,0.164,4.785,0.223
		c2.273,0.084,4.551,0.217,6.818,0.35c3.624,0.211,7.261,0.264,10.875,0.637c0.673,0.069,1.358,0.023,2.038,0.035
		c1.673,0.028,2.497,0.839,2.488,2.491c-0.059,10.599,0.225,21.195,0.344,31.792c0.075,6.597-0.02,13.2,0.225,19.792
		c0.236,6.399-0.01,12.801,0.234,19.194c0.248,6.479,0.009,12.959,0.24,19.435c0.21,5.878,0.155,11.756,0.168,17.635
		c0.004,1.705,0.234,3.228,1.346,4.683c3.553,4.658,5.716,9.965,6.798,15.707c0.662,3.516,0.787,7.1,0.438,10.621
		c-0.854,8.586-2.383,17.049-5.939,25.008c-0.373,0.838-0.785,1.662-1.248,2.451c-0.419,0.717-0.632,1.465-0.586,2.275
		c0.251,4.438,0.057,8.879,0.177,13.315c0.267,9.875,0.138,19.755,0.425,29.63c0.144,4.956,0.015,9.919,0.138,14.876
		c0.083,3.358,0.077,6.718,0.154,10.076c0.057,2.471,0.479,4.903,1.01,7.316c0.562,2.563,0.912,5.157,1.151,7.771
		c0.242,2.666,0.43,5.331,0.394,8.009c-0.014,0.958-0.243,1.905-0.156,2.869c-0.88,0-1.76,0-2.64,0
		c-0.033-0.154-0.05-0.313-0.102-0.461c-1.778-5.127-4.147-9.979-6.932-14.627c-6.147-10.263-13.774-19.334-22.37-27.615
		c-0.859-0.828-1.725-1.676-2.945-2.521c0.375,0.915,0.654,1.562,0.903,2.218c0.922,2.429,1.029,4.963,0.953,7.52
		c-0.052,1.743-0.493,3.393-1.35,4.896c-1.354,2.376-3.434,3.646-6.165,3.961c-2.047,0.233-4.047-0.037-6.069-0.233
		c-3.478-0.338-6.893-1.022-10.318-1.678c-7.86-1.503-15.631-3.431-23.479-4.982c-2.449-0.483-4.912-0.92-7.385-1.259
		c-2.414-0.331-4.858-0.301-7.293-0.328c-3.433-0.039-6.85,0.132-10.227,0.791c-2.422,0.473-4.682,1.122-5.85,3.701
		c-0.436,0.961-1.366,1.698-2.047,2.511c0.104,0.187,0.226,0.195,0.342,0.182c2.646-0.32,5.256-0.007,7.819,0.603
		c3.146,0.746,5.854,2.246,7.752,4.975c0.889,1.278,1.531,2.689,2.176,4.095c1.586,3.455,2.647,7.054,2.812,10.881
		c0.106,2.476-0.093,4.932-0.47,7.376c-0.72,0-1.438,0-2.16,0c0.496-1.65,0.657-3.359,0.712-5.062
		c0.165-5.096-1.271-9.799-3.584-14.294c-1.03-2.007-2.35-3.7-4.336-4.796c-1.979-1.092-4.146-1.648-6.382-1.758
		c-3.468-0.17-6.901,0.062-10.32,0.849c-2.154,0.495-4.283,1.145-6.482,1.435c-3.236,0.426-6.461,0.93-9.73,0.165
		c-1.275-0.3-2.268-0.913-3.08-1.895c-3.742-4.517-7.488-9.031-11.228-13.551c-2.772-3.352-5.563-6.688-8.296-10.07
		c-3.256-4.031-6.521-8.06-9.667-12.178c-3.681-4.816-7.396-9.598-11.382-14.171c-5.274-6.052-10.647-12.013-16.043-17.957
		c-4.053-4.467-8.037-8.997-12.065-13.486c-2.369-2.641-4.062-5.684-5.503-8.902c-2.533-5.659-5.021-11.346-8.219-16.682
		c-2.32-3.875-4.973-7.498-8.027-10.836c-5.664-6.188-11.304-12.398-16.925-18.625c-4.36-4.83-8.664-9.713-12.818-14.723
		c-2.545-3.069-5.076-6.156-7.203-9.547c-1.556-2.48-2.826-5.088-3.303-7.995c-0.285-1.734-0.244-3.509,0.007-5.253
		c0.373-2.597,0.88-5.174,0.858-7.818c-0.019-2.247-0.539-4.411-1.017-6.574c-0.548-2.479-1.008-4.976-1.358-7.482
		c-0.577-4.129-2.166-7.709-5.182-10.617c-0.898-0.866-1.697-1.827-2.325-2.884c-1.633-2.748-4.108-3.415-7.046-3.118
		c-0.227,1.341-0.199,1.514,0.934,2.161c2.956,1.69,5.425,4.029,8.147,6.031c0.19,0.14,0.376,0.317,0.496,0.517
		c0.213,0.357,0.305,0.756-0.003,1.113c-0.317,0.369-0.689,0.467-1.173,0.255c-0.604-0.264-1.05-0.736-1.523-1.14
		c-4.797-4.089-10.262-7.115-15.797-10.036c-1.354-0.714-2.757-0.922-4.121-0.228c-2.263,1.153-4.463,2.428-6.687,3.649
		c0.144,0.474,0.479,0.299,0.71,0.301c2.24,0.02,4.486-0.086,6.718,0.05c3.324,0.203,6.689,0.235,9.874,1.416
		c0.99,0.367,2.073,0.666,2.464,1.804c-0.065,0.558-0.385,0.824-0.934,1.012c-1.248-0.467-2.477-1.192-3.913-1.468
		c-1.529-0.293-3.072-0.545-4.603-0.62c-3.431-0.167-6.867-0.46-10.306-0.266c-1.066,0.06-2.134,0.235-3.198,0.362
		c-1.287,0.154-1.856,0.924-2.241,2.005c-0.273,0.766-0.307,1.539-0.204,2.405c1.167,0.069,2.219-0.317,3.272-0.576
		c2.357-0.578,4.684-1.226,7.159-1.09c1.563,0.086,3.062,0.435,4.567,0.8c0.112,0.027,0.21,0.11,0.318,0.162
		c0.532,0.251,1.005,0.553,0.794,1.255c-0.168,0.559-0.759,0.82-1.502,0.542c-1.362-0.51-2.793-0.621-4.206-0.805
		c-1.518-0.199-3.035,0.108-4.488,0.495c-2.341,0.624-4.713,1.095-7.07,1.636c-0.657,0.15-1.307,0.337-1.905,0.665
		c-1.294,0.711-1.916,2.144-1.428,3.406c1.229-0.244,2.364-0.848,3.619-1.041c1.991-0.305,3.985-0.14,5.977-0.103
		c0.558,0.01,0.967,0.407,0.997,1.011c0.027,0.559-0.418,0.888-1.182,0.89c-0.959,0.001-1.92-0.001-2.878-0.052
		c-2.336-0.122-4.46,0.667-6.586,1.471c-1.681,0.635-3.338,1.297-4.66,2.591c-1.262,1.235-1.574,2.005-0.65,3.475
		c1.523,2.426,2.719,5.017,4.116,7.503c0.889,1.582,2.219,2.584,4.077,2.76c0.282,0.027,0.5,0.28,0.982,0.128
		c-0.404-2.093-1.464-3.992-2.007-6.082c-1.055-0.283-2.049-0.539-3.037-0.818c-0.457-0.129-0.906-0.289-1.351-0.457
		c-0.519-0.195-0.783-0.586-0.61-1.122c0.185-0.57,0.635-0.797,1.229-0.654c0.539,0.13,1.08,0.263,1.606,0.436
		c0.381,0.125,0.75,0.244,1.127,0.154c0.178-0.132,0.149-0.305,0.159-0.458c0.033-0.529,0.38-0.821,0.833-0.877
		c0.42-0.052,0.767,0.247,0.932,0.631c0.296,0.69,0.55,1.399,0.804,2.107c0.818,2.275,1.52,4.599,2.477,6.813
		c0.753,1.742,1.262,3.56,1.975,5.312c1.577,3.876,4.087,6.993,7.344,9.562c2.446,1.931,4.94,3.781,7.865,4.943
		c1.105,0.438,1.593,1.358,2.007,2.387c1.513,3.755,2.916,7.553,4.28,11.363c2.219,6.196,4.38,12.416,6.12,18.771
		c1.151,4.201,2.262,8.41,3.673,12.538c2.274,6.65,4.861,13.176,7.645,19.627c1.103,2.555,2.323,5.053,3.477,7.583
		c2.128,4.669,4.798,9.006,8.189,12.853c4.601,5.217,8.071,11.103,10.981,17.394c4.41,9.534,9.211,18.876,14.361,28.033
		c2.441,4.34,4.929,8.652,7.939,12.631c4.184,5.523,9.016,10.469,13.904,15.357c2.375,2.375,4.665,4.846,7.146,7.104
		c3.6,3.277,5.863,7.272,7.059,11.941c0.539,2.106,1.127,4.201,1.693,6.302c-0.722,0-1.44,0-2.16,0
		c-0.326-2.281-1.082-4.453-1.688-6.663c-1.01-3.688-2.874-6.812-5.637-9.522c-4.562-4.476-9.067-9.014-13.506-13.618
		c-6.045-6.271-11.188-13.173-15.459-20.755c-5.996-10.644-11.527-21.524-16.704-32.583c-2.339-4.995-5.353-9.484-8.873-13.685
		c-3.101-3.698-5.897-7.591-8.037-11.956c-2.745-5.602-5.26-11.298-7.604-17.074c-0.176-0.434-0.241-0.954-0.74-1.287
		c-0.026,0.205-0.061,0.323-0.055,0.438c0.313,5.864,0.63,11.729,0.946,17.595c0.329,6.104,0.657,12.204,0.984,18.307
		c0.038,0.713-0.25,1.221-0.905,1.54c-0.417,0.203-0.846,0.206-1.285,0.206c-1.306-0.001-2.612,0-3.872,0
		c-0.224,0.563-0.137,1.006-0.137,1.438c-0.01,10.515,0.258,21.024,0.432,31.537c0.128,7.794,0.243,15.587,0.464,23.379
		c0.146,5.114,0.177,10.23,0.339,15.345c0.184,5.788,0.458,11.573,0.693,17.36c-0.64,0-1.28,0-1.92,0
		c-0.066-0.395-0.182-0.785-0.192-1.181c-0.111-4.193-0.349-8.385-0.486-12.576c-0.172-5.233-0.307-10.469-0.452-15.702
		c-0.236-8.474-0.381-16.948-0.525-25.424c-0.067-3.918-0.056-7.836-0.169-11.756c-0.203-7.033,0.002-14.076-0.309-21.11
		c-0.019-0.42,0.135-0.88-0.223-1.31c-2.135,0-4.292,0-6.45,0c-2.799,0-5.599,0.012-8.398-0.006c-1.214-0.007-1.64-0.437-1.75-1.619
		c-0.084-0.912-0.195-1.824-0.288-2.736c-0.302-2.978-0.611-5.953-0.9-8.932c-0.274-2.822-0.523-5.646-0.79-8.47
		c-0.376-3.976-0.758-7.95-1.14-11.925c-0.064-0.674,0.029-1.48-0.416-1.955c-0.963-1.029-2.06-1.941-3.468-2.875
		c0.254,3.001,0.224,5.749,0.326,8.493c0.207,5.592,0.447,11.183,0.656,16.774c0.114,3.075,0.17,6.152,0.29,9.229
		c0.2,5.15,0.468,10.301,0.637,15.454c0.136,4.153,0.316,8.308,0.456,12.461c0.23,6.832,0.479,13.662,0.752,20.491
		c0.219,5.472,0.3,10.948,0.544,16.42c0.107,2.396,0.132,4.796,0.257,7.189c0.205,3.912,0.288,7.827,0.431,11.741
		c0.097,2.676,0.295,5.349,0.27,8.029c-0.004,0.436,0.025,0.881,0.217,1.291c-0.72,0-1.44,0-2.16,0
		c-0.134-3.313-0.242-6.628-0.413-9.939c-0.107-2.076-0.058-4.151-0.206-6.23c-0.222-3.107-0.22-6.23-0.333-9.348
		c-0.12-3.314-0.233-6.631-0.406-9.941c-0.121-2.316-0.067-4.634-0.227-6.952c-0.219-3.188-0.214-6.393-0.327-9.588
		c-0.148-4.194-0.317-8.389-0.479-12.581c-0.217-5.632-0.419-11.265-0.66-16.895c-0.098-2.275-0.077-4.553-0.227-6.832
		c-0.221-3.349-0.196-6.712-0.32-10.066c-0.193-5.232-0.408-10.466-0.646-15.695c-0.104-2.276-0.084-4.554-0.224-6.833
		c-0.209-3.391-0.215-6.792-0.325-10.188c-0.119-3.676-0.22-7.354-0.397-11.026c-0.145-2.996-0.123-5.995-0.23-8.992
		c-0.135-3.754-0.281-7.511-0.343-11.271c-0.065-3.955-0.257-7.909-0.392-11.864c-0.028-0.84-0.046-1.681-0.068-2.519
		c-0.163-6.115-0.328-12.229-0.486-18.344c-0.014-0.527-0.185-1.023-0.354-1.503c-0.421-1.197-0.913-2.37-1.382-3.551
		c-0.217-0.547-0.549-0.897-1.2-1.005c-0.934-0.154-1.849-0.435-2.766-0.684c-1.527-0.414-2.695-1.343-3.615-2.601
		c-0.803-1.097-1.464-2.279-1.962-3.542c-0.486-1.232-1.164-2.346-1.958-3.396c-0.388-0.512-0.684-1.077-0.942-1.662
		c-1.013-2.299-0.564-4.104,1.354-5.756c1.095-0.943,2.271-1.734,3.711-2.318c-0.324-3.43,0.966-5.868,4.486-6.728
		c0.212-0.886,0.025-1.72,0.221-2.558c0.385-1.653,1.159-3.057,2.369-4.199c0.594-0.56,0.733-1.141,0.707-1.915
		c-0.145-4.116-0.231-8.233-0.355-12.35c-0.054-1.798-0.174-3.595-0.217-5.393c-0.038-1.586,0.316-1.971,1.92-2.082
		c4.704-0.324,9.413-0.57,14.111-0.955c1.833-0.15,3.673-0.127,5.5-0.379c1.612-0.222,2.122,0.343,2.202,1.992
		c0.185,3.788,0.438,7.573,0.65,11.36c0.049,0.878,0.046,1.759,0.058,2.639c0.008,0.56,0.012,1.119,0.294,1.771
		c1.155-0.176,2.337-0.024,3.484,0.252c2.092,0.503,3.823,1.611,4.99,3.453c0.969,1.529,2.167,2.863,3.401,4.165
		c2.346,2.476,3.721,5.437,4.371,8.736c0.803,4.079,1.45,8.186,2.331,12.253c0.558,2.577,0.435,5.221,0.152,7.857
		c-0.224,2.094-0.75,4.143-0.799,6.263c-0.057,2.445,0.551,4.715,1.575,6.9c1.413,3.016,3.383,5.669,5.434,8.261
		c4.609,5.825,9.522,11.392,14.468,16.933c5.479,6.139,11,12.241,16.593,18.277c3.889,4.195,7.443,8.631,10.332,13.583
		c2.551,4.375,4.682,8.958,6.778,13.558c0.626,1.373,1.287,2.731,1.864,4.125c1.367,3.299,3.535,6.043,5.89,8.668
		c4.056,4.52,8.103,9.045,12.164,13.558c3.233,3.592,6.519,7.138,9.718,10.759c5.26,5.952,10.479,11.938,15.2,18.341
		c2.815,3.816,5.796,7.506,8.796,11.18c2.901,3.553,5.79,7.115,8.707,10.655c3.426,4.156,6.876,8.294,10.314,12.439
		c0.791,0.952,1.641,1.86,2.358,2.865c0.769,1.072,1.849,1.544,3.05,1.62c5.849,0.373,11.477-0.551,16.842-2.978
		c2.36-1.067,3.99-2.857,5.211-5.067c1.521-2.754,2.63-5.694,3.814-8.599c1.555-3.805,3.421-7.439,5.68-10.875
		c2.238-3.407,4.166-6.967,5.237-10.933c0.574-2.124,0.926-4.257,0.438-6.469c-0.309-1.394-1.009-2.479-2.101-3.361
		c-1.772-1.435-3.795-2.487-5.688-3.735c-1.87-1.231-3.72-2.489-5.28-4.107c-1.541-1.602-2.701-3.391-3.118-5.658
		c-0.272-1.485-0.07-2.868,0.402-4.213c0.95-2.691,2.024-5.338,2.639-8.141c0.425-1.941,0.713-3.896,0.896-5.875
		c0.213-2.298,0.856-4.512,1.482-6.723c0.528-1.866,1.042-3.739,1.653-5.578c0.257-0.773,0.149-1.316-0.316-1.975
		c-1.525-2.152-2.015-4.541-1.406-7.141c0.146-0.621,0.455-1.119,0.918-1.501c2.338-1.931,4.693-3.84,7.046-5.754
		c0.464-0.378,0.933-0.749,1.334-1.3c-0.39-2.146-0.775-4.341-0.652-6.583c0.13-2.34,0.835-4.479,2.459-6.181
		c2.03-2.125,3.509-4.637,5.191-7.006c0.327-0.459,0.303-0.908,0.098-1.453c-1.688-4.498-3.557-8.922-5.465-13.33
		c-1.983-4.586-4.399-8.916-7.375-12.936c-1.945-2.628-3.914-5.251-6.118-7.656c-4.144-4.52-7.355-9.62-9.867-15.168
		c-4.134-9.126-8.462-18.157-12.996-27.089c-0.179-0.354-0.324-0.728-0.531-1.062c-0.188-0.302-0.422-0.557-0.84-0.593
		c-1.705-0.146-3.408-0.305-5.108-0.487c-1.937-0.208-3.868-0.461-5.806-0.665c-1.858-0.196-3.724-0.342-5.582-0.532
		c-1.979-0.201-3.951-0.432-5.928-0.64c-1.82-0.191-3.641-0.366-5.459-0.555c-2.098-0.218-4.191-0.451-6.287-0.665
		c-1.822-0.187-3.646-0.349-5.467-0.536c-2.058-0.211-4.113-0.446-6.171-0.659c-1.821-0.188-3.646-0.354-5.467-0.542
		c-2.099-0.217-4.19-0.458-6.289-0.67c-1.86-0.188-3.728-0.342-5.587-0.53c-1.979-0.199-3.957-0.416-5.934-0.635
		c-0.988-0.109-1.979-0.195-2.97-0.301c-2.213-0.237-4.426-0.492-6.642-0.689c-1.941-0.172-3.875-0.423-5.822-0.559
		c-1.9-0.132-3.786-0.471-5.688-0.633c-1.783-0.151-3.562-0.339-5.342-0.537c-2.096-0.233-4.189-0.455-6.285-0.671
		c-1.781-0.184-3.565-0.349-5.348-0.532c-2.137-0.219-4.271-0.458-6.409-0.671c-1.902-0.189-3.808-0.343-5.709-0.536
		c-1.979-0.2-3.955-0.435-5.933-0.643c-1.821-0.191-3.644-0.362-5.465-0.551c-2.097-0.217-4.191-0.453-6.288-0.666
		c-1.86-0.188-3.724-0.345-5.583-0.538c-2.015-0.209-4.03-0.427-6.041-0.676c-0.78-0.096-1.605,0.122-2.382-0.295
		c-0.032-0.568-0.063-1.122-0.094-1.664c0.313-0.35,0.692-0.208,1.025-0.165c2.168,0.283,4.345,0.479,6.522,0.682
		c1.899,0.177,3.787,0.471,5.686,0.643c1.744,0.158,3.482,0.355,5.224,0.527c2.177,0.216,4.353,0.423,6.526,0.686
		c1.896,0.229,3.807,0.344,5.708,0.538c1.979,0.202,3.953,0.447,5.931,0.655c1.821,0.191,3.646,0.353,5.469,0.539
		c2.059,0.21,4.115,0.438,6.173,0.648c1.86,0.191,3.725,0.361,5.586,0.554c2.058,0.213,4.112,0.451,6.17,0.664
		c1.819,0.188,3.644,0.348,5.462,0.536c2.057,0.212,4.111,0.448,6.168,0.66c1.82,0.188,3.643,0.349,5.463,0.538
		c2.057,0.212,4.109,0.448,6.166,0.663c1.78,0.186,3.562,0.368,5.344,0.531c2.14,0.195,4.276,0.397,6.407,0.671
		c1.776,0.228,3.565,0.35,5.347,0.532c2.1,0.214,4.194,0.45,6.293,0.662c1.901,0.192,3.807,0.354,5.707,0.547
		c1.979,0.203,3.955,0.436,5.934,0.644c1.82,0.191,3.645,0.36,5.465,0.55c2.096,0.218,4.188,0.459,6.285,0.672
		c1.859,0.189,3.725,0.34,5.585,0.531c1.978,0.203,3.951,0.424,5.926,0.655c0.908,0.106,1.821,0.139,2.733,0.262
		c2.087,0.283,4.197,0.399,6.299,0.58c0.152,0.013,0.311,0.001,0.51,0.001c0.542-1.199,1.322-2.195,2.281-3.051
		c0.209-0.186,0.4-0.404,0.636-0.545c1.982-1.192,3.382-1.633,5.546,0.494c1.506,1.482,3.317,2.579,4.941,4.139
		c0.55-1.998,1.92-3.11,3.501-4.006c1.296-0.734,2.447-1.665,3.535-2.655c3.062-2.787,7.387-0.949,8.699,1.585
		c0.421,0.812,0.843,1.622,1.281,2.469c4.753,0.51,9.294,1.453,12.341,5.546c1.498-0.232,2.868-0.268,4.26,0.014
		c0.798,0.161,1.522,0.447,2.218,0.818c0.792,0.424,1.624,0.579,2.504,0.66c2.02,0.188,4.032,0.435,6.049,0.645
		c1.819,0.19,3.642,0.354,5.459,0.547c2.018,0.213,4.029,0.452,6.045,0.667c1.74,0.186,3.48,0.365,5.224,0.528
		c1.15,0.107,1.445,0.405,1.446,1.579c0.001,3.84-0.103,7.683,0.021,11.519c0.14,4.314,0.11,8.633,0.395,12.943
		c0.178,2.672,0.145,5.354,0.223,8.03c0.104,3.596,0.338,7.188,0.345,10.786c0.004,2.153,0.281,4.308,0.216,6.468
		c-0.007,0.241,0.003,0.485,0.326,0.701c7.406-0.707,14.756-0.132,21.842,2.646c0.267-0.375,0.175-0.733,0.173-1.068
		c-0.021-3.959-0.095-7.917-0.155-11.874c-0.091-5.838-0.271-11.673-0.349-17.511c-0.061-4.675-0.291-9.348-0.459-14.021
		c-0.156-4.392-0.272-8.786-0.519-13.173c-0.151-2.71-0.352-5.417-0.448-8.13c-0.021-0.56-0.1-1.111-0.363-1.769
		c-82.81-4.951-165.666-9.904-248.499-14.855c-0.742-1.802-0.757-1.812-2.748-1.807c-0.32,0.001-0.65-0.04-0.958,0.023
		c-1.698,0.351-3.429,0.234-5.14,0.317c-1.838,0.088-3.67,0.249-5.498,0.409c-1.806,0.158-3.603,0.032-5.376-0.119
		c-1.79-0.152-3.589-0.2-5.377-0.326c-1.945-0.137-3.908-0.226-5.855-0.351c-3.302-0.212-6.614-0.296-9.91-0.632
		c-1.466-0.15-2.952-0.176-4.422-0.231c-1.956-0.073-3.911-0.218-5.859-0.343c-3.263-0.21-6.536-0.283-9.792-0.631
		c-1.426-0.152-2.873-0.182-4.302-0.231c-3.394-0.118-6.777-0.386-10.164-0.58c-3.223-0.185-6.454-0.3-9.672-0.625
		c-1.465-0.148-2.947-0.133-4.422-0.253c-2.383-0.195-4.779-0.223-7.17-0.322c-0.506-0.089-1.011-0.229-1.618-0.014
		c0.613,0,1.13,0,1.647,0c0.056,0.24,0.245,0.291,0.449,0.311c2.657,0.25,5.315,0.478,7.97,0.751
		c2.69,0.276,5.375,0.604,8.065,0.894c1.78,0.191,3.563,0.36,5.346,0.528c2.138,0.202,4.275,0.403,6.407,0.67
		c1.895,0.238,3.805,0.347,5.705,0.54c1.978,0.201,3.952,0.444,5.93,0.65c1.858,0.193,3.72,0.354,5.578,0.544
		c2.018,0.207,4.032,0.435,6.049,0.645c1.82,0.19,3.641,0.366,5.461,0.555c2.097,0.218,4.192,0.447,6.289,0.663
		c1.781,0.184,3.561,0.416,5.347,0.513c1.118,0.061,2.202,0.398,3.354,0.273c0.307,0.693,0.157,1.352,0.124,2.069
		c-26.209-2.687-52.353-5.368-78.541-8.053c-0.439,0.18-0.354,0.613-0.372,1.003c-0.175,3.747-0.439,7.488-0.659,11.231
		c-0.107,1.831-0.235,3.664-0.322,5.498c-0.163,3.426-0.431,6.846-0.658,10.269c-0.092,1.394-0.158,2.793-0.215,4.184
		c-0.081,1.955-0.267,3.903-0.339,5.858c-0.119,3.227-0.411,6.447-0.637,9.67c-0.101,1.433-0.174,2.873-0.233,4.303
		c-0.138,3.35-0.39,6.694-0.587,10.039c-0.185,3.143-0.364,6.29-0.603,9.431c-0.139,1.824-0.241,3.662-0.327,5.496
		c-0.157,3.346-0.432,6.687-0.657,10.027c-0.094,1.395-0.172,2.793-0.228,4.182c-0.131,3.312-0.39,6.615-0.586,9.92
		c-0.184,3.103-0.287,6.216-0.626,9.312c-0.156,1.425-0.134,2.865-0.248,4.302c-0.257,3.262-0.308,6.537-0.541,9.801
		c-0.276,3.86-0.487,7.724-0.731,11.584c-0.244,3.863-0.49,7.726-0.726,11.588c-0.234,3.822-0.49,7.643-0.722,11.465
		c-0.227,3.742-0.476,7.484-0.71,11.227c-0.236,3.781-0.487,7.562-0.728,11.345c-0.235,3.7-0.473,7.402-0.715,11.104
		c-0.243,3.702-0.477,7.404-0.721,11.105c-0.237,3.579-0.468,7.161-0.709,10.741c-0.246,3.661-0.482,7.323-0.733,10.983
		c-0.235,3.42-0.436,6.845-0.722,10.261c-0.226,2.699-0.297,5.411-0.63,8.104c-0.151,1.223-0.14,2.466-0.254,3.7
		c-0.249,2.658-0.341,5.332-0.534,7.996c-0.112,1.548-0.295,3.09-0.446,4.635C105.44,396.24,104.8,396.24,104.16,396.24z
		 M403.23,360.509c0.464-0.023,0.67,0.002,0.854-0.051c3.706-1.059,7.518-1.267,11.336-1.389c1.717-0.056,3.432,0.118,5.146,0.179
		c3.396,0.12,6.72,0.716,10.032,1.344c4.004,0.759,7.978,1.688,11.962,2.546c6.042,1.303,12.063,2.701,18.177,3.662
		c3.066,0.482,6.126,0.954,9.245,0.905c3.237-0.051,5.365-1.605,6.187-4.719c0.947-3.597,0.527-7.095-1.01-10.457
		c-0.548-1.198-0.975-2.408-1.189-3.722c-0.123-0.754-0.097-1.515-0.241-2.25c-0.45-2.262-0.109-4.409,0.687-6.548
		c1.565-4.203,3.886-7.995,6.278-11.749c2.301-3.608,4.822-7.056,8.039-9.912c4.092-3.636,8.035-7.431,12.089-11.106
		c4.357-3.954,7.292-8.779,9.196-14.295c2.108-6.102,3.252-12.414,4.039-18.791c0.44-3.566,0.372-7.148-0.163-10.734
		c-0.629-4.209-1.896-8.174-3.924-11.902c-3.584-6.594-8.856-11.639-14.811-16.045c-3.876-2.871-8.017-5.332-12.153-7.802
		c-6.047-3.608-12.566-5.671-19.569-6.133c-4.025-0.267-8.061-0.005-12.031,0.733c-4.889,0.91-9.601,2.396-14.114,4.521
		c-3.424,1.61-6.285,3.905-8.742,6.738c-2.539,2.926-4.687,6.141-6.834,9.354c-1.504,2.252-2.955,4.549-4.828,6.524
		c-0.846,0.892-1.396,1.909-1.755,3.071c-0.783,2.539-0.391,5.074,0.226,7.533c0.382,1.518,0.244,2.896-0.11,4.33
		c-0.499,2.014-1.681,3.678-2.811,5.354c-1.628,2.415-3.062,4.911-4.027,7.682c-0.994,2.847-1.72,5.771-2.607,8.646
		c-0.591,1.91-0.933,3.857-1.144,5.826c-0.198,1.858-0.492,3.691-0.893,5.516c-0.598,2.724-1.622,5.305-2.56,7.917
		c-1.039,2.896-0.41,5.452,1.642,7.712c1.436,1.58,3.113,2.85,4.883,4.019c1.991,1.317,4.077,2.486,6.014,3.892
		c1.465,1.063,2.528,2.42,3.052,4.161c0.562,1.873,0.521,3.805,0.2,5.688c-0.764,4.49-2.693,8.543-5.111,12.346
		c-2.312,3.634-4.507,7.314-6.138,11.311C404.938,356.391,404.115,358.362,403.23,360.509z M395.949,161.886
		c0.029-0.283,0.067-0.438,0.059-0.592c-0.043-0.646,0.037-1.301,0.794-1.383c0.812-0.089,0.968,0.562,1.145,1.235
		c0.391,1.498,0.623,3.022,0.911,4.537c0.575,3.036,1.105,6.081,1.633,9.125c0.169,0.977,0.299,1.958,0.496,2.932
		c0.119,0.589-0.088,1.164-0.73,1.336c-0.683,0.184-0.975-0.29-1.188-0.868c-0.115-0.31-0.146-0.61-0.18-0.927
		c-0.152-1.444-0.577-2.682-1.699-3.789c-2.538-2.5-4.655-5.352-6.182-8.604c-0.582-1.241-1.374-2.329-2.401-3.244
		c-1.521-1.35-3.229-2.473-4.668-3.92c-0.383-0.386-0.897-0.384-1.355-0.284c-1.386,0.303-2.203,1.348-2.954,2.437
		c-0.53,0.77,0.194,1.334,0.394,1.982c0.06,0.188,0.172,0.359,0.261,0.538c4.521,9.037,8.981,18.101,13.133,27.317
		c1.763,3.911,3.763,7.726,6.476,11.093c2.305,2.857,4.714,5.631,7.017,8.488c2.954,3.667,5.644,7.52,7.771,11.734
		c2.349,4.647,4.266,9.486,6.25,14.294c0.417,1.01,0.658,2.103,1.368,3.155c2.977-4.143,5.892-8.229,10.062-11.1
		c4.143-2.852,8.868-4.479,13.587-5.913c0.026-0.36-0.066-0.53-0.185-0.698c-1.534-2.183-3.103-4.345-4.593-6.558
		c-2.712-4.026-5.377-8.084-7.62-12.399c-1.247-2.396-1.977-4.901-2.042-7.639c-0.084-3.543,0.784-6.944,1.33-10.392
		c0.418-2.64,0.758-5.272,0.646-7.955c-0.035-0.848-0.339-1.385-1.066-1.837c-1.523-0.949-3.006-1.967-4.006-3.529
		c-0.518-0.806-0.903-1.676-1.356-2.513c-0.968-1.789-3.377-2.693-5.314-2.005c0.382,0.827,0.952,1.554,1.189,2.463
		c0.15,0.572-0.004,0.972-0.485,1.182c-0.491,0.213-0.942,0.054-1.211-0.456c-0.148-0.281-0.284-0.568-0.441-0.844
		c-1.923-3.382-4.3-6.245-8.336-7.155c-1.053-0.238-2.1-0.583-3.284-0.532c0.557,1.498,1.759,2.505,2.132,3.93
		c-0.632,1.112-1.126,1.182-1.874,0.289c-0.128-0.153-0.255-0.31-0.358-0.479c-1.295-2.098-2.632-4.173-3.671-6.417
		c-0.269-0.579-0.548-1.146-0.949-1.649c-1.158-1.456-3.521-1.819-5.009-0.721c-0.898,0.661-1.744,1.394-2.62,2.085
		c-0.938,0.739-2.093,1.164-2.962,2.001c-0.51,0.49-1.063,0.969-0.953,1.818c0.168,0.081,0.305,0.196,0.451,0.21
		C394.182,161.75,395.011,161.81,395.949,161.886z M479.005,223.271c9.632,5.177,18.888,10.735,26.579,18.608
		c0.106-0.536,0.119-1.002,0.105-1.467c-0.274-9.313-0.138-18.634-0.416-27.948c-0.196-6.556,0.013-13.115-0.231-19.674
		c-0.241-6.473-0.012-12.954-0.238-19.433c-0.234-6.713-0.021-13.435-0.255-20.153c-0.167-4.834-0.057-9.678-0.102-14.517
		c-0.015-1.494-0.13-2.987-0.21-4.718c-1.297,0.918-2.389,1.701-3.488,2.467c-6.673,4.648-13.282,9.383-19.693,14.389
		c-1.469,1.147-2.97,2.272-4.179,3.632c-0.033,1.496,0.097,2.884,0.177,4.279c0.178,3.108,0.352,6.217,0.495,9.327
		c0.185,3.95,0.348,7.903,0.477,11.855c0.184,5.632,0.401,11.266,0.472,16.899c0.085,6.836,0.414,13.67,0.312,20.511
		C478.779,219.323,478.936,221.32,479.005,223.271z M429.09,167.354c0.689,1.895,1.45,2.93,2.791,3.895
		c0.677,0.488,1.337,1.007,2.049,1.44c0.817,0.498,1.2,1.24,1.416,2.118c0.184,0.739,0.271,1.485,0.237,2.248
		c-0.13,2.905-0.535,5.779-1.069,8.632c-0.432,2.303-0.885,4.608-1.057,6.941c-0.229,3.089,0.525,5.992,2.021,8.712
		c1.535,2.792,3.188,5.51,4.928,8.18c2.479,3.809,5.068,7.539,7.766,11.297c1.51-0.109,2.985-0.459,4.416-0.799
		c0.216-1.578-0.145-3-0.16-4.436c-0.048-4.396-0.298-8.785-0.454-13.177c-0.242-6.79-0.416-13.583-0.498-20.376
		c-0.048-3.955-0.465-7.908-0.114-11.867c0.012-0.137-0.11-0.285-0.198-0.497C443.859,168.901,436.554,168.135,429.09,167.354z
		 M509.608,391.84c0.263-0.391,0.163-0.709,0.163-1.007c-0.006-4.313-0.591-8.562-1.401-12.791
		c-1.648-8.587-4.492-16.766-8.354-24.594c-1.991-4.041-4.208-7.942-7.314-11.281c-1.499-1.61-2.556-3.548-3.412-5.586
		c-1.528-3.634-2.639-7.387-3.302-11.271c-0.039-0.225-0.088-0.465-0.43-0.523c-0.146,0.157-0.33,0.312-0.466,0.505
		c-3.142,4.421-6.024,8.987-8.293,13.938c-1.282,2.798-1.499,5.641-0.943,8.605c0.111,0.598-0.046,1.263,0.456,1.774
		c0.649-0.566,1.217-0.49,1.899,0.049c1.072,0.845,2.028,1.807,3.014,2.734c4.805,4.526,9.199,9.428,13.301,14.597
		c5.542,6.983,10.404,14.391,14.028,22.566C508.886,390.299,509.236,391.033,509.608,391.84z M506.45,304.261
		c-0.824,0.565-1.149,1.229-1.641,1.74c-2.821,2.942-5.895,5.622-8.844,8.431c-2.545,2.422-5.296,4.621-7.729,7.165
		c-0.475,0.495-0.712,0.955-0.604,1.688c0.498,3.382,1.324,6.678,2.432,9.907c1.146,3.343,2.688,6.448,5.246,8.973
		c0.478,0.471,0.852,1.049,1.244,1.598c4.042,5.642,6.873,11.899,9.342,18.342c0.367,0.963,0.709,1.936,1.062,2.902
		c0.084-0.014,0.168-0.029,0.252-0.043C506.958,344.796,506.706,324.631,506.45,304.261z M229.09,244.029
		c0.173-1.332,0.051-3-0.307-4.197c-2.494-8.341-5.59-16.471-8.69-24.6c-0.227-0.594-0.621-0.961-1.21-1.229
		c-4.861-2.228-9.012-5.401-12.502-9.448c-0.098-0.113-0.205-0.253-0.502-0.14c0.398,13.008,0.798,26.053,1.198,39.11
		C214.489,244.031,221.758,243.705,229.09,244.029z M223.512,140.69c-6.663,0.442-13.054,0.866-19.532,1.296
		c0.188,5.938,0.371,11.692,0.555,17.494c0.807-0.077,1.335-0.458,1.886-0.754c1.963-1.058,3.906-2.153,5.868-3.212
		c2.121-1.144,4.247-1.162,6.37,0.019c1.635,0.909,3.279,1.801,4.921,2.698c0.26,0.142,0.487,0.4,0.917,0.267
		C224.273,152.582,223.899,146.673,223.512,140.69z M413.227,264.331c-0.083-0.056-0.166-0.11-0.249-0.166
		c-2.156,1.759-4.315,3.517-6.468,5.28c-0.149,0.123-0.284,0.291-0.367,0.467c-0.677,1.43-0.218,4.01,1.03,5.312
		C408.537,271.188,411.641,268.186,413.227,264.331z M392.674,163.737c1.155,2.758,2.873,5.067,4.948,7.161
		c-0.271-2.354-0.546-4.678-1.177-6.864c-0.731-0.223-1.34-0.079-1.922-0.268C393.956,163.582,393.352,163.629,392.674,163.737z"/>
	<path d="M528.24,87.6c-1.661-0.319-3.359-0.104-5.017-0.289c-2.616-0.292-5.249-0.335-7.861-0.635
		c-1.387-0.158-2.791-0.171-4.182-0.233c-3.229-0.144-6.455-0.388-9.68-0.587c-3.062-0.189-6.132-0.33-9.192-0.609
		c-1.584-0.145-3.185-0.21-4.777-0.301c-2.189-0.125-4.38-0.208-6.564-0.437c-1.308-0.137-2.632-0.164-3.941-0.217
		c-1.876-0.076-3.744-0.259-5.619-0.337c-3.147-0.131-6.286-0.43-9.431-0.648c-1.393-0.097-2.792-0.173-4.182-0.231
		c-3.229-0.134-6.456-0.375-9.68-0.582c-3.062-0.196-6.13-0.366-9.192-0.604c-1.784-0.139-3.582-0.251-5.378-0.331
		c-3.225-0.143-6.442-0.435-9.665-0.656c-1.354-0.093-2.715-0.162-4.063-0.215c-1.915-0.076-3.822-0.269-5.738-0.339
		c-3.066-0.112-6.126-0.428-9.189-0.642c-1.393-0.098-2.792-0.168-4.182-0.224c-1.916-0.077-3.831-0.217-5.737-0.349
		c-3.062-0.211-6.137-0.279-9.191-0.627c-1.344-0.153-2.711-0.179-4.062-0.23c-3.231-0.122-6.454-0.384-9.68-0.583
		c-3.062-0.188-6.131-0.356-9.192-0.604c-1.703-0.138-3.423-0.235-5.137-0.321c-3.307-0.166-6.605-0.426-9.909-0.656
		c-1.393-0.097-2.792-0.163-4.181-0.228c-1.914-0.089-3.831-0.218-5.737-0.348c-3.062-0.208-6.136-0.284-9.19-0.629
		c-1.344-0.152-2.711-0.174-4.061-0.228c-3.271-0.132-6.535-0.39-9.801-0.588c-3.021-0.184-6.057-0.271-9.07-0.625
		c-1.305-0.153-2.632-0.173-3.939-0.226c-3.231-0.128-6.455-0.378-9.68-0.583c-3.102-0.198-6.213-0.297-9.31-0.636
		c-1.344-0.146-2.707-0.14-4.062-0.244c-3.223-0.248-6.463-0.271-9.681-0.553c-3.021-0.264-6.052-0.368-9.075-0.614
		c-1.703-0.139-3.422-0.231-5.135-0.319c-3.306-0.171-6.606-0.444-9.909-0.666c-1.394-0.093-2.793-0.18-4.181-0.231
		c-3.232-0.118-6.456-0.383-9.68-0.582c-3.062-0.189-6.13-0.341-9.191-0.607c-1.624-0.141-3.265-0.213-4.898-0.311
		c-3.423-0.206-6.851-0.345-10.266-0.675c-1.309-0.126-2.632-0.153-3.943-0.212c-1.874-0.084-3.748-0.221-5.616-0.344
		c-3.143-0.206-6.294-0.296-9.429-0.636c-1.346-0.146-2.71-0.178-4.06-0.231c-3.231-0.128-6.456-0.377-9.68-0.581
		c-3.062-0.193-6.131-0.332-9.191-0.613c-1.544-0.143-3.105-0.204-4.659-0.293c-3.504-0.202-7.009-0.377-10.506-0.682
		c-1.39-0.121-2.788-0.132-4.183-0.246c-3.22-0.262-6.46-0.278-9.678-0.558c-3.021-0.263-6.051-0.375-9.074-0.616
		c-1.744-0.139-3.505-0.216-5.256-0.327c-3.304-0.208-6.613-0.329-9.91-0.661c-1.348-0.135-2.711-0.169-4.062-0.226
		c-3.231-0.135-6.45-0.441-9.682-0.567c-3.027-0.118-6.047-0.418-9.069-0.651c-1.232-0.095-2.47-0.114-3.703-0.194
		c-2.905-0.188-5.813-0.363-8.72-0.553c-0.191-0.012-0.387,0.032-0.612,0.052c-0.355,1.383-0.415,2.773-0.601,4.141
		c-0.336,2.481-0.613,4.971-0.903,7.458c-0.193,1.659-0.356,3.321-0.551,4.979c-0.199,1.696-0.425,3.389-0.629,5.084
		c-0.195,1.617-0.372,3.237-0.568,4.854c-0.215,1.776-0.45,3.549-0.665,5.325c-0.186,1.539-0.349,3.081-0.532,4.62
		c-0.301,2.525-0.62,5.048-0.912,7.574c-0.271,2.332-0.501,4.667-0.776,6.998c-0.279,2.367-0.598,4.729-0.885,7.095
		c-0.196,1.618-0.361,3.24-0.554,4.858c-0.207,1.737-0.434,3.471-0.643,5.207c-0.19,1.578-0.363,3.158-0.552,4.736
		c-0.217,1.815-0.449,3.628-0.664,5.443c-0.187,1.58-0.353,3.163-0.54,4.743c-0.211,1.775-0.445,3.547-0.653,5.323
		c-0.194,1.659-0.363,3.32-0.551,4.979c-0.183,1.62-0.375,3.238-0.567,4.857c-0.207,1.737-0.414,3.473-0.629,5.209
		c-0.215,1.734-0.45,3.465-0.66,5.2c-0.191,1.579-0.352,3.162-0.539,4.741c-0.21,1.777-0.442,3.551-0.65,5.328
		c-0.194,1.657-0.366,3.317-0.553,4.976c-0.188,1.659-0.376,3.318-0.575,4.976c-0.199,1.656-0.413,3.311-0.619,4.966
		c-0.221,1.774-0.449,3.548-0.659,5.323c-0.191,1.618-0.354,3.239-0.545,4.858c-0.285,2.407-0.59,4.812-0.875,7.221
		c-0.197,1.658-0.372,3.318-0.561,4.978c-0.189,1.658-0.38,3.315-0.578,4.974c-0.203,1.695-0.415,3.393-0.624,5.088
		c-0.295,2.406-0.596,4.812-0.885,7.219c-0.194,1.617-0.365,3.236-0.558,4.854c-0.212,1.775-0.445,3.549-0.655,5.323
		c-0.191,1.619-0.354,3.242-0.546,4.862c-0.207,1.734-0.442,3.467-0.649,5.201c-0.193,1.619-0.358,3.24-0.549,4.859
		c-0.205,1.736-0.43,3.473-0.637,5.209c-0.192,1.618-0.367,3.239-0.56,4.857c-0.211,1.775-0.441,3.548-0.651,5.322
		c-0.191,1.619-0.359,3.24-0.553,4.858c-0.288,2.408-0.594,4.813-0.882,7.222c-0.194,1.617-0.362,3.236-0.556,4.854
		c-0.213,1.774-0.449,3.546-0.661,5.32c-0.189,1.579-0.352,3.163-0.54,4.741c-0.296,2.485-0.61,4.969-0.904,7.452
		c-0.191,1.619-0.351,3.242-0.541,4.862c-0.2,1.697-0.423,3.393-0.627,5.088c-0.195,1.617-0.379,3.236-0.566,4.855
		c-0.273,2.369-0.539,4.74-0.819,7.108c-0.196,1.657-0.414,3.312-0.619,4.97c-0.226,1.812-0.456,3.627-0.671,5.441
		c-0.187,1.578-0.346,3.16-0.534,4.739c-0.291,2.447-0.603,4.892-0.891,7.339c-0.195,1.658-0.357,3.319-0.547,4.979
		c-0.19,1.658-0.394,3.314-0.596,4.973c-0.197,1.617-0.399,3.232-0.6,4.85c-0.225,1.814-0.46,3.628-0.671,5.444
		c-0.192,1.657-0.344,3.32-0.538,4.978c-0.199,1.696-0.433,3.39-0.64,5.084c-0.192,1.579-0.366,3.159-0.554,4.738
		c-0.217,1.814-0.447,3.626-0.662,5.44c-0.111,0.946-0.204,1.896-0.298,2.846c-0.039,0.394,0.039,0.807-0.229,1.153
		c-0.64,0-1.28,0-1.92,0c0.314-2.482,0.645-4.963,0.938-7.447c0.274-2.33,0.489-4.667,0.766-6.996
		c0.281-2.367,0.626-4.726,0.907-7.092c0.277-2.329,0.492-4.666,0.767-6.995c0.279-2.368,0.615-4.729,0.895-7.099
		c0.28-2.367,0.509-4.741,0.787-7.109c0.194-1.656,0.444-3.308,0.648-4.963c0.194-1.578,0.356-3.16,0.544-4.739
		c0.216-1.812,0.454-3.625,0.667-5.438c0.265-2.251,0.508-4.505,0.773-6.757c0.209-1.774,0.445-3.546,0.655-5.319
		c0.191-1.618,0.355-3.239,0.548-4.856c0.286-2.405,0.592-4.811,0.88-7.217c0.194-1.618,0.365-3.238,0.558-4.854
		c0.211-1.774,0.444-3.546,0.654-5.32c0.192-1.618,0.355-3.239,0.548-4.856c0.286-2.408,0.592-4.812,0.878-7.221
		c0.197-1.657,0.372-3.316,0.561-4.977c0.189-1.658,0.382-3.316,0.58-4.975c0.202-1.697,0.41-3.395,0.619-5.089
		c0.214-1.733,0.442-3.466,0.649-5.201c0.193-1.616,0.361-3.237,0.553-4.856c0.206-1.735,0.432-3.471,0.639-5.207
		c0.193-1.616,0.367-3.236,0.56-4.854c0.211-1.775,0.439-3.548,0.65-5.322c0.192-1.617,0.361-3.24,0.556-4.857
		c0.295-2.445,0.611-4.889,0.904-7.335c0.189-1.578,0.347-3.16,0.529-4.74c0.273-2.369,0.556-4.737,0.833-7.106
		c0.203-1.735,0.396-3.474,0.606-5.209c0.206-1.694,0.432-3.389,0.639-5.084c0.193-1.578,0.369-3.158,0.56-4.734
		c0.219-1.814,0.456-3.628,0.667-5.443c0.191-1.656,0.344-3.32,0.54-4.978c0.278-2.366,0.583-4.73,0.872-7.096
		c0.192-1.579,0.375-3.158,0.564-4.737c0.299-2.483,0.605-4.966,0.9-7.451c0.188-1.579,0.354-3.16,0.542-4.738
		c0.21-1.776,0.437-3.551,0.649-5.327c0.188-1.578,0.36-3.158,0.547-4.736c0.295-2.486,0.6-4.972,0.897-7.458
		c0.184-1.54,0.358-3.082,0.543-4.622c0.302-2.523,0.62-5.044,0.913-7.568c0.27-2.33,0.499-4.664,0.775-6.992
		c0.281-2.367,0.609-4.729,0.897-7.096c0.196-1.618,0.355-3.24,0.537-4.86c0.186-1.659,0.375-3.318,0.57-4.976
		c0.205-1.736,0.416-3.472,0.629-5.208c0.208-1.695,0.427-3.388,0.63-5.083c0.198-1.658,0.375-3.318,0.571-4.976
		c0.201-1.696,0.416-3.392,0.621-5.088c0.195-1.617,0.384-3.234,0.578-4.851c0.218-1.814,0.445-3.627,0.659-5.441
		c0.265-2.251,0.512-4.504,0.78-6.755c0.291-2.445,0.6-4.889,0.893-7.334c0.189-1.579,0.361-3.159,0.548-4.738
		c0.21-1.775,0.435-3.55,0.642-5.326c0.194-1.657,0.372-3.317,0.562-4.976c0.244-2.133,0.472-4.268,0.752-6.396
		c0.101-0.77,0.829-1.228,1.699-1.172c3.583,0.228,7.167,0.456,10.751,0.665c3.783,0.22,7.564,0.472,11.346,0.714
		c3.82,0.245,7.641,0.477,11.461,0.722c3.821,0.245,7.642,0.492,11.463,0.722c3.821,0.23,7.641,0.495,11.463,0.724
		c3.782,0.227,7.563,0.476,11.345,0.713c3.821,0.239,7.644,0.474,11.464,0.722c3.781,0.245,7.562,0.471,11.343,0.717
		c3.821,0.249,7.642,0.484,11.464,0.723c3.861,0.241,7.722,0.49,11.583,0.727c3.741,0.229,7.482,0.473,11.224,0.709
		c3.861,0.244,7.723,0.481,11.583,0.729c3.741,0.24,7.481,0.47,11.222,0.708c3.861,0.247,7.722,0.493,11.583,0.726
		c3.822,0.231,7.642,0.493,11.464,0.725c3.781,0.229,7.562,0.474,11.343,0.715c3.781,0.241,7.562,0.469,11.345,0.717
		c3.86,0.254,7.722,0.5,11.583,0.728c2.51,0.148,5.018,0.317,7.523,0.475c3.822,0.24,7.644,0.482,11.464,0.723
		c3.782,0.238,7.562,0.475,11.345,0.717c3.821,0.245,7.643,0.481,11.463,0.723c3.821,0.241,7.643,0.491,11.465,0.72
		c3.821,0.229,7.643,0.483,11.465,0.72c3.78,0.234,7.562,0.476,11.344,0.717c3.818,0.244,7.64,0.489,11.461,0.721
		c2.508,0.152,5.016,0.314,7.523,0.478c3.859,0.251,7.723,0.485,11.584,0.729c3.701,0.234,7.406,0.433,11.104,0.716
		c3.062,0.234,6.13,0.36,9.189,0.613c1.704,0.141,3.427,0.214,5.138,0.325c3.342,0.215,6.689,0.326,10.024,0.657
		c1.35,0.134,2.713,0.176,4.062,0.228c1.915,0.073,3.82,0.265,5.735,0.337c3.066,0.115,6.125,0.424,9.188,0.643
		c1.353,0.097,2.713,0.169,4.061,0.222c3.231,0.126,6.454,0.383,9.679,0.584c3.103,0.193,6.214,0.289,9.309,0.638
		c1.305,0.147,2.632,0.175,3.942,0.224c3.23,0.12,6.449,0.409,9.678,0.572c3.943,0.199,7.881,0.509,11.825,0.731
		c2.388,0.135,4.78,0.255,7.163,0.466c3.06,0.27,6.131,0.34,9.189,0.628c1.543,0.146,3.105,0.185,4.659,0.282
		c3.502,0.22,7.003,0.469,10.506,0.659c2.228,0.12,4.451,0.461,6.692,0.299C528.24,86.16,528.24,86.88,528.24,87.6z"/>
	<path d="M428.721,301.416c0.654,0.093,1.271,0.072,1.878-0.199c2.823-1.266,5.449-2.816,7.606-5.082
		c2.066-2.17,3.294-4.688,3.704-7.695c0.313-2.305-0.095-4.522-0.24-6.778c-0.069-1.075-0.282-2.12-0.531-3.162
		c-0.102-0.427-0.243-0.833-0.447-1.222c-0.51-0.963-1.039-1.127-1.896-0.471c-0.956,0.731-1.709,1.663-2.364,2.674
		c-0.412,0.638-0.732,1.315-1.039,2.004c-0.097,0.218-0.188,0.438-0.281,0.654c-0.225,0.512-0.628,0.771-1.149,0.576
		c-0.535-0.199-0.788-0.604-0.581-1.234c0.883-2.69,2.355-4.971,4.737-6.549c1.646-1.093,3.21-0.599,4.19,1.165
		c0.648,1.165,0.967,2.451,1.15,3.732c0.296,2.044,0.493,4.102,0.548,6.178c0.155,5.822-2.353,10.269-6.889,13.706
		c-1.713,1.298-3.58,2.34-5.539,3.227c-0.662,0.301-1.357,0.529-2.053,0.584c-1.633,0.127-2.924-0.797-3.271-2.777
		c-0.153-0.875-0.009-1.752,0.011-2.628c0.004-0.154,0.059-0.313,0.114-0.46c0.264-0.687,0.728-0.988,1.26-0.779
		c0.561,0.221,0.785,0.678,0.62,1.25c-0.173,0.594-0.078,1.191-0.117,1.785C428.107,300.455,428.241,300.938,428.721,301.416z"/>
</g>
</svg>
