<?xml version="1.0" encoding="utf-8"?>
<!-- Generator: Adobe Illustrator 16.2.1, SVG Export Plug-In . SVG Version: 6.00 Build 0)  -->
<!DOCTYPE svg PUBLIC "-//W3C//DTD SVG 1.1//EN" "http://www.w3.org/Graphics/SVG/1.1/DTD/svg11.dtd">
<svg version="1.1" id="RS_x5F_straps11b_xA0_Image_1_"
	 xmlns="http://www.w3.org/2000/svg" xmlns:xlink="http://www.w3.org/1999/xlink" x="0px" y="0px" width="528px" height="396px"
	 viewBox="0 0 528 396" enable-background="new 0 0 528 396" xml:space="preserve">
<g>
	<path d="M34.8,396.24c0.007-6.798,0.021-13.598,0.02-20.396c-0.002-35.592,0-71.185-0.02-106.776
		c-0.005-10.596-0.071-21.189-0.114-31.785c-0.157-39.027-0.092-78.056-0.115-117.084c-0.014-22.915-0.02-45.829-0.057-68.743
		c-0.027-16.792-0.101-33.585-0.156-50.378C34.357,0.799,34.333,0.52,34.32,0.24c0.72,0,1.44,0,2.16,0
		c-0.007,8.117-0.021,16.235-0.02,24.353c0.001,32.072-0.01,64.145,0.019,96.217c0.014,15.034,0.142,30.068,0.16,45.102
		c0.042,35.591,0.048,71.182,0.07,106.771c0.013,21.314,0.022,42.63,0.045,63.943c0.009,8.955,0.047,17.911,0.074,26.866
		c0.034,10.836,0.07,21.672,0.106,32.508c0,0.079,0.018,0.159,0.027,0.239C36.24,396.24,35.52,396.24,34.8,396.24z"/>
	<path d="M421.103,212.699c0.133,0.467,0.243,0.808,0.322,1.154c0.447,1.979,1.586,2.621,3.526,2.008
		c0.499-0.158,0.985-0.346,1.41-0.631c2.048-1.373,4.233-2.543,6.063-4.238c1.978-1.831,3.105-3.993,2.96-6.747
		c-0.068-1.312,0.081-2.629-0.252-3.929c-0.748-2.914-1.787-3.578-4.632-2.205c-1.824,0.882-3.462,2.156-4.429,4.065
		c-0.049,0.095-0.132,0.173-0.215,0.28c-0.492-0.598-0.167-1.21,0.033-1.703c1.229-3.007,3.549-4.759,6.694-5.307
		c1.281-0.223,2.407,0.419,3.194,1.508c0.713,0.987,1.062,2.107,1.307,3.293c0.441,2.141,0.482,4.286,0.111,6.415
		c-0.298,1.709-1.104,3.245-2.272,4.54c-2.816,3.125-6.347,5.152-10.287,6.499c-1.325,0.452-2.671,0.052-3.351-0.868
		C420.381,215.605,420.276,214.057,421.103,212.699z"/>
	<path d="M452.409,238.37c1.004-3.19,2.419-6.147,4.915-8.456c2.786-2.575,5.614-5.104,8.436-7.641
		c2.111-1.896,4.189-3.828,5.997-6.023c3.858-4.688,5.475-10.232,6.047-16.143c0.324-3.342,0.246-6.686-0.186-10.031
		c-0.407-3.165-1.111-6.244-2.219-9.225c-2.2-5.922-5.767-10.868-10.711-14.819c-3.904-3.119-8.362-5.177-12.999-6.912
		c-4.332-1.621-8.799-2.705-13.403-3.058c-3.626-0.278-7.247,0.001-10.79,0.915c-4.936,1.271-9.562,3.269-13.641,6.329
		c-5.304,3.978-9.133,9.196-12.086,15.084c-0.887,1.77-1.341,3.641-1.226,5.638c0.042,0.714,0.096,1.434-0.038,2.184
		c-1.731,1.447-3.486,2.892-5.217,4.366c-1.521,1.295-3.145,2.455-4.705,3.697c-2.566,2.045-2.738,4.635-0.507,6.997
		c0.577,0.609,1.207,1.168,1.788,1.773c0.812,0.85,0.804,1.053,0.006,1.857c-0.141,0.144-0.28,0.287-0.432,0.416
		c-0.963,0.828-1.158,1.859-0.812,3.035c0.154,0.525,0.32,1.049,0.496,1.621c-0.967,0.656-1.107,1.629-1.107,2.654
		c-0.002,1.04-0.076,2.086,0.014,3.118c0.129,1.487-0.329,2.708-1.27,3.847c-0.979,1.186-1.197,2.631-0.766,4.067
		c1.179,3.92,3.527,6.798,7.518,8.179c1.985,0.688,3.953,1.436,5.896,2.239c1.384,0.573,1.747,1.44,1.482,2.88
		c-0.278,1.523-0.678,3.016-1.133,4.49c-1.053,3.408-2.003,6.839-2.68,10.349c-0.255,1.319-0.256,2.69-0.751,4.007
		c-0.31-0.143-0.601-0.265-0.88-0.408c-2.796-1.433-5.655-2.727-8.521-4.015c-7.906-3.558-16.178-5.405-24.857-5.373
		c-1.358,0.007-2.685-0.327-3.99-0.256c-0.398-0.733-0.301-1.428-0.311-2.099c-0.086-5.719,0.058-11.438-0.174-17.155
		c-0.264-6.554,0.014-13.115-0.255-19.673c-0.26-6.393-0.007-12.794-0.246-19.192c-0.245-6.553-0.006-13.115-0.258-19.673
		c-0.22-5.713,0.042-11.436-0.194-17.154c-0.272-6.554,0.014-13.116-0.258-19.674c-0.266-6.433-0.001-12.874-0.246-19.312
		c-0.25-6.512-0.158-13.035-0.23-19.552c-0.116-10.357-0.24-20.715-0.383-31.071c-0.131-9.396-0.078-18.794-0.396-28.188
		c-0.107-3.196-0.021-6.399-0.039-9.599c-0.008-1.401-0.273-1.755-1.607-2.077c-5.465-1.319-10.934-2.621-16.4-3.929
		c-7.164-1.714-14.327-3.438-21.494-5.139c-8.633-2.05-17.271-4.083-25.906-6.121c-6.318-1.492-12.644-2.956-18.951-4.491
		c-1.797-0.438-3.646-0.698-5.369-1.415c-2.879,0-5.759,0-8.639,0c0.095,0.066,0.181,0.17,0.286,0.195
		c3.24,0.754,6.486,1.48,9.721,2.251c8.588,2.046,17.168,4.126,25.756,6.166c8.939,2.123,17.891,4.206,26.832,6.323
		c9.674,2.291,19.343,4.599,29.013,6.903c1.534,0.366,3.063,0.755,4.628,1.141c0.057,1.205,0.118,2.318,0.161,3.433
		c0.251,6.516-0.029,13.037,0.248,19.554c0.274,6.433-0.013,12.875,0.249,19.312c0.263,6.473,0.115,12.955,0.229,19.433
		c0.152,8.675,0.277,17.353,0.332,26.031c0.023,3.599,0.002,7.197,0.146,10.796c0.263,6.514-0.014,13.036,0.253,19.553
		c0.264,6.473,0.008,12.955,0.252,19.433c0.243,6.473,0.008,12.955,0.255,19.434c0.219,5.753-0.045,11.516,0.197,17.273
		c0.271,6.473,0.007,12.955,0.238,19.434c0.174,4.914,0.041,9.838,0.135,14.756c0.076,4.117,0.26,8.232,0.195,12.354
		c-0.006,0.336,0.118,0.709-0.162,1.014c-0.488,0.041-0.845-0.235-1.225-0.436c-1.52-0.796-2.954-1.73-4.339-2.738
		c-3.509-2.556-7.009-5.125-10.502-7.699c-1.636-1.206-3.403-2.209-5.114-3.299c-0.02-0.316-0.049-0.595-0.051-0.871
		c-0.069-9.918-0.161-19.834-0.199-29.752c-0.109-28.195,0.042-56.392-0.193-84.587c-0.158-18.957-0.062-37.916-0.082-56.874
		c-0.002-2.32,0.011-4.64-0.008-6.959c-0.011-1.376-0.449-1.908-1.724-2.123c-2.503-0.423-5.011-0.825-7.515-1.239
		c-2.813-0.466-5.627-0.94-8.441-1.404c-2.546-0.419-5.094-0.821-7.639-1.246c-2.696-0.451-5.389-0.929-8.084-1.38
		c-2.739-0.458-5.481-0.898-8.223-1.348c-2.621-0.431-5.24-0.867-7.859-1.295c-2.701-0.442-5.403-0.873-8.104-1.317
		c-3.129-0.515-6.257-1.042-9.386-1.56c-2.74-0.454-5.48-0.902-8.22-1.354c-2.582-0.427-5.163-0.859-7.745-1.285
		c-2.779-0.458-5.557-0.918-8.337-1.368c-3.17-0.514-6.343-1.013-9.514-1.525c-2.584-0.418-5.167-0.841-7.749-1.271
		c-3.167-0.528-6.331-1.078-9.499-1.598c-3.129-0.513-6.266-0.985-9.395-1.501c-3.17-0.523-6.333-1.092-9.503-1.615
		c-3.168-0.522-6.343-1.002-9.512-1.518c-3.249-0.528-6.496-1.072-9.743-1.616c-2.659-0.445-5.315-0.904-7.974-1.346
		c-2.622-0.436-5.246-0.858-7.87-1.285c-2.7-0.439-5.401-0.871-8.1-1.317c-2.622-0.433-5.241-0.885-7.863-1.32
		c-2.776-0.46-5.554-0.909-8.331-1.366c-3.053-0.503-6.104-1.012-9.157-1.514c-2.777-0.457-5.554-0.912-8.332-1.363
		c-2.663-0.433-5.327-0.855-7.989-1.29c-2.662-0.435-5.322-0.878-7.982-1.321c-3.089-0.514-6.175-1.04-9.266-1.543
		c-2.703-0.44-5.411-0.847-8.113-1.285c-3.247-0.527-6.492-1.068-9.736-1.611C77.675,7.454,76.285,7.2,74.88,6.953
		c0-2.319,0-4.516,0-6.712c-0.72,0-1.44,0-2.16,0c0.014,0.279,0.039,0.558,0.041,0.837c0.065,9.396,0.167,18.792,0.186,28.188
		c0.073,34.35,0.043,68.699,0.224,103.048c0.18,34.069,0.038,68.141,0.245,102.211c0.187,30.631-0.058,61.263,0.208,91.895
		c0.128,14.715,0.057,29.433,0.067,44.148c0.006,8.558-0.007,17.114-0.011,25.673c0.72,0,1.44,0,2.16,0
		c-0.014-0.28-0.038-0.561-0.04-0.839c-0.07-10.678-0.183-21.354-0.198-32.031c-0.047-33.594,0.007-67.188-0.221-100.783
		c-0.135-19.877-0.056-39.756-0.042-59.634c0.013-19.637-0.263-39.271-0.242-58.909c0.027-24.636,0.051-49.273-0.136-73.909
		c-0.107-14.038-0.068-28.077-0.087-42.115c0-0.375-0.14-0.793,0.248-1.198c8.481,1.615,17.005,3.221,25.521,4.866
		c8.534,1.648,17.061,3.336,25.597,5.008c-0.104,0.438-0.216,0.673-0.205,0.902c0.097,2.003-0.258,3.983-0.298,5.982
		c-0.034,1.672-0.166,3.347-0.252,5.021c-0.181,3.507-0.508,7.008-0.64,10.516c-0.078,2.076-0.251,4.146-0.33,6.221
		c-0.056,1.471-0.068,2.958-0.22,4.424c-0.354,3.417-0.417,6.853-0.624,10.277c-0.135,2.228-0.276,4.464-0.351,6.7
		c-0.052,1.55-0.07,3.116-0.225,4.662c-0.357,3.578-0.416,7.173-0.632,10.757c-0.136,2.268-0.279,4.543-0.345,6.82
		c-0.047,1.591-0.074,3.197-0.221,4.784c-0.366,3.979-0.501,7.974-0.625,11.959c-0.221,7.113-0.186,14.234-0.236,21.353
		c-0.076,10.637,0.146,21.273,0.169,31.91c0.063,28.717-0.09,57.434,0.167,86.149c0.156,17.396-0.106,34.796,0.328,52.189
		c0.113,4.514,0.306,9.023,0.479,13.536c0.145,3.794,0.393,7.584,0.451,11.379c0.049,3.197,0.246,6.39,0.342,9.585
		c0.064,2.153,0.05,4.316,0.213,6.468c0.358,4.742,0.401,9.498,0.62,14.245c0.142,3.07,0.266,6.147,0.36,9.224
		c0.062,2.031,0.116,4.071,0.231,6.105c0.158,2.789,0.274,5.582,0.408,8.373c0.72,0,1.44,0,2.16,0
		c-0.173-0.413-0.239-0.855-0.226-1.291c0.077-2.521-0.236-5.025-0.302-7.542c-0.125-4.79-0.434-9.574-0.648-14.361
		c-0.094-2.115-0.156-4.233-0.216-6.348c-0.083-2.875-0.301-5.745-0.313-8.624c-0.011-2.598-0.307-5.188-0.26-7.786
		c0.007-0.396-0.11-0.794,0.071-1.243c0.787-0.196,1.602-0.146,2.583-0.021c0.374,15.757-0.11,31.485-0.209,47.217
		c0.64,0,1.28,0,1.92,0c0.468-15.77,0.53-31.541,0.447-47.521c4.021,0.067,7.949-0.165,11.949-0.275
		c0.269,1.322,0.307,2.582,0.337,3.846c0.167,6.987,0.295,13.976,0.538,20.961c0.257,7.383,0.481,14.767,0.661,22.151
		c0.007,0.278-0.008,0.56-0.013,0.839c0.72,0,1.44,0,2.16,0c-0.08-0.915-0.246-1.832-0.225-2.745
		c0.091-4.042-0.248-8.071-0.295-12.109c-0.058-4.875-0.345-9.747-0.435-14.622c-0.073-3.917-0.369-7.828-0.299-11.749
		c0.007-0.396-0.043-0.798-0.085-1.194c-0.219-2.074-0.068-4.151-0.114-6.228c0.576-0.403,0.988-0.854,0.963-1.585
		c-0.047-1.399,0.148-2.794,0.196-4.188c0.129-3.793,0.328-7.582,0.482-11.373c0.177-4.353,0.37-8.706,0.465-13.06
		c0.134-6.114,0.431-12.229,0.299-18.35c-0.039-1.798-0.173-3.589-0.522-5.341c-0.38-1.903-0.988-3.747-3.363-4.103
		c-0.056-0.943-0.155-1.818-0.151-2.691c0.033-7.68-0.236-15.354-0.288-23.033c-0.021-3.199-0.018-6.396-0.155-9.596
		c-0.249-5.795-0.125-11.596-0.234-17.394c-0.147-7.796-0.317-15.593-0.333-23.392c-0.006-2.999-0.02-5.997-0.15-8.995
		c-0.252-5.794,0-11.595-0.257-17.393c-0.176-3.992,0.007-8-0.114-11.996c-0.145-4.798-0.217-9.595-0.199-14.394
		c0.001-0.35-0.101-0.721,0.154-1.086c0.208-0.018,0.445-0.021,0.676-0.06c2.807-0.47,3.982-1.881,3.952-4.739
		c-0.002-0.24-0.007-0.48-0.026-0.719c-0.231-2.874-0.144-5.755-0.211-8.633c-0.122-5.195-0.392-10.387-0.434-15.582
		c-0.033-4.04-0.379-8.068-0.289-12.109c0.026-1.162-0.555-1.719-1.743-1.846c-0.354-0.038-0.729,0.031-1.178-0.459
		c0.15-25.067,0.302-50.321,0.456-75.76c51.148,9.896,102.069,19.749,152.954,29.595c0.39,27.074,0.242,53.927,0.291,80.765
		c-0.336,0.052-0.379-0.145-0.453-0.264c-1.883-3.059-3.422-6.27-4.394-9.746c-0.69-2.475-1.194-5.001-2.09-7.422
		c-0.58-1.569-1.29-2.987-2.968-3.66c0.206-0.829-0.336-1.528-0.16-2.316c0.325-0.23,0.695-0.344,1.074-0.465
		c1.852-0.591,3.693-1.214,5.545-1.807c0.646-0.207,1.171-0.493,1.219-1.142c-0.132-0.736-0.602-1.037-1.105-1.298
		c-3.426-1.774-6.864-3.529-10.276-5.33c-0.951-0.502-1.849-0.544-2.87-0.244c-2.888,0.847-5.796,1.622-8.695,2.425
		c-3.474,0.962-6.946,1.925-10.418,2.887c-0.491,0.136-0.878,0.378-0.963,0.932c-0.087,0.567,0.25,0.905,0.68,1.144
		c0.588,0.325,1.21,0.587,1.806,0.899c1.186,0.621,2.446,1.109,3.586,1.881c0.075,1.591,0.146,3.147,0.228,4.703
		c0.026,0.503-0.119,0.917-0.433,1.322c-1.848,2.378-2.078,4.9-0.642,7.568c0.204,0.378,0.519,0.71,0.577,1.184
		c-0.434,0.751-0.879,1.505-1.307,2.268c-1.234,2.201-1.702,4.529-1.15,7.023c0.147,0.666-0.097,1.274-0.373,1.838
		c-0.332,0.679-0.768,1.308-1.32,1.84c-1.083,1.045-1.355,2.356-1.031,3.744c0.409,1.751,0.411,3.49-0.112,5.173
		c-0.661,2.127-0.088,3.821,1.442,5.305c0.287,0.278,0.542,0.591,0.843,0.853c1.382,1.2,2.776,2.388,4.195,3.605
		c0.248,1.105,0.256,2.266,0.266,3.424c0.025,3.12,0.018,6.24,0.065,9.358c0.146,9.473,0.504,18.943,0.204,28.42
		c-0.17,5.396,0.035,10.793,0.244,16.188c0.014,0.357,0.109,0.71,0.146,1.066c0.032,0.307,0.162,0.631-0.172,1
		c-0.629-0.047-1.354-0.008-2.026-0.174c-0.796-0.197-1.223,0.182-1.564,0.752c-0.2,0.336-0.364,0.728-0.414,1.11
		c-0.21,1.616-0.436,3.235-0.536,4.86c-0.14,2.271-0.212,4.547-0.322,6.817c-0.215,4.435-0.277,8.869-0.396,13.304
		c-0.115,4.316,0.009,8.638-0.155,12.955c-0.11,2.916-0.082,5.838-0.087,8.758c-0.002,1.22,0.516,1.798,1.695,1.877
		c0.835,0.058,1.673,0.177,2.482,0.313c0.966,0.164,2.009-0.045,2.902,0.458c0.176,0.416,0.11,0.82,0.106,1.215
		c-0.037,3.56-0.086,7.116-0.158,10.676c-0.209,10.272-0.319,20.55-0.551,30.822c-0.106,4.838-0.006,9.677-0.18,14.517
		c-0.244,6.834-0.145,13.675-0.225,20.513c-0.139,11.677-0.309,23.354-0.348,35.031c0.721,0,1.44,0,2.16,0
		c-0.003-5.599-0.056-11.196,0-16.793c0.151-15.194,0.328-30.389,0.534-45.581c0.129-9.477,0.267-18.951,0.455-28.425
		c0.14-6.996,0.112-13.994,0.431-20.985c0.01-0.233-0.033-0.483,0.182-0.749c4.262,0.492,8.562,0.988,12.809,1.479
		c0.346,0.35,0.237,0.728,0.258,1.074c0.28,4.914,0.157,9.834,0.266,14.75c0.232,10.554,0.317,21.108,0.529,31.661
		c0.117,5.838,0.074,11.676,0.191,17.513c0.254,12.594,0.373,25.188,0.506,37.781c0.029,2.759,0.208,5.516,0.161,8.275
		c0.64,0,1.28,0,1.92,0c-0.062-6.315,0.058-12.632-0.188-18.947c-0.133-3.431-0.022-6.87-0.022-10.303
		c0.272-0.11,0.338,0.105,0.456,0.25c1.536,1.859,3.501,2.842,5.923,2.817c0.575-0.006,0.999,0.173,1.354,0.598
		c0.154,0.184,0.306,0.397,0.508,0.506c0.802,0.425,0.877,1.117,0.875,1.928c-0.02,6.237-0.006,12.477-0.006,18.714
		c0,1.479-0.014,2.958-0.021,4.438c0.72,0,1.44,0,2.16,0c-0.039-3.157-0.083-6.313-0.117-9.472
		c-0.04-3.597-0.075-7.192-0.102-10.791c-0.003-0.422-0.082-0.864,0.226-1.486c1.045,1.188,2.003,2.268,2.946,3.356
		c1.071,1.239,1.614,2.706,1.873,4.309c0.335,2.078,1.504,2.789,3.791,2.687c0.397-0.018,0.791-0.11,1.188-0.125
		c0.635-0.021,1.271-0.006,1.953-0.006c0,3.879,0,7.703,0,11.528c0.721,0,1.44,0,2.16,0c0-3.946,0-7.894,0-11.867
		c1.786-0.418,3.492-0.735,5.084-1.485c1.652-0.777,2.846-1.981,3.787-3.512c0.922-1.499,1.691-3.082,2.307-4.713
		c1.488-3.955,4.566-6.073,8.305-7.468c1.021-0.381,2.054-0.841,3.317-0.675c0,9.922,0,19.819,0,29.72c0.72,0,1.44,0,2.16,0
		c-0.058-3.356-0.142-6.712-0.166-10.067c-0.045-6.356-0.056-12.715-0.08-19.071c-0.001-0.236,0-0.475,0-0.775
		c0.505-0.223,1.005-0.283,1.519-0.291c1.119-0.017,2.238-0.043,3.357-0.042c3.277,0.003,6.545-0.181,9.809-0.458
		c1.228-0.104,2.47,0.084,3.584-0.219c0.35,0.206,0.39,0.427,0.375,0.682c-0.133,2.63-0.168,5.271-0.414,7.889
		c-0.314,3.34-0.312,6.693-0.646,10.029c-0.167,1.665-0.154,3.352-0.217,5.022c-0.09,2.435-0.312,4.864-0.318,7.303
		c0.641,0,1.279,0,1.92,0c0.155-0.827,0.229-1.661,0.225-2.504c-0.016-4.156,0.357-8.298,0.529-12.447
		c0.166-4.021,0.427-8.047,0.709-12.064c0.498-7.072,0.332-14.146,0.144-21.215c-0.092-3.435-0.038-6.877-0.237-10.3
		c-0.137-2.355-0.147-4.704-0.166-7.055c-0.067-9.064,1.971-17.634,6.131-25.694c0.762-1.477,1.543-2.938,2.521-4.234
		c0.609,0,0.786,0.484,1.127,0.677c0.268,0.901-0.094,1.721-0.216,2.521c-0.578,3.794,0.202,7.361,1.64,10.823
		c1.832,4.418,4.85,7.952,8.534,10.917c6.606,5.314,14.099,8.841,22.329,10.835c3.463,0.839,6.977,1.31,10.527,1.135
		c7.455-0.365,14.164-2.798,19.809-7.768c6.091-5.362,10.044-12.065,12.063-19.913c1.018-3.953,1.505-7.986,1.405-12.057
		c-0.205-8.439-2.107-16.453-6.556-23.717c-2.161-3.529-4.79-6.694-8.36-8.918c-2.564-1.597-5.391-2.395-8.407-2.735
		c-2.419-0.272-4.781-0.121-7.136,0.307c-1.277,0.231-2.211-0.2-3.247-1.062c1.335-0.602,2.666-0.756,3.928-1.127
		c3.045-0.899,6.152-1.528,9.307-1.869c2.43-0.264,4.847,0.004,7.238,0.523c3.373,0.73,6.611,1.922,9.934,2.834
		c2.079,0.571,4.193,0.86,6.32,1.096c0.996,0.111,1.993-0.102,2.944-0.379c2.733-0.803,3.584-2.998,3.068-5.627
		c-0.147-0.76-0.38-1.506-0.617-2.433c2.016,1.138,3.565,2.55,5,4.089c4.455,4.779,7.243,10.52,9.435,16.586
		c1.715,4.745,2.984,9.618,3.791,14.598c0.438,2.705,0.616,5.449,0.858,8.183c0.277,3.134,0.111,6.241-0.129,9.335
		c-0.378,4.867-1.263,9.673-2.674,14.358c-3.248,10.782-7.05,21.374-11.077,31.888c-2.258,5.896-4.888,11.634-7.312,17.459
		c-3.383,8.126-6.667,16.292-9.424,24.658c-0.036,0.108-0.133,0.199-0.199,0.298c0.72,0,1.438,0,2.159,0
		c0.197-0.603,0.385-1.209,0.595-1.807c2.793-7.938,5.838-15.775,9.148-23.508c2.893-6.751,5.82-13.483,8.378-20.371
		c3.423-9.213,6.717-18.467,9.551-27.881c1.68-5.581,2.659-11.286,2.98-17.083c0.217-3.9,0.097-7.814-0.376-11.72
		c-0.406-3.356-0.946-6.679-1.734-9.962c-1.524-6.344-3.601-12.491-6.738-18.232c-1.666-3.05-3.643-5.888-6.078-8.399
		c-2.021-2.083-4.248-3.867-6.845-5.16c-0.734-0.366-1.143-0.875-1.114-1.664c0.022-0.674,0.123-1.351,0.251-2.013
		C450.281,245.011,451.363,241.695,452.409,238.37z M103.749,28.639c-2.007-0.278-4.019-0.518-6.027-0.788
		c-2.084-0.28-4.166-0.582-6.25-0.865c-2.046-0.277-4.096-0.53-6.141-0.817c-2.592-0.363-5.181-0.753-7.772-1.124
		c-0.86-0.123-1.724-0.223-2.641-0.34c0-5.17,0-10.316,0-15.689c14.447,2.3,28.81,4.728,43.186,7.067
		c14.361,2.336,28.708,4.758,43.066,7.117c14.401,2.366,28.811,4.683,43.211,7.054c14.4,2.371,28.791,4.797,43.191,7.168
		c14.358,2.364,28.725,4.677,43.084,7.036c14.387,2.364,28.769,4.757,43.275,7.157c0.131,59.423,0.4,118.72,0.422,178.102
		c-1.32-0.29-2.369-0.874-3.484-1.259c-1.801-0.618-3.605-1.21-5.461-1.634c-0.725-0.165-1.014-0.555-1.217-1.247
		c-2.037-6.886-4.332-13.681-7.166-20.284c-1.239-2.891-2.504-5.77-4.084-8.496c-0.396-0.682-0.482-1.406-0.48-2.179
		c0.028-11.918,0.035-23.836,0.141-35.755c0.203-23.317,0.067-46.637,0.117-69.956c0.021-9.758,0.137-19.516,0.209-29.274
		c0.004-0.36,0.029-0.724-0.014-1.079c-0.126-1.029-0.66-1.522-1.693-1.667c-3.893-0.545-7.781-1.118-11.677-1.646
		c-3.226-0.438-6.461-0.806-9.687-1.243c-3.187-0.432-6.362-0.926-9.547-1.367c-2.045-0.284-4.1-0.507-6.146-0.784
		c-2.636-0.356-5.267-0.745-7.899-1.109c-2.007-0.277-4.015-0.536-6.021-0.809c-2.163-0.295-4.323-0.606-6.486-0.893
		c-2.047-0.272-4.1-0.51-6.146-0.788c-2.046-0.277-4.087-0.595-6.132-0.876c-2.006-0.277-4.017-0.527-6.023-0.797
		c-2.084-0.282-4.167-0.578-6.251-0.861c-2.046-0.278-4.095-0.54-6.141-0.822c-2.673-0.367-5.344-0.752-8.018-1.12
		c-2.006-0.275-4.016-0.529-6.023-0.801c-2.124-0.288-4.245-0.591-6.37-0.876c-2.048-0.275-4.098-0.533-6.146-0.804
		c-2.009-0.266-4.017-0.532-6.024-0.809c-2.045-0.282-4.087-0.58-6.132-0.865c-2.123-0.295-4.247-0.585-6.372-0.871
		c-2.047-0.275-4.095-0.539-6.142-0.816c-2.084-0.282-4.167-0.579-6.251-0.862c-2.046-0.277-4.095-0.539-6.141-0.817
		c-2.084-0.284-4.166-0.588-6.25-0.872c-2.046-0.277-4.095-0.536-6.142-0.81c-2.007-0.268-4.014-0.542-6.021-0.817
		c-2.086-0.285-4.171-0.574-6.257-0.861c-2.083-0.287-4.167-0.576-6.251-0.86c-2.006-0.274-4.014-0.539-6.02-0.816
		c-2.162-0.299-4.32-0.621-6.484-0.909c-2.046-0.273-4.099-0.499-6.146-0.777C107.832,29.251,105.793,28.921,103.749,28.639z
		 M123.833,115.572c0.158-4.07,0.356-8.138,0.648-12.201c0.12-1.673,0.14-3.351,0.25-5.027c0.245-3.705,0.34-7.419,0.548-11.127
		c0.277-4.943,0.62-9.882,0.902-14.825c0.203-3.548,0.335-7.1,0.532-10.648c0.199-3.587,0.441-7.172,0.657-10.759
		c0.105-1.753,0.193-3.508,0.292-5.262c0.152-2.709,0.307-5.417,0.456-8.029c0.284-0.365,0.617-0.34,0.843-0.258
		c1.169,0.424,2.407,0.489,3.612,0.681c1.595,0.255,3.153,0.8,4.792,0.738c0.9-0.034,1.738,0.082,2.622,0.721
		c-0.161,25.181-0.323,50.469-0.485,75.865c-1.31,0.027-2.382-0.011-3.458-0.097c-3.24-0.258-6.458-0.067-9.646,0.588
		c-0.858,0.176-1.64,0.573-2.436,0.916C123.745,116.368,123.818,115.962,123.833,115.572z M140.243,290.771
		c-1.247,0.117-2.546,0.227-3.843,0.363c-2.886,0.307-5.775,0.594-8.574,1.424c-1.504,0.444-2.345,0.98-2.305,3.082
		c0.104,5.519-0.184,11.031-0.407,16.547c-0.209,5.151-0.362,10.308-0.547,15.462c-0.021,0.581,0.011,1.179-0.38,1.725
		c-0.034-0.373-0.086-0.746-0.1-1.121c-0.289-8.473-0.446-16.946-0.541-25.425c-0.384-34.438-0.071-68.875-0.237-103.312
		c-0.005-1.146-0.026-2.295,0.176-3.697c0.037,0.819,0.084,1.377,0.083,1.936c-0.015,5.681,0.248,11.354,0.338,17.033
		c0.119,7.517,0.31,15.03,0.476,22.547c0.166,7.556,0.316,15.112,0.491,22.667c0.169,7.355,0.335,14.711,0.484,22.066
		c0.059,2.879,0.218,5.755,0.174,8.636c-0.012,0.767,0.242,1.317,1.037,1.563c0.839-0.189,1.146-0.763,1.091-1.582
		c-0.326-4.83-0.117-9.677-0.372-14.51c-0.05-0.958-0.08-1.918-0.091-2.877c-0.078-6.678-0.231-13.354-0.441-20.027
		c-0.125-3.957-0.174-7.916-0.224-11.873c-0.07-5.678-0.262-11.354-0.338-17.031c-0.123-9.195-0.439-18.389-0.647-27.582
		c-0.088-3.878-0.144-7.756-0.226-11.634c-0.172-8.156-0.304-16.313-0.52-24.468c-0.015-0.549-0.094-1.112,0.137-1.816
		c4.45,0.123,8.958-0.464,13.513,0.924c0.071,1.537,0.196,3.239,0.22,4.941c0.059,4.239-0.042,8.483,0.132,12.717
		c0.235,5.718,0.099,11.438,0.232,17.155c0.229,9.875,0.314,19.751,0.447,29.628c0.146,10.877,0.339,21.754,0.467,32.631
		c0.126,10.757,0.314,21.513,0.464,32.27C140.416,289.639,140.527,290.166,140.243,290.771z M284.646,65.299
		c-4.002-0.79-8.004-1.585-12.011-2.353c-4.36-0.836-8.729-1.625-13.088-2.467c-4.745-0.917-9.479-1.886-14.223-2.803
		c-4.785-0.924-9.58-1.795-14.365-2.72c-4.706-0.91-9.4-1.873-14.106-2.783c-5.214-1.009-10.438-1.969-15.652-2.979
		c-4.316-0.835-8.62-1.732-12.936-2.565c-5.215-1.006-10.442-1.954-15.656-2.964c-5.562-1.077-11.113-2.21-16.672-3.298
		c-4.627-0.904-9.26-1.785-13.894-2.656c-0.55-0.104-1.069-0.264-1.589-0.456c-1.013-0.373-2.062-0.481-3.143-0.564
		c-1.49-0.115-2.962-0.48-4.438-0.762c-3.578-0.684-7.152-1.383-10.729-2.072c-2.141-0.412-4.284-0.817-6.425-1.225
		c-0.171-0.033-0.269-0.108-0.192-0.288c-0.007-0.001-0.015-0.002-0.022-0.002c-0.011-0.003-0.023-0.007-0.034-0.011
		c-0.364,0.062-0.732,0.132-1.181-0.024c0.453-0.273,0.817-0.08,1.181,0.024c0.021-0.003,0.042-0.007,0.063-0.01
		c-0.004,0.009-0.003,0.015-0.007,0.023c2.408,0.207,4.793,0.588,7.184,0.935c2.043,0.297,4.097,0.519,6.144,0.794
		c2.046,0.276,4.088,0.583,6.133,0.865c2.006,0.277,4.016,0.538,6.023,0.812c2.123,0.29,4.244,0.591,6.368,0.878
		c2.007,0.272,4.016,0.531,6.023,0.799c2.046,0.272,4.093,0.543,6.139,0.823c2.046,0.279,4.09,0.568,6.135,0.854
		c2.752,0.384,5.504,0.773,8.258,1.148c1.968,0.268,3.939,0.51,5.907,0.777c2.162,0.293,4.321,0.612,6.483,0.9
		c2.048,0.273,4.101,0.51,6.148,0.786c2.045,0.276,4.085,0.594,6.13,0.873c2.046,0.279,4.098,0.524,6.145,0.801
		c2.045,0.277,4.086,0.583,6.131,0.862c2.046,0.28,4.095,0.539,6.141,0.817c2.084,0.283,4.166,0.582,6.25,0.865
		c2.046,0.278,4.095,0.542,6.142,0.816c2.047,0.275,4.094,0.554,6.14,0.833c2.045,0.279,4.09,0.563,6.136,0.839
		c2.045,0.277,4.093,0.542,6.139,0.82c2.085,0.284,4.168,0.58,6.253,0.866c2.084,0.286,4.169,0.569,6.254,0.85
		c2.086,0.28,4.172,0.556,6.258,0.832c1.969,0.261,3.938,0.513,5.906,0.778c2.203,0.296,4.406,0.594,6.607,0.907
		c2.631,0.374,5.258,0.784,7.893,1.144c2.637,0.359,5.279,0.664,7.919,1.015c2.045,0.272,4.086,0.586,6.13,0.871
		c1.967,0.274,3.934,0.559,5.905,0.792c1.258,0.148,2.509,0.324,3.829,0.566c0.238,44.472-0.396,88.919-0.184,133.333
		c-0.512,0.119-0.531-0.211-0.644-0.387c-3.873-6.092-7.22-12.453-9.729-19.234c-1.244-3.362-1.873-6.857-2.432-10.391
		c-0.805-5.093-0.333-10.202-0.461-15.302c-0.109-4.395-0.139-8.795-0.045-13.189c0.045-2.111,0.02-4.224,0.017-6.332
		c-0.004-2.946-0.204-5.891-0.202-8.843c0.018-15.999,0-31.998-0.007-47.997c0-0.36,0.005-0.721-0.009-1.08
		c-0.051-1.271-0.419-1.738-1.723-2.004C291.796,66.709,288.221,66.005,284.646,65.299z M270.006,121.851
		c2.59-0.655,5.113-1.533,7.684-2.252c0.994-0.279,2.006-0.477,3.047-0.563c1.906-0.158,2.981,1.742,3.16,3.109
		c0.096,0.73-0.328,1.044-1.016,1.219c-2.97,0.758-5.932,1.548-8.888,2.358c-0.91,0.25-1.662,0.292-2.537-0.319
		c-0.963-0.67-2.21-0.876-3.261-1.457c-0.35-0.192-0.752-0.312-0.783-0.966C268.165,122.343,269.096,122.081,270.006,121.851z
		 M266.886,127.949c0.404-0.242,0.657,0.01,0.929,0.144c1.324,0.65,2.653,1.291,3.968,1.961c0.784,0.4,1.536,0.477,2.397,0.179
		c2.848-0.986,5.719-1.908,8.575-2.853c0.437,0.376,0.397,0.846,0.386,1.255c-0.043,1.355-0.111,2.712-0.229,4.063
		c-0.194,2.22-0.433,4.436-0.659,6.653c-0.1,0.975-0.216,1.949-0.352,3.156c-4.643-4.157-9.356-7.917-14.83-10.595
		C266.854,130.54,266.876,129.231,266.886,127.949z M268.76,232.709c-0.095-0.279-0.185-0.426-0.188-0.573
		c-0.123-5.274-0.68-10.545-0.444-15.819c0.313-7.077,0.236-14.153,0.071-21.228c-0.149-6.396-0.026-12.798-0.361-19.19
		c-0.017-0.314-0.066-0.64,0.071-0.963c0.55-0.143,0.88,0.313,1.249,0.544c1.398,0.871,2.859,1.61,4.433,2.067
		c2.351,0.684,3.796,2.192,4.587,4.469c1.242,3.581,2.053,7.272,2.879,10.96c1.157,5.164,2.123,10.37,3.461,15.495
		c0.252,0.967,0.369,1.945,0.39,2.952c0.14,7.075,0.313,14.151,0.456,21.228c0.01,0.498,0.191,0.923,0.438,1.507
		C280.05,233.742,274.436,233.3,268.76,232.709z M286.543,351.246c0-0.729,0.01-1.179-0.002-1.629
		c-0.202-7.716-0.117-15.438-0.348-23.149c-0.151-5.118,0.039-10.239-0.238-15.353c-0.094-1.718-0.15-3.438-0.123-5.156
		c0.107-6.4-0.365-12.792-0.249-19.191c0.007-0.396-0.056-0.795,0.052-1.119c0.153-0.2,0.314-0.207,0.471-0.239
		c1.09-0.222,1.367-0.504,1.392-1.582c0.071-3.313,0.364-6.614,0.532-9.922c0.209-4.104,0.488-8.205,0.716-12.31
		c0.147-2.67,0.3-5.341,0.471-8.008c0.265-4.142,0.479-8.285,0.751-12.425c0.104-1.592,0.1-3.19,0.277-4.781
		c0.134-1.198-0.502-1.835-1.739-1.896c-0.505-0.023-1.052,0.148-1.562-0.35c0.66-0.81,0.572-1.789,0.486-2.768
		c-0.322-3.674-0.062-7.355-0.207-11.033c-0.005-0.111,0.053-0.227,0.125-0.506c0.531,1.475,0.781,2.865,1.149,4.227
		c1.741,6.422,3.26,12.909,5.504,19.188c0.174,0.484,0.298,1.007,0.571,1.431c0.835,1.3,0.969,2.716,0.984,4.216
		c0.299,26.836,0.016,53.674,0.204,80.509c0.033,4.759,0.097,9.518,0.134,14.275c0.004,0.508,0.127,1.044-0.207,1.554
		c-0.317,0.182-0.687,0.307-1.074,0.392c-0.311,0.067-0.674,0.094-0.906,0.273c-1.516,1.177-3.458,1.571-4.962,2.764
		C287.925,349.307,287.383,350.188,286.543,351.246z M294.581,365.284c-0.735,0.798-0.99,1.784-1.285,2.851
		c-2.127-0.055-3.739-0.909-4.862-2.708c-0.961-1.538-1.218-3.284-1.357-5.014c-0.201-2.47-0.002-4.929,0.898-7.281
		c0.685-1.783,1.786-3.168,3.717-3.908c0.953,2.975,2.305,4.459,6.508,4.521c0.836,0.013,1.673,0.002,2.587,0.002
		c0.655,1.294,1.204,2.55,0.985,4.057c-0.104,0.726,0.09,1.479-0.08,2.225c-0.188,0.839-0.558,1.38-1.465,1.641
		C298.002,362.308,296.152,363.579,294.581,365.284z M297.236,370.32c-0.684-0.324-1.223-0.867-1.618-1.579
		c-0.274-0.496-0.243-0.973-0.017-1.478c0.467-1.037,1.14-1.924,2.012-2.633c1.177-0.957,2.445-1.743,3.973-2.077
		c0.584-0.129,1.104-0.065,1.639,0.081c0.785,0.217,1.08,0.689,0.971,1.513c-0.036,0.271-0.105,0.538-0.157,0.795
		C301.229,366.032,299.125,367.962,297.236,370.32z M355.415,363.229c-0.992,0.26-1.967,0.295-2.888,0.32
		c-1.838,0.053-3.663,0.257-5.5,0.312c-3.476,0.102-6.957,0.122-10.424,0.289c-4.664,0.226-8.821,1.922-12.289,5.156
		c-1.692,1.579-2.539,3.643-3.397,5.701c-0.521,1.245-0.969,2.519-1.467,3.771c-0.302,0.76-0.827,1.327-1.489,1.82
		c-1.812,1.353-3.884,1.863-6.074,2.255c-2.225,0.396-4.369-0.215-6.514-0.039c-0.381-0.431-0.518-0.768-0.564-1.12
		c-0.371-2.695-1.797-4.816-3.643-6.706c-0.949-0.973-1.859-1.969-2.487-3.19c-0.073-0.146-0.149-0.28-0.11-0.453
		c0.863-1.009,1.643-2.098,2.689-2.948c0.958-0.779,1.852-1.632,3.104-1.962c1.475-0.389,2.229-0.244,2.908,0.646
		c0.648,0.853,0.666,2.228,0.056,3.274c-0.564,0.966-1.376,1.69-2.39,2.096c-0.942,0.378-1.529,1.118-2.209,1.774
		c-0.354,0.345-0.416,0.788-0.207,1.216c0.229,0.472,0.651,0.528,1.114,0.369c0.933-2.119,2.751-3.361,4.567-4.567
		c1.023-0.681,1.76-0.577,2.533,0.069c0.76,0.635,1.072,1.889,0.701,2.845c-0.07,0.185-0.156,0.371-0.277,0.524
		c-1.385,1.776-3.084,3.197-4.902,4.496c0.271,0.316,0.66,0.354,1.068,0.017c2-1.652,3.92-1.007,5.826,0.219
		c0.306-0.101,0.604-0.198,0.967-0.316c-0.999-0.834-2.154-1.457-2.764-2.696c-0.009-0.407,0.368-0.627,0.616-0.923
		c1.802-2.153,0.58-4.964-1.106-6.022c-0.659-0.414-1.383-0.29-2.16-0.321c-0.161-1.576-0.752-2.917-2.088-3.843
		c-0.154-0.106-0.322-0.285-0.358-0.457c-0.346-1.636-1.521-2.542-2.907-3.271c0.098-0.988,0.463-1.878,0.547-2.831
		c0.06-0.658,0.777-0.938,1.314-1.341c1.243,1.494,2.102,3.281,3.828,4.269c0.18,0.103,0.445,0.225,0.732-0.114
		c-1.145-1.088-2.021-2.39-2.649-3.857c-0.188-0.439-0.413-0.864-0.484-1.345c-0.198-1.346-1.057-2.354-1.719-3.463
		c-2.865-0.416-5.642-1.172-8.521-1.28c-0.945-0.034-1.758-0.515-2.435-1.146c-1.267-1.181-0.938-3.104,0.616-3.896
		c0.545-0.274,1.145-0.415,1.724-0.452c3.901-0.26,7.806-0.798,11.714-0.469c2.25,0.189,4.576,0.632,6.484,1.861
		c1.922,1.237,3.812,1.365,5.913,0.947c5.131-1.022,10.278-1.953,15.345-3.294c3.372-0.893,6.667-2.015,9.982-3.074
		c3.017-0.964,6.027-1.945,9.188-2.967C355.338,347.189,355.588,355.181,355.415,363.229z M303.363,354.302
		c0.433,0.521,0.876,0.827,0.527,1.574C303.501,355.403,303.377,354.979,303.363,354.302z M310.126,344.368
		c-4.144,0.165-8.147,0.299-12.306,0.258c0.115-31.737-0.43-63.433-0.193-95.442c4.045,4.328,8.393,7.996,12.693,11.732
		C310.439,288.736,309.919,316.518,310.126,344.368z M312.424,262.691c1.223,1.016,2.355,1.937,3.469,2.884
		c3.983,3.396,7.78,7,11.7,10.467c2.003,1.771,4.08,3.459,6.173,5.125c0.6,0.478,0.818,0.964,0.818,1.716
		c-0.003,14.398,0.007,28.796,0.039,43.194c0.012,5.317,0.09,10.637,0.13,15.954c0.003,0.394,0.095,0.801-0.147,1.259
		c-0.77,0.583-1.81,0.597-2.746,0.816c-4.512,1.058-9.067,1.905-13.64,2.67c-1.336,0.223-2.592-0.077-3.81-0.681
		c-2.391-1.182-2.419-1.158-2.389-3.779c0.293-25.995,0.182-51.99,0.213-77.985C312.236,263.857,312.145,263.374,312.424,262.691z
		 M358.584,309.452c-0.005,1.341-0.701,2.508-1.078,3.752c-1.152,3.81-1.949,7.671-2.335,11.641
		c-0.325,3.357-0.103,6.709-0.194,10.062c-0.02,0.675-0.004,1.352-0.004,2.132c-6.062,1.959-12.068,3.899-18.273,5.905
		c0.033-19.96-0.016-39.65-0.258-59.485c1.214,0.381,1.951,1.135,2.797,1.681c2.382,1.533,4.833,2.928,7.438,4.039
		c3.562,1.521,6.952,3.369,10.278,5.34c0.573,0.34,1.201,0.651,1.638,1.377C358.591,300.337,358.602,304.895,358.584,309.452z
		 M360.712,304.939c-0.228-2.737-0.267-5.234-0.226-7.834c0.257,0.016,0.402-0.021,0.482,0.035c0.977,0.674,1.943,1.362,3.016,2.119
		C362.916,301.115,361.877,302.918,360.712,304.939z M409.207,263.864c2.078,0.649,4.081,1.497,6.129,2.452
		c-0.104-0.948-1.145-0.928-1.365-1.604c0.221-0.35,0.526-0.236,0.781-0.24c2.748-0.045,5.494-0.119,8.175,0.705
		c2.402,0.737,4.524,1.928,6.369,3.639c5.167,4.796,8.095,10.847,9.917,17.533c1.432,5.25,1.778,10.621,1.396,16
		c-0.588,8.222-3.396,15.658-8.689,22.053c-4.482,5.414-10.109,9.056-17.023,10.546c-3.691,0.795-7.43,0.841-11.177,0.375
		c-9.055-1.126-17.09-4.763-24.432-10.024c-3.875-2.776-7.016-6.246-9.104-10.597c-1.666-3.475-2.089-7.141-1.779-10.931
		c0.018-0.209,0.105-0.383,0.334-0.604c1.359,1.124,2.685,2.305,3.869,3.629c1.062,1.19,2.187,2.33,3.076,3.668
		c0.188,0.285,0.438,0.575,1.002,0.524c-0.654-0.954-1.264-1.841-1.871-2.729c-1.015-1.479-2.021-2.964-2.828-4.571
		c-0.242-0.479-0.615-0.832-0.994-1.185c-3.1-2.887-6.494-5.391-10.018-7.729c-4.553-3.021-9.355-5.569-14.355-7.771
		c-4.334-1.909-8.172-4.629-11.879-7.54c-4.776-3.753-9.17-7.943-13.697-11.982c-3.336-2.977-6.783-5.827-10.193-8.721
		c-4.025-3.412-7.968-6.908-11.611-10.734c-2.178-2.286-3.4-5.043-4.293-8.01c-2.713-9.024-4.993-18.164-7.237-27.312
		c-0.961-3.921-2.011-7.818-2.854-11.77c-0.929-4.341-1.869-8.681-2.875-13.003c-0.621-2.659-1.254-5.325-2.42-7.817
		c-0.976-2.083-2.48-3.527-4.755-4.208c-3.212-0.962-6.315-2.267-9.069-4.177c-2.225-1.543-4.271-3.396-5.205-6.083
		c-0.572-1.647-0.727-2.361,0.49-4.485c-0.588-1.5-0.972-2.954-0.914-4.567c0.059-1.644,0.766-2.713,2.124-3.466
		c0.38-0.211,0.785-0.375,1.257-0.598c-0.182-0.888-0.372-1.77-0.54-2.655c-0.313-1.644-0.254-3.236,0.542-4.768
		c0.553-1.063,1.133-2.027,2.588-1.969c2.362,2.139,2.362,2.139,3.276,1.539c-0.361-1.002-0.959-1.875-1.703-2.645
		c-1.117-1.156-2.078-2.409-2.803-3.855c-0.363-0.725-0.62-1.471-0.739-2.259c-0.152-1.01,0.319-1.799,1.088-2.377
		c0.691-0.52,1.508-0.566,2.258-0.127c0.994,0.583,1.949,1.237,2.917,1.867c3.245,2.113,6.173,4.646,9.233,7.001
		c0.863,0.664,1.5,1.54,2.125,2.418c0.282,0.395,0.553,0.819,1.137,0.704c0.558-0.109,0.697-0.553,0.859-1.03
		c0.329-0.966,0.199-1.978,0.348-2.963c0.304-2.003,0.356-4.042,0.568-6.061c0.112-1.071,0.264-2.136,0.252-3.218
		c-0.005-0.366,0.195-0.68,0.369-0.95c0.818-0.388,1.208-0.02,1.521,0.665c1.531,3.329,2.923,6.739,3.438,10.361
		c0.279,1.964,1.141,3.494,2.115,5.078c1.576,2.559,2.493,5.308,2.408,8.367c-0.042,1.472,0.482,2.886,0.707,4.335
		c0.357,2.311,0.674,4.63,1.123,6.924c0.834,4.266,2.439,8.28,4.24,12.214c2.39,5.217,5.185,10.215,8.289,15.041
		c2.955,4.596,5.219,9.535,7.248,14.591c2.141,5.339,3.995,10.773,5.639,16.283c0.082,0.274,0.146,0.535,0.07,0.897
		c-0.714,0.051-1.443-0.242-2.375-0.068c1.166,0.631,2.258,0.957,3.328,1.292c2.518,0.786,4.922,1.793,7.24,3.063
		c1.525,0.834,3.234,1.312,4.788,2.121c3.157,1.648,6.004,3.769,8.868,5.859c3.154,2.301,6.242,4.688,9.486,6.867
		c2.846,1.912,5.928,2.797,9.318,2.835c6.793,0.075,13.484,0.817,19.939,3.098c5.1,1.802,9.957,4.132,14.755,6.601
		c3.185,1.639,6.328,3.355,9.386,5.225C407.555,263.297,408.37,263.604,409.207,263.864z M448.339,253.51
		c0.772,1.292,1.241,2.735,1.542,4.229c0.408,2.025-0.6,3.291-2.703,3.404c-2.741,0.146-5.375-0.393-7.988-1.125
		c-3.017-0.844-5.972-1.893-9.028-2.594c-2.311-0.529-4.588-0.729-6.96-0.236c-2.135,0.443-4.331,0.621-6.508,0.83
		c-2.82,0.271-5.521,1.074-8.251,1.748c-0.458,0.111-0.909,0.254-1.359,0.396c-0.448,0.14-0.844,0.071-1.256-0.164
		c-1.556-0.894-3.111-1.781-4.694-2.62c-0.604-0.32-0.715-0.734-0.662-1.365c0.274-3.261,1.048-6.419,1.863-9.57
		c0.753-2.914,1.838-5.734,2.417-8.699c0.172-0.879,0.202-1.766,0.06-2.617c-0.169-1.01-0.771-1.788-1.706-2.326
		c-1.665-0.961-3.505-1.475-5.276-2.164c-1.881-0.732-3.792-1.396-5.321-2.824c-1.456-1.359-2.329-3.021-2.698-4.938
		c-0.217-1.132,0.319-2.173,0.631-3.231c0.057-0.188,0.149-0.369,0.244-0.543c0.713-1.32,0.84-2.719,0.432-4.137
		c-0.195-0.679-0.187-1.342-0.153-2.016c0.062-1.244,0.819-1.819,2.063-1.612c0.107,0.019,0.226-0.01,0.314-0.015
		c0.393-0.344,0.273-0.646-0.005-0.944c-0.382-0.41-0.717-0.853-0.974-1.356c-0.713-1.399-0.586-2.354,0.488-3.474
		c0.498-0.519,1.021-1.006,1.666-1.362c0.043-1.007-0.488-1.701-1.08-2.343c-0.649-0.704-1.352-1.36-2.033-2.037
		c-1.233-1.223-1.26-2.559,0.1-3.698c1.805-1.512,3.688-2.928,5.517-4.411c1.356-1.101,2.681-2.244,4.027-3.376
		c0.734,0.495,0.616,1.73,1.798,1.718c0.192-0.394,0.195-0.864,0.08-1.24c-0.419-1.359-0.152-2.768-0.399-4.151
		c-0.306-1.698,0.056-3.426,0.818-4.991c3.021-6.191,7.013-11.636,12.768-15.545c4.003-2.72,8.438-4.552,13.222-5.501
		c3.434-0.682,6.89-0.824,10.348-0.426c3.751,0.431,7.415,1.327,10.962,2.637c3.886,1.435,7.67,3.081,11.098,5.458
		c5.545,3.848,9.446,8.948,11.817,15.258c1.994,5.308,2.603,10.808,2.372,16.428c-0.198,4.896-1.103,9.62-3.564,13.944
		c-1.538,2.699-3.578,4.979-5.859,7.057c-3.277,2.984-6.558,5.969-9.855,8.932c-2.83,2.541-4.759,5.637-5.895,9.256
		c-1.103,3.514-2.252,7.011-3.036,10.615C447.278,249.766,447.232,251.658,448.339,253.51z"/>
</g>
</svg>
