<?xml version="1.0" encoding="utf-8"?>
<!-- Generator: Adobe Illustrator 16.2.1, SVG Export Plug-In . SVG Version: 6.00 Build 0)  -->
<!DOCTYPE svg PUBLIC "-//W3C//DTD SVG 1.1//EN" "http://www.w3.org/Graphics/SVG/1.1/DTD/svg11.dtd">
<svg version="1.1" id="RS_x5F_straps10-1_xA0_Image_1_"
	 xmlns="http://www.w3.org/2000/svg" xmlns:xlink="http://www.w3.org/1999/xlink" x="0px" y="0px" width="528px" height="396px"
	 viewBox="0 0 528 396" enable-background="new 0 0 528 396" xml:space="preserve">
<path d="M312.96,0.24c-0.237,2.696-0.396,5.403-0.731,8.087c-0.736,5.901-1.758,11.754-3.205,17.528
	c-1.297,5.175-3,10.188-5.606,14.875c-1.61,2.899-3.493,5.604-5.549,8.192c-3.646,4.591-6.991,9.401-10.37,14.187
	c-1.887,2.674-3.968,5.197-6.086,7.687c-1.121,1.316-1.842,2.684-1.756,4.529c0.083,1.787-0.026,3.595-0.043,5.394
	c-0.022,2.319,0.219,4.62,0.42,6.925c0.115,1.311,0.072,2.628-0.051,3.949c-0.207,2.257-0.416,4.512-0.854,6.737
	c-0.222,1.12-0.312,2.275-0.811,3.341c-0.426-0.32-4.004-6.963-4.275-7.936c1.055-1.279,2.451-2.203,3.794-3.193
	c0.449-0.331,0.919-0.648,1.306-1.044c0.299-0.306,0.52-0.705,0.244-1.187c-0.264-0.463-0.628-0.57-1.207-0.385
	c-1.152,2.858-3.875,4.252-6.16,6.062c-1.115,0.883-2.108,1.807-2.845,3.021c-0.311,0.511-0.694,0.976-1.038,1.466
	c-1.048,1.497-2.63,2.015-4.311,2.258c-0.712,0.103-1.479-0.16-1.945-0.733c-1.206-1.48-2.065-3.099-1.85-5.128
	c0.169-1.587,1.182-2.614,2.295-3.506c1.275-1.021,2.195-2.273,3.054-3.63c0.998-1.576,2.19-3.033,2.772-4.859
	c-0.957-0.494-1.096,0.677-1.832,0.922c-1.908-1.773-3.451-3.815-3.503-6.576c-0.038-1.994,0.88-3.693,2.307-5.077
	c1.46-1.417,3.082-2.641,4.705-3.875c-3.173,0.674-5.872,2.123-7.862,4.951c-0.255-0.82-0.385-1.519-0.38-2.255
	c0.015-1.96-0.079-3.924,0.026-5.878c0.159-2.939,0.411-5.876,0.968-8.773c0.087-0.454,0.308-0.914,0.574-1.297
	c3.654-5.267,5.916-11.119,7.313-17.333c0.199-0.886,0.597-1.572,1.281-2.204c2.262-2.086,4.448-4.256,6.385-6.655
	c0.443-0.549,0.919-0.78,1.638-0.754c6.555,0.238,12.356-1.822,17.467-5.867c1.408-1.115,2.654-2.429,3.812-3.809
	c0.482-0.576,0.829-1.251,1.038-1.99c0.32-1.141,0.665-2.276,1.061-3.618c-1.189,1.184-2.023,2.383-2.914,3.525
	c-3.715,4.757-8.43,7.94-14.351,9.246c-1.743,0.385-3.506,0.704-5.307,0.596c-0.151-0.469,0.18-0.701,0.37-0.976
	c1.345-1.927,2.628-3.891,3.691-5.988c0.271-0.532,0.543-1.062,0-1.673c-0.505,0.262-0.785,0.711-1.091,1.104
	c-2.149,2.769-4.271,5.56-6.42,8.329c-1.569,2.022-3.321,3.881-5.169,5.653c-0.109,0.105-0.2,0.259-0.52,0.165
	c0-0.38-0.062-0.809,0.011-1.215c0.381-2.189,0.202-4.381,0.097-6.575c-0.054-1.118-0.135-2.239-0.104-3.355
	c0.104-3.682-0.213-7.351-0.311-11.026c-0.08-3.025-0.438-6.043-0.686-9.063c-0.035-0.434-0.137-0.863-0.207-1.293
	c-0.641,0-1.28,0-1.92,0c-0.015,0.682,0.16,1.346,0.217,2.016c0.285,3.417,0.654,6.838,0.707,10.261
	c0.056,3.599,0.26,7.19,0.312,10.788c0.072,5.067,0.092,10.108-1.221,15.064c-1.381,5.217-3.262,10.214-6.247,14.739
	c-1.401,2.125-2.887,4.193-4.341,6.283c-2.436,3.502-4.309,7.354-6.714,10.872c-2.023,2.958-4.787,4.564-8.475,4.436
	c-2.345-0.082-4.422-0.924-6.367-2.107c-8.924-5.425-17.014-11.834-23.532-20.089c-1.833-2.321-3.628-4.649-4.566-7.51
	c-0.803-2.451-1.601-4.904-2.433-7.345c-0.665-1.951-1.208-3.952-2.402-5.689c-0.585-0.852-1.065-1.775-1.594-2.666
	c-0.513-0.864-1.023-1.728-1.674-2.533c-0.281,0.327-0.156,0.55-0.106,0.782c0.212,0.995,0.741,1.847,1.241,2.706
	c0.442,0.759,0.528,1.481-0.057,2.244c-0.6,0.003-1.068-0.246-1.483-0.656c-0.772-0.763-1.423-1.61-2.014-2.523
	c-1.241-1.918-2.136-4.014-3.201-6.021c-1.766-3.33-3.092-6.789-3.533-10.552c-0.045-0.383-0.188-0.796,0.269-1.153
	c1.122,0.19,2.084,0.819,3.024,1.462c0.887,0.607,1.709,1.308,2.587,1.928c0.426,0.301,0.915,0.327,1.293-0.109
	c0.364-0.418,0.192-0.821-0.139-1.172c-1.721-1.828-3.716-3.272-6.127-4.007c-1.681-0.512-2.844,0.432-2.848,2.189
	c-0.005,2.409,0.523,4.736,1.346,6.978c1.098,2.992,2.963,5.62,4.192,8.565c0.536,1.286,0.843,2.566,0.921,3.909
	c0.143,2.464,0.468,4.909,0.805,7.345c0.478,3.453,1.07,6.893,1.849,10.297c1.134,4.958,2.521,9.834,4.802,14.406
	c1.377,2.761,2.971,5.403,5.456,7.316c4.228,3.254,9.105,4.836,14.389,5.101c3.533,0.177,6.972-0.463,10.249-1.824
	c0.733-0.305,1.321-0.279,2,0.14c1.015,0.625,2.089,1.151,3.199,1.601c3.417,1.382,6.791,1.485,10.117-0.293
	c0.232-0.124,0.451-0.349,0.931-0.208c-0.124,2.16,0.159,4.356,0.182,6.542c-0.682,0.214-1.309-0.006-1.846,0.389
	c-2.285,1.679-4.596,3.335-6.484,5.467c-0.642,0.726-1.337,1.182-2.24,1.45c-2.774,0.82-5.521,1.737-8.308,2.509
	c-7.519,2.084-14.942,4.593-22.785,5.276c-2.059,0.179-4.059,0.013-5.842-1.194c-0.23-0.156-0.467-0.354-0.725-0.404
	c-0.733-0.144-0.993-0.681-1.279-1.275c-1.139-2.366-2.289-4.727-3.483-7.065c-1.416-2.771-2.957-5.462-5.2-7.681
	c-2.302-2.276-4.59-4.567-6.875-6.861c-0.36-0.362-0.796-0.668-1.026-1.203c0.324-0.53,0.658-1.067,0.983-1.609
	c2.99-4.989,5.696-10.108,7.368-15.718c1.018-3.414,1.452-6.822,0.265-10.295c-0.28-0.819-0.43-1.689-0.577-2.546
	c-0.831-4.841-1.584-9.697-2.659-14.493c-1.041-4.647-2.313-9.227-4.278-13.586c-1.714-3.803-3.801-7.348-6.852-10.269
	c-0.887-0.849-1.966-1.465-2.77-2.401c-1.44,0-2.88,0-4.32,0c0.975,0.611,2.062,1.005,3.025,1.65
	c3.298,2.208,5.677,5.21,7.575,8.638c1.855,3.352,3.176,6.924,4.229,10.594c1.28,4.462,2.169,9.011,2.966,13.583
	c0.502,2.886,0.92,5.788,1.585,8.647c0.304,1.304,0.786,2.564,0.821,3.949c0.062,2.511-0.474,4.908-1.264,7.241
	c-1.744,5.148-4.254,9.935-7.116,14.543c-0.149,0.239-0.266,0.492-0.873,0.543c-0.804-0.858-1.721-1.854-2.657-2.832
	c-1.042-1.089-2.422-1.425-3.849-1.698c2.387,2.606,4.78,5.173,7.161,7.751c2.602,2.818,5.396,5.459,8.12,8.165
	c0.684,0.679,1.285,1.417,1.814,2.217c2.71,4.093,4.729,8.55,6.76,12.994c3.154,6.899,6.003,13.929,8.922,20.929
	c0.947,2.27,2.037,4.487,2.86,6.8c1.188,3.337,1.558,6.872,2.153,10.345c0.643,3.748,1.218,7.509,2.202,11.187
	c0.618,2.308,1.316,4.612,2.922,6.469c2.33,2.692,4.265,5.663,6.174,8.651c5.358,8.386,10.325,16.996,14.802,25.886
	c2.392,4.751,4.732,9.527,6.422,14.584c0.754,2.257,1.425,4.541,2.377,6.728c3.345,7.676,7.479,14.938,11.687,22.158
	c2.785,4.78,5.692,9.488,8.499,14.258c1.489,2.528,3.637,4.18,6.376,5.108c1.849,0.627,3.749,0.997,5.706,1.028
	c1.109,2.554,1.334,5.388,2.934,7.597c-0.265,1.243-0.252,1.239,0.187,2.407c0.511,1.361,1.326,2.545,2.187,3.689
	c1.939,2.586,3.682,5.266,4.963,8.26c1.972,4.604,3.949,9.209,6.384,13.597c0.562,1.012,1.067,2.038,1.286,3.187
	c0.348,1.809,0.015,3.41-1.432,4.655c-1.458,1.257-2.521,1.288-4.076,0.173c-0.787-0.564-1.49-1.23-2.039-2.014
	c-2.16-3.08-4.64-5.883-7.293-8.538c-0.209-0.211-0.324-0.563-1.016-0.537c2.58,4.429,5.094,8.706,8.586,12.3
	c-1.971,2.198-4.926,2.475-7.146,0.883c-1.588-1.14-2.865-2.64-4.549-3.666c-1.701-1.039-3.109-2.471-4.687-3.707
	c1.915,2.856,4.108,5.486,6.595,7.91c-1.092,1.821-2.338,3.353-3.812,4.713c-0.605,0.558-1.127,0.494-1.68,0.008
	c-0.66-0.581-1.264-1.221-1.8-1.922c-1.331-1.739-2.5-3.598-3.846-5.332c-1.697-2.188-4.044-3.446-6.406-4.703
	c-0.349-0.186-0.689-0.161-0.966,0.172c-0.272,0.326-0.201,0.684-0.034,1.002c0.192,0.365,0.575,0.536,0.928,0.729
	c1.375,0.746,2.602,1.683,3.733,2.768c2.297,2.204,3.773,5.029,5.73,7.49c0.022,0.029-0.033,0.123-0.055,0.191
	c-0.367,0.055-0.701-0.025-1.058-0.107c-2.517-0.575-4.931-1.498-7.423-2.146c-0.757-0.196-1.251-0.659-1.656-1.278
	c-1.267-1.938-2.63-3.807-4.096-5.595c-1.175-1.433-2.088-2.991-2.709-4.733c-0.24-0.672-0.526-1.327-0.808-1.983
	c-1.427-3.321-2.645-6.72-3.19-10.302c-0.74-4.864-1.71-9.672-3.17-14.371c-0.901-2.9-2.024-5.709-4.202-7.939
	c-1.658-1.697-2.948-3.647-4.098-5.712c-0.909-1.635-1.865-3.245-2.857-4.829c-3.238-5.177-6.851-10.088-10.598-14.902
	c-3.236-4.155-6.6-8.207-10.02-12.213c-3.758-4.399-7.73-8.614-11.272-13.198c-4.816-6.232-8.854-12.928-12.162-20.074
	c-1.57-3.391-3.043-6.821-4.46-10.276c-2.137-5.211-5.017-10.028-7.822-14.884c-5.476-9.48-11.773-18.386-18.942-26.661
	c-3.547-4.096-6.553-8.515-8.676-13.517c-1.759-4.143-2.808-8.497-3.718-12.875c-1.327-6.374-3.495-12.419-6.438-18.222
	c-3.404-6.713-7.213-13.199-10.958-19.716c-4.015-6.987-5.943-14.408-5.939-22.436c0.003-5.4,0.309-10.792,0.274-16.191
	c-0.011-1.632,0-3.259,0.179-4.898c0.365-3.35,1.244-6.542,2.527-9.632c1.957-4.711,4.735-8.91,8.097-12.731c-0.88,0-1.76,0-2.64,0
	c-0.029,0.072-0.043,0.157-0.091,0.214c-3.422,4.154-6.167,8.705-7.963,13.792c-1.182,3.346-1.999,6.772-2.026,10.353
	c-0.011,1.479-0.138,2.957-0.136,4.436c0.009,7.506-0.519,15.021,0.382,22.512c0.357,2.971,1.105,5.847,2.266,8.596
	c1.955,4.625,4.48,8.959,6.969,13.308c2.273,3.972,4.549,7.941,6.67,11.998c0.349,0.667,0.44,1.28,0.286,2.049
	c-0.65,3.229-1.136,6.491-1.519,9.761c-0.315,2.687-0.566,5.383-0.801,8.08c-0.326,3.741-0.562,7.486-0.626,11.234
	c-0.07,4.033-0.094,8.069,0.146,12.109c0.17,2.865,0.36,5.731,0.585,8.591c0.277,3.527,0.805,7.033,1.126,10.557
	c0.303,3.33,0.633,6.657,0.953,9.985c0.346,3.604,0.757,7.196,1.199,10.789c0.436,3.546,0.991,7.067,1.713,10.564
	c1.065,5.152,2.713,10.1,5.148,14.781c1.395,2.68,2.593,5.454,3.763,8.241c1.784,4.247,2.989,8.689,4.503,13.029
	c1.005,2.879,1.837,5.81,2.349,8.817c0.505,2.974,1.059,5.929,2.349,8.688c0.198,0.423,0.157,0.867,0.088,1.294
	c-0.282,1.735-0.354,3.491-0.414,5.239c-0.112,3.273,0.058,6.539,0.42,9.802c0.215,1.937,0.476,3.862,0.857,5.767
	c0.777,3.887,1.942,7.674,3.135,11.442c2.004,6.338,4.063,12.659,6.207,18.95c2.7,7.92,5.395,15.836,6.311,24.213
	c0.098,0.892,0.566,1.872-0.171,2.755c-0.752,0.9-1.16,1.965-1.454,3.099c-0.566,2.188-0.618,4.426-0.633,6.648
	c-0.031,4.516-0.452,8.982-1.261,13.419c-0.727,3.984-1.751,7.887-3.308,11.64c-2.052,4.95-4.097,9.907-5.465,15.103
	c-1.232,4.677-2.085,9.407-1.297,14.266c0.692,4.267,2.804,7.556,6.748,9.557c2.656,1.349,5.53,1.756,8.428,1.87
	c3.229,0.129,6.442-0.259,9.543-1.211c4.625-1.42,8.331-4.089,10.819-8.31c2.336-3.962,3.288-8.312,3.55-12.848
	c0.141-2.436,0.045-4.872,0.039-7.31c-0.007-2.827,0.229-5.656,0.409-8.483c0.192-3.013,0.873-5.866,2.159-8.594
	c0.88-1.868,1.723-3.755,2.55-5.646c1.774-4.062,2.51-8.227,1.514-12.651c-0.991-4.404-2.172-8.757-3.363-13.106
	c-0.783-2.858-2.522-5.029-5.241-6.347c-0.316-0.152-0.681-0.236-0.918-0.555c-0.227-1.913,0.182-3.809,0.274-5.715
	c0.075-1.547,0.309-3.086,0.491-4.627c0.205-1.736,0.435-3.471,0.646-5.207c0.269-2.207,0.521-4.418,0.796-6.625
	c0.285-2.287,0.626-4.568,0.873-6.86c0.255-2.37,0.557-4.733,0.789-7.106c0.224-2.295,0.445-4.59,0.69-6.883
	c0.179-1.672,0.155-3.348,0.298-5.018c0.341-3.96,0.202-7.912-0.762-11.766c-1.508-6.023-3.901-11.738-6.445-17.391
	c-0.287-0.637-0.6-1.205-1.383-1.499c1.544-7.836,3.223-15.604,3.798-23.69c0.487,0.388,0.739,0.778,1.022,1.146
	c1.218,1.576,2.415,3.17,3.673,4.715c2.7,3.313,5.625,6.435,8.403,9.681c4.566,5.334,9.049,10.738,13.272,16.354
	c3.76,4.998,7.353,10.107,10.429,15.564c0.879,1.561,1.736,3.136,2.834,4.554c0.727,0.938,1.523,1.823,2.284,2.728
	c-2.201,4.043-2.318,8.324-1.849,12.646c0.334,3.075,0.97,6.118,1.355,9.19c0.396,3.157,0.729,6.326,0.95,9.5
	c0.251,3.625,0.324,7.264,0.519,10.893c0.261,4.851-0.557,9.622-1.013,14.418c-0.288,3.036-0.37,6.053,0.311,9.031
	c0.7,3.06,2.14,5.716,4.58,7.782c2.234,1.896,4.826,3.044,7.6,3.867c0.55,0.163,1.063,0.254,1.573-0.042
	c0.664,0.659,0.93,1.403,1.14,2.242c0.265,1.06,0.387,2.155,0.863,3.175c3.482,7.447,6.756,14.982,9.719,22.654
	c4.57,11.838,8.904,23.759,12.892,35.806c0.722,0,1.44,0,2.16,0c-2.263-6.668-4.545-13.327-6.953-19.942
	c-3.825-10.513-7.749-20.985-12.264-31.227c-1.367-3.098-2.856-6.143-4.198-9.251c-1.787-4.14-3.083-8.437-3.694-12.914
	c-0.72-5.28,0.047-10.412,1.721-15.429c0.68-2.039,1.468-4.039,2.349-6.001c0.161-0.357,0.252-0.766,0.588-0.975
	c3.14,1.397,6.497,2.068,9.737,3.168c-0.012,3.222,1.115,6.084,2.613,8.771c2.615,4.688,4.508,9.663,6.264,14.708
	c3.189,9.166,6.365,18.337,9.607,27.484c2.396,6.753,4.855,13.485,7.945,19.962c1.407,2.946,3.065,5.772,4.256,8.827
	c1.56,4.006,2.825,8.104,3.896,12.265c0.048,0.188,0.141,0.369,0.212,0.553c0.64,0,1.28,0,1.92,0
	c-0.007-0.16,0.015-0.327-0.024-0.479c-1.613-6.228-3.433-12.396-6.465-18.101c-2.561-4.817-4.646-9.833-6.595-14.913
	c-2.61-6.808-5.034-13.683-7.394-20.582c-2.243-6.56-4.57-13.092-6.862-19.641c0.219-0.42,0.628-0.713,0.683-1.237
	c0.303-2.892,0.646-5.78,0.715-8.689c0.049-2.038,0.01-4.079,0.012-6.118c0.002-1.879-0.17-3.752-0.727-5.54
	c-0.453-1.46,0.26-2.29,1.201-3.158c3.704,2.309,6.873,1.215,9.756-1.4c3.979,1.356,7.842-2.451,7.592-6.117
	c-0.105-1.542-0.433-2.979-1.105-4.348c-0.41-0.832-0.857-1.646-1.325-2.535c0.218,0.019,0.302,0.004,0.364,0.033
	c0.179,0.088,0.348,0.19,0.521,0.289c2.491,1.422,5.062,2.502,8.035,1.885c1.083-0.225,2.188-0.307,3.18-0.91
	c0.818-0.498,1.151-1.139,1.102-2.069c-0.062-1.158-0.709-2.024-1.424-2.815c-2.676-2.963-5.254-6-7.582-9.248
	c-2.483-3.465-5.062-6.863-6.762-10.817c-0.297-0.688-0.537-1.419-1.1-1.963c-0.266-0.259-0.179-0.591-0.204-0.903
	c-0.083-1.008,0.222-1.986,0.218-2.986c-0.016-3.316,0.412-6.609,0.549-9.92c0.05-1.188,0.134-2.389,0.229-3.58
	c0.208-2.58,0.469-5.156,0.672-7.738c0.194-2.463,0.26-4.939,0.551-7.391c0.116-0.978,0.039-1.986,0.271-2.882
	c0.415-0.31,0.8-0.356,1.21-0.378c1.709-0.085,3.417-0.204,5.11-0.465c1.158-0.178,1.498-0.624,1.361-1.751
	c-0.146-1.187-0.188-2.381-0.312-3.571c-0.24-2.296-0.338-4.607-0.543-6.908c-0.279-3.132-0.631-6.257-0.905-9.39
	c-0.276-3.134-0.494-6.273-0.744-9.411c-0.084-1.055-0.454-1.406-1.515-1.666c-0.9-0.22-1.824-0.088-2.766-0.225
	c-0.226-1.017-0.107-2.013-0.133-3c-0.031-1.265-0.345-1.679-1.561-2.063c-0.264-0.083-0.545-0.109-0.805-0.203
	c-0.293-0.105-0.432-0.336-0.396-0.659c0.03-0.28,0.222-0.413,0.457-0.489c0.11-0.036,0.237-0.032,0.356-0.03
	c1.166,0.016,1.849-0.828,1.787-2.06c-0.024-0.519-0.002-1.04-0.008-1.56c-0.016-1.564-0.516-2.067-2.078-2.094
	c-0.154-0.003-0.318,0.02-0.517-0.225c0-1.922,0-3.944,0-5.948c0.735-0.384,1.492-0.45,2.226-0.602
	c1.243-0.258,1.643-0.72,1.566-1.977c-0.066-1.116-0.273-2.224-0.207-3.348c0.107-1.844-0.202-3.669-0.249-5.506
	c-0.021-0.835-0.519-1.334-1.353-1.367c-0.918-0.036-1.84-0.062-2.754,0.099c-0.353,0.062-0.713,0.166-1.06-0.202
	c-0.155-0.274-0.104-0.64-0.101-0.993c0.104-8.079-0.285-16.155-0.191-24.23c0.04-3.477-0.54-6.619-2.152-9.738
	c-2.861-5.54-5.211-11.342-8.488-16.676c-0.534-0.869-1.176-1.696-1.481-2.746c0.49-0.521,0.656-1.157,0.804-1.829
	c0.582-2.64,1-5.297,1.271-7.989c0.232-2.319,0.206-4.631,0.079-6.939c-0.138-2.51-0.46-5.014-0.347-7.53
	c0.06-1.276,0.25-2.552,0.162-3.83c-0.068-0.992,0.293-1.743,0.91-2.484c2.09-2.511,4.184-5.019,6.1-7.67
	c3.384-4.683,6.596-9.487,10.225-13.994c2.449-3.042,4.697-6.236,6.547-9.694c3.824-7.152,5.684-14.926,7.188-22.805
	c0.64-3.353,1.148-6.727,1.5-10.127c0.271-2.614,0.572-5.223,0.684-7.85C314.24,0.24,313.6,0.24,312.96,0.24z M226.26,73.656
	c-4.678,0.432-9.179-0.277-13.447-2.372c-3.273-1.606-5.667-4.048-7.418-7.198c-2.372-4.266-3.832-8.864-5.004-13.57
	c-1.046-4.196-1.773-8.456-2.355-12.733c-0.271-1.994-0.641-3.999-0.54-6.227c1.316,0.699,2.52,1.197,3.851,1.279
	c0.664,0.041,0.79,0.59,0.954,1.073c0.976,2.883,2.023,5.745,2.891,8.66c1.255,4.217,3.311,7.936,6.07,11.375
	c5.503,6.858,12.14,12.407,19.306,17.394c0.327,0.227,0.642,0.472,0.952,0.721c0.048,0.039,0.043,0.144,0.081,0.283
	C229.91,73.125,228.082,73.488,226.26,73.656z M145.235,176.321c-0.811-3.763-1.205-7.605-1.695-11.423
	c-0.339-2.642-0.499-5.307-0.766-7.959c-0.292-2.89-0.691-5.772-0.897-8.667c-0.144-2.026-0.42-4.037-0.552-6.064
	c-0.126-1.941-0.428-3.871-0.64-5.807c-0.108-0.99-0.207-1.992-0.247-2.977c-0.236-5.746-0.733-11.483-0.371-17.249
	c0.165-2.627,0.142-5.273,0.351-7.899c0.183-2.3,0.353-4.604,0.614-6.901c0.251-2.212,0.514-4.423,0.794-6.633
	c0.208-1.642,0.453-3.277,0.841-5.174c0.768,1.481,1.301,2.786,1.829,4.093c1.697,4.205,2.623,8.623,3.597,13.026
	c1.239,5.598,2.955,11.026,5.816,16.028c1.827,3.194,4.032,6.127,6.44,8.908c5.932,6.851,11.302,14.116,16.04,21.843
	c3.101,5.057,6.208,10.12,8.765,15.475c2.049,4.293,3.811,8.725,5.765,13.246c-1.787,0.847-3.557,1.264-5.325,1.666
	c-3.909,0.887-7.871,1.443-11.845,1.973c-4.446,0.592-8.895,0.914-13.363,0.641c-3.706-0.226-7.304-1.032-10.555-2.942
	c-0.955-0.561-1.695-1.474-2.568-2.096C145.395,180.097,145.615,178.087,145.235,176.321z M201.684,305.294
	c1.702,1.068,2.975,2.453,3.562,4.457c1.322,4.522,2.552,9.066,3.519,13.678c0.839,4.001,0.116,7.815-1.544,11.494
	c-1.045,2.316-2.117,4.621-3.105,6.961c-0.886,2.097-1.339,4.301-1.563,6.572c-0.529,5.38-0.362,10.772-0.495,16.162
	c-0.091,3.663-0.73,7.269-2.247,10.653c-2.509,5.602-6.922,8.737-12.853,9.948c-2.884,0.589-5.797,0.624-8.694,0.432
	c-2.795-0.188-5.467-0.942-7.733-2.761c-1.856-1.488-2.924-3.45-3.464-5.706c-0.705-2.943-0.583-5.906-0.142-8.893
	c0.991-6.699,3.398-12.95,5.985-19.138c1.983-4.743,3.374-9.633,4.218-14.698c0.828-4.967,1.191-9.963,1.176-14.991
	c-0.004-1.396,0.263-2.74,0.594-4.239c1.891,1.896,4.113,2.74,6.381,3.47c3.662,1.176,7.203,0.842,10.618-0.937
	c1.84-0.958,3.715-1.852,5.162-3.407c0.64-0.688,1.094-1.445,1.268-2.388c0.271-1.464,0.191-1.713-1.119-2.608
	c-0.165-0.645-0.369-1.321-0.342-2.053c0.025-0.716,0.005-1.434,0.005-2.094C201.241,304.9,201.482,305.168,201.684,305.294z
	 M199.099,201.77c-0.219,1.693-0.35,3.397-0.589,5.092c-0.444,3.143-0.986,6.267-1.577,9.382c-0.605,3.196-1.373,6.358-1.309,9.657
	c0.042,2.151-0.161,4.309-0.162,6.481c0.705-1.868,0.78-3.901,1.464-5.918c0.697,0.896,0.952,1.861,1.343,2.752
	c1.818,4.144,3.397,8.377,4.718,12.704c0.988,3.236,1.085,6.577,1.073,9.934c-0.009,2.599-0.058,5.199-0.321,7.778
	c-0.279,2.728-0.516,5.46-0.856,8.185c-0.295,2.363-0.553,4.736-0.805,7.108c-0.238,2.251-0.579,4.491-0.861,6.738
	c-0.199,1.577-0.373,3.157-0.563,4.735c-0.291,2.406-0.6,4.812-0.876,7.22c-0.204,1.78-0.376,3.563-0.546,5.347
	c-0.284,2.986-0.29,5.98-0.263,8.979c0.013,1.357,0.272,2.606,1.428,3.451c0.03,0.809-0.409,1.372-0.907,1.797
	c-2.366,2.013-5.042,3.54-8.115,4.043c-2.631,0.432-5.234-0.075-7.69-1.178c-0.218-0.099-0.426-0.222-0.649-0.306
	c-1.421-0.534-2.04-1.364-2.193-3.067c-0.661-7.327-2.218-14.48-4.578-21.478c-2.902-8.602-5.855-17.188-8.515-25.869
	c-1.253-4.088-2.54-8.172-3.263-12.396c-0.416-2.428-0.703-4.877-0.825-7.344c-0.148-2.998-0.069-5.994,0.014-8.99
	c0.005-0.196,0.04-0.393,0.073-0.713c1.913,1.172,1.913,1.172,2.581,1.037c0.119-0.361-0.143-0.591-0.315-0.842
	c-2.291-3.339-3.698-7.004-4.284-11.021c-0.556-3.812-1.656-7.5-2.901-11.145c-1.55-4.538-2.879-9.152-4.77-13.574
	c-1.36-3.181-2.943-6.257-4.415-9.385c-1.01-2.145-1.902-4.335-2.496-6.667c0.416-0.061,0.652,0.189,0.888,0.355
	c2.933,2.071,6.278,2.973,9.765,3.499c2.414,0.364,4.84,0.568,7.275,0.454c2.465-0.116,4.924-0.326,7.377-0.643
	c1.928-0.249,3.858-0.482,5.784-0.759c4.558-0.656,9.069-1.499,13.391-3.103c0.41,0.157,0.479,0.545,0.631,0.855
	c1.959,4.013,4.133,7.903,6.575,11.644c0.171,0.262,0.4,0.505,0.383,0.857C199.148,198.895,199.284,200.33,199.099,201.77z
	 M258.978,301.716c-1.34,2.935-2.397,5.961-3.162,9.101c-0.87,3.571-1.225,7.156-0.713,10.817c0.159,1.141,0.313,2.279,0.463,3.42
	c0.083,0.63,0.459,1.097,0.631,1.653c0.388,1.252,0.502,2.557,0.625,3.883c-6.762-1.436-10.789-5.192-11.744-11.497
	c-0.297-1.959-0.326-3.945-0.152-5.963c0.232-2.697,0.627-5.373,0.845-8.071c0.361-4.47,0.275-8.932,0.027-13.401
	c-0.097-1.753-0.149-3.507-0.282-5.261c-0.18-2.381-0.4-4.756-0.667-7.131c-0.279-2.486-0.573-4.968-0.983-7.438
	c-0.528-3.185-0.935-6.384-0.765-9.63c0.085-1.614,0.668-4.062,1.378-5.178c0.855,1.112,1.263,2.416,1.672,3.678
	c1.483,4.562,2.549,9.229,3.23,13.981c0.618,4.312,2.217,8.317,3.678,12.39c1.341,3.74,3.709,6.731,6.037,9.805
	c0.432,0.568,0.815,1.177,1.242,1.797C259.879,299.698,259.436,300.711,258.978,301.716z M279.457,318.976
	c-0.49-0.221-0.869-0.489-1.105-0.973c-0.262-0.537-0.559-1.057-0.846-1.58c-0.336-0.61-0.688-1.131-1.307-1.595
	c-0.889-0.666-1.291-1.828-1.338-2.969c-0.039-0.947-0.314-1.79-0.682-2.636c-1.016-2.35-1.228-3.438-0.994-5.171
	c1.107-0.031,2.279,0.088,3.365-0.279c1.098-0.373,1.834-1.326,2.838-2.135C280.54,306.114,280.044,314.657,279.457,318.976z
	 M294.23,178.618c0.363,0.512,0.265,1.025,0.191,1.715C293.747,179.676,294.049,179.142,294.23,178.618z M252.582,71.463
	c1.586-1.94,2.636-4.265,3.938-6.411c1.046-1.722,2.085-3.445,3.4-5.342c0,0.772,0.048,1.243-0.008,1.701
	c-0.461,3.783-0.439,7.576-0.205,11.369c0.147,2.382,0.49,4.797,1.302,6.998c0.607,1.648,1.701,3.227,2.997,4.556
	c0.386,0.395,0.86,0.716,1.139,1.25c-0.594,0.688-1.186,1.375-1.777,2.061c0.003,0.019,0.006,0.032,0.009,0.052
	c-0.017-0.002-0.033-0.006-0.05-0.008c-0.762,0.802-1.552,1.571-2.38,2.309c-1.273,1.135-1.968,2.567-1.987,4.312
	c-0.018,1.636-0.015,3.267,0.5,4.843c0.689,2.115,2.008,3.488,4.295,3.605c1.165,2.552,2.385,5.042,2.039,8.036
	c-2.238,0.723-4.331,0.305-6.305-0.934c-0.342-0.214-0.507-0.576-0.543-1.015c-0.228-2.732-1.528-5.001-2.905-7.313
	c-1.428-2.398-2.485-4.979-0.591-7.795c0.944-1.403,1.543-3.037,2.312-4.56c0.341-0.676,0.755-1.314,1.25-1.885
	c0.696-0.803,1.786-0.992,2.545-0.304c0.543,0.492,1.126,0.617,1.771,0.703c0.007-0.007,0.015-0.014,0.021-0.021
	c0.006-0.008,0.013-0.015,0.02-0.023c-0.261-1.548-0.287-1.567-2.393-2.659c-0.361-2.168-1.481-3.213-3.726-3.477
	c-1.831-2.008-2.371-2.054-6.042-0.408c0-1.745,0.14-3.42-0.038-5.061C250.974,74.249,251.433,72.869,252.582,71.463z
	 M253.743,98.969c0.636,1.9,1.804,3.501,2.761,5.221c0.564,1.013,0.859,2.127,1.204,3.22c0.129,0.412,0.158,0.861-0.008,1.375
	c-1.889,0.646-3.405,0.179-4.717-1.444c0.011-1.646-0.761-3.296-1.069-5.042c-0.427-2.418-0.729-4.858-1.141-7.279
	c-0.229-1.344-0.409-2.665-0.002-4.005c0.212-0.697,0.54-1.32,1.002-1.88c1.419-1.719,2.822-3.451,4.258-5.155
	c0.471-0.56,0.9-1.418,1.79-1.138c0.895,0.283,1.773,0.768,1.856,1.922c-0.035,0.211-0.161,0.383-0.326,0.483
	c-1.928,1.168-2.815,3.067-3.582,5.056c-0.428,1.111-0.97,2.168-1.573,3.194c-0.325,0.552-0.522,1.154-0.725,1.758
	C253.04,96.537,253.331,97.736,253.743,98.969z M251.698,82.686c0.804-0.804,1.666-1.484,2.911-1.396
	c0.556,0.04,1.015,0.177,1.236,0.702c0.057,0.3-0.062,0.502-0.234,0.681c-1.806,1.869-3.274,4.018-4.95,5.997
	c-1.319,1.557-1.701,3.464-1.32,5.492c0.491,2.609,1.031,5.211,1.454,7.832c0.216,1.344,1.042,2.481,1.176,3.962
	c-1.523-0.083-2.786-0.647-3.957-1.381c-0.684-0.428-1.169-1.162-1.274-1.949c-0.21-1.579-0.568-3.119-1.006-4.64
	c-0.355-1.23,0.12-2.437-0.025-3.667c-0.116-0.982,0.007-1.994,0.04-2.993c0.028-0.82,0.34-1.569,0.796-2.217
	C248.124,86.859,249.745,84.637,251.698,82.686z M240.263,91.967c0.353-1.157,0.976-2.246,1.582-3.305
	c0.498-0.871,1.252-1.513,2.179-1.979c1.289-0.648,2.244-1.766,3.42-2.579c0.438-0.303,0.823-0.81,1.556-0.476
	c-1.025,1.679-2.214,3.122-3.289,4.646c-0.733,1.039-1.163,2.162-1.142,3.449c0.019,1.157,0.006,2.314,0.012,3.472
	c0.003,0.594,0.072,1.178-0.19,1.761c-0.161,0.357-0.086,0.79,0.043,1.176c0.181,0.542,0.102,1.087,0.13,1.668
	c-1.747,0.315-3.203-0.123-4.604-1.279C240.104,96.383,239.6,94.135,240.263,91.967z M221.818,153.991
	c-0.77-1.118-1.604-2.179-2.508-3.194c-1.474-1.658-2.038-3.756-2.577-5.827c-0.978-3.757-1.564-7.594-2.215-11.42
	c-0.625-3.666-1.047-7.396-2.391-10.895c-1.051-2.735-2.306-5.391-3.463-8.085c-0.454-1.057-0.883-2.125-1.331-3.185
	c-0.14-0.33-0.326-0.643-0.198-1.11c1.089-0.541,1.615-0.482,2.501,0.283c0.9,0.778,1.421,1.801,1.823,2.896
	c0.847,2.311,1.327,4.722,1.913,7.103c1.645,6.685,3.008,13.436,4.792,20.087c1.087,4.055,2.546,7.991,3.779,11.999
	c0.183,0.595,0.358,1.193,0.546,1.817C222.076,154.476,221.956,154.19,221.818,153.991z M227.703,162.975
	c-1.156-1.633-1.646-3.47-2.189-5.337c-1.363-4.68-2.927-9.298-4.42-13.938c-1.615-5.02-2.703-10.185-3.889-15.318
	c-1.097-4.749-2.108-9.521-3.425-14.213c-0.503-1.794-1.253-3.519-2.628-4.896c-1.191-1.192-2.573-1.516-4.163-1.122
	c-0.312,0.078-0.608,0.187-0.973,0.03c-1.413-3.311-2.838-6.652-4.378-10.263c2.358,0.971,4.564,1.117,6.769,0.91
	c2.806-0.265,5.57-0.828,8.311-1.496c7.082-1.726,14.079-3.748,21.039-5.909c0.291-0.09,0.565-0.331,0.98-0.136
	c0.12,0.308-0.108,0.487-0.153,0.716c-0.202,1.032-0.534,2.004-0.092,3.117c0.291,0.733,0.294,1.625,0.158,2.476
	c-0.183,1.146,0.316,1.924,1.323,2.569c1.526,0.978,3.155,1.246,4.963,1.08c0.191,0.978,0.162,1.931,0.667,2.787
	c1.045,1.771,2.631,2.754,4.551,3.217c1.001,0.241,1.818,0.593,2.471,1.445c0.708,0.923,1.609,1.642,2.862,1.786
	c0.691,0.08,1.34-0.14,2.017-0.146c0.379-0.003,0.7,0.014,0.998,0.269c1.755,1.503,3.802,2.101,6.09,1.946
	c0.158-0.011,0.319-0.001,0.479,0.009c0.076,0.005,0.149,0.037,0.271,0.07c0.379,1.053-0.035,2.106-0.199,3.122
	c-0.387,2.403-0.808,4.799-1.157,7.21c-0.49,3.388-0.817,6.782-0.677,10.2c0.088,2.165,0.256,4.334,0.674,6.471
	c0.022,0.116,0.023,0.238,0.023,0.357c-0.012,2.87,0.498,5.734,0.22,8.598c-0.306,3.152-0.153,6.303-0.229,9.454
	c-0.002,0.114-0.055,0.228-0.093,0.376c-0.909,0.47-1.981,0.384-3.042,0.861c0.111,3.467,0.69,6.991,0.42,10.655
	c-1.081,0.736-2.377,0.87-3.67,0.956c-5.966,0.398-11.691-0.919-17.371-2.504c-3.475-0.97-6.884-2.142-10.243-3.461
	C228.979,164.522,228.33,163.861,227.703,162.975z M267.553,239.484c-0.521,0.094-0.559-0.332-0.701-0.568
	c-5.276-8.762-10.556-17.521-15.128-26.684c-1.972-3.953-3.509-8.063-4.898-12.252c-1.739-5.245-4.189-10.193-6.69-15.11
	c-2.886-5.673-6.031-11.205-9.229-16.706c-0.135-0.232-0.354-0.44-0.275-0.855c1.788,0.617,3.554,1.256,5.339,1.836
	c4.448,1.444,8.967,2.621,13.588,3.362c1.57,0.252,3.164,0.396,4.752,0.484c1.229,0.068,2.459,0.021,3.7-0.146
	c1.226-0.165,2.413-0.42,3.625-0.786c0.902,1.448,2.255,1.977,3.892,1.935c0.761-0.019,1.521-0.015,2.279,0.002
	c0.92,0.021,1.233,0.306,1.233,1.202c0,0.952,0.093,1.911-0.074,2.893c-1.103,0.566-2.86-0.086-3.28,1.826
	c0.338,0.502,0.239,1.146,0.244,1.774c0.008,1.561,0.463,2.052,1.991,2.142c0.116,0.007,0.229,0.044,0.581,0.115
	c-0.882,0.171-1.58,0.22-1.875,1.037c-0.244,0.672-0.25,1.285-0.085,1.967c0.224,0.919,0.138,1.88,0.317,2.82
	c0.138,0.722-0.246,1.001-1.103,1.031c-0.559,0.02-1.122,0.04-1.678-0.005c-0.579-0.047-1.05,0.347-1.629,0.287
	c-0.59,0.939-0.412,1.949-0.269,2.907c0.065,0.43,0.122,0.856,0.146,1.29c0.113,2.016,0.203,4.03,0.452,6.038
	c0.15,1.214,0.166,2.455,0.214,3.675c0.064,1.669,0.277,3.325,0.339,4.994c0.051,1.375,0.429,2.739,0.53,4.13
	c0.098,1.35,0.363,2.693,0.361,4.041c-0.004,1.725,0.27,3.425,0.29,5.143c0.005,0.482,0.156,0.936,0.472,1.24
	c1.682-0.146,3.278-0.288,5.088-0.445C269.305,229.343,268.374,234.413,267.553,239.484z M269.068,181.588
	c-0.506,0.16-0.895,0.137-1.301,0.042c-0.299-0.385-0.16-0.82-0.139-1.311c0.372-0.201,0.784-0.266,1.234-0.298
	C269.16,180.529,269.093,181.036,269.068,181.588z M269.046,242.457c0.465-2.691,0.948-5.421,1.405-8.154
	c0.453-2.721,0.883-5.445,1.322-8.169c0.104-0.014,0.207-0.026,0.312-0.041c2.13,7.308,4.261,14.616,6.419,22.019
	C274.914,248.141,270.501,246.135,269.046,242.457z M300.416,272.266c2.531,3.66,5.779,6.748,8.382,10.373
	c-0.756,0.762-1.567,0.764-2.332,0.903c-1.842,0.336-3.63,0.242-5.356-0.571c-1.993-0.943-3.805-2.15-5.459-3.606
	c-0.305-0.269-0.551-0.56-0.721-0.931c-0.883-1.906-1.764-3.813-2.518-5.777c-0.361-0.94-0.484-1.844,0.059-2.75
	c0.211-0.354,0.239-0.743,0.285-1.146c0.264-2.341,0.316-4.688,0.271-7.039c-0.004-0.185-0.06-0.39,0.234-0.666
	C295.116,265.167,297.898,268.625,300.416,272.266z M294.364,217.684c-0.263,2.219-0.405,4.449-0.591,6.676
	c-0.209,2.506-0.418,5.01-0.615,7.515c-0.201,2.547-0.395,5.093-0.583,7.642c-0.22,2.943-0.423,5.891-0.648,8.834
	c-0.116,1.515-0.192,3.034-0.241,4.545c-0.09,2.797-0.354,5.584-0.324,8.387c0.027,2.518-0.301,5.027-0.231,7.549
	c0.003,0.109-0.005,0.232-0.139,0.286c-0.14,0.036-0.241-0.043-0.291-0.148c-1.056-2.21-2.567-4.12-4.005-6.079
	c-2.032-2.771-3.129-5.984-4.213-9.183c-3.129-9.222-5.621-18.636-8.405-27.962c-0.685-2.287-0.761-4.626-0.968-6.961
	c-0.062-0.706-0.068-1.417-0.106-2.266c7.136-0.705,14.112-1.545,21.072-2.104C294.503,215.623,294.49,216.627,294.364,217.684z
	 M295.32,201.136c0.781-0.048,1.303,0.265,1.505,1.048c-0.204,0.779-0.729,1.063-1.502,1.088c-7.622,0.232-15.235,0.724-22.863,0.75
	c-0.479,0.002-0.96,0-1.437-0.045c-0.539-0.05-0.926-0.379-0.953-0.908c-0.031-0.6,0.375-0.936,0.955-1.029
	c0.235-0.039,0.477-0.049,0.715-0.057c6.585-0.209,13.17-0.408,19.755-0.625C292.771,201.314,294.046,201.215,295.32,201.136z
	 M273.159,191.054c5.596-0.375,11.122-0.531,16.724-0.787c0.064,0.905,0.098,1.644-0.238,2.422
	c-5.367,0.241-10.744,0.483-16.205,0.55C273.346,192.504,273.262,191.852,273.159,191.054z M291.021,164.473
	c0.443,0.126,0.787,0.398,0.812,0.917c0.025,0.502-0.234,0.818-0.671,1.031c-0.267,0.13-0.543,0.106-0.82,0.124
	c-2.708,0.168-5.418,0.319-8.125,0.511c-4.418,0.313-8.834,0.65-13.25,0.987c-0.538,0.041-1.04,0.049-1.403-0.439
	c-0.353-0.474-0.098-0.857,0.14-1.276c0.413-0.216,1.249-0.426,2.884-0.492c1.203,0.109,2.281-0.246,3.379-0.229
	c1.598,0.025,3.184-0.206,4.775-0.296c3.82-0.215,7.632-0.574,11.447-0.868C290.467,164.422,290.764,164.399,291.021,164.473z
	 M281.189,109.634c3.109,5.474,5.516,11.295,8.279,16.939c0.332,0.676,0.316,1.395,0.348,2.108
	c0.191,4.517,0.104,9.037,0.113,13.556c0.014,5.879,0.354,11.753,0.239,17.633c-0.01,0.51,0.085,1.031-0.132,1.662
	c-2.622-0.093-5.172,0.165-7.725,0.293c-4.451,0.223-8.867,0.807-13.191,1.957c-1.641,0.437-2.266,0.087-2.757-1.532
	c-0.597-1.964-0.669-4.011-0.671-6.033c-0.008-4.117,0.352-8.232,0.195-12.352c-0.094-2.468-0.38-4.923-0.609-7.382
	c-0.215-2.296-0.492-4.604-0.236-6.936c0.234-2.136,0.24-4.294,0.609-6.422c0.389-2.228,0.722-4.464,1.08-6.697
	c0.195-1.216,0.441-2.426,0.568-3.649c0.061-0.594,0.557-0.952,0.549-1.616c-0.02-1.676-0.455-3.222-1.088-4.734
	c-0.414-0.99-0.898-1.95-1.32-2.938c-0.118-0.277-0.363-0.547-0.146-1.052c3.511-1.146,5.317-4.285,7.397-7.326
	c1.268,2.152,2.42,4.101,3.562,6.054C277.907,103.988,279.576,106.795,281.189,109.634z"/>
</svg>
