<?xml version="1.0" encoding="utf-8"?>
<!-- Generator: Adobe Illustrator 16.2.1, SVG Export Plug-In . SVG Version: 6.00 Build 0)  -->
<!DOCTYPE svg PUBLIC "-//W3C//DTD SVG 1.1//EN" "http://www.w3.org/Graphics/SVG/1.1/DTD/svg11.dtd">
<svg version="1.1" id="RS_x5F_straps10a_xA0_Image_1_"
	 xmlns="http://www.w3.org/2000/svg" xmlns:xlink="http://www.w3.org/1999/xlink" x="0px" y="0px" width="528px" height="396px"
	 viewBox="0 0 528 396" enable-background="new 0 0 528 396" xml:space="preserve">
<g>
	<path d="M0.24,260.16c1.589-0.373,3.218-0.477,4.828-0.707c2.081-0.299,4.164-0.586,6.248-0.867
		c2.048-0.277,4.098-0.538,6.146-0.811c2.243-0.299,4.484-0.615,6.728-0.904c2.128-0.273,4.261-0.51,6.389-0.784
		c2.165-0.278,4.325-0.597,6.49-0.88c1.536-0.2,3.077-0.364,4.614-0.557c2.286-0.286,4.569-0.59,6.855-0.875
		c2.248-0.277,4.499-0.533,6.746-0.812c2.366-0.292,4.728-0.61,7.095-0.891c2.369-0.279,4.742-0.522,7.113-0.784
		c1.7-0.188,3.4-0.378,5.1-0.573c1.778-0.204,3.555-0.422,5.333-0.622c2.016-0.229,4.031-0.457,6.049-0.662
		c1.941-0.197,3.887-0.359,5.83-0.543c2.298-0.216,4.596-0.435,6.893-0.656c1.191-0.115,2.386-0.133,3.58-0.246
		c2.817-0.271,5.66-0.277,8.475-0.565c2.381-0.243,4.772-0.351,7.148-0.629c1.189-0.142,2.385-0.069,3.583-0.235
		c1.614-0.224,3.263-0.187,4.893-0.312c2.581-0.2,5.158-0.445,7.738-0.666c1.072-0.093,2.146-0.115,3.221-0.235
		c2.335-0.26,4.69-0.33,7.031-0.544c2.972-0.271,5.934-0.67,8.909-0.897c2.621-0.201,5.233-0.491,7.839-0.803
		c3.111-0.371,6.222-0.764,9.313-1.314c2.769-0.494,5.553-0.922,8.34-1.326c4.347-0.632,8.715-0.909,13.093-1.074
		c2.914-0.109,5.82,0.174,8.73,0.344c7.353,0.433,14.357,2.563,21.462,4.209c3.821,0.886,7.595,1.961,11.475,2.611
		c1.475,0.248,2.922,0.801,4.422,0.874c2.11,0.104,4.13-0.536,6.21-1.002c-0.718-0.825-2.514,0.133-2.533-1.619
		c0.309-0.358,0.65-0.207,0.944-0.187c3.146,0.221,6.298,0.39,9.432,0.723c1.478,0.157,2.953,0.279,4.418,0.174
		c5.286-0.382,9.684-2.408,12.557-7.088c0.125-0.205,0.422-0.404,0.19-0.812c-1.226,0.328-2.489,0.586-3.755,0.832
		c-0.714,0.14-1.429,0.078-2.141,0.197c-0.53,0.088-1.048-0.181-1.157-0.803c-0.117-0.675,0.257-1.025,0.889-1.189
		c1.231-0.318,2.5-0.403,3.746-0.648c3.892-0.766,6.914-2.826,9.506-5.766c4.343-4.922,7.974-10.349,11.507-15.844
		c2.197-3.418,4.635-6.662,6.985-9.968c1.522-2.141,1.79-4.306,0.853-6.753c-0.937-2.438-1.562-4.989-2.524-7.422
		c-0.638-1.609-1.201-3.253-1.933-4.819c-1.146-2.453-1.941-5.02-2.584-7.629c-0.341-1.385-1.193-2.199-2.418-2.525
		c-1.846-0.492-3.695-0.982-5.513-1.555c-1.553-0.489-3.114-0.923-4.688-1.326c-1.223-0.313-2.424-0.517-3.459,0.558
		c-0.281,0.293-0.772,0.384-1.193,0.58c-0.537,1.52-0.381,3.05-0.113,4.586c0.135,0.076,0.229,0.145,0.334,0.185
		c1.023,0.384,1.252,1.104,0.438,1.739c-1.844,1.437-2.184,3.425-1.897,5.48c0.418,3.009,1.618,5.787,3.122,8.424
		c0.077,0.135,0.197,0.245,0.329,0.404c1.422-0.347,2.81-0.845,4.261-1.013c1.145-0.133,2.287-0.38,3.449-0.214
		c0.531,0.076,1.043,0.202,1.119,0.936c-0.506,0.483-1.242,0.42-1.862,0.538c-6.184,1.171-12.096,3.068-17.506,6.356
		c-0.474,0.288-0.924,0.624-1.354,0.977c-0.398,0.325-0.755,0.702-1.17,1.096c-0.478-0.189-0.721-0.605-1.001-0.978
		c-2.036-2.694-3.032-5.832-3.809-9.052c-0.486-2.013-0.787-4.063-0.839-6.133c-0.072-2.896,0.476-5.688,1.587-8.367
		c0.208-0.501,0.506-0.952,0.323-1.581c-0.15-0.518,0.326-0.842,0.702-1.151c0.812-0.67,1.855-0.862,2.753-1.359
		c2.508-1.389,5.014-2.782,7.545-4.124c2.074-1.099,4.246-2.025,6.264-3.213c2.124-1.251,4.564-1.742,6.65-3.097
		c3.824-2.486,7.15-5.472,9.89-9.118c2.834-3.771,2.278-9.167,0.127-12.605c-0.841-1.344-2.048-2.145-3.756-2.167
		c-2.167-0.029-4.153,0.641-6.099,1.419c-6.187,2.479-12.027,5.602-17.465,9.479c-2.596,1.851-5.335,3.477-8.342,4.606
		c-2.574,0.968-5.271,1.472-7.939,2.053c-4.701,1.023-9.1,2.762-13.233,5.202c-7.455,4.4-14.464,9.462-21.514,14.465
		c-3.088,2.191-6.227,4.309-9.268,6.566c-2.593,1.926-5.075,3.993-7.601,6.004c-2.001,1.593-4.088,3.051-6.639,3.633
		c-2.183,0.498-4.384,0.718-6.635,0.475c-1.384-0.15-2.784-0.151-4.175-0.297c-2.135-0.225-4.274-0.4-6.404-0.677
		c-1.694-0.22-3.399-0.352-5.098-0.541c-1.777-0.198-3.552-0.416-5.328-0.627c-1.579-0.188-3.158-0.376-4.736-0.569
		c-2.405-0.294-4.809-0.594-7.213-0.888c-2.17-0.266-4.341-0.525-6.512-0.792c-2.209-0.271-4.418-0.54-6.626-0.822
		c-1.537-0.196-3.07-0.415-4.605-0.618c-2.284-0.303-4.567-0.608-6.852-0.898c-2.128-0.27-4.259-0.508-6.386-0.785
		c-2.205-0.288-4.404-0.613-6.608-0.906c-2.008-0.267-4.021-0.506-6.03-0.768c-2.283-0.297-4.563-0.609-6.846-0.907
		c-2.009-0.263-4.021-0.511-6.029-0.774c-2.284-0.299-4.565-0.616-6.849-0.912c-2.049-0.266-4.101-0.509-6.149-0.772
		c-2.285-0.293-4.567-0.608-6.853-0.894c-2.209-0.276-4.423-0.519-6.632-0.791c-2.327-0.287-4.65-0.599-6.976-0.886
		c-1.58-0.195-3.162-0.361-4.743-0.548c-1.813-0.215-3.625-0.448-5.44-0.659c-1.619-0.188-3.24-0.354-4.86-0.537
		c-1.896-0.215-3.79-0.445-5.686-0.655c-1.74-0.193-3.482-0.361-5.223-0.551c-1.938-0.211-3.873-0.442-5.81-0.65
		c-1.78-0.191-3.562-0.361-5.344-0.545c-2.097-0.217-4.193-0.445-6.291-0.655c-1.9-0.19-3.802-0.365-5.704-0.544
		c-2.378-0.223-4.757-0.446-7.136-0.664c-0.915-0.083-1.833-0.102-2.75-0.047c0-0.72,0-1.44,0-2.16
		c2.411,0.302,4.837,0.455,7.255,0.668c2.101,0.184,4.198,0.423,6.304,0.571c1.981,0.14,3.949,0.453,5.926,0.656
		c1.899,0.195,3.805,0.327,5.704,0.523c1.858,0.192,3.711,0.438,5.568,0.645c1.739,0.193,3.481,0.358,5.22,0.55
		c1.896,0.209,3.79,0.441,5.685,0.655c1.659,0.187,3.32,0.357,4.979,0.546c1.817,0.207,3.632,0.43,5.449,0.642
		c1.619,0.189,3.239,0.366,4.857,0.56c2.405,0.289,4.809,0.59,7.214,0.884c2.17,0.265,4.342,0.52,6.512,0.793
		c2.285,0.287,4.567,0.595,6.851,0.887c2.128,0.271,4.257,0.524,6.384,0.8c2.166,0.281,4.327,0.586,6.492,0.87
		c2.087,0.274,4.177,0.531,6.265,0.803c2.204,0.287,4.406,0.585,6.61,0.873c2.088,0.273,4.177,0.535,6.265,0.809
		c2.206,0.289,4.409,0.593,6.614,0.878c2.127,0.275,4.258,0.529,6.385,0.803c2.205,0.284,4.407,0.587,6.612,0.872
		c1.537,0.198,3.077,0.371,4.614,0.568c2.245,0.287,4.488,0.591,6.733,0.877c1.538,0.196,3.079,0.369,4.617,0.562
		c2.323,0.292,4.645,0.601,6.969,0.891c1.539,0.192,3.08,0.36,4.619,0.547c1.775,0.215,3.547,0.452,5.323,0.656
		c1.697,0.196,3.398,0.356,5.097,0.543c1.815,0.201,3.634,0.381,5.442,0.637c0.907,0.128,1.828,0.192,2.729,0.263
		c2.818,0.22,5.628,0.534,8.467,0.586c3.726,0.069,6.955-1.017,9.794-3.395c8.448-7.075,17.653-13.114,26.63-19.466
		c4.098-2.899,8.312-5.613,12.629-8.172c4.486-2.658,9.298-4.435,14.394-5.509c3.371-0.71,6.756-1.405,9.831-3.084
		c2.345-1.281,4.581-2.742,6.758-4.278c3.979-2.807,8.248-5.076,12.683-7.051c1.776-0.791,3.537-1.623,5.405-2.191
		c0.478-0.145,0.747-0.454,0.916-0.982c1.741-5.432,3.64-10.814,5.075-16.34c0.551-2.122,0.717-4.304,0.869-6.487
		c0.199-2.862,0.449-5.72,0.669-8.581c0.092-1.192,0.161-2.391,0.226-3.58c0.129-2.39,0.352-4.771,0.575-7.147
		c0.245-2.609,0.56-5.217,0.86-7.823c0.373-3.196,0.854-6.374,1.281-9.561c0.221-1.649,0.578-3.279,0.881-4.917
		c0.045-0.239,0.074-0.473-0.002-0.709c-0.25-0.397-0.685-0.547-1.064-0.746c-22.178-11.594-44.36-23.174-66.891-34.074
		c-4.042-1.956-8.212-3.647-12.148-5.827c-4.126-2.285-7.976-4.98-11.648-7.931c-4.618-3.71-8.884-7.799-12.876-12.169
		c-3.42-3.743-6.631-7.661-9.566-11.8c0.8,0,1.6,0,2.4,0c2.446,3.356,5.076,6.565,7.845,9.657c4.244,4.739,8.825,9.13,13.803,13.097
		c4.556,3.63,9.378,6.853,14.666,9.327c4.75,2.223,9.506,4.431,14.22,6.731c19.048,9.295,37.821,19.13,56.619,28.914
		c1.676,0.872,3.352,1.741,5.031,2.613c4.48-18.461,7.056-37.104,8.795-55.791c-0.318-0.321-0.523-0.572-0.771-0.771
		c-3.576-2.895-6.965-5.989-9.938-9.511c-1.12-1.328-2.324-2.612-2.989-4.266c0.72,0,1.44,0,2.16,0
		c3.229,4.579,7.274,8.346,11.726,12.028c0.49-4.174,0.655-8.109,0.994-12.028c0.721,0,1.44,0,2.16,0
		c-0.253,3.185-0.482,6.372-0.769,9.555c-0.187,2.068-0.285,4.148-0.538,6.205c-0.398,3.246-0.682,6.503-1.096,9.746
		c-0.438,3.439-0.807,6.888-1.271,10.323c-0.41,3.035-0.924,6.056-1.369,9.086c-0.585,3.974-1.271,7.931-2.078,11.864
		c-0.871,4.241-1.882,8.455-2.701,12.705c-1.101,5.691-2.043,11.409-2.729,17.171c-0.396,3.319-0.771,6.64-1.108,9.964
		c-0.297,2.933-0.52,5.878-0.714,8.82c-0.237,3.623-0.442,7.248-0.743,10.868c-0.201,2.43-0.512,4.826-1.191,7.178
		c-1.229,4.245-2.668,8.422-4.01,12.63c-0.16,0.502-0.496,1.002-0.25,1.657c0.516,0,1.031-0.007,1.547,0.001
		c1.955,0.031,3.576,0.78,4.777,2.333c3.002,3.881,3.983,10.607,0.615,15.362c-3.492,4.932-7.964,8.696-13.341,11.414
		c-0.742,0.375-1.573,0.559-2.274,1.026c-0.154,0.584-0.389,1.138-0.203,1.723c0.42,0.126,0.797,0.116,1.121-0.002
		c0.769-0.278,1.498-0.125,2.229,0.087c7.878,2.279,15.753,4.565,23.631,6.844c1.979,0.572,3.964,1.125,5.894,1.671
		c0.314-0.335,0.371-0.64,0.433-0.96c0.405-2.109,0.815-4.217,1.248-6.321c1.573-7.675,3.168-15.346,4.731-23.023
		c1.246-6.119,2.447-12.248,3.692-18.367c1.556-7.645,3.146-15.283,4.704-22.926c1.584-7.761,3.154-15.525,4.722-23.29
		c1.402-6.95,2.798-13.9,4.183-20.853c1.336-6.72,2.666-13.441,3.978-20.166c1.091-5.594,2.164-11.191,3.218-16.792
		c1.264-6.737,2.52-13.476,3.733-20.223c0.315-1.76,0.722-3.513,0.812-5.31c0.719,0,1.439,0,2.159,0
		c-0.122,2.077-0.589,4.102-0.956,6.141c-1.143,6.313-2.269,12.631-3.451,18.937c-1.146,6.111-2.352,12.21-3.537,18.312
		c-1.065,5.476-2.127,10.952-3.215,16.423c-1.145,5.745-2.317,11.483-3.48,17.224c-1.645,8.121-3.287,16.242-4.938,24.361
		c-1.312,6.442-2.636,12.881-3.953,19.322c-1.656,8.113-3.326,16.225-4.961,24.342c-0.432,2.14-1.024,4.259-0.742,6.5
		c0.296,2.336,0.354,4.696,0.621,7.04c0.412,3.608,0.942,7.189,1.959,10.682c0.513,1.765,1.129,3.492,2.186,5.022
		c0.875,1.27,1.999,1.95,3.629,1.886c3.167-0.123,6.256-0.687,9.26-1.617c5.207-1.613,10.271-3.648,15.402-5.481
		c2.512-0.897,5.044-1.747,7.385-3.052c0.653-0.364,1.314-0.749,1.602-1.554c-0.547-0.906-1.393-1.091-2.355-1.089
		c-2.547,0.003-4.982-0.497-7.265-1.671c-2.373-1.222-3.912-3.036-4.431-5.734c-0.535-2.798-0.32-5.565,0.151-8.317
		c0.761-4.439,2.099-8.722,3.729-12.917c0.348-0.894,0.631-1.801,1.482-2.39c0.291-0.201,0.411-0.58,0.518-0.929
		c0.424-1.403,1.107-2.724,1.244-4.22c0.119-1.318,0.772-2.519,1-3.796c0.326-1.839,0.394-3.725,0.569-5.591
		c0.185-1.945,0.354-3.892,0.552-5.835c0.205-2.021,0.44-4.04,0.645-6.062c0.271-2.697,0.505-5.397,0.792-8.093
		c0.271-2.536,0.596-5.065,0.886-7.599c0.346-3.008,0.639-6.023,1.026-9.025c0.5-3.869,1.097-7.726,1.604-11.594
		c0.618-4.695,1.374-9.371,2.246-14.022c1.288-6.871,2.692-13.721,4.219-20.547c2.121-9.499,4.475-18.94,6.938-28.355
		c0.584-2.231,1.322-4.424,1.722-6.703c0.72,0,1.439,0,2.16,0c-0.104,0.503-0.183,1.014-0.317,1.507
		c-2.818,10.158-5.437,20.367-7.789,30.643c-0.297,1.301-1.023,2.656-0.1,4.019c0.059,0.085,0.023,0.235,0.029,0.354
		c0.16,4.712,0.415,9.424,0.455,14.137c0.048,5.837,0.217,11.675,0.046,17.513c-0.021,0.754,0.19,1.395,0.633,2.007
		c0.91,1.259,1.787,2.542,2.653,3.831c3.139,4.671,5.878,9.554,7.847,14.844c1.203,3.236,1.96,6.604,2.922,9.911
		c1.548,5.318,3.772,10.367,5.938,15.443c0.061,0.141,0.103,0.396,0.434,0.331c0-0.629,0-1.267,0-1.905
		c0.007-22.632-0.175-45.266,0.129-67.897c0.105-7.837,0.014-15.675,0.125-23.511c0.102-7.076,0.287-14.151,0.196-21.229
		c0.72,0,1.438,0,2.159,0c-0.252,1.746-0.223,3.507-0.233,5.263c-0.038,6.359,0.077,12.722-0.082,19.077
		c-0.312,12.397-0.04,24.796-0.263,37.192c-0.274,15.237-0.167,30.476-0.084,45.713c0.02,3.677,0.343,7.354-0.07,11.025
		c-0.21,1.866,0.505,3.507,1.094,5.193c0.838,2.391,1.692,4.774,2.076,7.299c0.354,2.314,0.43,4.63-0.365,6.841
		c-1.146,3.194-1.716,6.508-2.289,9.822c-0.662,3.829-1.443,7.625-2.382,11.397c-1.061,4.262-1.95,8.566-2.937,12.847
		c-0.411,1.782-0.885,3.552-1.862,5.129c-0.548,0.882-0.571,1.902-0.731,2.865c-0.783,4.653-1.474,9.321-2.231,13.977
		c-0.581,3.563-1.228,7.115-1.819,10.677c-0.164,0.981-0.168,1.983-0.271,2.976c-0.26,2.495-0.342,5.01-0.538,7.513
		c-0.197,2.503-0.522,4.997-0.646,7.502c-0.072,1.477-0.213,2.944-0.31,4.415c-0.179,2.703-0.438,5.401-0.662,8.101
		c-0.099,1.191-0.122,2.385-0.244,3.58c-0.276,2.694-0.336,5.411-0.54,8.115c-0.277,3.695-0.671,7.385-0.888,11.082
		c-0.089,1.514-0.226,3.021-0.312,4.536c-0.158,2.784-0.44,5.562-0.646,8.343c-0.054,0.715-0.008,1.436-0.008,2.282
		c0.782,0.676,1.829,1.176,2.788,1.796c7.686,4.973,14.572,10.896,20.794,17.582c6.836,7.35,12.507,15.503,16.587,24.712
		c2.226,5.023,3.854,10.239,4.868,15.631c0.938,4.995,1.252,10.062,0.958,15.127c-0.447,7.719-2.414,14.961-7.188,21.24
		c-3.712,4.884-8.506,8.354-14.062,10.829c-4.668,2.079-9.559,3.351-14.61,4.1c-4.869,0.723-9.76,1.072-14.668,0.892
		c-3.54-0.131-7.077-0.401-10.603-0.863c-5.477-0.718-10.858-1.797-16.149-3.383c-3.673-1.102-7.117-2.717-10.528-4.423
		c-5.918-2.959-11.608-6.31-17.045-10.079c-7.143-4.953-13.748-10.537-19.546-17.032c-6.175-6.92-11.229-14.569-14.688-23.206
		c-1.965-4.909-3.396-9.973-4.158-15.224c-0.373-2.566-0.521-5.146-0.773-7.719c-0.25-2.537-0.099-5.045,0.141-7.531
		c0.503-5.217,1.937-10.195,4.496-14.813c2.312-4.172,5.352-7.731,9.031-10.747c6.973-5.717,15.11-8.977,23.745-11.132
		c3.697-0.923,7.453-1.547,11.248-1.981c2.978-0.342,5.962-0.457,8.943-0.668c0.194-0.015,0.39-0.045,0.636-0.073
		c0.771-2.261,1.396-4.554,2.27-6.765c2.158-5.469,3.699-11.121,4.957-16.855c0.918-4.18,1.772-8.372,2.537-12.583
		c0.702-3.86,1.436-7.717,2.106-11.583c0.61-3.518,1.14-7.047,1.739-10.565c0.508-2.969,1.062-5.929,1.604-8.892
		c0.059-0.317,0.131-0.625-0.113-1.026c-3.224-0.611-5.36-2.946-7.416-5.22c-3.521,0.306-6.75-0.202-9.863-2.124
		c-0.573,2.106-0.859,4.222-1.135,6.317c0.146,0.131,0.222,0.236,0.321,0.282c3.612,1.654,4.778,5.585,4.229,9.294
		c-0.987,6.693-3.043,13.11-5.012,19.554c-1.469,4.808-2.849,9.644-4.256,14.471c-0.464,1.593-0.923,1.942-2.592,1.712
		c-1.414-0.195-2.818-0.46-4.223-0.724c-0.756-0.144-1.174-0.687-1.288-1.401c-0.077-0.475-0.229-0.914-0.36-1.402
		c-0.557-0.137-1.111-0.035-1.645-0.051c-5.133,4.553-10.436,8.838-15.807,13.035c-6.029,4.71-12.217,9.211-18.47,13.621
		c-4.418,3.115-8.538,6.596-12.161,10.614c-1.945,2.159-3.751,4.452-5.551,6.737c-2.49,3.164-5.769,5.049-9.569,6.156
		c-3.021,0.881-6.112,1.323-9.23,1.699c-8.802,1.062-17.635,0.7-26.458,0.63c-3.35-0.026-6.703-0.274-10.054-0.442
		c-3.624-0.184-7.247-0.426-10.862-0.729c-2.979-0.252-5.958-0.476-8.937-0.718c-3.298-0.27-6.596-0.504-9.897-0.729
		c-3.661-0.25-7.322-0.482-10.983-0.718c-3.742-0.239-7.484-0.473-11.225-0.722c-3.381-0.227-6.767-0.426-10.142-0.719
		c-3.412-0.299-6.83-0.523-10.24-0.859c-2.137-0.211-4.285-0.389-6.428-0.564c-2.652-0.22-5.29-0.621-7.94-0.877
		c-2.138-0.205-4.264-0.492-6.393-0.767c-2.676-0.345-5.344-0.74-8.012-1.147c-2.901-0.442-5.789-0.953-8.676-1.479
		c-6.048-1.104-12.022-2.515-17.937-4.19c-8.381-2.375-16.17-6.117-23.794-10.246c-0.525-0.285-1.051-0.57-1.56-0.884
		c-0.509-0.313-1.057-0.358-1.618-0.278c-3.855,0.554-7.73,0.949-11.592,1.446c-4.374,0.563-8.747,1.125-13.123,1.671
		c-3.349,0.416-6.685,0.94-10.032,1.383c-2.717,0.358-5.444,0.646-8.162,1.004c-2.635,0.349-5.262,0.757-7.896,1.121
		c-1.494,0.205-2.992,0.377-4.488,0.562C0.24,261.439,0.24,260.8,0.24,260.16z M331.385,277.412
		c-0.586-0.232-1.031-0.215-1.468-0.206c-2.791,0.055-5.565,0.25-8.332,0.667c-3.675,0.555-7.218,1.52-10.552,3.165
		c-7.453,3.677-11.461,9.762-12.209,17.962c-0.309,3.376-0.124,6.784,0.468,10.135c0.896,5.062,2.425,9.929,4.718,14.542
		c3.783,7.61,9.053,14.062,15.417,19.634c7.496,6.562,15.902,11.689,25.099,15.494c9.162,3.791,18.697,5.991,28.621,6.541
		c3.812,0.212,7.562-0.013,11.278-0.787c3.234-0.674,6.24-1.922,8.8-4.053c4.009-3.339,5.703-7.841,6.117-12.874
		c0.215-2.619,0.147-5.255-0.171-7.888c-0.343-2.842-0.844-5.646-1.606-8.399c-2.784-10.032-8.084-18.616-15.18-26.141
		c-4.869-5.165-10.34-9.611-16.424-13.271c-1.386-0.834-2.615-1.925-4.172-2.485c-9.508-3.437-19.006-6.896-28.518-10.322
		C332.359,278.796,331.604,278.398,331.385,277.412z M274.857,244.07c-0.361,0-0.604-0.022-0.838,0.005
		c-2.375,0.274-4.744,0.61-7.123,0.821c-1.426,0.125-2.682,0.64-3.967,1.188c-1.761,0.754-3.606,1.2-5.539,1.374
		c-2.25,0.203-4.463,0.027-6.688-0.229c-0.629-0.07-1.253-0.061-1.895,0.113c-1.879,0.512-3.777,0.954-5.67,1.414
		c-2.896,0.705-5.792,1.045-8.726,0.146c-1.113-0.34-2.289-0.383-3.442-0.256c-1.746,0.193-3.493,0.344-5.242,0.498
		c-3.934,0.346-7.861,0.78-11.795,1.123c-4.932,0.429-9.866,0.842-14.804,1.186c-6.377,0.443-12.756,0.888-19.14,1.189
		c-7.788,0.369-15.58,0.643-23.381,0.549c-4.32-0.051-8.633-0.223-12.913-0.797c-5.217-0.699-10.371-1.754-15.494-2.973
		c-1.504-0.357-2.982-0.941-4.572-0.843c-2.95,0.183-5.9,0.372-8.85,0.576c-3.068,0.213-6.135,0.444-9.203,0.67
		c-2.43,0.178-4.863,0.323-7.29,0.542c-3.816,0.346-7.628,0.736-11.442,1.115c-3.376,0.336-6.753,0.658-10.125,1.031
		c-4.759,0.526-9.514,1.09-14.269,1.646c-0.634,0.074-1.26,0.213-1.887,0.322c0.094,0.304,0.24,0.367,0.381,0.441
		c6.099,3.244,12.293,6.274,18.889,8.396c5.881,1.891,11.87,3.357,17.925,4.576c4.647,0.936,9.314,1.734,14.01,2.379
		c3.32,0.455,6.634,0.953,9.96,1.354c3.289,0.396,6.587,0.708,9.884,1.031c2.901,0.285,5.804,0.544,8.708,0.795
		c2.586,0.225,5.173,0.438,7.762,0.628c2.789,0.207,5.58,0.386,8.37,0.573c3.148,0.212,6.297,0.428,9.446,0.629
		c3.07,0.197,6.143,0.365,9.213,0.572c2.79,0.188,5.576,0.42,8.365,0.621c3.704,0.268,7.41,0.51,11.113,0.791
		c3.663,0.277,7.319,0.668,10.986,0.867c3.71,0.199,7.418,0.452,11.134,0.581c6.155,0.214,12.304,0.429,18.466,0.259
		c6.113-0.168,12.199-0.49,18.203-1.77c4.66-0.991,8.547-3.148,11.439-7.049c1.758-2.372,3.57-4.725,5.699-6.785
		c1.133-1.096,1.764-2.378,2.195-3.868c0.938-3.228,1.452-6.526,1.829-9.847C274.749,247.855,274.945,246.027,274.857,244.07z
		 M362.954,64.228c-0.599,2.843-0.894,5.481-1.276,8.103c-0.294,2.004-0.479,4.024-0.791,6.025
		c-0.365,2.355-0.609,4.725-0.897,7.089c-0.198,1.619-0.375,3.241-0.562,4.861c-0.213,1.855-0.434,3.709-0.634,5.565
		c-0.196,1.82-0.366,3.644-0.558,5.464c-0.211,2.016-0.44,4.03-0.645,6.047c-0.195,1.94-0.354,3.885-0.552,5.826
		c-0.202,1.979-0.537,3.95-0.628,5.933c-0.135,2.97-1.005,5.774-1.667,8.629c-0.269,1.153-0.972,2.085-1.444,3.132
		c-0.654,1.453-1.001,2.995-1.513,4.487c-0.487,1.424-1.075,2.814-1.543,4.244c-1.576,4.815-2.804,9.707-2.47,14.827
		c0.176,2.694,0.762,4.354,3.88,5.698c1.295,0.558,2.626,0.93,4.004,1.08c2.581,0.282,5.096,0.088,7.315-1.474
		c0.982-0.691,1.586-1.521,1.676-2.84c0.136-1.968-0.029-3.918-0.149-5.861c-0.081-1.312-0.073-2.634-0.221-3.942
		c-0.416-3.714-0.324-7.432,0.385-11.08c1.254-6.459,3.205-12.738,5.354-18.953c0.408-1.179,0.826-1.553,1.479-1.36
		c0.688,0.204,0.854,0.882,0.452,2.036c-1.382,3.962-2.585,7.978-3.716,12.017c-1.354,4.843-2.266,9.737-2.035,14.809
		c0.07,1.595,0.185,3.186,0.273,4.779c0.111,1.99,0.293,3.978,0.357,5.969c0.107,3.308-0.312,4.927-3.534,6.646
		c-0.657,0.35-1.347,0.641-1.993,0.946c-0.074,0.239,0.078,0.336,0.15,0.463c0.719,1.277,0.63,2.059-0.344,3.134
		c-0.516,0.568-1.114,1.032-1.764,1.43c-0.869,0.533-1.832,0.877-2.621,1.595c-0.418,0.381-1.072,0.684-1.746,0.651
		c-0.992-0.047-1.774,0.449-2.649,0.913c1.231,2.117,2.489,4.086,4.03,5.871c1.25,1.45,2.752,1.762,4.617,1.445
		c2.703-0.458,5.424-0.865,8.189-0.83c3.279,0.042,6.559-0.005,9.839,0.018c0.888,0.006,1.737-0.208,2.597-0.348
		c1.19-0.193,1.953-0.975,2.418-2.079c0.526-1.248,0.869-2.549,1.195-3.858c0.854-3.418,1.424-6.899,2.312-10.311
		c1.197-4.603,2.229-9.239,2.994-13.939c0.498-3.046,0.988-6.103,2.074-9.027c0.922-2.485,1.029-5.036,0.375-7.622
		c-1.478-5.818-3.608-11.412-5.939-16.922c-1.951-4.612-3.876-9.224-5.312-14.028c-0.896-3-1.582-6.06-2.606-9.021
		c-1.056-3.05-2.556-5.899-3.945-8.803c-1.396-2.914-3.065-5.665-4.604-8.493c-0.215-0.396-0.567-0.664-0.912-0.939
		c-0.998-0.799-1.871-1.705-2.631-2.749C365.777,67.774,364.439,66.136,362.954,64.228z M353.087,188.23
		c-0.21,0.226-0.262,0.411-0.296,0.614c-0.259,1.565-0.521,3.13-0.792,4.693c-0.692,3.985-1.397,7.967-2.083,11.953
		c-0.598,3.479-1.126,6.974-1.771,10.445c-0.892,4.793-1.819,9.58-2.812,14.354c-1.02,4.893-2.078,9.785-3.768,14.497
		c-2.303,6.427-4.58,12.854-5.963,19.56c-0.857,4.16-1.59,8.342-1.974,12.764c9.61,3.496,19.24,7.002,28.968,10.541
		c0.047-0.869,0.027-1.514,0.123-2.137c0.526-3.426,1.508-6.731,2.73-9.965c3.14-8.296,5.287-16.861,7.06-25.535
		c0.747-3.652,1.421-7.318,2.075-10.986c0.501-2.812,0.816-5.654,1.287-8.473c0.378-2.271,0.6-4.561,1.02-6.828
		c0.426-2.308,0.389-4.682,0.613-7.022c0.331-3.45,0.479-6.919,0.783-10.372c0.08-0.909,0.141-1.828,0.287-2.73
		c0.273-1.683,0.587-3.357,0.872-5.037c0.626-3.678,1.247-7.356,1.86-11.037c0.192-1.158,0.353-2.323,0.551-3.647
		c-1.121,0.703-2.09,1.297-3.194,1.651c-3.677,1.177-7.49,1.373-11.293,1.658c-2.104,0.158-4.197,0.402-6.294,0.622
		c-2.291,0.24-4.578,0.71-6.904,0.377C353.818,188.136,353.457,188.099,353.087,188.23z M131.57,248.075
		c3.747,0.821,7.403,1.498,11.086,2.073c3.12,0.486,6.257,0.75,9.394,0.863c4.194,0.152,8.398,0.033,12.598,0.051
		c4.877,0.019,9.743-0.306,14.614-0.465c2.116-0.07,4.226-0.25,6.34-0.328c1.389-0.053,2.79-0.111,4.182-0.218
		c2.822-0.213,5.641-0.465,8.463-0.667c2.665-0.189,5.34-0.261,7.994-0.537c1.114-0.117,2.229-0.145,3.34-0.25
		c2.417-0.233,4.836-0.457,7.256-0.664c2.144-0.186,4.298-0.277,6.43-0.55c0.77-0.098,1.585-0.079,2.407-0.25
		c-0.193-0.342-0.382-0.378-0.581-0.427c-4.46-1.094-8.906-2.249-13.38-3.277c-5.361-1.231-10.794-1.981-16.309-2.004
		c-2.439-0.009-4.886-0.089-7.315,0.075c-2.896,0.194-5.792,0.438-8.673,0.86c-2.354,0.345-4.707,0.693-7.051,1.099
		c-3.012,0.521-6.029,1.003-9.068,1.343c-1.542,0.172-3.083,0.354-4.625,0.53c-2.096,0.237-4.191,0.476-6.292,0.658
		c-1.984,0.174-3.969,0.345-5.952,0.532c-2.219,0.209-4.432,0.507-6.656,0.635c-2.388,0.137-4.757,0.519-7.154,0.523
		C132.297,247.686,131.99,247.777,131.57,248.075z M287.493,218.957c1.146-0.051,2.024-0.031,2.887-0.139
		c2.55-0.316,5.114-0.262,7.653-0.092c2.146,0.143,4.281,0.422,6.441,0.406c2.396-0.017,4.801,0.096,7.19-0.033
		c1.629-0.09,2.708,0.396,3.24,1.961c0.021,0.062,0.116,0.099,0.198,0.162c1.719-0.464,3.547-0.231,5.416-0.689
		c0.346-4.217,0.89-8.383,1.153-12.713c-8.918,0.056-17.687-0.365-26.437-0.205C292.439,211.198,290.035,214.949,287.493,218.957z
		 M268.505,172.048c-2.952,1.609-5.95,3.238-8.941,4.88c-0.318,0.174-0.522,0.474-0.691,0.804c-1.21,2.361-1.903,4.865-2.083,7.509
		c-0.17,2.484,0.202,4.925,0.754,7.328c0.569,2.473,1.308,4.901,2.642,7.098c0.182,0.299,0.301,0.665,0.854,0.763
		c3.173-2.128,6.828-3.565,10.293-5.401c-0.503-0.727-0.462-1.645-1.409-2.033c0.598-0.421,0.182-0.797,0.034-1.116
		c-0.618-1.338-1.097-2.718-1.458-4.143c-0.662-2.606-0.854-5.175,0.546-7.635c0.228-0.399,0.185-0.812,0.125-1.268
		c-0.219-1.707-0.254-3.438-0.008-5.132C269.271,172.953,269.221,172.488,268.505,172.048z M341.104,175.062
		c-0.112,0.396,0.004,0.555,0.101,0.733c1.116,2.075,2.442,4.007,3.926,5.837c0.938,1.156,1.997,2.169,3.211,3.023
		c1.89,1.33,4.108,1.427,6.28,1.576c2.677,0.183,5.311-0.369,7.962-0.661c3.679-0.406,7.39-0.487,11.062-0.999
		c1.965-0.274,3.924-0.578,5.719-1.495c1.49-0.762,2.248-2.006,2.433-3.744c-2.219,0.246-4.354,0.234-6.493,0.198
		c-4.709-0.079-9.4,0.02-14.062,0.883c-2.748,0.509-5.087-0.304-6.819-2.68c-1.221-1.675-2.434-3.348-3.49-5.129
		c-0.184-0.308-0.312-0.648-0.842-0.832C347.158,172.845,344.115,173.96,341.104,175.062z M296.809,194.131
		c0.297,0,0.496,0.023,0.688-0.004c2.772-0.391,5.577-0.236,8.362-0.361c3.343-0.15,6.69-0.419,10.045-0.326
		c0.539,0.015,1.115,0.052,1.634-0.369c-0.118-1.458-0.235-2.905-0.365-4.501c-7.383,0.195-14.666,0.389-22.088,0.585
		C295.572,190.922,296.107,192.549,296.809,194.131z M367.662,66.829c0.139-8.349-0.107-16.445-0.518-24.542
		c-1.484,6.566-2.877,13.127-3.844,19.605C365.075,63.328,365.956,65.286,367.662,66.829z M373.372,271.816
		c0.576-7.892,1.134-15.535,1.69-23.18c-1.715,7.125-3.244,14.279-5.518,21.321C370.814,270.575,372.01,271.154,373.372,271.816z
		 M275.186,236.828c-0.563-0.479-1.205-0.332-1.759-0.498c-0.834-0.251-1.233,0.048-1.561,0.794
		c-0.753,1.715-1.743,3.29-2.956,4.726c-0.186,0.219-0.549,0.357-0.442,0.848c2.177-0.303,4.378-0.426,6.593-0.863
		C275.043,240.094,275.334,238.439,275.186,236.828z M334.021,177.408c0.133,0.853,0.533,1.302,1.07,1.685
		c1.272,0.905,2.77,1.136,4.243,1.375c0.771,0.125,1.58,0.533,2.474,0.077c-0.996-1.593-1.953-3.121-2.924-4.671
		C337.229,176.396,335.662,176.891,334.021,177.408z"/>
</g>
</svg>
