<?xml version="1.0" encoding="utf-8"?>
<!-- Generator: Adobe Illustrator 16.2.1, SVG Export Plug-In . SVG Version: 6.00 Build 0)  -->
<!DOCTYPE svg PUBLIC "-//W3C//DTD SVG 1.1//EN" "http://www.w3.org/Graphics/SVG/1.1/DTD/svg11.dtd">
<svg version="1.1" id="RS_x5F_straps09a_xA0_Image_1_"
	 xmlns="http://www.w3.org/2000/svg" xmlns:xlink="http://www.w3.org/1999/xlink" x="0px" y="0px" width="528px" height="396px"
	 viewBox="0 0 528 396" enable-background="new 0 0 528 396" xml:space="preserve">
<path d="M3.12,0.24C3.018,1.245,3.297,2.222,3.396,3.207c0.277,2.775,0.456,5.556,0.703,8.331c0.336,3.782,0.417,7.571,0.578,11.358
	c0.185,4.32-0.997,8.183-4.116,11.319C0.49,34.286,0.349,34.287,0.24,34.32c0-0.96,0-1.92,0-2.88
	c1.032-0.999,1.545-2.287,1.922-3.622c0.829-2.936,0.533-5.942,0.389-8.918c-0.156-3.225-0.275-6.453-0.604-9.669
	C1.729,7.094,1.689,4.935,1.39,2.811C1.27,1.96,1.418,1.039,0.96,0.24C1.68,0.24,2.4,0.24,3.12,0.24z"/>
<path d="M414.72,0.24c-0.209,0.947-0.765,1.738-1.188,2.586c-5.093,10.212-10.229,20.401-15.78,30.376
	c-4.113,7.388-8.236,14.773-11.896,22.402c-2.346,4.889-4.457,9.888-6.877,14.744c-0.838,1.681-1.797,3.288-2.787,4.882
	c-1.303,2.104-3.26,2.86-5.606,2.744c-1.874-0.093-3.718-0.42-5.504-1.031c-0.47-0.161-0.87-0.366-1.14-0.805
	c-2.125-3.478-4.59-6.718-6.998-9.999c-0.139-0.188-0.238-0.404-0.305-0.518c-0.048-0.467,0.191-0.713,0.356-0.974
	c2.051-3.233,4.081-6.479,6.18-9.68c2.024-3.086,3.476-6.451,4.858-9.84c3.374-8.26,6.902-16.452,10.549-24.595
	c2.948-6.586,5.691-13.263,8.691-19.829c0.062-0.139,0.059-0.308,0.086-0.463c-0.721,0-1.44,0-2.16,0
	c-1.506,3.439-3.021,6.874-4.516,10.318c-2.5,5.761-4.976,11.533-7.483,17.29c-2.289,5.252-4.535,10.523-6.728,15.817
	c-1.412,3.409-2.779,6.85-4.807,9.968c-1.65,2.537-3.273,5.09-4.934,7.62c-0.518,0.789-0.856,1.706-1.59,2.353
	c-0.471-0.198-0.686-0.599-0.943-0.935c-1.411-1.835-2.86-3.64-4.393-5.376c-0.998-1.131-1.776-1.359-3.175-0.847
	c-0.823,0.301-1.592,0.722-2.352,1.159c-2.386,1.374-4.64,2.949-6.872,4.549c-5.271,3.779-10.438,7.708-15.764,11.406
	c-9.994,6.938-19.537,14.454-28.937,22.167c-4.159,3.414-8.431,6.687-12.917,9.673c-3.242,2.158-6.127,4.728-8.568,7.774
	c-0.347,0.432-0.584,0.957-1.072,1.237c-0.1,0-0.182,0.019-0.252-0.003c-0.721-0.213-1.469-0.366-2.15-0.665
	c-2.479-1.084-4.93-0.825-7.437-0.084c-3.075,0.91-6.16,1.788-9.337,2.302c-2.354,0.381-4.231,1.528-5.516,3.594
	c-0.398,0.64-0.875,1.24-1.377,1.802c-2.235,2.5-4.494,4.98-6.742,7.47c-0.19,0.21-0.387,0.403-0.659,0.485
	c-1.429-0.168-2.85-0.329-4.274-0.47c-2.409-0.239-4.804-0.609-7.208-0.896c-2.92-0.348-5.849-0.626-8.764-1.008
	c-3.226-0.422-6.442-0.924-9.662-1.395c-3.377-0.494-6.762-0.943-10.127-1.504c-3.36-0.561-6.702-1.237-10.051-1.862
	c-5.258-0.98-10.476-2.15-15.605-3.661c-7.048-2.075-14.233-3.506-21.464-4.72c-3.6-0.604-7.22-1.091-10.848-1.524
	c-2.726-0.326-5.457-0.621-8.188-0.868c-3.341-0.302-6.701-0.343-10.06-0.271c-1.953,0.042-3.915,0.087-5.848-0.28
	c-4.504-0.856-8.451-2.832-11.577-6.203c-5.021-5.415-10.823-9.904-16.662-14.359c-1.102-0.84-2.2-1.685-3.428-2.626
	c1.226-0.297,2.275-0.506,3.296-0.81c1.785-0.532,3.396-1.35,4.477-2.969c1.108-1.66,1.588-3.552,1.887-5.468
	c0.19-1.217,0.758-1.955,1.827-2.418c0.364-0.158,0.71-0.354,1.069-0.522c1.813-0.855,3.313-2.07,4.292-3.843
	c0.291-0.528,0.718-0.822,1.221-1.078c1.672-0.851,3.183-1.947,4.669-3.081c1.059-0.808,1.592-1.667,1.194-3.161
	c-0.486-1.823,0.235-2.578,2.097-2.97c1.299-0.273,2.533,0.062,3.79,0.215c1.099,0.134,2.151,0.707,3.275,0.511
	c1.871-0.326,3.438-1.265,4.649-2.725c0.67-0.809,1.025-1.749,1.026-2.854c0.003-2.081-0.257-4.13-0.47-6.192
	c-0.372-3.601-0.763-7.198-1.183-10.793c-0.105-0.896-0.333-1.802-0.248-2.884c0.375-0.335,0.853-0.706,1.265-1.139
	c1.859-1.952,3.372-4.112,4.235-6.71c2.33-7.006,3.722-14.238,5.259-21.437c0.504-2.364,0.97-4.735,1.454-7.103
	c-0.72,0-1.44,0-2.16,0c-0.015,0.317,0.011,0.643-0.051,0.951c-0.281,1.397-0.609,2.785-0.881,4.184
	c-1.049,5.398-2.225,10.767-3.557,16.103c-0.702,2.81-1.678,5.538-2.458,8.315c-0.688,2.447-2.167,4.134-3.961,5.676
	c-0.997,0.857-2.111,1.579-3.176,2.355c-0.946,0.689-1.739,1.493-2.137,2.771c1.721-0.337,2.832-1.677,4.472-2.301
	c-0.101,2.151,0.348,4.059,0.502,6c0.145,1.821,0.446,3.629,0.629,5.448c0.21,2.099,0.372,4.203,0.541,6.306
	c0.032,0.395-0.025,0.775-0.175,1.167c-0.742,1.947-3.088,3.232-5.136,2.708c-1.746-0.446-3.503-0.737-5.308-0.623
	c-3.277,0.207-4.593,2.306-4.283,4.831c0.058,0.47,0.104,0.953-0.062,1.548c-3.575,2.672-7.234,5.349-12.01,5.878
	c1.174,1.24,2.603,0.429,3.882,0.623c0.067,0.315-0.208,0.39-0.378,0.535c-1.052,0.89-2.375,1.293-3.547,1.971
	c-1.117,0.646-1.723,1.606-2.017,2.82c-0.261,1.078-0.372,2.184-0.707,3.251c-0.669,2.136-1.987,3.569-4.177,4.193
	c-1.882,0.536-3.812,0.768-5.744,0.967c-3.792,0.392-7.174-0.886-10.192-2.979c-2.027-1.407-4.169-2.48-6.433-3.359
	c-4.262-1.654-8.251-1.049-11.991,1.539c-2.794,1.933-5.045,4.432-7.16,7.027c-4.324,5.307-9.34,9.854-14.912,13.773
	c-7.181,5.05-13.895,10.701-20.908,15.965c-2.834,2.127-5.569,4.377-8.266,6.676c0,0.8,0,1.6,0,2.4
	c0.106-0.049,0.235-0.074,0.315-0.151c2.99-2.833,6.335-5.226,9.586-7.735c3.031-2.34,6.067-4.672,9.071-7.044
	c0.594-0.469,1.061-0.591,1.698-0.118c0.572,0.424,1.218,0.747,1.827,1.123c4.64,2.865,9.277,5.736,13.919,8.599
	c5.591,3.447,11.185,6.889,16.78,10.329c5.491,3.375,10.992,6.737,16.478,10.122c3.355,2.069,6.699,4.159,10.031,6.264
	c0.805,0.509,1.618,1.032,2.209,1.812c2.335,3.081,4.684,6.151,7.001,9.245c5.136,6.857,10.264,13.721,15.382,20.592
	c6.07,8.149,11.943,16.44,17.806,24.736c5.404,7.648,10.788,15.312,16.682,22.599c2.792,3.45,5.74,6.758,9.334,9.423
	c0.559,0.415,1.267,0.652,1.681,1.246c-0.227,0.502-0.661,0.673-1.001,0.921c-6.181,4.513-13.201,7.007-20.621,8.53
	c-3.381,0.693-6.789,1.226-10.201,1.74c-3.213,0.484-6.408,1.084-9.616,1.606c-3.642,0.593-7.293,1.125-10.931,1.739
	c-3.946,0.667-7.881,1.393-11.82,2.102c-4.562,0.821-9.131,1.604-13.68,2.493c-5.792,1.132-11.468,2.726-17.134,4.365
	c-6.198,1.796-12.327,3.891-18.798,4.575c-2.369,0.252-4.642,0.048-6.542-1.547c-1.303-1.096-2.123-2.578-2.87-4.086
	c-1.237-2.498-2.112-5.133-2.828-7.814c-1.049-3.936-1.987-7.9-3.049-11.833c-1.587-5.878-3.872-11.502-6.444-17.006
	c-3.999-8.556-8.842-16.623-14.266-24.347c0,1.198,0,2.398,0,3.6c0.397,0.176,0.509,0.593,0.72,0.908
	c2.342,3.512,4.579,7.087,6.649,10.767c4.18,7.431,7.779,15.119,10.441,23.229c1.631,4.973,2.584,10.123,4.034,15.143
	c1.026,3.555,2.155,7.066,4.114,10.24c1.896,3.072,4.561,4.779,8.283,4.765c2.408-0.009,4.756-0.356,7.087-0.864
	c5.346-1.166,10.561-2.818,15.804-4.36c5.973-1.757,12.012-3.232,18.129-4.38c3.74-0.702,7.493-1.332,11.24-1.996
	c3.943-0.698,7.881-1.428,11.83-2.09c3.638-0.61,7.291-1.135,10.932-1.728c3.717-0.606,7.419-1.31,11.145-1.862
	c4.197-0.623,8.365-1.369,12.474-2.433c9.193-2.378,17.183-6.828,23.744-13.757c2.747-2.9,5.295-5.977,7.949-8.958
	c3.489-3.92,7.6-7.031,12.24-9.444c2.568-1.336,5.221-2.511,7.779-3.865c2.003-1.062,4.077-2.102,5.69-3.711
	c2.532-2.525,5.628-4.345,8.204-6.803c0.256-0.244,0.587-0.414,0.896-0.599c1.413-0.841,2.785-0.806,4.152,0.146
	c1.158,0.807,1.581,1.971,1.684,3.288c0.062,0.795-0.014,1.603,0.042,2.397c0.071,1.004-0.236,1.884-0.746,2.715
	c-1.927,3.142-4.282,5.973-7.53,7.715c-3.609,1.936-6.811,4.409-10.123,6.748c-1.622,1.145-2.623,2.641-2.54,4.727
	c0.039,0.986-0.357,1.854-0.89,2.672c-1.247,1.916-1.147,3.002,0.702,4.39c2.418,1.813,4.938,3.506,7.64,4.875
	c1.84,0.935,3.876,1.142,5.923,1.088c2.831-0.074,5.615-0.521,8.393-1.054c4.229-0.81,8.178-2.211,11.535-5.028
	c0.454-0.382,0.855-0.937,1.496-1.069c0.104,0.113,0.181,0.162,0.205,0.229c1.122,3.162,1.477,6.435,1.214,9.756
	c-0.164,2.061-1.002,3.645-3.249,4.326c-3.201,0.972-6.187,2.49-9.128,4.083c-0.81,0.438-1.57,0.932-2.248,1.567
	c-2.017,1.895-4.122,3.672-6.714,4.76c-0.092,0.039-0.147,0.164-0.254,0.287c0.701,0.224,1.211-0.143,1.712-0.428
	c3.254-1.854,6.604-3.521,9.917-5.265c2.713-1.427,5.541-2.571,8.425-3.584c0.626,1.228,0.421,2.487-0.706,3.569
	c-2.36,2.267-4.888,4.343-7.441,6.387c-3.271,2.617-6.85,4.818-10.082,7.486c-1.868,1.545-4.03,2.416-6.402,2.807
	c-0.65,0.107-1.304,0.197-2.127,0.32c0.612,0.5,1.163,0.496,1.701,0.486c1.938-0.033,3.794-0.453,5.548-1.279
	c4.141-1.946,7.771-4.688,11.411-7.405c1.109-0.828,2.19-1.693,3.432-2.655c-0.106,1.598-0.817,2.689-1.741,3.629
	c-1.12,1.139-2.373,2.145-3.486,3.286c-2.895,2.974-6.223,5.342-9.853,7.317c-0.874,0.476-1.627,1.091-2.13,1.955
	c0.293,0.302,0.708,0.028,0.944,0.404c-0.252,0.42-0.712,0.594-1.124,0.803c-1.601,0.814-3.28,1.428-4.999,1.953
	c-1.3,0.396-2.58,0.368-3.881,0.074c-2.061-0.465-3.979-1.332-5.923-2.122c-2.831-1.151-5.667-2.269-8.672-2.911
	c-1.597-0.343-3.219-0.459-4.825-0.713c-2.357-0.373-4.57-1.267-6.856-1.896c-2.452-0.677-4.913-0.821-7.433-0.435
	c-1.986,0.305-3.824,1.028-5.665,1.756c-10.188,4.028-20.372,8.066-30.42,12.438c-7.988,3.476-15.904,7.101-23.63,11.128
	c-4.401,2.295-8.866,4.441-13.498,6.248c-5.175,2.02-10.444,3.741-15.767,5.311c-6.383,1.883-12.841,3.48-19.338,4.9
	c-7.275,1.592-14.544,3.209-21.851,4.66c-4.809,0.955-9.635,1.701-14.544,1.696c-1.308-0.001-2.626-0.038-3.94-0.214
	c-1.982-0.264-3.857-0.853-5.706-1.568c0,0.72,0,1.439,0,2.16c0.12,0.005,0.256-0.027,0.357,0.02
	c2.578,1.196,5.348,1.512,8.125,1.617c5.485,0.208,10.869-0.725,16.221-1.767c5.17-1.008,10.318-2.135,15.462-3.271
	c8.001-1.768,15.999-3.556,23.883-5.8c6.866-1.954,13.644-4.173,20.253-6.89c4.748-1.95,9.253-4.39,13.821-6.709
	c10.064-5.113,20.413-9.607,30.836-13.93c7.184-2.979,14.416-5.84,21.661-8.669c2.203-0.86,4.445-1.491,6.84-1.418
	c1.803,0.058,3.535,0.491,5.231,1.041c2.455,0.796,4.917,1.565,7.495,1.806c2.713,0.254,5.286,0.984,7.836,1.896
	c2.843,1.018,5.557,2.361,8.453,3.238c1.417,0.429,2.857,0.883,4.332,0.602c2.965-0.564,5.699-1.744,8.084-3.611
	c2.254-1.765,4.195-3.879,6.628-5.471c3.182-2.082,5.754-4.938,8.472-7.574c1.789-1.738,2.802-3.943,2.28-6.635
	c0.858-0.764,1.696-1.562,2.588-2.295c2-1.643,2.886-3.658,2.217-6.238c-0.115-0.443-0.053-0.854,0.176-1.266
	c1.685-3.02,1.598-6.253,1.115-9.523c-0.325-2.201-0.884-4.345-1.827-6.414c1.396-2.467,2.783-4.926,4.176-7.381
	c1.335-2.354,2.677-4.703,4.017-7.056c0.667-1.17,0.816-2.362,0.345-3.664c-1.054-2.91-2.449-5.61-4.568-7.897
	c-0.445-0.48-0.916-0.992-0.771-1.668c0.116-0.539,0.152-1.093,0.317-1.633c0.632-2.066,1.548-4.001,2.56-5.897
	c0.684-1.283,0.432-1.915-0.928-2.318c-1.481-0.438-2.969-0.856-4.455-1.278c-1.412-0.401-1.83-0.23-2.581,0.965
	c-1.312,2.088-2.639,4.167-3.93,6.201c-0.519,0.164-0.918,0.032-1.353-0.078c-2.34-0.594-4.66-1.262-7.071-1.576
	c-0.99-0.129-1.985-0.08-2.971-0.271c-2.315-0.444-4.434,0.033-6.254,1.579c-0.792,0.673-1.508,1.436-2.316,2.087
	c-4.888,3.94-10.056,7.433-15.83,9.979c-2.172,0.957-4.311,2.008-6.291,3.344c-1.619,1.092-3.214,2.217-4.743,3.436
	c-0.37,0.295-0.735,0.697-1.266,0.527c-1.353-0.436-2.712-0.795-3.716-1.98c-3.068-3.625-5.994-7.362-8.964-11.063
	c-3.67-4.573-7.317-9.165-10.977-13.746c-2.116-2.648-4.308-5.241-6.343-7.95c-3.927-5.224-7.56-10.66-11.315-16.008
	c-0.362-0.516-0.822-1.012-0.978-1.725c2.505,0.235,4.905,0.523,7.322,0.688c3.231,0.22,6.465,0.381,9.695,0.339
	c3.192-0.042,6.392-0.07,9.577-0.383c2.061-0.203,4.134-0.297,6.188-0.553c2.56-0.318,5.108-0.73,7.654-1.142
	c2.583-0.418,5.155-0.899,7.736-1.326c2.272-0.375,4.549-0.719,6.826-1.065c1.925-0.293,3.85-0.583,5.778-0.852
	c2.084-0.29,4.172-0.556,6.259-0.827c1.498-0.195,2.997-0.385,4.496-0.569c1.735-0.214,3.47-0.438,5.208-0.624
	c1.94-0.207,3.883-0.385,5.826-0.555c2.581-0.227,5.159-0.505,7.745-0.632c4.511-0.22,9.01,0.041,13.47,0.741
	c0.759,0.119,1.662-0.041,2.304,0.541c-0.064,0.421-0.339,0.547-0.539,0.731c-1.939,1.791-3.825,3.637-5.651,5.542
	c-1.683,1.756-3.43,3.464-4.807,5.484c-1.041,1.526-0.984,2.106,0.313,3.43c5.904,6.023,11.818,12.036,17.734,18.046
	c1.031,1.048,1.416,1.046,2.534,0.133c3.25-2.652,6.441-5.374,9.547-8.19c2.011-1.824,4.044-3.634,5.784-5.731
	c0.727-0.876,1.631-1.723,0.981-3.022c1.412-1.707,2.64-3.46,3.732-5.238c3.619,0.585,7.136,1.179,10.661,1.71
	c1.649,0.249,3.301,0.438,4.75,1.363c0.199,0.126,0.438,0.189,0.647,0.299c2.025,1.055,4.166,1.767,6.431,2.063
	c1.785,0.233,4.278-0.58,4.756-3.158c0.348-1.882,0.258-3.721-0.137-5.565c-0.067-0.312-0.186-0.603-0.014-1.038
	c0.547,0,1.141-0.013,1.73,0.003c0.762,0.021,1.521-0.006,2.242-0.256c2.357-0.815,4.105-2.182,4.594-4.827
	c0.39-2.109-0.271-3.915-1.351-5.64c-0.31-0.495-0.683-0.949-0.999-1.386c0.145-0.277,0.33-0.318,0.526-0.381
	c1.323-0.421,2.662-0.804,3.903-1.449c0.765-0.397,1.406-0.913,1.733-1.734c0.845-2.115,1.31-4.239,0.289-6.452
	c-0.301-0.652-0.614-1.29-0.996-1.894c-0.171-0.271-0.38-0.511-0.323-1.003c0.244-0.214,0.569-0.501,0.897-0.785
	c0.874-0.759,1.772-1.491,2.616-2.282c0.861-0.809,1.393-1.839,1.023-3.009c-0.65-2.062-0.729-4.324-2.158-6.112
	c1.082-1.289,2.377-2.236,3.537-3.325c2.422-2.272,5.043-4.275,7.975-5.859c4.258-2.3,8.128-5.165,11.851-8.236
	c3.54-2.921,7.063-5.861,10.587-8.804c3.305-2.762,6.598-5.54,9.9-8.306c0.625-0.523,1.236-1.07,2.113-1.491
	c-0.1,0.778-0.396,1.337-0.648,1.905c-1.852,4.173-3.542,8.411-5.175,12.675c-2.027,5.298-3.565,10.764-5.638,16.045
	c-3.031,7.731-6.43,15.301-9.945,22.82c-5.814,12.439-11.885,24.75-18.619,36.722c-1.721,3.059-3.666,5.96-5.969,8.661
	c-0.534-0.375-0.801-0.923-1.178-1.375c-2.578-3.099-5.504-5.768-9.258-7.379c-4.688-2.014-8.744-0.863-11.769,2.605
	c-2.093,2.401-3.354,5.273-4.327,8.282c-1.334,4.128-2.135,8.362-2.666,12.665c-0.411,3.334-0.686,6.674-0.627,10.024
	c0.036,2.107,0.199,4.218,0.395,6.325c0.263,2.854,0.69,5.678,1.313,8.463c2.149,9.604,5.983,18.48,11.606,26.576
	c2.574,3.708,5.856,6.467,10.207,7.887c2.094,0.684,4.24,0.908,6.363,0.545c4.084-0.703,6.995-3.106,8.879-6.757
	c2-3.875,2.392-8.122,2.648-12.366c0.146-2.431,0.045-4.877,0.023-7.316c-0.031-3.497-0.565-6.958-0.478-10.48
	c0.166-6.593,0.026-13.193,0-19.792c-0.002-0.46,0.093-0.853,0.325-1.245c1.841-3.119,3.357-6.404,4.818-9.711
	c4.97-11.258,9.543-22.685,14.207-34.072c4.125-10.07,8.312-20.112,12.896-29.985c3.73-8.036,7.369-16.116,11.055-24.173
	c4.163-9.107,8.334-18.211,12.504-27.316c0.809-1.765,1.631-3.525,2.412-5.213c0.61-0.322,1.178-0.301,1.731-0.345
	c1.95-0.153,3.582-0.915,4.843-2.449c2.048-2.492,3.428-5.375,4.785-8.255c3.365-7.14,6.531-14.375,10.188-21.375
	c2.161-4.139,4.372-8.251,6.549-12.382c5.675-10.777,11.348-21.556,17.006-32.343c0.488-0.932,1.077-1.826,1.339-2.868
	C416.16,0.24,415.44,0.24,414.72,0.24z M203.267,239.391c-2.563,0.351-5.115,0.844-7.734,0.424
	c-1.446-0.232-2.777-0.695-4.002-1.476c-1.785-1.135-3.569-2.272-5.331-3.444c-1.482-0.986-1.49-1.123-0.508-2.636
	c0.085-0.13,0.182-0.252,0.335-0.463c6.575,2.53,13.205,4.888,19.99,6.912C205.143,239.182,204.193,239.266,203.267,239.391z
	 M208.964,229.105c-0.155,0.572-0.608,0.806-1.314,0.783c-0.927-0.214-1.97-0.459-3.015-0.691c-1.468-0.329-2.941-0.635-4.405-0.979
	c-0.822-0.192-1.167-0.704-0.98-1.35c0.166-0.571,0.663-0.8,1.44-0.634c2.329,0.5,4.655,1.007,6.982,1.511
	c0.194,0.042,0.408,0.044,0.578,0.133C208.737,228.133,209.129,228.5,208.964,229.105z M217.101,224.566
	c-0.202,0.498-0.596,0.75-1.144,0.633c-0.348-0.076-0.688-0.198-1.023-0.32c-4.599-1.673-9.193-3.361-13.799-5.015
	c-0.529-0.19-1.026-0.396-1.417-0.771c0.688-0.421,1.324-0.847,1.909-1.274c0.11,0.043,0.215,0.082,0.317,0.121
	c4.599,1.675,9.199,3.348,13.796,5.026c0.334,0.122,0.675,0.257,0.968,0.453C217.107,223.688,217.292,224.098,217.101,224.566z
	 M208.325,206.725c4.178,1.491,8.356,2.98,12.533,4.478c0.486,0.175,0.983,0.345,1.429,0.598c0.411,0.233,0.603,0.656,0.453,1.136
	c-0.149,0.477-0.534,0.656-1.02,0.682c-0.5,0.025-0.939-0.186-1.383-0.346c-3.629-1.309-7.245-2.651-10.88-3.94
	c-0.433-0.154-0.864-0.383-1.35-0.481C208.273,208.043,208.327,207.327,208.325,206.725z M206.544,213.09
	c4.319,1.389,8.637,2.778,12.955,4.171c0.228,0.073,0.461,0.146,0.667,0.261c0.498,0.276,0.795,0.674,0.619,1.279
	c-0.16,0.549-0.677,0.818-1.333,0.66c-0.542-0.131-1.074-0.305-1.604-0.479c-3.744-1.228-7.482-2.476-11.234-3.678
	c-0.532-0.172-1.054-0.337-1.512-0.646c0.474-0.552,0.884-1.097,1.232-1.632C206.403,213.049,206.477,213.068,206.544,213.09z
	 M41.753,94.229c0.273-0.525,0.824-0.944,1.263-1.452c1.672-1.934,3.358-3.856,5.041-5.782c0.974-1.116,2.029-2.149,3.162-3.104
	c4.342-3.661,8.467-4.137,13.493-1.554c2.857,1.468,2.866,1.464,4.094,4.431c0.472,1.14,0.956,2.282,1.327,3.456
	c1.442,4.567,4.147,8.424,6.833,12.293c1.684,2.426,3.4,4.83,5.098,7.246c0.174,0.249,0.32,0.518,0.601,0.977
	c-1.136-0.527-1.714,0.02-2.308,0.654c-3.638,3.89-7.514,7.515-11.967,10.473c-1.765,1.173-3.622,2.171-5.653,2.818
	c-0.844,0.269-1.7,0.388-2.583,0.427c-1.974,0.086-3.466-0.701-4.561-2.328c-2.123-3.153-3.813-6.544-5.493-9.942
	c-2.898-5.864-5.521-11.855-8.181-17.829C41.819,94.793,41.698,94.588,41.753,94.229z M76.18,143.484
	c-0.029,0.021-0.081,0.041-0.106,0.029c-1.612-0.783-3.076-1.815-4.597-2.75c-16.559-10.193-33.111-20.396-49.796-30.678
	c6.193-4.92,12.838-8.962,18.442-14.469c0.637,0.719,0.809,1.517,1.121,2.226c2.827,6.41,5.717,12.79,8.927,19.019
	c1.188,2.308,2.405,4.608,3.865,6.757c1.501,2.209,3.606,3.392,6.319,3.323c0.663-0.017,1.344-0.121,1.975-0.319
	c0.562-0.176,1.094-0.138,1.63-0.111c4.438,5.328,9.693,12.434,12.305,16.899C76.105,143.389,76.31,143.391,76.18,143.484z
	 M127.514,175.963c4.702,6.859,9.697,13.491,14.977,19.919c5.02,6.111,9.891,12.345,14.837,18.519
	c1.324,1.65,2.718,3.248,4.014,4.922c0.893,1.152,2.027,1.896,3.364,2.386c0.227,0.082,0.466,0.117,0.641,0.448
	c-4.554,4.634-8.38,9.998-13.423,14.283c-1.024-0.338-1.849-0.973-2.679-1.569c-2.846-2.05-5.169-4.646-7.399-7.315
	c-6.272-7.513-11.917-15.498-17.521-23.51c-6.961-9.952-14.05-19.812-21.291-29.562c-6.217-8.372-12.523-16.678-18.872-24.951
	c-1.289-1.68-2.591-3.351-3.897-5.017c-0.535-0.683-1.083-1.328-1.816-1.852c-0.7-0.501-1.266-1.254-1.633-2.047
	c-1.143-2.468-2.995-4.422-4.62-6.539c-1.875-2.44-3.802-4.84-5.7-7.262c-0.219-0.28-0.492-0.531-0.582-0.92
	c0.068-0.08,0.125-0.202,0.22-0.25c4.875-2.465,8.942-5.997,12.841-9.746c1.036-0.996,2.001-2.067,2.989-3.114
	c0.437-0.462,0.859-0.942,1.025-1.697c1.015,1.47,2.035,2.937,3.045,4.41c7.748,11.297,15.492,22.596,23.241,33.892
	C115.352,158.249,121.44,167.101,127.514,175.963z M233.829,159.286c-0.381,0.432-0.761,0.594-1.36,0.48
	c-2.691-0.51-5.396-0.917-8.133-1.145c-2.105-0.175-4.205-0.539-6.317-0.417c-3.144,0.181-6.29,0.306-9.428,0.622
	c-2.019,0.203-4.044,0.383-6.067,0.56c-1.782,0.155-3.556,0.414-5.333,0.63c-2.169,0.264-4.339,0.524-6.507,0.799
	c-2.049,0.26-4.099,0.519-6.143,0.812c-2.434,0.35-4.863,0.726-7.292,1.11c-2.704,0.427-5.403,0.881-8.106,1.314
	c-3.288,0.527-6.562,1.134-9.862,1.601c-3.99,0.564-8,0.942-12.013,1.087c-4.507,0.163-9.032,0.286-13.543-0.115
	c-1.35-0.12-2.704-0.099-4.059-0.251c-1.895-0.213-3.79-0.395-5.673-0.709c-0.582-0.097-1.192-0.015-1.677-0.015
	c-0.528-0.349-0.787-0.765-1.042-1.163c-1.934-3.024-4.022-5.945-5.839-9.05c-1.208-2.065-2.668-3.982-4.017-5.965
	c-2.852-4.193-5.681-8.401-8.562-12.573c-2.974-4.307-5.912-8.64-8.869-12.958c-3.027-4.419-6.069-8.83-9.129-13.227
	c-3.074-4.419-6.248-8.768-9.18-13.286c-1.565-2.412-2.964-4.891-3.821-7.66c-0.38-1.229-0.937-2.404-1.422-3.6
	c-0.061-0.15-0.156-0.278,0.04-0.494c1.034,0.375,2.017,0.957,3.089,1.326c1.786,0.615,3.606,0.98,5.496,0.908
	c0.604-0.023,1.096,0.196,1.548,0.53c4.523,3.336,8.992,6.739,13.318,10.331c2.681,2.225,5.174,4.636,7.574,7.153
	c3.399,3.566,7.529,5.855,12.353,6.782c2.304,0.442,4.658,0.718,7.025,0.464c3.162-0.34,6.298,0.083,9.443,0.279
	c1.909,0.119,3.811,0.289,5.709,0.525c2.248,0.281,4.507,0.471,6.75,0.782c2.396,0.332,4.779,0.76,7.168,1.145
	c5.947,0.958,11.863,2.089,17.662,3.725c6.942,1.959,13.934,3.674,21.034,4.963c4.72,0.857,9.44,1.7,14.189,2.376
	c3.654,0.52,7.297,1.119,10.953,1.62c2.833,0.388,5.681,0.666,8.52,1.015c2.365,0.291,4.725,0.634,7.091,0.915
	c1.89,0.224,3.788,0.388,5.611,0.571c0.301,0.304,0.068,0.496,0.006,0.709c-0.142,0.49-0.173,0.955,0.367,1.247
	c0.572,0.308,1.007,0.046,1.373-0.366c0.45-0.507,0.881-1.032,1.299-1.566c1.504-1.918,3.126-3.734,4.822-5.481
	c1.533-1.579,3.027-3.197,4.256-5.021c1-1.482,2.284-2.351,4.056-2.64c3.643-0.594,7.161-1.713,10.716-2.675
	c1.585-0.429,3.119-0.461,4.671,0.128c2.982,1.132,6.115,1.649,9.242,2.176c0.468,0.079,0.938,0.18,1.384,0.338
	c1.368,0.486,1.86,1.32,1.651,2.775c-0.066,0.473-0.246,0.933-0.201,1.419c0.136,1.423-0.504,2.238-1.815,2.827
	c-3.72,1.667-7.59,2.326-11.628,2c-1.342-0.108-2.674-0.37-4-0.618c-1.375-0.258-1.838-0.161-2.385,0.67
	c-0.066,0.376,0.275,0.638,0.33,1.087c-4.315,3.8-8.936,7.363-12.669,11.833c0.149,0.967,1.02,1.481,1.216,2.248
	c-3.116,3.32-5.061,7.246-6.844,11.468c-0.666-0.422-1.111-0.147-1.533,0.295C237.56,155.787,235.524,157.363,233.829,159.286z
	 M248.873,143.95c0.929,1.08,1.703,2.268,2.503,3.561c-3.435,4.25-6.91,8.44-10.261,12.845c-0.129-1.09,1.253-5.433,2.741-8.787
	C245.842,147.096,247.01,145.312,248.873,143.95z M251.385,179.799c-3.904-4.404-7.7-8.975-11.886-13.131
	c0.015-0.719,0.409-1.189,0.737-1.675c2.722-4.039,5.802-7.803,8.885-11.564c1.083-1.321,2.185-2.627,3.357-4.035
	c3.532,4.458,6.664,9.051,9.844,13.518C260.75,169.465,254.76,178.755,251.385,179.799z M263.216,171.27
	c-0.781-0.076-1.552-0.27-2.448-0.435c0.14-1.504,0.317-2.901,1.251-4.296c0.205,2.469,1.833,3.709,3.793,5.015
	C264.748,171.685,263.989,171.345,263.216,171.27z M285.57,174.917c-0.16,0.738-0.831,1.202-1.691,1.262
	c-1.62,0.113-3.137-0.293-4.627-0.884c-2.507-0.994-4.855-2.366-7.468-3.105c-1.462-0.414-2.823-1.061-4.125-1.829
	c-0.888-0.523-1.774-1.054-2.533-1.772c-1.409-1.334-1.35-2.604,0.229-3.901c2.908,1.22,5.849,2.402,8.944,3.111
	c1.972,0.452,3.933,0.819,6.011,0.493c1.476-0.231,3.018-0.045,4.621-0.045C285.795,170.51,286.061,172.681,285.57,174.917z
	 M293.943,163.499c-0.449,1.497-1.572,2.393-3.021,2.785c-0.83,0.224-1.714,0.384-2.604,0.271c-2.822-0.359-5.661-0.353-8.489-0.196
	c-3.048,0.169-5.906-0.557-8.731-1.526c-1.199-0.411-2.369-0.908-3.559-1.352c-0.416-0.155-0.76-0.374-1.082-0.697
	c-0.605-0.605-0.889-1.263-0.799-2.13c0.111-1.065-0.105-2.144,0.16-3.214c0.199-0.806,0.604-1.371,1.514-1.68
	c1.232,1.79,3.07,2.087,4.979,2.138c1.838,0.049,3.676-0.006,5.514,0.015c1.793,0.021,3.582,0.034,5.379,0.172
	c2.554,0.197,5.062-0.335,7.516-1.062c0.113-0.034,0.231-0.047,0.334-0.068C293.16,158.108,294.602,161.317,293.943,163.499z
	 M298.152,151.577c-0.238,0.659-0.621,1.102-1.254,1.342c-3.112,1.185-6.262,2.24-9.545,2.874c-1.431,0.276-2.86,0.267-4.293,0.22
	c-2.998-0.099-5.996-0.05-8.994,0.013c-1.129,0.023-2.229-0.15-3.336-0.276c-0.784-0.089-1.385-0.427-1.588-1.343
	c-0.16-0.726-0.443-1.438-0.695-2.146c-0.303-0.853-0.076-1.45,0.596-1.988c1.296-1.038,2.832-1.59,4.337-2.208
	c1.946-0.8,3.966-1.385,5.972-2.015c0.676-0.212,1.332-0.146,2.006-0.058c2.877,0.375,5.738,0.867,8.658,0.905
	c2.092,0.027,4.02-0.377,5.813-1.442c0.336-0.199,0.704-0.345,1.136-0.553C298.636,146.98,299.027,149.155,298.152,151.577z
	 M301.352,137.985c0.084,0.331-0.16,0.695-0.443,0.937c-2.297,1.956-4.328,4.26-7.237,5.406c-0.978,0.385-1.969,0.634-3.008,0.635
	c-2.272,0.002-4.519-0.306-6.765-0.634c-1.768-0.259-3.549-0.417-5.424-0.63c-0.641-1.157-0.695-2.348,0.158-3.486
	c1.588-2.118,3.752-3.384,6.344-3.628c4.541-0.428,8.854-1.656,13.088-3.261c0.572-0.217,1.141-0.618,1.933-0.274
	C300.668,134.577,300.921,136.309,301.352,137.985z M340.848,97.551c-7.195,5.973-14.25,12.116-21.652,17.838
	c-2.088,1.615-4.27,3.107-6.596,4.348c-3.519,1.875-6.688,4.205-9.6,6.913c-1.316,1.226-2.672,2.411-3.982,3.643
	c-0.566,0.531-1.197,0.935-1.916,1.195c-2.888,1.044-5.783,2.078-8.824,2.576c-1.729,0.283-3.487,0.357-5.195,0.813
	c-2.364,0.631-4.266,1.955-5.848,3.771c-1.321,1.519-1.562,3.265-0.983,5.161c0.079,0.261,0.278,0.494,0.21,0.824
	c-0.302,0.407-0.825,0.412-1.26,0.565c-2.146,0.758-4.276,1.551-6.27,2.665c-1.253,0.699-2.32,1.55-2.662,3.061
	c-0.218,0.958,0.299,1.791,0.4,2.807c-1.314,0.533-2.375,1.38-2.753,2.854c-0.337,1.315-0.251,2.678-0.508,4.041
	c-5.041-6.843-9.945-13.714-14.714-20.712c1.223-1.329,2.545-2.36,3.802-3.458c2.678-2.339,5.421-4.604,8.088-6.955
	c0.86-0.758,1.696-0.951,2.826-0.749c5.335,0.956,10.396,0.01,15.208-2.411c1.146-0.577,1.794-1.48,1.982-2.796
	c0.152-1.071,0.266-2.153,0.299-3.218c0.062-1.993-0.564-3.3-2.584-4.149c-1.336-0.562-2.756-0.791-4.182-0.952
	c-0.519-0.058-1.001-0.18-1.582-0.371c0.469-0.779,1.016-1.4,1.565-2.019c2.247-2.528,4.899-4.575,7.702-6.434
	c5.13-3.403,9.933-7.237,14.678-11.143c7.923-6.522,15.967-12.877,24.406-18.729c4.783-3.316,9.432-6.825,14.146-10.236
	c3.262-2.358,6.48-4.784,9.965-6.81c3.17-1.845,2.7-1.657,4.786,0.888c3.949,4.819,7.681,9.806,11.158,14.978
	c0.774,1.151,1.549,2.309,2.088,3.594c-0.677,0.823-1.511,1.317-2.237,1.927C354.164,86.44,347.52,92.012,340.848,97.551z
	 M310.634,248.83c-0.167,2.831-0.376,5.645-1.021,8.408c-0.627,2.686-1.732,5.15-3.795,7.033c-2.918,2.666-6.362,3.076-10.053,2.033
	c-4.023-1.14-7.062-3.649-9.416-7.012c-5.527-7.891-9.258-16.568-11.361-25.972c-1.377-6.157-1.909-12.388-1.603-18.661
	c0.321-6.571,1.319-13.057,3.573-19.285c0.762-2.105,1.771-4.085,3.171-5.852c2.315-2.919,5.556-3.853,9.08-2.609
	c2.099,0.74,3.929,1.933,5.597,3.372c1.848,1.594,3.486,3.386,4.867,5.498c-1.576,1.992-3.189,3.955-4.994,5.75
	c-0.66-0.347-1.013-0.901-1.477-1.331c-0.918-0.85-1.924-1.555-3.088-2.017c-2.193-0.871-4.197-0.332-5.655,1.516
	c-1.347,1.705-1.967,3.726-2.438,5.791c-1.398,6.137-2.02,12.366-1.655,18.644c0.562,9.693,3.256,18.723,8.964,26.711
	c0.604,0.846,1.271,1.637,1.98,2.4c2.633,2.834,5.618,2.193,7.715-0.54c1.564-2.04,2.344-4.435,2.848-6.905
	c0.867-4.254,0.916-8.549,0.574-12.871c-0.353-4.455-1.1-8.834-2.228-13.346c2.606-0.079,4.978-0.643,7.132-2.396
	c0.383,2.103,0.711,3.966,1.062,5.824c0.69,3.68,1.233,7.387,1.612,11.106C310.521,239.005,310.924,243.9,310.634,248.83z
	 M293.471,206.453c1.619,4.641,3.271,9.271,4.83,13.933c0.758,2.259,1.078,4.632,1.465,6.979c0.498,3.029,0.787,6.08,0.805,9.152
	c0.022,4.434-0.17,8.834-1.996,12.983c-0.372,0.845-0.826,1.64-1.428,2.34c-1.283,1.495-2.834,1.574-4.229,0.165
	c-1.78-1.799-3.147-3.912-4.381-6.104c-2.609-4.631-4.324-9.604-5.3-14.814c-0.452-2.418-0.643-4.881-0.84-7.344
	c-0.218-2.691-0.092-5.362,0.115-8.018c0.316-4.068,0.864-8.125,2.125-12.039c0.307-0.947,0.735-1.834,1.348-2.642
	c1.113-1.469,2.609-1.438,3.946-0.758c1.228,0.625,2.183,1.592,3.208,2.742C292.512,204.247,293.08,205.336,293.471,206.453z
	 M309.318,215.74c-0.035-0.562,0.345-0.93,0.902-1.367c0,2.046,0,3.943,0,5.844C309.709,218.771,309.42,217.271,309.318,215.74z
	 M365.605,86.036c-6.621,14.458-13.237,28.919-19.859,43.376c-4.764,10.4-9.475,20.823-13.805,31.414
	c-3.577,8.749-7.16,17.495-10.778,26.226c-2.739,6.61-5.478,13.222-8.661,19.636c-1.119,2.256-2.396,4.424-4.021,6.358
	c-0.715,0.853-1.484,1.674-2.325,2.399c-1.912,1.652-4.169,2.255-6.788,1.945c-1.479-4.255-2.971-8.551-4.471-12.869
	c0.98-1.506,2.285-2.698,3.442-4.004c4.94-5.573,9.195-11.592,12.714-18.177c7.163-13.413,13.854-27.055,20.107-40.911
	c2.923-6.475,5.79-12.98,8.053-19.723c1.766-5.262,3.542-10.518,5.604-15.673c1.888-4.718,3.883-9.388,6.154-13.937
	c0.299-0.6,0.781-1.005,1.269-1.409c3.962-3.291,7.858-6.661,11.936-9.812c0.552-0.426,0.97-0.932,1.257-1.679
	c0.996,0.393,1.985,0.321,2.959,0.764C367.447,82.02,366.525,84.027,365.605,86.036z"/>
</svg>
