<?xml version="1.0" encoding="utf-8"?>
<!-- Generator: Adobe Illustrator 16.2.1, SVG Export Plug-In . SVG Version: 6.00 Build 0)  -->
<!DOCTYPE svg PUBLIC "-//W3C//DTD SVG 1.1//EN" "http://www.w3.org/Graphics/SVG/1.1/DTD/svg11.dtd">
<svg version="1.1" id="RS_x5F_straps09_xA0_Image_1_"
	 xmlns="http://www.w3.org/2000/svg" xmlns:xlink="http://www.w3.org/1999/xlink" x="0px" y="0px" width="528px" height="396px"
	 viewBox="0 0 528 396" enable-background="new 0 0 528 396" xml:space="preserve">
<g>
	<path d="M235.2,396.24c-0.272-1.044-0.848-1.958-1.302-2.918c-3.368-7.104-5.846-14.517-7.546-22.178
		c-1.772-7.983-3.404-15.998-5.11-24.061c0.592-0.627,0.717-1.369,0.438-2.178c-0.074,0.017-0.188,0.007-0.216,0.052
		c-2.016,3.192-4.996,5.187-8.345,6.713c-4.039,1.842-8.277,2.627-12.686,2.037c-3.838-0.515-7.414-1.799-10.435-4.331
		c-2.325-1.949-3.652-4.477-4.207-7.439c-0.679-3.632-0.341-7.239,0.343-10.813c0.73-3.82,1.647-7.605,2.412-11.42
		c0.525-2.615,0.901-5.252,1.1-7.922c0.18-2.42,0.554-4.827,0.883-7.234c0.522-3.813,0.631-7.624,0.154-11.455
		c-0.515-4.138-0.641-8.262,0.6-12.329c0.687-2.252,1.699-4.349,2.777-6.424c0.037-0.07,0.077-0.141,0.122-0.206
		c1.97-2.845,1.908-5.95,1.312-9.188c-1.267-6.881-3.297-13.577-4.784-20.403c-0.829-3.804-1.563-7.619-2.094-11.479
		c-0.574-4.166-0.78-8.342-0.644-12.535c0.06-1.836,0.211-3.668,0.226-5.508c0.011-1.287-0.167-2.552-0.304-3.815
		c-0.125-1.146-0.557-2.214-1.223-3.198c-4.243-6.271-8.23-12.708-12.352-19.058c-2.887-4.449-5.752-8.912-8.522-13.435
		c-0.161-0.263-0.293-0.57-0.613-0.744c-0.541,0.655-0.37,1.476-0.492,2.189c-0.647,3.804-1.159,7.63-1.766,11.442
		c-0.714,4.48-1.462,8.956-2.224,13.429c-0.713,4.188-1.431,8.376-2.285,12.539c-0.84,4.092-1.872,8.138-3.452,11.995
		c-0.733,1.789-0.683,3.445-0.354,5.225c1.011,5.477,1.977,10.96,2.989,16.436c0.869,4.707,0.644,9.439-0.115,14.17
		c-1.11,6.926-3.146,13.598-5.229,20.267c-1.775,5.683-3.774,11.302-5.025,17.138c-0.751,3.502-1.401,7.017-1.629,10.607
		c-0.083,1.312-0.156,2.615-0.163,3.915c1.58,0.857,2.306,2.371,3.056,3.786c1.581,2.982,2.434,6.191,2.708,9.577
		c0.315,3.89,0.519,7.793,1.135,11.654c0.144,0.903,0.176,1.824,0.262,2.736c0.133,1.408-0.219,2.627-1.093,3.793
		c-1.552,2.072-3.021,4.207-4.289,6.478c-1.592,2.854-2.541,5.897-2.979,9.121c-0.504,3.704-1.069,7.399-1.652,11.094
		c-0.577,3.652-1.183,7.298-1.96,10.914c-0.367,1.708-0.839,3.389-1.31,5.069c-0.688,2.457-2.397,4.062-4.405,5.469
		c-1.194,0.839-2.536,1.45-3.632,2.431c-1.44,0-2.88,0-4.32,0c0.313-0.17,0.622-0.352,0.941-0.507
		c2.406-1.174,4.723-2.493,6.853-4.123c1.054-0.808,2.021-1.697,2.472-3.002c0.621-1.802,1.142-3.63,1.526-5.496
		c0.754-3.662,1.401-7.343,1.979-11.036c0.565-3.617,1.101-7.237,1.614-10.862c0.448-3.169,1.244-6.228,2.75-9.08
		c1.307-2.475,2.859-4.787,4.541-7.015c0.743-0.984,1.312-2.008,1.077-3.29c-0.151-0.828-0.15-1.672-0.273-2.496
		c-0.571-3.831-0.816-7.693-1.11-11.548c-0.267-3.507-1.194-6.782-2.929-9.832c-0.161-0.281-0.254-0.685-0.781-0.742
		c0.032,0.697-0.02,1.387,0.109,2.039c0.468,2.366-0.203,4.403-1.666,6.241c-1.529,1.922-3.601,3.118-5.722,4.239
		c-2.416,1.275-4.921,1.345-7.515,0.572c-3.414-1.016-6.156-3.103-8.794-5.368c-0.36-0.309-0.644-0.726-1.208-0.69
		c-0.48,0.191-0.664,0.636-0.896,1.056c-1.363,2.476-1.62,5.207-1.862,7.94c-0.123,1.389-0.114,2.795-0.303,4.174
		c-0.579,4.228-1.824,8.285-3.229,12.303c-1.062,3.034-2.719,5.749-4.348,8.484c-2.281,3.828-4.639,7.612-6.35,11.752
		c-1.534,3.711-2.476,7.54-2.579,11.566c-0.043,1.681,0.01,3.354,0.256,5.016c0.439,2.97,1.165,5.843,2.939,8.354
		c0.311,0.441,0.862,0.732,0.909,1.353c-0.72,0-1.44,0-2.16,0c-1.876-2.382-2.786-5.169-3.328-8.092
		c-1.382-7.445,0.021-14.47,3.249-21.221c1.688-3.528,3.703-6.875,5.782-10.172c3.297-5.229,5.254-10.94,6.54-16.928
		c0.461-2.148,0.589-4.338,0.726-6.524c0.175-2.794,0.589-5.54,1.692-8.139c0.559-1.315,1.37-2.421,2.782-3.015
		c0.165-0.581,0.087-1.171,0.031-1.766c-0.224-2.342-0.417-4.687-0.661-7.025c-0.269-2.573-0.6-5.141-0.869-7.712
		c-0.22-2.101-0.484-4.193-0.801-6.28c-0.512-3.375-0.997-6.755-1.527-10.127c-0.617-3.925-1.458-7.808-2.121-11.726
		c-1.274-7.545-1.544-15.146-1.58-22.771c-0.026-5.59,0.877-11.053,2-16.497c0.283-1.369,0.557-2.739,0.94-4.084
		c0.099-0.345,0.142-0.746,0.349-1.013c0.756-0.971,0.615-2.015,0.368-3.084c-0.452-1.95-1.148-3.828-1.855-5.691
		c-0.758-1.999-1.074-4.077-1.338-6.166c-0.457-3.604-0.575-7.232-0.803-10.855c-0.175-2.771-0.436-5.556-1.367-8.223
		c-0.422-1.208-0.886-2.398-1.6-3.446c-2.638-3.873-3.873-8.249-4.666-12.782c-0.694-3.969-1.027-7.975-1.247-12.002
		c-0.279-5.115-0.254-10.226-0.098-15.337c0.12-3.91,0.318-7.822,0.653-11.718c0.294-3.415,0.529-6.836,0.866-10.25
		c0.275-2.775,0.56-5.552,0.803-8.332c0.208-2.379,0.562-4.746,0.833-7.121c0.297-2.61,0.669-5.21,1.042-7.811
		c0.553-3.858,1.156-7.708,2.047-11.502c2.098-8.928,4.216-17.852,6.417-26.754c0.322-1.303,0.348-2.398-0.138-3.661
		c-1.325-3.441-2.464-6.955-3.191-10.578c-0.781-3.896-1.5-7.806-2.216-11.716c-0.809-4.419-1.614-8.839-2.361-13.269
		c-0.543-3.221-0.981-6.459-1.479-9.688c-0.487-3.153-0.938-6.304-1.022-9.505c-0.113-4.292,0.12-8.525,1.597-12.608
		c0.097-0.268,0.182-0.526,0.111-0.811c0.72,0,1.44,0,2.16,0c-1.632,3.978-2.151,8.146-1.98,12.401
		c0.177,4.423,0.28,8.859,1.197,13.217c1.041,4.945,1.792,9.942,2.701,14.91c0.887,4.852,1.889,9.684,2.737,14.542
		c1.294,7.414,4.084,14.329,6.937,21.225c2.568,6.209,5.336,12.333,8.029,18.488c2.182,4.988,4.197,10.048,6.374,15.038
		c3.354,7.688,6.756,15.356,10.186,23.011c3.575,7.979,7.205,15.936,11.11,23.759c2.418,4.844,5.192,9.494,7.991,14.13
		c3.314,5.491,6.766,10.893,10.221,16.294c2.512,3.929,5.038,7.849,7.573,11.763c1.431,2.209,2.814,4.453,4.356,6.584
		c2.504,3.459,4.709,7.086,6.621,10.899c1.889,3.769,2.709,7.774,2.828,11.974c0.092,3.271,0.324,6.534,0.629,9.795
		c0.238,2.541,0.283,5.103,0.59,7.633c0.349,2.875-0.146,5.746,0.162,8.619c0.176,1.643,0.617,3.168,1.653,4.396
		c3.167,3.757,6.437,7.425,10.295,10.512c1.67,1.337,3.622,1.95,5.69,2.246c0.671,0.097,1.344,0.132,1.905,0.504
		c0.363-0.218,0.673-0.399,0.7-0.92c-0.928-0.21-1.906-0.221-2.832-0.519c-0.979-0.314-2.008-0.471-2.995-0.764
		c-1.39-0.414-2.616-1.084-3.676-2.136c-2.812-2.787-5.468-5.713-8.103-8.662c-0.292-0.327-0.561-0.675-0.841-1.013
		c-0.397-0.479-0.4-0.98,0.062-1.38c0.5-0.435,0.98-0.188,1.363,0.231c0.673,0.735,1.324,1.493,1.983,2.242
		c1.873,2.129,3.9,4.119,5.762,6.25c1.716,1.965,3.904,2.796,6.319,3.284c0.871,0.177,1.729,0.479,2.923,0.5
		c-5.494-5.544-10.721-10.954-15.795-16.481c0.264-0.479,0.589-0.384,0.892-0.312c1.129,0.263,2.043,0.89,2.834,1.712
		c1.771,1.842,3.526,3.699,5.311,5.526c2.538,2.601,5.092,5.186,7.656,7.76c0.302,0.304,0.596,0.646,1.008,0.818
		c0.739-0.513,2.062-2.289,2.629-3.561c-1.045,0.031-1.639-0.638-2.248-1.334c-2.796-3.191-5.303-6.572-7.124-10.438
		c-0.807-1.711-2-3.157-3.583-4.287c1.334-0.646,2.453-0.433,3.318,0.588c0.96,1.132,1.781,2.365,2.407,3.703
		c1.607,3.438,3.906,6.386,6.392,9.207c0.445,0.506,0.948,0.966,1.334,1.776c1.37-2.454,3.285-4.368,4.589-6.81
		c-0.46-1.363-1.225-2.674-2.041-3.924c-2.448-3.754-3.913-7.883-4.92-12.209c-0.485-2.084-1.031-4.155-1.548-6.233
		c-0.048-0.192-0.108-0.387-0.124-0.582c-0.096-1.231,0.567-1.708,1.703-1.237c0.825,0.342,1.503,0.898,2.141,1.496
		c2.96,2.775,5.381,5.981,7.482,9.439c0.911,1.499,1.75,3.035,2.553,4.597c2.04,3.961,5.634,4.972,9.473,4.411
		c1.324-0.193,1.855-1.062,1.676-2.422c-0.258-1.967-1.301-3.573-2.402-5.143c-0.64-0.912-1.324-1.803-2.059-2.641
		c-2.362-2.695-3.85-5.831-4.667-9.287c-1.016-4.3-2.908-8.128-5.788-11.49c-2.698-3.15-5.096-6.557-8.01-9.523
		c-1.511-1.538-3.101-2.998-4.62-4.528c-1.91-1.925-3.136-4.299-4.309-6.704c-3.316-6.799-5.927-13.874-8.3-21.047
		c-1.921-5.807-3.966-11.572-5.893-17.377c-2.164-6.521-4.455-12.998-6.897-19.417c-1.906-5.012-3.9-9.993-6.352-14.777
		c-1.574-3.072-3.769-5.716-5.681-8.554c-1.853-2.751-3.671-5.51-4.34-8.835c-0.449-2.231-0.623-4.498-0.828-6.758
		c-0.238-2.619-0.448-5.241-0.661-7.862c-0.181-2.227-0.366-4.453-0.521-6.681c-0.161-2.308-0.476-4.601-0.682-6.902
		c-0.257-2.859-0.643-5.702-1.067-8.534c-0.588-3.928-1.325-7.833-2.2-11.713c-1.357-6.02-3.393-11.811-5.602-17.562
		c-2.052-5.343-3.959-10.744-6.303-15.968c-1.975-4.401-4.021-8.777-6.969-12.648c-1.506-1.978-3.243-3.745-5.021-5.475
		c-0.221-0.215-0.532-0.362-0.607-0.81c0.697-0.166,1.183,0.218,1.68,0.573c2.966,2.115,5.354,4.776,7.363,7.796
		c0.75,1.127,1.495,2.256,2.115,3.463c0.143,0.279,0.257,0.594,0.634,0.744c0.491-0.197,0.725-0.685,0.992-1.104
		c2.437-3.837,3.971-8.049,5.054-12.436c0.735-2.977,1.206-6.001,1.453-9.059c0.64,0,1.28,0,1.92,0
		c-0.22,1.817-0.41,3.637-0.713,5.446c-0.787,4.688-2.123,9.196-4.184,13.484c-0.983,2.045-2.074,4.023-3.7,5.684
		c2.26,4.571,4.103,9.223,5.878,13.902c1.634,4.304,3.308,8.595,4.831,12.938c2.956,8.435,4.553,17.188,5.749,26.013
		c0.551,4.065,1.034,8.146,1.261,12.249c0.028,0.508,0.127,1.007,0.366,1.509c2.969-0.15,5.87,0.246,8.789,0.249
		c7.466,0.006,14.929,0.116,22.353-0.958c4.207-0.608,8.202-1.843,12.064-3.572c7.43-3.326,14.191-7.719,20.579-12.739
		c2.985-2.346,5.158-5.193,6.069-8.896c0.462-1.881,0.743-3.807,1.107-5.711c0.155-0.809,0.343-1.617,0.094-2.489
		c-1.481,0.491-2.89,1.026-4.336,1.422c-4.113,1.126-8.366,1.125-12.576,1.412c-2.47,0.168-4.956,0.101-7.434,0.128
		c-0.446,0.005-0.917,0.092-1.548-0.248c2.074-0.741,3.991-1.222,5.973-1.446c3.416-0.387,6.858-0.379,10.283-0.696
		c3.264-0.302,6.354-1.176,9.271-2.56c3.713-1.762,7.08-4.147,10.491-6.42c1.416-0.943,2.821-2.165,2.914-4.131
		c0.068-1.432,0.317-2.844,0.31-4.289c-0.007-1.345,0.243-2.691,0.366-4.038c0.221-2.426,0.184-4.868,0.216-7.295
		c0.023-1.809-0.182-3.65-0.066-5.457c0.092-1.437,0.151-2.869,0.161-4.305c0.013-1.919-0.002-3.839,0.008-5.758
		c0.002-0.432,0.062-0.856,0.137-1.29c0.186-1.067,0.188-2.161-0.008-3.22c-0.508-0.034-0.689,0.438-1.247,0.376
		c-0.773-0.184-0.946-0.978-1.002-1.71c-0.083-1.072-0.387-2.122-0.297-3.212c0.027-0.33,0.039-0.718-0.4-0.972
		c-0.723,1.101-1.589,2.142-1.938,3.406c-0.837,3.03-1.886,5.975-3.218,8.819c-3.927,8.39-9.473,15.383-17.484,20.251
		c-6.327,3.844-13.24,5.725-20.586,6.104c-1.872,0.097-3.75,0.104-5.631,0.027c-3.888-0.156-7.664-0.831-11.301-2.201
		c-6.799-2.561-11.801-7.162-15.153-13.567c-3.216-6.145-4.509-12.79-4.882-19.641c-0.119-2.193-0.032-4.397-0.039-6.596
		c0.64,0,1.28,0,1.92,0c-0.097,4.23-0.012,8.442,0.661,12.643c0.653,4.075,1.708,8.011,3.479,11.734
		c2.445,5.141,6.056,9.246,11.062,12.038c3.996,2.229,8.355,3.326,12.871,3.633c4.341,0.295,8.687,0.152,13-0.648
		c7.378-1.37,13.9-4.451,19.504-9.455c5.03-4.492,8.648-9.988,11.365-16.105c0.483-1.088,1.052-2.18,1.247-3.456
		c-0.502,0.181-0.715,0.542-0.99,0.821c-1.622,1.651-3.253,3.293-5.025,4.786c-1.404,1.184-2.838,2.33-4.253,3.5
		c-2.58,2.134-4.573,4.752-6.351,7.57c-2.657,4.21-6.686,5.852-11.895,4.368c-4.613-1.314-8.159-4.235-11.317-7.688
		c-2.316-2.533-4.252-5.378-6.436-8.021c-4.022-4.867-7.73-9.938-10.361-15.72c0.72,0,1.44,0,2.16,0
		c-0.035,0.302,0.137,0.542,0.264,0.783c1.226,2.329,2.494,4.636,4.033,6.775c3.705,5.146,7.659,10.105,11.747,14.948
		c2.596,3.077,5.748,5.533,9.61,6.886c3.048,1.067,6.027,1.086,8.71-1.054c1.08-0.861,1.8-2.024,2.521-3.17
		c1.625-2.586,3.534-4.923,5.893-6.872c3.23-2.669,6.511-5.284,9.36-8.377c1.56-1.693,3.283-3.266,4.193-5.463
		c0.073-0.176,0.213-0.345,0.363-0.464c1.292-1.022,1.817-2.443,2.107-3.991c0.88,0,1.76,0,2.64,0
		c0.146,2.012,0.401,4.008,0.724,5.904c4.526,0.715,8.968,0.649,13.382,0.999c4.469,0.354,8.945,0.753,13.454,0.839
		c0.113-0.955,0.183-1.748,0.306-2.531c0.271-1.732,0.321-3.493,0.694-5.21c0.56,0,1.12,0,1.681,0
		c-0.068,0.229-0.188,0.457-0.199,0.688c-0.11,2.41-0.543,4.785-0.76,7.182c-0.119,1.31-0.509,1.701-1.855,1.73
		c-0.461,0.01-0.967-0.166-1.439,0.29c0,3.565,0,7.19,0,10.856c0.301,0.293,0.703,0.363,1.15,0.408
		c1.268,0.127,2.458,0.317,3.395,1.426c1.104,1.309,2.537,2.21,4.15,2.915c3.086,1.348,6.281,0.84,9.454,0.852
		c0.062,0,0.125-0.09,0.213-0.158c0.292-2.871,0.668-5.751,1.293-8.593c0.386-1.751,0.828-3.486,1.622-5.11
		c0.325-0.666,0.753-1.099,1.523-0.922c0.228,0.349,0.062,0.595-0.032,0.852c-0.472,1.275-0.837,2.581-1.173,3.896
		c-0.818,3.209-1.709,6.39-1.576,9.774c0.124,3.189-0.002,6.38-0.404,9.564c-0.523,4.146-1.161,8.274-1.77,12.408
		c-0.543,3.697-1.235,7.372-1.834,11.061c-0.688,4.235-1.465,8.453-2.311,12.659c-0.619,3.08-1.16,6.171-1.572,9.287
		c-0.268,2.013-0.559,4.021-0.744,6.044c-0.185,1.982-0.473,3.954-0.664,5.936c-0.213,2.224-0.377,4.453-0.551,6.681
		c-0.224,2.824-0.453,5.648-0.646,8.475c-0.164,2.39-0.277,4.785-0.425,7.176c-0.062,0.975-0.097,1.945-0.028,2.97
		c2.771-1.245,5.589-1.887,8.289-2.91c-0.458,1.042-1.391,1.42-2.271,1.84c-4.355,2.072-8.416,4.629-11.746,8.116
		c-4.125,4.318-6.246,9.453-5.448,15.573c0.541,4.157-0.075,8.071-2.435,11.673c-1.707,2.604-3.582,5.077-5.427,7.576
		c-1.229,1.665-2.509,3.319-3.231,5.273c-0.765,2.064-0.484,3.427,1.27,4.592c0.598,0.396,1.198,0.774,1.848,1.078
		c1.65,0.773,3.237,0.679,4.752-0.35c1.334-0.906,2.387-2.106,3.429-3.315c1.905-2.213,3.444-4.688,5.03-7.127
		c0.826-1.271,1.598-2.577,2.436-3.839c0.867-1.308,1.982-2.308,3.751-2.823c-1.952,3.164-3.604,6.208-5.595,9.164
		c0.57,0.331,0.557,0.855,0.631,1.373c0.124,0.876,0.181,1.754,0.128,2.631c-0.122,2.045,0.188,4.072,0.302,6.102
		c0.116,2.063,0.527,4.11,0.438,6.193c-0.014,0.295,0.109,0.526,0.377,0.676c0.408-0.134,0.672-0.452,0.918-0.754
		c2.812-3.454,6.16-6.218,10.244-8.06c0.99-0.447,1.668-1.226,2.006-2.261c0.346-1.056,0.646-2.123,0.878-3.213
		c0.995-4.721,1.458-9.521,2.118-14.291c0.547-3.945,1.264-7.846,2.383-11.668c1.214-4.146,2.438-8.289,3.665-12.43
		c2.021-6.819,4.413-13.507,7.27-20.021c2.14-4.877,4.435-9.688,6.284-14.686c2.536-6.851,4.832-13.783,6.969-20.771
		c2.137-6.986,4.129-14.011,5.975-21.079c1.535-5.878,2.939-11.788,4.15-17.742c0.547-2.69,0.957-5.409,1.239-8.14
		c0.2-1.942,0.187-3.905,0.349-5.853c0.207-2.479,0.183-4.953,0.063-7.43c-0.185-3.825-0.39-7.649-0.89-11.449
		c0.641,0,1.279,0,1.92,0c0.262,2.697,0.58,5.389,0.697,8.1c0.133,3.114,0.293,6.225,0.209,9.345
		c-0.186,6.832-1.172,13.552-2.666,20.21c-1.845,8.206-3.949,16.347-6.235,24.437c-1.793,6.341-3.718,12.644-5.804,18.897
		c-2.322,6.973-4.729,13.914-7.744,20.625c-1.68,3.737-3.379,7.463-4.885,11.274c-2.229,5.646-4.147,11.395-5.787,17.241
		c-0.994,3.552-2.129,7.065-3.151,10.609c-0.981,3.402-1.606,6.88-2.101,10.384c-0.787,5.591-1.262,11.231-2.638,16.729
		c-0.601,2.397-1.839,4.192-4.243,5.252c-3.218,1.417-5.861,3.688-8.152,6.352c-0.676,0.786-1.371,1.55-2.236,2.246
		c0.182,1.468,0.357,2.963,0.552,4.457c0.291,2.25,0.613,4.497,0.882,6.75c0.088,0.75,0.309,1.477,0.271,2.252
		c-0.03,0.676-0.27,1.125-0.882,1.421c-1.109,0.535-2.187,1.134-3.366,1.518c-0.331,0.106-0.725,0.117-1.007,0.489
		c-0.345,2.404,0.278,4.769,0.759,7.146c0.109,0.544,0.277,1.076,0.378,1.622c0.233,1.273-0.004,1.672-1.284,1.919
		c-1.447,0.28-2.908,0.492-4.367,0.697c-2.801,0.394-5.598,0.815-8.406,1.126c-2.932,0.324-5.855,0.736-8.812,0.818
		c-0.665,0.02-1.358-0.067-2.062,0.371c0.414,5.033-0.007,10.11,0.506,15.276c0.548-0.422,0.669-1.021,0.921-1.509
		c0.713-1.379,1.344-2.8,2.034-4.191c0.66-1.33,1.244-1.472,2.424-0.604c0.803,0.592,1.59,1.207,2.374,1.824
		c0.974,0.766,1.06,1.16,0.401,2.227c-1.148,1.866-2.33,3.714-3.494,5.571c-0.146,0.231-0.271,0.478-0.413,0.728
		c0.399,0.76,1.073,1.225,1.62,1.784c1.754,1.804,3.554,3.563,5.338,5.339c1.074,1.07,1.158,1.502,0.465,2.838
		c-1.157,2.221-2.311,4.446-3.508,6.646c-0.428,0.783-0.471,1.447,0.085,2.193c0.448,0.602,0.756,1.309,1.159,1.946
		c0.465,0.732,0.394,1.405-0.063,2.115c-3.757,5.83-7.504,11.666-11.249,17.504c-0.472,0.735-0.831,1.547-1.516,2.166
		c0.059,1.649,0.594,3.204,0.865,4.804c0.674,3.963,1.498,7.906,1.587,11.947c0.018,0.838-0.021,1.678-0.041,2.518
		c-0.004,0.158,0.017,0.367-0.071,0.465c-1.013,1.125-0.534,2.412-0.359,3.627c0.486,3.373,0.562,6.771,0.584,10.163
		c0.04,6.315,0.125,12.634,0.38,18.941c0.299,7.427,0.682,14.851,0.748,22.284c0.043,4.683-0.401,9.312-1.204,13.927
		c-0.716,4.115-1.42,8.229-2.479,12.272c-0.291,1.112-0.638,2.213-1.014,3.3c-0.436,1.266-0.985,2.463-2.654,2.83
		c2.79,4.996,5.521,9.888,8.252,14.779c-0.8,0-1.601,0-2.4,0c0.003-0.637-0.417-1.097-0.697-1.604
		c-4.262-7.722-8.573-15.417-12.783-23.168c-2.828-5.207-5.25-10.562-6.939-16.257c-1.879-6.333-2.778-12.846-3.812-19.338
		c-0.528-3.318-1.194-6.591-2.923-9.548c-0.522-0.894-0.86-1.88-1.189-2.866c-1.32-3.961-1.503-8.051-1.465-12.178
		c0.033-3.682,0.425-7.333,0.828-10.982c0.178-1.616,0.4-3.233,0.835-4.817c1.127-4.104,3.244-7.692,5.62-11.172
		c1.894-2.771,4.349-5.092,6.15-7.943c1.787-2.829,3.776-5.539,5.592-8.344c2.338-3.609,4.452-7.387,6.135-11.377
		c0.817-1.938,1.965-3.707,3.313-5.56c-2.081-0.304-3.847-1.119-5.675-1.753c-3.193-1.105-6.442-2.053-9.573-3.336
		c-0.879-0.36-1.739-0.766-2.608-1.149c0.775-0.263,1.419-0.04,2.063,0.117c2.937,0.717,5.799,1.687,8.67,2.622
		c2.195,0.715,4.4,1.396,6.296,2.799c0.406,0.301,0.93,0.421,1.47,0.436c1.184,0.029,1.494,0.496,0.874,1.447
		c-1.836,2.819-3.063,5.954-4.672,8.891c-0.263,0.479-0.476,1.025-0.55,1.562c-0.214,1.562-0.801,2.978-1.465,4.388
		c-0.579,1.228-1.133,2.465-1.809,3.645c-0.234,0.408-0.498,0.816-0.479,1.359c1.869,0.176,3.725,0.453,5.72,0.254
		c4.067-6.16,8.038-12.469,12.048-18.774c-0.523-0.896-0.958-1.753-1.498-2.537c-0.676-0.981-0.66-1.901-0.073-2.907
		c0.562-0.967,1.052-1.975,1.563-2.969c0.779-1.515,1.55-3.033,2.435-4.765c-0.556-0.47-1.106-0.875-1.587-1.351
		c-1.902-1.882-3.794-3.773-5.667-5.686c-0.96-0.979-1.019-1.357-0.323-2.53c0.812-1.374,1.709-2.696,2.538-4.062
		c0.405-0.67,0.941-1.274,1.147-2.028c-0.785-0.878-0.967-1.006-1.815-1.3c-0.298,0.285-0.401,0.683-0.571,1.038
		c-0.791,1.655-1.59,3.309-2.338,4.983c-0.471,1.053-1.166,1.623-2.374,1.656c-0.951,0.027-1.906,0.162-2.857,0.258
		c-3.969,0.397-7.934,0.829-11.905,1.203c-1.187,0.111-2.395,0.092-3.568,0.381c-0.318,0.079-0.611,0.137-0.82,0.422
		c-1.575,2.156-3.156,4.31-4.737,6.465c0.492,1,1.229,1.742,1.884,2.541c1.835,2.238,3.47,4.582,4.125,7.475
		c0.546,2.412-0.667,4.443-3.104,4.936c-3.59,0.726-6.806-0.082-9.544-2.582c-0.195-0.18-0.333-0.472-0.761-0.397
		c-0.672,1.161-1.418,2.342-2.058,3.577c-2.555,4.933-6.092,9.185-9.564,13.445c-2.334,2.864-3.709,6-4.327,9.556
		c-0.55,3.168-0.545,6.364-0.398,9.562c0.29,6.269,0.478,12.538,0.845,18.804c0.231,3.949,0.591,7.886,1.06,11.809
		c0.439,3.679,1,7.343,1.593,11.003c0.963,5.941,2.095,11.849,3.297,17.743c1.21,5.936,2.489,11.858,3.69,17.796
		c1.791,8.854,4.149,17.53,7.913,25.777c0.811,1.775,1.615,3.557,2.422,5.335C236.64,396.24,235.92,396.24,235.2,396.24z
		 M116.677,234.5c-0.318,0.467-0.28,0.833-0.312,1.184c-0.172,1.866-0.295,3.739-0.528,5.599c-0.348,2.776-0.538,5.567-0.621,8.354
		c-0.118,3.991-0.254,7.983-0.111,11.985c0.162,4.553,0.456,9.093,1.125,13.588c0.749,5.032,1.734,10.029,2.644,15.036
		c0.726,3.995,1.273,8.018,1.801,12.04c0.404,3.075,0.735,6.166,1.042,9.257c0.343,3.453,0.683,6.906,0.899,10.369
		c0.045,0.727,0.262,1.312,0.803,1.783c1.81,1.574,3.721,3.007,5.898,4.044c1.752,0.835,3.597,1.422,5.54,1.099
		c3.325-0.552,6.003-2.319,8.058-4.935c0.978-1.245,1.315-2.764,0.947-4.409c-0.216-0.964-0.247-1.979-0.287-2.973
		c-0.149-3.719,0.093-7.41,0.654-11.094c0.534-3.502,1.278-6.953,2.189-10.369c1.533-5.752,3.591-11.345,5.274-17.053
		c1.932-6.553,3.783-13.111,4.392-19.972c0.343-3.863,0.049-7.646-0.655-11.421c-0.632-3.396-1.262-6.791-1.864-10.192
		c-0.242-1.366-0.364-2.771-0.848-4.259c-1.312,1.939-1.874,4.129-3.503,5.661c0.025-0.367,0.132-0.696,0.272-1.013
		c0.812-1.826,1.517-3.694,2.203-5.572c0.78-2.139,1.168-4.391,1.938-6.529c1.616-4.495,2.727-9.125,3.574-13.816
		c0.785-4.343,1.569-8.686,2.238-13.049c0.584-3.812,1.247-7.611,1.864-11.418c0.464-2.865,0.915-5.732,1.362-8.601
		c0.27-1.727,0.522-3.457,0.78-5.185c0.164-1.1-0.545-1.881-1.047-2.713c-3.245-5.383-6.303-10.868-8.981-16.555
		c-5.028-10.68-9.951-21.408-14.669-32.23c-2.018-4.628-4.042-9.254-6.04-13.891c-2.093-4.856-4.145-9.729-6.238-14.584
		c-1.873-4.344-3.787-8.669-5.666-13.011c-0.865-2-1.689-4.019-2.567-6.114c-0.546,0.644-0.497,1.352-0.649,1.979
		c-1.477,6.095-2.901,12.202-4.393,18.292c-0.992,4.052-1.984,8.098-2.615,12.229c-0.415,2.716-0.851,5.427-1.212,8.151
		c-0.331,2.486-0.674,4.969-0.921,7.465c-0.239,2.418-0.518,4.832-0.763,7.25c-0.309,3.055-0.664,6.107-0.879,9.168
		c-0.185,2.627-0.375,5.255-0.577,7.879c-0.285,3.706-0.51,7.417-0.599,11.125c-0.106,4.431-0.138,8.868,0.115,13.306
		c0.26,4.539,0.625,9.057,1.511,13.519c0.708,3.565,1.691,7.028,3.724,10.118c1.32,2.006,2.23,4.199,2.784,6.549
		c0.885,3.754,0.912,7.589,1.159,11.402c0.207,3.182,0.394,6.375,1.062,9.487c1.215,5.655,2.061,11.375,3.147,17.052
		c0.057,0.299,0.142,0.604-0.129,0.934c-0.784-0.7-1.272-1.455-1.417-2.467C117.465,236.15,117.427,235.248,116.677,234.5z
		 M176.211,104.998c0.36,0.154,0.551,0.115,0.745,0.051c1.651-0.537,2.956-0.049,4.006,1.305c0.546,0.705,0.911,1.485,1.198,2.315
		c1.267,3.656,1.771,7.465,1.793,11.287c0.013,2.305,0.674,4.167,1.813,6.116c3.768,6.447,6.254,13.475,8.858,20.438
		c2.128,5.688,4.103,11.433,6.042,17.188c2.128,6.316,4.344,12.604,6.42,18.938c2.222,6.779,4.927,13.35,8.133,19.715
		c0.938,1.864,2.151,3.543,3.692,4.976c1.112,1.032,2.208,2.086,3.28,3.159c2.486,2.49,4.681,5.232,6.85,7.996
		c0.183,0.233,0.329,0.562,0.839,0.496c0-1.242,0-2.48,0-3.775c-0.566,0.156-1.147,0.544-1.544-0.116
		c-0.392-0.651,0.003-1.11,0.469-1.553c0.375-0.356,0.738-0.742,1.024-1.169c1.578-2.358,2.786-4.9,3.68-7.592
		c1.503-4.522,2.675-9.14,3.874-13.75c0.877-3.375,1.664-6.798,3.161-9.962c1.741-3.681,3-7.513,4.045-11.43
		c1.577-5.906,2.922-11.868,4.318-17.818c0.735-3.134,1.622-6.236,2.123-9.42c0.641-4.069,0.833-8.179,0.883-12.29
		c0.045-3.714-0.115-7.426-0.333-11.137c-0.149-2.55-0.326-5.1-0.586-7.635c-0.37-3.602-0.82-7.198-1.339-10.786
		c-0.604-4.173-1.297-8.329-2.117-12.463c-0.913-4.604-1.879-9.198-2.033-13.915c-0.036-1.094-0.18-2.185-0.276-3.31
		c-0.431,0.108-0.542,0.433-0.708,0.685c-0.729,1.112-1.651,2.04-2.649,2.911c-4.858,4.242-10.191,7.791-15.762,11.019
		c-7.841,4.543-16.192,7.381-25.289,7.826c-3.192,0.156-6.383,0.358-9.584,0.297c-4.195-0.081-8.394,0.125-12.588-0.218
		c-1.048-0.085-2.127-0.165-3.296,0.029C175.535,97.322,175.903,101.16,176.211,104.998z M281.213,147.26
		c0.485-1.753,0.337-3.5,0.191-5.253c-0.18-2.191-0.395-4.412,0.063-6.57c0.941-4.437,3.005-8.326,6.269-11.5
		c0.771-0.75,1.015-1.495,1.012-2.513c-0.042-11.035-0.229-22.068-0.271-33.104c-0.08-20.948-0.271-41.896-0.429-62.843
		c-0.005-0.624,0.11-1.271-0.161-1.912c-2.586-0.348-5.154-0.673-7.716-1.042c-2.96-0.427-5.912-0.905-8.872-1.336
		c-2.445-0.357-4.849-0.977-7.318-1.171c-0.694-0.054-1.42-0.272-2.166,0.263c0.125,1.881-0.197,3.785-0.177,5.699
		c0.025,2.43,0.14,4.859,0.215,7.289c0.094,3-0.145,5.998-0.394,8.974c-0.269,3.217-0.647,6.432-0.8,9.656
		c-0.237,4.989-0.364,9.985-0.459,14.979c-0.191,10.072-0.334,20.145-0.49,30.218c-0.156,10.072-0.276,20.146-0.468,30.216
		c-0.098,5.156,0.044,10.315-0.214,15.469c-0.076,1.51-0.132,3.023-0.032,4.672C266.419,148.424,273.768,149.246,281.213,147.26z
		 M195.703,275.355c-2.064,3.543-3.23,7.078-3.473,10.914c-0.202,3.205,0.326,6.371,0.568,9.549c0.19,2.494,0.057,4.947-0.242,7.404
		c-0.381,3.124-0.79,6.243-1.077,9.379c-0.188,2.062-0.464,4.113-0.84,6.153c-0.956,5.197-2.467,10.283-3.054,15.556
		c-0.285,2.553-0.394,5.1,0.112,7.615c0.473,2.355,1.544,4.461,3.445,6c3.587,2.906,7.795,4.075,12.339,4.062
		c2.929-0.008,5.766-0.642,8.459-1.818c2.73-1.194,5.224-2.729,7.163-5.057c0.485-0.583,0.696-1.353,1.261-1.815
		c0.363-0.192,0.769,0.039,0.958-0.135c0.216-0.257,0.165-0.413,0.123-0.566c-0.478-1.77-0.649-3.594-0.847-5.399
		c-0.191-1.745-0.405-3.48-1.031-5.111c-1.376-3.585-2.08-7.324-2.555-11.099c-0.221-1.755-0.411-3.526-0.58-5.294
		c-0.255-2.672-0.58-5.335-0.667-8.021c-0.009-0.279,0.027-0.566-0.03-0.837c-0.446-2.117-0.207-4.274-0.336-6.41
		c-0.144-2.375,0.337-4.772-0.095-7.164c-0.665-3.679-0.483-7.397-0.503-11.106c-0.001-0.266,0.078-0.553-0.145-0.844
		c-0.84,0.303-1.682,0.651-2.55,0.91c-2.447,0.729-4.96,1.164-7.497,1.355c-2.614,0.195-4.843-0.688-6.552-2.771
		C196.806,279.279,196.277,277.457,195.703,275.355z M258.41,48.985c-0.166,0.11-0.34,0.197-0.479,0.322
		c-2.696,2.438-5.565,4.645-8.714,6.471c-0.646,0.375-0.839,0.919-0.823,1.602c0.034,1.441-0.106,2.885-0.349,4.286
		c-0.388,2.238-0.767,4.477-0.83,6.741c-0.138,4.959,0.312,9.892,1.266,14.75c1.362,6.945,2.655,13.893,3.554,20.918
		c0.546,4.272,0.967,8.553,1.333,12.839c0.271,3.181,0.365,6.38,0.466,9.573c0.117,3.675-0.125,7.339-0.381,11.006
		c-0.186,2.67-0.499,5.319-1.094,7.914c-1.587,6.924-3.264,13.827-4.93,20.733c-1.042,4.319-2.205,8.605-3.866,12.738
		c-0.873,2.173-1.96,4.251-2.652,6.508c-1.408,4.588-2.458,9.271-3.778,13.882c-1.226,4.282-2.507,8.535-4.644,12.478
		c-0.263,0.483-0.423,1.019-0.429,1.596c-0.021,1.997-0.326,3.982-0.284,5.983c0.014,0.681-0.093,1.343-0.451,1.976
		c1.21,1.39,2.215,2.873,3.088,4.438c1.542,2.766,2.302,5.818,3.167,8.832c0.356,1.242,0.675,2.512,1.538,3.58
		c1.55-2.068,3.062-4.073,4.556-6.092c0.379-0.511,0.861-0.812,1.474-0.935c0.589-0.118,1.185-0.164,1.781-0.229
		c1.614-0.178,3.248-0.213,4.854-0.562c0.158-1.887,0.192-3.717,0.254-5.55c0.188-5.55,0.496-11.097,0.673-16.646
		c0.2-6.309,0.473-12.615,0.706-18.922c0.239-6.465,0.462-12.931,0.729-19.396c0.174-4.23,0.351-8.461,0.469-12.692
		c0.143-5.113,0.409-10.221,0.551-15.334c0.17-6.108,0.457-12.214,0.701-18.321c0.147-3.671,0.32-7.342,0.458-11.014
		c0.116-3.075,0.182-6.151,0.297-9.225c0.22-5.869,0.462-11.736,0.689-17.604c0.102-2.635,0.171-5.271,0.288-7.906
		c0.282-6.346,0.55-12.692,0.674-19.043c0.053-2.756,0.29-5.507,0.235-8.267C258.498,49.957,258.803,49.481,258.41,48.985z
		 M257.298,380.144c0.769-0.627,1.135-1.333,1.416-2.088c0.487-1.309,0.869-2.648,1.204-4.004c1.118-4.528,1.918-9.122,2.619-13.729
		c0.383-2.522,0.723-5.059,0.759-7.621c0.113-8.161-0.355-16.305-0.665-24.454c-0.25-6.591-0.382-13.188-0.473-19.782
		c-0.064-4.632-0.032-9.271-1.046-13.815c-1.039-4.656-2.215-9.272-6.368-12.342c-0.428-0.315-0.592-0.789-0.259-1.268
		c0.316-0.451,0.762-0.512,1.273-0.277c0.819,0.373,1.461,0.967,2.067,1.604c1.624,1.71,2.643,3.78,3.529,5.932
		c0.15,0.364,0.141,0.845,0.668,1.125c-0.493-5.085-1.4-9.989-2.537-14.864c-1.022-0.219-1.927-0.295-2.811-0.215
		c-0.391,0.256-0.521,0.643-0.694,1c-1.715,3.555-3.283,7.172-4.688,10.858c-0.809,2.122-1.609,4.271-1.88,6.526
		c-0.127,1.063-0.352,1.834-1.391,2.121c0.14,2.078,0.224,4.072,0.42,6.057c0.339,3.423,0.548,6.859,0.621,10.289
		c0.154,7.273,0.168,14.554-0.1,21.83c-0.152,4.113-0.186,8.232-0.388,12.345c-0.255,5.187-0.517,10.372-0.696,15.562
		c-0.027,0.785,0.129,1.485,0.444,2.197c1.634,3.694,3.672,7.178,5.572,10.733C255.001,375.936,256.132,377.994,257.298,380.144z
		 M263.247,189.397c0.455,0,0.693,0.005,0.931-0.001c1.716-0.042,3.408-0.325,5.112-0.484c2.063-0.192,4.131-0.341,6.192-0.545
		c2.855-0.282,5.705-0.77,8.564-0.837c1.995-0.047,3.021-0.873,3.529-2.65c0.054-0.191,0.126-0.376,0.189-0.564
		c1.004-2.946,1.209-6.002,1.172-9.078c-0.025-2.236-0.22-4.467-0.235-6.707c-0.011-1.293-0.244-2.577-0.216-4.047
		c-0.682,0.545-0.954,1.129-1.325,1.629c-1.403,1.892-2.818,3.774-4.571,5.366c-1.715,1.559-3.624,2.628-6.058,2.259
		c-1.753-0.266-3.196-1.187-4.562-2.235c-1.747-1.341-2.565-3.269-1.731-5.848c0.601-1.853,1.669-3.429,2.764-4.994
		c1.988-2.844,4.225-5.51,6.082-8.448c0.502-0.793,1.035-1.579,1.27-2.646c-2.937,0.271-5.721,0.993-8.604,0.942
		c-2.87-0.051-5.71-0.533-8.712-0.546C262.866,163.111,263.402,176.191,263.247,189.397z M290.666,121.201
		c1.462-0.423,1.932-1.375,1.893-2.648c-0.072-2.361,0.229-4.707,0.309-7.062c0.051-1.51,0.165-3.026,0.271-4.538
		c0.19-2.666,0.418-5.328,0.635-7.992c0.18-2.226,0.304-4.458,0.562-6.675c0.368-3.164,0.644-6.338,1.103-9.493
		c0.359-2.476,0.666-4.959,1.148-7.415c0.499-2.535,1.068-5.059,1.492-7.605c0.73-4.391,1.604-8.756,2.236-13.164
		c0.549-3.814,1.272-7.604,1.838-11.416c0.604-4.09,1.125-8.193,1.654-12.294c0.096-0.735,0.135-1.492,0.008-2.298
		c-1.653-0.103-3.239-0.221-4.826-0.294c-2.982-0.138-5.859-0.629-8.398-2.348c-0.127-0.085-0.271-0.17-0.529,0.081
		C290.261,57.65,290.463,89.369,290.666,121.201z M260.271,200.234c-0.693-0.127-1.238-0.227-1.783-0.33
		c-0.672-0.129-1.087-0.571-1.154-1.211c-0.086-0.832-0.285-1.647-0.275-2.495c0.026-2.199-0.049-4.399,0.029-6.596
		c0.065-1.827,0.246-3.653,0.669-5.444c0.232-0.986,0.779-1.594,1.83-1.764c0.569-0.092,1.186-0.105,1.677-0.444
		c0.228-1.748-0.192-31.413-0.475-32.304c-1.287-0.339-2.894,0.102-3.891-1.498c-0.225,1.404-0.093,2.598-0.146,3.783
		c-0.239,5.428-0.526,10.854-0.67,16.285c-0.085,3.194-0.25,6.387-0.354,9.58c-0.101,3.111-0.225,6.226-0.352,9.337
		c-0.127,3.114-0.249,6.23-0.355,9.344c-0.076,2.235-0.118,4.473-0.207,6.708c-0.226,5.668-0.469,11.336-0.669,17.006
		c-0.099,2.795-0.338,5.586-0.275,8.387c0.011,0.505-0.267,1.025,0.141,1.62c2.957-0.357,5.993-0.478,9.017-0.97
		c-0.371-5.851-0.082-11.529-0.536-17.27c-1.571-0.845-2.415-2.271-2.723-4.055c-0.144-0.831-0.064-1.674-0.1-2.51
		C259.594,203.674,260.062,202.012,260.271,200.234z M190.292,213.57c-0.221,2.482-0.319,4.896-0.433,7.308
		c-0.279,5.883,0.415,11.705,1.469,17.479c0.742,4.062,1.731,8.076,2.721,12.088c1.178,4.771,2.484,9.516,3.321,14.367
		c0.334,1.937,0.64,3.901,0.278,5.828c-0.532,2.827-0.064,5.446,1.19,7.955c1.113,2.229,3.37,3.405,6.078,3.041
		c0.908-0.121,1.823-0.199,2.727-0.349c2.357-0.39,4.68-0.897,6.827-2.013c0.366-0.19,0.758-0.375,0.883-0.758
		c0.511-1.566,0.972-3.148,1.417-4.613c-0.228-0.279-0.387-0.295-0.547-0.309c-2.937-0.255-5.568-1.254-7.838-3.169
		c-3.368-2.84-6.298-6.104-9.208-9.394c-1.354-1.53-2.404-3.182-2.727-5.215c-0.207-1.301-0.412-2.619-0.303-3.936
		c0.37-4.447-0.303-8.848-0.598-13.262c-0.223-3.344-0.58-6.682-0.632-10.031c-0.069-4.464-1.16-8.645-3.22-12.584
		C191.263,215.18,190.762,214.383,190.292,213.57z M246.019,356.194c0.053-0.515,0.129-1.027,0.154-1.543
		c0.171-3.511,0.368-7.02,0.486-10.53c0.199-5.909,0.374-11.819,0.507-17.73c0.137-6.072,0.083-12.147-0.216-18.217
		c-0.149-3.027-0.456-6.049-0.642-9.076c-0.132-2.15-0.328-4.296-0.528-6.439c-0.193-2.064-0.277-4.143-0.565-6.192
		c-0.149-1.062,0.02-2.202-0.588-3.284c-0.424,0.465-0.506,0.989-0.506,1.486c-0.002,1.682-0.281,3.344-0.292,5.02
		c-0.015,2.237-0.196,4.471-0.321,6.698c-0.285,5.064-0.402,10.134-0.614,15.199c-0.142,3.392-0.083,6.791-0.183,10.188
		c-0.189,6.434,0.1,12.86,0.442,19.282c0.105,1.985,0.35,3.972,0.594,5.952c0.209,1.699,0.638,3.354,0.86,5.054
		C244.792,353.486,245.24,354.912,246.019,356.194z M262.837,9.014c-0.182,2.984,0.196,5.947,0.125,8.87
		c6.937,0.904,13.718,2.279,20.656,3.026c0-3.748,0-7.392,0-11.043c-2.593-0.25-5.101-0.376-7.604-0.555
		c-1.474-0.105-2.951-0.151-4.421-0.275C268.73,8.796,265.877,8.468,262.837,9.014z M240.653,330.635
		c-0.006-7.307,0.219-14.569,0.426-21.832c0.206-7.218,0.608-14.43,0.924-21.644c-0.09-0.013-0.18-0.025-0.271-0.037
		c-1.573,2.104-2.703,4.452-3.647,6.894c-1.13,2.926-1.326,6.037-1.671,9.104c-0.423,3.769-0.629,7.557-0.515,11.354
		c0.069,2.275,0.422,4.508,0.881,6.735C237.478,324.598,239.626,327.379,240.653,330.635z M254.313,274.348
		c-0.824-0.43-1.358-0.117-1.843,0.314c-0.596,0.529-1.185,1.072-1.735,1.648c-1.456,1.523-3.026,2.946-4.274,4.594
		c0.577,3.24,0.666,6.455,1.269,9.611C249.438,284.956,251.869,279.73,254.313,274.348z M181.978,120.311
		c0.054-0.439,0.097-0.594,0.088-0.745c-0.132-2.104-0.236-4.215-0.643-6.286c-0.358-1.823-0.705-3.665-1.64-5.314
		c-0.843-1.489-1.993-1.638-3.229-0.48C176.525,112.459,178.964,116.356,181.978,120.311z M228.851,254.434
		c0.179-0.072,0.277-0.08,0.315-0.132c0.936-1.291,1.594-2.741,2.35-4.136c0.245-0.452,0.021-0.848-0.176-1.239
		c-0.819-1.632-1.649-3.26-2.68-4.77c-0.207-0.304-0.271-0.771-0.732-0.87c-0.059,0.062-0.143,0.107-0.151,0.166
		c-0.331,2.197-0.664,4.395-0.969,6.595c-0.053,0.384-0.093,0.794,0.13,1.166C227.583,252.29,228.221,253.371,228.851,254.434z
		 M224.979,247.331c0.115-0.015,0.229-0.026,0.344-0.041c0.26-1.995,0.528-3.989,0.772-5.985c0.058-0.474,0.008-0.922-0.345-1.334
		c-1.062-1.238-2.093-2.503-3.26-3.646c-0.178-0.175-0.331-0.464-0.772-0.275C222.832,239.801,223.347,243.729,224.979,247.331z
		 M252.663,272.213c0.519-0.17,0.574-0.415,0.423-0.781C252.75,271.55,252.659,271.775,252.663,272.213z"/>
	<path d="M275.875,240.75L268,232l4.625-6.875l-3.375-2.625l-3.75,6.875l-1.75,1l-18.625,2.25L239.75,240l4,4.75
		c0.125,1,19,6.875,19,6.875L251.5,273l9.5,0.375l12.625-18.625l-2.375-5.125L275.875,240.75z M269.229,240.373
		c-0.795,1.146-1.556,2.314-2.342,3.467c-0.396,0.578-0.859,1.064-1.871,0.977c-0.056-0.014-0.332-0.057-0.59-0.152
		c-4.247-1.6-8.491-3.202-12.733-4.812c-0.371-0.141-0.75-0.289-1.079-0.506c-0.695-0.457-0.87-1.086-0.362-1.73
		c1.157-1.475,1.705-2.073,2.935-3.488c0.499-0.572,2.269-1.091,3.688-0.5c3,1.25,4.679,1.67,7.597,2.829
		c1.368,0.543,2.731,1.097,4.098,1.646C269.878,238.624,270.038,239.21,269.229,240.373z"/>
</g>
</svg>
