<?xml version="1.0" encoding="utf-8"?>
<!-- Generator: Adobe Illustrator 16.2.1, SVG Export Plug-In . SVG Version: 6.00 Build 0)  -->
<!DOCTYPE svg PUBLIC "-//W3C//DTD SVG 1.1//EN" "http://www.w3.org/Graphics/SVG/1.1/DTD/svg11.dtd">
<svg version="1.1" id="RS_x5F_straps02_xA0_Image_1_"
	 xmlns="http://www.w3.org/2000/svg" xmlns:xlink="http://www.w3.org/1999/xlink" x="0px" y="0px" width="528px" height="396px"
	 viewBox="0 0 528 396" enable-background="new 0 0 528 396" xml:space="preserve">
<g>
	<path d="M271.2,396.24c0.468-0.576,1.171-0.803,1.784-1.14c4.428-2.429,8.764-5.032,13.313-7.228
		c5.079-2.449,10.42-4.262,15.687-6.254c3.973-1.502,8.047-2.669,12.119-3.848c2.354-0.683,4.316-2.03,6.047-3.718
		c4.773-4.65,8.682-9.981,12.144-15.648c8.979-14.694,16.728-30.047,24.354-45.468c4.354-8.809,8.334-17.787,12.439-26.709
		c2.871-6.237,5.776-12.457,8.916-18.565c2.848-5.538,6.176-10.769,9.852-15.791c4.281-5.851,8.453-11.772,11.608-18.341
		c1.896-3.943,3.338-8.069,5.019-12.098c2.977-7.139,6.939-13.691,11.758-19.738c1.812-2.274,3.645-4.542,4.854-7.227
		c0.967-2.145,1.192-4.35,0.574-6.629c-0.029-0.107-0.115-0.2-0.183-0.293c-0.021-0.029-0.068-0.039-0.104-0.057
		c-1.367,1.501-1.367,1.501-2.257,1.591c0.724-1.916,1.424-3.785,2.14-5.648c0.171-0.444,0.434-0.855,0.585-1.304
		c0.271-0.794,0.46-1.579,0.115-2.439c-0.758-1.893-1.863-3.571-3.033-5.31c-0.55,0.413-1.217,0.481-1.641,1.044
		c0.07-1.348,0.254-2.662,0.431-3.963c0.28-2.06-0.165-3.997-0.928-5.817c-1.097-2.618-2.72-4.936-4.677-7.022
		c-0.729-0.777-1.258-1.738-1.894-2.604c-0.491-0.67-1.079-1.247-1.924-1.902c0.215,3.967,1.393,7.734-0.054,11.455
		c-0.406-1.781-0.563-3.583-0.92-5.355c-0.462-2.296-0.977-4.584-1.229-6.917c-0.033-0.309-0.207-0.509-0.362-0.732
		c-0.286-0.411-0.479-0.814-0.223-1.33c0.275-0.554-0.021-1.088-0.129-1.627c-0.356-1.788-0.701-3.579-1.226-5.327
		c-0.879-2.938-2.793-4.795-5.778-5.601c-2.577-0.696-5.228-0.934-7.841-1.397c-1.328-0.236-2.684-0.36-4.008-0.59
		c-1.223-0.212-2.275-0.021-3.34,0.506c-3.135,1.553-6.174,3.289-9.256,4.941c-0.483,0.259-1.047,0.415-1.402,0.973
		c0.16,0.975,0.449,1.96,0.879,2.896c0.803,1.753,2.105,2.816,4.081,3.091c3.45,0.479,6.782-0.039,10.378-0.956
		c-1.84-1.662-3.514-3.174-4.414-5.321c1.912,2.06,4.613,2.807,6.863,4.345c0.602-0.702,0.445-1.509,0.627-2.21
		c0.25-0.957,0.337-1.955,0.537-2.925c0.123-0.588,0.479-1.032,1.133-1.024c0.527,0.006,0.832,0.537,0.791,1.259
		c-0.012,0.198-0.024,0.399-0.063,0.593c-0.237,1.167-0.481,2.333-0.726,3.5c-0.594,2.85-1.167,5.704-1.784,8.549
		c-0.382,1.757-0.915,3.451-1.769,5.069c-1.338,2.538-2.015,5.34-2.92,8.048c-0.468,1.396-0.938,2.792-1.785,4.019
		c-1.284,1.859-3.338,2.58-5.56,2.053c-1.896-0.449-3.403-1.517-4.795-2.79c-2.897-2.652-5.308-5.738-7.728-8.811
		c-1.207-1.533-2.433-3.062-3.438-4.736c-1.197-1.998-3.113-3.012-5.105-3.948c-0.935-0.438-1.895-0.797-2.928-0.957
		c-1.818-0.28-3.369,0.359-4.826,1.336c-0.662,0.445-1.004,1.069-1.07,1.896c-0.129,1.582,0.326,3.077,0.583,4.601
		c0.132,0.781,0.251,1.576,0.502,2.321c0.842,2.502,2.077,4.774,4.048,6.592c0.969,0.894,1.934,1.794,2.878,2.712
		c1.981,1.923,3.067,4.285,3.556,6.994c0.871,4.842,1.223,9.723,1.162,14.628c-0.039,3.269,0.92,6.165,2.703,8.859
		c1.338,2.021,2.635,4.074,3.586,6.319c0.061,0.139,0.193,0.246,0.299,0.373c0.535-0.139,0.985-0.528,1.61-0.443
		c-0.297,1.08-1.005,1.867-1.505,2.766c-0.329,0.592-0.749,1.14-1.025,1.752c-1.672,3.707-4.367,6.73-6.689,9.998
		c-5.076,7.14-10.262,14.203-15.381,21.312c-2.629,3.653-5.203,7.351-7.863,10.978c-6.436,8.771-12.741,17.636-19.146,26.426
		c-6.736,9.248-13.47,18.5-20.252,27.713c-2.978,4.042-6.022,8.035-9.141,11.969c-1.809,2.281-3.666,4.55-5.854,6.488
		c-3.603,3.189-7.8,5.327-12.433,6.57c-3.374,0.905-6.844,1.352-10.283,1.942c-5.271,0.907-10.501,2.003-15.668,3.401
		c-7.55,2.045-14.795,4.95-22.09,7.725c-5.301,2.016-10.645,3.899-16.162,5.278c-3.867,0.966-7.777,1.343-11.722,1.054
		c-2.771-0.204-5.539-0.554-8.306-0.844c-2.452-0.257-4.922-0.433-7.388-0.594c-3.278-0.215-6.552-0.229-9.826-0.176
		c-3.345,0.058-6.668,0.44-9.993,0.868c-6.624,0.854-12.853,3.036-19.071,5.317c-5.546,2.035-11.144,3.923-16.757,5.762
		c-1.514,0.496-3.024,1.008-4.503,1.616c-1.223,0.504-2.577,0.464-3.865,0.728c-2.644,0.542-5.179,1.325-7.517,2.692
		c-0.138,0.08-0.285,0.147-0.434,0.203c-0.183,0.069-0.372,0.12-0.773,0.246c0.458-0.744,0.99-1.085,1.567-1.399
		c1.999-1.091,4.154-1.799,6.278-2.58c3.983-1.466,7.981-2.89,11.971-4.337c0.293-0.105,0.572-0.253,0.85-0.377
		c0.018-0.412-0.33-0.464-0.541-0.564c-7.42-3.548-15.004-6.665-23.016-8.631c-4.597-1.128-9.277-1.381-13.996-1.262
		c-2.8,0.071-5.533,0.472-8.206,1.291c-4.442,1.361-7.874,4.097-10.548,7.833c-2.404,3.359-3.967,7.153-5.536,10.938
		c-1.842,4.441-3.258,9.022-4.195,13.74c-0.494,2.489-0.874,4.999-1.102,7.534c-0.114,1.272-0.268,2.535-0.2,3.814
		c-0.72,0-1.44,0-2.16,0c0.083-0.674,0.216-1.346,0.239-2.021c0.098-2.87,0.517-5.707,1.045-8.514
		c0.851-4.519,2.073-8.946,3.755-13.235c1.771-4.518,3.575-9.025,6.334-13.055c2.751-4.017,6.35-6.984,10.995-8.639
		c3.766-1.342,7.669-1.654,11.61-1.8c1.284-0.047,2.55,0.216,3.826,0.22c2.282,0.009,4.509,0.415,6.729,0.856
		c4.085,0.813,8.052,2.056,11.957,3.489c5.189,1.907,10.259,4.09,15.156,6.663c0.494,0.26,0.898,0.326,1.454,0.121
		c3.16-1.168,6.34-2.281,9.515-3.406c0.249-0.088,0.546-0.082,0.59-0.438c-0.292-0.305-0.685-0.416-1.04-0.589
		c-6.045-2.924-12.227-5.528-18.489-7.947c-3.514-1.357-7.035-2.7-10.648-3.768c-5.806-1.712-11.775-2.6-17.787-3.11
		c-3.896-0.331-7.819-0.371-11.73-0.514c-4-0.146-7.991,0.285-11.99,0.228c-2.917-0.043-5.835-0.023-8.738,0.265
		c-2.028,0.202-4.049,0.384-6.086,0.223c-2.166-0.171-3.4-1.49-3.396-3.68c0.004-2.489,0.684-4.867,1.296-7.252
		c0.077-0.298,0.216-0.57,0.001-0.923c-0.128,0.146-0.24,0.255-0.329,0.379c-2.585,3.652-4.704,7.557-6.272,11.749
		c-1.686,4.506-3.47,8.967-5.784,13.194c-1.184,2.163-2.424,4.295-3.59,6.467c-2.601,4.844-4.381,10.008-5.881,15.279
		c-1.846,6.488-3.208,13.081-4.18,19.756c-0.64,0-1.28,0-1.92,0c0.019-1.839,0.451-3.626,0.782-5.414
		c0.88-4.75,1.922-9.466,3.215-14.127c1.982-7.146,4.601-14.015,8.467-20.38c2.691-4.433,4.759-9.168,6.501-14.042
		c2-5.597,4.87-10.706,8.377-15.483c1.6-2.181,3.187-4.377,3.92-7.048c0.548-1.993,0.535-3.996,0.258-6.032
		c-0.834-6.138-3.447-11.523-6.941-16.531c-2.698-3.867-6.076-7.063-9.854-9.867c-8.622-6.396-15.312-14.386-19.741-24.201
		c-2.181-4.836-3.601-9.885-4.38-15.143c-0.612-4.127-0.858-8.269-0.625-12.41c0.326-5.795,1.241-11.502,3.009-17.068
		c2.317-7.297,5.821-13.916,10.786-19.741c5.469-6.417,12.16-11.21,19.798-14.724c6.201-2.853,12.716-4.658,19.397-5.956
		c3.156-0.614,6.321-1.175,9.504-1.594c1.968-0.259,3.961-0.4,5.941-0.586c3.398-0.319,6.797-0.289,10.184-0.167
		c9.257,0.335,17.997,2.558,25.814,7.731c4.261,2.82,7.938,6.311,11.085,10.324c4.134,5.273,7.914,10.792,11,16.757
		c1.299,2.51,2.297,5.131,3.058,7.864c0.388,1.394,0.847,2.736,0.628,4.191c-0.188,1.253-0.445,2.495-0.68,3.789
		c0.754,1.079,1.882,1.801,2.87,2.646c3.543,3.041,7.146,6.009,10.839,8.869c1.484,1.148,2.892,2.392,4.049,3.895
		c0.79,1.025,1.345,2.148,1.627,3.406c0.165,0.738-0.063,1.435-0.322,2.097c-0.549,1.403-1.398,2.541-2.75,3.341
		c-1.609,0.952-3.124,2.062-4.676,3.11c-0.58,0.392-0.706,0.846-0.4,1.534c0.442,0.998,1.087,1.852,1.708,2.722
		c1.296,1.817,1.493,3.713,0.541,5.733c-0.338,0.716-0.655,1.441-0.981,2.164c0.053,0.36,0.36,0.521,0.584,0.731
		c1.237,1.158,1.335,2.554,0.853,4.06c-0.357,1.112-0.97,2.099-1.697,3.002c-0.645,0.803-0.777,1.615-0.262,2.531
		c0.389,0.689,0.734,1.405,1.104,2.106c1,1.891,1.642,3.874,1.55,6.043c-0.051,1.198-0.326,2.356-0.701,3.491
		c-0.778,2.353-1.761,4.621-3.178,6.652c-1.715,2.461-4.296,3.702-7.01,4.743c-3.423,1.313-7.022,1.959-10.547,2.886
		c-1.152,0.303-2.272,0.691-3.336,1.232c-1.458,0.741-2.299,1.951-2.551,3.538c-0.359,2.258-0.274,4.506,0.099,6.771
		c0.528,3.209,1.108,6.408,1.363,9.667c0.207,2.642,0.065,5.274,0.207,7.905c0.169,3.137,0.143,6.295,0.938,9.374
		c0.333,1.286,1.02,2.4,1.569,3.578c2.09,0.583,3.645,1.976,5.231,3.289c2.344,1.938,4.486,4.092,6.449,6.419
		c0.101,0.119,0.232,0.211,0.337,0.306c0.947,0.14,1.742-0.334,2.565-0.565c3.363-0.948,6.782-1.562,10.235-2.083
		c6.155-0.929,12.342-0.824,18.519-0.627c3.252,0.104,6.509,0.469,9.756,0.844c3.161,0.365,6.333,0.786,9.526,0.76
		c4.287-0.035,8.419-1.011,12.497-2.241c6.536-1.972,12.876-4.488,19.243-6.929c3.112-1.191,6.232-2.357,9.423-3.325
		c1.151-0.348,1.159-0.45,1.25-1.68c0.211-2.86,0.329-5.729,0.668-8.581c0.136-1.146,0.119-2.305,0.234-3.461
		c0.264-2.656,0.346-5.331,0.544-7.995c0.195-2.622,0.455-5.238,0.661-7.858c0.094-1.191,0.143-2.387,0.245-3.579
		c0.327-3.812,0.478-7.641,0.793-11.454c0.263-3.178,0.479-6.357,0.718-9.537c0.244-3.26,0.488-6.52,0.728-9.779
		c0.23-3.14,0.483-6.275,0.698-9.417c0.253-3.696,0.63-7.386,0.913-11.081c0.207-2.703,0.273-5.419,0.537-8.115
		c0.256-2.619,0.385-5.246,0.626-7.865c0.131-1.422,0.229-2.86,0.316-4.293c0.171-2.824,0.446-5.643,0.664-8.465
		c0.092-1.19,0.183-2.39,0.241-3.576c0.186-3.825,0.589-7.633,0.809-11.454c0.185-3.22,0.467-6.438,0.713-9.655
		c0.243-3.18,0.481-6.357,0.713-9.537c0.237-3.26,0.493-6.519,0.731-9.779c0.232-3.179,0.476-6.357,0.712-9.536
		c0.24-3.22,0.485-6.439,0.723-9.66c0.234-3.179,0.466-6.359,0.71-9.537c0.253-3.298,0.493-6.598,0.737-9.897
		c0.232-3.14,0.495-6.278,0.701-9.421c0.232-3.538,0.562-7.068,0.875-10.6c0.035-0.397-0.01-0.738-0.312-0.972
		c-1.841-1.426-1.622-3.418-1.485-5.378c0.116-1.668,0.277-3.334,0.418-5c0.224-2.66,0.45-5.32,0.672-7.98
		c0.096-1.152,0.125-2.306,0.242-3.461c0.265-2.616,0.337-5.25,0.543-7.873c0.278-3.534,0.687-7.059,0.892-10.596
		c0.148-2.548,0.413-5.086,0.55-7.636c0.139-2.584,0.456-5.158,0.658-7.74c0.091-1.152,0.188-2.31,0.242-3.458
		c0.171-3.626,0.622-7.228,0.795-10.854c0.133-2.783,0.398-5.564,0.709-8.334c0.397-3.529,2.261-5.957,5.703-7.038
		c3.819-1.199,7.735-1.346,11.7-1.044c1.867,0.143,3.723,0.3,5.529,0.808c2.266,0.635,4.377,1.562,5.775,3.566
		c0.911,1.304,1.244,2.746,1.066,4.396c-0.146,1.34-0.264,2.697-0.326,4.054c-0.165,3.546-0.439,7.086-0.657,10.63
		c-0.091,1.474-0.179,2.954-0.229,4.423c-0.066,1.996-0.269,3.982-0.334,5.979c-0.107,3.227-0.42,6.446-0.641,9.669
		c-0.096,1.394-0.158,2.793-0.216,4.184c-0.08,1.955-0.259,3.904-0.337,5.859c-0.133,3.307-0.439,6.607-0.643,9.912
		c-0.058,0.954-0.009,1.915-0.009,2.958c1.088,0.59,2.361,0.747,3.565,1.061c8.58,2.243,17.174,4.432,25.766,6.634
		c4.908,1.258,9.824,2.491,14.723,3.789c0.563,0.149,0.99,0.109,1.461-0.142c1.2-0.643,2.472-1.009,3.832-1.186
		c1.566-0.203,3.004,0.085,4.375,0.786c4.029,2.059,8.074,4.082,12.368,5.555c1.61,0.552,3.224,1.1,4.821,1.684
		c2.791,1.02,5.387,2.385,7.54,4.479c0.392,0.38,0.847,0.599,1.345,0.721c7.117,1.74,14.193,3.636,21.28,5.49
		c11.186,2.926,22.384,5.806,33.576,8.704c11.458,2.966,22.918,5.925,34.374,8.898c6.592,1.71,13.176,3.454,19.769,5.161
		c9.122,2.362,18.249,4.705,27.374,7.053c8.473,2.18,16.946,4.357,25.418,6.54c0.11,0.029,0.206,0.115,0.31,0.175
		c0,0.64,0,1.28,0,1.92c-1.375-0.217-2.702-0.632-4.046-0.979c-14.976-3.854-29.95-7.703-44.921-11.575
		c-11.896-3.078-23.781-6.189-35.675-9.281c-13.16-3.422-26.32-6.845-39.487-10.242c-0.495-0.127-1-0.461-1.562-0.27
		c0,0.236,0.144,0.325,0.263,0.426c1.635,1.382,2.647,3.134,3.28,5.172c0.687,2.208,1.066,4.481,1.6,6.72
		c0.108,0.458,0.231,0.825,0.644,1.076c1.735,1.06,3.085,2.505,4.228,4.174c0.501,0.732,1.17,1.19,2.109,1.416
		c3.969,0.953,7.907,2.026,11.864,3.026c12.18,3.079,24.365,6.135,36.544,9.217c9.028,2.285,18.051,4.598,27.077,6.893
		c9.42,2.395,18.84,4.79,28.263,7.171c3.269,0.826,6.546,1.611,9.82,2.415c0,0.72,0,1.44,0,2.16
		c-3.679-0.95-7.354-1.91-11.034-2.849c-7.864-2.006-15.731-4.005-23.6-5.998c-9.56-2.42-19.123-4.822-28.681-7.247
		c-11.855-3.008-23.709-6.035-35.562-9.049c-4.146-1.054-8.291-2.103-12.441-3.131c-0.364-0.09-0.749-0.267-1.238-0.104
		c0.566,0.904,1.12,1.771,1.658,2.648c1.465,2.39,2.428,4.926,2.161,7.793c-0.089,0.966,0.233,1.776,0.747,2.568
		c0.934,1.438,1.859,2.883,2.716,4.367c0.701,1.213,1.221,2.499,1.111,3.964c-0.085,1.143-0.565,2.143-1.04,3.143
		c-0.259,0.546-0.299,1.015-0.03,1.576c1.574,3.295,1.249,6.539-0.293,9.755c-1.287,2.687-3.1,5.017-4.946,7.315
		c-5.736,7.14-10.042,15.062-13.211,23.644c-2.685,7.274-6.347,14.044-10.806,20.397c-2.953,4.205-6.055,8.307-8.857,12.617
		c-3.108,4.781-5.607,9.895-8.135,14.99c-3.441,6.941-6.602,14.014-9.805,21.064c-3.85,8.466-7.822,16.87-11.985,25.187
		c-4.79,9.567-9.688,19.078-14.948,28.396c-3.521,6.238-7.148,12.421-11.451,18.173c-2.082,2.785-4.371,5.398-6.812,7.87
		c-2.491,2.523-5.505,4.086-8.961,4.97c-6.503,1.661-12.698,4.242-18.979,6.569c-6.457,2.393-12.367,5.837-18.338,9.184
		c-0.106,0.062-0.19,0.134-0.199,0.268C273.92,396.24,272.561,396.24,271.2,396.24z M311.457,242.552
		c0.211,0.058,0.261-0.075,0.298-0.241c0.854-3.838,1.448-7.72,1.927-11.617c0.276-2.25,0.447-4.514,0.67-6.77
		c0.064-0.65,0.112-1.3-0.076-1.951c-0.416,1.977-0.767,3.955-1.086,5.94c-0.401,2.507-0.752,5.019-1.021,7.545
		c-0.253,2.373-0.646,4.729-0.692,7.122c-0.025,0.123-0.052,0.245-0.076,0.368c0.02,0.002,0.039,0.004,0.059,0.005
		C311.457,242.818,311.457,242.686,311.457,242.552z M137.493,241.38c-0.276-1.057-0.011-1.909,0.381-2.744
		c0.32-0.681,0.626-1.374,0.862-2.088c1.408-4.254,2.437-8.608,3.29-13.002c0.169-0.869,0.462-1.812,0.198-2.722
		c-0.862-2.971-1.665-5.967-3.108-8.731c-3.554-6.809-7.788-13.157-12.783-18.997c-4.62-5.399-10.213-9.449-16.824-12.069
		c-5.679-2.25-11.638-3.113-17.688-3.421c-4.114-0.209-8.225,0.104-12.314,0.502c-2.641,0.258-5.272,0.677-7.896,1.126
		c-4.767,0.817-9.502,1.762-14.134,3.162c-12.118,3.663-22.529,9.906-30.252,20.159c-3.867,5.135-6.655,10.824-8.509,16.969
		c-1.263,4.187-2.112,8.455-2.461,12.824c-0.2,2.508-0.489,5.021-0.349,7.527c0.142,2.542,0.215,5.091,0.608,7.624
		c0.476,3.063,1.103,6.084,2.046,9.032c2.068,6.463,5.22,12.348,9.432,17.683c3.011,3.813,6.395,7.235,10.208,10.24
		c2.378,1.873,4.875,3.612,7.01,5.771c5.982,6.045,10.169,13.114,12.005,21.475c0.665,3.026,0.757,6.08-0.185,9.083
		c-0.545,1.736-1.192,3.441-1.742,5.179c-1.15,3.631-2.229,7.281-2.68,11.083c-0.158,1.337,0.413,2.242,1.616,2.307
		c1.195,0.062,2.404,0.065,3.595-0.038c1.865-0.165,3.724-0.393,5.599-0.422c1.479-0.021,2.959-0.025,4.438-0.078
		c7.516-0.27,15.03-0.27,22.542,0.113c1.151,0.06,2.314,0.124,3.457,0.265c2.756,0.338,5.517,0.639,8.259,1.114
		c3.521,0.612,7.007,1.365,10.392,2.491c7.571,2.517,14.978,5.462,22.253,8.738c0.286,0.129,0.589,0.471,1.023,0.164
		c-0.75-2.545-1.72-5.003-2.947-7.363c-0.419-0.807-0.789-1.634-1.088-2.503c-0.827-2.406-0.999-4.916-1.126-7.407
		c-0.171-3.351-0.049-6.711-0.256-10.067c-0.149-2.43-0.475-4.824-0.878-7.214c-0.498-2.944-0.992-5.883-0.832-8.893
		c0.188-3.544,1.81-6.021,5.2-7.253c1.717-0.624,3.484-1.066,5.263-1.463c3.178-0.708,6.312-1.544,9.299-2.872
		c2.105-0.937,3.825-2.29,4.945-4.335c1.052-1.921,1.975-3.896,2.474-6.042c0.442-1.901,0.385-3.772-0.312-5.619
		c-0.467-1.237-1.2-2.333-1.798-3.501c-0.774-1.511-0.808-2.924,0.282-4.348c0.671-0.877,1.332-1.793,1.648-2.893
		c0.282-0.976,0.147-1.365-0.781-2.035c-0.776,0.998-1.449,2.082-2.316,3.012c-0.835,0.896-1.435,2.053-2.725,2.596
		c-0.016-0.253-0.069-0.395-0.023-0.48c0.918-1.722,1.753-3.496,2.802-5.135c1.059-1.652,1.934-3.383,2.671-5.186
		c0.532-1.303,0.368-2.553-0.51-3.703c-0.531-0.696-1.04-1.42-1.471-2.182c-1.253-2.209-0.914-3.59,1.174-4.965
		c1.46-0.961,2.917-1.926,4.424-2.82c1.626-0.965,2.5-2.461,2.38-4.393c-0.09-1.455-1.09-2.441-2.041-3.406
		c-1.22-1.238-2.863-1.895-4.221-2.926c-3.24-2.462-6.601-4.771-9.612-7.533c-0.732-0.672-1.394-1.53-2.45-1.867
		c-0.071,0.164-0.136,0.264-0.157,0.371c-0.658,3.281-1.78,6.414-3.046,9.5c-0.089,0.217-0.232,0.424-0.39,0.598
		C138.749,240.048,138.118,240.711,137.493,241.38z M284.559,122.242c-0.805,1.781-1.688,3.177-3.104,4.18
		c-0.581,0.411-0.688,1.05-0.661,1.712c0.083,2.042-0.217,4.066-0.318,6.098c-0.072,1.431-0.115,2.871-0.22,4.303
		c-0.235,3.262-0.499,6.524-0.646,9.791c-0.084,1.914-0.239,3.825-0.344,5.736c-0.072,1.353-0.105,2.711-0.203,4.064
		c-0.23,3.222-0.517,6.441-0.648,9.667c-0.082,1.995-0.246,3.985-0.352,5.977c-0.07,1.352-0.104,2.711-0.205,4.064
		c-0.232,3.182-0.51,6.363-0.642,9.55c-0.081,1.994-0.233,3.986-0.347,5.976c-0.08,1.392-0.112,2.79-0.215,4.183
		c-0.238,3.223-0.504,6.443-0.645,9.67c-0.084,1.954-0.238,3.905-0.346,5.857c-0.074,1.353-0.109,2.711-0.209,4.063
		c-0.23,3.144-0.528,6.283-0.639,9.431c-0.068,1.996-0.248,3.984-0.342,5.978c-0.068,1.433-0.121,2.871-0.224,4.304
		c-0.226,3.144-0.519,6.282-0.634,9.428c-0.073,1.996-0.249,3.984-0.346,5.978c-0.066,1.392-0.114,2.791-0.215,4.185
		c-0.229,3.184-0.521,6.362-0.643,9.549c-0.076,1.996-0.246,3.986-0.346,5.979c-0.07,1.392-0.111,2.791-0.215,4.185
		c-0.235,3.183-0.521,6.361-0.641,9.549c-0.074,1.994-0.25,3.984-0.352,5.977c-0.068,1.393-0.11,2.791-0.215,4.186
		c-0.234,3.181-0.513,6.361-0.637,9.548c-0.076,1.995-0.25,3.983-0.346,5.978c-0.062,1.312-0.057,2.639-0.208,3.944
		c-0.358,3.094-0.381,6.209-0.634,9.311c-0.206,2.542-0.256,5.101-0.494,7.645c-0.032,0.347-0.11,0.716,0.105,1.039
		c0.279,0.122,0.573,0.097,0.832,0.031c4.168-1.052,7.982-2.874,11.395-5.48c2.756-2.104,4.822-4.891,6.984-7.549
		c3.871-4.762,7.48-9.73,11.116-14.675c6.183-8.407,12.3-16.861,18.427-25.309c0.597-0.822,1.349-1.556,1.709-2.585
		c-2.162-0.548-4.312-0.901-6.455-1.272c-2.933-0.51-5.871-0.977-8.817-1.387c-1.22-0.171-2.474-0.264-3.698-0.184
		c-1.076,0.068-2.15,0.107-3.228,0.135c-1.175,0.029-2.181-0.42-3.112-1.057c-1.537-1.053-2.458-2.594-3.169-4.256
		c-1.993-4.661-2.688-9.617-3.097-14.607c-0.243-2.979-0.288-5.968-0.096-8.977c0.2-3.143,0.416-6.281,0.832-9.395
		c0.51-3.809,1.158-7.605,1.928-11.371c1.83-8.967,4.231-17.793,6.773-26.58c2.199-7.604,4.422-15.204,6.616-22.81
		c2.052-7.111,4.013-14.25,6.144-21.338c2.156-7.168,4.254-14.353,6.256-21.565c0.26-0.93,0.633-1.863,0.619-2.983
		C305.784,127.485,295.195,124.87,284.559,122.242z M266.043,333.963c0.359-0.673,0.341-1.197,0.368-1.713
		c0.174-3.31,0.282-6.625,0.549-9.927c0.116-1.438,0.134-2.873,0.235-4.308c0.236-3.265,0.447-6.53,0.652-9.798
		c0.115-1.873,0.117-3.757,0.32-5.62c0.152-1.396,0.114-2.793,0.227-4.188c0.162-2.028,0.289-4.061,0.414-6.092
		c0.114-1.873,0.19-3.75,0.312-5.621c0.203-3.107,0.451-6.213,0.639-9.319c0.199-3.31,0.295-6.623,0.547-9.927
		c0.11-1.436,0.15-2.871,0.244-4.307c0.225-3.424,0.445-6.851,0.657-10.275c0.116-1.873,0.194-3.749,0.315-5.622
		c0.203-3.106,0.451-6.212,0.638-9.32c0.198-3.308,0.321-6.62,0.526-9.928c0.279-4.503,0.65-9,0.898-13.505
		c0.215-3.907,0.471-7.812,0.71-11.717c0.246-3.984,0.479-7.97,0.726-11.955c0.242-3.906,0.459-7.813,0.72-11.718
		c0.306-4.622,0.479-9.252,0.791-13.874c0.102-1.515,0.159-3.032,0.259-4.546c0.206-3.147,0.459-6.292,0.648-9.441
		c0.201-3.309,0.287-6.626,0.553-9.929c0.117-1.476,0.143-2.952,0.254-4.426c0.23-3.064,0.468-6.128,0.622-9.197
		c0.051-1.018,0.181-1.935,0.723-2.836c0.771-1.283,0.521-2.408-0.583-3.428c-0.867-0.802-1.902-1.312-3.013-1.664
		c-3.672-1.159-7.409-1.813-11.283-1.468c-1.827,0.163-3.508,0.689-4.954,1.825c-1.113,0.875-1.842,1.975-1.773,3.482
		c0.029,0.637,0,1.28-0.051,1.917c-0.211,2.622-0.464,5.24-0.659,7.863c-0.198,2.665-0.267,5.341-0.55,7.996
		c-0.127,1.195-0.134,2.39-0.241,3.582c-0.242,2.7-0.45,5.403-0.655,8.105c-0.115,1.511-0.177,3.026-0.296,4.537
		c-0.207,2.624-0.461,5.243-0.655,7.868c-0.2,2.704-0.325,5.414-0.532,8.118c-0.28,3.656-0.689,7.305-0.888,10.965
		c-0.146,2.709-0.432,5.407-0.565,8.117c-0.058,1.191-0.14,2.389-0.236,3.582c-0.205,2.542-0.47,5.08-0.659,7.623
		c-0.201,2.705-0.27,5.422-0.543,8.118c-0.125,1.235-0.146,2.47-0.253,3.7c-0.235,2.701-0.476,5.402-0.641,8.106
		c-0.092,1.515-0.241,3.021-0.321,4.536c-0.136,2.586-0.511,5.16-0.625,7.745c-0.119,2.712-0.445,5.405-0.563,8.117
		c-0.051,1.147-0.143,2.307-0.236,3.459c-0.218,2.7-0.497,5.399-0.647,8.104c-0.086,1.555-0.229,3.104-0.321,4.657
		c-0.217,3.658-0.608,7.308-0.885,10.963c-0.208,2.744-0.281,5.501-0.551,8.238c-0.117,1.194-0.146,2.39-0.25,3.581
		c-0.234,2.66-0.49,5.32-0.632,7.986c-0.083,1.555-0.249,3.103-0.325,4.658c-0.126,2.586-0.453,5.16-0.645,7.744
		c-0.201,2.704-0.273,5.421-0.542,8.118c-0.119,1.195-0.138,2.39-0.241,3.582c-0.223,2.581-0.468,5.16-0.659,7.744
		c-0.197,2.664-0.244,5.345-0.546,7.996c-0.167,1.469-0.05,2.955-0.381,4.411c-0.121,0.533-0.085,1.119-0.035,1.674
		c0.053,0.583-0.353,1.149-0.015,1.877C250.029,336.698,258.088,335.25,266.043,333.963z M320.396,275.926
		c1.015-1.398,1.972-2.712,2.922-4.029c3.617-5.012,7.236-10.02,10.846-15.035c0.951-1.321,1.904-2.627,2.365-4.244
		c1.234-4.334,1.512-8.791,1.604-13.243c0.097-4.552,0.097-9.108-0.141-13.667c-0.181-3.468-0.435-6.934-0.583-10.402
		c-0.049-1.147-0.141-2.308-0.243-3.457c-0.201-2.222-0.455-4.438-0.664-6.658c-0.187-1.981-0.302-3.972-0.522-5.949
		c-0.383-3.451-0.73-6.904-0.682-10.379c0.057-3.875-0.082-7.747,0.188-11.626c0.224-3.22,0.475-6.438,0.82-9.643
		c0.401-3.709,0.979-7.402,1.668-11.072c1.203-6.43,2.696-12.793,4.594-19.057c0.08-0.267,0.248-0.508-0.031-0.848
		c-7.076-1.748-14.225-3.513-21.283-5.256c-0.182,0.204-0.27,0.256-0.281,0.322c-0.518,2.929-1.057,5.854-1.529,8.79
		c-0.395,2.432-0.723,4.874-1.055,7.315c-0.312,2.284-0.609,4.569-0.877,6.858c-0.213,1.819-0.383,3.644-0.557,5.467
		c-0.223,2.34-0.498,4.678-0.622,7.024c-0.117,2.232-0.196,4.472-0.34,6.699c-0.444,6.921-0.042,13.82,0.362,20.719
		c0.166,2.829,0.403,5.658,0.41,8.489c0.017,6.83,0.176,13.66-0.414,20.483c-0.25,2.896-0.476,5.799-0.83,8.68
		c-0.389,3.146-0.942,6.273-1.582,9.389c-1.321,6.448-3.229,12.688-6.278,18.541c-1.956,3.756-4.118,7.376-7.142,10.409
		c-0.957,0.962-2.108,1.653-3.324,2.468c0.988,0.312,1.772-0.139,2.596-0.138c4.369,0.01,8.626,0.879,12.898,1.612
		C315.229,274.922,317.757,275.43,320.396,275.926z M282.139,122.667c0.625-1.354,0.961-2.476,1.079-3.673
		c0.154-1.551,0.202-3.107,0.29-4.662c0.184-3.227,0.46-6.449,0.653-9.676c0.2-3.347,0.296-6.7,0.541-10.043
		c0.108-1.475,0.149-2.951,0.249-4.425c0.214-3.225,0.46-6.449,0.652-9.675c0.201-3.387,0.297-6.781,0.56-10.162
		c0.104-1.355,0.126-2.712,0.222-4.065c0.229-3.224,0.52-6.446,0.639-9.674c0.076-2.036,0.216-4.071,0.353-6.098
		c0.11-1.665,0.065-3.345,0.364-5.01c0.306-1.704-0.344-3.126-1.723-4.202c-0.539-0.42-1.121-0.749-1.746-1.021
		c-2.11-0.918-4.353-1.272-6.615-1.387c-2.153-0.109-4.32-0.104-6.475-0.001c-2.103,0.101-4.177,0.456-6.103,1.409
		c-1.482,0.734-2.407,1.864-2.845,3.48c-0.454,1.673-0.443,3.39-0.619,5.085c-0.268,2.576-0.342,5.17-0.548,7.753
		c-0.279,3.495-0.627,6.984-0.904,10.48c-0.204,2.583-0.284,5.176-0.533,7.754c-0.116,1.191-0.169,2.385-0.269,3.576
		c-0.219,2.621-0.475,5.239-0.635,7.862c-0.09,1.474-0.229,2.943-0.322,4.417c-0.222,3.498-0.606,6.986-0.881,10.481
		c-0.207,2.623-0.275,5.257-0.546,7.873c-0.124,1.194-0.142,2.388-0.251,3.58c-0.216,2.34-0.423,4.681-0.619,7.023
		c-0.033,0.394,0.045,0.781,0.375,1.15c0.624-0.744,1.137-1.552,1.889-2.161c2.073-1.678,4.521-2.312,7.092-2.457
		c3.567-0.202,7.065,0.344,10.467,1.422C278.555,118.453,281.037,119.533,282.139,122.667z M318.816,130.773
		c-0.493,0.151-0.514,0.467-0.6,0.781c-1.007,3.666-2.029,7.327-3.049,10.989c-1.52,5.463-3.262,10.86-4.839,16.306
		c-2.569,8.872-5.074,17.763-7.606,26.645c-3.107,10.897-6.517,21.711-9.104,32.753c-1.057,4.512-2.047,9.037-2.779,13.616
		c-0.377,2.354-0.713,4.712-1.013,7.078c-0.285,2.256-0.534,4.52-0.606,6.781c-0.168,5.266-0.082,10.521,0.908,15.733
		c0.528,2.785,1.229,5.479,2.658,7.956c1.146,1.982,2.506,2.359,4.463,1.154c1.204-0.741,2.195-1.717,3.1-2.797
		c2.625-3.135,4.594-6.666,6.42-10.307c1.203-2.396,1.912-4.841,1.932-7.538c0.008-1.14,0.158-2.304,0.277-3.452
		c0.217-2.062,0.418-4.121,0.633-6.182c0.256-2.454,0.461-4.914,0.793-7.357c0.396-2.906,0.898-5.8,1.367-8.697
		c0.649-4.029,1.422-8.038,2.319-12.021c0.49-2.177,0.972-4.327,0.784-6.595c-0.357-4.298-0.27-8.619-0.648-12.922
		c-0.24-2.74-0.258-5.504-0.379-8.256c-0.181-4.124,0.006-8.24,0.17-12.348c0.188-4.658,0.58-9.31,1.074-13.953
		c0.393-3.68,0.787-7.36,1.299-11.022c0.662-4.756,1.373-9.508,2.289-14.226C318.807,132.244,319.227,131.545,318.816,130.773z
		 M344.752,137.231c-0.15,0.458-0.268,0.791-0.368,1.128c-1.932,6.455-3.432,13.006-4.614,19.641
		c-0.92,5.166-1.603,10.36-2.055,15.578c-0.314,3.655-0.498,7.331-0.521,11.006c-0.014,2.278,0.117,4.554,0.184,6.829
		c0.102,3.513,0.479,6.999,0.822,10.483c0.296,3.009,0.617,6.019,0.859,9.029c0.219,2.739,0.451,5.483,0.582,8.233
		c0.073,1.552,0.115,3.11,0.215,4.663c0.289,4.508,0.453,9.021,0.313,13.535c-0.099,3.188-0.114,6.379-0.543,9.555
		c-0.103,0.757-0.372,1.536-0.169,2.611c9.218-12.752,18.307-25.322,27.373-37.863c-0.292-0.738-0.506-1.335-0.762-1.913
		c-0.98-2.231-2.299-4.274-3.619-6.312c-1.428-2.201-2.393-4.562-2.68-7.188c-0.289-2.629-0.221-5.267-0.244-7.903
		c-0.002-0.347,0.1-0.73-0.33-1.101c-0.877-0.034-1.859-0.143-2.838-0.293c-2.08-0.319-4.157-0.64-6.049-1.658
		c-1.105-0.596-1.695-1.507-1.817-2.757c-0.144-1.462-0.36-2.916-0.533-4.375c-0.345-2.928-0.694-5.85-0.674-8.806
		c0.01-1.3,0.252-2.526,0.92-3.65c0.233-0.394,0.304-0.746,0.162-1.23c-0.679-2.324-1.101-4.71-1.487-7.093
		c-0.302-1.849,0.307-3.444,1.836-4.646c1.202-0.945,2.585-1.496,4.156-1.974c-0.298-4.172-0.951-8.248-1.96-12.238
		C348.744,138.292,346.866,137.438,344.752,137.231z M350.336,136.426c-0.486-2.161-1.143-3.986-1.83-5.803
		c-1.387-3.666-3.084-7.171-5.363-10.373c-0.994-1.398-2-2.796-3.388-3.851c-1.414-1.076-3.63-1.326-5.009-0.547
		c1.307,0.437,2.613,0.741,3.92,1.056c0.697,0.168,1.414,0.362,1.562,1.245c-0.517,0.962-0.756,1.057-2.035,0.729
		c-5.762-1.476-11.522-2.95-17.281-4.438c-10.979-2.837-21.952-5.688-32.934-8.512c-0.582-0.149-1.172-0.505-1.854-0.255
		c-0.298,4.854-0.593,9.663-0.899,14.671C306.814,125.68,328.461,131.024,350.336,136.426z M377.35,171.375
		c0.239-0.277,0.202-0.525,0.152-0.749c-0.339-1.507-0.664-3.019-1.045-4.516c-1.779-6.994-3.602-13.977-5.639-20.903
		c-1.051-3.573-1.896-7.209-3.146-10.721c-1.139-3.195-2.775-6.075-5.536-8.197c-1.889-1.452-4.021-2.41-6.245-3.176
		c-3.193-1.1-6.397-2.164-9.476-3.574c-0.442-0.203-0.896-0.498-1.442-0.496c0,0.125-0.025,0.211,0.004,0.26
		c0.355,0.576,0.728,1.142,1.078,1.719c4.838,7.962,7.201,16.726,8.439,25.868c0.179,1.323,0.041,2.712,0.605,3.974
		c2.498,0.508,4.683,1.604,6.748,2.993c0.846,0.568,1.543,1.235,2.109,2.081c2.961,4.418,6.281,8.556,9.855,12.489
		C374.852,169.569,375.995,170.614,377.35,171.375z M371.835,140.978c0.388-0.205,0.631-0.333,0.874-0.463
		c3.166-1.679,6.341-3.342,9.495-5.042c1.626-0.876,3.306-0.958,5.096-0.684c0.954,0.146,1.919,0.495,2.938,0.156
		c-7.553-1.952-15.106-3.904-22.926-5.924C369.625,132.86,370.537,136.911,371.835,140.978z M389.255,154.204
		c-4.147,2.54-8.575,4.336-11.745,7.857c0.768,3.457,1.803,6.689,2.135,10.084c1.185,0.327,2.338-0.066,3.069-1.114
		c0.479-0.687,0.836-1.439,1.093-2.241c0.555-1.73,1.104-3.462,1.688-5.184c0.813-2.407,1.843-4.722,3.037-6.967
		C388.895,155.958,389.355,155.279,389.255,154.204z M374.495,150.493c0.729,3.108,1.562,6.092,2.444,9.131
		c0.592-0.209,0.972-0.539,1.348-0.888c0.611-0.567,1.273-1.072,1.963-1.545c2.572-1.767,5.355-3.062,8.396-3.782
		c0.488-0.116,1.055-0.239,1.078-0.77c0.045-1.021,0.504-2.014,0.226-3.128C384.932,151.213,379.863,151.888,374.495,150.493z
		 M136.505,347.291c0.46,1.946,1.362,3.721,1.556,5.714c1.814,0.896,3.619,1.784,5.398,2.661c0.515-0.241,1.103-0.229,1.571-0.717
		C142.376,352.125,139.795,349.34,136.505,347.291z"/>
</g>
</svg>
