<?xml version="1.0" encoding="utf-8"?>
<!-- Generator: Adobe Illustrator 16.2.1, SVG Export Plug-In . SVG Version: 6.00 Build 0)  -->
<!DOCTYPE svg PUBLIC "-//W3C//DTD SVG 1.1//EN" "http://www.w3.org/Graphics/SVG/1.1/DTD/svg11.dtd">
<svg version="1.1" id="RS_x5F_straps03a_xA0_Image_1_"
	 xmlns="http://www.w3.org/2000/svg" xmlns:xlink="http://www.w3.org/1999/xlink" x="0px" y="0px" width="528px" height="396px"
	 viewBox="0 0 528 396" enable-background="new 0 0 528 396" xml:space="preserve">
<g>
	<path d="M283.2,396.24c0.432-0.977,0.336-2.047,0.44-3.06c0.487-4.665,1.117-9.312,1.778-13.95
		c0.834-5.853,1.78-11.688,2.781-17.518c1.509-8.785,3.269-17.517,5.358-26.177c1.812-7.512,3.985-14.924,6.537-22.221
		c2.598-7.429,5.729-14.636,9-21.783c1.314-2.873,2.193-5.841,2.484-9.019c0.283-3.088,0.65-6.168,0.943-9.258
		c0.363-3.808,0.568-7.63,0.979-11.427c0.545-5.026,0.457-10.054,0.394-15.08c-0.026-2.134-0.383-4.265-1.039-6.446
		c-2.02,1.385-4.219,0.76-6.309,0.562c-3.195-0.299-6.354-0.934-9.511-1.553c-4.856-0.953-9.663-2.129-14.478-3.272
		c-4.199-0.997-8.397-1.998-12.6-2.99c-0.105-0.024-0.229,0.025-0.335,0.039c-0.192,0.31-0.132,0.638-0.122,0.95
		c0.098,3.046-0.462,6.009-1.086,8.97c-0.568,2.701-0.811,5.421-0.43,8.19c0.162,1.178,0.275,2.381,0.295,3.574
		c0.012,0.699,0.224,1.197,0.73,1.672c3.807,3.554,7.219,7.464,10.227,11.707c3.07,4.336,5.49,9.041,7.542,13.938
		c0.239,0.574,0.405,1.132-0.283,1.646c-0.882-0.897-1.854-1.674-2.394-2.893c-2.092-4.751-4.631-9.251-7.789-13.383
		c-2.11-2.762-4.426-5.352-6.801-7.887c-0.158-0.17-0.279-0.397-0.584-0.443c-0.32,0.162-0.146,0.475-0.146,0.715
		c0.002,1.516,0.222,3.014,0.396,4.516c0.041,0.363,0.076,0.707-0.095,1.052c-0.175,0.354-0.453,0.585-0.829,0.606
		c-0.378,0.021-0.695-0.174-0.853-0.537c-0.109-0.254-0.228-0.521-0.25-0.791c-0.183-2.103-0.326-4.207-0.517-6.309
		c-0.203-2.26-0.496-4.512-0.654-6.773c-0.213-3.069-0.201-6.139,0.524-9.158c0.787-3.271,1.063-6.58,0.927-9.948
		c-0.104-2.552-0.183-5.101-0.556-7.629c-0.255-1.726-0.599-3.438-1.284-5.056c-0.384-0.904-0.994-1.609-1.852-2.123
		c-1.231-0.736-2.455-1.508-3.8-1.996c-3.063-1.114-5.688,0.81-6.067,3.802c-0.573,4.526-1.097,9.067-3.646,13.063
		c-1.066,1.67-2.021,3.418-2.461,5.397c-0.366,1.646-0.436,3.325-0.522,4.981c-0.102,1.951-0.233,3.904-0.313,5.859
		c-0.109,2.665-0.386,5.317-0.648,7.973c-0.429,4.356-1.538,8.59-2.158,12.904c-0.208,1.453-0.086,2.954-0.105,4.434
		c-0.075,5.89,0.912,11.613,2.507,17.271c1.008,3.574,2.143,7.058,4.33,10.112c1.333,1.859,2.939,3.466,4.599,5.022
		c0.347,0.325,0.691,0.652,1.042,0.984c-0.797,0.631-1.474,0.184-2.117-0.16c-2.006-1.074-3.599-2.626-4.962-4.425
		c-0.379-0.499-0.727-1.021-1.188-1.674c-0.213,1.736-0.318,3.306-0.528,4.864c-0.376,2.798-1.025,5.538-1.629,8.284
		c-2.266,10.299-5.242,20.406-8.182,30.524c-2.555,8.794-5.232,17.548-8.23,26.2c-1.144,3.303-2.404,6.553-4.071,9.645
		c-2.101,3.896-3.409,8.119-4.8,12.303c-0.348,1.047-0.64,2.112-0.958,3.171c-0.72,0-1.44,0-2.16,0
		c0.716-2.137,1.438-4.271,2.149-6.406c1.316-3.96,2.854-7.815,4.826-11.512c1.854-3.476,3.012-7.255,4.249-10.979
		c4.157-12.519,7.874-25.17,11.355-37.892c1.421-5.192,2.834-10.387,3.954-15.654c0.7-3.297,1.5-6.588,1.767-9.949
		c0.297-3.75-0.238-7.415-1.229-11.075c-2.433-8.974-5.144-17.873-7.335-26.91c-0.951-3.922-1.802-7.877-2.379-11.873
		c-0.393-2.715-0.623-5.455-0.821-8.199c-0.236-3.271-0.177-6.549-0.398-9.817c-0.01-0.155-0.059-0.308-0.118-0.604
		c-6.678,2.691-13.547,4.308-20.761,4.423c-0.133,0.62,0.195,1.103,0.321,1.616c0.532,2.184,0.755,4.355-0.655,6.309
		c-1.766,2.443-5.188,4.189-8.266,3.348c-0.375-0.103-0.791-0.048-1.275-0.375c-0.169,1.385,0.281,2.563,0.304,3.768
		c0.041,2.185,0.64,4.354,0.177,6.551c-0.109,0.516,0.056,0.936,0.342,1.342c1.757,2.492,2.418,5.297,2.533,8.311
		c0.083,2.197,0.109,4.4,0.241,6.593c0.129,2.14,0.466,4.271,0.774,6.396c0.434,2.988,0.194,5.907-1.112,8.629
		c-1.138,2.371-2.793,3.363-5.602,2.412c-4.28-1.449-8.161-3.611-10.643-7.617c-1.609-2.596-2.512-5.476-3.092-8.455
		c-0.243-1.245-0.497-2.493-0.537-3.729c-0.315-0.344-0.687-0.465-1.061-0.612c-2.492-0.982-4.808-2.289-6.982-3.853
		c-0.423-0.306-0.878-0.567-0.959-1.128c-1.023-0.079-1.771,0.45-2.594,0.691c-2.964,0.869-5.896,1.873-8.896,2.594
		c-3.538,0.849-6.355,2.759-8.994,5.162c-3.75,3.416-6.109,7.697-8.171,12.223c-2.423,5.314-4.715,10.689-7.391,15.889
		c-1.971,3.832-4.538,7.213-7.513,10.307c-0.304,0.315-0.604,0.636-0.949,1c0.049,1.93,0.167,3.89,0.316,5.83
		c0.159,2.071,0.198,4.15,0.331,6.223c0.147,2.307,0.311,4.621,0.349,6.939c0.035,2.153,0.238,4.306,0.397,6.454
		c0.118,1.594,0.122,3.191,0.208,4.786c0.121,2.231,0.287,4.464,0.347,6.701c0.06,2.233,0.249,4.463,0.393,6.694
		c0.111,1.714,0.173,3.434,0.239,5.146c0.089,2.315,0.226,4.632,0.362,6.941c0.12,2.03,0.062,4.074,0.351,6.1
		c0.123,0.86,0.191,1.749-0.178,2.673c1.121,1.553,2.283,3.114,3.397,4.711c2.12,3.037,4.103,6.162,5.832,9.441
		c0.073,0.138,0.105,0.297,0.157,0.445c-0.72,0-1.44,0-2.16,0c-3.928-7.347-8.912-13.939-14.473-20.103
		c-5.712-6.331-12.053-11.947-19.306-16.488c-5.245-3.283-10.771-5.936-16.785-7.479c-1.253-0.322-2.513-0.747-3.846-0.566
		c-0.107,0.156-0.216,0.277-0.285,0.418c-4.23,8.621-8.235,17.341-11.451,26.403c-0.349,0.984-0.295,1.647,0.43,2.44
		c2.451,2.677,4.68,5.543,6.868,8.437c1.73,2.286,3.394,4.622,5.086,6.938c-0.88,0-1.76,0-2.64,0
		c0.093-0.277-0.105-0.439-0.24-0.633c-2.732-3.917-5.659-7.686-8.723-11.346c-0.619-0.738-1.114-1.611-1.993-2.148
		c-0.123,0.235-0.239,0.402-0.302,0.588c-0.821,2.437-1.667,4.865-2.441,7.315c-0.653,2.067-1.482,4.083-1.901,6.224
		c-0.72,0-1.44,0-2.16,0c2.163-6.959,4.495-13.86,7.018-20.696c2.614-7.083,5.572-14.018,8.975-20.76
		c1.684-3.338,3.132-6.79,4.957-10.061c2.088-3.742,5.038-6.642,8.587-8.982c4.864-3.21,10.19-5.566,15.3-8.321
		c4.732-2.552,9.419-5.16,13.707-8.441c5.578-4.268,9.978-9.482,12.953-15.856c2.286-4.896,4.491-9.834,6.759-14.74
		c1.321-2.857,2.673-5.719,4.684-8.168c2.824-3.439,5.903-6.63,10.088-8.43c2.371-1.02,4.92-1.52,7.391-2.247
		c1.71-0.503,3.405-1.058,5.106-1.591c2.457-0.77,5.003-1.225,7.465-2.012c-0.415,1.502-1.781,1.823-2.953,2.453
		c0.569,0.775,1.345,1.12,2.032,1.547c2.373,1.474,4.832,2.791,7.612,3.309c2.001,0.372,4.024,0.562,6.065,0.229
		c0.628-0.103,1.273-0.101,1.911-0.133c0.542-0.027,0.96,0.178,1.056,0.745c0.106,0.63-0.314,1.054-0.831,1.115
		c-0.829,0.101-1.638,0.35-2.487,0.315c-1.831-0.072-3.674,0.156-5.494-0.229c-0.102-0.021-0.221,0.042-0.396,0.081
		c-0.108,1.657,0.329,3.226,0.734,4.784c0.736,2.828,1.77,5.537,3.765,7.754c1.829,2.029,4.255,3.188,6.64,4.389
		c0.527,0.266,1.082,0.471,1.671,0.607c1.384,0.324,2.413,0.007,3.002-1.233c1.026-2.157,1.449-4.452,1.18-6.847
		c-0.293-2.604-0.74-5.188-0.933-7.812c-0.159-2.159-0.099-4.312-0.202-6.466c-0.169-3.541-1.338-6.654-3.928-9.191
		c-1.771-1.734-3.559-3.451-5.37-5.143c-2.138-1.996-4.006-4.241-5.902-6.455c-1.852-2.163-4.096-3.316-6.96-3.306
		c-6.318,0.024-12.639-0.058-18.956,0.055c-2.413,0.043-4.824,0.427-7.221,0.827c-2.741,0.458-5.5,0.812-8.269,1.113
		c-2.899,0.316-5.818,0.283-8.707,0.649c-1.85,0.235-3.525-0.477-5.266-0.843c-0.272-0.057-0.542-0.13-0.823-0.198
		c0.107-0.821,0.719-0.862,1.331-0.89c1.558-0.064,3.116-0.161,4.674-0.174c4.072-0.033,8.112-0.416,12.147-0.941
		c2.676-0.349,5.324-0.876,8-1.199c2.617-0.316,5.255-0.359,7.892-0.343c3.319,0.021,6.639,0.08,9.958,0.041
		c1.475-0.019,2.945-0.302,4.427-0.202c2.108,0.143,4.206,0.344,6.102,1.424c1.597,0.909,2.809,2.256,3.952,3.629
		c2.358,2.836,4.965,5.42,7.648,7.938c0.725,0.68,1.455,1.354,2.309,2.146c0.206-1.117,0.165-2.144,0.06-3.125
		c-0.265-2.483-0.475-4.979-1.156-7.405c-0.437-1.556-1.106-2.966-2.108-4.234c-2.607-3.305-5.627-6.218-8.634-9.144
		c-3.007-2.926-6.048-5.815-9.267-8.51c-1.852-1.551-3.844-2.854-6.284-3.273c-0.939-0.161-1.877-0.348-2.838-0.361
		c-3.559-0.056-7.105,0.151-10.651,0.43c-1.631,0.129-3.276,0.188-4.905,0.22c-3.518,0.065-7.03,0.403-10.55,0.272
		c-3.112-0.115-6.222-0.301-9.333-0.465c-0.234-0.013-0.48-0.064-0.695-0.156c-1.407-0.604-2.704-1.438-4.267-1.848
		c0.922-0.962,1.868-0.424,2.698-0.307c3.843,0.541,7.7,0.727,11.575,0.693c2.56-0.021,5.123,0.06,7.679-0.039
		c3.509-0.137,7.013-0.404,10.521-0.604c3.157-0.179,6.326-0.242,9.473-0.043c3.494,0.22,6.45,1.883,9.054,4.162
		c5.867,5.137,11.557,10.458,16.754,16.28c1.459,1.636,2.801,3.375,3.408,5.545c0.152,0.543,0.449,0.898,0.977,1.104
		c3.083,1.193,6.028,0.561,8.05-2.201c0.773-1.058,0.759-2.324,0.504-3.562c-0.509-2.47-1.528-4.765-2.603-7.021
		c-1.599-3.359-2.608-6.886-3.292-10.523c-0.161-0.859-0.388-1.706-0.56-2.563c-0.594-2.971-2.619-4.774-4.972-6.43
		c-6.884-4.845-13.567-9.958-20.04-15.341c-2.177-1.812-4.306-3.685-6.184-5.831c-1.634-1.867-3.788-2.682-6.256-2.74
		c-2.969-0.07-5.843,0.585-8.739,1.082c-2.347,0.402-4.696,0.786-7.058,1.097c-2.204,0.291-4.4,0.644-6.593,1.006
		c-2.658,0.439-5.313,0.897-7.963,1.383c-4.053,0.742-8.108,1.48-12.15,2.285c-4.003,0.795-8.003,1.614-11.942,2.703
		c-0.151,0.041-0.317,0.049-0.475,0.041c-3.317-0.164-6.369,0.863-9.382,2.073c-0.107,0.043-0.232,0.047-0.35,0.056
		c-0.03,0.004-0.064-0.043-0.186-0.133c0.75-0.884,1.808-1.252,2.783-1.705c2.418-1.127,5.009-1.758,7.581-2.393
		c6.535-1.612,13.124-2.981,19.759-4.126c3.906-0.674,7.795-1.442,11.704-2.096c2.859-0.478,5.742-0.81,8.605-1.259
		c2.585-0.406,5.165-0.854,7.737-1.334c2.678-0.5,5.377-0.786,8.086-0.538c2.243,0.205,4.322,1.11,5.766,2.831
		c1.87,2.23,4.24,3.678,6.693,5.086c4.63,2.656,9.397,5.028,14.417,6.852c3.337,1.211,6.638,1.118,9.746-0.77
		c1.575-0.955,2.743-2.278,3.324-4.072c0.583-1.799,0.097-3.392-0.975-4.824c-2.5-3.342-5.483-6.236-8.611-8.975
		c-3.543-3.102-7.144-6.14-10.735-9.188c-0.789-0.67-1.628-1.283-2.469-1.888c-1.724-1.239-3.658-1.628-5.762-1.495
		c-5.411,0.342-10.729-0.266-15.951-1.716c-2.253-0.625-4.503-1.343-6.833-1.542c-2.864-0.245-5.708-0.026-8.496,0.859
		c-3.494,1.109-6.763,2.744-10.135,4.137c-5.461,2.257-10.991,4.34-16.51,6.447c-6.663,2.543-13.083,5.617-19.429,8.852
		c-1.5,0.764-2.911,1.668-4.151,2.82c-0.175,0.163-0.358,0.326-0.563,0.447c-4.268,2.51-7.309,6.253-10.169,10.163
		c-3.383,4.626-5.587,9.868-7.718,15.135c-2.218,5.481-4.428,10.964-6.795,16.384c-2.238,5.129-4.103,10.406-6.063,15.646
		c-4.171,11.146-8.222,22.342-12.997,33.255c-1.895,4.331-4.453,8.246-7.269,12.017c-4.942,6.617-10.023,13.128-15.147,19.604
		c-4.453,5.63-8.932,11.239-13.369,16.881c-4.188,5.324-8.328,10.688-12.509,16.018c-1.968,2.51-3.882,5.058-5.712,7.668
		c-0.106,0.151-0.204,0.347-0.434,0.363c0-1.12,0-2.238,0-3.358c0.128-0.084,0.296-0.141,0.379-0.256
		c2.798-3.924,5.813-7.683,8.769-11.484c1.711-2.202,3.463-4.373,5.193-6.562c0.749-0.946,0.766-1.307,0.097-2.389
		c-3.289,2.044-6.899,3.293-10.633,4.245c-1.262,0.322-2.58,0.375-3.805,0.844c0-0.72,0-1.438,0-2.159
		c2.174-0.231,4.29-0.757,6.35-1.45c2.888-0.975,5.815-1.909,8.079-4.126c0.164-0.159,0.399-0.301,0.621-0.336
		c0.547-0.091,0.935-0.445,1.328-0.761c2.289-1.828,4.33-3.893,5.928-6.366c1.29-1.997,2.262-4.149,2.393-6.531
		c0.176-3.19-0.186-6.383-0.314-9.572c-0.074-1.835-0.01-3.678-0.179-5.506c-0.305-3.297-0.318-6.61-0.648-9.906
		c-0.242-2.416-0.262-4.855-0.546-7.266c-0.401-3.394-0.705-6.797-1.11-10.19c-0.405-3.39-0.803-6.78-1.295-10.157
		c-0.662-4.543-1.512-9.058-2.606-13.521c-1.602-6.53-3.963-12.716-8.171-18.072c-1.53-1.946-2.804-4.046-3.586-6.423
		c-1.522-4.629-2.591-9.389-4.073-14.028c-0.635-1.985-1.162-4.017-2.168-5.866c0-1.44,0-2.881,0-4.32
		c1.601,2.271,2.464,4.877,3.349,7.468c1.563,4.573,2.752,9.259,4.042,13.911c0.809,2.918,2.011,5.615,3.877,7.975
		c4.23,5.352,6.744,11.48,8.402,18.021c0.992,3.916,1.767,7.871,2.435,11.855c0.512,3.057,0.91,6.127,1.349,9.19
		c0.344,2.397,0.521,4.819,0.78,7.229c0.302,2.81,0.704,5.609,0.896,8.426c0.177,2.584,0.388,5.168,0.571,7.752
		c0.259,3.664,0.328,7.336,0.613,10.998c0.028,0.358,0.073,0.72,0.062,1.076c-0.094,3.082,0.274,6.148,0.31,9.228
		c0.022,1.89-0.208,3.722-0.822,5.506c-0.047,0.138-0.178,0.279,0.034,0.47c1.079-1.11,1.974-2.378,2.929-3.588
		c3.385-4.287,6.75-8.592,10.093-12.91c3.535-4.568,7.128-9.099,10.286-13.941c2.09-3.206,3.569-6.73,5.052-10.245
		c3.994-9.47,7.515-19.121,11.092-28.752c2.873-7.735,5.841-15.433,9.198-22.979c2.032-4.568,3.691-9.299,5.672-13.894
		c2.154-4.994,4.679-9.771,8.147-13.997c1.803-2.197,3.784-4.22,6.017-5.988c0.375-0.296,0.718-0.633,1.112-0.984
		c0.169-1.79-0.15-3.577-0.29-5.349c-0.125-1.586-0.188-3.185-0.318-4.771c-0.147-1.782-0.281-3.579-0.352-5.375
		c-0.11-2.786-0.405-5.565-0.636-8.346c-0.105-1.271-0.167-2.552-0.225-3.82c-0.135-2.991-0.46-5.967-0.574-8.959
		c-0.107-2.826-0.438-5.643-0.652-8.465c-0.093-1.233-0.119-2.468-0.228-3.704c-0.263-2.978-0.342-5.972-0.544-8.957
		c-0.191-2.823-0.513-5.639-0.646-8.465c-0.074-1.595-0.232-3.183-0.312-4.776c-0.136-2.705-0.469-5.397-0.521-8.146
		c-2.713-1.003-3.1-3.511-3.727-5.771c-0.647-2.335-0.789-4.774-1.051-7.187c-0.345-3.168-0.518-6.349-0.882-9.514
		c-0.127-1.106-0.184-2.229-0.237-3.338c-0.133-2.79-0.414-5.568-0.567-8.357c-0.2-3.622-0.495-7.241-0.721-10.863
		c-0.232-3.702-0.475-7.403-0.708-11.105c-0.25-3.981-0.496-7.962-0.729-11.944c-0.236-4.023-0.49-8.045-0.715-12.069
		c-0.237-4.223-0.469-8.448-0.753-12.666c-0.128-1.906-0.007-3.833-0.375-5.73c-0.235-1.215,0.181-2.229,1.105-3.118
		c2.447-2.354,5.411-3.742,8.602-4.677c3.094-0.908,6.262-1.363,9.5-1.506c2.558-0.113,5.115-0.234,7.67-0.165
		c2.865,0.077,5.739,0.118,8.573,0.677c1.358,0.268,2.545,0.842,3.648,1.67c1.611,1.21,2.079,2.975,2.335,4.801
		c0.444,3.157,0.638,6.337,0.774,9.526c0.16,3.751,0.292,7.504,0.481,11.253c0.176,3.499,0.649,6.982,0.863,10.48
		c0.095,1.553,0.239,3.103,0.319,4.657c0.152,2.945,0.418,5.885,0.64,8.827c0.108,1.432,0.198,2.871,0.252,4.299
		c0.122,3.192,0.553,6.366,0.537,9.562c-0.001,0.32,0.001,0.646,0.384,0.911c14.473-2.829,29.006-5.67,43.659-8.535
		c0.38-0.51,0.515-1.27,0.735-1.972c0.356-1.134,1.111-1.704,2.216-1.911c5.22-0.977,10.442-1.944,15.661-2.927
		c4.518-0.851,9.028-1.747,13.551-2.569c4.29-0.779,8.592-1.486,12.889-2.229c3.125-0.541,6.241-1.142,9.376-1.615
		c3.141-0.474,6.289-0.917,9.456-1.201c0.458-0.041,0.922,0.03,1.239,0.329c0.526,0.497,1.121,0.38,1.692,0.284
		c4.573-0.771,9.143-1.562,13.712-2.359c3.944-0.688,7.883-1.409,11.829-2.086c3.518-0.604,7.044-1.151,10.561-1.753
		c3.008-0.515,6.004-1.088,9.011-1.605c2.579-0.444,5.168-0.835,7.749-1.269c2.933-0.492,5.861-1.003,8.793-1.51
		c3.088-0.533,6.175-1.07,9.261-1.608c3.515-0.613,7.028-1.234,10.545-1.84c2.97-0.512,5.942-1.004,8.913-1.514
		c3.555-0.61,7.105-1.237,10.661-1.843c3.048-0.519,6.103-1.007,9.149-1.529c3.479-0.596,6.951-1.22,10.428-1.82
		c3.008-0.519,6.02-1.014,9.027-1.532c3.555-0.611,7.106-1.243,10.662-1.854c2.971-0.51,5.945-0.995,8.918-1.506
		c3.555-0.61,7.105-1.244,10.661-1.854c3.011-0.515,6.026-0.999,9.036-1.514c3.479-0.595,6.953-1.213,10.431-1.811
		c3.048-0.523,6.098-1.029,9.146-1.547c3.439-0.584,6.881-1.17,10.318-1.762c2.577-0.444,5.152-0.902,7.729-1.35
		c3.084-0.537,6.167-1.076,9.253-1.603c3.01-0.514,6.022-1.008,9.032-1.522c3.516-0.602,7.029-1.22,10.546-1.824
		c3.011-0.517,6.023-1.019,9.035-1.537c3.516-0.604,7.027-1.224,10.544-1.828c3.008-0.516,6.019-1.015,9.026-1.531
		c3.517-0.603,7.029-1.214,10.545-1.824c2.891-0.502,5.778-1.019,8.672-1.51c2.97-0.504,5.942-0.985,8.916-1.477
		c0,0.64,0,1.28,0,1.92c-1.643,0.463-3.339,0.631-5.011,0.933c-3.513,0.634-7.032,1.219-10.551,1.817
		c-3.087,0.525-6.176,1.035-9.262,1.562c-2.971,0.507-5.939,1.033-8.91,1.542c-3.088,0.53-6.178,1.048-9.267,1.577
		c-2.971,0.508-5.938,1.021-8.908,1.534c-3.045,0.526-6.089,1.058-9.134,1.583c-3.478,0.599-6.955,1.193-10.434,1.787
		c-3.087,0.527-6.175,1.048-9.262,1.576c-3.439,0.588-6.877,1.18-10.315,1.77c-2.617,0.449-5.235,0.9-7.854,1.348
		c-2.971,0.507-5.942,1.006-8.912,1.519c-3.046,0.525-6.089,1.066-9.135,1.593c-3.518,0.608-7.034,1.209-10.552,1.813
		c-3.011,0.517-6.021,1.034-9.029,1.552c-3.558,0.611-7.111,1.229-10.669,1.834c-3.051,0.519-6.105,1.009-9.155,1.535
		c-3.476,0.6-6.944,1.236-10.422,1.835c-2.579,0.445-5.167,0.842-7.747,1.284c-3.009,0.516-6.012,1.063-9.02,1.585
		c-2.972,0.515-5.944,1.012-8.916,1.522c-3.559,0.612-7.113,1.233-10.672,1.844c-2.971,0.51-5.944,1.005-8.916,1.516
		c-3.555,0.612-7.104,1.242-10.66,1.851c-3.01,0.516-6.025,1.004-9.036,1.517c-3.517,0.6-7.031,1.217-10.548,1.819
		c-2.582,0.441-5.166,0.863-7.746,1.305c-3.01,0.516-6.016,1.046-9.023,1.568c-2.971,0.516-5.941,1.031-8.912,1.543
		c-3.087,0.532-6.175,1.063-9.264,1.589c-3.011,0.514-6.023,1.024-9.036,1.531c-1.994,0.336-3.991,0.656-5.983,1
		c-0.308,0.053-0.599,0.202-0.994,0.341c-3.193,9.064-3.999,18.547-4.783,28.066c0.828,0.364,1.563-0.065,2.276-0.146
		c3.236-0.37,6.456-0.894,9.685-1.334c2.64-0.36,5.286-0.672,7.926-1.025c2.721-0.363,5.437-0.761,8.157-1.124
		c2.682-0.357,5.368-0.683,8.05-1.032c2.722-0.354,5.438-0.721,8.158-1.082c2.722-0.36,5.442-0.719,8.165-1.079
		c2.763-0.366,5.523-0.735,8.285-1.097c2.131-0.279,4.262-0.545,6.392-0.825c2.207-0.29,4.412-0.595,6.618-0.882
		c2.09-0.272,4.182-0.524,6.271-0.797c2.205-0.287,4.407-0.594,6.612-0.879c2.129-0.275,4.263-0.525,6.392-0.802
		c2.166-0.281,4.33-0.587,6.496-0.87c2.127-0.278,4.258-0.532,6.385-0.812c2.166-0.284,4.328-0.59,6.492-0.878
		c2.049-0.272,4.099-0.528,6.146-0.799c2.243-0.297,4.484-0.611,6.729-0.901c2.088-0.271,4.182-0.511,6.271-0.783
		c2.204-0.287,4.403-0.603,6.608-0.892c2.049-0.269,4.101-0.514,6.148-0.781c2.204-0.288,4.405-0.593,6.609-0.881
		c2.088-0.273,4.178-0.527,6.266-0.801c2.204-0.289,4.405-0.598,6.609-0.885c2.089-0.272,4.181-0.521,6.269-0.792
		c2.165-0.281,4.328-0.582,6.492-0.867c2.089-0.275,4.179-0.537,6.268-0.813c2.204-0.292,4.407-0.599,6.612-0.887
		c2.088-0.273,4.179-0.525,6.269-0.796c2.167-0.28,4.333-0.572,6.5-0.857c2.088-0.274,4.177-0.543,6.264-0.822
		c2.205-0.293,4.408-0.602,6.613-0.893c2.049-0.27,4.101-0.521,6.148-0.79c2.245-0.294,4.486-0.607,6.731-0.897
		c2.089-0.271,4.183-0.512,6.271-0.787c2.167-0.285,4.33-0.603,6.496-0.891c2.049-0.272,4.103-0.519,6.15-0.786
		c2.167-0.283,4.331-0.583,6.498-0.866c2.128-0.278,4.259-0.541,6.388-0.815c2.05-0.264,4.099-0.532,6.146-0.804
		c2.168-0.288,4.336-0.58,6.502-0.872c2.72-0.367,5.438-0.74,8.154-1.105c2.051-0.275,4.104-0.54,6.152-0.815
		c2.167-0.291,4.328-0.628,6.501-0.869c1.622-0.18,3.223-0.54,4.861-0.584c0,0.64,0,1.28,0,1.92
		c-1.571,0.235-3.142,0.479-4.714,0.702c-2.199,0.311-4.401,0.614-6.604,0.902c-2.087,0.273-4.179,0.514-6.266,0.789
		c-2.126,0.28-4.246,0.592-6.371,0.875c-2.086,0.277-4.177,0.531-6.264,0.803c-2.088,0.271-4.174,0.551-6.26,0.826
		c-2.165,0.285-4.33,0.565-6.494,0.854c-2.163,0.288-4.325,0.591-6.487,0.876c-2.089,0.275-4.178,0.536-6.267,0.803
		c-2.088,0.268-4.177,0.53-6.263,0.807c-2.126,0.282-4.25,0.583-6.375,0.871c-2.241,0.304-4.481,0.613-6.726,0.901
		c-2.128,0.273-4.261,0.515-6.389,0.785c-2.049,0.259-4.094,0.534-6.141,0.806c-2.166,0.287-4.331,0.576-6.496,0.867
		c-2.204,0.296-4.407,0.602-6.612,0.893c-2.049,0.27-4.101,0.519-6.148,0.788c-2.241,0.294-4.48,0.611-6.725,0.9
		c-2.127,0.274-4.259,0.51-6.386,0.787c-2.126,0.277-4.246,0.595-6.372,0.877c-2.087,0.277-4.179,0.525-6.268,0.798
		c-2.205,0.289-4.405,0.6-6.61,0.885c-2.128,0.275-4.259,0.521-6.386,0.797s-4.25,0.58-6.375,0.862
		c-2.086,0.277-4.176,0.539-6.262,0.815c-2.242,0.297-4.483,0.612-6.729,0.9c-2.129,0.274-4.262,0.51-6.391,0.787
		c-2.127,0.276-4.248,0.593-6.373,0.875c-2.088,0.277-4.178,0.525-6.267,0.798c-2.204,0.289-4.403,0.597-6.608,0.887
		c-2.047,0.27-4.098,0.521-6.146,0.789c-2.205,0.288-4.407,0.59-6.612,0.876c-2.129,0.276-4.259,0.533-6.386,0.812
		c-2.164,0.285-4.325,0.594-6.489,0.879c-2.086,0.275-4.177,0.532-6.266,0.796c-2.09,0.264-4.182,0.519-6.27,0.792
		c-2.203,0.288-4.406,0.592-6.609,0.888c-2.126,0.285-4.252,0.572-6.379,0.853c-2.126,0.28-4.252,0.552-6.379,0.828
		c-2.088,0.271-4.176,0.541-6.264,0.812c-0.983,0.128-1.967,0.282-2.953,0.375c-0.444,0.042-0.861,0.114-1.315,0.36
		c-0.073,1.018,0.321,1.99,0.535,2.973c1.297,6.003,2.63,11.999,3.998,17.986c1.446,6.333,2.922,12.662,4.432,18.981
		c1.757,7.354,3.634,14.679,5.319,22.048c0.883,3.862,1.466,7.784,1.805,11.75c0.264,3.08,0.296,6.159,0.129,9.219
		c-0.215,3.965-0.957,7.878-2.188,11.671c-2.198,6.785-4.971,13.324-8.519,19.523c-0.272,0.478-0.521,0.97-0.813,1.518
		c1.339,0.658,2.488,1.46,3.434,2.567c0.906,1.061,1.629,2.262,2.583,3.368c2.151-0.469,4.332-0.507,6.521-0.495
		c3.895,0.02,7.209,1.381,9.994,4.102c1.569,1.533,3.279,2.91,5.024,4.332c0.608-0.885,1.334-0.808,2.228-0.547
		c3.461,1.014,6.953,1.914,10.42,2.908c2.602,0.747,4.404,2.498,5.677,4.824c0.915,1.676,1.604,3.438,2.056,5.305
		c0.184,0.756-0.01,1.516,0.207,2.312c1.137,0.479,2.336,0.904,3.407,1.599c1.276,0.826,2.478,1.726,3.386,2.982
		c1.83,2.526,1.194,5.567-0.92,7.414c-1.893,1.653-4.22,2.36-6.584,2.885c-1.828,0.406-3.607,0.938-5.368,1.548
		c-0.801,0.277-0.989,0.778-0.883,1.578c0.231,1.732,0.526,3.471,0.587,5.214c0.102,2.915,0.18,5.845,0.006,8.751
		c-0.158,2.66-0.283,5.33-0.634,7.981c-0.142,1.062-0.187,2.147-0.239,3.217c-0.158,3.187-0.498,6.354-0.811,9.522
		c-0.359,3.635-0.627,7.287-1.379,10.877c-0.434,2.074-1.281,3.994-2.135,5.914c-2.707,6.095-5.449,12.172-7.744,18.439
		c-2.945,8.048-5.385,16.244-7.438,24.562c-1.396,5.651-2.646,11.339-3.764,17.049c-0.914,4.666-1.782,9.345-2.479,14.053
		c-0.492,3.335-1.126,6.649-1.617,9.984c-0.469,3.183-0.83,6.381-1.246,9.57c-0.383,2.954-0.778,5.906-1.152,8.862
		c-0.055,0.433-0.018,0.876-0.021,1.315C284.641,396.24,283.92,396.24,283.2,396.24z M230.281,83.702
		c-0.316,0.532-0.357,0.855-0.351,1.173c0.036,1.882-0.23,3.753-0.241,5.628c-0.046,7.425-0.228,14.854,0.922,22.235
		c0.546,3.508,1.259,6.958,2.891,10.143c2.002,3.907,3.477,8.012,4.542,12.256c0.889,3.543,1.429,7.146,1.753,10.797
		c0.242,2.73,0.249,5.44-0.107,8.125c-0.52,3.929-1.328,7.817-2.371,11.647c-1.945,7.143-4.677,13.945-8.886,20.083
		c-3.57,5.206-7.91,9.605-13.532,12.609c-1.186,0.634-2.436,1.146-3.649,1.711c-0.998,4.136-3.739,6.502-7.684,7.572
		c-2.845,0.771-5.684,0.576-8.444-0.47c-2.457-0.931-4.868-1.971-7.253-3.073c-0.276-0.129-0.542-0.394-0.999-0.271
		c0.286,0.255,0.482,0.453,0.702,0.623c5.128,3.937,10.258,7.869,15.544,11.596c1.402,0.987,2.482,2.234,3.169,3.818
		c0.477,1.098,0.835,2.231,1.059,3.406c0.866,4.537,1.96,8.998,4.057,13.16c0.683,1.355,0.62,1.399,2.147,1.315
		c3.46-0.191,6.896-0.563,10.278-1.367c5.65-1.342,10.999-3.419,16.015-6.368c3.851-2.264,7.18-5.164,10.441-8.174
		c0.914-0.842,1.427-1.775,1.78-2.98c1.019-3.482,2.966-5.416,6.133-5.617c0.574-0.41,0.899-1.022,1.333-1.541
		c4.533-5.424,8.524-11.233,12.222-17.244c3.764-6.117,6.705-12.631,9.129-19.387c1.992-5.555,2.995-11.282,3.049-17.179
		c0.022-2.358-0.225-4.697-0.441-7.043c-0.338-3.646-0.954-7.248-1.812-10.793c-2.353-9.713-4.775-19.409-7.011-29.15
		c-2.235-9.749-4.383-19.518-6.608-29.268c-0.224-0.977-0.216-2.052-0.832-2.91C254.83,80.405,242.493,81.962,230.281,83.702z
		 M172.082,63.123c-0.266,0.807-0.525,1.514-0.732,2.235c-0.926,3.216-1.42,6.496-1.744,9.833c-0.37,3.815-0.113,7.585,0.364,11.341
		c0.38,2.987,1.025,5.942,1.626,8.896c1.289,6.339,2.946,12.58,5.29,18.617c1.864,4.801,4.151,9.383,7.159,13.592
		c2.335,3.268,5.099,6.148,7.953,8.943c4.196,4.11,8.524,8.083,12.831,12.077c3.278,3.041,6.455,6.208,9.483,9.508
		c1.782,1.942,3.535,3.913,5.068,6.061c3.083,4.319,5.661,8.949,8.303,13.54c0.51,0.887,0.919,1.835,1.608,2.74
		c1.743-3.063,3.097-6.183,4.245-9.4c1.429-4.006,2.507-8.11,3.301-12.282c0.535-2.812,1.03-5.63,1.052-8.521
		c0.025-3.325-0.291-6.609-0.787-9.885c-0.33-2.176-1.015-4.204-2.093-6.16c-3.595-6.521-6.818-13.22-9.419-20.211
		c-2.854-7.672-5.062-15.536-7.178-23.432c-1.459-5.446-2.619-10.954-3.315-16.547c-0.435-3.487-0.655-6.998-0.561-10.516
		c0.053-1.955-0.025-3.91,0.225-5.867c0.101-0.789,0.421-1.614,0.174-2.505C200.588,57.668,186.33,60.346,172.082,63.123z
		 M123.289,73.821c0.246-1.162-0.089-2.218-0.144-3.288c-0.164-3.189-0.27-6.383-0.537-9.564c-0.113-1.354-0.145-2.711-0.249-4.062
		c-0.22-2.863-0.45-5.726-0.659-8.59c-0.184-2.506-0.269-5.021-0.534-7.518c-0.379-3.578-0.543-7.163-0.681-10.754
		c-0.139-3.632-0.255-7.267-0.512-10.892c-0.135-1.9-0.367-3.801-0.672-5.69c-0.332-2.048-1.517-3.269-3.432-3.868
		c-1.611-0.504-3.3-0.68-4.953-0.685c-4.552-0.015-9.108-0.252-13.661,0.17c-2.864,0.266-5.675,0.731-8.385,1.698
		c-2.299,0.82-4.485,1.856-6.254,3.611c-0.356,0.354-0.581,0.704-0.589,1.241c-0.037,2.521,0.253,5.025,0.348,7.54
		c0.13,3.468,0.486,6.927,0.62,10.395c0.078,1.995,0.246,3.985,0.336,5.979c0.064,1.431,0.118,2.87,0.213,4.302
		c0.226,3.382,0.5,6.762,0.66,10.148c0.085,1.794,0.183,3.594,0.324,5.377c0.242,3.062,0.347,6.131,0.627,9.191
		c0.276,3.016,0.292,6.056,0.553,9.074c0.107,1.235,0.14,2.47,0.234,3.702c0.213,2.82,0.496,5.636,0.661,8.459
		c0.083,1.434,0.218,2.864,0.314,4.296c0.205,3.055,0.624,6.096,0.889,9.148c0.179,2.062,0.459,4.107,1.032,6.091
		c0.312,1.078,0.56,2.24,1.515,3.105c0.726-0.465,1.603-0.449,2.332-0.829c3.655-1.906,7.576-2.604,11.653-2.638
		c3.076-0.026,6.139,0.062,9.2,0.457c2.613,0.337,5.2,0.725,7.639,1.756c0.788,0.334,1.385,0.128,1.964-0.38
		c0.944-0.829,1.352-1.958,1.65-3.117c0.644-2.502,0.54-5.064,0.517-7.617c-0.003-0.31,0.075-0.645-0.245-0.989
		c-1.433,0.338-2.949,0.294-4.462,0.27c-2.534-0.041-4.765-0.896-6.657-2.58c-2.604-2.318-3.928-5.352-4.787-8.646
		c-0.908-3.482-0.116-6.563,2.239-9.22c1.424-1.607,3.252-2.683,5.232-3.502C118.743,74.522,121.039,74.419,123.289,73.821z
		 M122.861,113.277c0,0.382-0.004,0.66,0,0.938c0.059,3.795,0.283,7.583,0.436,11.374c0.17,4.231,0.32,8.463,0.499,12.694
		c0.164,3.871,0.303,7.742,0.461,11.613c0.17,4.151,0.364,8.303,0.482,12.454c0.148,5.192,0.532,10.376,0.538,15.573
		c0,0.385-0.098,0.817,0.397,1.127c5.483-2.054,10.987-4.185,16.388-6.575c3.23-1.429,6.479-2.792,9.987-3.421
		c0.648-0.116,1.384,0.142,1.998-0.432c0.109-2.625-0.023-5.294,0.241-7.965c0.227-2.295,0.464-4.592,0.824-6.862
		c0.619-3.908,1.393-7.792,2.331-11.642c2.146-8.8,5.173-17.307,8.515-25.709c1.599-4.022,3.304-8,5.099-11.938
		c0.312-0.684,0.345-1.324,0.129-2.071c-0.417-1.444-0.704-2.926-1.027-4.396c-0.457-2.081-0.898-4.166-1.379-6.406
		c-13.77,2.411-27.477,4.886-41.211,7.12c-0.225,0.437-0.156,0.843-0.147,1.232c0.051,2.357-0.057,4.705-0.477,7.028
		C126.471,109.636,125.625,112.035,122.861,113.277z M97.716,192.447c8.116-5.362,16.795-9.096,25.592-12.537
		c0.202-1.713-0.154-3.338-0.14-4.968c0.027-3.121-0.25-6.228-0.324-9.345c-0.053-2.272-0.115-4.553-0.248-6.825
		c-0.203-3.47-0.302-6.943-0.428-10.416c-0.094-2.595-0.193-5.189-0.302-7.783c-0.212-5.028-0.443-10.056-0.647-15.085
		c-0.115-2.833-0.177-5.669-0.29-8.502c-0.049-1.234-0.165-2.465-0.253-3.749c-1.491-0.832-3.139-1.104-4.77-1.401
		c-2.63-0.479-5.293-0.647-7.959-0.826c-4.023-0.271-7.962,0.128-11.799,1.333c-1.347,0.423-2.705,0.936-3.734,1.94
		c0.187,2.906,0.317,5.735,0.574,8.553c0.102,1.119,0.076,2.234,0.163,3.349c0.242,3.1,0.476,6.201,0.665,9.304
		c0.097,1.592,0.235,3.18,0.312,4.774c0.137,2.864,0.506,5.719,0.621,8.583c0.071,1.755,0.248,3.503,0.338,5.255
		c0.067,1.309,0.126,2.627,0.227,3.938c0.224,2.9,0.522,5.798,0.646,8.703c0.073,1.715,0.243,3.423,0.334,5.135
		c0.068,1.27,0.118,2.548,0.22,3.82c0.226,2.82,0.52,5.638,0.648,8.462C97.282,186.831,97.575,189.483,97.716,192.447z
		 M156.024,168.734c3.391,0.209,6.521,1.111,9.665,1.938c3.204,0.842,6.443,1.375,9.764,1.492c1.963,0.068,3.914-0.107,5.873-0.079
		c2.008,0.029,3.84,0.551,5.53,1.629c1.248,0.796,2.4,1.71,3.542,2.648c0.88,0.722,1.647,1.603,2.757,2.166
		c0.249-3.721,1.213-7.194,2.341-10.625c1.866-5.672,4.191-11.161,6.68-16.583c0.244-0.532,0.599-1.031,0.613-1.698
		c-0.402-0.383-0.802-0.771-1.209-1.15c-3.949-3.678-7.918-7.335-11.737-11.15c-3.227-3.223-6.307-6.578-8.769-10.436
		c-3.685-5.773-6.297-12.036-8.292-18.571c-0.131-0.432-0.092-0.972-0.587-1.272c-0.053,0.061-0.118,0.113-0.154,0.181
		c-0.131,0.246-0.264,0.492-0.375,0.748c-5.393,12.472-10.336,25.097-13.139,38.456c-0.709,3.381-1.341,6.776-1.799,10.197
		c-0.317,2.368-0.531,4.754-0.685,7.139C155.94,165.349,156.024,166.947,156.024,168.734z M168.757,67.152
		c-0.488,0.023-0.809,0-1.113,0.059c-2.179,0.426-4.354,0.875-6.532,1.306c-4.665,0.92-9.33,1.837-13.996,2.749
		c-4.317,0.843-8.639,1.667-12.955,2.515c-4.24,0.833-8.474,1.695-12.716,2.521c-2.156,0.42-4.288,0.874-6.183,2.078
		c-2.13,1.354-3.777,3.054-4.276,5.637c-0.238,1.234-0.177,2.461,0.13,3.67c0.655,2.58,1.724,4.965,3.554,6.933
		c2.033,2.185,4.651,2.798,7.527,2.646c3.983-0.211,7.892-0.971,11.817-1.594c3.015-0.479,6.015-1.049,9.023-1.571
		c3.518-0.61,7.038-1.208,10.556-1.817c2.969-0.514,5.938-1.031,8.905-1.557c1.942-0.344,3.88-0.707,5.91-1.078
		C167.114,82.127,167.116,74.699,168.757,67.152z M133.773,378.794c0.292-0.503,0.176-0.864,0.17-1.207
		c-0.056-2.956-0.279-5.903-0.453-8.854c-0.233-3.946-0.298-7.902-0.552-11.849c-0.108-1.676-0.159-3.351-0.247-5.025
		c-0.213-4.107-0.481-8.213-0.668-12.322c-0.091-1.995-0.199-3.99-0.305-5.983c-0.232-4.385-0.501-8.769-0.674-13.156
		c-0.016-0.408,0.12-0.883-0.4-1.236c-7.282,6.063-15.887,9.926-24.068,14.364c0,7.459,0,14.772,0,22.123
		C117.247,361.44,125.973,369.533,133.773,378.794z M228.045,182.642c-1.975-3.9-4.181-7.628-6.425-11.335
		c-1.444-2.386-2.88-4.779-4.607-6.974c-3.542-4.5-7.67-8.452-11.735-12.462c-0.251-0.248-0.485-0.553-0.952-0.392
		c-0.084,0.146-0.197,0.31-0.278,0.488c-2.378,5.243-4.665,10.527-6.489,15.99c-1.093,3.27-2.107,6.575-2.307,10.062
		c-0.083,1.447,0.102,2.653,1.375,3.687c3.504,2.845,6.869,5.86,9.924,9.191c1.847,2.013,3.816,3.97,4.621,6.713
		c0.017,0.058,0.124,0.09,0.189,0.134C216.676,196.246,224.403,189.276,228.045,182.642z M229.548,118.215
		c-0.716-3.211-1.216-6.469-1.49-9.746c-0.292-3.5-0.486-7.013-0.503-10.527c-0.021-4.237,0.214-8.466,0.41-12.698
		c0.132-2.871,0.326-5.739,0.584-8.594c0.322-3.554,0.741-7.103,1.35-10.63c0.573-3.322,1.148-6.635,2.111-9.87
		c0.346-1.161,0.689-2.323,1.089-3.671c-5.398,0.557-10.596,1.384-15.818,2.317c-0.615,2.553-0.704,5.107-0.787,7.643
		c-0.124,3.793,0.231,7.569,0.648,11.343c0.398,3.595,0.979,7.16,1.811,10.668c2.122,8.947,4.572,17.806,7.611,26.491
		C227.427,113.408,228.296,115.877,229.548,118.215z M251.22,223.698c-4.658,4.471-9.659,8.017-15.234,10.655
		c-0.639,13.826,1.977,27.08,5.865,40.158c0.09-0.541,0.068-1.08,0.095-1.617c0.096-1.945,0.219-3.888,0.624-5.804
		c1.042-4.934,1.857-9.907,2.22-14.938c0.29-4.014,0.389-8.041,0.715-12.057c0.17-2.095,0.631-4.066,1.62-5.914
		c0.543-1.017,1.091-2.031,1.644-3.041C249.988,228.908,250.985,226.604,251.22,223.698z M303.354,209.641
		c0.33,0.57,0.682,1.14,0.996,1.727c1.463,2.729,0.551,5.727-1.92,7.465c-0.981,0.691-2.045,1.216-3.162,1.645
		c-0.275,0.105-0.637,0.086-0.761,0.543c1.687,0.573,3.373,1.146,5.06,1.723c0.83,0.283,1.674,0.57,2.308,1.203
		c1.163,1.16,2.444,1.726,4.181,1.805c1.928,0.087,3.823,0.029,5.719-0.186c1.136-0.131,2.246-0.502,3.229-1.144
		c0.99-0.647,1.57-1.912,1.341-2.979c-0.411-1.912-1.073-3.732-2.057-5.432c-1.151-1.986-2.806-3.294-5.048-3.881
		c-2.949-0.771-5.885-1.597-8.827-2.395C304.082,209.646,303.773,209.352,303.354,209.641z M284.146,209.127
		c0.461,0.373,0.883,0.42,1.395,0.312c2.471-0.518,4.675,0.832,5.311,3.248c0.441,1.684,0.707,3.412,1.256,5.064
		c0.416,1.246,1.582,2.055,2.828,1.829c2.109-0.38,4.188-0.91,6.023-2.097c1.818-1.178,2.489-2.778,1.9-4.67
		c-0.286-0.922-0.832-1.728-1.553-2.375c-2.375-2.135-4.764-4.252-7.154-6.365c-0.268-0.235-0.578-0.424-0.883-0.613
		c-2.914-1.809-6.125-2.119-9.428-1.738c-0.751,0.088-1.615-0.182-2.371,0.475C282.82,204.352,284.37,206.438,284.146,209.127z
		 M89.916,349.574c5.13,0.842,9.813,2.721,14.423,4.894c0-6.638,0-13.134,0-19.756C97.693,337.96,92.532,342.447,89.916,349.574z
		 M314.955,238.055c0.48,0.065,0.925,0.1,1.341-0.035c3.052-0.982,6.112-1.94,8.968-3.441c0.672-0.354,1.319-0.742,1.873-1.262
		c1.246-1.17,1.581-2.975,0.664-4.326c-1.517-2.235-3.707-3.508-6.294-4.184c-1.313,1.441-2.913,2.127-4.696,2.545
		c-2.051,0.479-4.115,0.375-6.184,0.399c-0.414,0.005-0.85-0.099-1.336,0.129c0.996,1.812,1.807,3.615,3.052,5.187
		C313.523,234.557,314.65,236.1,314.955,238.055z M268.198,221.027c0.255,1.33,0.478,2.494,0.7,3.652
		c0.369,0.287,0.781,0.383,1.222,0.461c1.95,0.348,3.894,0.75,5.844,1.096c3.871,0.687,7.751,1.32,11.618,2.027
		c2.419,0.44,4.883,0.622,7.246,1.397c1.26,0.413,2.551,0.796,3.994,0.957c-0.37-1.037-1.039-1.695-1.772-2.302
		c-1.957-1.616-4.259-2.494-6.71-2.963c-5.982-1.141-11.971-2.248-17.922-3.552C271.08,221.511,269.744,221.13,268.198,221.027z
		 M272.657,196.949c0.241,0.412,0.454,0.793,0.684,1.164c1.992,3.213,3.991,6.422,5.979,9.638c0.869,1.405,0.979,1.463,2.748,1.161
		c0.166-1.311-0.282-2.467-0.967-3.549c-1.256-1.985-2.434-4.023-3.842-5.909c-1.07-1.435-2.14-2.88-4.019-3.353
		C272.91,196.243,272.837,196.571,272.657,196.949z M277.432,208.557c-2.015-3.271-3.908-6.347-5.804-9.422
		c-0.101,0.051-0.2,0.1-0.3,0.149c0.695,3.202,1.812,6.262,3.191,9.271C275.457,208.557,276.32,208.557,277.432,208.557z
		 M17.867,331.531c-1.176,0.615-1.176,0.615-0.948,1.324C17.375,332.505,17.587,331.992,17.867,331.531z"/>
</g>
</svg>
