<?xml version="1.0" encoding="utf-8"?>
<!-- Generator: Adobe Illustrator 16.2.1, SVG Export Plug-In . SVG Version: 6.00 Build 0)  -->
<!DOCTYPE svg PUBLIC "-//W3C//DTD SVG 1.1//EN" "http://www.w3.org/Graphics/SVG/1.1/DTD/svg11.dtd">
<svg version="1.1" id="RS_x5F_straps05_xA0_Image_1_"
	 xmlns="http://www.w3.org/2000/svg" xmlns:xlink="http://www.w3.org/1999/xlink" x="0px" y="0px" width="528px" height="396px"
	 viewBox="0 0 528 396" enable-background="new 0 0 528 396" xml:space="preserve">
<path d="M325.713,62.39c23.676-0.189,47.354-0.147,71.028-0.34c18.638-0.152,37.274,0.04,55.911-0.228
	c18.076-0.259,36.153-0.022,54.23-0.223c7.118-0.079,14.236-0.204,21.356-0.159c0-0.64,0-1.28,0-1.92
	c-16.958,0.043-33.916,0.021-50.874,0.209c-17.915,0.199-35.833,0.009-53.75,0.214c-20.354,0.233-40.713,0.048-61.068,0.268
	c-18.477,0.199-36.954-0.062-55.43,0.242c-2.258,0.037-4.549,0.385-6.787-0.284c-0.135-0.04-0.32-0.001-0.454,0.061
	c-0.72,0.335-1.483,0.257-2.237,0.258c-3.398,0.002-6.799,0.014-10.197-0.004c-15.157-0.084-30.313,0.21-45.471,0.242
	c-0.399,0.001-0.812,0.041-1.195-0.045c-2.424-0.541-4.873-0.754-7.354-0.676c-0.419,0.013-0.877,0.138-1.271-0.157
	c-0.144-0.478-0.085-0.96-0.073-1.433c0.054-2.039,0.146-4.077,0.19-6.115c0.114-5.278-0.066-10.559,0.13-15.836
	c0.092-2.466-0.55-4.727-1.872-6.785c-1.339-2.085-3.255-3.441-5.718-3.712c-3.287-0.363-6.502,0.157-9.584,1.379
	c-3.116,1.235-5.212,3.401-5.656,6.803c-0.371,2.84-0.472,5.714-0.785,8.563c-0.109,0.992-0.167,1.985-0.265,2.976
	c-0.208,2.099-0.458,4.195-0.659,6.295c-0.194,2.021-0.325,4.049-0.528,6.069c-0.278,2.769-0.629,5.531-0.894,8.301
	c-0.295,3.088-0.52,6.183-0.958,9.257c-0.167,1.166-0.063,2.324,0.764,3.274c0.351,0.403,0.361,0.851,0.341,1.344
	c-0.068,1.758-0.135,3.517-0.153,5.275c-0.038,3.599,0.073,7.204-0.088,10.797c-0.317,7.074-0.188,14.153-0.347,21.229
	c-0.228,10.152-0.245,20.312-0.485,30.466c-0.135,5.677-0.086,11.355-0.207,17.033c-0.231,10.874-0.281,21.751-0.503,32.625
	c-0.091,4.438,0.046,8.883-0.121,13.316c-0.292,7.756-0.213,15.514-0.372,23.271c-0.123,5.995-0.26,11.993-0.295,17.991
	c-0.001,0.235-0.037,0.471-0.048,0.611c-0.186,0.313-0.426,0.372-0.646,0.461c-4.122,1.682-8.134,3.602-12.129,5.559
	c-8.674,4.25-17.166,8.855-25.78,13.222c-3.118,1.58-6.177,3.298-9.573,4.269c-4.311,1.229-8.687,2.172-13.087,3.01
	c-0.999,0.188-1.978,0.594-3.074,0.439c0.057-0.71,0.488-1.212,0.749-1.773c2.186-4.723,2-9.156-1.536-13.209
	c-0.31-0.354-0.696-0.678-0.654-1.248c0.046-0.09,0.08-0.213,0.158-0.295c1.982-2.084,2.56-4.428,1.349-7.116
	c-0.221-0.489-0.076-0.892,0.243-1.321c1.278-1.729,1.234-2.072-0.297-3.645c-0.279-0.285-0.581-0.555-0.831-0.863
	c-0.688-0.857-1.515-1.615-2.012-2.607c0.351-0.468,0.811-0.621,1.233-0.834c1.587-0.806,2.966-1.883,4.079-3.271
	c0.841-1.051,1.426-2.26,1.281-3.62c-0.164-1.531-0.878-2.856-1.906-4.026c-1.124-1.279-2.537-2.186-3.912-3.133
	c-4.524-3.117-9.026-6.267-13.479-9.484c-0.696-0.504-1.242-1.147-1.398-2.01c-0.147-0.818-0.371-1.621-0.36-2.471
	c0.025-1.88-0.003-3.76,0-5.641c0.002-1.002-0.194-1.979-0.421-2.944c-0.5-2.128-1.606-3.974-2.796-5.763
	c-2.214-3.33-4.866-6.316-7.444-9.359c-1.81-2.135-3.689-4.215-5.836-6.015c-5.796-4.86-12.292-8.482-19.506-10.779
	c-3.342-1.064-6.774-1.718-10.274-1.943c-3.56-0.229-7.091,0.219-10.596,0.753c-4.465,0.68-8.886,1.6-13.241,2.821
	c-8.662,2.43-16.873,5.841-24.229,11.105c-5.819,4.165-10.637,9.242-14.134,15.533c-3.735,6.722-5.657,13.969-6.17,21.584
	c-0.289,4.303-0.043,8.616,0.717,12.875c1.165,6.522,3.187,12.766,6.382,18.597c1.5,2.737,3.138,5.388,5.668,7.323
	c3.707,2.836,7.354,5.744,10.817,8.879c4.811,4.354,9.301,9.002,13.025,14.334c2.608,3.734,4.799,7.688,6.144,12.082
	c1.235,4.028,1.125,7.953-0.508,11.862c-1.345,3.22-3.232,6.128-5.281,8.891c-5.015,6.759-8.81,14.179-12.212,21.816
	c-3.198,7.181-5.924,14.547-8.583,21.943c-2.022,5.625-3.139,11.401-3.454,17.34c-0.133,2.513-0.139,5.046,0.025,7.555
	c0.098,1.502-0.017,3.04,0.405,4.519c0.64,0,1.28,0,1.92,0c-0.313-2.418-0.404-4.859-0.442-7.285
	c-0.123-7.855,1.07-15.493,3.869-22.885c2.289-6.047,4.483-12.128,7.044-18.067c2.806-6.509,5.794-12.928,9.651-18.896
	c1.469-2.271,3.061-4.465,4.604-6.688c0.11-0.158,0.24-0.324,0.602-0.381c1.139,0.531,2.439,0.967,3.802,1.258
	c1.562,0.335,3.147,0.521,4.72,0.629c1.59,0.111,3.185,0.252,4.782,0.298c3.39,0.099,6.767,0.383,10.145,0.67
	c2.815,0.24,5.615,0.575,8.396,1.034c5.05,0.832,9.997,2.059,14.754,4.004c2.991,1.225,5.809,2.808,8.765,4.099
	c5.31,2.317,10.774,4.204,16.347,5.771c2.362,0.664,4.757,1.212,7.296,1.854c-0.626,0.19-1.125,0.318-1.652,0.351
	c-3.616,0.209-7.164,0.88-10.709,1.568c-3.115,0.604-6.198,1.346-9.263,2.155c-0.734,0.193-1.235-0.171-1.778-0.436
	c-3.573-1.739-7.202-3.349-10.896-4.812c-5.127-2.034-10.34-3.8-15.714-5.072c-2.987-0.709-6.018-1.203-9.074-1.239
	c-5.394-0.062-10.417,1.243-14.641,4.795c-2.119,1.782-3.952,3.856-5.378,6.237c-5.37,8.963-9.669,18.382-12.305,28.538
	c-1.007,3.879-1.882,7.78-2.532,11.725c-0.497,3.015-0.958,6.047-1.033,9.117c-0.014,0.555-0.156,1.106-0.239,1.659
	c0.72,0,1.44,0,2.16,0c-0.053-1.12,0.123-2.227,0.19-3.337c0.169-2.783,0.58-5.536,1.062-8.268
	c0.914-5.185,2.129-10.302,3.732-15.332c2.648-8.31,6.294-16.151,10.93-23.516c3.478-5.525,8.464-8.924,15.08-9.515
	c3.464-0.311,6.92,0.034,10.329,0.772c4.571,0.989,9.026,2.364,13.411,3.98c4.137,1.522,8.187,3.257,12.184,5.111
	c0.235,0.109,0.651,0.132,0.609,0.641c-5.795,1.536-11.483,3.411-17.062,5.623c-1.885,0.748-3.613,1.753-5.315,2.83
	c1.47-0.243,2.842-0.782,4.242-1.225c2.02-0.636,4.125-0.938,6.138-1.573c5.628-1.772,11.271-3.487,16.987-4.96
	c4.297-1.104,8.623-2.071,12.996-2.794c2.388-0.395,4.803-0.65,7.228-0.83c2.077-0.151,4.153-0.092,6.224-0.234
	c5.14-0.355,10.306-0.096,15.435-0.675c1.459-0.165,2.95-0.218,4.366-0.564c2.921-0.716,5.838-1.464,8.7-2.401
	c10.163-3.331,20.334-6.639,30.483-10.013c3.911-1.301,7.821-2.631,11.49-4.551c2.178-1.139,4.153-2.551,5.613-4.563
	c1.149-1.585,2.043-3.33,2.733-5.151c2.521-6.649,5.855-12.878,9.574-18.921c2.398-3.896,4.694-7.855,7.054-11.775
	c3.165-5.258,5.786-10.794,8.4-16.332c5.224-11.068,10.3-22.205,15.361-33.349c4.092-9.011,8.2-18.015,12.263-27.035
	c2.592-5.753,5.195-11.502,7.25-17.479c1.027-2.99,1.66-6.025,1.607-9.221c-0.068-4.351,0.403-8.662,1.407-12.905
	c1.104-4.671,2.307-9.316,4.08-13.788c1.086-2.737,2.823-4.962,5.267-6.638c1.739-1.193,3.479-2.39,5.137-3.7
	c0.979-0.777,2.018-1.484,3.063-2.248c0.565,1.91,0.438,2.698-0.589,3.846c-1.359,1.517-2.732,3.021-4.086,4.544
	c-0.158,0.178-0.471,0.343-0.295,0.676c0.252,0.095,0.396-0.08,0.553-0.177c1.591-0.994,3.184-1.985,4.759-3.003
	c0.505-0.327,0.938-0.752,1.197-1.315c0.188-0.407,0.479-0.731,0.78-1.055c4.309-4.648,9.096-8.729,14.502-12.045
	c1.973-1.209,3.83-2.578,5.748-3.862c2.285-1.529,4.572-1.539,6.976-0.321c2.079,1.053,2.569,2.182,1.97,4.469
	c-0.585,2.223-1.906,4.017-3.26,5.781c-1.055,1.375-1.139,3.044-1.697,4.586c2.889-2.524,5.049-5.564,6.657-8.967
	c1.741,0.522,3.478,3.088,3.974,4.696c0.576,1.876,0.723,3.82,0.742,5.777c0.014,1.192-0.091,2.384,0.221,3.573
	c0.342,1.312,0.531,2.662,0.402,4.027c-0.057,0.603,0.174,0.984,0.826,1.269c0.612-3.047,0.332-6.109,0.607-9.185
	c0.88,0.205,1.463,0.594,1.984,1.094c3.594,3.445,5.123,7.673,4.75,12.61c-0.05,0.642-0.102,1.267,0.065,1.901
	c0.312,1.176,0.331,2.358,0.043,3.55c-0.062,0.251-0.169,0.541,0.021,0.86c0.771-0.122,1.262-0.474,1.393-1.331
	c0.098-0.63,0.191-1.253,0.23-1.893c0.068-1.092,0.209-2.181,0.325-3.324c0.929,0.141,1.669,0.55,2.462,0.788
	c1.198,0.359,1.766,1.25,2.024,2.42c0.544,2.461,0.202,4.823-0.808,7.095c-3.047,6.864-7.765,12.386-13.678,16.936
	c-3.761,2.894-7.564,5.731-11.289,8.671c-4.908,3.876-9.308,8.275-13.124,13.242c-1.846,2.402-3.696,4.814-5.208,7.438
	c-3.299,5.729-5.671,11.865-7.766,18.125c-3.031,9.059-5.451,18.289-7.883,27.519c-2.189,8.306-4.456,16.588-6.978,24.801
	c-2.86,9.321-5.769,18.628-8.875,27.871c-2.021,6.013-4.103,12.005-6.332,17.944c-1.967,5.241-4.047,10.437-6.427,15.507
	c-1.946,4.144-4.33,7.981-7.733,11.121c-2.654,2.445-5.602,4.479-8.729,6.256c-3.253,1.85-6.668,3.396-9.88,5.328
	c-3.051,1.835-6.27,3.373-9.606,4.596c-3.053,1.119-5.905,2.601-8.704,4.209c-7.597,4.365-14.933,9.143-22.166,14.08
	c-1.504,1.027-3.097,1.942-4.433,3.206c1.12,0,2.24,0,3.36,0c2.196-1.769,4.601-3.237,6.935-4.805
	c3.997-2.685,8.064-5.263,12.173-7.773c6.319-3.862,12.856-7.306,19.608-10.344c0.104-0.047,0.222-0.062,0.335-0.092
	c0.445,0.385,0.302,0.896,0.313,1.354c0.126,5.35,0.409,10.692,0.693,16.035c0.1,1.874,0,3.757,0.264,5.624c0.64,0,1.28,0,1.92,0
	c0.069-2.84-0.215-5.67-0.328-8.502c-0.081-2.033-0.108-4.072-0.229-6.105c-0.162-2.75-0.283-5.503-0.409-8.255
	c-0.018-0.394-0.075-0.799,0.065-1.188c0.288-0.369,0.732-0.47,1.121-0.649c4.65-2.158,9.256-4.402,13.538-7.244
	c4.332-2.874,8.084-6.339,10.838-10.806c1.738-2.818,3.151-5.801,4.471-8.825c3.032-6.948,5.646-14.059,8.164-21.206
	c2.646-7.506,5.118-15.068,7.546-22.646c1.826-5.698,3.607-11.411,5.316-17.146c2.014-6.754,3.88-13.549,5.66-20.37
	c2.039-7.816,4.121-15.623,6.457-23.359c0.322-1.065,0.547-2.199,1.31-3.274c0.41,2.349,0.774,4.531,1.069,6.729
	c0.277,2.08,0.625,4.151,0.951,6.228c0.151,0.964,0.633,1.345,1.605,1.417c0.97,0.072,1.902-0.17,2.854-0.251
	c1.902-0.161,3.807-0.326,5.703-0.528c2.649-0.283,5.293-0.625,7.941-0.897c2.691-0.278,5.393-0.478,8.082-0.761
	c3.441-0.361,6.876-0.791,10.316-1.16c2.53-0.271,5.068-0.485,7.603-0.742c0.922-0.094,1.343-0.502,1.504-1.411
	c0.069-0.392,0.11-0.792,0.124-1.19c0.154-4.476-0.014-8.957,0.281-13.432c0.084-1.266-0.395-1.712-1.618-1.936
	c-1.861-0.34-3.72-0.701-5.509-1.041c-0.112-0.205-0.201-0.305-0.223-0.416c-0.424-2.34-0.848-4.68-1.255-7.022
	c-0.221-1.271-0.688-1.729-1.975-1.787c-0.798-0.036-1.601,0.011-2.397-0.018c-0.662-0.021-1.354,0.159-2.005-0.192
	c-0.276-2.148-0.553-4.271-0.823-6.395c-0.289-2.245-0.572-4.492-0.86-6.738c-0.272-2.127-0.511-4.26-0.839-6.379
	c-0.254-1.638-0.207-3.338-0.955-4.855c0.138-0.396,0.464-0.582,0.742-0.795c2.404-1.839,4.841-3.64,7.225-5.506
	c5.572-4.361,10.111-9.569,13.256-15.974c1.279-2.604,2.006-5.234,1.854-8.15c-0.153-2.938-1.143-4.438-3.853-5.54
	c-0.942-0.383-1.981-0.524-2.772-1.001c-0.741-6.065-3.131-10.896-8.961-13.762c-0.201-0.62-0.385-1.464-0.264-2.461
	c0.979-0.757,2.024-1.545,3.047-2.364c2.851-2.281,3.266-6.45,1.096-9.062c-1.323-1.595-2.894-2.854-4.633-3.904
	c-1.09-0.659-1.578-1.496-1.72-2.758c-0.356-3.204-1.935-5.59-5.013-6.843c-0.477-0.193-0.928-0.445-1.403-0.639
	c-0.712-0.291-1.042-0.769-1.002-1.569c0.054-1.038-0.007-2.08,0.021-3.119c0.031-1.246-0.465-2.239-1.369-3.056
	c-0.684-0.615-1.358-1.239-2.059-1.834c-0.469-0.398-0.853-0.852-1.039-1.434c-0.363-1.12-0.985-2.102-1.701-3.001
	c-1.328-1.671-2.778-3.217-5.148-3.295c-0.051-0.001-0.1-0.113-0.221-0.262c0.604-2.382,1.23-4.828,1.846-7.277
	c0.134-0.533,0.493-0.889,0.859-1.259c0.787-0.795,1.561-1.603,2.326-2.417c2.461-2.618,4.654-5.485,7.383-7.855
	c0.539-0.469,1.022-1.018,1.464-1.583c0.682-0.875,0.589-1.346-0.306-2.095c-0.096-0.08-0.16-0.176-0.103-0.33
	c0.31-0.217,0.677-0.111,1.019-0.108c6.278,0.047,12.559-0.089,18.836,0.124c8.676,0.295,17.355-0.027,26.033,0.281
	c7.232,0.257,14.476-0.033,21.713,0.229c7.193,0.261,14.396-0.03,21.595,0.249c6.434,0.249,12.876-0.05,19.312,0.203
	c7.277,0.284,14.56,0.01,21.836,0.284c6.473,0.244,12.956-0.002,19.435,0.249c5.794,0.225,11.596-0.041,17.394,0.215
	c5.754,0.255,11.517-0.022,17.274,0.216c6.513,0.27,13.037-0.046,19.55,0.361c0-0.72,0-1.44,0-2.16
	c-8.997-0.118-17.995-0.198-26.99-0.367c-5.08-0.096-10.159-0.029-15.238-0.129c-13.715-0.27-27.432-0.352-41.146-0.521
	c-12.917-0.16-25.834-0.287-38.75-0.444c-15.996-0.195-31.992-0.302-47.987-0.527c-12.355-0.174-24.715-0.114-37.07-0.382
	c-0.354-0.008-0.711-0.032-1.287-0.059c1.359-3.516,3.057-6.737,4.715-9.928C324.915,62.307,325.32,62.394,325.713,62.39z
	 M138.248,340.296c-1.725,0.488-3.508,0.409-5.236,0.216c-6.01-0.672-11.834-2.225-17.576-4.07
	c-5.864-1.887-11.55-4.215-17.056-6.997c-4.847-2.45-10.036-3.901-15.347-4.969c-2.959-0.594-5.943-1.036-8.936-1.361
	c-2.292-0.25-4.604-0.402-6.907-0.576c-3.46-0.262-6.931-0.312-10.389-0.632c-1.864-0.172-3.711-0.372-5.538-0.771
	c-0.741-0.162-1.424-0.452-2.037-0.837c-0.091-0.549,0.265-0.876,0.47-1.247c1.289-2.332,2.495-4.685,3.12-7.312
	c0.866-3.643,0.497-7.171-0.672-10.677c-1.732-5.195-4.507-9.816-7.808-14.137c-4.386-5.738-9.521-10.754-15.047-15.388
	c-2.355-1.976-4.734-3.918-7.204-5.745c-1.801-1.333-3.138-3.043-4.303-4.915c-3.073-4.938-5.139-10.296-6.501-15.929
	c-0.813-3.363-1.28-6.776-1.512-10.243c-0.583-8.717,0.985-17.011,4.68-24.892c2.452-5.229,5.952-9.705,10.264-13.545
	c7.205-6.414,15.681-10.48,24.775-13.4c4.953-1.59,10.025-2.687,15.145-3.558c2.863-0.487,5.757-0.834,8.656-0.964
	c2.709-0.122,5.415,0.224,8.072,0.768c7.568,1.552,14.351,4.864,20.575,9.373c3.417,2.476,6.296,5.514,8.987,8.746
	c1.989,2.389,4.051,4.722,5.852,7.259c1.406,1.981,2.812,3.989,3.309,6.434c0.294,1.445,0.376,2.925,0.385,4.401
	c0.008,1.439-0.027,2.881,0.027,4.318c0.08,2.153,0.698,4.035,2.603,5.352c3.179,2.195,6.299,4.477,9.456,6.704
	c1.951,1.378,3.93,2.716,5.883,4.092c1.055,0.744,1.955,1.642,2.531,2.822c0.65,1.332,0.597,2.583-0.336,3.795
	c-0.874,1.134-2.012,1.916-3.222,2.622c-0.551,0.322-1.13,0.599-1.66,0.951c-1.117,0.744-1.313,1.589-0.632,2.736
	c0.799,1.348,1.914,2.447,2.925,3.629c0.207,0.241,0.433,0.467,0.721,0.774c-0.774,0.998-1.508,2.019-2.321,2.974
	c-1.218,1.428-2.47,2.829-3.75,4.201c-0.727,0.779-0.788,1.801-1.133,2.717c-0.113,0.301,0.176,0.489,0.481,0.764
	c2.054-2.055,3.949-4.225,6.024-6.492c0.457,1.764,0.282,3.13-0.805,4.32c-0.242,0.266-0.45,0.561-0.696,0.82
	c-0.69,0.731-0.613,1.53-0.155,2.311c0.322,0.547,0.713,1.063,1.137,1.537c1.436,1.605,2.344,3.488,2.316,5.617
	c-0.047,3.535-0.987,6.823-3.932,9.104c-2.149,1.662-4.473,3.039-7.174,3.74c-2.345,0.607-4.63,1.44-6.853,2.435
	c-2.073,0.927-4.29,1.367-6.508,1.812c-1.522,0.305-3.058,0.486-4.59,0.684c-1.819,0.232-3.569,0.732-5.292,1.074
	c-0.164,0.263-0.15,0.455-0.081,0.658c0.058,0.037,0.126,0.123,0.186,0.115c2.018-0.209,4.019-0.459,6.059,0.002
	c0.727,0.166,1.571-0.136,2.35-0.283c0.355-0.067,0.69-0.172,1.144-0.021c0.475,1.863,0.994,3.769,1.443,5.688
	c1.488,6.356,3.081,12.688,4.719,19.01c0.795,3.068,1.522,6.157,2.737,9.098c0.781,1.892,1.71,3.686,3.311,5.044
	c0.616,0.522,1.278,0.931,2.146,1.17c0.073-0.916-0.335-1.565-0.854-2.165c-0.837-0.964-1.761-1.854-2.376-2.999
	c-0.382-0.711-0.587-1.454-0.767-2.243c-0.37-1.619-0.908-3.199-1.361-4.801c-0.224-0.791-0.411-1.593-0.645-2.507
	c0.535,0.018,0.822,0.27,1.134,0.482c3.476,2.375,6.237,5.463,8.699,8.826c2.288,3.125,4.235,6.445,5.466,10.151
	c0.277,0.835,0.397,1.698,0.589,2.546C139.619,339.419,139.185,340.031,138.248,340.296z M140.662,341.269
	c1.269-1.999,0.625-3.955,0.015-5.883c-1.359-4.294-3.713-8.052-6.414-11.605c-2.105-2.771-4.456-5.315-7.215-7.458
	c-0.502-0.391-1.05-0.722-1.552-1.11c-0.712-0.555-1.467-0.951-2.414-0.776c-0.4-0.744-0.445-1.529-0.559-2.346
	c10.977,7.884,20.664,17.031,28.462,28.529C147.394,341.152,144.087,341.4,140.662,341.269z M198.68,325.464
	c-6.635,2.624-13.474,4.653-20.233,6.911c-6.01,2.008-12.043,3.944-18.072,5.896c-2.036,0.658-4.099,1.226-6.182,1.721
	c-0.398,0.095-0.78,0.135-1.214,0.055c-1.318-1.861-2.647-3.738-4.001-5.65c0.587-0.989,1.522-1.509,2.462-2.015
	c3.085-1.659,6.393-2.757,9.705-3.848c5.188-1.709,10.507-2.961,15.733-4.537c7.634-2.302,15.128-4.964,22.228-8.639
	c0.953-0.493,1.872-1.054,2.812-1.573c0.339-0.188,0.633-0.488,1.138-0.473c0.059,3.298-0.092,6.597,0.071,10.056
	C201.829,324.174,200.265,324.837,198.68,325.464z M203.961,260.486c-0.255,4.557-0.069,9.117-0.213,13.671
	c-0.269,8.511-0.145,17.026-0.434,25.538c-0.109,3.195-0.056,6.396-0.035,9.595c0.006,0.977-0.326,1.607-1.193,2.135
	c-4.357,2.652-8.979,4.735-13.713,6.6c-7.536,2.968-15.356,5.013-23.131,7.215c-4.767,1.35-9.501,2.824-13.977,5.009
	c-1.298,0.634-2.455,1.465-3.645,2.452c-2.827-3.365-5.649-6.569-8.724-9.538c-5.113-4.938-10.514-9.529-16.374-13.565
	c-0.609-0.42-1.017-0.916-1.201-1.683c-1.372-5.688-2.788-11.365-4.215-17.145c1.727-0.518,3.425-0.908,5.021-1.588
	c3.687-1.568,7.477-2.885,11.114-4.572c0.431-0.199,0.876-0.396,1.258-0.672c1.931-1.398,4.187-1.777,6.458-2.209
	c5.176-0.983,10.338-2.037,15.413-3.489c2.769-0.792,5.313-2.069,7.851-3.37c8.521-4.364,17.017-8.776,25.549-13.118
	c4.288-2.183,8.628-4.261,13.083-6.09c0.314-0.13,0.604-0.423,1.123-0.22C203.977,257.088,204.056,258.793,203.961,260.486z
	 M297.117,230.588c-0.02-0.62,0.25-1.12,0.624-1.801c0.153,0.636,0.255,1.056,0.347,1.438
	C297.896,230.714,297.557,230.686,297.117,230.588z M334.443,233.796c0.525,1.509,0.656,3.05,0.959,4.548
	c-0.313,0.358-0.719,0.441-1.101,0.446c-1.993,0.028-3.958,0.377-5.94,0.53c-2.812,0.219-5.607,0.609-8.414,0.896
	c-1.979,0.2-3.965,0.331-5.943,0.523c-2.02,0.196-4.033,0.419-6.05,0.647c-0.981,0.111-1.981-0.017-3.019,0.383
	c-0.504-1.893-0.949-3.638-1.178-5.562L334.443,233.796z M329.195,225.148c0.121,0.653,0.154,1.191-0.053,1.889
	c-7.588,0.572-15.192,1.146-22.785,1.719c-0.178-0.473-0.321-0.836-0.344-1.438C313.688,226.441,321.407,226.053,329.195,225.148z
	 M326.771,223.407c-7.547,0.653-14.92,1.294-22.342,1.938c-0.318-0.488-0.338-1.064-0.328-1.599
	c0.041-2.362-0.312-4.704-0.316-7.063c-0.002-0.615,0.097-1.16,0.463-1.685c3.6-5.147,7.438-10.091,12.057-14.384
	c1.989-1.85,4.075-3.58,6.194-5.274c0.12-0.096,0.274-0.147,0.618-0.326C324.434,204.499,325.631,213.886,326.771,223.407z
	 M300.372,62.563c-0.246,1.17-0.024,2.486-1.041,3.51c-0.459,0.462-0.153,1.273-0.688,1.773c-0.445,0.107-0.957-0.005-1.185-0.335
	c-0.901-1.308-2.319-1.083-3.563-1.239c-5.672-0.708-10.949,0.685-16.006,3.156c-0.106,0.052-0.217,0.1-0.328,0.14
	c-0.031,0.011-0.076-0.013-0.287-0.057c-0.764-2.233-1.527-4.475-2.293-6.712C278.132,61.609,297.768,60.988,300.372,62.563z
	 M230.973,62.436c1.624-0.407,3.272-0.638,4.97-0.433c2.682,0.324,5.353,0.678,8.078,0.656c9.149-0.076,18.299-0.039,27.448-0.044
	c0.437,0,0.871,0,1.368,0c0.951,2.65,1.819,5.266,2.619,7.934c-0.843,0.632-1.712,1.124-2.427,1.82
	c-0.245,0.239-0.58,0.206-0.906,0.199c-6.391-0.132-12.78-0.243-19.169-0.386c-5.311-0.119-10.622-0.25-15.931-0.422
	c-1.95-0.062-3.912-0.078-5.837-0.462c-1.329-0.266-1.65-0.624-1.835-1.953c-0.221-1.589-0.101-3.191-0.135-4.787
	C229.192,63.452,229.804,62.729,230.973,62.436z M287.812,93.68c0.277,2.765-0.17,5.53,0.315,8.348
	c-0.336,0.501-1.036,0.667-1.581,1.047c-3.52,2.457-5.926,5.79-7.463,9.728c-2.924,7.495-5.749,15.03-7.928,22.785
	c-0.858,3.054-1.365,6.182-1.875,9.31c-0.639,3.915-1.165,7.862-3.077,11.44c-0.583,1.091-1.229,2.137-1.943,3.144
	c-2.067,2.915-3.405,6.182-4.609,9.517c-1.885,5.223-3.405,10.564-5.216,15.812c-2.589,7.5-6.028,14.512-10.996,20.771
	c-3.215,4.052-6.055,8.395-8.937,12.693c-2.637,3.935-5.228,7.898-7.751,11.906c-0.141,0.225-0.238,0.506-0.648,0.622
	c-0.158-0.862-0.041-1.663-0.051-2.461c-0.103-8.278,0.209-16.552,0.302-24.827c0.115-10.274,0.302-20.55,0.466-30.824
	c0.164-10.314,0.31-20.629,0.5-30.942c0.104-5.636,0.011-11.278,0.269-16.909c0.231-5.038,0.005-10.079,0.218-15.112
	c0.144-3.398,0.19-6.795,0.174-10.194c-0.027-5.799,0.376-11.591,0.251-17.391c-0.002-0.117,0.03-0.235,0.057-0.428
	c1.434-0.703,2.49-1.836,2.768-3.459c0.193-1.129,0.386-2.282,0.303-3.452c-0.03-0.419-0.138-0.888,0.248-1.269
	c13.382,0.63,26.796,0.662,40.25,1.116c0.469,2.645,2.549,3.991,4.386,5.485c2.134,1.737,4.453,3.241,6.528,5.059
	c1.332,1.166,2.5,2.461,3.375,4.008c0.457,0.812,0.834,1.684,0.637,2.612C286.581,92.776,286.859,93.369,287.812,93.68z
	 M207.37,76.282c0.521-2.503,0.539-5.062,0.889-7.585c0.279-2.008,0.343-4.044,0.539-6.064c0.192-1.979,0.446-3.952,0.645-5.931
	c0.199-1.98,0.355-3.966,0.545-5.947c0.21-2.179,0.445-4.355,0.654-6.534c0.118-1.229,0.172-2.464,0.314-3.689
	c0.258-2.212,0.311-4.444,0.683-6.645c0.294-1.739,1.297-2.955,2.719-3.89c1.809-1.19,3.878-1.608,5.964-1.903
	c0.822-0.116,1.646-0.252,2.492-0.284c4.112-0.153,6.154,2.324,7.113,5.195c0.343,1.025,0.497,2.071,0.502,3.166
	c0.037,7.719-0.408,15.432-0.257,23.152c0.015,0.793-0.2,1.311-0.968,1.715c-1.289,0.679-1.962,1.816-1.943,3.321
	c0.022,1.76-0.02,3.521,0.044,5.278c0.042,1.155,0.464,2.205,1.471,2.869c0.549,0.362,0.709,0.792,0.67,1.405
	c-0.074,1.156-0.209,2.307-0.278,3.464c-0.058,0.964-0.447,1.855-1.41,2.305c-3.283-2.315-7.095-2.907-10.876-3.597
	c-3.016-0.55-5.841,0.052-8.562,1.352c-0.138,0.066-0.303,0.075-0.469,0.113C207.393,77.222,207.272,76.754,207.37,76.282z
	 M224.592,190.427c-0.165,10.036-0.285,20.072-0.466,30.107c-0.197,10.835-0.292,21.671-0.537,32.505
	c-0.113,4.999-0.009,9.999-0.165,14.994c-0.225,7.234-0.24,14.473-0.44,21.707c-0.019,0.691-0.373,1.197-0.693,1.746
	c-2.272,3.89-4.672,7.701-6.866,11.638c-2.217,3.979-3.852,8.213-5.631,12.385c-0.786,1.841-1.722,3.59-3.072,5.091
	c-0.427,0.475-0.842,0.959-1.432,1.237c-0.417-0.189-0.27-0.553-0.264-0.841c0.193-9.355,0.327-18.711,0.421-28.068
	c0.094-9.355,0.312-18.712,0.449-28.068c0.047-3.196-0.151-6.407,0.053-9.594c0.406-6.35-0.005-12.705,0.336-19.053
	c0.212-3.954-0.01-7.92,0.125-11.875c0.275-8.074,0.12-16.152,0.412-24.229c0.146-4.033-0.061-8.083,0.118-12.114
	c0.254-5.758,0.011-11.519,0.254-17.272c0.101-2.399,0.128-4.796,0.153-7.196c0.09-8.396,0.128-16.795,0.323-25.189
	c0.092-3.958,0.066-7.917,0.173-11.874c0.237-8.794,0.272-17.591,0.408-26.387c0.104-6.755,0.318-13.51,0.315-20.301
	c0.66-0.802,1.541-1.008,2.36-1.273c2.708-0.875,5.44-0.611,8.141,0.023c1.852,0.435,3.699,0.906,5.492,1.58
	c0.995,0.374,1.472,1.018,1.574,2.012c0.049,0.476,0.088,0.956,0.083,1.433c-0.092,9.438-0.244,18.874-0.407,28.309
	c-0.132,7.636-0.183,15.273-0.382,22.909c-0.217,8.314-0.165,16.634-0.334,24.95C224.882,169.956,224.761,180.192,224.592,190.427z
	 M288.884,142.41c-2.169,1.622-4.372,3.198-6.573,4.775c-2.346,1.678-3.914,3.956-5.062,6.546c-1.612,3.637-2.566,7.49-3.62,11.307
	c-0.854,3.098-1.5,6.248-1.886,9.436c-0.254,2.095-0.383,4.212-0.292,6.333c0.149,3.555-0.647,6.938-1.841,10.259
	c-2.539,7.072-5.729,13.868-8.789,20.716c-3.289,7.36-6.663,14.684-10.01,22.018c-4.917,10.774-9.806,21.562-14.859,32.274
	c-3.104,6.58-6.182,13.176-9.99,19.394c-0.203,0.332-0.422,0.655-0.608,0.943c-0.262,0.026-0.242-0.132-0.241-0.229
	c0.021-3.117-0.075-6.236,0.126-9.354c0.176-2.717,0.045-5.439,0.113-8.157c0.197-7.874,0.163-15.753,0.416-23.627
	c0.094-2.917,0.058-5.839,0.051-8.758c-0.001-0.663,0.165-1.216,0.519-1.784c4.448-7.13,9.012-14.184,13.845-21.059
	c2.567-3.651,5.217-7.244,7.828-10.865c2.55-3.536,4.438-7.427,6.103-11.435c2.573-6.193,4.394-12.645,6.513-18.995
	c1.169-3.502,2.375-6.998,4.321-10.169c1.163-1.895,2.53-3.656,3.468-5.697c1.152-2.511,1.878-5.146,2.273-7.853
	c1.084-7.435,2.682-14.731,5.352-21.777c1.477-3.893,2.82-7.836,4.275-11.738c0.896-2.393,2.037-4.657,3.625-6.696
	c2.182-2.803,4.963-4.743,8.336-5.714c3.963-1.141,7.908-2.311,11.666-3.886c2.483,1.003,2.748,3.143,1.99,4.808
	c-1.248,2.733-3.146,4.825-5.979,6.051c-1.712,0.741-3.502,1.274-5.181,2.124c-1.045,0.529-2.32,0.492-3.516,0.584
	c-0.982,0.076-2.021,0.057-2.826,1.176c2.209,1.007,4.299,0.625,6.518,0.1c-0.178,0.653-0.66,0.894-1.002,1.208
	c-1.963,1.808-3.25,3.984-3.859,6.591c-0.288,1.232-0.167,2.371,0.418,3.46c0.271,0.509,0.352,1.023,0.398,1.59
	c0.179,2.141,0.48,4.272,0.623,6.415c0.156,2.343,0.621,4.662,0.578,7.078C291.184,140.842,289.992,141.582,288.884,142.41z
	 M289.949,101.048c0-2.501,0-5.008,0-7.695c6.732-0.901,13.475-1.804,20.503-2.745c-0.679,2.754-1.293,5.245-1.909,7.745
	c-0.248,0.258-0.557,0.422-0.947,0.543c-0.662-0.477-1.162-1.157-1.856-1.631c-1.023-0.699-2.003-0.782-3.13-0.27
	c-3.982,1.811-8.241,2.797-12.396,4.096C290.15,101.111,290.068,101.07,289.949,101.048z M294.753,142.896
	c-0.08-0.044-0.16-0.088-0.239-0.132c-0.527-5.271-1.053-10.542-1.594-15.958c1.057,0.289,1.887,0.516,2.729,0.746
	c0.076,0.763-0.489,1.196-0.736,1.757c-0.319,0.724-0.805,1.379-0.898,2.192c-0.215,1.847,0.661,3.14,2.152,4.071
	c1.391,0.868,2.827,1.646,4.626,1.569C298.781,139.094,296.669,140.889,294.753,142.896z M325.834,130.632
	c0.001-0.649,0.579-0.804,0.934-1.131C326.682,130.099,326.246,130.352,325.834,130.632z M331.886,128.759
	c0.445-0.124,0.785-0.049,1.123,0.16c1.927,1.191,2.86,3.538,2.273,5.675c-0.265,0.963-0.894,1.677-1.638,2.289
	c-0.763,0.629-1.564,1.21-2.436,1.878c-0.759-1.019-1.215-2.041-1.961-2.882c-0.749-0.844-1.609-1.532-2.503-2.199
	c-0.032-0.072-0.112-0.168-0.091-0.209C327.834,131.275,329.348,129.463,331.886,128.759z M329.178,126.451
	c0.521,0.066,0.785,0.271,0.994,0.62c-0.738,0.477-1.458,0.943-2.178,1.408c-0.045-0.03-0.09-0.061-0.135-0.092
	C328.296,127.747,328.732,127.106,329.178,126.451z M321.498,117.775c0.917-0.542,1.796-0.52,2.727-0.085
	c1.902,0.889,2.94,2.355,3.432,4.418c0.51,2.148-0.274,3.73-1.647,5.193c-0.461,0.491-0.907,1.007-1.489,1.356
	c-0.494,0.028-0.82-0.3-1.203-0.492c-1.496-0.752-2.998-1.421-4.734-1.453c-1.893-0.034-3.498,0.71-4.975,1.726
	c-2.431,1.669-4.855,3.34-7.36,4.894c-0.192,0.119-0.413,0.192-0.617,0.286c-0.287-0.519,0.072-0.803,0.315-1.093
	c1.537-1.834,2.945-3.81,4.67-5.449c2.688-2.555,5.191-5.319,8.186-7.543C319.661,118.891,320.57,118.323,321.498,117.775z
	 M317.604,107.071c0.744,0.634,1.465,1.197,2.123,1.825c0.512,0.489,0.696,1.151,0.682,1.858c-0.018,0.839-0.062,1.678-0.057,2.516
	c0.004,0.751,0,1.509,0.457,2.423c-1.213-0.419-1.838,0.17-2.492,0.831c-1.881,1.905-3.785,3.787-5.717,5.642
	c-2.83,2.717-5.32,5.734-7.857,8.713c-0.98,1.151-1.95,2.313-3.006,3.404c-0.803,0.832-1.625,1.029-2.68,0.6
	c-0.818-0.333-1.592-0.738-2.291-1.262c-0.841-0.629-1.067-1.48-0.595-2.423c1.865-3.72,4.035-7.233,7.079-10.131
	c2.924-2.783,5.729-5.678,8.52-8.597C313.582,110.571,315.621,108.891,317.604,107.071z M313.391,100.927
	c0.887,0.859,1.649,1.839,2.219,2.948c0.75,1.465,0.779,1.683-0.438,2.761c-4.902,4.35-9.26,9.253-13.994,13.771
	c-1.365,1.301-2.49,2.803-3.544,4.351c-0.514,0.754-1.132,0.972-1.938,0.761c-0.765-0.2-1.533-0.416-2.255-0.729
	c-1.191-0.517-1.66-1.51-1.455-2.808c0.328-2.074,1.253-3.836,2.744-5.302c1.908-1.874,3.896-3.661,6.043-5.259
	c0.664-0.496,1.424-0.865,2.115-1.327c2.178-1.455,3.715-3.443,4.805-5.808c0.49-1.066,0.67-2.189,0.678-3.387
	C310.512,99.461,311.875,99.46,313.391,100.927z M320.001,76.809c0.397,0.219,0.642,0.727,1.129,0.858
	c-0.021,0.156-0.004,0.26-0.047,0.3c-2.877,2.725-5.313,5.854-8.019,8.739c-1.114,1.189-2.353,1.917-3.992,2.095
	c-3.239,0.353-6.471,0.792-9.7,1.227c-2.558,0.345-5.106,0.763-7.666,1.097c-0.927,0.121-1.89,0.394-2.924-0.174
	c-0.312-2.191-1.455-3.853-3.095-5.243c-1.771-1.501-3.652-2.838-5.606-4.093c-1.672-1.074-3.438-2.08-4.519-3.854
	c-0.643-1.055-1.261-2.127-1.836-3.22c-0.371-0.704-0.213-1.382,0.394-1.953c0.719-0.678,1.565-1.167,2.578-1.086
	c0.854,0.069,1.526-0.219,2.233-0.644c2.338-1.405,4.754-2.67,7.545-2.85c1.51-0.097,3.033,0.004,4.547-0.055
	c4.854-0.192,9.342,1.311,13.816,2.902c2.426,0.862,4.852,1.726,7.292,2.54c1.112,0.371,2.113,0.903,3.015,1.641
	C316.923,76.489,317.613,76.745,320.001,76.809z M321.829,63.499c-0.988,1.497-1.743,3.106-2.373,4.783
	c-0.292,0.777-0.265,1.57-0.229,2.361c0.045,1.055-0.225,1.985-0.972,2.736c-0.325,0.327-0.433,0.743-0.606,1.195
	c-0.775-0.081-1.271-0.472-1.57-0.976c-0.62-1.042-1.6-1.538-2.662-1.869c-4.198-1.309-8.266-3.014-12.643-4.187
	c-0.192-1.682,0.199-3.337,0.354-4.931c1.582-0.878,3.206-0.815,4.783-0.89c2.432-0.114,4.88-0.328,7.299-0.025
	c2.664,0.333,5.351-0.054,7.999,0.385c0.385,0.063,0.809,0,1.09,0.352C322.391,62.914,322.04,63.18,321.829,63.499z"/>
</svg>
