<?xml version="1.0" encoding="utf-8"?>
<!-- Generator: Adobe Illustrator 16.2.1, SVG Export Plug-In . SVG Version: 6.00 Build 0)  -->
<!DOCTYPE svg PUBLIC "-//W3C//DTD SVG 1.1//EN" "http://www.w3.org/Graphics/SVG/1.1/DTD/svg11.dtd">
<svg version="1.1" id="RS_x5F_straps04_xA0_Image_1_"
	 xmlns="http://www.w3.org/2000/svg" xmlns:xlink="http://www.w3.org/1999/xlink" x="0px" y="0px" width="528px" height="396px"
	 viewBox="0 0 528 396" enable-background="new 0 0 528 396" xml:space="preserve">
<g>
	<path d="M176.64,396.24c0.005-5.718,0.408-11.422,0.55-17.137c0.106-4.271,0.295-8.544,0.467-12.813
		c0.175-4.352,0.313-8.704,0.486-13.056c0.168-4.231,0.312-8.463,0.473-12.694c0.166-4.352,0.319-8.702,0.484-13.054
		c0.16-4.231,0.305-8.464,0.471-12.694c0.172-4.392,0.324-8.783,0.49-13.175c0.162-4.271,0.314-8.544,0.474-12.814
		c0.163-4.353,0.316-8.705,0.483-13.057c0.164-4.271,0.307-8.545,0.476-12.816c0.175-4.392,0.308-8.785,0.485-13.177
		c0.258-6.389,0.473-12.776,0.709-19.166c0.242-6.549,0.5-13.097,0.729-19.646c0.15-4.272,0.306-8.547,0.475-12.817
		c0.26-6.548,0.498-13.097,0.726-19.646c0.147-4.233,0.267-8.469,0.479-12.698c0.258-5.149,0.335-10.303,0.62-15.452
		c0.149-2.709,0.181-5.431,0.289-8.147c0.14-3.555,0.208-7.112,0.371-10.666c0.049-1.066-0.272-1.842-1.104-2.49
		c-1.731-1.35-3.703-2-5.867-2.072c-3.198-0.108-6.378,0.011-9.476,0.941c-0.342,0.103-0.689,0.195-1.025,0.316
		c-1.729,0.627-2.957,1.599-3.01,3.676c-0.04,1.552-0.192,3.115-0.245,4.663c-0.078,2.316-0.274,4.625-0.341,6.941
		c-0.118,4.029-0.424,8.053-0.642,12.079c-0.098,1.794-0.161,3.593-0.218,5.384c-0.083,2.555-0.266,5.106-0.337,7.663
		c-0.115,4.109-0.428,8.213-0.645,12.32c-0.097,1.834-0.17,3.675-0.22,5.506c-0.074,2.676-0.215,5.352-0.354,8.02
		c-0.212,4.065-0.27,8.14-0.619,12.2c-0.161,1.867-0.179,3.753-0.23,5.625c-0.072,2.677-0.209,5.354-0.352,8.021
		c-0.218,4.104-0.265,8.219-0.624,12.319c-0.157,1.787-0.166,3.593-0.216,5.386c-0.074,2.676-0.214,5.353-0.354,8.021
		c-0.219,4.186-0.271,8.38-0.631,12.56c-0.154,1.788-0.151,3.594-0.212,5.387c-0.086,2.516-0.217,5.029-0.342,7.541
		c-0.218,4.387-0.305,8.777-0.643,13.158c-0.147,1.909-0.186,3.834-0.233,5.745c-0.067,2.718-0.202,5.435-0.348,8.142
		c-0.222,4.105-0.261,8.222-0.622,12.32c-0.157,1.788-0.138,3.592-0.208,5.388c-0.097,2.475-0.241,4.947-0.333,7.423
		c-0.168,4.509-0.438,9.014-0.661,13.521c-0.093,1.875-0.15,3.755-0.211,5.628c-0.086,2.635-0.264,5.268-0.336,7.903
		c-0.119,4.352-0.424,8.697-0.643,13.046c-0.097,1.916-0.174,3.835-0.233,5.749c-0.136,4.434-0.428,8.86-0.568,13.294
		c-0.142,4.47-0.442,8.936-0.673,13.402c-0.64,0-1.28,0-1.92,0c0.175-4.63,0.302-9.264,0.542-13.891
		c0.175-3.39,0.268-6.785,0.481-10.17c0.261-4.146,0.362-8.297,0.608-12.441c0.137-2.309,0.226-4.627,0.32-6.941
		c0.189-4.628,0.335-9.259,0.665-13.88c0.131-1.832,0.156-3.674,0.214-5.507c0.084-2.675,0.218-5.352,0.353-8.021
		c0.212-4.187,0.272-8.381,0.624-12.562c0.157-1.869,0.162-3.753,0.222-5.626c0.085-2.636,0.222-5.271,0.351-7.899
		c0.208-4.227,0.274-8.461,0.629-12.681c0.154-1.83,0.149-3.675,0.216-5.507c0.092-2.514,0.256-5.025,0.337-7.541
		c0.14-4.35,0.426-8.692,0.65-13.038c0.097-1.875,0.167-3.755,0.222-5.626c0.079-2.676,0.216-5.352,0.352-8.02
		c0.211-4.146,0.274-8.302,0.625-12.441c0.155-1.828,0.167-3.674,0.222-5.506c0.079-2.635,0.214-5.271,0.35-7.899
		c0.214-4.146,0.274-8.301,0.628-12.44c0.156-1.828,0.161-3.672,0.22-5.506c0.084-2.636,0.216-5.271,0.352-7.902
		c0.215-4.146,0.278-8.3,0.632-12.439c0.149-1.749,0.156-3.513,0.213-5.265c0.083-2.556,0.262-5.107,0.338-7.664
		c0.125-4.148,0.416-8.292,0.646-12.438c0.098-1.754,0.15-3.514,0.213-5.265c0.088-2.434,0.226-4.869,0.347-7.299
		c0.197-3.945,0.273-7.9,0.637-11.837c0.081-0.871,0.012-1.755,0.012-2.679c-2.187-1.224-2.602-3.122-2.201-5.483
		c0.339-1.995,0.367-4.042,0.561-6.063c0.197-2.058,0.433-4.111,0.645-6.167c0.109-1.069,0.208-2.14,0.302-3.21
		c0.274-3.093,0.562-6.184,0.917-9.269c0.232-2.017,0.34-4.047,0.54-6.068c0.195-1.977,0.448-3.949,0.652-5.925
		c0.196-1.899,0.345-3.803,0.542-5.703c0.242-2.333,0.354-4.694,0.807-6.987c0.784-3.963,3.045-5.703,6.847-6.272
		c3.475-0.52,6.987-0.536,10.509-0.322c2.603,0.158,5.022,0.709,7.212,2.144c0.299,0.196,0.58,0.42,0.862,0.641
		c1.691,1.323,2.43,3.057,1.998,5.16c-0.243,1.183-0.246,2.377-0.379,3.56c-0.431,3.796-0.672,7.614-1.028,11.419
		c-0.271,2.891-0.607,5.776-0.909,8.664c-0.008,0.072,0.041,0.149,0.083,0.292c0.397,0.14,0.729-0.145,1.065-0.284
		c5.654-2.326,11.303-4.665,16.952-7.002c2.384-0.986,4.736-2.061,7.132-2.999c4.286-1.678,8.523-3.471,12.779-5.217
		c10.276-4.215,20.538-8.468,30.804-12.71c11.298-4.669,22.593-9.346,33.894-14.012c8.88-3.666,17.768-7.311,26.646-10.98
		c9.941-4.108,19.875-8.239,29.817-12.348c7.854-3.247,15.722-6.469,23.577-9.716c8.658-3.58,17.306-7.185,25.966-10.762
		c8.953-3.699,17.92-7.367,26.871-11.072c2.673-1.106,5.393-2.104,7.995-3.379c1.68,0,3.358,0,5.04,0
		c-0.659,0.607-1.533,0.774-2.321,1.102c-10.125,4.2-20.257,8.383-30.389,12.565c-12.411,5.123-24.824,10.237-37.235,15.36
		c-9.028,3.727-18.054,7.463-27.082,11.192c-14.353,5.93-28.706,11.859-43.062,17.787C288.49,63.128,276.663,68,264.844,72.891
		c-2.423,1.002-1.714,0.349-2.515,3.009c-1.565,5.201-3.052,10.426-4.549,15.648c-0.16,0.557-0.527,1.072-0.417,1.931
		c1.11-1.285,2.397-1.99,3.851-2.501c9.938-3.497,19.859-7.039,29.784-10.572c12.236-4.357,24.471-8.718,36.705-13.08
		c12.309-4.389,24.615-8.783,36.926-13.169c12.086-4.306,24.178-8.598,36.262-12.909c10.849-3.87,21.686-7.769,32.533-11.635
		c12.047-4.293,24.104-8.555,36.15-12.848c13.846-4.934,27.687-9.882,41.521-14.84c1.485-0.532,3.028-0.917,4.424-1.685
		c2,0,4.002,0,6,0c-2.454,1.11-5.035,1.886-7.563,2.799c-8.133,2.936-16.285,5.815-24.431,8.716
		c-10.09,3.593-20.179,7.185-30.266,10.781c-9.972,3.555-19.938,7.12-29.913,10.671c-9.375,3.338-18.756,6.656-28.13,9.997
		c-8.744,3.115-17.479,6.254-26.222,9.37c-8.597,3.063-17.199,6.105-25.795,9.172c-7.359,2.625-14.71,5.275-22.068,7.905
		c-8.557,3.058-17.114,6.111-25.675,9.158c-7.59,2.702-15.184,5.392-22.773,8.091c-0.225,0.079-0.431,0.205-0.629,0.302
		c-0.023,0.242,0.055,0.42,0.178,0.58c2.705,3.479,4.121,7.479,4.721,11.799c0.469,3.385,0.521,6.749-0.764,10.002
		c-0.928,2.353-2.309,4.449-3.812,6.457c-3.291,4.391-7.078,8.334-11.064,12.092c-0.487,0.459-1.082,0.837-1.33,1.492
		c0.939,5.121,1.882,10.223,2.811,15.328c0.794,4.367,1.609,8.731,2.348,13.108c0.633,3.754,1.174,7.523,1.741,11.287
		c0.479,3.178,1.027,6.349,1.38,9.541c0.323,2.926,0.613,5.859,0.789,8.802c0.133,2.223,0.482,4.432,0.639,6.654
		c0.14,1.987,0.343,3.966,0.537,5.948c0.222,2.258,0.443,4.517,0.662,6.774c0.184,1.9,0.354,3.803,0.541,5.703
		c0.219,2.215,0.457,4.431,0.668,6.646c0.188,1.941,0.393,3.884,0.516,5.831c0.261,4.142,0.527,8.284,0.686,12.431
		c0.105,2.793,0.354,5.573,0.545,8.358c0.312,4.573,1.149,9.046,2.721,13.366c0.063,0.178,0.187,0.334,0.295,0.527
		c0.678,0,1.315,0.026,1.951-0.005c1.562-0.077,2.681,0.679,3.486,1.912c0.812,1.244,1.174,2.649,1.396,4.126
		c0.289,1.913,0.178,3.826,0.221,5.74c0.007,0.314-0.037,0.639,0.158,1.017c1.222,0.659,2.592,0.537,3.904,0.298
		c2.902-0.527,4.726,0.42,5.681,3.192c0.622,1.808,0.854,3.698,1.065,5.594c0.271,2.447,0.394,4.909,0.838,7.343
		c0.239,1.32,0.517,2.681,0.28,4.041c-0.092,0.529,0.056,0.928,0.341,1.334c0.873,1.252,1.285,2.627,1.178,4.166
		c-0.096,1.387,0.168,2.793-0.289,4.236c1.344,1.344,2.609,2.77,3.533,4.459c0.924,1.688,1.517,3.489,1.854,5.347
		c3.86,1.911,5.327,5.438,6.406,9.219c0.76,2.658-0.474,4.754-2.112,6.623c-1.659,1.892-3.529,3.585-5.553,5.099
		c-0.577,0.433-1.188,0.881-1.871,1.032c-1.078,0.239-1.596,0.9-1.954,1.86c-1.589,4.232-3.181,8.465-4.819,12.677
		c-1.812,4.659-3.615,9.325-5.607,13.911c-1.49,3.428-3.678,6.42-6.002,9.321c-3.43,4.282-7.486,7.981-11.133,12.062
		c-3.195,3.573-5.896,7.509-8.209,11.708c-0.721,0-1.439,0-2.16,0c0.322-1.263,1.179-2.234,1.832-3.312
		c2.193-3.617,4.621-7.075,7.508-10.177c2.803-3.013,5.746-5.895,8.48-8.973c3.67-4.134,6.865-8.541,8.902-13.751
		c2.21-5.651,4.504-11.271,6.667-16.939c1.044-2.733,2.079-5.47,3.087-8.121c-0.154-0.306-0.357-0.37-0.505-0.498
		c-1.13-0.987-2.527-1.721-3.161-3.188c-0.955-2.211-2.585-3.804-4.562-5.096c-2.102-1.372-4.223-2.717-6.289-4.141
		c-2.934-2.021-5.442-4.563-8.228-6.771c-1.174-0.931-2.237-2.005-3.589-2.855c-3.342,4.721-5.869,9.724-7.537,15.173
		c-0.609,1.991-0.509,3.901,0.13,5.838c0.349,1.054,0.648,2.121,0.982,3.181c1.317,4.184,2.472,8.393,2.03,12.854
		c-0.03,0.307,0.129,0.698-0.365,0.896c-0.16-1.702-0.499-3.298-1.045-4.844c-0.264-0.748-0.668-1.458-0.842-2.224
		c-0.732-3.212-1.737-6.344-2.701-9.489c-0.653-2.131-0.793-4.271-0.15-6.454c1.844-6.248,4.764-11.943,8.725-17.104
		c2.49-3.242,4.644-6.666,5.854-10.604c0.687-2.236,1.417-4.459,0.886-6.879c-0.438-1.994-2.326-4.083-4.181-4.273
		c-3.386-0.35-6.218,0.757-8.306,3.484c-1.311,1.713-2.654,3.391-4.088,4.998c-1.709,1.922-3.098,4.045-4.046,6.441
		c-0.613,1.549-1.135,3.139-1.835,4.646c-1.145,2.471-2.746,4.667-4.462,6.765c-1.993,2.434-3.715,5.08-6.026,7.271
		c-2.344,2.222-4.645,4.509-6.473,7.206c-0.072,0.106-0.201,0.096-0.316,0.025c-0.026-0.069-0.065-0.142-0.08-0.216
		c-0.04-0.205,0.051-0.384,0.108-0.575c0.441-1.486,1.342-2.71,2.277-3.897c2.862-3.636,5.96-7.078,8.797-10.734
		c2.326-2.998,4.424-6.104,5.653-9.754c0.997-2.963,2.457-5.701,4.592-8.039c0.258-0.283,0.712-0.558,0.516-1.157
		c-2.363,0-4.72,0.024-7.077-0.017c-0.758-0.013-1.275,0.246-1.736,0.827c-2.907,3.658-5.617,7.452-7.536,11.731
		c-2.046,4.562-3.941,9.191-5.594,13.915c-1.128,3.222-2.125,6.497-2.431,9.901c-0.354,3.941-0.4,7.907-0.238,11.865
		c0.246,5.992,0.396,11.979-0.279,17.955c-0.276,2.442-1.002,4.727-2.388,6.781c-1.12,1.661-2.473,3.129-3.817,4.6
		c-5.203,5.692-10.431,11.36-15.639,17.048c-2.019,2.205-4.088,4.366-5.986,6.681c-0.88,0-1.76,0-2.64,0
		c2.205-2.473,4.39-4.961,6.618-7.411c3.171-3.486,6.379-6.94,9.562-10.418c2.914-3.183,5.811-6.38,8.722-9.563
		c2.23-2.438,3.436-5.294,3.688-8.598c0.504-6.629,0.123-13.264,0.216-19.896c0.029-2.039-0.017-4.078,0.014-6.117
		c0.062-4.128,0.941-8.114,2.249-12.007c1.796-5.344,3.928-10.559,6.242-15.695c1.593-3.538,3.75-6.744,6.055-9.854
		c0.351-0.473,0.692-0.952,1.173-1.616c-1.506-0.16-2.815-0.246-4.125,0.158c-0.677,0.208-1.33,0.51-2.084,0.355
		c-1.56-0.318-2.517-1.28-3.029-2.736c-0.503-1.428-0.715-2.925-0.953-4.408c-0.426-2.666-0.797-5.341-1.167-8.016
		c-0.195-1.418-0.362-2.84-0.499-4.266c-0.081-0.84,0.136-1.649,0.429-2.438c0.539-1.45,1.77-1.824,3.119-2.021
		c0.7-0.102,1.399-0.201,2.224-0.321c-0.088-2.19,0.113-4.349-0.156-6.485c-0.25-1.979,0.368-3.422,2.188-4.307
		c0.137-0.066,0.239-0.203,0.383-0.33c0.056-1.907-0.199-3.809-0.397-5.698c-0.125-1.187-0.223-2.385-0.314-3.565
		c-0.2-2.582-0.45-5.16-0.584-7.75c-0.171-3.31-0.262-6.621-0.469-9.928c-0.233-3.74-0.463-7.481-0.722-11.222
		c-0.237-3.42-0.479-6.84-0.724-10.26c-0.23-3.22-0.482-6.438-0.706-9.658c-0.249-3.576-0.685-7.141-0.886-10.718
		c-0.144-2.548-0.373-5.089-0.568-7.631c-0.261-3.405-0.603-6.806-1.098-10.195c-1.148-7.861-2.909-15.586-4.862-23.274
		c-0.262-1.031-0.551-2.056-0.829-3.089c-1.729-0.679-2.436-2.301-3.409-3.622c-3.876-5.26-7.708-10.553-11.275-16.031
		c-1.955-3.003-3.883-6.027-4.939-9.499c-0.394-1.294-0.686-2.611-0.684-3.979c0.001-0.682,0.001-1.349,0.345-1.976
		c0.27-0.492,0.243-0.987-0.071-1.384c-8.912,3.401-17.654,7.107-26.874,9.826c0.358,1.83-0.003,3.635,0.355,5.411
		c0.241,1.193-0.077,2.219-0.965,3.045c-0.882,0.82-1.107,1.806-1.163,3.002c-0.152,3.272-0.137,6.551-0.386,9.821
		c-0.176,2.309-0.17,4.633-0.234,6.946c-0.088,3.156-0.259,6.309-0.336,9.465c-0.131,5.351-0.429,10.697-0.651,16.046
		c-0.095,2.275-0.158,4.555-0.212,6.828c-0.081,3.396-0.278,6.788-0.344,10.185c-0.1,5.07-0.413,10.137-0.636,15.204
		c-0.012,0.279-0.045,0.56-0.037,0.839c0.102,3.44-0.219,6.869-0.303,10.305c-0.107,4.353-0.315,8.701-0.47,13.054
		c-0.152,4.312-0.307,8.623-0.477,12.935c-0.171,4.35-0.315,8.7-0.484,13.051c-0.166,4.271-0.316,8.543-0.476,12.813
		c-0.162,4.312-0.314,8.622-0.48,12.935c-0.168,4.391-0.318,8.781-0.487,13.172c-0.165,4.271-0.307,8.543-0.475,12.812
		c-0.17,4.352-0.313,8.702-0.485,13.053c-0.167,4.23-0.305,8.462-0.47,12.692c-0.171,4.392-0.319,8.783-0.49,13.175
		c-0.167,4.312-0.312,8.623-0.478,12.935c-0.165,4.271-0.308,8.543-0.475,12.812c-0.168,4.312-0.292,8.626-0.489,12.937
		c-0.156,3.391-0.166,6.786-0.415,10.174C177.92,396.24,177.28,396.24,176.64,396.24z M239.875,149.25
		c-0.196,0.375-0.121,0.642-0.052,0.909c1.812,6.985,3.413,14.013,4.535,21.147c0.494,3.142,0.931,6.285,1.174,9.458
		c0.091,1.191,0.183,2.384,0.277,3.576c0.207,2.622,0.482,5.238,0.644,7.862c0.086,1.393,0.243,2.779,0.312,4.175
		c0.127,2.586,0.511,5.16,0.63,7.746c0.127,2.751,0.437,5.486,0.565,8.238c0.055,1.189,0.096,2.395,0.229,3.58
		c0.329,2.936,0.452,5.886,0.648,8.828c0.117,1.75,0.236,3.504,0.33,5.256c0.161,2.99,0.438,5.975,0.428,8.973
		c-0.001,0.398,0.035,0.799,0.064,1.197c0.214,2.902,0.428,5.807,0.648,8.709c0.167,2.186,0.287,4.376,0.532,6.552
		c0.25,2.224,0.475,4.438,0.434,6.681c-0.013,0.676-0.167,1.342-0.053,2.029c0.188,1.143,0.726,1.697,1.867,1.771
		c0.998,0.064,1.996,0.14,2.995,0.154c7.437,0.114,14.874,0.217,22.311,0.319c0.195,0.003,0.399,0.016,0.588-0.153
		c-0.026-0.177-0.041-0.377-0.088-0.568c-0.567-2.282-0.802-4.605-1.006-6.948c-0.162-1.878-0.126-3.752-0.251-5.625
		c-0.159-2.39-0.272-4.783-0.429-7.175c-0.157-2.428-0.268-4.861-0.535-7.277c-0.285-2.571-0.52-5.146-0.872-7.713
		c-0.421-3.068-0.819-6.141-1.61-9.135c-1.146-4.338-1.932-8.746-2.717-13.153c-0.559-3.125-1.009-6.269-1.521-9.402
		c-0.532-3.249-1.082-6.496-1.622-9.744c-0.5-3.015-0.962-6.037-1.504-9.043c-0.745-4.137-1.528-8.268-2.335-12.393
		c-0.625-3.192-1.242-6.394-2.338-9.467c-1.946-5.455-3.865-10.918-5.588-16.45c-0.336-1.08-0.533-2.216-1.154-3.35
		c-4.506,3.41-9.241,6.259-14.767,7.791c2.705,4.205,3.862,8.837,5.66,13.21C243.928,156.453,242.15,152.735,239.875,149.25z
		 M237.018,144.964c2.725,0.144,5.054-0.798,7.351-1.783c4.663-2,8.706-4.972,12.537-8.244c1.792-1.53,3.542-3.111,5.28-4.702
		c5.014-4.587,9.907-9.294,14.087-14.68c1.688-2.174,3.252-4.444,4.188-7.051c0.902-2.516,0.969-5.12,0.637-7.781
		c-0.49-3.936-1.623-7.613-3.841-10.923c-0.438-0.656-0.899-1.309-1.663-1.775c-3.904,1.597-7.967,2.76-12.007,3.988
		c-1.881,0.572-3.488,1.514-4.89,2.892c-2.193,2.156-4.503,4.188-6.895,6.121c-7.467,6.031-15.734,10.644-24.795,13.81
		c-2.317,0.81-4.643,1.687-7.198,1.208c-0.406-0.076-0.876-0.005-1.251,0.244c-0.456,1.374-0.364,2.301,0.533,3.495
		c1.443,1.92,2.747,3.924,3.936,6.009c0.474,0.83,1.043,1.611,1.622,2.375c2.744,3.629,5.195,7.472,8.091,10.994
		C234.253,141.002,235.579,143,237.018,144.964z M188.151,120.802c-0.443-0.108-0.785-0.219-1.136-0.273
		c-2.136-0.332-3.532-1.626-4.349-3.525c-1.4-3.254-1.726-6.693-1.418-10.187c0.094-1.07,0.691-1.935,1.775-2.364
		c2.068-0.818,4.13-1.647,6.187-2.492c0.239-0.098,0.558-0.134,0.665-0.457c0-0.794-0.074-1.601,0.016-2.389
		c0.185-1.622,0.314-3.249,0.476-4.872c0.182-1.823,0.354-3.646,0.52-5.47c0.195-2.14,0.442-4.275,0.644-6.415
		c0.19-2.022,0.196-4.077,0.576-6.062c0.286-1.495-0.352-2.369-1.32-3.194c-1.943-1.656-4.302-2.199-6.759-2.292
		c-2.435-0.093-4.876-0.062-7.313-0.006c-1.506,0.035-3.003,0.226-4.463,0.673c-1.936,0.594-3.092,1.878-3.531,3.823
		c-0.43,1.904-0.505,3.858-0.726,5.791c-0.217,1.896-0.351,3.803-0.547,5.702c-0.203,1.976-0.457,3.946-0.652,5.923
		c-0.195,1.979-0.321,3.965-0.521,5.944c-0.284,2.81-0.635,5.612-0.909,8.423c-0.281,2.89-0.46,5.791-0.766,8.678
		c-0.36,3.402-0.737,6.802-0.982,10.215c-0.026,0.363-0.042,0.714,0.032,1.07c0.25,1.2,0.847,1.471,1.843,0.742
		c1.543-1.129,3.277-1.815,5.114-2.207c2.776-0.591,5.597-0.895,8.437-0.744c2.536,0.135,4.953,0.743,7.051,2.274
		c0.474,0.346,0.915,0.735,1.358,1.095c0.438-0.282,0.738-0.587,0.921-0.929C188.592,125.096,188.123,123.002,188.151,120.802z
		 M220.188,114.224c1.544,0.192,2.874-0.228,4.196-0.631c7.362-2.247,14.131-5.728,20.542-9.942c0.325-0.214,0.68-0.43,0.838-0.888
		c-0.869-3.168-1.776-6.365-2.618-9.58c-0.854-3.255-1.992-6.458-2.011-9.885c-0.001-0.158-0.036-0.317-0.288-0.472
		c-0.868,0.256-1.758,0.688-2.71,0.938c-2.008,0.528-3.951,1.263-5.903,1.973c-2.291,0.833-4.449,1.988-6.774,2.729
		c-2.018,0.643-4.011,1.344-5.921,2.269c-1.021,0.494-1.781,1.215-2.2,2.262c-0.372,0.928-0.589,1.893-0.642,2.903
		c-0.141,2.724,0.127,5.401,0.717,8.063C218.176,107.406,219.072,110.809,220.188,114.224z M214.96,93.478
		c-10.594,4.382-21.076,8.717-31.463,13.013c-0.36,0.798-0.357,1.511-0.402,2.23c-0.067,1.052,0.16,2.07,0.281,3.093
		c0.185,1.573,0.492,3.143,1.25,4.566c0.749,1.407,1.879,2.19,3.544,2.206c1.786,0.016,3.467-0.456,5.12-1.004
		c5.532-1.836,10.945-3.998,16.396-6.058c2.25-0.85,4.417-1.938,6.8-2.46c-0.01-0.209,0.019-0.419-0.034-0.605
		c-0.64-2.256-1.154-4.54-1.489-6.861c-0.289-2.009-0.601-4.007-0.208-6.058C214.869,94.949,215.155,94.329,214.96,93.478z
		 M257.226,137.389c1.46,4.8,2.936,9.452,4.523,14.071c0.979,2.852,2.182,5.626,2.958,8.547c2.104,7.912,3.35,15.997,4.77,24.044
		c0.897,5.079,1.608,10.191,2.463,15.278c0.914,5.438,1.877,10.871,2.863,16.299c0.262,1.438,0.506,2.896,1.107,4.423
		c0.316-1.355-0.105-2.482-0.163-3.632c-0.095-1.907-0.328-3.808-0.515-5.708c-0.215-2.179-0.448-4.355-0.658-6.535
		c-0.191-1.982-0.359-3.968-0.543-5.952c-0.217-2.339-0.451-4.677-0.657-7.018c-0.192-2.184-0.31-4.375-0.545-6.554
		c-0.28-2.571-0.489-5.149-0.879-7.709c-0.468-3.062-0.812-6.144-1.278-9.206c-0.497-3.257-1.074-6.502-1.62-9.752
		c-0.499-2.975-0.976-5.953-1.508-8.921c-0.756-4.215-1.539-8.426-2.341-12.633c-0.323-1.694-0.542-3.413-1.073-5.21
		C261.783,133.318,259.528,135.333,257.226,137.389z M260.322,74.896c-0.468-0.072-0.852,0.018-1.241,0.116
		c-3.029,0.769-5.952,1.82-8.743,3.235c-2.026,1.027-4.068,2.026-6.11,3.021c-0.811,0.395-1.169,0.985-1.13,1.909
		c0.061,1.477,0.262,2.931,0.635,4.352c1.015,3.869,2.069,7.728,3.117,11.588c0.222,0.819,0.334,1.677,0.731,2.448
		c0.419-0.065,0.646-0.289,0.905-0.474c1.428-1.016,2.729-2.192,4.186-3.181c1.148-0.779,2.128-1.848,2.575-3.223
		c0.493-1.515,0.912-3.057,1.294-4.604c1.117-4.518,2.065-9.078,3.589-13.489C260.302,76.099,260.56,75.551,260.322,74.896z
		 M290.723,287.219c-0.221-0.752,0.194-1.328,0.174-1.976c-0.021-0.679,0.019-1.358-0.01-2.036
		c-0.088-2.118-1.104-3.105-3.201-3.135c-1.156-0.016-2.317,0.022-3.473-0.043c-4.583-0.26-9.171-0.338-13.758-0.454
		c-1.346-0.034-2.457,0.433-3.51,1.229c-1.354,1.021-2.45,2.275-3.448,3.625c-0.528,0.715-1.215,1.342-1.427,2.319
		c0.262,0.024,0.456,0.06,0.65,0.06c2.156,0.002,4.311,0.03,6.465,0.154c1.349,0.078,2.705,0.205,4.047-0.148
		c2.295-0.604,4.547-0.554,6.729,0.486c0.281,0.135,0.59,0.194,0.911,0.243c2.421,0.367,4.854,0.254,7.283,0.222
		C288.984,287.753,289.802,287.598,290.723,287.219z M294.826,313.212c-0.424,1.103-0.504,2.202-0.68,3.293
		c-0.27,1.676-0.271,3.337,0.138,4.969c0.299,1.195,0.983,2.142,2.25,2.574c0.864,0.296,1.737,0.531,2.618,0.77
		c1.529,0.413,2.652-0.1,3.518-1.323c1.573-2.229,2.569-4.729,3.335-7.324c0.335-1.138,0.647-2.304,0.431-3.515
		c-0.228-1.256-0.595-2.483-1.172-3.613c-0.676-1.321-1.381-2.656-2.705-3.649c-0.463,1.268-0.631,2.476-0.902,3.656
		c-0.439,1.899-1.252,3.521-3.29,4.177C297.227,313.591,296.096,313.471,294.826,313.212z M290.109,297.105
		c-0.289,3.256-0.657,6.41,0.461,9.503c0.889,2.457,2.662,3.96,5.125,4.758c1.548,0.501,3.443-0.158,3.859-2.115
		c0.262-1.235,0.562-2.464,0.889-3.685c0.625-2.351,1.104-4.717,1.012-7.168c-0.03-0.801-0.154-1.551-0.654-2.287
		c-1.135,0.899-2.41,1.029-3.751,1.005C294.816,297.074,292.583,297.105,290.109,297.105z M308.598,315.053
		c-0.324,0.305-0.384,0.565-0.457,0.842c-0.714,2.695-1.768,5.261-3.152,7.676c-1.022,1.783-2.389,3.185-4.539,3.389
		c-0.741,1.357-0.84,2.915-0.271,3.804c1.667,2.608,3.777,3,6.208,1.1c1.858-1.454,3.554-3.096,5.13-4.848
		c1.041-1.155,1.646-2.489,1.491-4.136c-0.094-1.018-0.432-1.939-0.807-2.844C311.402,318.119,310.41,316.318,308.598,315.053z
		 M288.438,306.708c-2.443,2.785-4.752,5.286-7.242,7.669c3.666,3.169,7.111,6.367,11.457,8.687
		c-1.053-3.66-0.604-7.179,0.233-10.729C290.848,310.958,289.325,309.219,288.438,306.708z M249.858,279.434
		c-0.125,1.23,0.34,2.355,0.214,3.514c-0.11,1.005,0.245,1.975,0.248,2.975c0.001,0.521,0.35,0.836,0.855,0.773
		c2.355-0.289,4.7-0.057,7.043,0.119c0.907,0.066,1.472-0.221,1.949-1.01c1.262-2.082,2.759-3.99,4.542-5.664
		c0.189-0.178,0.451-0.365,0.188-0.857c-1.547,0-3.188,0.109-4.809-0.023c-2.953-0.24-5.904-0.099-8.855-0.15
		C250.779,279.1,250.384,279.29,249.858,279.434z M279.703,313.055c2.966-2.634,5.486-5.609,8.021-8.572
		c0.248-0.291,0.211-0.64,0.168-1.018c-0.177-1.508-0.216-3.018,0.062-4.523c0.106-0.584,0.093-1.18,0.012-1.809
		c-1.483-0.302-2.94-0.31-4.511-0.203c-1.123,5.116-3.415,9.686-6.589,13.846C277.812,311.581,278.609,312.352,279.703,313.055z
		 M281.645,268.082c-0.641,0.491-1.354,0.471-2.08,0.439c-8.063-0.338-16.136-0.158-24.201-0.444
		c-0.46-0.017-0.957-0.146-1.401,0.168c-0.055,0.55-0.198,1.104,0.15,1.596c1.085,0.356,26.865,0.813,28.113,0.494
		C282.189,269.589,282.566,268.757,281.645,268.082z M280.441,260.032c0.131-0.688-0.102-1.115-0.572-1.685
		C279.991,259.021,279.861,259.559,280.441,260.032z M298.159,327.112c-0.099-0.448-0.198-0.585-0.487-0.329
		C297.719,326.953,297.85,327.023,298.159,327.112z"/>
</g>
</svg>
