<?xml version="1.0" encoding="utf-8"?>
<!-- Generator: Adobe Illustrator 16.2.1, SVG Export Plug-In . SVG Version: 6.00 Build 0)  -->
<!DOCTYPE svg PUBLIC "-//W3C//DTD SVG 1.1//EN" "http://www.w3.org/Graphics/SVG/1.1/DTD/svg11.dtd">
<svg version="1.1" id="RS_x5F_straps03_xA0_Image_1_"
	 xmlns="http://www.w3.org/2000/svg" xmlns:xlink="http://www.w3.org/1999/xlink" x="0px" y="0px" width="528px" height="396px"
	 viewBox="0 0 528 396" enable-background="new 0 0 528 396" xml:space="preserve">
<g>
	<path d="M300,396.24c0.396-2.591,0.832-5.175,1.171-7.772c0.242-1.853,0.312-3.727,0.534-5.581c0.37-3.097,0.422-6.21,0.583-9.316
		c0.147-2.878,0.217-5.751-0.052-8.626c-0.158-1.708-0.129-3.427-0.258-5.141c-0.222-2.939-0.572-5.861-1.049-8.762
		c-0.666-4.066-1.635-8.073-2.945-11.989c-1.276-3.818-3.039-7.419-4.918-10.973c-8.91-16.844-17.444-33.881-26.021-50.896
		c-2.445-4.853-4.905-9.697-7.322-14.564c-0.377-0.76-0.861-1.254-1.65-1.584c-2.967-1.243-5.91-2.543-8.857-3.833
		c-0.253-0.11-0.476-0.274-0.813-0.101c0.624,1.023,1.395,1.935,2.007,2.953c2.213,3.688,3.651,7.631,4.242,11.904
		c1.457,10.541-1.425,19.881-7.979,28.085c-4.663,5.836-10.753,9.608-18.07,11.323c-4.182,0.979-8.431,1.335-12.697,1.053
		c-8.929-0.591-17.32-3.108-25.169-7.414c-0.346-0.189-0.67-0.425-1.1-0.509c-0.381,0.205-0.432,0.604-0.564,0.97
		c-2.299,6.35-4.811,12.605-7.818,18.661c-3.219,6.481-6.963,12.622-11.621,18.171c-3.477,4.144-7.401,7.839-11.676,11.156
		c-0.787,0.611-1.563,1.24-2.39,1.793c-0.919,0.614-1.318,1.446-1.514,2.521c-1.286,7.079-4.056,13.514-8.466,19.227
		c-5.784,7.493-13.49,11.878-22.613,13.889c-3.45,0.76-6.968,1.119-10.512,1.326c-2.411,0.142-4.805,0.107-7.181-0.106
		c-5.078-0.455-9.93-1.724-14.167-4.752c-0.247-0.176-0.452-0.438-0.98-0.396c1.25,3.133,2.478,6.209,3.705,9.285
		c-0.72,0-1.44,0-2.16,0c-2.973-7.714-5.874-15.468-10.372-22.472c-2.001-3.115-4.171-6.124-6.244-9.194
		c-4.825-7.146-8.843-14.689-11.317-22.999c-1.585-5.322-2.297-10.756-1.77-16.275c0.562-5.883,2.582-11.274,6.116-16.064
		c5.033-6.818,11.7-11.424,19.562-14.359c2.902-1.083,5.979-1.549,9.027-2.059c2.855-0.479,5.704-1.127,8.581-1.308
		c2.15-0.135,3.143-1.308,4.237-2.858c3.213-4.558,6.558-9.021,9.866-13.51c3.095-4.201,6.183-8.408,9.324-12.576
		c2.688-3.566,5.498-7.041,8.371-10.463c3.725-4.438,7.631-8.709,11.603-12.927c0.246-0.26,0.512-0.505,0.746-1.052
		c-3.632-5.541-7.332-11.184-11.084-16.906c-2.878,0.778-5.015-0.848-7.212-2.283c-0.333-0.219-0.653-0.459-0.971-0.697
		c-3.261-2.449-6.448-4.989-9.233-7.984c-2.517-2.706-4.593-5.688-5.719-9.268c-0.894-2.841-0.946-5.718-0.423-8.609
		c0.323-1.785,1.175-3.295,2.826-4.236c0.133-0.076,0.238-0.2,0.408-0.346c-0.567-1.406-1.115-2.806-1.693-4.192
		c-2.095-5.016-3.969-10.113-5.572-15.307c-0.914-2.961-1.639-5.972-1.959-9.06c-0.167-1.604,0.229-3.174,0.549-4.726
		c1.4-6.765,3.802-13.178,7.132-19.217c3.197-5.797,7.149-11.015,12.161-15.419c5.167-4.54,11.011-7.824,17.538-9.907
		c3.026-0.966,6.139-1.546,9.292-1.993c3.982-0.564,7.979-0.596,11.956-0.385c7.685,0.407,15.105,2.022,21.9,5.831
		c6.855,3.842,12.05,9.226,15.104,16.549c0.122,0.292,0.184,0.61,0.535,0.871c0.731-0.626,1.519-1.225,2.218-1.912
		c4.094-4.024,9.076-6.498,14.392-8.458c4.885-1.802,9.755-3.663,14.246-6.361c1.808-1.086,3.653-2.111,5.443-3.224
		c1.652-1.027,3.482-1.341,5.357-1.393c1.361-0.037,2.701-0.214,4.049-0.316c0.287-0.417,0.182-0.875,0.147-1.292
		c-0.204-2.461-0.471-4.917-0.659-7.378c-0.088-1.152-0.165-2.306-0.256-3.458c-0.224-2.819-0.457-5.637-0.704-8.454
		c-0.291-3.313,0.018-6.582,1.024-9.789c1.394-4.442,3.329-8.661,5.165-12.922c0.221-0.513,0.302-1.002,0.296-1.589
		c-0.018-1.763-0.262-3.506-0.303-5.266c-0.113-4.793-0.225-9.589-0.505-14.374c-0.158-2.698,1.197-4.381,3.245-5.669
		c2.146-1.35,4.557-1.937,7.07-2.299c2.818-0.406,5.462,0.054,8.057,1.051c1.16,0.446,2.224,1.077,3.08,2.015
		c0.592,0.65,0.916,1.379,0.885,2.273c-0.027,0.835-0.006,1.672-0.006,2.519c0.49,0.08,0.803-0.222,1.117-0.419
		c3.696-2.314,7.77-3.522,12.026-4.303c4.315-0.791,8.655-0.695,13.001-0.679c0.08,0,0.169-0.017,0.238,0.012
		c1.484,0.61,2.299-0.185,3.138-1.305c5.42-7.242,10.896-14.441,16.347-21.661c3.842-5.088,7.668-10.188,11.5-15.284
		c0.165-0.219,0.428-0.367,0.487-0.663c0.8,0,1.601,0,2.399,0c-1.115,1.797-2.489,3.403-3.76,5.086
		c-5.596,7.417-11.177,14.845-16.775,22.258c-6.543,8.662-13.1,17.313-19.648,25.969c-5.102,6.741-10.204,13.479-15.302,20.223
		c-4.711,6.233-9.399,12.483-14.142,18.692c-0.537,0.704-0.58,1.335-0.379,2.1c0.314,1.186,0.608,2.378,0.916,3.566
		c0.414,1.604,0.832,3.208,1.246,4.806c0.84-0.01,1.524,0.375,2.314,0.295c1.477-0.148,2.895-0.355,4.249-1.065
		c0.899-0.471,1.586-1.202,2.459-1.671c1.511-0.813,2.625-2.052,3.713-3.33c2.64-3.099,5.284-6.193,7.931-9.287
		c2.567-3.002,5.149-5.993,7.709-9.002c3.775-4.442,7.522-8.909,11.311-13.342c5.085-5.952,10.197-11.88,15.294-17.821
		c4.059-4.73,8.106-9.467,12.166-14.197c3.692-4.304,7.394-8.602,11.089-12.904c3.199-3.726,6.396-7.453,9.59-11.182
		c2.623-3.062,5.24-6.13,7.859-9.194c0.801,0,1.601,0,2.4,0c-0.238,0.895-1.016,1.402-1.562,2.052
		c-3.056,3.636-6.188,7.206-9.278,10.814c-4.023,4.701-8.023,9.423-12.048,14.124c-3.583,4.186-7.19,8.35-10.776,12.531
		c-2.861,3.333-5.707,6.676-8.556,10.019c-0.101,0.118-0.155,0.273-0.25,0.445c1.522,2.098,3.104,4.139,4.578,6.26
		c4.371,6.285,8.185,12.888,11.581,19.744c4.754,9.598,8.212,19.66,10.961,29.992c1.456,5.472,2.814,10.964,3.943,16.511
		c0.688,3.378,1.289,6.772,1.816,10.181c0.497,3.215,0.866,6.445,1.255,9.71c1.355,0.544,2.747,0.918,4.136,1.106
		c2.53,0.342,4.568,1.571,6.434,3.161c4.939,4.216,9.249,9.031,13.271,14.115c1.889,2.388,4.156,4.419,6.284,6.584
		c3.218,3.275,6.626,6.367,9.581,9.899c1.791,2.142,2.646,4.673,3.179,7.353c0.829,4.179,0.867,8.412,0.661,12.633
		c-0.153,3.172-0.594,6.327-1.081,9.477c-0.768,4.97-1.128,9.986-0.966,15.021c0.096,2.953,0.176,5.913,0.457,8.852
		c0.344,3.57,0.546,7.15,0.87,10.723c0.17,1.867,0.196,3.756,0.229,5.627c0.054,3.279,0.229,6.553,0.348,9.826
		c0.114,3.145,0.354,6.289,0.61,9.432c0.355,4.371,1.466,8.598,2.174,12.897c0.488,2.976,0.916,5.965,1.294,8.961
		c0.368,2.925,0.622,5.858,0.854,8.792c0.202,2.546,0.205,5.116,0.125,7.671c-0.05,1.588-0.029,3.182-0.246,4.779
		c-0.262,1.936-0.619,3.829-1.156,5.702c-0.594,2.065-0.933,4.175-1.08,6.326c-0.364,5.308-0.258,10.624-0.467,15.935
		c-0.148,3.815-0.485,7.61-1.879,11.231c-1.827,4.754-5.219,7.697-10.164,8.842c-2.176,0.503-4.383,0.777-6.625,0.749
		c-2.399-0.031-4.807,0.093-7.199-0.044c-3.584-0.205-7.176-0.283-10.752-0.645c-1.469-0.146-2.949-0.128-4.424-0.212
		c-2.787-0.159-5.574-0.327-8.356-0.558c-5.22-0.433-10.32-1.324-14.938-4.024c-2.967-1.735-5.701-3.8-8.435-5.865
		c-3.119-2.355-6.401-4.465-9.728-6.513c-0.543-0.335-1.022-0.417-1.664-0.178c-4.217,1.581-8.311,3.382-12.021,5.988
		c-1.946,1.367-3.448,3.06-4.302,5.104c-0.428,0.385-0.815,0.18-1.133,0.287c-0.207,0.219-0.153,0.477-0.121,0.699
		c0.201,1.376,0.309,2.77,0.537,4.135c0.205,1.227,0.252,2.464,0.353,3.684c0.407,4.982,0.412,9.986,0.252,14.98
		c-0.103,3.225-0.373,6.448-0.698,9.66c-0.38,3.713-0.891,7.412-1.486,11.099c-0.019,0.113-0.103,0.216-0.154,0.323
		C301.279,396.24,300.641,396.24,300,396.24z M113.131,360.862c0.22-0.184,0.456-0.106,0.689-0.071
		c1.404,0.214,2.599,0.834,3.759,1.663c2.723,1.948,5.747,2.999,9.162,2.873c1.445-0.053,2.845-0.31,4.258-0.521
		c4.546-0.683,8.808-2.266,12.887-4.308c4.43-2.218,8.403-5.153,12.327-8.162c4.488-3.44,8.593-7.284,12.209-11.618
		c4.46-5.346,8.047-11.271,11.125-17.505c3.395-6.88,6.157-14.017,8.679-21.257c2.582-7.416,4.901-14.911,7.03-22.465
		c1.784-6.329,3.442-12.691,4.98-19.087c1.344-5.588,2.665-11.178,3.797-16.812c0.979-4.875,2.252-9.66,4.458-14.148
		c0.074-0.15,0.109-0.297-0.06-0.455c-0.902,0.316-1.524,1.248-2.729,1.326c0.839-1.193,1.597-2.295,2.385-3.371
		c0.157-0.217,0.417-0.369,0.652-0.515c2.716-1.669,5.5-3.214,8.33-4.68c4.128-2.138,8.475-3.806,12.599-5.957
		c3.786-1.976,6.98-4.575,9.302-8.201c1.547-2.415,2.85-4.96,4.119-7.524c1.18-2.384,2.304-4.797,3.487-7.182
		c0.293-0.59,0.562-1.247,1.261-1.521c1.526-0.6,3.108-1.055,4.667-1.972c-0.653,1.027-1.774,1.194-2.415,2.043
		c0.179,0.034,0.3,0.096,0.4,0.071c5.037-1.243,9.888-2.932,14.172-5.963c1.987-1.406,3.981-2.807,5.481-4.775
		c0.894-1.173,1.6-2.445,1.289-3.961c-0.479-2.353-1.38-4.542-2.961-6.4c-0.289-0.34-0.638-0.637-1.078-0.715
		c-1.172-0.208-2.334-0.521-3.537-0.499c-3.637,0.07-7.191,0.779-10.715,1.578c-2.783,0.631-5.518,1.146-8.397,0.654
		c-1.441-0.247-2.947-0.215-4.416,0.101c-0.515,0.11-1.056,0.106-1.616-0.003c0.193-0.5,0.53-0.592,0.899-0.625
		c1.743-0.155,3.465-0.448,5.193-0.709c2.98-0.451,5.933-1.047,8.898-1.578c4.257-0.762,8.486-1.853,12.874-1.091
		c0.186,0.032,0.387-0.03,0.566-0.048c0.269-0.362,0.399-0.748,0.446-1.132c0.47-3.857,0.522-7.715-0.257-11.539
		c-0.493-2.417-1.496-4.483-4.273-4.946c-0.9-0.15-1.795-0.351-2.721-0.352c-2.922,0-5.779,0.493-8.623,1.093
		c-2.636,0.556-5.181,1.507-7.849,1.893c-1.931,0.28-3.909,0.259-5.821,0.667c-2.084,0.444-4.128,0.698-6.247,0.161
		c-1.521-0.385-3.095-0.562-4.721-0.845c0.255-0.438,0.568-0.534,0.935-0.54c2.916-0.042,5.823-0.248,8.729-0.473
		c2.22-0.172,4.424-0.453,6.608-0.87c4.51-0.862,8.864-2.462,13.473-2.849c2.666-0.224,5.327-0.368,7.916,0.584
		c0.824,0.303,1.502,0.854,2.324,1.265c0.299-0.393,0.465-0.769,0.565-1.209c0.369-1.596-0.101-3.063-0.62-4.531
		c-0.264-0.745-0.656-1.43-0.863-2.208c-0.483-1.812-0.601-3.679-0.92-5.515c-0.373-2.128-0.921-4.192-2.039-6.058
		c-0.915-1.526-2.155-2.581-4.003-2.933c-1.891-0.36-3.727-0.171-5.567,0.175c-3.604,0.679-7.031,1.934-10.392,3.357
		c-5.323,2.254-10.761,4.151-16.39,5.476c-3.07,0.723-6.235,0.91-9.32,1.564c-0.169,0.036-0.309-0.043-0.398-0.203
		c0.038-1.154,0.555-1.123,1.718-1.362c5.437-1.118,10.763-2.62,16.03-4.356c3.849-1.268,7.512-3.009,11.324-4.364
		c3.409-1.213,6.833-2.347,10.512-2.417c2.156-0.042,4.254,0.179,5.989,1.567c0.822,0.658,1.475,0.731,2.356,0.21
		c0.959-0.566,1.989-1.01,2.987-1.509c0.555-0.277,1.088-0.345,1.457,0.269c0.338,0.562,0.063,0.986-0.405,1.317
		c-0.193,0.135-0.421,0.226-0.512,0.566c1.636,1.122,3.461,1.871,5.396,2.353c2.644,0.658,5.107,0.23,7.427-1.225
		c3.287-2.063,3.422-7.056,0.344-8.836c-1.711-0.988-3.155-2.426-4.745-3.628c-1.78-1.346-3.586-2.659-5.39-3.975
		c-0.316-0.231-0.664-0.585-1.057-0.493c-0.839,0.198-1.339-0.338-1.896-0.769c-1.058,0.078-2.076,0.001-3.121,0.182
		c-1.838,0.318-3.699,0.617-5.58,0.538c-3.745-0.158-7.489-0.264-11.238-0.24c-1.045,0.007-2.052,0.349-3.1,0.252
		c-0.904-0.083-1.744,0.173-2.529,0.574c-1.063,0.542-2.136,1.083-3.135,1.729c-5.235,3.389-10.892,5.875-16.718,8.042
		c-4.661,1.733-9.292,3.547-13.08,6.962c-2.045,1.845-4.195,3.577-5.946,5.722c-2.737,3.354-4.413,7.263-5.715,11.331
		c-2.233,6.976-4.007,14.089-6.233,21.071c-2.379,7.462-5.037,14.807-8.557,21.815c-2.519,5.013-5.331,9.869-8.005,14.797
		c-4.081,7.521-8.245,14.996-13.075,22.072c-2.294,3.361-4.738,6.605-7.535,9.582c-1.941,2.066-3.932,4.082-5.872,6.146
		c-2.215,2.358-4.386,4.76-6.547,7.17c-3.546,3.952-6.91,8.061-10.188,12.235c-4.038,5.144-7.82,10.478-11.725,15.719
		c-4.69,6.298-9.45,12.546-13.637,19.199c-3.224,5.122-6.025,10.462-7.907,16.233c-0.628,1.928-1.446,3.768-2.168,5.649
		c-0.845-0.065-1.163-0.498-1.059-1.273c0.042-0.315,0.107-0.622,0.183-0.935c1.11-4.582,2.9-8.904,4.957-13.129
		c0.163-0.334,0.495-0.63,0.309-1.1c-2.247-0.191-4.395,0.285-6.431,1.062c-3.379,1.292-6.742,2.66-9.667,4.871
		c-0.245,0.187-0.488,0.397-0.821,0.37c-0.652-0.569-0.573-1.122,0.003-1.64c0.385-0.346,0.795-0.666,1.218-0.963
		c3.706-2.607,7.677-4.61,12.187-5.429c1.648-0.299,3.304-0.438,4.955-0.424c1.099-1.86,2.156-3.651,3.31-5.604
		c-0.795,0.052-1.355,0.045-1.9,0.131c-2.821,0.443-5.645,0.875-8.455,1.382c-2.688,0.483-5.397,0.937-7.961,1.911
		c-6.761,2.57-12.537,6.55-17.157,12.157c-4.155,5.044-6.368,10.878-6.85,17.337c-0.327,4.389,0.211,8.729,1.324,13.004
		c2.181,8.372,6.109,15.917,10.814,23.1c2.705,4.128,5.723,8.047,8.213,12.317c0.957,1.643,2.123,3.191,2.951,4.866
		c1.648,3.332,4.085,5.737,7.287,7.471c3.71,2.007,7.759,2.859,11.901,3.086c4.179,0.229,8.358,0.026,12.524-0.622
		c3.587-0.561,7.083-1.355,10.457-2.688c5.886-2.325,10.763-6.03,14.659-10.979c3.946-5.013,6.421-10.75,7.887-16.938
		c0.069-0.293,0.118-0.598-0.128-0.963c-3.024,2.118-6.203,3.84-9.409,5.522c-3.176,1.666-6.048,3.837-9.163,5.615
		c-5.545,3.164-11.106,6.213-17.656,6.785c-2.877,0.252-5.756,0.31-8.613,0.058c-2.994-0.265-5.941-0.91-8.821-1.839
		c-4.549-1.468-8.711-3.652-12.514-6.532c-0.395-0.3-0.827-0.621-0.774-1.202c0.278-0.168,0.432,0.026,0.594,0.1
		c3.236,1.464,6.459,2.956,9.703,4.402c4.597,2.049,9.441,3.062,14.455,3.231c1.87,0.062,3.742,0.04,5.62-0.183
		c2.496-0.296,4.931-0.787,7.301-1.604c2.872-0.99,5.463-2.56,8.115-3.997c1.11-0.604,2.259-1.16,3.439-2.15
		c-1.252,0.244-2.253,0.448-3.257,0.632c-2.477,0.454-4.94,0.711-7.464,0.203c-3.59-0.721-6.55-2.583-9.325-4.833
		C113.557,361.88,113.12,361.499,113.131,360.862z M318.947,338.791c-0.033-0.414-0.274-0.442-0.436-0.529
		c-3.072-1.666-6.164-3.296-9.359-4.723c-0.436-0.194-0.879-0.392-1.268-0.663c-0.338-0.238-0.535-0.621-0.343-1.052
		c0.173-0.39,0.476-0.623,0.94-0.613c0.377,0.008,0.691,0.187,1.013,0.332c1.338,0.613,2.68,1.223,3.995,1.882
		c6.379,3.2,12.556,6.735,18.333,10.949c2.573,1.877,5.082,3.843,7.745,5.597c3.891,2.562,8.137,4.067,12.771,4.547
		c1.822,0.188,3.646,0.346,5.469,0.524c3.219,0.317,6.448,0.428,9.674,0.61c2.109,0.119,4.229,0.23,6.338,0.357
		c1.714,0.104,3.432,0.089,5.144,0.223c4.388,0.342,8.765,0.342,13.104-0.531c4.61-0.928,7.663-3.626,9.232-8.051
		c1.241-3.497,1.476-7.155,1.628-10.798c0.188-4.511-0.029-9.031,0.264-13.547c0.172-2.662,0.389-5.31,1.146-7.874
		c0.976-3.302,1.483-6.665,1.518-10.104c0.034-3.795-0.093-7.578-0.437-11.363c-0.285-3.13-0.64-6.25-1.052-9.361
		c-0.604-4.559-1.627-9.047-2.429-13.572c-0.5-2.825-0.692-5.684-0.885-8.541c-0.146-2.191-0.173-4.393-0.305-6.581
		c-0.295-4.905-0.321-9.819-0.626-14.726c-0.165-2.666-0.379-5.33-0.573-7.994c-0.267-3.662-0.604-7.318-0.645-10.989
		c-0.033-2.914-0.062-5.827,0.189-8.743c0.164-1.902,0.288-3.816,0.599-5.693c0.397-2.408,0.134-4.673-0.885-6.853
		c-1.641-3.516-4.524-5.459-8.224-6.281c-7.466-1.659-14.948-3.23-22.514-4.375c-2.841-0.43-5.069,0.538-6.78,2.807
		c-1.4,1.858-2.301,4.002-3.396,6.031c-1.117,2.068-2.529,3.964-3.489,6.121c-1.271,2.856-0.946,4.962,1.337,7.136
		c2.93,2.789,6.301,5.014,9.66,7.239c0.566,0.375,1.273,0.515,1.943,0.484c1.709-0.077,2.363-0.798,2.291-2.235
		c-0.053-0.994-0.035-1.984-0.266-2.967c-0.378-1.613-0.807-3.202-1.576-4.6c-0.426-0.133-0.624,0.109-0.857,0.244
		c-1.008,0.582-2.082,0.979-3.228,1.192c-0.994,0.185-1.153,0.089-1.499-0.96c0.244-0.616,0.754-0.839,1.372-0.993
		c1.57-0.394,3.011-1.048,4.021-2.389c0.736-0.98,1.061-2.027,0.424-3.206c-0.168-0.311-0.297-0.641-0.379-0.996
		c-0.135-0.589-0.032-1.055,0.561-1.249c0.574-0.188,1.041,0.045,1.247,0.622c0.519,1.449,1.621,2.335,2.911,3.018
		c2.031,1.076,4.018,2.26,6.273,2.854c-0.523,1.169-0.817,1.316-1.944,1.011c-2.265-0.614-4.398-1.536-6.447-2.81
		c-0.237,0.486-0.415,0.926-0.657,1.324c-0.307,0.498-0.283,0.948-0.021,1.463c1.249,2.437,1.907,5.062,2.114,7.763
		c0.192,2.495-0.849,4.334-3.314,4.78c-1.511,0.274-3.023,0.043-4.343-0.883c-1.369-0.959-2.739-1.918-4.112-2.871
		c-0.318-0.222-0.593-0.547-1.018-0.494c-0.334,0.152-0.488,0.449-0.715,0.672c-1.974,1.939-3.871,1.928-5.82-0.023
		c-0.943-0.943-1.625-2.062-2.238-3.23c-1.111-2.117-2.248-4.219-3.722-6.117c-1.998-2.573-3.402-5.43-4.062-8.792
		c-1.195,0.791-2.324,1.538-3.512,2.323c0.977,1.158,1.919,2.238,2.639,3.482c1.52,2.626,2.803,5.321,3.215,8.396
		c0.314,2.332,0.379,4.68,0.617,7.017c0.437,4.317,2.092,8.038,5.016,11.209c3.088,3.349,6.191,6.683,9.304,10.007
		c0.304,0.324,0.536,0.778,1.093,0.907c-0.011-2.663,0.252-5.235,0.739-7.782c0.655-3.43,1.847-6.648,3.875-9.521
		c0.692-0.98,1.287-1.214,1.826-0.781c0.503,0.403,0.448,0.956-0.22,1.896c-1.492,2.101-2.449,4.433-3.121,6.908
		c-0.787,2.903-0.996,5.877-1.129,8.854c-0.084,1.871,0.006,3.747,1.035,5.427c0.144,0.234,0.229,0.506,0.325,0.766
		c2.181,5.859,5.597,10.871,10.261,15.039c3.819,3.414,8.398,4.881,13.403,5.205c1.947,0.127,3.754-0.676,5.608-1.127
		c1.006-0.246,1.941-0.703,3.01-1.359c-0.131,0.386-0.145,0.518-0.212,0.604c-0.124,0.152-0.274,0.285-0.427,0.413
		c-3.291,2.787-7.185,3.545-11.308,3.038c-4.331-0.533-8.118-2.438-11.387-5.325c-4.494-3.973-7.821-8.792-10.235-14.265
		c-0.078-0.182-0.057-0.521-0.492-0.444c-0.675,2.322-1.347,4.673-2.039,7.019c-1.561,5.283-3.35,10.488-5.289,15.646
		c-1.053,2.805-2.85,5.232-3.82,8.072c-0.854,2.492-1.66,5.013-2.109,7.593c-0.421,2.422-0.859,4.851-1.087,7.313
		c-0.272,2.978-0.624,5.946-0.651,8.938c-0.055,5.826-0.209,11.658,0.662,17.452c0.092,0.604-0.322,1.246-0.806,1.299
		c-0.625,0.068-0.94-0.334-1.13-0.861c-0.066-0.185-0.113-0.382-0.135-0.577c-0.404-3.649-0.641-7.315-0.697-10.983
		c-0.085-5.468,0.213-10.922,0.904-16.354c0.346-2.717,0.787-5.406,1.391-8.08c0.223-0.987,0.714-1.949,0.561-3.049
		c-0.342-0.324-0.67-0.674-1.037-0.977c-4.562-3.768-9.49-6.979-14.803-9.577c-5.574-2.729-11.267-5.101-17.552-5.702
		c-3.476-0.332-6.942-0.357-10.385,0.104c-3.942,0.531-7.769,1.598-11.438,3.16c-1.277,0.543-2.604,0.801-3.961,0.588
		c-1.209-0.188-2.404-0.504-3.582-0.842c-6.068-1.744-11.91-4.119-17.785-6.399c-1.756-0.683-3.506-1.38-5.48-2.158
		c0.301,0.649,0.485,1.075,0.693,1.488c4.118,8.182,8.217,16.372,12.362,24.541c6.629,13.062,13.157,26.177,20.098,39.078
		c2.988,5.557,5.229,11.384,6.65,17.525c0.344,1.482,0.633,2.979,0.943,4.449c0.435-0.01,0.428-0.326,0.521-0.513
		c0.62-1.229,1.496-2.243,2.516-3.158c2.676-2.402,5.816-4.04,9.043-5.532C316.189,339.956,317.581,339.384,318.947,338.791z
		 M127.994,192.251c-0.591,0.008-0.977-0.303-1.41-0.496c-1.666-0.741-3.292-1.577-5.081-2.016
		c-2.561-0.628-4.225,0.331-4.794,2.891c-0.481,2.164-0.457,4.346,0.022,6.519c0.794,3.606,2.726,6.588,5.159,9.276
		c2.366,2.615,5.037,4.903,7.823,7.052c1.697,1.309,3.396,2.625,5.367,3.535c1.147,0.53,2.217,0.499,3.279-0.164
		c0.68-0.424,1.278-0.943,1.855-1.5c1.23-1.187,2.211-2.572,3.173-3.979c0.495,0.735,0.292,1.429,0.047,2.108
		c-0.672,1.861-1.686,3.489-3.491,4.656c3.686,5.612,7.295,11.107,10.958,16.686c1.785-1.719,3.304-3.379,4.735-5.154
		c-0.261-0.281-0.417-0.459-0.583-0.626c-3.808-3.825-7.618-7.649-11.427-11.474c-0.169-0.17-0.347-0.332-0.512-0.506
		c-0.389-0.412-0.616-0.881-0.188-1.371c0.464-0.531,0.99-0.379,1.472,0.016c0.34,0.277,0.679,0.559,0.994,0.863
		c3.644,3.535,7.188,7.168,10.727,10.808c0.243,0.249,0.414,0.606,0.907,0.569c0.562-0.459,0.949-1.115,1.395-1.715
		c3.933-5.275,7.34-10.889,10.601-16.596c2.861-5.01,5.508-10.141,8.375-15.144c4.917-8.579,8.929-17.537,12.004-26.934
		c2.525-7.717,4.575-15.572,6.944-23.334c1.197-3.922,2.739-7.703,5.062-11.118c0.602-0.884,1.271-1.723,1.888-2.552
		c-0.367-0.952-0.658-1.859-1.056-2.718c-3.301-7.137-8.681-12.2-15.671-15.645c-6.773-3.337-14.045-4.456-21.485-4.74
		c-3.551-0.136-7.088,0.167-10.612,0.663c-3.549,0.5-6.995,1.37-10.342,2.633c-10.111,3.815-17.768,10.61-23.61,19.568
		c-3.651,5.599-6.298,11.667-8.17,18.073c-0.645,2.207-1.218,4.444-1.461,6.735c-0.26,2.445,0.183,4.843,0.795,7.202
		c2.057,7.93,5.116,15.499,8.292,23.052c0.229,0.082,0.447,0.216,0.675,0.233c2.292,0.172,4.255,1.217,6.198,2.314
		c0.417,0.235,0.816,0.5,1.155,0.849C128.467,191.25,128.549,191.724,127.994,192.251z M348.863,282.511
		c1.466-3.711,3.359-7.114,4.738-10.76c2.793-7.39,5.018-14.95,7.142-22.549c0.342-1.224,0.026-2.142-0.714-3.066
		c-1.575-1.967-3.305-3.794-5.012-5.641c-2.359-2.552-4.851-4.983-7.082-7.652c-2.854-3.413-4.256-7.413-4.701-11.778
		c-0.203-1.979-0.245-3.974-0.467-5.955c-0.479-4.327-2.473-7.92-5.281-11.129c-0.403-0.463-0.887-0.801-1.562-0.711
		c-0.415,0.055-0.784-0.104-1.135-0.312c-3.896-2.323-7.886-4.51-11.67-7.002c-5.578-3.673-11.649-6.098-18.052-7.812
		c-1.529-0.409-3.051-0.798-4.631-1.036c-1.729-0.26-2.679-1.637-3.27-3.193c-0.932-2.451-1.182-5.037-1.214-7.62
		c-0.115-8.997,0-17.994,0.219-26.989c0.029-1.2,0.08-2.396,0.167-3.593c0.066-0.932,0.014-1.873,0.014-2.979
		c-4.588,2.639-9.019,5.187-13.453,7.738c0.732,1.318,0.72,2.652,0.738,3.943c0.027,2.119,0.188,4.234,0.334,6.339
		c0.232,3.344,0.409,6.693,0.598,10.038c0.203,3.585,0.459,7.17,0.59,10.762c0.055,1.51,0.076,3.036,0.23,4.542
		c0.352,3.455,0.422,6.926,0.637,10.389c0.127,2.069,0.27,4.143,0.346,6.218c0.051,1.391,0.064,2.797,0.211,4.183
		c0.35,3.338,0.439,6.691,0.628,10.035c0.201,3.585,0.455,7.171,0.588,10.764c0.058,1.51,0.13,3.029,0.226,4.543
		c0.219,3.502,0.518,7.002,0.654,10.508c0.08,2.033,0.238,4.064,0.334,6.098c0.069,1.473,0.117,2.95,0.213,4.424
		c0.229,3.544,0.514,7.085,0.656,10.633c0.077,1.916,0.396,3.818,0.279,5.743c-0.014,0.214,0.094,0.382,0.333,0.515
		c0.224-0.041,0.497-0.07,0.757-0.146c0.266-0.075,0.521-0.188,0.777-0.295c4.316-1.774,8.791-2.997,13.427-3.479
		c2.567-0.268,5.153-0.371,7.771-0.109c3.377,0.336,6.684,0.881,9.894,1.962c8.214,2.767,15.771,6.783,22.661,12.043
		C346.791,280.891,347.789,281.677,348.863,282.511z M357.109,142.075c0.072-0.931-0.088-1.86-0.178-2.807
		c-0.291-3.09-0.785-6.152-1.305-9.205c-0.844-4.964-1.869-9.896-3.05-14.793c-2.085-8.648-4.368-17.243-7.53-25.567
		c-4.704-12.383-10.896-23.98-18.727-34.682c-0.768-1.049-1.482-2.161-2.456-3.042c-0.3,0.088-0.454,0.275-0.608,0.455
		c-3.845,4.494-7.684,8.993-11.535,13.481c-0.402,0.47-0.507,0.969-0.388,1.554c0.255,1.256,0.235,2.541,0.378,3.811
		c0.33,2.967,0.746,5.92,1.35,8.84c0.556,2.677,1.252,5.324,1.857,7.991c0.546,2.404,0.87,4.844,1.201,7.286
		c0.333,2.445,0.674,4.887,0.918,7.343c0.156,1.586,0.357,3.167,0.535,4.75c0.219,1.939,0.455,3.877,0.645,5.819
		c0.202,2.063,0.348,4.132,0.535,6.197c0.294,3.215,0.668,6.424,0.885,9.645c0.174,2.547,0.354,5.096,0.564,7.638
		c0.355,4.298,0.609,8.602,0.855,12.903c0.211,3.707,0.375,7.424,0.307,11.146c-0.073,4.021-1.01,7.803-2.93,11.323
		c-2.719,4.984-6.733,8.768-11.312,12.011c-0.771,0.546-1.554,1.079-2.356,1.638c0.359,0.312,0.695,0.377,1.034,0.479
		c4.562,1.365,9.158,2.666,13.33,5.026c3.327,1.883,6.55,3.952,9.83,5.917c2.353,1.411,4.726,2.784,6.931,4.081
		c2.73-0.533,4.48-2.367,6.446-3.847c0.175-0.132,0.312-0.389,0.354-0.61c0.17-0.87,0.615-1.629,0.927-2.416
		c-1.365-1.646-2.72-3.265-4.056-4.897c-0.582-0.711-1.084-1.482-1.492-2.308c-1.184-2.391-1.287-4.781-0.143-7.241
		c0.985-2.115,2.547-3.762,4.157-5.364c3.004-2.989,6.077-5.909,9.094-8.886c1.39-1.371,2.81-2.719,4.029-4.304
		c-0.978-0.643-2.026-0.983-3.058-1.359c-1.492-0.545-3-0.638-4.573-0.313c-3.459,0.713-6.847,1.743-10.388,2.099
		c-4.408,0.443-8.097-0.752-10.974-4.222c-1.959-2.364-1.614-4.9,0.636-6.836c1.469-1.264,3.184-2.112,4.92-2.924
		c5.205-2.432,10.664-4.095,16.268-5.291c2.338-0.499,4.697-0.878,7.111-0.531C355.771,142.15,356.411,142.075,357.109,142.075z
		 M238.401,252.254c-0.203,0.46,0.073,0.709,0.21,0.971c2.159,4.127,4.178,8.317,5.989,12.61c0.465,1.101,0.522,2.228,0.534,3.39
		c-0.518-0.959-0.941-1.939-1.33-2.936c-0.746-1.909-1.75-3.676-2.981-5.307c-0.521-0.689-1.149-1.268-1.547-2.082
		c-4.511-9.246-9.841-18.017-15.54-26.566c-0.401-0.602-0.683-1.333-1.354-1.755c-0.533,0.526-0.727,1.192-1.029,1.785
		c-0.875,1.717-2.104,3.06-3.781,4.036c-1.927,1.123-3.893,2.168-5.936,3.051c-1.626,0.701-3.181,1.626-5.067,1.837
		c-4.306,20.67-9.547,41.086-16.34,60.978c0.324,0.403,0.612,0.539,0.883,0.7c2.874,1.726,5.948,3.015,9.083,4.168
		c4.528,1.668,9.208,2.728,14.004,3.163c3.297,0.301,6.608,0.258,9.917-0.161c2.452-0.311,4.862-0.757,7.186-1.576
		c6.029-2.124,10.94-5.79,14.787-10.89c3.976-5.27,6.236-11.232,6.834-17.766c0.278-3.043,0.203-6.133-0.425-9.174
		c-1.042-5.047-3.117-9.575-6.565-13.437c-0.515-0.576-0.958-1.161-0.943-1.983C242.76,254.277,240.585,253.268,238.401,252.254z
		 M248.191,193.993c-0.434,0.882-0.858,1.694-1.238,2.526c-1.717,3.76-3.518,7.477-5.659,11.021
		c-1.922,3.181-4.264,5.954-7.421,8.004c-2.209,1.435-4.497,2.713-6.91,3.756c-0.734,0.317-1.13,0.765-1.349,1.507
		c-0.549,1.861-1.154,3.709-1.728,5.564c-0.231,0.748-0.686,1.429-0.714,2.287c0.798,0.451,1.261,1.195,1.749,1.918
		c3.878,5.742,7.548,11.615,10.937,17.66c0.351,0.625,0.791,1.062,1.437,1.358c5.382,2.468,10.726,5.022,16.18,7.325
		c2.071,0.874,4.017,2.105,6.313,2.403c0.186,0.024,0.396,0.137,0.524,0.274c0.63,0.672,1.492,0.908,2.302,1.211
		c1.142,0.426,2.208,1.073,3.433,1.262c0.217-0.424,0.112-0.829,0.122-1.223c0.075-3.201-0.364-6.388-0.245-9.59
		c0.021-0.599,0.027-1.203-0.029-1.799c-0.369-3.866-0.235-7.75-0.395-11.624c-0.206-5.028-0.32-10.063-0.466-15.099
		c-0.171-5.912-0.368-11.825-0.492-17.738c-0.092-4.396-0.396-8.788-0.315-13.189c0.021-1.103-0.163-2.209-0.264-3.438
		C259.021,191.245,253.75,192.911,248.191,193.993z M288.219,269.964c0-0.515,0.014-0.753-0.002-0.989
		c-0.225-3.424-0.531-6.846-0.65-10.272c-0.072-2.076-0.246-4.146-0.334-6.22c-0.068-1.633-0.131-3.271-0.235-4.905
		c-0.229-3.585-0.479-7.169-0.652-10.757c-0.093-1.913-0.219-3.826-0.309-5.74c-0.224-4.742-0.638-9.475-0.877-14.217
		c-0.21-4.145-0.464-8.285-0.702-12.428c-0.25-4.343-0.518-8.685-0.721-13.029c-0.164-3.548-0.463-7.088-0.573-10.641
		c-0.048-1.51-0.089-3.035-0.236-4.542c-0.228-2.306-0.295-4.618-0.417-6.927c-0.098-1.833-0.195-3.669-0.31-5.498
		c-0.242-3.901-0.452-7.804-0.671-11.707c-0.014-0.217,0.084-0.482-0.311-0.671c-1.261,0.775-2.705,1.434-3.865,2.424
		c-2.31,1.971-4.764,3.714-7.381,5.332c0.088,3.067,0.006,6.127-0.781,9.11c2.149,1.99,3.125,4.535,4.008,7.155
		c0.621,1.843,0.343,3.518-0.568,5.155c-0.906,1.628-2.154,2.965-3.588,4.135c-0.982,0.803-1.991,1.573-2.898,2.288
		c0,1.014-0.018,1.891,0.004,2.768c0.094,4.035,0.188,8.071,0.299,12.104c0.133,4.834,0.283,9.668,0.422,14.5
		c0.162,5.633,0.32,11.266,0.48,16.897c0.166,5.791,0.432,11.58,0.481,17.374c0.007,0.841,0.056,1.676,0.122,2.514
		c0.255,3.225-0.049,6.465,0.369,9.885C274.7,265.533,281.199,268.24,288.219,269.964z M298.611,141.394
		c-0.266,0.792-0.287,1.513-0.291,2.232c-0.014,3.24-0.155,6.477-0.209,9.714c-0.135,8.312-0.518,16.626-0.031,24.938
		c0.1,1.706,0.359,3.406,0.99,5.013c0.629,1.598,1.561,2.406,3.686,1.327c0.812-0.413,1.574-0.937,2.327-1.457
		c4.104-2.833,7.817-6.07,10.585-10.284c1.955-2.977,3.221-6.233,3.511-9.768c0.419-5.111-0.022-10.229-0.251-15.337
		c-0.209-4.664-0.578-9.321-0.943-13.975c-0.09-1.153-0.17-2.307-0.269-3.46c-0.2-2.383-0.446-4.763-0.657-7.145
		c-0.188-2.144-0.328-4.292-0.533-6.434c-0.283-2.975-0.605-5.945-0.92-8.917c-0.17-1.624-0.334-3.25-0.541-4.87
		c-0.359-2.841-0.744-5.679-1.131-8.516c-0.351-2.555-0.721-5.106-1.383-7.606c-1.078-4.072-1.988-8.177-2.488-12.367
		c-0.218-1.807-0.502-3.604-0.752-5.375c-0.203-0.059-0.31,0-0.389,0.091c-2.37,2.757-4.738,5.517-7.105,8.276
		c-0.271,0.316-0.41,0.672-0.391,1.097c0.104,2.243-0.248,4.466-0.26,6.708c-0.021,3.597-0.123,7.196-0.291,10.789
		c-0.287,6.109-0.163,12.23-0.624,18.334c-0.183,2.424-0.386,4.84-0.681,7.253c-0.125,1.03-0.674,2.097,0.273,3.158
		c1.83,2.049,3.207,4.469,5.206,6.4c0.961,0.929,1.285,2.141,0.958,3.506c-0.402,1.681-1.605,2.719-2.878,3.696
		C301.707,139.512,300.159,140.426,298.611,141.394z M357.18,216.221c-1.011-0.883-2.054-1.643-2.912-2.572
		c-1.871-2.025-3.233-4.282-2.391-7.224c0.307-1.069,0.701-2.116,1.271-3.077c1.783-3.005,3.506-6.041,5.111-9.147
		c0.821-1.59,1.833-3.09,3.283-4.219c2.611-2.034,5.562-2.079,8.629-1.484c2.762,0.537,5.523,1.071,8.288,1.593
		c4.283,0.809,8.56,1.66,12.799,2.671c3.142,0.749,5.849,2.289,7.85,4.899c0.518,0.675,0.973,1.4,1.456,2.102
		c0.084-0.014,0.167-0.027,0.25-0.041c-0.096-1.705,0.208-3.378,0.231-5.073c0.035-2.518-0.22-5.018-0.454-7.521
		c-0.082-0.87-0.397-1.465-1.118-1.972c-3.293-2.319-6.937-3.855-10.792-4.917c-3.089-0.85-6.254-1.401-9.304-2.406
		c-2.408-0.792-4.794-1.664-7.261-2.264c-2.629-0.64-5.213-0.701-7.614,0.804c-3.017,1.889-5.832,4.042-8.446,6.458
		c-2.619,2.418-4.938,5.114-7.271,7.796c-1.49,1.713-2.896,3.5-3.776,5.63c-0.671,1.625-0.862,3.286-0.397,5.008
		c0.591,2.18,1.589,4.168,2.918,5.971c1.443,1.957,2.789,3.962,3.865,6.147c0.615,1.25,1.301,2.478,2.262,3.507
		C354.902,218.229,356.273,217.986,357.18,216.221z M399.646,182.627c-0.345-1.149-0.826-2.129-1.479-3.042
		c-1.261-1.763-2.817-3.261-4.265-4.859c-3.053-3.371-6.379-6.357-10.812-7.815c-0.112-0.037-0.219-0.095-0.325-0.147
		c-4.277-2.111-8.689-3.958-12.783-6.435c-1.431-0.865-2.869-1.729-4.435-2.322c-0.917-0.347-1.856-0.657-2.896-0.415
		c-2.002,0.465-3.311,1.848-4.498,3.356c-1.038,1.318-2.062,2.642-3.24,3.84c-3.504,3.562-7.071,7.057-10.682,10.512
		c-1.496,1.433-2.971,2.91-4.063,4.701c-1.31,2.145-1.44,4.342-0.19,6.553c1.261,2.229,3.125,3.98,4.793,6.184
		c0.168-0.294,0.232-0.447,0.332-0.573c3.429-4.372,7.021-8.598,11.264-12.217c2.398-2.046,4.902-3.958,7.65-5.523
		c1.627-0.928,3.407-1.369,5.262-1.281c1.947,0.093,3.839,0.58,5.695,1.184c3.84,1.246,7.668,2.496,11.629,3.348
		c4.358,0.938,8.543,2.43,12.355,4.821C399.123,182.599,399.291,182.708,399.646,182.627z M303.846,41.413
		c-0.273-0.088-0.349-0.129-0.425-0.134c-4.276-0.288-8.542-0.188-12.774,0.499c-3.989,0.647-7.806,1.829-11.26,4.002
		c-2.937,1.846-5.887,3.668-8.808,5.537c-2.256,1.442-4.462,2.965-6.313,4.923c-2.35,2.487-3.652,5.416-3.363,8.884
		c0.155,1.858,0.417,3.715,0.834,5.541c0.191,0.836,0.189,1.721,0.625,2.559c0.285-0.168,0.532-0.29,0.754-0.448
		c2.664-1.897,5.46-3.591,8.241-5.307c3.929-2.423,7.86-4.847,12.236-6.414c2.274-0.815,4.52-1.745,7.036-2.113
		C294.973,53.182,299.364,47.357,303.846,41.413z M356.52,159.864c0.789-1.176,1.803-2.073,2.896-2.883
		c1.881-1.394,3.896-1.883,6.175-1.025c1.009,0.38,2.021,0.745,2.938,1.303c4.563,2.772,9.354,5.101,14.215,7.296
		c0.293,0.132,0.576,0.477,1.062,0.191c-0.609-0.708-1.229-1.376-1.791-2.091c-2.175-2.765-4.447-5.441-6.85-8.013
		c-2.402-2.573-4.873-5.069-7.706-7.177c-0.864-0.643-1.759-1.289-2.83-1.486c-1.562-0.287-3.071-0.808-4.635-1.016
		c-1.086-0.144-2.229,0.109-3.146-0.729c-2.425-0.353-4.86-0.435-7.261,0.068c-5.315,1.115-10.557,2.5-15.54,4.728
		c-1.854,0.829-3.73,1.601-5.363,2.842c-2.272,1.727-2.336,3.148-0.377,5.229c2.687,2.851,6.086,3.063,9.623,2.658
		c2.797-0.321,5.514-1.078,8.241-1.771c1.22-0.31,2.49-0.698,3.763-0.481C352.213,157.895,354.373,158.674,356.52,159.864z
		 M258.662,64.112c-0.297,0.169-0.369,0.408-0.474,0.617c-2.421,4.786-4.538,9.705-6.142,14.823
		c-0.787,2.509-1.222,5.112-0.994,7.767c0.283,3.292,0.645,6.578,0.916,9.871c0.285,3.457,0.497,6.92,0.758,10.378
		c0.041,0.542,0.173,1.078,0.257,1.579c5.301,0.634,10.445,0.363,15.574-0.576c0-0.271,0.053-0.562-0.009-0.826
		c-0.962-4.091-1.782-8.217-3.067-12.228c-0.515-1.601-0.916-3.233-0.965-4.922c-0.062-2.291-0.421-4.52-1.139-6.702
		c-0.538-1.635-1.161-3.233-1.865-4.801c-0.263-0.585-0.532-1.172-0.536-1.826c-0.005-0.77-0.21-1.503-0.383-2.239
		c-0.762-3.249-1.495-6.5-1.65-9.85C258.927,64.833,258.966,64.45,258.662,64.112z M297.549,121.573
		c0.504-3.578,0.625-6.958,0.871-10.33c0.247-3.393,0.055-6.786,0.311-10.176c0.26-3.422,0.175-6.865,0.263-10.298
		c0.085-3.339,0.476-6.689,0.231-10.231c-0.396,0.402-0.632,0.617-0.838,0.858c-3.089,3.604-6.174,7.21-9.259,10.816
		c-2.618,3.06-5.209,6.144-7.875,9.16c-0.597,0.675-0.916,1.367-0.677,2.158c0.377,1.247-0.012,2.551,0.423,3.784
		c0.123,0.351,0.034,0.773-0.114,1.169c-0.197,0.53-0.188,1.125-0.033,1.653c0.16,0.554,0.188,1.1,0.168,1.654
		c-0.021,0.611,0.1,1.174,0.39,1.689c0.381,0.15,0.614-0.107,0.877-0.276c0.733-0.474,1.463-0.958,2.203-1.422
		c0.954-0.6,1.94-0.785,3.073-0.455c1.592,0.464,2.896,1.33,3.94,2.569c0.999,1.185,1.901,2.45,2.868,3.664
		C295.383,118.829,296.266,120.204,297.549,121.573z M257.545,61.704c0.514-0.741,0.876-1.244,1.22-1.76
		c2.3-3.454,5.042-6.47,8.489-8.833c2.27-1.555,4.596-3.016,6.938-4.456c0.615-0.38,0.896-0.846,0.867-1.562
		c-0.025-0.678-0.084-1.38,0.053-2.033c0.339-1.612-0.514-2.469-1.788-3.113c-0.283-0.145-0.578-0.267-0.873-0.387
		c-2.946-1.2-5.972-1.201-9.028-0.556c-1.566,0.331-3.052,0.879-4.406,1.758c-1.553,1.008-2.483,2.308-2.226,4.277
		c0.156,1.187,0.258,2.383,0.237,3.587c-0.051,2.918,0.292,5.824,0.291,8.744C257.317,58.704,257.493,60.053,257.545,61.704z
		 M262.759,75.61c1.188,5.142,2.384,10.07,3.726,15.008c0.216-0.122,0.306-0.144,0.349-0.201c3.104-4.094,6.201-8.194,9.312-12.284
		c0.285-0.375,0.375-0.751,0.367-1.214c-0.031-1.517,0.016-3.035-0.029-4.551c-0.055-1.769-0.172-3.535-0.271-5.492
		C271.586,69.8,266.932,72.311,262.759,75.61z M207.098,238.939c0.6,0.256,0.981-0.06,1.359-0.217
		c2.485-1.039,4.86-2.309,7.275-3.498c2.08-1.023,3.43-2.625,4.372-4.695c1.266-2.784,2.268-5.657,3.101-8.594
		c0.076-0.268,0.424-0.545,0.082-0.885c-0.105,0.018-0.231,0.014-0.334,0.061c-3.245,1.479-6.432,3.076-9.546,4.814
		c-0.446,0.249-0.822,0.573-1.138,1.02C209.709,230.568,208.296,234.674,207.098,238.939z M282.438,139.25
		c4.176-2.526,8.129-4.918,12.047-7.289c-0.029-0.664-0.33-1.087-0.643-1.499c-1.466-1.936-2.904-3.894-4.418-5.792
		c-1.162-1.459-1.32-1.458-3.123-0.86c-0.07,0.023-0.13,0.08-0.307,0.194c-0.135,2.335-1.145,4.346-3.021,5.864
		C282.693,132.931,282.553,135.945,282.438,139.25z M266.755,133.728c7.119-0.999,10.323,4.549,9.795,9.088
		c1.343-0.814,2.62-1.591,3.823-2.321c0.041-3.148,0.42-6.167,0.434-9.277c-0.355,0.068-0.52,0.073-0.66,0.131
		c-2.062,0.852-4.186,0.819-6.328,0.419c-2.422-0.452-4.601-1.502-6.645-2.836c-0.742-0.484-1.379-0.515-2.087,0.191
		C265.73,130.589,266.459,132.044,266.755,133.728z M279.639,114.777c-0.773-1.56-0.597-3.271-0.931-4.899
		c-0.103-0.498-0.028-1.018,0.058-1.538c0.25-1.541-0.129-3.058-0.281-4.583c-0.014-0.13-0.088-0.318-0.309-0.308
		c-1.25,0.576-2.423,1.481-3.799,1.6c-1.367,0.118-2.72,0.503-4.271,0.23c0.388,1.475,0.476,2.856,0.875,4.07
		c0.937,0.607,1.793,1.117,2.6,1.694c1.587,1.134,3.143,2.312,4.721,3.459C278.629,114.741,278.918,115.178,279.639,114.777z
		 M269.834,146.117c1.018-0.632,1.85-1.385,2.867-1.841c0.646-0.29,1.436-0.459,1.572-1.298c0.121-0.736,0.512-1.471,0.279-2.222
		c-0.481-1.55-1.009-3.094-2.41-4.112c-1.5-1.088-3.147-1.284-4.834-0.929C267.262,139.438,268.652,142.686,269.834,146.117z
		 M288.572,61.738c-1.66-0.042-8.205,2.583-10.17,4.007c-0.232,4.633-0.101,7.937,0.406,8.917
		C282.064,70.354,285.289,66.085,288.572,61.738z"/>
</g>
</svg>
