<?xml version="1.0" encoding="utf-8"?>
<!-- Generator: Adobe Illustrator 16.2.1, SVG Export Plug-In . SVG Version: 6.00 Build 0)  -->
<!DOCTYPE svg PUBLIC "-//W3C//DTD SVG 1.1//EN" "http://www.w3.org/Graphics/SVG/1.1/DTD/svg11.dtd">
<svg version="1.1" id="RS_x5F_straps01_xA0_Image_1_"
	 xmlns="http://www.w3.org/2000/svg" xmlns:xlink="http://www.w3.org/1999/xlink" x="0px" y="0px" width="528px" height="396px"
	 viewBox="0 0 528 396" enable-background="new 0 0 528 396" xml:space="preserve">
<g>
	<path d="M190.32,396.24c-0.371-0.417-0.907-0.25-1.357-0.348c-3.368-0.726-6.512-2.026-9.538-3.634
		c-5.416-2.876-10.256-6.552-14.849-10.595c-4.038-3.555-7.492-7.634-11.001-11.679c-4.296-4.95-8.823-9.691-13.568-14.217
		c-3.095-2.949-6.215-5.872-9.359-8.771c-2.732-2.516-5.589-4.893-8.226-7.517c-4.433-4.412-8.162-9.367-11.541-14.611
		c-3.28-5.091-6.096-10.453-9.235-15.626c-0.619-1.02-1.071-2.225-1.983-2.947c-0.892-0.707-2.2-0.527-3.319-0.759
		c-7.703-1.589-14.827-4.487-21.002-9.423c-5.257-4.202-9-9.5-11.093-15.955c-1.081-3.332-1.876-6.727-2.255-10.186
		c-0.43-3.928-0.415-7.875-0.11-11.836c0.441-5.731,1.615-11.299,3.421-16.733c1.647-4.954,3.703-9.728,6.817-13.976
		c1.019-1.389,2.249-2.593,3.376-3.887c2.15-2.467,4.242-4.993,6.768-7.107c3.297-2.758,6.956-4.66,11.287-5.265
		c4.134-0.575,8.077,0.169,11.99,1.318c8.547,2.511,16.43,6.401,23.674,11.567c5.348,3.815,10.233,8.154,14.655,13.029
		c3.543,3.907,6.883,7.961,9.707,12.42c2.416,3.812,4.427,7.818,5.402,12.266c0.584,2.66,0.718,5.328,0.425,8.065
		c-0.411,3.838-1.139,7.591-2.187,11.296c-0.131,0.465-0.359,0.881-0.532,1.368c0.405,0.817,0.981,1.522,1.609,2.185
		c2.941,3.103,5.97,6.119,8.841,9.289c4.611,5.092,9.011,10.354,13.1,15.874c3.771,5.093,7.215,10.389,10.061,16.06
		c0.092,0.183,0.188,0.336,0.463,0.509c0-1.004,0.029-1.934-0.005-2.86c-0.129-3.474-0.272-6.946-0.422-10.421
		c-0.188-4.379-0.299-8.757-0.914-13.114c-1.438-10.187-3.543-20.222-6.566-30.053c-1.485-4.828-3.55-9.433-5.868-13.921
		c-3.438-6.657-7.417-12.995-11.378-19.346c-2.254-3.614-4.327-7.345-6.767-10.843c-2.754-3.947-6.003-7.442-9.721-10.512
		c-1.666-1.373-3.394-2.652-5.171-3.871c-0.422-0.291-0.825-0.625-1.481-0.778c0.447,1.34,1.289,2.327,2.076,3.327
		c1.411,1.791,2.963,3.455,4.79,4.841c0.157,0.118,0.295,0.271,0.414,0.43c0.291,0.388,0.366,0.829,0.068,1.222
		c-0.311,0.41-0.733,0.596-1.258,0.321c-0.812-0.423-1.626-0.841-2.449-1.241c-7.965-3.889-16.111-7.338-24.524-10.147
		c-4.327-1.445-8.704-2.712-13.202-3.479c-2.386-0.408-4.79-0.757-7.226-0.8c-1.157-0.021-2.313-0.216-3.469-0.207
		c-5.668,0.039-11.261,0.741-16.787,2.007c-1.499,0.344-2.991,0.719-4.582,0.4c-1.611-0.323-3.017-1.729-2.731-3.98
		c0.216-1.707,0.843-3.295,1.439-4.895c0.397-1.065,0.795-2.133,1.021-3.377c-0.516,0.484-0.703,1.012-0.969,1.495
		c-3.817,6.936-7.034,14.159-10.271,21.374c-1.724,3.843-3.587,7.624-5.36,11.445c-2.082,4.487-3.503,9.188-4.215,14.078
		c-0.471,3.238-0.581,6.51-0.551,9.788c0.033,3.716,0.323,7.406,0.705,11.101c0.302,2.928,0.717,5.84,1.059,8.761
		c0.443,3.782,1.089,7.541,1.603,11.315c0.583,4.281,1.295,8.541,2.295,12.746c1.06,4.455,2.756,8.69,4.57,12.88
		c1.627,3.758,3.067,7.567,3.804,11.619c0.489,2.688,0.889,5.4,1.654,8.031c1.247,4.285,3.03,8.354,5.127,12.283
		c3.844,7.199,7.964,14.248,11.668,21.521c2.02,3.969,3.98,7.965,5.313,12.23c0.751,2.406,1.326,4.858,1.062,7.389
		c-0.239,2.286-0.674,4.555-1.247,6.787c-0.541,2.109-1.052,4.229-1.816,6.273c-0.64,0-1.28,0-1.92,0
		c0.487-1.795,0.971-3.591,1.463-5.384c0.77-2.802,1.389-5.637,1.532-8.538c0.087-1.787-0.243-3.552-0.749-5.284
		c-1.311-4.49-3.373-8.654-5.482-12.798c-3.124-6.137-6.552-12.106-9.858-18.146c-2.485-4.538-4.811-9.151-6.451-14.082
		c-0.943-2.835-1.54-5.751-2.012-8.685c-0.673-4.186-2.005-8.148-3.692-12.012c-2.208-5.06-4.211-10.188-5.341-15.614
		c-0.615-2.952-1.156-5.916-1.574-8.903c-0.434-3.103-0.958-6.192-1.387-9.296c-0.375-2.715-0.669-5.441-1.006-8.162
		c-0.298-2.406-0.609-4.811-0.906-7.217c-0.122-0.989-0.168-1.998-0.189-2.98c-0.062-2.834-0.485-5.664-0.183-8.504
		c0.173-1.628,0.111-3.263,0.28-4.896c0.373-3.606,1.07-7.127,2.153-10.579c1.144-3.646,2.668-7.132,4.381-10.537
		c3.269-6.5,5.941-13.274,9.143-19.806c2.401-4.896,4.84-9.776,7.671-14.442c0.844-1.392,1.252-2.826,1.167-4.413
		c-0.124-2.304-0.35-4.593-0.972-6.832c-1.027-3.699-3.04-6.792-5.675-9.533c-2.717-2.827-5.728-5.339-8.559-8.045
		c-6.592-6.302-11.469-13.745-14.884-22.163c-1.301-3.206-2.172-6.53-2.566-9.992c-0.775-6.815,0.127-13.398,2.509-19.796
		c1.929-5.184,4.625-9.955,8.01-14.324c3.245-4.189,6.937-7.925,11.354-10.906c3.183-2.148,6.624-3.783,10.2-5.137
		c3.487-1.321,7.075-2.332,10.73-3.049c2.49-0.488,4.999-0.885,7.541-1.086c2.506-0.199,5.01-0.479,7.522-0.422
		c8.618,0.195,16.911,1.703,24.445,6.204c4.105,2.453,7.519,5.639,10.283,9.529c1.107,1.56,2.104,3.189,3.025,4.867
		c1.667,3.037,3.351,6.064,5.364,8.894c2.005,2.817,2.424,5.912,1.602,9.217c-0.099,0.399-0.123,0.783-0.027,1.29
		c1.886,1.53,3.828,3.117,5.782,4.69c2.393,1.927,4.799,3.837,7.19,5.767c0.911,0.735,1.617,1.651,2.165,2.681
		c1.311,2.463,0.727,4.784-1.583,6.359c-1.317,0.898-2.694,1.714-3.763,2.935c-0.319,0.364-0.616,0.722-0.761,1.302
		c1.013,0.948,1.705,2.104,1.691,3.608c-0.011,1.246-0.262,2.455-0.56,3.641c-0.169,0.671-0.156,1.228,0.115,1.832
		c0.505,1.126,0.605,2.281,0.274,3.488c-0.55,2.015-0.336,3.955,0.316,5.959c1.087,3.345,0.792,6.653-0.845,9.821
		c-0.945,1.829-2.498,2.958-4.232,3.901c-2.555,1.389-5.329,2.26-8.009,3.354c-1.842,0.752-3.613,1.647-5.391,2.539
		c-1.887,0.945-2.56,2.437-2.285,4.411c0.357,2.571,0.349,5.172,0.703,7.741c0.014,0.105,0.055,0.206,0.096,0.355
		c0.772-0.417,1.118-1.172,1.608-1.775c6.186-7.608,13.22-14.298,21.46-19.646c5.484-3.558,11.334-6.438,17.342-9.009
		c2.628-1.125,5.248-2.268,7.799-3.567c3.765-1.918,6.869-4.584,9.411-7.954c3.659-4.85,6.641-10.109,9.474-15.462
		c0.514-0.971,0.77-2.002,0.746-3.098c-0.086-3.96,0.215-7.912,0.312-11.868c0.118-4.793,0.296-9.586,0.461-14.378
		c0.167-4.873,0.315-9.746,0.477-14.618c0.161-4.873,0.314-9.746,0.482-14.619c0.168-4.873,0.312-9.746,0.482-14.619
		c0.168-4.833,0.358-9.664,0.475-14.498c0.048-1.992,0.277-3.98,0.164-6.002c-2.215-1.287-2.773-3.41-2.832-5.725
		c-0.08-3.196,0.212-6.378,0.416-9.566c0.161-2.507,0.414-5.006,0.548-7.515c0.103-1.906,0.44-3.802,0.491-5.708
		c0.112-4.167,3.03-5.822,6.308-6.977c3.604-1.269,6.869-0.006,9.917,1.95c0.777,0.499,1.438,1.145,2.054,1.829
		c1.04,1.155,1.682,2.408,1.626,4.078c-0.086,2.552,0.243,5.104,0.238,7.667c-0.003,1.871,1.007,2.867,2.92,2.9
		c2.837,0.049,5.676-0.027,8.514-0.064c10.359-0.135,20.717,0.114,31.076,0.08c7.479-0.024,14.961-0.056,22.438,0.104
		c10.078,0.215,20.16-0.057,30.234,0.214c9.358,0.251,18.721-0.025,28.075,0.24c8.56,0.242,17.12-0.019,25.676,0.224
		c8.679,0.246,17.36-0.008,26.034,0.249c8.599,0.254,17.2-0.018,25.795,0.256c7.918,0.252,15.84-0.033,23.755,0.227
		c7.958,0.262,15.92-0.021,23.874,0.245c7.798,0.261,15.601-0.025,23.396,0.24c7.438,0.254,14.878,0.052,22.313,0.207
		c2.119,0.044,4.237,0.116,6.356,0.176c0,0.64,0,1.28,0,1.92c-13.478-0.136-26.953-0.227-40.43-0.424
		c-7.956-0.117-15.916,0.025-23.872-0.225c-7.795-0.245-15.597,0.011-23.394-0.233c-7.995-0.249-15.995,0.001-23.992-0.227
		c-9.273-0.265-18.555-0.181-27.831-0.263c-14.156-0.125-28.312-0.228-42.469-0.384c-15.596-0.173-31.191-0.079-46.787-0.39
		c-7.755-0.155-15.516-0.019-23.273-0.152c-13.835-0.238-27.673-0.073-41.511-0.105c-0.437-0.001-0.878,0.042-1.311,0.11
		c-1.775,0.277-3.512,0.181-5.136-0.634c-0.627-0.315-1.023-0.164-1.474,0.279c-0.795,0.783-1.194,1.78-1.085,2.814
		c0.303,2.892,1.727,5.233,3.646,7.075c11.925,0.228,23.609,0.641,35.239,0.736c0.183-0.484,0.299-0.781,0.405-1.081
		c1.155-3.25,3.287-5.365,6.778-6.02c1.876-0.353,3.766-0.62,5.654-0.823c3.402-0.365,6.744-1.091,10.129-1.556
		c2.447-0.336,4.853-0.416,7.117,1.142c2.178-1.536,4.323-1.219,6.556,0.083c2.571,1.5,2.575,3.667,1.788,6.131
		c0.719,0.282,0.804,0.958,1.187,1.374c0.413,0.182,0.819,0.128,1.216,0.143c5.954,0.21,11.913,0.153,17.869,0.255
		c7.195,0.124,14.393,0.29,21.592,0.333c8.795,0.054,17.588,0.347,26.385,0.435c9.556,0.096,19.111,0.219,28.665,0.445
		c5.156,0.123,10.314,0.071,15.474,0.189c11.513,0.264,23.028,0.357,34.543,0.549c10.155,0.169,20.311,0.283,30.466,0.469
		c9.076,0.167,18.157,0.115,27.23,0.356c6.876,0.183,13.757,0.014,20.628,0.396c0,0.64,0,1.28,0,1.92
		c-7.719,0.07-15.435-0.217-23.15-0.303c-11.074-0.124-22.147-0.319-33.223-0.509c-4.357-0.075-8.718-0.041-13.072-0.188
		c-6.275-0.212-12.559-0.075-18.83-0.301c-4.999-0.181-9.997-0.059-14.993-0.191c-10.792-0.287-21.59-0.296-32.382-0.54
		c-5.119-0.115-10.236-0.05-15.354-0.182c-10.153-0.261-20.311-0.315-30.463-0.499c-5.397-0.098-10.797-0.066-16.192-0.227
		c-8.313-0.248-16.631-0.217-24.944-0.428c-0.467-0.012-0.949-0.071-1.498,0.139c4.525,62.516,9.047,124.99,13.567,187.427
		c0.709,0.323,1.341,0.411,1.976,0.36c0.894-0.071,1.741,0.194,2.607,0.301c0.9,0.109,1.484,0.676,1.596,1.666
		c0.129,1.158,0.071,2.315,0.098,3.474c0.013,0.519,0.003,1.036,0.003,1.604c1.179,0.51,2.438,0.379,3.622,0.641
		c0.191,0.042,0.399,0.005,0.599,0.027c1.683,0.199,2.179,0.76,2.265,2.478c0.03,0.627-0.143,1.279,0.23,1.972
		c1.604,0.219,3.013,0.955,4.287,2.036c2.062,1.75,2.605,4.007,2.337,6.556c-0.28,2.646-0.933,5.216-1.772,7.709
		c0.075,0.102,0.114,0.211,0.172,0.222c1.76,0.304,2.84,1.438,3.687,2.916c1.224,2.136,2.082,4.369,2.106,6.866
		c0.002,0.154,0.047,0.308,0.08,0.509c0.639,0.224,1.297,0.358,1.896,0.667c1.222,0.627,1.981,1.648,2.678,2.807
		c1.429,2.385,2.036,4.987,2.267,7.7c0.127,1.481-0.205,2.935-0.563,4.366c-0.08,0.316-0.153,0.613-0.09,1.001
		c1.891,1.638,2.653,3.876,2.786,6.315c0.097,1.793-0.42,3.527-0.995,5.234c-0.992,2.944-2.874,5.094-5.572,6.594
		c-3.413,1.896-6.838,3.78-9.891,6.243c-1.769,1.427-3.462,2.948-5.21,4.402c-3.672,3.052-7.787,5.363-12.213,7.101
		c-4.848,1.903-9.271,4.567-13.617,7.374c-4.95,3.194-9.866,6.441-14.617,9.932c-2.672,1.962-5.203,4.096-7.741,6.222
		c-3.06,2.562-6.247,4.96-9.432,7.359c-5.601,4.221-11.224,8.406-16.825,12.624c-4.138,3.117-8.278,6.232-12.375,9.404
		c-3.437,2.66-6.799,5.417-10.29,8.01c-3.583,2.661-7.18,5.302-10.903,7.763c-0.788,0.521-1.06,1.108-1.089,2.058
		c-0.117,3.871-0.098,7.749-0.438,11.612c-0.64,0-1.28,0-1.92,0c-0.019-3.736,0.437-7.464,0.218-11.397
		c-4.915,3.145-9.758,6.151-14.803,8.649c-0.154,1.006-0.015,1.898-0.295,2.748c-0.72,0-1.44,0-2.16,0
		c0.111-0.497,0.299-0.988,0.152-1.571c-0.762,0.072-1.398,0.403-2.066,0.612c-0.491,0.151-0.533,0.533-0.486,0.959
		C195.44,396.24,192.88,396.24,190.32,396.24z M330.232,259.867c0.881-1.872,1.367-3.862,2.211-5.707
		c1.812-3.969,2.775-8.124,2.843-12.475c0.034-2.269-1.669-4.276-3.897-4.83c-1.062-0.264-1.953-0.008-2.742,0.729
		c-0.949,0.883-1.691,1.909-2.242,3.078c-0.87,1.847-1.989,3.527-3.262,5.124c-2.049,2.567-4.438,4.813-6.647,7.229
		c-1.782,1.947-3.671,3.791-5.699,5.48c-3.962,3.303-8.565,5.216-13.587,6.259c-2.861,0.595-5.266-0.927-6.336-3.099
		c-0.964-1.955-1.452-4.037-1.632-6.176c-0.185-2.188-0.177-4.391-0.257-6.586c-0.07-1.951-0.57-3.765-1.769-5.338
		c-0.749-0.984-1.479-1.986-2.3-2.908c-0.714-0.805-1.432-1.623-2.305-2.271c-1.363-1.012-2.183-1.039-3.588-0.098
		c-0.66,0.441-1.263,0.974-1.918,1.424c-1.068,0.734-1.279,1.779-1.097,2.956c0.084,0.545,0.24,1.081,0.396,1.612
		c0.699,2.396,1.43,4.785,2.113,7.187c0.969,3.399,1.506,6.817,0.608,10.344c-0.563,2.218-0.255,4.403,0.44,6.568
		c0.898,2.802,2.184,5.444,3.254,8.175c1.359,3.471,2.981,6.846,3.822,10.504c0.324,1.407,0.228,2.756-0.496,4.046
		c-0.709,1.269-1.588,2.398-2.66,3.368c-1.986,1.797-4.166,3.35-6.438,4.755c-5.352,3.308-10.874,6.319-16.39,9.336
		c-10.367,5.67-20.664,11.464-30.968,17.245c-8.085,4.537-16.218,8.998-24.006,14.038c-5.421,3.509-10.919,6.931-15.491,11.582
		c-0.262,0.267-0.515,0.596-0.991,0.525c0.296-1.32,2.781-4.33,5.92-7.203c0-0.188,0.049-0.438-0.008-0.661
		c-0.277-1.073-0.562-2.146-0.882-3.208c-2.174-7.224-5.347-14.003-9.219-20.457c-3.454-5.756-7.482-11.104-11.722-16.302
		c-4.523-5.543-9.249-10.908-14.353-15.918c-4.571-4.484-7.641-9.877-9.89-15.767c-1.735-4.546-2.877-9.298-4.508-13.886
		c-0.261-0.734-0.625-1.455-0.622-2.423c0.873,0.534,1.655,0.923,1.956,1.907c0.977,3.193,2.015,6.369,3.187,9.496
		c1.562,4.172,3.356,8.242,5.612,12.092c0.159,0.271,0.217,0.732,0.761,0.647c0.783-2.981,1.429-5.991,1.821-9.065
		c0.31-2.432,0.495-4.863,0.135-7.271c-0.612-4.093-2.208-7.852-4.277-11.424c-3.116-5.382-7.004-10.181-11.219-14.711
		c-4.66-5.011-9.787-9.502-15.495-13.306c-8.045-5.359-16.67-9.362-26.216-11.217c-2.777-0.539-5.55-0.453-8.293,0.198
		c-3.832,0.91-6.966,3.04-9.777,5.712c-2.031,1.932-3.8,4.102-5.643,6.203c-1.077,1.229-2.256,2.369-3.178,3.733
		c-3.146,4.653-5.248,9.776-6.821,15.135c-1.481,5.043-2.364,10.181-2.738,15.437c-0.223,3.133-0.13,6.238,0.153,9.33
		c0.312,3.396,1.043,6.727,2.056,10.006c2.032,6.584,5.834,11.883,11.255,16.063c5.087,3.925,10.877,6.374,17.048,7.972
		c1.101,0.283,2.221,0.678,3.561,0.604c-1.762-2.471-3.649-4.633-5.657-6.665c-3.411-3.457-6.439-7.213-9.23-11.172
		c-0.2-0.284-0.511-0.556-0.5-1.087c0.231,0.181,0.368,0.266,0.479,0.375c4.158,4.148,8.574,8.039,12.452,12.468
		c2.997,3.423,5.819,6.961,8.13,10.906c3.179,5.427,6.161,10.971,9.617,16.233c2.718,4.14,5.659,8.105,9.073,11.706
		c2.532,2.67,5.283,5.104,8.022,7.557c4.586,4.102,9.113,8.27,13.449,12.64c3.236,3.261,6.457,6.532,9.512,9.969
		c2.229,2.507,4.329,5.127,6.604,7.588c5.195,5.619,10.946,10.603,17.493,14.603c3.806,2.325,7.779,4.311,12.214,5.171
		c1.84,0.355,3.681,0.555,5.564,0.218c2.494-0.446,4.768-1.465,7.007-2.567c8.382-4.131,16.072-9.377,23.681-14.753
		c5.896-4.165,11.492-8.719,17.185-13.146c6.325-4.919,12.787-9.654,19.194-14.463c5.195-3.898,10.403-7.781,15.505-11.802
		c2.572-2.026,4.983-4.245,7.59-6.229c4.347-3.31,8.854-6.383,13.418-9.378c5.92-3.887,11.891-7.662,18.523-10.297
		c4.229-1.679,8.104-4.048,11.532-7.084c2.331-2.063,4.685-4.097,7.284-5.827c2.455-1.635,5.086-2.969,7.584-4.529
		c1.268-0.791,2.453-1.681,3.174-3.009c1.27-2.343,2.049-4.827,1.775-7.538c-0.133-1.312-0.549-2.517-1.519-3.537
		c-0.59,0.766-0.774,1.615-1.298,2.28c-0.473,0.601-0.966,0.799-1.596,0.249c-0.022-0.447,0.231-0.773,0.383-1.137
		c1.252-3.01,2.12-6.094,1.885-9.403c-0.186-2.597-0.968-4.972-2.505-7.087c-0.563-0.777-1.321-1.174-2.201-1.329
		c-0.354,0.459-0.332,0.899-0.37,1.34c-0.141,1.583-0.318,3.163-0.729,4.702c-0.245,0.922-0.501,1.062-1.57,0.965
		c-0.223-0.801,0.129-1.568,0.209-2.347c0.193-1.874,0.068-3.767,0.287-5.626c0.371-3.15-0.557-5.898-2.341-8.409
		c-0.552-0.774-1.333-1.261-2.431-0.901c-0.902,1.799-1.824,3.61-2.905,5.334C331.43,259.21,331.075,259.793,330.232,259.867z
		 M283.322,64.564c-0.229,0.211-0.405,0.367-0.575,0.532c-5.545,5.388-9.546,11.801-12.479,18.908
		c-2.211,5.359-3.818,10.928-5.598,16.437c-3.24,10.039-6.526,20.063-10.29,29.922c-2.93,7.676-5.941,15.324-9.796,22.594
		c-5.076,9.572-11.615,18.01-19.83,25.115c-0.991,0.856-2.005,1.686-2.916,2.45c-0.346,6.157-0.339,12.194-0.521,18.227
		c-0.212,7.032-0.334,14.067-0.495,21.103c-0.159,6.916-0.317,13.83-0.48,20.744c-0.165,6.954-0.344,13.909-0.466,20.863
		c-0.09,5.116-0.223,10.234-0.337,15.35c-0.12,5.396-0.26,10.793-0.375,16.187c-0.122,5.635-0.417,11.271-0.318,16.91
		c0.008,0.479-0.035,0.959-0.046,1.438c-0.14,5.835-0.28,11.67-0.41,17.505c-0.006,0.293-0.105,0.628,0.106,0.847
		c0.304,0.106,0.443-0.082,0.606-0.173c6.554-3.688,13.092-7.405,19.659-11.07c8.303-4.635,16.635-9.218,24.943-13.842
		c4.938-2.748,9.942-5.389,14.614-8.588c1.683-1.152,3.318-2.365,4.705-3.875c1.479-1.615,2.224-3.334,1.457-5.633
		c-0.867-2.604-1.83-5.162-2.842-7.705c-1.275-3.207-2.757-6.332-3.884-9.598c-0.858-2.486-1.122-5.021-0.588-7.634
		c0.271-1.321,0.556-2.667,0.461-4.021c-0.147-2.144-0.594-4.24-1.205-6.305c-0.753-2.545-1.632-5.054-2.216-7.648
		c-0.518-2.297-0.15-4.274,1.998-5.64c0.503-0.317,0.939-0.737,1.416-1.103c1.992-1.529,3.73-1.608,5.838-0.266
		c0.227,0.146,0.41,0.409,0.766,0.205c0.315-0.354,0.153-0.814,0.18-1.236c0.041-0.676,0.062-1.347,0.17-2.022
		c0.16-1.024,0.693-1.479,1.677-1.724c1.297-0.319,2.647-0.459,3.853-0.965c0.326-0.713,0.289-1.396,0.307-2.072
		c0.033-1.357-0.09-2.723,0.152-4.071c0.205-1.147,0.422-1.394,1.584-1.61c0.578-0.106,1.174-0.127,1.738-0.187
		c0.227-0.383,0.145-0.753,0.118-1.097c-0.219-2.782-0.508-5.56-0.678-8.344c-0.206-3.383-0.486-6.761-0.726-10.142
		c-0.242-3.42-0.477-6.84-0.711-10.261c-0.242-3.5-0.478-7.001-0.719-10.502c-0.245-3.58-0.493-7.16-0.721-10.741
		c-0.229-3.582-0.486-7.162-0.719-10.743c-0.238-3.701-0.52-7.401-0.715-11.104c-0.166-3.148-0.445-6.289-0.578-9.44
		c-0.058-1.348-0.102-2.71-0.23-4.059c-0.324-3.375-0.484-6.761-0.684-10.145c-0.09-1.513-0.153-3.034-0.295-4.537
		c-0.279-2.98-0.42-5.969-0.607-8.951c-0.2-3.184-0.454-6.368-0.586-9.559c-0.057-1.349-0.131-2.708-0.229-4.061
		c-0.222-3.023-0.529-6.042-0.64-9.069c-0.069-1.916-0.274-3.821-0.337-5.739c-0.041-1.309-0.109-2.632-0.225-3.942
		c-0.305-3.498-0.478-7.004-0.684-10.508c-0.09-1.514-0.304-3.02-0.256-4.542C283.68,65.155,283.609,64.874,283.322,64.564z
		 M141.915,127.303c0.654-1.56,1.271-2.983,1.657-4.488c0.898-3.505,1.635-7.045,2.092-10.634c0.134-1.05,0.421-2.091,0.171-3.202
		c-0.356-1.589-1.076-2.979-1.983-4.29c-1.633-2.361-3.076-4.83-4.433-7.359c-1.775-3.307-3.758-6.493-6.337-9.245
		c-3.781-4.034-8.388-6.813-13.573-8.652c-5.141-1.823-10.457-2.598-15.904-2.675c-4.159-0.059-8.302,0.119-12.398,0.791
		c-3.593,0.588-7.125,1.468-10.629,2.509c-10.812,3.21-19.19,9.636-25.468,18.914c-4.568,6.75-7.628,14.059-8.385,22.265
		c-0.318,3.446-0.151,6.833,0.435,10.226c0.599,3.468,1.802,6.735,3.248,9.92c2.537,5.586,5.789,10.723,9.9,15.283
		c2.839,3.15,5.995,5.985,9.134,8.831c3.244,2.94,6.206,6.098,7.943,10.209c0.948,2.242,1.534,4.563,1.853,6.987
		c0.279,2.121,0.349,4.251,0.117,6.331c-0.414,3.702-1.319,7.318-2.735,10.794c-0.474,1.162-0.944,2.361-1.022,3.644
		c-0.097,1.595,0.307,2,1.885,2.001c2.171,0.001,4.212-0.738,6.317-1.113c3.763-0.67,7.54-1.229,11.366-1.277
		c2.394-0.031,4.784-0.035,7.184,0.178c2.697,0.238,5.375,0.57,8.023,1.087c5.063,0.985,9.971,2.548,14.821,4.276
		c5.835,2.078,11.563,4.425,17.182,7.037c0.311,0.146,0.622,0.496,1.096,0.26c-0.279-0.399-0.513-0.771-0.784-1.114
		c-1.316-1.668-2.388-3.481-3.219-5.433c-1.49-3.494-2.209-7.19-2.617-10.936c-0.297-2.731-0.482-5.478-0.569-8.232
		c-0.042-1.349-0.092-2.714-0.231-4.061c-0.208-2.022-0.396-4.04-0.459-6.075c-0.069-2.24,0.897-3.786,2.792-4.886
		c2.28-1.323,4.67-2.394,7.115-3.365c2.395-0.951,4.845-1.775,7.101-3.055c0.978-0.554,1.958-1.116,2.598-2.062
		c1.116-1.651,1.645-3.518,1.763-5.491c0.094-1.573-0.299-3.088-0.789-4.56c-0.591-1.779-0.846-3.526-0.249-5.369
		c0.193-0.597,0.354-1.283,0.166-2.151c-1.269,1.059-1.877,2.673-3.445,3.181c0.532-1.316,1.181-2.542,1.749-3.804
		c0.967-2.147,1.823-4.327,1.665-6.763c-0.042-0.633-0.214-1.134-0.667-1.597c-1.073-1.097-1.142-2.166-0.315-3.432
		c0.574-0.879,1.278-1.636,2.122-2.255c1.026-0.752,2.099-1.444,3.091-2.239c1.058-0.848,1.239-1.698,0.76-2.975
		c-0.463-1.235-1.309-2.179-2.332-2.976c-3.589-2.796-7.123-5.661-10.634-8.553c-0.325-0.267-0.637-0.587-1.14-0.594
		c-0.114,0.407-0.222,0.786-0.327,1.167c-0.742,2.685-1.754,5.269-2.924,7.792C143.383,126.733,142.987,127.334,141.915,127.303z
		 M216.2,331.163c0.192-3.914,0.255-7.79,0.326-11.666c0.177-9.674,0.453-19.347,0.688-29.019
		c0.159-6.556,0.316-13.109,0.477-19.664c0.141-5.756,0.29-11.513,0.406-17.268c0.102-5.036,0.311-10.07,0.321-15.109
		c0.002-1.358,0.014-2.722,0.094-4.076c0.271-4.594,0.192-9.192,0.337-13.789c0.201-6.352,0.305-12.708,0.465-19.063
		c0.177-7.034,0.341-14.068,0.483-21.103c0.156-7.674,0.386-15.347,0.532-23.021c0.03-1.56,0.008-3.12,0.048-4.679
		c0.136-5.396,0.313-10.79,0.425-16.186c0.062-2.918,0.085-5.835,0.17-8.754c0.209-7.153,0.323-14.309,0.531-21.463
		c0.253-8.712,0.353-17.428,0.52-26.143c0.014-0.72,0.023-1.44,0.066-2.159c0.284-4.751,0.254-9.512,0.361-14.268
		c0.121-5.355,0.393-10.71,0.32-16.071c-0.006-0.479,0.047-0.958,0.081-1.437c0.203-2.873,0.095-5.746,0.129-8.55
		c-1.906-1.37-5.199-2.274-7.025-2.405c-1.295-0.093-2.542,0.065-3.689,0.736c-0.697,0.408-1.07,0.927-1.129,1.808
		c-0.375,5.584-0.417,11.181-0.619,16.77c-0.141,3.872-0.272,7.749-0.364,11.625c-0.06,2.555-0.062,5.117-0.22,7.67
		c-0.351,5.665-0.379,11.34-0.627,17.009c-0.205,4.669-0.364,9.344-0.469,14.017c-0.136,6.034-0.428,12.062-0.55,18.095
		c-0.086,4.234-0.376,8.464-0.438,12.697c-0.053,3.638-0.238,7.271-0.344,10.905c-0.073,2.515-0.1,5.034-0.202,7.55
		c-0.237,5.829-0.527,11.657-0.645,17.489c-0.077,3.796-0.242,7.591-0.349,11.386c-0.072,2.555-0.113,5.114-0.207,7.669
		c-0.235,6.35-0.503,12.698-0.655,19.051c-0.084,3.517-0.222,7.033-0.343,10.547c-0.096,2.798-0.096,5.597-0.222,8.394
		c-0.158,3.474-0.296,6.947-0.409,10.424c-0.123,3.757-0.123,7.519-0.337,11.269c-0.137,2.399-0.102,4.796-0.201,7.193
		c-0.237,5.751-0.464,11.502-0.658,17.255c-0.133,3.915-0.116,7.837-0.333,11.747c-0.145,2.599-0.118,5.196-0.219,7.792
		c-0.24,6.191-0.44,12.384-0.661,18.576c-0.155,4.354-0.331,8.706-0.471,13.061c-0.118,3.676-0.182,7.354-0.307,11.029
		c-0.038,1.129-0.196,2.255-0.309,3.489C205.936,337.107,211.125,334.222,216.2,331.163z M221.971,177.633
		c0.401,0.108,0.571-0.223,0.803-0.415c3.86-3.196,7.295-6.805,10.464-10.681c3.589-4.39,6.742-9.069,9.405-14.074
		c3.253-6.114,5.889-12.506,8.422-18.942c4.371-11.102,8.109-22.425,11.765-33.778c1.82-5.653,3.494-11.356,5.781-16.85
		c3.188-7.646,7.675-14.398,13.678-20.13c0.941-0.898,1.834-1.858,2.664-2.859c1.482-1.791,2.521-3.861,3.521-5.944
		c1.728-3.589,3.439-7.186,5.517-10.591c2.465-4.042,4.78-8.164,6.768-12.467c0.253-0.546,0.449-1.104,0.619-1.667
		c0.188-0.622,0.155-1.278-0.255-1.829c-1.102-1.476-3.423-1.964-5.083-1.081c-1.427,0.758-2.586,1.85-3.715,2.981
		c-1.94,1.945-3.206,4.36-4.613,6.671c-0.64,1.048-1.415,1.911-2.444,2.572c-2.154,1.383-4.472,2.479-6.664,3.795
		c-0.168,0.101-0.365,0.171-0.646-0.082c-0.072-0.767,0.274-1.308,1.045-1.705c1.05-0.541,2.188-0.953,3.013-1.789
		c0.022-2.328-0.041-4.576-0.506-6.815c1.149,0.017,1.434,0.31,1.672,1.411c0.282,1.309,0.389,2.656,0.848,4.082
		c1.894-1.706,2.811-3.956,4.104-5.932c1.309-1.999,2.873-3.771,4.823-5.529c-1.492-0.34-2.653-0.664-3.927-0.48
		c-1.77,0.256-3.523,0.584-5.286,0.857c-3.573,0.552-7.167,0.967-10.746,1.484c-2.194,0.317-4.165,1.071-5.343,3.149
		c-0.73,1.292-1.221,2.669-1.51,4.123c-0.425,2.145-0.609,4.329-1.011,6.474c-0.968,5.188-2.684,10.184-4.105,15.253
		c-1.21,4.315-3.425,8.194-5.772,11.98c-5.789,9.336-12.682,17.862-19.494,26.443c-4.016,5.059-8.061,10.095-11.918,15.277
		c-0.279,0.375-0.42,0.741-0.436,1.201c-0.03,0.918-0.131,1.835-0.149,2.754c-0.153,7.635-0.362,15.268-0.508,22.902
		c-0.092,4.836-0.275,9.671-0.316,14.51c-0.055,6.636-0.295,13.269-0.447,19.904c-0.037,1.599,0.025,3.199-0.142,4.795
		C221.811,176.945,221.672,177.326,221.971,177.633z M301.77,33.371c-0.349,0.477-0.609,1.005-0.836,1.553
		c-0.826,1.995-1.904,3.854-3.021,5.695c-2.769,4.561-5.364,9.211-7.587,14.069c-1.163,2.541-2.545,4.974-4.354,7.131
		c-0.295,0.351-0.554,0.726-0.49,1.178c0.164,1.155,0.064,2.316,0.149,3.473c0.238,3.223,0.497,6.444,0.655,9.671
		c0.085,1.754,0.188,3.513,0.324,5.259c0.24,3.063,0.354,6.133,0.621,9.195c0.273,3.139,0.285,6.3,0.558,9.439
		c0.12,1.395,0.146,2.79,0.248,4.182c0.226,3.103,0.512,6.204,0.644,9.311c0.075,1.795,0.243,3.585,0.332,5.379
		c0.065,1.311,0.117,2.63,0.213,3.944c0.226,3.103,0.51,6.204,0.654,9.31c0.083,1.794,0.229,3.585,0.32,5.378
		c0.211,4.181,0.632,8.352,0.883,12.531c0.216,3.584,0.46,7.166,0.7,10.748c0.245,3.662,0.466,7.325,0.735,10.986
		c0.309,4.177,0.459,8.367,0.781,12.543c0.102,1.313,0.157,2.628,0.256,3.941c0.211,2.824,0.463,5.646,0.658,8.47
		c0.195,2.826,0.28,5.661,0.54,8.479c0.109,1.195,0.14,2.392,0.236,3.584c0.216,2.623,0.458,5.244,0.666,7.867
		c0.188,2.385,0.331,4.773,0.522,7.158c0.061,0.74,0.209,1.473,0.336,2.324c6.457-0.376,12.873-0.172,19.289-0.674
		c0.178-2.057-0.182-3.874-0.261-5.7c-0.117-2.708-0.442-5.405-0.637-8.11c-0.197-2.744-0.271-5.502-0.544-8.237
		c-0.123-1.235-0.146-2.472-0.247-3.703c-0.23-2.822-0.487-5.643-0.651-8.469c-0.09-1.554-0.238-3.103-0.314-4.659
		c-0.133-2.746-0.448-5.483-0.646-8.228c-0.196-2.745-0.313-5.496-0.519-8.24c-0.283-3.818-0.639-7.63-0.92-11.448
		c-0.203-2.745-0.279-5.499-0.526-8.239c-0.115-1.274-0.166-2.548-0.261-3.82c-0.211-2.823-0.489-5.642-0.651-8.467
		c-0.09-1.554-0.18-3.114-0.321-4.657c-0.248-2.66-0.359-5.329-0.619-7.988c-0.272-2.777-0.299-5.578-0.557-8.357
		c-0.109-1.194-0.148-2.389-0.242-3.582c-0.209-2.663-0.473-5.321-0.664-7.985c-0.201-2.785-0.312-5.576-0.518-8.36
		c-0.28-3.817-0.634-7.629-0.915-11.447c-0.205-2.785-0.282-5.58-0.539-8.359c-0.114-1.235-0.153-2.47-0.25-3.703
		c-0.214-2.743-0.464-5.482-0.662-8.226c-0.194-2.706-0.317-5.417-0.521-8.122c-0.282-3.777-0.633-7.55-0.909-11.328
		c-0.205-2.785-0.291-5.579-0.53-8.361c-0.099-1.155-0.215-2.304-0.223-3.464C302.157,33.932,302.188,33.59,301.77,33.371z
		 M205.835,135.415c-0.514,0.321-0.632,0.761-0.833,1.125c-2.319,4.18-4.81,8.249-7.742,12.033c-2.143,2.766-4.607,5.176-7.64,6.979
		c-3.639,2.163-7.552,3.744-11.407,5.448c-9.144,4.042-17.828,8.822-25.302,15.578c-5.109,4.618-9.874,9.546-13.917,15.146
		c-0.375,0.518-0.555,1.002-0.542,1.631c0.04,1.877,0.268,3.734,0.481,5.596c0.295,2.568,0.793,5.09,1.562,7.561
		c0.177,0.567,0.486,0.958,1.02,1.242c1.796,0.955,3.508,2.051,5.159,3.239c4.494,3.235,8.514,6.968,11.956,11.319
		c1.161,1.469,2.178,3.037,3.265,4.496c0.687,0.119,1.142-0.274,1.619-0.527c5.564-2.946,10.663-6.583,15.383-10.727
		c7.242-6.354,14.154-13.062,20.848-19.992c1.438-1.489,2.871-2.985,4.156-4.322c0.552-3.907,0.382-7.636,0.525-11.347
		c0.15-3.91,0.427-7.825,0.319-11.745c-0.007-0.239,0.017-0.479,0.033-0.719c0.375-5.663,0.414-11.34,0.623-17.009
		c0.146-3.952,0.406-7.906,0.321-11.866C205.701,137.558,206.067,136.58,205.835,135.415z M200.56,340.853
		c-1.288-0.309-1.376-1.152-1.366-2.149c0.018-1.881,0.191-3.754,0.229-5.629c0.099-4.795,0.313-9.585,0.473-14.378
		c0.165-4.952,0.323-9.905,0.482-14.857c0.153-4.753,0.323-9.505,0.475-14.258c0.16-4.992,0.327-9.983,0.488-14.978
		c0.152-4.713,0.318-9.424,0.473-14.138c0.165-5.032,0.336-10.063,0.486-15.098c0.14-4.713,0.364-9.425,0.462-14.138
		c0.128-6.112,0.444-12.219,0.551-18.334c0.083-4.715,0.309-9.426,0.46-14.14c0.035-1.078,0.004-2.157,0.152-3.233
		c0.05-0.359,0.227-0.794-0.204-1.097c-0.465,0.202-0.744,0.606-1.074,0.942c-7.731,7.859-15.412,15.773-23.86,22.882
		c-4.491,3.778-9.279,7.144-14.493,9.875c-0.399,0.209-0.944,0.263-1.111,0.865c0.916,1.511,1.828,3.048,2.77,4.565
		c3.377,5.442,6.781,10.869,9.966,16.43c4.379,7.643,7.933,15.626,10.218,24.156c1.293,4.826,2.43,9.687,3.415,14.582
		c0.64,3.184,1.217,6.387,1.658,9.604c0.372,2.714,0.733,5.434,0.825,8.188c0.07,2.114,0.111,4.234,0.232,6.348
		c0.343,5.984,0.438,11.979,0.67,17.968c0.022,0.57,0.112,1.094,0.335,1.615c0.891,2.08,1.698,4.19,2.359,6.356
		c0.446,1.461,0.906,2.918,1.404,4.521C198.232,342.484,199.323,341.72,200.56,340.853z M264.021,35.258
		c-2.922,0.066-5.663-0.292-8.422-0.241c-1.797,0.033-3.598-0.006-5.396-0.064c-5.951-0.19-11.903-0.367-17.857-0.388
		c-1-0.003-2.103,0.229-2.896,0.813c-1.536,1.13-2.919,2.469-4.413,3.762c-0.528,22.754-1.055,45.481-1.582,68.207
		c0.093,0.025,0.186,0.05,0.279,0.075c0.815-1.068,1.616-2.148,2.449-3.203c4.223-5.346,8.455-10.685,12.681-16.027
		c4.821-6.093,9.544-12.258,13.741-18.805c2.339-3.65,4.646-7.362,5.968-11.503c1.938-6.071,3.894-12.153,4.919-18.473
		C263.708,38.085,263.834,36.745,264.021,35.258z M226.116,20.353c-0.098-0.555-0.245-1.02-0.252-1.487
		c-0.038-2.479-0.419-4.95-0.241-7.429c0.148-2.06-0.639-3.609-2.199-4.897c-3.116-2.571-8.103-3.799-12.067-0.549
		c-0.735,0.603-1.529,1.218-1.588,2.284c-0.094,1.712-0.362,3.41-0.468,5.115c-0.147,2.388-0.439,4.762-0.571,7.151
		c-0.07,1.271-0.093,2.554-0.25,3.819c-0.296,2.387-0.163,4.79-0.335,7.181c-0.051,0.708,0.045,1.444,0.189,2.145
		c0.157,0.764,0.345,1.555,1.06,2.05c2.776-2.516,5.262-2.963,8.849-2.143c2.429,0.556,4.666,1.525,6.753,2.887
		c0.963-0.817,1.957-1.553,2.8-2.517c-0.242-0.299-0.453-0.588-0.691-0.853c-1.412-1.568-2.36-3.408-3.04-5.378
		c-0.574-1.664-0.608-3.362,0.141-5.003C224.627,21.808,225.305,21.071,226.116,20.353z M318.098,248.297
		c-0.557-0.195-0.957-0.146-1.351-0.136c-2.278,0.06-4.556,0.168-6.834,0.187c-5.8,0.047-11.597,0.053-17.396,0.088
		c-0.459,0.002-0.966-0.125-1.408,0.317c0,1.754-0.049,3.552,0.013,5.345c0.067,1.99,0.388,3.945,1.142,5.809
		c1.03,2.555,2.493,3.471,5.141,2.855c3.652-0.848,7.127-2.199,10.248-4.332c3.095-2.113,5.596-4.878,8.188-7.535
		C316.605,250.107,317.427,249.352,318.098,248.297z M323.007,236.322c-10.774,0.154-21.407,0.488-32.159,0.847
		c0.107,1.035-0.166,1.899,0.18,2.685c0.283,0.194,0.527,0.162,0.766,0.162c10.029-0.016,20.059-0.031,30.087-0.05
		c0.39-0.001,0.808,0.063,1.128-0.327C323.007,238.598,323.007,237.532,323.007,236.322z M317.631,227.677
		c-7.225,0.118-14.304,0.196-21.361,0.578c-0.045,0.247-0.082,0.361-0.082,0.476c0,0.17,0.104,0.293,0.397,0.539
		c6.913-0.351,14.005-0.172,21.142-0.576C317.745,228.287,317.876,227.943,317.631,227.677z"/>
</g>
</svg>
