<?xml version="1.0" encoding="utf-8"?>
<!-- Generator: Adobe Illustrator 16.2.1, SVG Export Plug-In . SVG Version: 6.00 Build 0)  -->
<!DOCTYPE svg PUBLIC "-//W3C//DTD SVG 1.1//EN" "http://www.w3.org/Graphics/SVG/1.1/DTD/svg11.dtd">
<svg version="1.1" id="RS_x5F_straps08_xA0_Image_1_"
	 xmlns="http://www.w3.org/2000/svg" xmlns:xlink="http://www.w3.org/1999/xlink" x="0px" y="0px" width="528px" height="396px"
	 viewBox="0 0 528 396" enable-background="new 0 0 528 396" xml:space="preserve">
<path d="M404.458,68.167l-2.125-0.083l-0.833-0.75l-0.083-2.958l-0.625-0.125l-0.5-0.833L400.167,61l0.583-3.458l1.25-0.333
	l-0.042-1.792l0.292-1.125l0.5-0.625l1.375-0.375l1.25,0.083l1.125,0.042l-0.25,1.958l3.792,0.292l6.458-0.083l0.542-0.708l1,0.292
	l0.125,2.625c0,0,1.875,0.583,1.958,0.708s0.083,5.375,0.083,5.375l-0.875,0.875l-1.791,0.125l-0.75,3.167l-2.25,0.708L414.417,66
	l0.531-5.421l-10.365-0.163L404.458,68.167z"/>
<path d="M239.688,69.25c0,0-1.656,0.312-2.156-0.375l-0.5-2.625l-1.219-0.375l-0.875-0.812l-0.625-1.562c0,0-0.125-4,0.062-3.938
	s1.781-0.812,1.781-0.812l0.031-3.25l1.688-0.75l0.438,1.312c0,0,1.125,0.438,1.312,0.438s9.062-0.625,9.062-0.625l-0.094-1.906
	l2.844,0.281l0.625,2.875l1.625,0.688v5.938l-0.812,0.75c0,0,0.375,3.312-0.562,3.875c0,0-3.938,0.656-3.938,0.156l1-8.031
	c0,0-10.688,0.188-10.688,0.5L239.688,69.25z"/>
<g>
	<path d="M249.174,68.332c1.782,0.688,2.627,0.012,2.601-1.529c-0.012-0.683-0.231-1.31-0.315-1.946
		c-0.653-0.18-1.201,0.447-1.925-0.026c1.125-0.841,2.542-0.571,3.647-1.121c0.412-1.083,0.338-4.901-0.102-5.872
		c-0.243-0.15-0.509-0.22-0.793-0.247c-0.541-0.051-0.771-0.397-0.75-0.897c0.033-0.771-0.25-1.479-0.326-2.2
		c-0.855-0.314-1.037-0.327-2.356-0.179c-0.273,0.91-0.273,0.91,0.467,1.69c-0.205,0.496-0.66,0.357-1.028,0.376
		c-2.871,0.152-5.746,0.249-8.613,0.459c-0.724,0.053-1.185-0.328-1.74-0.496c-0.176-0.463-0.028-0.938-0.283-1.312
		c-1.333,0.247-1.435,0.418-1.307,1.692c0.075,0.745,0.139,1.506-0.06,2.179c-0.084,0.089-0.107,0.131-0.14,0.145
		c-1.654,0.66-1.658,0.66-1.691,2.551c-0.011,0.599-0.019,1.2,0.01,1.798c0.071,1.492,0.804,2.249,2.298,2.363
		c0.503,0.039,1.011,0.006,1.538,0.006c-0.04,0.695-0.647,0.314-0.798,0.612c-0.531,0.642,0.072,2.18,1.054,2.748
		c-1.255,0.419-1.494,0.06-1.749-2.641c-0.052-0.05-0.101-0.138-0.167-0.155c-2.218-0.577-2.739-1.248-2.827-3.56
		c-0.031-0.824,0.128-1.629,0.142-2.452c0.019-1.184,0.197-1.283,1.602-1.647c0.443-0.372,0.315-0.885,0.271-1.342
		c-0.203-2.152-0.215-2.151,1.663-3.1c0.315-0.768,0.006-1.555-0.027-2.333c-0.062-1.457,0.015-2.95-0.664-4.307
		c-0.196-0.391-0.172-0.779-0.152-1.167c0.082-1.552-0.014-3.11-0.078-4.649c-0.043-1.043-0.034-2.142-0.31-3.188
		c-0.111-0.421-0.229-0.87,0.186-1.223c0.282,2.836,0.502,5.677,0.657,8.523c0.026,0.473-0.07,0.95,0.129,1.417
		c0.779,1.833,0.817,3.776,0.84,5.725c0.012,1.022,0.325,2.014,0.289,3.021c1.646,0.235,8.665-0.176,9.777-0.554
		c0.175-1.797-0.364-3.563-0.238-5.359c0.026-0.363-0.336-0.393-0.544-0.552c-0.018-0.014-0.017-0.052,0.004,0.022
		c0.507-0.656,0.393-1.337,0.208-1.948c-0.538-1.773-0.705-3.576-0.613-5.415c0.01-0.197,0.009-0.401-0.227-0.588
		c-0.681,0.202-1.434,0.073-2.188,0.217c-1.821,0.348-3.663,0.583-5.497,0.865l-0.05-0.062c0.096-0.06,0.186-0.138,0.29-0.177
		c1.348-0.514,2.824-0.337,4.183-0.745c1.13-0.339,2.393,0.006,3.428-0.666c0.24-1.353-0.145-2.598-0.279-3.969
		c-1.476,0.667-2.84,1.348-4.421,0.88c1.852,0.048,3.456-0.465,4.656-1.947c-1.49,0.239-2.943,0.569-4.33,1.15
		c-2.01,0.842-4.04,1.081-6.105,0.197c-0.995-1.03-2.177-1.861-3.126-2.941c-0.229-0.261-0.551-0.282-0.88-0.294
		c-0.479-0.016-0.968-0.016-1.431-0.121c-0.585-0.133-1.183-0.332-1.014-1.229c-1.023,0-1.979-0.048-2.928,0.01
		c-1.627,0.101-3.13-0.649-4.762-0.579c0.516-0.542,1.212-0.114,1.804-0.46c0-1.48,0-2.997,0-4.548
		c-0.548-0.323-1.247,0.092-1.777-0.263c-0.025-0.177,0.024-0.341,0.132-0.332c1.913,0.165,3.735-0.597,5.654-0.495
		c1.953,0.104,3.917,0.075,5.874,0.008c1.78-0.061,3.564-0.22,5.283-0.736c0.631-0.19,1.19-0.278,1.843-0.017
		c0.577,0.23,1.208,0.231,1.806-0.167c0.457-0.304,0.984-0.54,1.514-0.69c1.046-0.298,1.676,0.104,1.736,1.161
		c0.071,1.231,0.017,2.469-0.062,3.719c-0.826-1.355,0.28-3.108-0.836-4.491c-1.39,0.178-2.547,0.804-3.583,1.672
		c-0.218-0.192,0.121-0.397-0.164-0.619c-1.926-0.631-3.778,0.669-5.92,0.384c0.488,1.503,0.241,2.893,0.363,4.298
		c1.301,0.378,2.435-0.576,3.743-0.301c1.296,0.272,2.656-0.295,3.885,0.088c0.409-0.573,0.176-1.041,0.311-1.454
		c0.665,0.333-0.002,0.941,0.362,1.459c1.212,0.01,2.503,0.121,3.789,0.375c1.871,0.371,3.642,1.083,5.501,1.468
		c0.925,0.192,1.869,0.349,2.882-0.019c-0.294-1.619,0.069-3.184,0.173-4.816c-3.251-0.459-6.484-0.589-9.701-0.913
		c1.753-0.109,3.495-0.227,5.234,0.04c0.981,0.15,1.974,0.092,2.968,0.259c2.151,0.361,4.343,0.272,6.521,0.273
		c3.28,0.002,6.559-0.004,9.839,0.001c23.793,0.035,47.587-0.075,71.38,0.083c2.914,0.02,5.835-0.111,8.748-0.031
		c15.229,0.417,30.458,0.07,45.687,0.195c0.364,0.003,0.771-0.116,1.191,0.241c-0.473,0.431-0.967,0.288-1.397,0.287
		c-5.879-0.005-11.758-0.04-17.638-0.044c-23.597-0.021-47.194,0.015-70.791-0.065c-15.037-0.051-30.073-0.236-45.111-0.219
		c-2.193,0.002-4.362,0.275-6.62,0.287c-0.243,1.462-0.551,2.889,0.097,4.54c47.083,0.125,94.251-0.477,141.42-0.252
		c0.371-0.09,0.35,0.321,0.678,0.512c1.623-0.116,3.328,0,4.97,0.55c0.326,0.109,0.543,0.004,0.779-0.096
		c1.498-0.629,2.988-1.277,4.519-1.935c0.133-0.716,0.08-1.49,0.544-2.119c0.21,0.694-0.564,1.358-0.067,2.079
		c3.76-0.549,7.505,0.235,11.216,0.174c0.495-1.594,0.451-3.085,0.341-4.582c-3.605-0.374-7.14-0.364-10.651-0.346
		c-0.195,0.346-0.274,0.648-0.387,0.938c-0.228,0.583,0.007,1.286-0.489,1.784c-0.073-0.88,0.355-1.708,0.311-2.705
		c-1.82,0.066-3.586-0.109-5.383,0.14c-1.288,0.179-2.598,0.4-3.921,0.339c-0.51-0.023-1.038-0.106-1.63,0.147
		c-0.244,1.349-0.369,2.757-0.463,4.188c-11.444,0-22.827,0-34.289,0c0.381-0.687,0.964-0.482,1.443-0.482
		c9.239-0.011,18.479-0.008,27.721-0.007c1.593,0,3.187,0,4.896,0c0.143-1.37,0.043-2.692,0.515-3.97
		c1.093-0.261,2.214-0.12,3.31-0.329c3.509-0.671,7.072-0.572,10.614-0.446c2.979,0.106,5.969,0.056,8.94,0.4
		c0.979,0.114,1.974-0.044,2.967-0.166c1.341-0.166,2.716-0.042,4.074-0.053c0.558-0.004,1.104-0.023,1.662-0.14
		c0.793-0.165,1.574-0.066,2.006,0.886c0.691,0,1.404,0,2.11,0c0.167,0.71-0.272,0.66-0.674,0.687
		c-0.387,0.026-0.797-0.116-1.216,0.171c0.029,0.836,0.207,1.701-0.055,2.575c0.614,0.273,1.235,0.043,2.022,0.237
		c-0.793,0.311-1.43,0.006-2.036,0.208c-0.097,0.421-0.191,0.837-0.294,1.279c0.751,0.243,1.528-0.044,2.249,0.187
		c0.098,0.541-0.273,0.568-0.581,0.512c-1.719-0.318-3.422,0.142-5.124,0.071c-1.056-0.043-1.853,0.357-2.58,0.944
		c-1.057,0.852-2.199,1.559-3.373,2.213c-1.697,0.947-3.369,1.93-4.876,3.113c-0.146,5.132-0.412,10.243-1.063,15.27
		c0.238,0.483,0.832,0.213,1.104,0.862c0.018,0.5,0.214,1.23,0.083,1.9c0.5,1.005,1.601,0.706,2.2,1.146c0,2.02,0,3.946,0,5.709
		c-0.396,0.56-0.724,0.903-1.214,1.231c-0.471,0-1.024,0-1.591,0c-0.32,0.589-0.352,1.228-0.344,1.777
		c0.018,1.134-0.613,1.548-1.532,1.795c-0.188,0.051-0.381,0.084-0.613,0.134c-0.39,2.1-0.531,4.236-0.808,6.355
		c-0.235,1.808-0.448,3.625-0.609,5.435c-0.124,1.401-0.017,2.843-0.077,4.268c-0.125,2.953-0.227,5.906-0.449,8.854
		c-0.135,1.791-0.164,3.593-0.221,5.384c-0.081,2.555-0.271,5.105-0.338,7.663c-0.106,4.149-0.406,8.293-0.629,12.523
		c0.188,0.208,0.423,0.47,0.729,0.811c-0.187,8.901-0.374,17.851-0.56,26.659c-0.275,0.515-0.772,0.515-1.001,0.861
		c-0.134,0.21-0.175,0.448-0.168,0.689c0.08,2.761-0.161,5.513-0.248,8.269c-0.124,3.914-0.213,7.828-0.442,11.737
		c-0.137,2.353-0.157,4.714-0.217,7.068c-0.082,3.276-0.221,6.553-0.345,9.826c-0.215,5.669-0.294,11.345-0.65,17.009
		c-0.144,2.271-0.146,4.556-0.203,6.828c-0.08,3.276-0.232,6.554-0.346,9.826c-0.114,3.353-0.124,6.711-0.384,10.062
		c-0.097,1.237-0.181,2.475,0.333,3.75c0.38,0.946,0.095,2.133-0.012,3.209c-0.056,0.557-0.12,1.113-0.132,1.672
		c-0.066,3.436-0.236,6.865-0.448,10.295c-0.12,1.953-0.168,3.916-0.221,5.867c-0.074,2.797-0.364,5.586-0.32,8.387
		c0.017,1.074-0.172,2.15-0.209,3.229c-0.027,0.756-0.536,0.887-1.12,0.989c-0.448,2.087-0.367,4.214-0.538,6.313
		c-0.278,3.418-0.406,6.849-0.712,10.268c-0.117,1.311-0.186,2.632-0.235,3.941c-0.119,3.071-0.357,6.138-0.574,9.199
		c-0.297,4.178-0.553,8.357-0.856,12.533c-0.218,2.981-0.425,5.97-0.561,8.96c-0.134,2.988-0.472,5.966-0.652,8.952
		c-0.084,1.395-0.156,2.789-0.263,4.183c-0.221,2.904-0.28,5.821-0.538,8.723c-0.298,3.35-0.316,6.699-0.319,10.055
		c0,0.358,0.048,0.716,0.078,1.122c0.674,0.509,1.521,0.604,2.283,0.889c2.436,0.908,4.762,2.004,6.795,3.651
		c3.029,2.454,4.812,5.696,5.813,9.389c0.965,3.554,1.474,7.191,1.2,10.87c-0.32,4.299-2.139,7.955-5.284,10.914
		c-3.098,2.913-6.824,4.628-10.957,5.43c-2.72,0.528-5.464,0.386-8.203-0.068c-2.665-0.441-5.289-0.986-7.821-1.961
		c-6.184-2.383-9.695-6.979-11.104-13.312c-0.513-2.298-0.795-4.639-0.731-7.001c0.195-7.181,3.221-12.772,9.391-16.571
		c2.455-1.511,5.121-2.505,7.936-3.127c0.326-0.464,0.355-1.009,0.393-1.501c0.203-2.786,0.34-5.577,0.517-8.364
		c0.163-2.591,0.194-5.188,0.433-7.772c0.148-1.63,0.151-3.273,0.217-4.906c0.09-2.272,0.225-4.548,0.343-6.818
		c0.207-3.985,0.312-7.978,0.646-11.957c0.144-1.709,0.178-3.434,0.229-5.146c0.073-2.396,0.265-4.785,0.334-7.183
		c0.11-3.789,0.425-7.572,0.646-11.358c0.096-1.635,0.133-3.273,0.203-4.908c0.1-2.272,0.322-4.541,0.325-6.822
		c0.002-1.836,0.317-3.66,0.249-5.504c-0.02-0.514,0.107-1.03-0.342-1.455c-0.254-0.237-0.158-0.604-0.164-0.918
		c-0.128-7,0.213-13.993,0.311-20.989c0.043-3.153,0.239-6.306,0.44-9.453c0.062-0.961,0.069-1.978,0.505-2.712
		c0.521-0.371,0.948-0.109,1.317-0.26c0.377-0.308,0.3-0.733,0.291-1.117c-0.117-5.08,0.225-10.152,0.285-15.23
		c0.098-7.994,0.33-15.988,0.557-23.979c0.048-1.718,0.101-3.435,0.144-5.153c0.146-5.794,0.162-11.592,0.444-17.384
		c0.07-1.437-0.025-2.881,0.035-4.318c0.226-5.393,0.118-10.794,0.443-16.183c0.021-0.312,0.093-0.64-0.175-0.979
		c-0.576-0.248-1.454,0.197-1.955-0.77c0.025-3.842-0.094-7.841,0.119-11.835c0.068-1.279,0.126-2.555,0.118-3.835
		c-0.023-3.479,0.224-6.944,0.497-10.407c0.103-1.3,0.417-1.525,1.753-1.531c0.714-0.003,1.429,0.133,2.305-0.022
		c-0.049-1.7,0.18-3.393,0.238-5.097c0.191-5.471,0.314-10.945,0.544-16.415c0.164-3.912,0.303-7.824,0.457-11.736
		c0.118-3.023,0.426-6.039,0.647-9.058c0.018-0.239,0.046-0.48,0.032-0.718c-0.119-2.431,0.347-4.842,0.236-7.272
		c-0.005-0.113-0.049-0.224-0.084-0.373c-0.878-0.084-1.894,0.224-2.462-0.774c-0.498-0.875,0.074-1.812-0.145-2.777
		c-1.825-0.842-1.421-2.477-1.271-4.005c0.073-0.748,0.341-1.469,0.368-2.229c0.044-1.201,0.12-1.285,1.348-1.532
		c0.184-0.458,0.078-0.941,0.088-1.415c0.043-1.947,0.958-2.773,2.878-2.549c0.352,0.041,0.724,0.036,1.144,0.292
		c-0.364,0.333-0.752,0.359-1.169,0.3c-1.581-0.227-2.213,0.254-2.375,1.825c-0.062,0.592,0.072,1.196-0.078,1.771
		c-0.378,0.277-0.887,0.165-1.307,0.564c-0.023,1.893-0.778,3.824-0.24,5.902c0.958,0.682,2.223,0.243,3.287,0.938
		c0.459-1.724,0.028-3.345,0.434-4.853c-0.382-0.418-0.993-0.053-1.323-0.48c0.031-0.077,0.061-0.202,0.084-0.201
		c2.256,0.064,4.511-0.366,6.775,0.125c1.245,0.271,2.55-0.028,3.815-0.15c1.618-0.157,3.157,0.209,4.74,0.414
		c0.372,0.899,0.607,1.731,0.038,2.688c-0.702-0.635-0.172-1.515-0.783-2.142c-0.461-0.071-1.046-0.161-1.688-0.26
		c-0.393,1.391-0.474,2.797-0.312,4.285c1.338,0,2.638,0,3.997,0c0.531-1.802,0.284-3.588,0.318-5.258
		c-0.179-0.322-0.405-0.246-0.587-0.297c-1.455-0.41-1.554-0.584-1.66-2.138c-0.034-0.49,0.242-1.188-0.562-1.402
		c-0.42,0.122-0.217,0.687-0.751,0.885c-3.617,0.131-7.39,0.25-11.205-0.457c1.189-0.504,0.812-1.622,1.067-2.45
		c0.91-2.962,0.627-6.07,1.023-9.094c0.249-1.896,0.505-3.772,0.452-5.689c-0.034-1.231-0.554-2.083-1.685-2.577
		c-0.579-0.253-1.143-0.542-1.712-0.82c-0.212-0.104-0.508-0.166-0.612-0.34c-0.876-1.452-2.36-1.181-3.688-1.34
		c-0.607-0.073-1.247,0.138-1.782-0.411c-0.164-0.168-0.613-0.074-0.932-0.074c-15.199,0.007-30.4-0.111-45.6,0.058
		c-24.396,0.27-48.792,0.112-73.188,0.186c-6.078,0.019-12.156-0.093-18.234,0.063c-1.069,0.027-2.145-0.237-3.209,0.061
		c-0.336,0.094-0.419-0.363-0.708-0.316c-0.374,0.171-0.705,0.429-1.125,0.397c-1.394-0.104-2.499,0.555-3.609,1.275
		c-1.008,0.655-2.167,0.958-3.347,1.15c-0.952,0.155-1.59,0.939-1.361,1.857c0.399,1.598,0.496,3.211,0.439,4.843
		c-0.059,1.717,0.164,3.375,0.578,5.059c0.345,1.404,0.485,2.901,0.392,4.382c-0.043,0.685,0.056,1.339,0.407,1.97
		c0.86,0.057,1.728,0.115,2.612,0.174c0.817,0.929,0.48,2.151,0.936,3.264c0.362,0.153,0.974-0.017,1.302,0.469
		c0.337,0.497,0.263,1.071,0.264,1.628c0.001,1.596,0,3.193,0,4.579c-0.185,0.624-0.701,0.484-0.963,0.893
		c0,0.625,0.004,1.342-0.001,2.059c-0.009,1.329-0.669,2.079-1.988,2.174c-0.589,0.042-1.195,0.094-1.807-0.083
		c0.013-0.164,0.025-0.317,0.037-0.469L249.174,68.332z M395.963,266.462c0.147,1.918-0.15,3.656-0.215,5.411
		c-0.088,2.436-0.104,4.877-0.314,7.302c-0.143,1.638-0.125,3.272-0.225,4.907c-0.236,3.906-0.455,7.814-0.652,11.723
		c-0.125,2.436-0.111,4.879-0.324,7.303c-0.149,1.718-0.133,3.435-0.246,5.148c-0.246,3.664-0.479,7.331-0.614,11
		c-0.083,2.236-0.224,4.471-0.347,6.701c-0.096,1.716-0.096,3.434-0.217,5.147c-0.162,2.27-0.35,4.54-0.398,6.813
		c-0.071,3.196-0.364,6.378-0.576,9.562c-0.076,1.147-0.111,2.308-0.234,3.459c-0.174,1.625-0.283,3.258-0.4,4.889
		c-0.02,0.263-0.094,0.567,0.201,0.794c2.789-0.008,5.524,0.973,8.344,0.712c0.192-0.506,0.104-0.949,0.104-1.381
		c0.009-4.278,0.001-8.558,0.005-12.836c0.002-0.601,0.015-1.2,0.061-1.797c0.212-2.784,0.465-5.565,0.651-8.352
		c0.201-3.025,0.319-6.059,0.524-9.084c0.28-4.14,0.63-8.272,0.909-12.413c0.207-3.064,0.294-6.14,0.545-9.2
		c0.107-1.315,0.14-2.631,0.232-3.943c0.204-2.905,0.47-5.807,0.661-8.712c0.203-3.065,0.291-6.142,0.55-9.202
		c0.112-1.355,0.139-2.712,0.239-4.064c0.219-2.903,0.447-5.808,0.649-8.711c0.026-0.381,0.127-0.795-0.136-1.178
		C401.881,266.462,399.021,266.462,395.963,266.462z M406.99,232.117c0.043-0.424,0.062-0.658,0.091-0.893
		c0.312-2.468,0.156-4.953,0.274-7.428c0.155-3.271,0.345-6.544,0.396-9.818c0.051-3.276,0.23-6.551,0.342-9.823
		c0.081-2.396,0.038-4.8,0.226-7.188c0.259-3.309,0.254-6.627,0.38-9.94c0.129-3.393,0.237-6.791,0.367-10.184
		c0.089-2.356,0.084-4.714,0.209-7.069c0.171-3.231,0.307-6.464,0.409-9.698c0.126-3.914,0.197-7.829,0.444-11.738
		c0.015-0.236,0.055-0.483-0.274-0.765c-2.619-0.076-5.354-0.247-7.979-0.213c-0.372,0.43-0.361,0.795-0.361,1.155
		c-0.004,6.756-0.374,13.503-0.497,20.257c-0.101,5.554-0.311,11.106-0.464,16.659c-0.166,5.993-0.322,11.985-0.481,17.979
		c-0.162,6.152-0.329,12.306-0.478,18.459c-0.035,1.479-0.104,2.955-0.166,4.434c-0.077,1.819-0.019,3.645-0.019,5.51
		C401.952,231.914,404.415,232.014,406.99,232.117z M397.279,385.727c1.01-0.04,2.282,0.002,3.543-0.269
		c2.036-0.438,3.967-1.113,5.633-2.404c2.549-1.976,3.605-4.673,3.707-7.807c0.074-2.317-0.158-4.626-0.502-6.907
		c-0.387-2.563-1.356-4.889-3.404-6.639c-1.659-1.417-3.537-2.769-5.612-3.005c-3.028-0.346-6.094-0.75-9.171-0.632
		c-4.115,0.158-7.145,2.07-8.88,5.791c-1.556,3.335-1.864,6.899-1.19,10.491c0.586,3.13,2.064,5.807,4.615,7.831
		C389.247,384.743,392.951,385.786,397.279,385.727z M414.948,60.579c-1.646-0.564-3.333-0.357-4.985-0.335
		c-1.7,0.023-3.341-0.632-5-0.476c-0.284,0.902-0.294,1.697-0.348,2.496c-0.092,1.368,0.356,2.703,0.238,4.046
		c-0.259,2.903-0.195,5.816-0.421,8.722c-0.245,3.168-0.2,6.359-0.279,9.54c-0.032,1.279-0.038,2.559-0.091,3.837
		c-0.202,4.87-0.5,9.737-0.604,14.609c-0.069,3.317-0.373,6.626-0.312,9.947c0.009,0.477-0.111,0.955-0.116,1.433
		c-0.017,1.584-0.006,3.169-0.006,4.914c2.684-0.186,5.281,0.259,7.928,0.206c0.069-0.362,0.147-0.592,0.153-0.824
		c0.069-3.596,0.352-7.182,0.474-10.774c0.087-2.556,0.252-5.109,0.347-7.665c0.063-1.713,0.114-3.433,0.21-5.147
		c0.221-3.908,0.476-7.813,0.636-11.724c0.069-1.713,0.375-3.393,0.559-5.086c0.193-1.774,0.373-3.557,0.59-5.33
		c0.144-1.16,0.313-2.339,0.258-3.552c-0.064-1.423-0.145-2.873,0.277-4.322C414.873,63.661,415.076,62.143,414.948,60.579z
		 M411.583,55.297c1.689,0.077,3.194-0.077,4.753-0.127c0.081-0.406,0.244-0.751,0.345-1.138c0.234-0.901,0.11-1.829,0.306-2.723
		c0.431-1.988,0.348-4.028,0.541-6.038c0.107-1.12-0.002-2.271,0.233-3.413c0.182-0.875,0.159-1.789-0.005-2.679
		c-3.359,0.731-6.521,0.616-9.551-1.311c-0.002,2.088-0.07,4.018-0.368,5.96c-0.224,1.462-0.4,2.996-0.315,4.507
		c0.08,1.398-0.264,2.721-0.559,4.062c-0.196,0.896-0.657,1.789-0.249,2.77c1.292,0.015,2.648,0.598,3.573-0.855
		c0.186,0.402-0.344,0.533-0.13,0.82c0.695,0.387,1.136-0.493,1.801-0.355C411.853,54.923,411.767,55.043,411.583,55.297z
		 M413.296,33.761c1.786-0.616,3.604-0.697,5.438-0.631c0.771,0.027,1.479,0.199,1.952,1.004c1.747-0.452,3.66-0.065,5.378-0.878
		c-0.063-0.274-0.219-0.307-0.36-0.383c-1.703-0.914-3.622-0.792-5.444-1.084c-1.446-0.232-2.961-0.027-4.416-0.227
		c-2.009-0.275-3.972-0.103-5.922,0.285c-1.604,0.318-3.033,1.142-4.515,1.799c-0.334,0.147-0.811,0.133-0.957,0.601
		c2.238,1.417,4.797,1.728,7.344,2.103c-1.352,0.13-2.678,0.203-4.045,0.034c1.013,1.031,2.039,1.992,3.499,2.253
		c0.974,0.174,1.96,0.383,2.942,0.39c1.509,0.01,3.089-0.087,4.351-0.968c1.447-1.009,3.018-1.769,4.518-2.665
		c0.394-0.234,0.936-0.375,1.118-0.951c-2.288-0.022-4.441,0.267-6.617,1.412c0.655-1.099,1.786-1.054,2.522-1.761
		C417.779,33.092,415.508,33.941,413.296,33.761z M233.589,34.293c0.977,0.905,2.036,1.603,3.039,2.379
		c1.588,1.229,3.408,1.02,4.957,0.448c2.276-0.84,4.525-1.671,6.912-2.129c0.553-0.105,1.191-0.09,1.77-0.739
		c-1.184-0.1-2.181-0.435-3.251-0.48c-1.088-0.046-2.077,0.567-3.392,0.478c1-0.306,1.838-0.38,2.804-0.946
		c-0.959-0.177-1.642-0.353-2.334-0.415c-0.708-0.063-1.427-0.014-2.142-0.014c1.873-0.774,3.893-0.673,5.663,0.181
		c0.872,0.421,1.8,0.712,2.744,0.704c0.981-0.009,2.022-0.072,2.967-0.953c-0.639-0.21-1.149-0.268-1.623-0.42
		c-1.503-0.484-3.004-0.994-4.582-1.198c-2.08-0.27-4.162-0.388-6.262-0.252c-1.31,0.085-2.617,0.026-3.932,0.23
		c-1.977,0.307-3.873,0.809-5.669,1.686c-0.266,0.13-0.646,0.162-0.571,0.57c1.163,0.705,2.389,0.211,3.812,0.178
		C234.083,33.917,233.877,34.074,233.589,34.293z M224.918,32.207c1.631,0,3.196-0.127,4.729,0.042
		c1.165,0.128,2.164-0.143,3.174-0.574c0.828-0.354,1.665-0.674,2.622-0.817c-0.06-1.408,0.188-2.757-0.18-4.051
		c-1.349-0.638-8.93-0.562-10.345,0.111C224.918,28.62,224.918,30.359,224.918,32.207z M431.253,26.338
		c-3.01,0.501-6.161,0.103-9.388,0.591c0.172,1.503-0.253,2.974-0.191,4.374c0.463,0.423,0.908,0.4,1.346,0.382
		c0.562-0.024,1.121,0,1.635,0.246c1.33,0.639,2.709,0.778,4.16,0.55c1.014-0.159,2.062-0.008,3.055-0.233
		C432.65,29.382,432.856,27.906,431.253,26.338z M404.008,67.889c0.235-1.332,0.205-1.94-0.136-3.039
		c-0.681-0.047-1.374-0.096-2.118-0.148c0,0.661-0.013,1.245,0.002,1.829c0.025,1.008,0.228,1.229,1.246,1.352
		C403.312,67.92,403.632,67.889,404.008,67.889z M415.494,68.184c1.996-0.245,1.12-1.854,1.578-2.857
		c-0.486-0.181-0.858-0.397-1.391-0.193C415.672,66.093,415.262,67.029,415.494,68.184z M400.191,155.531
		c0.185-2.353,0.156-4.729,0.029-7.107C400.031,150.783,400.038,153.144,400.191,155.531z M252.066,67.92
		c0.683-0.827,0.693-2.387,0.06-3.31C251.801,65.766,252.176,66.853,252.066,67.92z M399.955,164.124
		c0.126-1.901,0.162-3.802,0.007-5.907C399.798,160.32,399.852,162.222,399.955,164.124z M399.761,171.494c0-0.524,0-0.96,0-1.396
		c0-0.391,0-0.781,0-1.171c-0.074,0.795-0.075,1.59-0.073,2.385C399.688,171.343,399.712,171.375,399.761,171.494z M414.852,67.037
		c-0.203,0.253-0.124,0.501-0.028,0.77C414.97,67.548,414.964,67.302,414.852,67.037z M415.328,64.583
		c0.014,0.01-0.16,0.133,0.036,0.123C415.348,64.651,415.332,64.596,415.328,64.583z"/>
	<path d="M290.214,30.728c-0.84,0.577-1.646,0.722-2.542,0.719c-8.943-0.022-17.889-0.015-26.833-0.01
		c-0.639,0-1.287,0.075-1.574-0.709C269.555,30.728,279.829,30.728,290.214,30.728z"/>
	<path d="M295.059,30.765c-0.992,0.622-1.974,0.805-3.103,0.604C292.904,30.628,293.932,30.687,295.059,30.765z"/>
	<path d="M362.673,30.785c-0.644,0.456-0.644,0.456-2.546,0.372C360.844,30.654,360.844,30.654,362.673,30.785z"/>
	<path d="M356.223,31.288c0.646-0.727,1.283-0.522,2.01-0.562C357.645,31.471,356.964,31.045,356.223,31.288z"/>
	<path d="M301.662,31.091c0.479-0.148,0.956-0.193,1.675-0.039C302.623,31.252,302.145,31.203,301.662,31.091z"/>
	<path d="M353.699,31.094c0.322-0.188,0.597-0.438,1.017-0.262C354.45,31.216,354.105,31.218,353.699,31.094z"/>
	<path d="M298.605,31.013c-0.568,0.257-0.896,0.139-1.227,0.103C297.697,30.932,298.027,30.933,298.605,31.013z"/>
	<path d="M306.934,31.041c-0.49,0.233-0.817,0.112-1.408,0.151C306.115,30.881,306.443,30.982,306.934,31.041z"/>
	<path d="M258.074,30.876c0.052-0.155,0.14-0.242,0.309-0.167c0.021,0.009,0.042,0.067,0.033,0.092
		C258.344,30.998,258.211,30.944,258.074,30.876z"/>
	<path d="M180.938,109.482c0.634-0.074,0.885,0.255,0.648,0.773c-0.498,1.09-1.292,1.964-2.49,2.246
		c-0.858,0.202-1.534-0.32-2.04-0.985c-0.484-0.636-0.829-1.358-1.118-2.102c-0.201-0.517-0.37-1.047-0.584-1.559
		c-0.495-1.188-1.009-2.427-0.522-3.687c0.703-1.82,1.554-3.603,3.187-4.816c1.343-0.999,3.089-0.693,4.08,0.661
		c-0.15,0.5-0.423,0.55-0.901,0.345c-1.82-0.782-2.583-0.549-3.7,1.053c-0.068,0.098-0.143,0.192-0.212,0.29
		c-1.393,1.955-2.149,3.95-0.742,6.276c0.418,0.691,0.564,1.559,0.976,2.288c0.817,1.447,1.852,1.477,2.802,0.083
		C180.523,110.056,180.641,109.703,180.938,109.482z"/>
	<path d="M244.081,50.476c-0.209,0.224-0.431,0.12-0.681,0.126C243.615,50.269,243.863,50.502,244.081,50.476z"/>
	<path d="M241.318,45.76c-0.292,0.127-0.363-0.104-0.486-0.273C241.107,45.397,241.214,45.567,241.318,45.76z"/>
	<path d="M246.304,50.053c-0.183,0.13-0.354,0.142-0.523-0.026C245.963,49.917,246.137,49.863,246.304,50.053z"/>
	<path d="M238.044,42.925c0.287-0.208,0.628-0.208,0.958-0.252l0.05,0.062c-0.296,0.406-0.688,0.158-1.045,0.154L238.044,42.925z"/>
	<path d="M242.275,50.624c-0.281,0.334-0.487,0.196-0.758,0.248C241.768,50.533,241.979,50.727,242.275,50.624z"/>
	<path d="M239.816,51.235c-0.172,0.087-0.338,0.095-0.338,0.006C239.478,51.139,239.633,51.163,239.816,51.235z"/>
	<path d="M240.407,51.022c0.115-0.159,0.252-0.142,0.408-0.072C240.718,51.22,240.562,51.093,240.407,51.022z"/>
	<path d="M245.136,50.258c-0.134,0.18-0.279,0.165-0.444,0.043C244.825,50.114,244.972,50.144,245.136,50.258z"/>
	<path d="M238.006,42.889c0.12,0.3-0.102,0.344-0.305,0.415c-0.184-0.411,0.205-0.278,0.342-0.378L238.006,42.889z"/>
	<path d="M242.222,46.738c-0.022-0.405,0.105-0.448,0.338-0.314C242.575,46.624,242.45,46.691,242.222,46.738z"/>
	<path d="M410.218,50.362c0.904,0,1.809,0,2.711,0c-0.004,0.094-0.008,0.187-0.011,0.28c-0.885-0.195-1.811,0.335-2.669-0.306
		L410.218,50.362z"/>
	<path d="M416.254,43.061c-0.66,0.091-1.32,0.204-2.092,0.062C414.921,42.804,415.592,43.081,416.254,43.061z"/>
	<path d="M409.307,42.643c0.593,0.231,1.238-0.045,1.828,0.211c-0.61-0.001-1.261,0.385-1.812-0.197L409.307,42.643z"/>
	<path d="M410.249,50.337c-0.371,0.051-0.741,0.091-1.173-0.037c0.438-0.179,0.801-0.201,1.142,0.062L410.249,50.337z"/>
	<path d="M412.923,42.819c-0.339,0.217-0.597,0.084-0.921,0.144C412.287,42.601,412.552,42.731,412.923,42.819z"/>
	<path d="M415.178,50.646c-0.399,0.036-0.451-0.194-0.385-0.512c0.086,0.203,0.369,0.274,0.356,0.542L415.178,50.646z"/>
	<path d="M415.149,50.675c0.235,0,0.474,0,0.767,0c-0.304,0.319-0.524,0.196-0.738-0.03L415.149,50.675z"/>
	<path d="M409.321,42.657c-0.108-0.143-0.248,0.009-0.366-0.041c0.118-0.005,0.226,0.15,0.352,0.026L409.321,42.657z"/>
	<path d="M309.045,201.111c-0.544-0.327-1.208-0.383-1.742-0.832c0.689-0.576,1.477-0.991,2.075-1.639
		c0.983-1.062,1.672-2.179,0.7-3.576c0.551-0.879,0.597-1.766,0.297-2.891c-0.639-2.4-2.32-3.69-4.632-4.36
		c0-0.807,0.019-1.565-0.004-2.321c-0.037-1.338-0.478-1.803-1.771-2.144c-0.646-0.169-1.353-0.137-1.936-0.523
		c-0.354-1.109-0.583-1.327-1.776-1.356c-0.882-0.022-1.717-0.209-2.612-0.388c-0.164-1.491,0.156-3.004-0.543-4.373
		c-0.817-0.093-1.57-0.085-2.427-0.004c-0.966,1.45-0.055,3.178-0.505,4.588c-1.306,0.644-3.428-0.27-3.372,2.182
		c-2.471,0.398-2.471,0.398-2.888,3.755c-1.658,1.318-3.301,2.716-4.778,4.293c-1.177,1.254-2.344,2.516-3.518,3.772
		c-0.827,0.885-1.755,1.642-2.939,1.979c-1.562,0.444-3.159,0.73-4.763,0.985c-1.923,0.306-3.852,0.558-5.784,0.79
		c-2.175,0.264-4.358,0.417-6.533,0.657c-1.866,0.207-3.745,0.151-5.609,0.407c-1.004,0.139-2.044,0.154-3.129,0.02
		c-0.308-18.719-0.614-37.369-0.92-56.064c1.126-0.103,1.334-0.82,1.323-1.708c-0.072-5.439,0.382-10.869,0.256-16.31
		c-0.075-3.235,0.298-6.468,0.065-9.708c-0.075-1.048-0.06-2.056-1.477-2.083c-0.025-0.346-0.056-0.582-0.058-0.818
		c-0.109-9.596-0.285-19.191-0.22-28.789c0.01-1.471-0.025-2.927-0.286-4.398c-0.412-2.33-0.162-4.706-0.184-7.062
		c-0.007-0.713-0.047-1.399-0.238-2.114c-0.237-0.887-0.476-1.864,0.073-2.771l-0.018,0.024c-0.463-1.031,0.286-2.051-0.031-3.142
		c-0.28-0.963,0.259-1.975,0.321-3.212c0.869,0.897,1.567,0.781,2.345,0.228c-0.211-1.024,0.357-2.016,0.065-3.112
		c-4.833,0.364-9.609,0.725-14.423,1.087c-0.062,1.2-0.117,2.259-0.167,3.226c0.343,0.408,0.782-0.137,1.025,0.408
		c0.058-0.383,0.099-0.652,0.142-0.934c0.193,0.87-0.11,1.712,0.001,2.59c0.276,2.168,0.487,4.351,0.573,6.534
		c0.068,1.713,0.239,3.418,0.338,5.127c0.072,1.229,0.006,2.483,0.231,3.692c0.39,2.093,0.428,4.194,0.422,6.309
		c-0.011,4.313,0.041,8.626,0.141,12.939c0.116,5.019,0.084,10.041,0.117,15.061c0.012,0,0.021,0.008,0.034,0.007
		c-0.003,0.017-0.004,0.034-0.007,0.051c0.417,0.406,0.916,0.513,1.494,0.469c2.43-0.185,4.863-0.287,7.301-0.226
		c0.395,0.01,0.799-0.075,1.17,0.083c0.374,0.361,0.293,0.818,0.301,1.25c0.12,6.551-0.296,13.094-0.286,19.645
		c0.003,2.068-0.217,4.14-0.19,6.369c-3.62-0.15-7.174-0.298-10.753-0.447c0-2.006-0.008-3.908,0.006-5.81
		c0.003-0.437,0.128-0.875,0.12-1.31c-0.062-3.356,0.175-6.707,0.334-10.052c0.158-3.323-0.062-6.669,0.502-9.972
		c-0.009-0.009-0.019-0.013-0.027-0.021c0-0.012,0-0.024,0-0.037c-0.314,0.007-0.482-0.404-0.884-0.287
		c-0.074,0.081-0.264,0.191-0.27,0.311c-0.498,9.288-0.75,18.584-1.084,27.66c0.75,1.082,1.754,0.428,2.708,0.958
		c-0.362,19.011-0.216,38.136-0.269,57.419c-3.232,0.242-6.331,0.759-9.435,0.646c-0.521-0.568-0.844-1.158-1.182-1.747
		c-1.091-1.896-2.029-3.892-3.368-5.637c-3.496-4.555-6.997-9.107-10.538-13.629c-2.129-2.719-3.782-5.659-4.789-8.981
		c-0.897-2.959-1.964-5.863-3.105-8.74c-2.037-5.135-5.001-9.593-9.311-13.117c-3.558-2.909-7.362-5.44-11.388-7.647
		c-0.312-0.171-0.652-0.298-0.896-0.583c-1.636-1.915-3.419-3.685-5.339-5.296c0.294-4.211,0.696-8.329,1.308-12.42
		c0.307-2.05,1.345-2.999,3.355-3.317c1.725-0.272,3.455-0.528,5.189-0.724c1.945-0.22,3.41-1.26,4.662-2.645
		c1.103-1.219,0.958-2.692,0.757-4.194c-0.198-1.488-0.049-2.938,0.94-4.196c0.443-0.564,0.652-1.261,0.905-1.932
		c0.488-1.296,0.507-2.643,0.461-3.958c1.274-1.143,2.961-1.695,3.889-3.203c-1.022-1.467-1.699-3.042-2.469-4.57
		c-0.438-0.87-0.527-1.693-0.126-2.61c0.601-1.375,0.876-2.849,0.562-4.317c-0.621-2.902-1.236-5.81-2.109-8.65
		c-0.724-2.356-1.491-4.68-3.091-6.66c-1.889-2.337-4.161-4.194-6.744-5.66c-3.404-1.931-7.055-3.067-11.013-3.083
		c-2.355-0.01-4.691,0.081-7.027,0.469c-4.754,0.79-9.248,2.247-13.326,4.86c-2.737,1.754-5.019,3.951-6.401,6.943
		c-1.653,3.578-2.899,7.262-3.295,11.238c-0.34,3.418,0.173,6.658,1.371,9.82c0.814,2.15,1.726,4.263,2.603,6.39
		c0.745,1.804,1.456,3.648,1.571,5.593c0.265,4.47-1.531,8.131-4.821,11.069c-1.753,1.565-3.725,2.86-5.615,4.254
		c-2.665,1.966-5.415,3.827-7.732,6.22c-0.424,0.438-0.885,0.775-1.419,1.059c-4.857,2.577-8.237,6.411-9.96,11.677
		c-0.515,1.574-0.782,3.157-0.678,4.808c0.024,0.394,0.05,0.789-0.089,1.184c-1.137,3.223-2.025,6.515-2.408,9.914
		c-0.222,1.977-0.446,3.956-0.232,5.97c0.278,2.616,0.39,5.249,0.588,7.874c0.162,2.145,0.277,4.296,0.54,6.429
		c0.339,2.756,0.637,5.518,1.118,8.258c0.534,3.043,1.083,6.078,2.129,8.994c1.663,4.631,3.728,9.103,5.512,13.686
		c2.487,6.389,5.264,12.685,5.686,19.691c0.176,2.926,0.241,5.836-0.196,8.715c-0.433,2.854-1.18,5.656-1.728,8.494
		c-0.664,3.437-1.156,6.901-1.516,10.381c-0.354,3.422-0.366,6.858-0.257,10.295c0.013,0.397,0.052,0.798,0.12,1.188
		c0.268,1.562,0.534,3.124,0.834,4.681c0.667,3.461,1.235,6.939,2.12,10.355c0.755,2.915,1.466,5.839,1.994,8.809
		c0.562,3.155,1.25,6.291,1.834,9.442c0.533,2.884,0.995,5.78,1.5,8.669c0.451,2.58,0.923,5.155,1.374,7.735
		c0.276,1.575,0.466,3.172,0.247,4.759c-0.41,2.971-0.611,5.955-0.66,8.946c-0.097,5.956,0.311,11.893,0.654,17.836
		c0.23,3.973,0.336,7.975-0.408,11.938c-0.532,2.833-1.357,5.527-2.896,7.997c-2.137,3.429-4.657,6.57-7.135,9.746
		c-2.844,3.646-5.648,7.32-7.808,11.431c-0.698,1.328-1.488,2.621-1.869,4.099c0.4,0,0.8,0,1.2,0
		c0.521-1.901,1.574-3.551,2.54-5.231c2.31-4.02,5.223-7.612,8.057-11.263c2.419-3.115,4.886-6.199,6.777-9.684
		c1.225-2.257,1.817-4.719,2.285-7.214c0.636-3.395,0.589-6.83,0.453-10.254c-0.103-2.587-0.382-5.17-0.442-7.764
		c-0.006-0.269-0.079-0.55,0.101-0.853c0.583,0.145,1.027,0.564,1.544,0.84c3.424,1.818,7.074,2.966,10.88,3.647
		c4.014,0.721,8.07,0.854,12.135,0.984c4.227,0.135,8.447,0.436,12.672,0.64c1.025,0.05,2.055,0.008,3.223,0.008
		c-0.489,1.29-1.257,2.155-1.912,3.081c-1.401,1.981-2.823,3.948-4.282,5.889c-1.506,2.001-2.309,4.321-3.14,6.636
		c-0.776,2.16-1.421,4.381-2.437,6.438c-1.829,3.702-3.793,7.348-6.21,10.701c-1.211,1.681-2.856,3.011-4.345,4.46
		c-2.564,2.495-4.734,5.271-6.15,8.585c-0.046,0.107-0.045,0.233-0.067,0.353c0.4,0,0.8,0,1.2,0c0.548-1.817,1.641-3.32,2.753-4.816
		c1.079-1.451,2.348-2.734,3.685-3.927c3.175-2.83,5.372-6.332,7.501-9.968c2.269-3.872,3.906-7.965,5.319-12.181
		c0.907-2.706,2.245-5.158,4.012-7.396c1.604-2.031,3.084-4.154,4.535-6.297c0.18-0.266,0.336-0.541,0.635-0.754
		c0.911-0.097,1.883,0.097,2.831-0.317c0.412,0.823-0.062,1.521-0.195,2.207c-0.66,3.402-1.907,6.614-3.423,9.715
		c-1.567,3.204-2.387,6.531-2.218,10.125c0.176,3.752,0.107,7.517,0.325,11.265c0.238,4.116,0.152,8.229,0.16,12.345
		c0.4,0,0.8,0,1.2,0c-0.007-2.278,0.036-4.559-0.03-6.834c-0.173-5.952-0.411-11.901-0.495-17.857
		c-0.04-2.824,0.567-5.417,1.75-7.938c1.198-2.552,2.34-5.126,3.101-7.854c1.077-3.856,1.71-7.812,2.627-11.706
		c0.926-3.928,1.61-7.917,2.808-11.776c1.772-5.711,3.694-11.377,5.219-17.164c1.031-3.911,1.993-7.833,2.549-11.849
		c0.322-2.315,0.768-4.613,1.111-6.928c0.297-2.003,0.562-4.013,0.777-6.025c0.182-1.701,0.378-3.4,0.558-5.103
		c0.285-2.696,0.518-5.396,0.644-8.101c0.104-2.234-0.166-4.446-0.424-6.672c-0.418-3.599-0.561-7.226-0.981-10.83
		c-0.337-2.881-0.815-5.727-1.616-8.514c-1.256-4.378-2.35-8.798-3.177-13.273c-0.729-3.94-1.283-7.912-1.779-11.895
		c-0.389-3.127-0.654-6.263-0.856-9.398c-0.345-5.346-0.321-10.707-0.285-16.064c0.002-0.329-0.093-0.695,0.132-0.971
		c0.996,0.939,1.926,1.859,2.901,2.73c4.964,4.432,9.337,9.407,13.551,14.538c1.875,2.284,3.814,4.519,5.772,6.73
		c1.457,1.646,3.268,2.758,5.418,3.31c3.367,0.864,6.713,0.52,10.051-0.145c1.888-0.374,3.761-0.819,5.799-1.268
		c0.143,2.735,0.058,5.377,0.062,8.049c-0.626,0.099-1.124,0.146-1.419,0.726c-0.06,1.147-0.171,2.384-0.183,3.621
		c-0.057,6.358-0.099,12.717-0.122,19.073c-0.009,2.64,0.035,5.278,0.07,7.918c0.017,1.26,0.306,1.545,1.534,1.615
		c0.275,0.016,0.567-0.029,0.833,0.312c0.092,2.466,0.083,5.02,0.222,7.568c0.293,5.395-0.081,10.793-0.245,16.186
		c-0.119,3.912-0.305,7.822-0.434,11.736c-0.093,2.836-0.193,5.671-0.291,8.507c-0.16,4.632-0.396,9.262-0.431,13.897
		c-0.007,0.919-0.053,1.838-0.11,2.755c-0.136,2.197-0.322,4.422-0.035,6.589c0.286,2.16-0.128,4.2-0.44,6.274
		c-0.325,2.151-0.767,4.284-1.134,6.43c-0.165,0.966,0.01,1.992-0.395,2.92c-0.213,0.065-0.364,0.105-0.51,0.159
		c-2.922,1.077-5.497,2.709-7.65,4.955c-3.693,3.854-5.164,8.59-5.265,13.812c-0.03,1.547,0.202,3.091,0.404,4.634
		c0.362,2.771,1.056,5.443,2.208,7.979c2.574,5.66,7.194,8.479,13.179,9.36c2.343,0.346,4.7,0.241,7.055,0.248
		c2.969,0.007,5.756-0.752,8.326-2.161c5.799-3.181,8.749-8.301,9.518-14.721c0.39-3.257,0.112-6.521-0.683-9.724
		c-1.288-5.192-3.987-9.42-8.472-12.423c-1.758-1.177-3.703-1.976-5.926-2.72c0.125-10.933,0.258-21.895,0.233-32.749
		c0.589-0.359,1.185-0.238,1.692-0.801c-0.049-27.225,0.12-54.589-0.275-81.811c-0.698-0.539-1.375-0.106-2.023-0.553
		c0.277-3.303-0.078-6.693,0.457-10.037c0.201-0.173,0.416-0.25,0.654-0.313c5.546-1.489,10.973-3.351,16.363-5.318
		c4.401-1.604,8.933-2.711,13.537-3.526c1.759-0.312,3.536-0.547,5.313-0.729c1.918-0.196,3.813,0.104,5.664,0.589
		c0.594,0.155,1.316-0.137,1.801,0.481c0.09,1.184,0.246,2.376,0.26,3.569c0.062,5.557,0.316,11.106,0.471,16.659
		c0.147,5.313,0.319,10.625,0.475,15.938c0.164,5.712,0.32,11.425,0.49,17.138c0.16,5.394,0.352,10.786,0.457,16.179
		c0.142,7.154,0.428,14.305,0.543,21.459c0.106,6.715,0.254,13.431,0.534,20.139c0.104,2.477,0.022,4.961,0.24,7.428
		c0.272,3.109,0.172,6.229,0.381,9.341c0.228,3.387,0.213,6.789,0.315,10.186c0.015,0.478,0.109,0.952,0.133,1.431
		c0.039,0.862,0.195,1.733-0.073,2.559c-2.212,0.621-2.75,1.392-2.735,3.719c0.016,2.679,0.088,5.361-0.035,8.035
		c-0.088,1.914,0.843,2.683,2.723,2.815c0.99,0.071,1.979,0.171,2.988,0.259c0.31,0.806,0.346,1.594,0.312,2.39
		c-0.023,0.564,0.104,1.049,0.686,1.257c0.755,0.271,1.521,0.461,2.213,0c0.719-1.255,0.052-2.644,0.49-3.889
		c1.42-0.026,2.733-0.049,4.047-0.229c0.716-0.099,1.193-0.412,1.524-0.988c0.38-0.661,0.609-1.387,0.61-2.154
		c0.001-2.757,0.165-5.513,0.054-8.271c-0.083-2.031-0.235-2.242-2.2-2.784c-0.103-0.027-0.188-0.12-0.328-0.215
		c0-0.308-0.004-0.626,0-0.943c0.15-13.877,0.127-27.756,0.064-41.633c-0.039-8.675-0.307-17.348-0.453-26.021
		c-0.04-2.318-0.045-4.637-0.158-6.954c-0.232-4.755-0.01-9.515-0.266-14.271c-0.232-4.353,0.009-8.716-0.229-13.072
		c-0.244-4.473-0.063-8.953-0.224-13.433c-0.229-6.472-0.241-12.95-0.327-19.428c-0.031-2.358,0.006-4.72-0.152-7.074
		c-0.02-0.276-0.08-0.56,0.162-0.925c1.014-0.646,2.516-0.105,3.51-0.932c0.197-0.659-0.26-1.102-0.188-1.633
		c0.165-1.24-0.47-2.047-1.486-2.627c-0.254-0.146-0.573-0.205-0.709-0.517c0.232-0.196,0.487-0.267,0.77-0.329
		c1.084-0.241,2.15-0.562,3.157-1.025c0.522-0.24,1.094-0.492,1.185-1.225C310.702,202.961,310.074,201.73,309.045,201.111z
		 M251.156,59.611c0.027,0.952,0.127,1.652-0.281,2.368C250.294,61.142,250.341,60.52,251.156,59.611z M248.889,112.999
		c-0.007,0.356-0.001,0.713-0.001,1.278c-2.528-0.146-4.898,0.243-7.244,0.216c-0.342-0.412-0.212-0.828-0.218-1.21
		c-0.106-7.592-0.215-15.183-0.289-22.775c-0.036-3.659-0.406-7.325-1-10.962c-0.449-2.752-0.67-5.531-0.472-8.352
		c0.13-1.849-0.138-3.732-0.316-5.592c-0.143-1.494,0.101-2.996-0.386-4.429c1.718-0.411,7.937-0.609,9.906-0.348
		c0.075,0.998-0.514,1.871-0.579,2.846c-0.095,1.419-0.293,2.832-0.175,4.261c0.046,0.556,0.059,1.117,0.043,1.675
		c-0.017,0.606,0.016,1.202,0.293,1.746c0.132,0.259,0.214,0.51,0.207,0.795c-0.104,4.155,0.427,8.295,0.25,12.454
		C248.508,94.064,249.079,103.532,248.889,112.999z M248.803,67.208c-0.002,0.052-0.035,0.103-0.085,0.237
		c0.019-0.186,0.029-0.285,0.039-0.383C248.773,67.111,248.804,67.16,248.803,67.208z M293.538,184.875
		c2.31-0.302,4.552,0.241,6.843,0.133c0.135,0.409,0.171,0.639,0.001,0.981c-2.202-0.002-4.446,0.375-6.758,0.229
		C293.428,185.771,293.489,185.353,293.538,184.875z M248.986,163.19c0.012,0.009,0.034,0.016,0.036,0.025
		c0.009,0.079,0.018,0.158,0.021,0.237c0.461,12.146,0.403,24.302,0.735,36.45c0.001,0.039,0.003,0.078-0.001,0.117
		c-0.005,0.039-0.014,0.08-0.03,0.115c-0.017,0.035-0.041,0.07-0.07,0.096c-0.059,0.053-0.12,0.104-0.188,0.144
		c-0.03,0.019-0.078,0.011-0.117,0.011c-0.039-0.001-0.078-0.008-0.22-0.021C248.737,198.74,248.619,170.357,248.986,163.19z
		 M241.705,144.248c0.001-0.108,0.084-0.216,0.171-0.428c1.957-0.284,3.915,0.406,6.039,0.102
		c0.146,18.936-0.541,37.728-0.063,56.633c-2.125,0.186-4.099,0.356-6.056,0.527c-0.051-0.032-0.087-0.05-0.116-0.074
		c-0.031-0.025-0.06-0.055-0.081-0.089c-0.042-0.065-0.114-0.137-0.113-0.204C241.837,181.894,241.57,163.07,241.705,144.248z
		 M146.985,123.478c0.028-0.395,0.318-0.599,0.623-0.817c2.174-1.566,3.851-3.534,5.074-5.943c1.752-3.452,2.029-6.943,0.759-10.603
		c-0.963-2.776-2.114-5.475-3.255-8.176c-1.952-4.62-2.099-9.342-0.852-14.125c0.761-2.92,1.717-5.811,3.373-8.355
		c1.968-3.024,4.858-5.042,8.074-6.562c3.534-1.669,7.256-2.708,11.151-3.184c2.706-0.331,5.411-0.573,8.104-0.164
		c3.743,0.569,7.195,1.95,10.258,4.211c3.111,2.296,5.643,5.044,6.709,8.887c0.508,1.83,1.008,3.662,1.479,5.501
		c0.334,1.302,0.644,2.612,0.911,3.929c0.316,1.563,0.128,3.101-0.507,4.554c-0.396,0.907-0.329,1.706,0.047,2.611
		c0.656,1.577,1.529,3.046,2.237,4.628c-0.77,0.821-1.698,1.364-2.606,1.916c-0.801,0.486-1.167,1.062-1.043,2.056
		c0.224,1.803-0.273,3.464-1.355,4.93c-0.54,0.732-0.824,1.522-0.805,2.44c0.026,1.279-0.013,2.56,0.018,3.838
		c0.015,0.64-0.201,1.15-0.607,1.625c-1.256,1.469-2.844,2.209-4.767,2.393c-1.656,0.159-3.312,0.399-4.941,0.734
		c-1.925,0.396-3.213,1.597-3.583,3.555c-0.485,2.577-0.773,5.185-1,7.799c-0.096,1.112-0.274,2.216-0.266,3.339
		c0.002,0.307-0.054,0.637-0.378,0.912c-1.506-0.993-2.973-2.073-4.549-2.993c-3.166-1.848-6.553-3.032-10.18-3.475
		c-1.461-0.179-2.958-0.254-4.425-0.164c-2.64,0.163-5.276,0.099-7.915,0.103c-1.156,0.002-2.273-0.272-3.365-0.686
		C147.235,127.368,146.86,125.206,146.985,123.478z M131.706,134.79c-2.554,3.51-5.336,6.846-7.232,10.911
		C124.343,142.6,128.001,136.858,131.706,134.79z M141.35,310.619c-0.604-3.347-1.202-6.694-1.831-10.036
		c-0.651-3.456-1.352-6.903-2.001-10.36c-0.439-2.336-1.188-4.594-1.692-6.912c-0.721-3.326-1.277-6.687-1.963-10.018
		c-0.581-2.822-0.885-5.652-0.903-8.521c-0.011-1.637,0.319-3.258,0.25-4.901c-0.017-0.397,0.137-0.774,0.384-1.272
		c2.654,2.391,5.5,4.272,8.531,5.883c0.054,1.434-0.4,2.72-0.619,4.033c-0.384,2.309-0.908,4.608-0.959,6.948
		c-0.039,1.743,0.132,3.507,0.384,5.235c0.514,3.527,1.196,7.027,2.121,10.476c0.481,1.793,1.196,3.521,1.535,5.353
		c0.472,2.549,0.775,5.088,0.464,7.707c-0.415,3.509-1.169,6.952-1.715,10.435c-0.117,0.745-0.205,1.495-0.283,2.246
		c-0.034,0.327-0.097,0.625-0.419,0.94C142.199,315.396,141.781,313.007,141.35,310.619z M188.553,346.006
		c-0.138,0.655-0.263,1.312-0.405,1.966c-0.287,1.321-0.726,1.678-2.12,1.729c-0.236,0.009-0.478,0.048-0.812-0.163
		c1.45-2.455,2.812-4.972,3.952-7.6c0.077,0.018,0.154,0.035,0.231,0.055C189.116,343.33,188.833,344.668,188.553,346.006z
		 M201.533,262.223c0.152,1.336,0.273,2.694,0.344,4.051c0.107,2.062,0.299,4.123,0.606,6.174c0.153,1.02,0.116,2.07,0.122,3.109
		c0.018,3.512-0.334,6.996-0.697,10.487c-0.305,2.927-0.646,5.851-1.046,8.763c-0.458,3.336-0.983,6.664-1.564,9.982
		c-1.548,8.845-4.233,17.377-7.094,25.854c-1.481,4.39-2.969,8.788-4.995,12.974c-0.916,1.893-1.889,3.754-3.156,5.58
		c-1.755-0.317-3.525-0.062-5.257-0.273c-2.389-0.294-4.789-0.214-7.179-0.348c-2.747-0.152-5.506-0.251-8.259-0.357
		c-5.824-0.226-11.539-1.098-16.894-3.589c-1.085-0.505-2.126-1.091-3.132-1.739c-0.543-0.351-0.8-0.796-0.794-1.487
		c0.032-3.8-0.037-7.599,0.037-11.396c0.035-1.827,0.094-3.702,0.522-5.464c0.55-2.26,0.421-4.57,0.873-6.827
		c0.528-2.643,0.808-5.335,1.353-7.974c0.729-3.532,1.078-7.084,0.806-10.677c-0.165-2.181-0.817-4.273-1.466-6.357
		c-1.251-4.02-2.073-8.128-2.622-12.301c-0.176-1.344-0.356-2.688-0.427-4.033c-0.12-2.28,0.465-4.497,0.799-6.734
		c0.163-1.096,0.43-2.176,0.603-3.271c0.063-0.402,0.173-0.769,0.396-1.183c1.286,0.496,2.562,1.013,3.855,1.482
		c3.257,1.188,6.613,1.852,10.073,2.176c3.331,0.312,6.611,0.051,9.911-0.266c8.079-0.771,15.943-2.538,23.64-5.07
		c3.543-1.166,7.032-2.476,10.089-4.693C201.609,259.904,201.406,261.107,201.533,262.223z M195.553,232.468
		c0.999,6.878,2.662,13.595,4.468,20.287c0.33,1.222,0.545,2.476,0.83,3.709c0.162,0.701-0.229,1.14-0.692,1.538
		c-1.064,0.918-2.296,1.578-3.564,2.148c-4.42,1.988-9.043,3.379-13.729,4.578c-3.376,0.863-6.79,1.569-10.225,2.119
		c-4.925,0.789-9.898,1.303-14.887,0.969c-4.948-0.332-9.684-1.629-14.156-3.825c-3.126-1.535-6.052-3.376-8.693-5.654
		c-0.421-0.362-0.812-0.76-1.237-1.159c-0.067-1.934,0.344-3.687,0.592-5.453c0.613-4.356,1.836-8.604,2.454-12.955
		c0.357-2.52,0.358-5.078,0.125-7.648c-0.259-2.855-0.649-5.668-1.428-8.426c-1.22-4.318-2.969-8.445-4.611-12.611
		c-1.773-4.498-3.817-8.891-5.394-13.463c-1.035-3-1.572-6.123-2.077-9.254c-0.481-2.984-0.782-5.989-1.129-8.987
		c-0.261-2.255-0.355-4.529-0.531-6.793c-0.132-1.708-0.27-3.417-0.414-5.124c-0.125-1.478-0.149-2.964-0.026-4.432
		c0.299-3.568,1.033-7.053,2.122-10.473c1.613-5.07,4.14-9.621,7.484-13.744c1.987-2.45,3.836-5.026,6.204-7.133
		c2.653-2.36,5.575-4.379,8.474-6.422c0.057-0.04,0.152-0.024,0.307-0.045c0.23,0.457,0.063,0.987,0.191,1.472
		c0.567,2.153,2.018,3.388,4.1,3.887c2.465,0.591,4.988,0.65,7.496,0.387c8.13-0.854,15.342,1.3,21.686,6.441
		c1.646,1.333,3.263,2.69,4.762,4.353c-0.526,0.062-0.821-0.212-1.144-0.383c-2.362-1.25-4.534-2.809-6.813-4.194
		c-2.18-1.327-4.55-2.109-7.13-1.992c-2.657,0.12-4.859,1.178-6.292,3.502c-1.719,2.792-2.734,5.893-3.778,8.974
		c-1.069,3.156-1.902,6.386-2.33,9.686c-0.508,3.917-0.696,7.852,0.633,11.693c0.665,1.923,1.79,3.554,3.127,5.038
		c4.208,4.667,9.414,7.668,15.543,9.001c1.662,0.361,3.389,0.574,5.099,0.088c0.183-0.052,0.394-0.007,0.719-0.007
		c3.242,5.701,7.36,10.812,11.773,15.716c0,2.931-0.06,5.849,0.015,8.765c0.107,4.191,0.205,8.389,0.506,12.569
		C194.303,223.646,194.913,228.059,195.553,232.468z M239.426,225.184c2.283-0.77,4.715-1.209,7.179-1.873
		c0.203,1.602-0.145,9.258-0.447,9.969c-2.152-0.032-4.331,0.115-6.471,0.268C239.257,232.684,239.116,227.838,239.426,225.184z
		 M246.772,316.095c0.352,1.283,0.254,31.515-0.1,32.484c-0.32,0.054-0.607-0.081-0.915-0.176c0-1.032-0.076-2.066,0.013-3.086
		c0.416-4.776,0.478-9.562,0.46-14.35c-0.017-4.592-0.008-9.184,0.005-13.774C246.238,316.775,246.043,316.196,246.772,316.095z
		 M236.978,348.764c0.348-3.597,1.201-7.113,1.762-10.677c0.222-1.412,0.116-2.854,0.067-4.292
		c-0.151-4.397,0.092-8.795,0.226-13.189c0.188-6.229,0.335-12.463,0.671-18.688c0.123-2.273,0.138-4.555,0.205-6.83
		c0.105-3.555,0.35-7.105,0.337-10.667c-0.006-1.756,0.225-3.515,0.201-5.271c-0.045-3.355-0.193-6.711-0.307-10.064
		c-0.026-0.793-0.111-1.587,0.208-2.473c1.711,0.128,3.434,0.257,5.205,0.39c0.15,1.695,0.035,3.248,0.007,4.798
		c-0.095,5.199,0.086,10.399-0.12,15.598c-0.251,6.315-0.015,12.638-0.182,18.953c-0.289,10.955-0.11,21.913-0.243,32.868
		c-0.04,3.306-0.252,6.619-0.623,9.915c-0.195,1.736,0.102,3.514-0.449,5.412c-2.373-0.408-4.611,0.002-6.718,0.896
		c-0.131-0.12-0.232-0.168-0.237-0.226C236.791,353.067,236.771,350.91,236.978,348.764z M249.615,357.056
		c2.62,1.141,4.5,3.035,5.422,5.728c1.506,4.39,1.848,8.871,0.322,13.325c-1.555,4.54-4.685,7.358-9.502,8.156
		c-0.312,0.053-0.615,0.194-0.926,0.208c-0.718,0.031-1.438,0.011-2.157,0.011c-3.365,0.066-6.441-0.755-9.072-2.962
		c-2-1.68-3.182-3.864-3.752-6.346c-0.834-3.631-0.668-7.253,0.433-10.834c1.82-5.92,7.812-9.224,12.771-8.722
		C245.379,355.846,247.553,356.159,249.615,357.056z M248.428,235.855c-0.014,0.03-0.021,0.074-0.046,0.09
		c-0.015,0.01-0.083-0.022-0.083-0.034C248.304,235.805,248.351,235.785,248.428,235.855z M248.108,265.309
		c0.02-8.113,0.041-16.228,0.061-24.342c0.003-1.395,0-2.789,0.136-4.191c0.288,0.523,0.252,1.086,0.259,1.64
		c0.167,13.351,0.055,26.7,0.084,40.05c0.023,10.633,0.024,21.266,0.043,31.897c0.001,1.039,0.059,2.077,0.078,3.115
		c0.008,0.436,0.08,0.884-0.192,1.337c-0.711,0.12-1.454,0.106-2.339,0.043c0.185-15.883,0.369-31.728,0.554-47.652
		C248.213,267.162,248.105,266.202,248.108,265.309z M305.641,365.412c0.254,0.771,0.559,1.605,0.196,2.437
		c-0.159,0.366-0.56,0.436-0.925,0.437c-0.678,0.002-1.354-0.027-2.031-0.039c-1.913-0.032-3.824-0.062-5.736-0.093
		c-1.149-0.021-1.387-0.242-1.438-1.398c-0.021-0.478-0.009-0.956,0.007-1.434c0.004-0.107,0.087-0.213,0.175-0.41
		c0.803-0.194,1.561-0.088,2.312-0.089c2.032-0.005,4.063,0.016,6.097,0.027C304.825,364.853,305.46,364.869,305.641,365.412z
		 M304.404,291.271c0.566,20.907,0.445,41.816,0.346,62.729c-0.014,2.798-0.084,5.596-0.13,8.394
		c-0.005,0.274,0.045,0.562-0.245,0.96c-2.365-0.145-4.75-0.221-7.221-0.231c-0.098-2.035-0.205-3.979-0.281-5.925
		c-0.232-5.95-0.458-11.9-0.682-17.852c-0.088-2.396-0.172-4.795-0.244-7.188c-0.295-9.829-0.617-19.657-0.817-29.489
		c-0.136-6.671-0.338-13.345-0.595-20.016c-0.137-3.553-0.245-7.109-0.321-10.666c-0.098-4.514-0.192-9.028-0.409-13.54
		c-0.15-3.113-0.182-6.233-0.242-9.349c-0.074-3.836-0.248-7.67-0.33-11.507c-0.129-5.991-0.381-11.981-0.502-17.975
		c-0.037-1.791-0.266-3.578-0.125-5.503c3.485,0.085,6.897-0.295,10.223-1.348c0.328,0.606,0.267,1.131,0.273,1.635
		c0.108,7.916,0.168,15.832,0.328,23.748c0.18,8.912,0.295,17.828,0.473,26.742C304.077,273.684,304.166,282.479,304.404,291.271z
		 M309.414,204.092c-2.191,1.219-4.758,1.413-7.118,2.102c-0.302,0.791,0.112,1.063,0.687,1.134
		c0.802,0.096,1.543,0.346,2.271,0.666c0.482,0.212,0.912,0.485,1.211,0.97c0.033,0.575,0.07,1.171-0.029,1.758
		c-0.426,0.455-1.002,0.248-1.486,0.334c-2.029,0.356-3.961,1.086-5.998,1.428c-3.574,0.602-7.133,0.699-10.663-0.129
		c-1.904-0.447-3.784-0.447-5.683-0.168c-2.629,0.387-5.265,0.737-7.864,1.297c-4.813,1.031-9.456,2.615-14.072,4.297
		c-7.002,2.55-14.182,4.492-21.434,6.19c-2.583,0.604-5.146,1.291-7.755,1.779c-2.519,0.471-5.072,0.655-7.612,0.304
		c-3.048-0.424-5.279-2.221-7.213-4.519c-3.985-4.736-7.93-9.509-12.065-14.115c-2.22-2.474-4.825-4.554-7.144-6.931
		c-4.971-5.096-9.578-10.48-13.404-16.506c-1.561-2.458-2.848-5.051-4.024-7.705c-0.83-1.871-1.828-3.621-3.366-5.019
		c-0.42-0.382-0.89-0.656-1.386-0.917c-0.495-0.259-0.742-0.076-0.912,0.361c0.072,0.258,0.235,0.446,0.439,0.561
		c1.902,1.073,2.99,2.833,3.914,4.704c0.791,1.601,1.485,3.25,2.217,4.865c-0.183,0.469-0.581,0.354-0.923,0.381
		c-2.838,0.222-5.528-0.411-8.143-1.441c-4.736-1.866-8.698-4.774-11.847-8.79c-1.628-2.077-2.35-4.474-2.578-7.048
		c-0.57-6.443,0.997-12.54,3.044-18.557c0.755-2.219,1.631-4.389,2.702-6.477c1.203-2.344,3.139-3.478,5.762-3.583
		c2.519-0.101,4.802,0.59,6.875,1.952c3.195,2.098,6.379,4.247,9.913,5.707c4.739,1.958,8.731,4.99,12.657,8.167
		c3.645,2.95,6.21,6.667,8.058,10.955c1.432,3.322,2.663,6.716,3.72,10.164c1.106,3.607,2.979,6.741,5.276,9.678
		c3.316,4.239,6.604,8.5,9.901,12.753c1.225,1.58,2.144,3.348,3.115,5.084c0.252,0.451,0.523,0.896,0.742,1.361
		c0.809,1.729,2.188,2.106,3.962,1.848c1.613-0.235,3.252-0.288,4.877-0.442c2.218-0.21,4.433-0.448,6.651-0.655
		c1.11-0.104,2.225-0.176,3.336-0.268c3.814-0.317,7.645-0.432,11.455-0.782c5.298-0.487,10.591-1.017,15.822-2.092
		c2.393-0.492,4.297-1.614,5.838-3.433c1.555-1.833,3.287-3.493,4.984-5.188c0.648-0.647,1.354-1.22,2.229-1.702
		c0.404,0.938,0.205,1.946,0.898,2.686c0.993,0.067,1.871-0.368,2.77-0.617c2.851-0.788,5.763-1.107,8.688-1.405
		c1.67-0.17,3.325-0.313,4.995-0.075c1.99,0.283,3.953,2.601,3.852,4.574c-0.015,0.273-0.113,0.545-0.355,0.817
		c-1.733-0.826-3.571-0.873-5.447-0.54c-0.883,0.156-1.73-0.289-2.617-0.179c-0.379,0.047-0.824-0.111-1.025,0.414
		c0.02,0.384,0.279,0.462,0.627,0.544c1.662,0.393,3.341,0.206,5.014,0.192c1.298-0.011,2.557,0.058,3.531,1.033
		c0.188,0.558,0.146,1.064-0.215,1.494c-1.11,1.316-2.387,2.343-4.233,2.326c-0.358-0.002-0.72,0.013-1.079,0
		c-0.416-0.014-0.686,0.162-0.805,0.567c0.084,0.486,0.424,0.562,0.859,0.636c1.365,0.229,2.735,0.414,4.064,0.865
		C308.994,202.137,309.492,202.809,309.414,204.092z"/>
</g>
<path d="M239.391,114.847c0,0,1.109-0.222,1.984,0.028L250.5,115l0.5,0.75l-0.375,27.125l-0.875,0.75L239.375,143l-0.75-0.625
	l1-26.625L239.391,114.847z"/>
<path fill="#FFFFFF" d="M238.406,63.594c0,0-0.9,0.282-1.122-0.187c0,0-0.284-0.344-0.222-1.094v-2.125c0,0,0.375-0.312,1.188-0.438
	l13.312-0.938c0,0,0.438,0,0.438,1c0,0,0.375,2.812-0.438,2.875l-2.125,0.156l0.125-1.312l0.156-1.75l-0.562,0.028l-10.312,0.472
	l-0.625,0.312L238.406,63.594z"/>
<path fill="#FFFFFF" d="M404.066,59.168c0,0-1.627-0.042-1.354-0.741c0,0-0.187-0.591,0.312-0.573c0,0,9.713,0.052,12.528,0.568
	c0,0,2.618,0.217,2.898,0.561c0,0,0.146,0.589,0.173,1.007c0,0,0.175,2.133-0.283,2.116c0,0-1.01,0.256-0.982-0.494l-0.396-1.765
	l-11.9-0.671L404.066,59.168z"/>
</svg>
