<?xml version="1.0" encoding="utf-8"?>
<!-- Generator: Adobe Illustrator 16.2.1, SVG Export Plug-In . SVG Version: 6.00 Build 0)  -->
<!DOCTYPE svg PUBLIC "-//W3C//DTD SVG 1.1//EN" "http://www.w3.org/Graphics/SVG/1.1/DTD/svg11.dtd">
<svg version="1.1" id="RS_x5F_straps06b_xA0_Image_1_"
	 xmlns="http://www.w3.org/2000/svg" xmlns:xlink="http://www.w3.org/1999/xlink" x="0px" y="0px" width="528px" height="396px"
	 viewBox="0 0 528 396" enable-background="new 0 0 528 396" xml:space="preserve">
<g>
	<path d="M528.24,49.68c-1.884-0.162-3.737,0.233-5.609,0.308c-1.672,0.066-3.34,0.263-5.009,0.404
		c-2.464,0.208-4.929,0.396-7.389,0.635c-1.152,0.112-2.309,0.16-3.46,0.269c-3.493,0.331-7.002,0.504-10.5,0.785
		c-3.379,0.27-6.752,0.614-10.131,0.892c-2.505,0.206-5.015,0.342-7.519,0.543c-2.464,0.198-4.923,0.459-7.387,0.655
		c-1.153,0.092-2.31,0.176-3.462,0.265c-3.897,0.3-7.794,0.597-11.688,0.951c-2.503,0.229-5.017,0.327-7.521,0.532
		c-3.418,0.279-6.831,0.622-10.25,0.902c-2.506,0.206-5.018,0.335-7.521,0.535c-2.425,0.193-4.845,0.447-7.269,0.647
		c-2.426,0.199-4.854,0.353-7.279,0.547c-2.504,0.2-5.007,0.421-7.509,0.643c-1.192,0.105-2.389,0.167-3.581,0.277
		c-3.455,0.315-6.922,0.492-10.382,0.771c-3.418,0.275-6.83,0.628-10.25,0.909c-2.504,0.206-5.017,0.329-7.521,0.528
		c-2.424,0.192-4.843,0.453-7.268,0.652c-2.426,0.199-4.854,0.349-7.28,0.542c-2.505,0.2-5.008,0.421-7.511,0.646
		c-1.191,0.106-2.387,0.162-3.578,0.273c-3.455,0.32-6.926,0.469-10.383,0.775c-4.014,0.355-8.029,0.654-12.045,0.977
		c-3.977,0.319-7.951,0.635-11.928,0.958c-3.975,0.322-7.947,0.664-11.927,0.952c-3.42,0.248-6.832,0.617-10.25,0.896
		c-2.505,0.205-5.017,0.33-7.521,0.53c-2.504,0.2-5.004,0.444-7.506,0.677c-1.064,0.099-2.166-0.138-3.267,0.362
		c-0.567,2.132-0.882,4.368-1.271,6.587c-0.43,2.463-0.81,4.936-1.146,7.413c-0.318,2.338-0.384,4.694-0.296,7.053
		c0.026,0.722-0.047,1.377-0.915,1.587c-1.033-0.193-1.112-1.066-1.178-1.836c-0.082-0.991-0.071-2.002,0.016-2.995
		c0.505-5.783,1.508-11.494,2.584-17.192c0.036-0.193,0.062-0.412,0.172-0.562c0.887-1.221,0.645-1.671,0.452-3.058
		c-1.108-0.586-2.219-0.615-3.446-0.289c-0.863,0.229-1.826,0.098-2.744,0.12c-0.479,0.012-1.008-0.125-1.431,0.032
		c-1.791,0.662-3.636,0.371-5.458,0.405c-2.279,0.043-4.56,0.001-6.839,0.01c-2.503,0.01-3.931,1.972-3.172,4.361
		c0.204,0.643,0.479,1.262,0.736,1.885c0.57,1.382,0.56,2.898,0.546,4.361c-0.04,4.562,0.299,9.113,0.277,13.673
		c-0.001,0.194,0.025,0.388,0.044,0.671c1.024,0,2.016,0.085,2.988-0.014c6.025-0.618,11.936-0.055,17.764,1.57
		c1.76,0.491,3.549,0.887,5.226,1.631c1.343,0.595,2.477,1.395,2.903,2.959c0.239,0.884-0.057,1.66-0.205,2.466
		c-0.07,0.383-0.172,0.771-0.269,1.208c1.729,0.24,3.421-0.156,5.112-0.289c1.265-0.099,2.541-0.212,3.809-0.346
		c3.211-0.339,6.442-0.475,9.657-0.783c3.731-0.357,7.469-0.642,11.202-0.967c3.734-0.325,7.469-0.635,11.201-0.958
		c3.773-0.327,7.55-0.64,11.324-0.964c3.733-0.321,7.467-0.659,11.203-0.944c3.26-0.249,6.51-0.624,9.768-0.905
		c2.385-0.206,4.775-0.33,7.16-0.527c2.345-0.194,4.683-0.454,7.025-0.651c2.385-0.201,4.773-0.346,7.157-0.544
		c2.422-0.201,4.841-0.443,7.263-0.656c1.11-0.098,2.225-0.155,3.338-0.259c3.373-0.317,6.76-0.471,10.135-0.78
		c3.892-0.355,7.783-0.679,11.682-0.961c3.379-0.246,6.748-0.62,10.125-0.902c2.424-0.203,4.854-0.325,7.279-0.523
		c3.457-0.283,6.909-0.619,10.367-0.901c2.504-0.205,5.014-0.343,7.519-0.538c2.584-0.201,5.164-0.438,7.747-0.657
		c1.152-0.098,2.308-0.15,3.461-0.254c3.613-0.326,7.24-0.504,10.859-0.781c3.617-0.277,7.23-0.625,10.851-0.903
		c2.705-0.207,5.417-0.332,8.123-0.528c2.705-0.195,5.407-0.436,8.111-0.651c1.272-0.101,2.549-0.143,3.822-0.252
		c2.98-0.257,5.981-0.288,8.962-0.553c4.375-0.39,8.766-0.52,13.143-0.88c2.268-0.187,4.549-0.206,6.824-0.295
		c0.717-0.028,1.44,0.035,2.127-0.251c0,0.72,0,1.44,0,2.16c-2.433,0.132-4.866,0.235-7.295,0.406
		c-1.516,0.106-3.032,0.123-4.547,0.218c-1.95,0.123-3.904,0.263-5.859,0.349c-2.988,0.132-5.969,0.422-8.953,0.645
		c-1.273,0.095-2.549,0.114-3.825,0.235c-2.817,0.268-5.655,0.344-8.48,0.544c-2.664,0.189-5.324,0.447-7.988,0.655
		c-1.511,0.118-3.026,0.182-4.538,0.297c-2.742,0.209-5.482,0.441-8.226,0.658c-1.232,0.098-2.469,0.137-3.702,0.255
		c-2.619,0.251-5.254,0.332-7.877,0.54c-3.495,0.278-6.984,0.63-10.479,0.915c-2.464,0.201-4.936,0.322-7.399,0.517
		c-2.463,0.195-4.921,0.451-7.385,0.653c-1.15,0.095-2.306,0.178-3.458,0.264c-3.896,0.289-7.791,0.605-11.684,0.953
		c-2.461,0.22-4.932,0.331-7.395,0.533c-2.384,0.195-4.76,0.465-7.143,0.665c-2.385,0.199-4.773,0.336-7.159,0.53
		c-2.422,0.196-4.842,0.432-7.262,0.646c-1.152,0.101-2.307,0.175-3.458,0.28c-3.334,0.305-6.683,0.458-10.017,0.775
		c-2.816,0.269-5.637,0.494-8.459,0.714c-3.219,0.251-6.428,0.618-9.644,0.897c-2.384,0.207-4.774,0.334-7.159,0.535
		c-2.265,0.19-4.522,0.442-6.785,0.641c-2.267,0.199-4.535,0.36-6.801,0.551c-2.423,0.204-4.846,0.417-7.268,0.637
		c-1.15,0.104-2.307,0.19-3.458,0.287c-3.655,0.309-7.312,0.603-10.963,0.957c-2.343,0.228-4.695,0.326-7.04,0.529
		c-3.178,0.275-6.35,0.613-9.524,0.892c-2.344,0.206-4.692,0.344-7.038,0.543c-2.343,0.199-4.681,0.441-7.021,0.656
		c-0.557,0.051-1.114,0.064-1.688,0.096c-0.636,0.526-0.69,1.335-0.904,2.024c-2.207,7.164-4.568,14.273-7.535,21.165
		c-1.653,3.842-3.54,7.57-5.891,11.05c-1.672,2.476-3.211,5.033-4.558,7.704c-0.919,1.825-1.941,3.583-3.736,4.913
		c1.609,14.477,3.221,28.974,4.825,43.4c0.423,0.334,0.835,0.419,1.214,0.41c1.603-0.041,3.185,0.285,4.779,0.267
		c1.587-0.018,2.749,0.656,3.64,1.913c1.272,1.8,1.789,3.874,2.172,5.995c0.504,2.798,0.414,5.646,0.729,8.457
		c0.226,2.022,0.834,3.492,3.308,4.318c1.868,0.625,3.795,0.838,5.745,0.932c1.669,0.08,3.339-0.147,5.013,0.17
		c2.162,0.41,3.422,1.768,4.127,3.713c0.707,1.947,0.996,3.99,1.258,6.043c0.134,1.054,0.121,2.139,0.412,3.123
		c0.154,0.064,0.23,0.13,0.3,0.122c3.146-0.354,6.289-0.39,9.428,0.034c1.021,0.138,2.044,0.312,3.037,0.578
		c0.658,0.178,1.217,0.116,1.847-0.108c3.032-1.084,6.125-1.938,9.319-2.409c1.696-0.25,3.39-0.484,5.108-0.462
		c3.168,0.041,6.108,0.765,8.758,2.619c4.736,3.317,9.332,6.819,13.933,10.321c7.771,5.918,15.445,11.969,23.433,17.599
		c2.543,1.792,5.17,3.456,7.502,5.532c5.099,4.539,8.925,9.943,11.24,16.386c0.623,1.735,1.588,3.305,2.44,4.924
		c2.137,4.056,3.584,8.337,4.2,12.867c0.272,2.006,0.457,4.034,0.562,6.065c0.148,2.826,0.438,5.646,0.65,8.47
		c0.107,1.433,0.168,2.873,0.223,4.305c0.086,2.235,0.278,4.465,0.343,6.702c0.098,3.349,0.425,6.688,0.637,10.034
		c0.093,1.474,0.179,2.951,0.236,4.422c0.108,2.752,0.347,5.495,0.576,8.232c0.254,3.006,0.624,6.009,1.09,8.994
		c0.331,2.119,0.514,4.263,0.789,6.39c0.276,2.127,0.596,4.247,0.88,6.371c0.274,2.048,0.524,4.098,0.795,6.146
		c0.281,2.125,0.577,4.249,0.861,6.374c0.274,2.047,0.539,4.096,0.816,6.143c0.281,2.084,0.597,4.164,0.854,6.252
		c0.146,1.182,0.433,2.352,0.36,3.556c-0.642,0-1.28,0-1.92,0c-0.265-2.088-0.517-4.178-0.793-6.265
		c-0.278-2.085-0.584-4.165-0.874-6.25c-0.301-2.159-0.604-4.319-0.896-6.481c-0.27-2.008-0.525-4.017-0.784-6.025
		c-0.268-2.089-0.522-4.178-0.794-6.266c-0.291-2.244-0.59-4.487-0.89-6.73c-0.295-2.203-0.618-4.402-0.885-6.609
		c-0.22-1.818-0.392-3.643-0.55-5.466c-0.235-2.699-0.434-5.402-0.664-8.103c-0.119-1.393-0.155-2.793-0.223-4.184
		c-0.099-2.073-0.268-4.145-0.345-6.22c-0.129-3.467-0.41-6.929-0.649-10.391c-0.098-1.393-0.121-2.79-0.199-4.183
		c-0.164-2.907-0.383-5.812-0.577-8.718c-0.33-4.889-0.735-9.774-2.63-14.381c-0.711-1.729-1.334-3.51-2.571-4.972
		c-0.271-0.317-0.31-0.735-0.42-1.112c-1.601-5.455-4.493-10.187-8.065-14.548c-2.888-3.524-6.412-6.294-10.188-8.803
		c-4.049-2.69-7.904-5.654-11.78-8.586c-7.915-5.988-15.713-12.132-23.728-17.985c-0.901-0.658-1.84-1.268-2.729-1.943
		c-2.533-1.926-5.439-2.533-8.544-2.463c-3.642,0.082-7.172,0.823-10.657,1.824c-0.246,0.07-0.476,0.203-0.742,0.32
		c0.392,0.503,0.942,0.562,1.397,0.773c3.812,1.76,7.317,4.032,10.751,6.414c6.055,4.198,12.046,8.487,18.094,12.696
		c3.594,2.502,7.387,4.663,11.269,6.703c8.538,4.485,15.118,10.979,19.284,19.748c1.533,3.226,2.515,6.673,3.553,10.09
		c1.289,4.25,2.486,8.524,3.596,12.825c0.128,0.498,0.238,0.928-0.215,1.318c-0.51-0.071-0.496-0.559-0.646-0.893
		c-2.658-5.885-4.391-12.094-6.379-18.212c-1.557-4.784-3.967-9.076-7.235-12.908c-3.863-4.526-8.457-8.099-13.779-10.729
		c-5.67-2.805-10.794-6.463-15.938-10.088c-5.924-4.174-11.735-8.512-17.896-12.342c-3.738-2.324-7.672-4.215-12.045-4.961
		c-2.946-0.504-5.921-0.84-8.924-0.365c-0.777,0.123-1.588,0.041-2.305,0.451c-0.324,0.573,0.045,1.096,0.1,1.635
		c0.249,2.488,0.496,4.979,0.779,7.465c0.156,1.357-0.004,2.722,0.113,4.066c0.137,1.573,0.426,3.139,0.741,4.688
		c0.347,1.698,0.289,3.407,0.293,5.12c0.001,0.439-0.022,0.867,0.267,1.259c2.223,3.011,4.082,6.28,6.562,9.106
		c1.88,2.143,4.088,3.927,6.246,5.761c3.402,2.894,6.928,5.642,10.29,8.589c3.342,2.93,5.579,6.494,6.634,10.804
		c0.994,4.062,2.406,7.97,4.166,11.763c1.09,2.349,1.823,4.821,2.247,7.374c0.116,0.698,0.019,1.432,0.019,2.046
		c0.894,0.918,2.319,0.41,3.06,1.528c-0.44,0.304-0.882,0.158-1.285,0.115c-1.593-0.17-3.153-0.515-4.703-0.911
		c-2.646-0.678-4.692-2.344-6.592-4.177c-3.062-2.954-5.521-6.401-7.817-9.963c-5.101-7.904-9.379-16.25-13.302-24.787
		c-1.694-3.69-3.493-7.332-5.369-10.935c-0.196-0.379-0.39-0.75-0.739-1.06c-0.494-0.44-0.875-0.991-0.985-1.709
		c-0.13-0.84-0.622-1.545-1.048-2.263c-1.561-2.637-3.051-5.316-4.952-7.736c-3.233-4.111-7.359-7.014-12.142-9.043
		c-2.642-1.12-5.396-1.838-8.203-2.376c-0.688-0.132-1.34,0.048-2,0.194c-3.157,0.703-6.189,1.705-8.828,3.664
		c-0.519,0.387-0.978,0.822-1.323,1.369c-1.255,1.989-2.361,4.037-2.752,6.405c-0.231,1.4,0.156,2.687,0.646,3.938
		c1.062,2.718,2.66,5.146,4.219,7.595c2.417,3.794,4.905,7.547,6.646,11.726c0.829,1.985,1.237,4.092,1.847,6.139
		c1.242,4.174,3.069,8.104,5.181,11.896c1.743,3.132,3.584,6.212,5.46,9.269c2.561,4.17,4.445,8.617,5.545,13.376
		c1.098,4.75,2.441,9.43,3.714,14.132c1.043,3.86,2.072,7.727,3.12,11.587c1.441,5.314,4.003,10.064,7.141,14.568
		c5.663,8.134,11.266,16.312,16.467,24.754c3.008,4.881,5.92,9.818,8.141,15.125c0.258,0.614,0.613,1.211,0.6,1.916
		c-0.641,0-1.279,0-1.921,0c-1.903-4.956-4.532-9.546-7.267-14.065c-5.287-8.741-11.092-17.146-16.868-25.569
		c-2.204-3.214-4.442-6.402-5.983-10.018c-1.543-3.624-2.601-7.397-3.559-11.203c-1.586-6.295-3.523-12.495-5.034-18.811
		c-0.709-2.967-1.453-5.923-2.651-8.746c-1.405-3.311-3.42-6.289-5.028-9.487c-0.11-0.221-0.233-0.484-0.667-0.475
		c0.433,1.904,0.372,3.787,0.641,5.646c0.268,1.853,0.393,3.726,0.562,5.59c0.188,2.062,0.349,4.126,0.539,6.188
		c0.211,2.301,0.447,4.6,0.664,6.899c0.184,1.943,0.342,3.891,0.533,5.832c0.291,2.933,0.616,5.86,0.896,8.793
		c0.197,2.062,0.3,4.135,0.523,6.192c0.353,3.245,0.652,6.494,0.951,9.745c0.096,1.028,0.184,2.062,0.289,3.092
		c0.219,2.14,0.441,4.278,0.645,6.419c0.187,1.982,0.3,3.973,0.533,5.948c0.266,2.254,0.471,4.512,0.672,6.771
		c0.168,1.903,0.349,3.807,0.539,5.707c0.207,2.062,0.498,4.114,0.635,6.181c0.133,2.027,0.378,4.047,0.578,6.064
		c0.107,1.094-0.061,2.251,0.416,3.307c-0.721,0-1.439,0-2.159,0c-0.183-2.062-0.353-4.128-0.55-6.188
		c-0.197-2.062-0.428-4.121-0.635-6.182c-0.225-2.221-0.447-4.44-0.654-6.661c-0.193-2.063-0.356-4.129-0.553-6.191
		c-0.197-2.062-0.428-4.119-0.629-6.18c-0.197-2.023-0.371-4.049-0.566-6.072c-0.217-2.22-0.454-4.438-0.668-6.658
		c-0.188-1.941-0.346-3.889-0.53-5.831c-0.207-2.182-0.435-4.359-0.644-6.54c-0.193-2.023-0.369-4.051-0.562-6.073
		c-0.214-2.221-0.445-4.438-0.661-6.656c-0.182-1.863-0.373-3.727-0.524-5.593c-0.193-2.384-0.455-4.762-0.664-7.143
		c-0.144-1.627-0.313-3.263-0.236-4.903c0.186-3.938-0.225-7.816-1.146-11.646c-0.201-0.83-0.346-1.658,0.48-2.277
		c-0.645-1.771-1.479-3.357-2.411-4.891c-2.42-3.98-4.147-8.229-5.21-12.771c-0.758-3.237-2.176-6.219-3.926-9.039
		c-2.077-3.35-4.169-6.688-6.225-10.049c-0.997-1.632-1.782-3.371-2.438-5.297c-15.751-0.432-31.471-0.961-47.31-0.957
		c0.303,4.713,0.573,9.247,0.894,13.778c0.319,4.507,0.309,9.047,1.189,13.868c-0.355,0.634-0.251,1.682-0.095,2.765
		c0.199,1.382,0.186,2.785,0.307,4.179c0.373,4.285,0.652,8.58,0.957,12.871c0.187,2.627,0.294,5.26,0.551,7.881
		c0.123,1.254,0.03,2.562,0.602,3.755c0.081,0.168,0.106,0.408,0.055,0.585c-0.575,1.954,0.116,3.881,0.13,5.82
		c0.011,1.551,0.245,3.099,0.38,4.647c0.218,2.502,0.438,5.004,0.653,7.506c0.187,2.188,0.36,4.373,0.553,6.56
		c0.213,2.421,0.443,4.841,0.662,7.261c0.179,1.984,0.341,3.973,0.531,5.957c0.215,2.26,0.46,4.517,0.679,6.774
		c0.185,1.902,0.334,3.809,0.531,5.709c0.192,1.86,0.43,3.717,0.637,5.574c0.194,1.74,0.358,3.484,0.563,5.225
		c0.271,2.29,0.562,4.579,0.854,6.868c0.267,2.091,0.545,4.181,0.82,6.271c0.291,2.206,0.611,4.41,0.864,6.621
		c0.126,1.105,0.39,2.2,0.35,3.324c-0.64,0-1.28,0-1.92,0c-0.074-0.393-0.166-0.779-0.218-1.175
		c-0.302-2.244-0.596-4.489-0.89-6.734c-0.269-2.052-0.543-4.101-0.797-6.151c-0.268-2.172-0.509-4.347-0.773-6.519
		c-0.293-2.408-0.629-4.812-0.893-7.223c-0.285-2.61-0.491-5.23-0.76-7.845c-0.371-3.604-0.805-7.2-1.144-10.806
		c-0.373-3.968-0.628-7.945-1.028-11.909c-0.108-1.072-0.17-2.146-0.276-3.218c-0.232-2.342-0.449-4.685-0.641-7.028
		c-0.194-2.384-0.334-4.773-0.528-7.158c-0.207-2.543-0.492-5.081-0.65-7.626c-0.054-0.877-0.283-1.621-0.753-2.338
		c-1.531-2.329-3.095-4.64-4.543-7.019c-0.703-1.154-1.541-1.711-2.914-1.598c-2.752,0.227-5.367-0.349-7.917-1.406
		c-1.578-0.654-3.144-1.334-4.691-2.053c-1.138-0.527-2.221-0.533-3.311,0.062c-0.558,0.305-1.133,0.588-1.648,0.955
		c-2.336,1.662-4.64,3.371-6.983,5.023c-2.051,1.445-4.157,2.799-6.589,3.55c-0.56,0.172-1.2,0.084-1.676,0.492
		c-0.762,4.44-1.497,8.866-2.287,13.282c-0.908,5.074-1.911,10.131-2.786,15.21c-0.76,4.409-1.665,8.784-2.658,13.146
		c-2.205,9.687-7.183,17.897-13.544,25.316c-4.538,5.293-9.981,9.653-15.443,13.955c-2.942,2.316-5.956,4.542-8.937,6.81
		c-1.12,0-2.24,0-3.36,0c3.988-2.975,8.034-5.874,11.911-8.995c5.164-4.159,10.375-8.288,14.658-13.388
		c5.997-7.137,10.739-14.967,12.816-24.213c1.085-4.833,2.074-9.679,2.896-14.562c0.645-3.829,1.428-7.635,2.096-11.458
		c1.002-5.743,1.916-11.502,2.945-17.24c0.784-4.374,1.361-8.78,2.142-13.153c0.581-3.249,1.628-6.365,2.847-9.427
		c0.557-1.399,1.117-2.8,1.643-4.212c1.333-3.577,3.671-6.426,6.52-8.871c3.758-3.229,6.896-6.945,9.455-11.195
		c3.037-5.046,5.92-10.15,7.687-15.808c1.239-3.97,2.032-7.999,1.846-12.188c-0.314-7.086-5.163-13.115-12.059-14.389
		c-3.074-0.566-5.711,0.473-8.227,2.048c-4.912,3.076-8.61,7.44-12.39,11.716c-2.484,2.811-4.885,5.688-7.157,8.674
		c-3.163,4.158-5.976,8.545-8.65,13.025c-4.496,7.532-8.526,15.312-12.326,23.215c-2.519,5.238-6.15,9.54-10.621,13.236
		c-4.029,3.331-8.134,6.564-12.199,9.85c-0.119,0.096-0.26,0.163-0.6,0.373c0.693-1.425,1.665-2.359,2.463-3.416
		c2.046-2.705,4.773-4.687,7.331-6.85c3.048-2.578,6.163-5.096,8.511-8.387c1.88-2.635,3.305-5.527,4.718-8.424
		c3.946-8.082,8.194-15.996,12.915-23.656c3.393-5.504,7.145-10.741,11.343-15.664c3.059-3.588,6.116-7.172,9.512-10.451
		c0.168-0.162,0.367-0.314,0.396-0.648c-0.771,0.059-1.437,0.422-2.125,0.668c-10.469,3.758-20.712,8.055-30.785,12.773
		c-5.505,2.58-11.109,4.949-16.654,7.445c-2.499,1.123-4.933,2.382-7.204,3.928c-3.765,2.562-6.243,6.081-7.693,10.369
		c-2.821,8.342-5.713,16.658-8.449,25.029c-1.76,5.383-3.464,10.781-5.039,16.224c-1.441,4.981-2.592,10.037-3.766,15.087
		c-2.205,9.485-4.352,18.989-7.687,28.166c-1.468,4.04-3.171,7.97-5.564,11.576c-1.748,2.636-4.059,4.715-6.44,6.724
		c-7.32,6.175-15.032,11.842-22.771,17.47c-6.736,4.897-13.52,9.729-20.284,14.588c-1.842,1.322-3.69,2.638-5.533,3.961
		c-0.156,0.111-0.335,0.223-0.347,0.451c-1.12,0-2.24,0-3.36,0c1.292-1.255,2.817-2.206,4.268-3.248
		c9.482-6.807,19.01-13.549,28.415-20.463c6.167-4.533,12.205-9.233,18.183-14.019c5.388-4.312,8.737-9.916,11.076-16.273
		c3.084-8.385,5.271-17.016,7.23-25.715c1.968-8.735,4.118-17.424,6.803-25.978c2.971-9.465,6.144-18.858,9.382-28.232
		c1.021-2.956,1.879-5.969,3.207-8.818c1.882-4.039,4.837-7.062,8.602-9.369c4.156-2.549,8.688-4.305,13.108-6.299
		c5.797-2.615,11.565-5.293,17.366-7.898c7.828-3.518,15.803-6.671,23.878-9.572c1.678-0.604,3.378-1.145,5.062-1.73
		c1.276-0.442,2.52-0.95,3.692-1.643c2.538-1.496,5.282-2.191,8.237-1.921c1.277,0.117,2.474,0.562,3.662,1.011
		c0.259,0.1,0.499,0.229,0.839,0.236c0.135-0.688,0.304-1.376,0.286-2.102c-0.063-2.556,0.131-5.112-0.2-7.666
		c-0.18-1.396,0.081-2.782,0.554-4.11c0.954-2.677,2.991-4.126,5.611-4.899c0.452-0.133,0.909-0.246,1.418-0.384
		c-0.078-0.865-0.111-1.69-0.233-2.502c-0.372-2.475-0.626-4.964-0.92-7.449c-0.266-2.248-0.604-4.488-0.885-6.734
		c-0.28-2.248-0.506-4.502-0.797-6.748c-0.307-2.361-0.439-4.749-0.956-7.079c-0.389-1.754-1.213-3.358-1.952-4.976
		c-3.173-6.95-6.8-13.66-10.893-20.113c-3.964-6.251-8.976-11.501-15.172-15.564c-6.112-4.008-12.785-6.654-19.989-7.944
		c-0.857-0.154-1.701-0.392-2.574-0.454c-0.701-0.05-0.98-0.609-1.345-1.137c-2.511,0.354-5.076,0.212-7.561,0.853
		c-0.503,0.129-1.016-0.055-1.543-0.006c-3.253,0.298-6.515,0.501-9.769,0.791c-3.015,0.267-6.021,0.621-9.035,0.9
		c-2.222,0.206-4.452,0.334-6.674,0.532c-2.143,0.191-4.28,0.44-6.421,0.641c-2.143,0.2-4.29,0.364-6.433,0.556
		c-2.262,0.202-4.521,0.422-6.783,0.625c-2.184,0.196-4.369,0.375-6.553,0.572c-2.262,0.204-4.522,0.426-6.784,0.632
		c-2.145,0.194-4.291,0.373-6.436,0.567c-2.341,0.212-4.682,0.439-7.023,0.651c-2.104,0.19-4.211,0.36-6.316,0.551
		c-2.301,0.209-4.6,0.441-6.901,0.646c-2.185,0.195-4.372,0.36-6.557,0.554c-2.222,0.198-4.442,0.42-6.664,0.624
		c-2.145,0.196-4.291,0.379-6.435,0.574c-2.301,0.209-4.602,0.43-6.902,0.639c-2.105,0.191-4.211,0.368-6.316,0.561
		c-2.301,0.21-4.597,0.483-6.901,0.633c-2.508,0.164-4.996,0.573-7.514,0.578c0-0.64,0-1.28,0-1.92
		c0.747-0.133,1.496-0.214,2.259-0.245c1.154-0.047,2.305-0.189,3.456-0.295c2.342-0.215,4.683-0.436,7.024-0.648
		c2.064-0.188,4.129-0.364,6.193-0.552c2.342-0.213,4.683-0.437,7.024-0.649c2.064-0.188,4.129-0.365,6.193-0.553
		c2.342-0.212,4.684-0.436,7.026-0.645c2.064-0.185,4.131-0.351,6.195-0.537c2.382-0.215,4.762-0.445,7.144-0.663
		c2.104-0.192,4.208-0.372,6.312-0.565c2.263-0.208,4.524-0.433,6.788-0.635c2.144-0.191,4.29-0.354,6.434-0.543
		c2.382-0.211,4.763-0.445,7.145-0.661c2.104-0.191,4.208-0.369,6.312-0.559c2.303-0.209,4.604-0.433,6.907-0.638
		c2.144-0.19,4.29-0.356,6.433-0.55c2.263-0.205,4.522-0.446,6.785-0.644c2.183-0.192,4.372-0.329,6.554-0.528
		c3.134-0.286,6.263-0.626,9.398-0.905c2.262-0.201,4.535-0.296,6.794-0.532c0.8-0.083,1.621-0.166,2.421-0.258
		c-0.019-0.511-0.338-0.663-0.558-0.867c-0.907-0.843-1.833-1.665-2.75-2.497c-3.882-3.524-7.527-7.268-10.703-11.456
		c-3.848-5.075-5.025-10.709-3.626-16.9c0.062-0.273,0.213-0.521-0.047-0.787c-0.513-0.19-0.995,0.131-1.509,0.135
		c-2.515,0.02-5.009,0.37-7.519,0.52c-3.42,0.203-6.827,0.623-10.243,0.899c-3.499,0.283-7.005,0.464-10.5,0.778
		c-1.154,0.104-2.309,0.167-3.461,0.265c-2.463,0.209-4.923,0.458-7.387,0.653c-2.465,0.195-4.938,0.295-7.399,0.524
		c-3.932,0.365-7.868,0.654-11.804,0.959c-1.152,0.09-2.307,0.16-3.459,0.26c-2.462,0.214-4.922,0.46-7.385,0.654
		c-2.506,0.197-5.017,0.32-7.522,0.523c-3.497,0.282-6.989,0.628-10.487,0.909c-2.544,0.204-5.1,0.284-7.637,0.546
		c-1.155,0.119-2.31,0.15-3.463,0.251c-2.581,0.225-5.161,0.446-7.743,0.66c-1.866,0.155-3.743,0.185-5.595,0.496
		c0-0.72,0-1.44,0-2.16c1.958,0.035,3.896-0.222,5.838-0.413c1.11-0.109,2.225-0.12,3.339-0.24c2.535-0.271,5.09-0.345,7.633-0.545
		c2.421-0.19,4.837-0.455,7.258-0.655c1.152-0.096,2.306-0.149,3.459-0.262c2.499-0.244,5.013-0.324,7.517-0.527
		c3.416-0.277,6.825-0.627,10.24-0.908c2.504-0.206,5.015-0.33,7.519-0.528c2.463-0.195,4.92-0.453,7.383-0.655
		c2.385-0.196,4.773-0.347,7.158-0.536c2.542-0.201,5.085-0.407,7.624-0.644c1.152-0.107,2.307-0.143,3.46-0.266
		c2.497-0.267,5.013-0.341,7.518-0.54c2.423-0.191,4.84-0.46,7.263-0.656c2.503-0.202,5.012-0.342,7.516-0.538
		c2.502-0.196,5.001-0.432,7.503-0.643c1.311-0.111,2.622-0.238,3.935-0.298c0.759-0.034,1.499-0.086,2.243-0.273
		c0.915-0.23,1.863-0.007,2.813-0.117c1.379-0.159,2.777-0.268,4.17-0.359c2.583-0.17,5.162-0.417,7.742-0.645
		c1.112-0.098,2.23-0.179,3.339-0.239c2.51-0.137,5.003-0.45,7.515-0.566c2.425-0.112,4.839-0.453,7.261-0.649
		c2.504-0.203,5.014-0.334,7.518-0.532c2.501-0.197,5-0.433,7.499-0.661c1.072-0.098,2.146-0.123,3.22-0.237
		c2.535-0.269,5.088-0.368,7.633-0.543c0.802-0.055,1.599-0.16,2.206-0.768c0.682-0.683,1.558-0.95,2.457-1.134
		c3.266-0.667,6.564-1.111,9.879-1.465c3.243-0.346,6.475-0.792,9.716-1.147c2.019-0.221,4.049-0.332,6.071-0.529
		c2.969-0.289,5.933-0.632,8.902-0.908c2.261-0.21,4.53-0.332,6.793-0.527c2.3-0.198,4.597-0.436,6.894-0.661
		c1.071-0.105,2.146-0.124,3.22-0.242c2.454-0.27,4.929-0.342,7.392-0.542c2.381-0.194,4.753-0.54,7.137-0.653
		c2.588-0.124,5.155-0.484,7.749-0.566c2.104-0.066,4.201-0.366,6.296-0.604c1.029-0.117,2.063-0.163,3.093-0.279
		c2.966-0.333,5.952-0.486,8.921-0.791c1.783-0.183,3.562-0.376,5.354-0.496c1.427-0.095,1.9,0.338,1.744,1.767
		c-0.035,0.312-0.135,0.616-0.201,0.911c0.188,0.34,0.5,0.254,0.753,0.233c2.302-0.193,4.606-0.376,6.903-0.622
		c1.15-0.123,2.307-0.141,3.459-0.267c2.496-0.273,5.013-0.352,7.517-0.553c2.424-0.195,4.841-0.465,7.265-0.664
		c2.465-0.201,4.936-0.337,7.399-0.532c2.464-0.195,4.925-0.432,7.387-0.642c1.192-0.102,2.386-0.182,3.578-0.277
		c3.854-0.307,7.711-0.606,11.563-0.942c3.537-0.308,7.082-0.499,10.619-0.784c3.418-0.275,6.83-0.622,10.247-0.904
		c2.464-0.204,4.935-0.336,7.399-0.532c2.465-0.195,4.925-0.438,7.389-0.642c2.346-0.195,4.692-0.361,7.037-0.55
		c2.623-0.212,5.245-0.442,7.868-0.653c1.192-0.096,2.388-0.177,3.58-0.274c3.896-0.315,7.793-0.593,11.685-0.958
		c2.462-0.231,4.937-0.327,7.4-0.524c2.424-0.193,4.842-0.457,7.266-0.654c2.465-0.201,4.936-0.348,7.4-0.543
		c2.465-0.195,4.927-0.414,7.389-0.636c1.191-0.108,2.387-0.173,3.578-0.282c3.455-0.316,6.924-0.473,10.38-0.776
		c4.053-0.355,8.108-0.674,12.165-0.981c2.941-0.223,5.879-0.499,8.823-0.702c3.42-0.236,6.828-0.622,10.245-0.903
		c2.504-0.206,5.015-0.324,7.52-0.524c2.424-0.193,4.842-0.461,7.266-0.659c2.465-0.201,4.934-0.34,7.397-0.538
		c2.463-0.197,4.923-0.439,7.386-0.648c1.353-0.115,2.705-0.204,4.059-0.304c3.419-0.254,6.839-0.494,10.257-0.766
		c3.695-0.293,7.389-0.617,11.084-0.927C528.24,48.24,528.24,48.96,528.24,49.68z M195.672,165.417
		c0.636-0.361,1.292-0.23,1.918-0.332c2.858-0.463,5.718-0.915,8.575-1.388c3.443-0.571,6.897-1.091,10.323-1.756
		c4.749-0.922,9.479-1.933,14.192-3.03c8.456-1.968,16.622-4.78,24.579-8.225c2.192-0.949,3.887-2.417,4.932-4.641
		c0.879-1.872,1.939-3.656,3.001-5.436c1.429-2.393,3.097-4.635,4.429-7.088c4.846-8.924,7.861-18.559,10.953-28.164
		c0.136-0.423,0.173-0.818-0.221-1.103c0.347-1.157,1.241-2.014,1.613-3.162c0.828-2.552,0.485-3.271-2.078-4.209
		c-1.791-0.656-3.658-1.041-5.498-1.519c-3.404-0.882-6.842-1.506-10.382-1.342c-1.997,0.093-3.996-0.013-5.994,0.136
		c-1.991,0.148-3.958,0.688-5.978,0.404c-0.038-0.005-0.08,0.005-0.119,0.011c-2.638,0.4-5.305,0.534-7.948,0.903
		c-3.424,0.479-6.872,0.794-10.298,1.259c-4.368,0.593-8.729,1.23-13.083,1.913c-4.782,0.749-9.552,1.577-14.329,2.36
		c-4.542,0.745-9.09,1.45-13.627,2.221c-4.886,0.831-9.754,1.773-14.646,2.567c-5.049,0.819-10.058,1.801-14.998,3.13
		c-4.335,1.167-8.594,2.537-12.561,4.605c0.141,0.918-0.87,1.453-0.63,2.303c-0.302,0.116-0.598,0.019-0.841,0.291
		c1.618,0.643,3.186,0.979,4.758,1.366c3.668,0.905,7.172,2.363,10.484,4.194c1.926,1.064,3.888,1.92,6.038,2.431
		c6.455,1.535,12.618,3.859,18.422,7.096c0.329,0.183,0.781,0.233,0.854,0.721c-0.835,0.567-0.833,0.562-1.923,0.104
		c-4.572-1.923-9.234-3.594-14.007-4.954c-0.337-0.096-0.654-0.229-1.017-0.143c0.019,0.321,0.282,0.402,0.454,0.545
		c2.434,2.02,4.672,4.238,6.743,6.626c2.803,3.232,5.1,6.814,7.247,10.499c3.509,6.023,6.812,12.153,9.522,18.588
		C194.834,163.914,194.98,164.726,195.672,165.417z M200.898,208.4c0.517,0.225,0.92,0.164,1.311,0.166
		c2,0.014,3.984-0.268,5.988-0.256c2.716,0.015,5.435-0.142,8.146-0.279c5.069-0.258,10.143-0.354,15.212-0.611
		c4.149-0.212,8.305-0.302,12.458-0.482c5.469-0.238,10.944-0.356,16.417-0.528c0.748-0.023,1.502-0.026,2.307-0.322
		c-1.992-17.938-3.978-35.818-5.958-53.64c-0.423-0.101-0.62,0.027-0.843,0.123c-5.843,2.501-11.768,4.784-17.895,6.497
		c-6.224,1.74-12.524,3.161-18.874,4.362c-3.31,0.626-6.617,1.265-9.938,1.828c-3.287,0.558-6.595,0.998-9.883,1.55
		c-1.148,0.193-2.365,0.122-3.459,0.683C197.561,181.147,199.226,194.746,200.898,208.4z M176.926,103.573
		c24.744-4.134,49.318-8.674,74.198-11.129c-0.034-4.238-0.441-8.251-0.628-12.273c-0.089-1.912-0.023-3.836-0.257-5.743
		c-0.097-0.792-0.207-1.57,0.083-2.367c0.161-0.442,0.189-1.02-0.098-1.396c-0.339-0.444-0.147-0.88-0.16-1.394
		c-1.318,0-2.593-0.066-3.86,0.014c-2.863,0.182-5.713,0.572-8.591,0.5c-0.119-0.002-0.243,0.01-0.357,0.043
		c-1.562,0.458-3.169,0.34-4.763,0.359c-1.99,0.024-3.97,0.186-5.951,0.313c-2.738,0.177-5.452,0.793-8.214,0.589
		c-0.806-0.06-1.612,0.019-2.375,0.214c-0.909,0.233-1.813,0.273-2.73,0.239c-0.726-0.027-1.456,0.008-2.136,0.211
		c-0.905,0.27-1.811,0.261-2.723,0.233c-1.047-0.032-2.075,0.075-3.095,0.283c-1.556,0.317-3.084,0.822-4.709,0.639
		c-0.191-0.022-0.408,0.014-0.589,0.084c-1.321,0.511-2.729,0.519-4.103,0.674c-1.386,0.156-2.836-0.054-4.179,0.248
		c-2.277,0.51-4.6,0.308-6.889,0.695c-1.555,0.263-3.164,0.355-4.708,0.733c-1.359,0.334-2.689,0.814-3.249,2.36
		c-0.89-0.014-1.312,0.566-1.678,1.278c-1.352,2.635-1.579,5.484-1.538,8.356c0.035,2.466,0.348,4.917,0.844,7.34
		C175.074,97.63,175.87,100.53,176.926,103.573z M115.802,82.656c-0.677,1.803-0.833,3.569-0.909,5.363
		c-0.156,3.701,0.765,7.085,2.828,10.159c1.719,2.562,3.769,4.849,5.886,7.076c2.921,3.073,6.073,5.906,9.216,8.748
		c0.766,0.692,1.557,1.122,2.673,0.994c2.216-0.254,4.45-0.345,6.669-0.58c0.767-0.081,1.553-0.146,2.241-0.684
		c2.022-1.581,4.339-2.643,6.698-3.611c6.824-2.8,13.974-4.394,21.195-5.729c0.826-0.152,1.731-0.111,2.52-0.675
		c-0.357-1.179-0.732-2.305-1.039-3.45c-0.905-3.375-1.649-6.773-1.984-10.27c-0.261-2.726-0.226-5.401,0.284-8.085
		c0.244-1.282,0.741-2.481,1.236-3.839c-1.547,0.229-2.97,0.214-4.395,0.333c-4.01,0.332-8.021,0.657-12.031,0.985
		c-2.979,0.244-5.959,0.466-8.938,0.726c-3.494,0.305-7,0.464-10.492,0.781c-1.153,0.104-2.307,0.167-3.458,0.262
		c-2.462,0.204-4.917,0.505-7.382,0.643c-2.469,0.139-4.927,0.41-7.394,0.572C118.13,82.446,117,82.437,115.802,82.656z
		 M167.58,306.146c0.202,0.104,0.344,0.047,0.498,0c2.477-0.75,4.593-2.164,6.679-3.631c2.51-1.764,4.875-3.73,7.501-5.33
		c1.994-1.215,3.968-1.608,6.181-0.395c1.874,1.027,3.9,1.779,5.931,2.47c2.144,0.728,4.375,0.81,6.612,0.745
		c1.326-0.038,2.27,0.486,2.954,1.639c0.874,1.472,1.806,2.91,2.773,4.321c0.734,1.072,1.344,2.237,2.326,3.313
		c-1.212-9.395-2.164-18.654-2.303-27.908c-0.748-0.557-1.217-1.199-2.009-1.482c-4.665-1.669-9.3-3.418-14.017-4.945
		c-4.045-1.312-8.104-1.437-12.246-0.664c-0.82,0.152-1.367,0.574-1.842,1.188c-1.05,1.358-1.958,2.803-2.592,4.402
		c-0.774,1.953-1.521,3.918-2.289,5.875c-1.193,3.04-2.016,6.183-2.531,9.4c-0.471,2.938-0.892,5.881-1.378,8.814
		C167.708,304.677,167.366,305.409,167.58,306.146z M207.65,237.008c0.296,0.062,0.446,0.116,0.597,0.123
		c5.271,0.242,10.54,0.508,15.812,0.711c5.393,0.208,10.791,0.288,16.18,0.561c2.438,0.123,4.876,0.138,7.312,0.236
		c4.114,0.17,8.23,0.284,12.345,0.413c0.395,0.013,0.794,0.042,1.179-0.136c1.694-0.785,3.479-1.327,5.308-1.883
		c-0.033-2.29,0.805-4.325,1.926-6.492c-20.344-0.146-40.482-0.755-60.771-0.098C208.058,232.659,207.675,234.833,207.65,237.008z
		 M204.633,251.684c-1.163,0-2.211,0.11-3.224-0.029c-1.158-0.161-2.3-0.246-3.433-0.008c-0.722,0.15-1.341,0.054-1.934-0.338
		c-0.289-0.189-0.546-0.439-0.906-0.443c-0.338,0.301-0.458,0.691-0.633,1.044c-2.103,4.249-4.516,8.317-7.183,12.231
		c-1.577,2.314-3.464,4.377-5.516,6.285c-0.352,0.327-0.901,0.629-0.503,1.262c0.233,0.174,0.478,0.099,0.71,0.078
		c2.245-0.195,4.453,0.065,6.625,0.601c4.434,1.091,8.671,2.782,12.974,4.274c1.562,0.543,3.072,1.25,4.68,1.59
		c0.06-0.078,0.105-0.108,0.106-0.142c0.111-3.511,0.016-7.019-0.299-10.515c-0.278-3.088-0.777-6.158-0.88-9.262
		C205.147,256.165,204.804,254.051,204.633,251.684z M331.834,311.08c0.193-0.239,0.188-0.387,0.172-0.552
		c-0.193-2.112-0.714-4.161-1.561-6.083c-2.027-4.607-3.815-9.284-5.041-14.18c-0.746-2.986-2.344-5.529-4.543-7.711
		c-2.072-2.058-4.338-3.883-6.577-5.74c-3.253-2.697-6.627-5.256-9.611-8.268c-0.866-0.874-1.723-1.757-2.642-2.693
		c-0.114,0.51,0.145,0.789,0.289,1.099c1.225,2.583,2.449,5.166,3.679,7.747c3.931,8.249,8.051,16.395,13.158,23.998
		c2.383,3.548,4.896,6.988,8.271,9.692C328.793,309.484,330.268,310.385,331.834,311.08z M263.284,208.311
		c-0.363,0-0.76,0.004-1.157-0.002c-2.239-0.025-4.463,0.26-6.705,0.269c-2.633,0.008-5.267,0.184-7.902,0.265
		c-5.148,0.16-10.292,0.475-15.441,0.643c-4.071,0.132-8.141,0.285-12.211,0.459c-5.546,0.238-11.097,0.355-16.646,0.531
		c-0.464,0.015-0.965-0.103-1.345,0.278c-0.137,1.32-0.135,1.317,0.799,2.021c0.223,0.168,0.419,0.373,0.647,0.533
		c0.759,0.529,1.525,0.95,2.523,0.586c0.436-0.158,0.946-0.154,1.422-0.156c2.717-0.012,5.44,0.111,8.15-0.033
		c2.739-0.146,5.449,0.667,8.183,0.136c0.076-0.015,0.163-0.006,0.238,0.017c1.644,0.477,3.334,0.14,4.991,0.291
		c2.133,0.195,4.197-0.4,6.311-0.388c2.957,0.021,5.918,0.081,8.87-0.05c2.222-0.1,4.43-0.445,6.669-0.359
		c1.676,0.062,3.357,0.02,5.036,0.012c0.396,0,0.81,0.074,1.185-0.104c0.904-0.427,1.863-0.373,2.82-0.365
		c0.799,0.006,1.599,0,2.398-0.002c0.634-0.002,1.057-0.295,1.249-0.908c0.13-0.416,0.348-0.826,0.378-1.252
		C263.803,209.92,264.021,209.053,263.284,208.311z M269.712,236.531c0.072,0.021,0.22,0.082,0.371,0.103
		c2.974,0.392,5.831,1.216,8.573,2.403c0.904,0.393,1.738,0.453,2.594,0.202c1.068-1.431,0.823-5.927,0.311-8.36
		c-3.699-0.003-7.418-0.423-11.023-0.189C269.461,232.604,268.751,234.428,269.712,236.531z M204.491,236.848
		c-0.202-0.742-0.355-1.416-0.073-2.139c0.501-1.285,0.849-2.618,0.963-4.053c-0.942-0.18-1.893,0.029-2.835-0.027
		c-0.958-0.058-1.882,0.158-2.881,0.324c0,0.988-0.035,1.938,0.01,2.882c0.046,0.974-0.473,1.935-0.097,3.013
		C201.193,236.848,202.771,236.848,204.491,236.848z"/>
</g>
</svg>
