<?xml version="1.0" encoding="utf-8"?>
<!-- Generator: Adobe Illustrator 16.2.1, SVG Export Plug-In . SVG Version: 6.00 Build 0)  -->
<!DOCTYPE svg PUBLIC "-//W3C//DTD SVG 1.1//EN" "http://www.w3.org/Graphics/SVG/1.1/DTD/svg11.dtd">
<svg version="1.1" id="RS_x5F_straps05a_xA0_Image_1_"
	 xmlns="http://www.w3.org/2000/svg" xmlns:xlink="http://www.w3.org/1999/xlink" x="0px" y="0px" width="528px" height="396px"
	 viewBox="0 0 528 396" enable-background="new 0 0 528 396" xml:space="preserve">
<path d="M289.25,43.155c-0.364,0.727-0.227,1.271,0.283,1.566c0.535,0.311,1.148,0.082,1.542-0.707
	c1.067-2.14,1.807-4.405,2.427-6.71c0.393-1.456,0.787-2.912,1.012-4.408c0.026-0.184,0.17-0.351,0.274-0.556
	c1.44-0.164,2.878-0.081,4.308-0.069c22.035,0.185,44.071,0.084,66.106,0.101c40.913,0.031,81.826,0.013,122.739,0.034
	c12.955,0.007,25.911,0.072,38.868,0.106c0.479,0.001,0.962,0.043,1.431-0.112c0-0.64,0-1.28,0-1.92
	c-11.52,0.003-23.037,0.017-34.557,0.008c-28.155-0.021-56.312-0.042-84.469-0.083c-12.637-0.02-25.273-0.115-37.91-0.127
	c-24.916-0.025-49.834-0.015-74.75-0.027c-0.468,0-0.955,0.119-1.361-0.106c-0.151-0.187-0.077-0.335-0.062-0.492
	c0.22-2.076-0.348-2.626-2.396-2.396c-0.713,0.081-1.438,0.131-2.152,0.104c-3.083-0.114-6.15,0.231-9.229,0.293
	c-0.821,0.017-1.541-0.068-2.276-0.38c-2.226-0.945-4.534-1.403-6.97-1.348c-2.158,0.049-4.307,0.302-6.471,0.258
	c-3.999-0.081-7.992,0.206-11.987,0.305c-2.836,0.07-5.675,0.108-8.511,0.206c-6.67,0.229-13.34,0.465-20.01,0.671
	c-5.952,0.184-11.905,0.339-17.858,0.49c-1.12,0.029-2.245,0.181-3.351,0.14c-1.543-0.056-2.526,0.458-2.905,1.989
	c-0.015,0.06-0.122,0.097-0.06,0.051c-12.895,0-25.663,0-38.492,0c0-0.776,0.009-1.373-0.001-1.969
	c-0.093-5.516,0.427-11.028,0.034-16.55c-0.122-1.711-0.627-3.202-1.707-4.484c-1.859-2.208-4.417-3.204-7.111-3.888
	c-3.738-0.95-7.559-1.049-11.392-1.023c-2.915,0.02-5.798,0.277-8.623,1.023c-2.87,0.759-5.579,1.854-7.867,3.818
	c-0.634,0.544-0.946,1.165-1.032,2.046c-0.37,3.789-0.215,7.593-0.342,11.386c-0.164,4.912-0.41,9.828-0.345,14.748
	c0.011,0.798-0.067,1.597-0.088,2.396c-0.125,4.755-0.295,9.511-0.34,14.268c-0.015,1.594,0.372,3.154,1.467,4.449
	c0.468,0.553,1.18,0.812,1.665,1.498c-0.321,0.624-0.256,1.345-0.258,2.061c-0.117,28.635,0.091,57.271-0.168,85.907
	c-0.104,11.397-0.072,22.796-0.097,34.194c-0.049,23.156,0.013,46.312-0.17,69.47c-0.148,18.677-0.106,37.354-0.067,56.032
	c0.039,19.117-0.232,38.231-0.238,57.348c-0.003,11.159-0.016,22.317-0.025,33.478c0.64,0,1.28,0,1.92,0
	c0.073-12.317,0.196-24.634,0.209-36.951c0.036-32.034,0.019-64.069,0.219-96.104c0.177-28.435-0.059-56.871,0.193-85.306
	c0.138-15.597,0.104-31.195,0.079-46.793c-0.035-21.437,0.11-42.872,0.228-64.308c0.015-2.797,0.002-5.595,0.002-8.372
	c1.603-1.587,3.615-2.067,5.643-2.496c2.756-0.583,5.554-0.496,8.347-0.482c2.562,0.012,5.086,0.338,7.562,0.972
	c1.895,0.485,3.733,1.141,5.221,2.501c0.326,0.298,0.784,0.631,0.608,1.084c-0.392,1.005,0.046,1.959,0.044,2.936
	c-0.043,18.037-0.008,36.074-0.201,54.111c-0.209,19.596,0.038,39.194-0.206,58.792c-0.27,21.714,0.014,43.433-0.254,65.147
	c-0.251,20.315-0.006,40.633-0.223,60.95c-0.246,23.035,0.002,46.073-0.308,69.108c-0.053,3.957-0.008,7.915-0.008,11.873
	c-0.414,0.274-0.771,0.522-1.138,0.754c-5.062,3.175-10.225,6.191-15.173,9.547c-1.412,0.957-2.9,1.818-4.124,3.036
	c1.12,0,2.24,0,3.36,0c1.601-1.382,3.416-2.461,5.189-3.585c4.774-3.024,9.613-5.948,14.384-8.979
	c1.676-1.063,3.372-2.159,4.568-3.812c3.083-4.259,6.241-8.461,9.418-12.65c4.552-6.002,9.176-11.948,13.886-17.826
	c4.138-5.162,8.247-10.349,12.191-15.659c4.7-6.328,9.362-12.686,13.935-19.106c4.991-7.008,10.025-13.984,15-21.003
	c4.376-6.175,8.688-12.394,13.062-18.569c0.41-0.578,0.718-1.289,1.414-1.734c0.447,1.312,0.393,2.65,1.03,3.824
	c0.31-2.316,1.044-4.592,0.463-6.947c-0.123-0.498-0.282-0.988-0.402-1.491c-0.792-3.312-1.508-6.646-2.526-9.899
	c-0.844-2.697-1.027-5.442-0.918-8.254c0.106-2.751,0.351-5.488,0.586-8.228c0.133-1.543,0.354-3.078,0.558-4.614
	c0.276-2.086,0.583-4.168,0.859-6.254c0.333-2.502,0.271-5.021,0.247-7.534c-0.016-1.633,0.324-3.137,1.166-4.552
	c0.814-1.367,1.336-2.857,1.758-4.4c0.406-1.484,0.766-3.016,1.701-4.299c1.052-1.443,2.442-2.219,4.269-2.171
	c1.978,0.052,3.297,1.226,4.516,2.524c0.125,0.496-0.011,0.899-0.134,1.33c-2.619,9.215-5.41,18.383-7.805,27.66
	c-0.504,1.951-1.168,3.875-1.127,5.938c0.05,2.458,1.428,3.806,3.854,3.901c1.735,0.068,3.483,0.156,5.178,0.519
	c0.173,0.58,0.094,1.103,0.097,1.615c0.062,9.396,0.124,18.794,0.169,28.19c0.074,15.274,0.051,30.551-0.036,45.826
	c-0.002,0.402,0.043,0.856-0.176,1.171c-0.491,0.703-0.675,1.521-0.988,2.287c-3.354,8.232-6.675,16.479-10.07,24.692
	c-2.458,5.946-4.858,11.932-7.773,17.668c-4.072,8.015-7.657,16.249-11.383,24.421c0.72,0,1.44,0,2.16,0
	c2.647-5.779,5.002-11.696,7.907-17.352c5.655-11.008,10.274-22.464,14.966-33.893c1.613-3.928,3.176-7.876,4.766-11.812
	c0.071-0.177,0.188-0.334,0.333-0.586c0.235,0.272,0.172,0.55,0.172,0.795c-0.022,11.118,0.031,22.237-0.106,33.354
	c-0.072,5.838-0.039,11.681-0.242,17.513c-0.139,3.992,0.028,8-0.436,11.98c0.72,0,1.44,0,2.16,0
	c0.118-5.716,0.207-11.434,0.363-17.147c0.18-6.6,0.036-13.199,0.124-19.798c0.458-34.237,0.112-68.478,0.215-102.714
	c0.006-1.955,0-3.91,0-5.841c0.503-0.33,1-0.212,1.453-0.175c2.302,0.193,4.599,0.443,6.899,0.648
	c1.111,0.1,2.229,0.188,3.339,0.248c2.589,0.145,5.168,0.406,7.756,0.564s5.171,0.391,7.808,0.453
	c0.271,0.596,0.125,1.24,0.146,1.862c0.036,1.239,0.026,2.479,0.048,3.72c0.01,0.584-0.155,1.063-0.546,1.528
	c-1.542,1.833-1.864,4.017-1.568,6.296c0.087,0.659,0.173,1.34,0.286,2.002c0.196,1.153,0.564,2.141,1.485,2.892
	c0.362,0.296,0.508,0.696,0.502,1.167c-0.011,0.839-0.003,1.678-0.003,2.473c-0.244,0.428-0.6,0.54-1.006,0.643
	c-1.496,0.379-3,0.748-4.471,1.22c-3.191,1.022-6.088,2.583-8.271,5.186c-1.798,2.144-1.499,4.259,0.661,6.031
	c2.017,1.651,4.437,2.226,6.925,2.656c1.786,0.309,3.582,0.219,5.377,0.237c0.229,0.002,0.481-0.062,0.711,0.146
	c0.183,0.391,0.092,0.835,0.092,1.264c0.005,13.36,0.003,26.721,0.005,40.08c0,0.722,0.016,1.442-0.17,2.146
	c-0.23,0.887,0.196,1.718,0.193,2.599c-0.036,11.601,0.021,23.198-0.241,34.796c-0.104,4.639,0.104,9.281-0.122,13.917
	c-0.129,2.641-0.132,5.277-0.138,7.917c-0.002,1.003-0.052,1.998-0.253,2.982c0.72,0,1.439,0,2.16,0
	c-0.116-2.285,0.195-4.558,0.211-6.837c0.029-4.358,0.133-8.718,0.178-13.075c0.135-13.077,0.152-26.155,0.202-39.233
	c0.015-3.634,0.302-7.251,0.636-10.864c0.197-2.141,0.469-4.272,0.675-6.412c0.196-2.021,0.337-4.05,0.531-6.07
	c0.203-2.099,0.509-4.188,0.649-6.291c0.147-2.188,0.388-4.366,0.582-6.547c0.093-1.049-0.035-2.157,0.356-3.207
	c2.567-0.796,5.019-1.805,7.412-2.971c3.3-1.606,6.297-3.729,9.515-5.467c3.297-1.781,5.26-4.509,6.119-8.113
	c0.736-3.092,0.157-5.762-2.342-7.887c-0.357-0.304-0.766-0.584-0.968-1.058c0.103-0.543,0.495-0.905,0.862-1.255
	c1.072-1.021,2.242-1.838,3.752-2.184c3.489-0.799,5.723-3.045,6.726-6.428c0.547-1.843,0.055-3.699-0.431-5.516
	c-0.438-1.643-1.183-3.178-1.719-4.787c0.582-0.488,1.229-0.71,1.812-1.032c1.755-0.966,3.392-2.071,4.738-3.587
	c1.371-1.543,2.058-3.408,1.933-5.373c-0.245-3.835-2.331-6.523-5.849-8.046c-2.443-1.058-5.021-1.676-7.631-2.192
	c-0.664-0.131-1.453,0.027-2.019-0.529c0.01-0.491,0.332-0.825,0.517-1.209c2.219-4.592,1.43-9.723-2.146-13.316
	c-1.39-1.396-2.992-2.52-5.036-2.76c-1.441-0.171-2.838,0.199-4.238,0.449c-0.435,0.076-0.841,0.205-1.289,0.022
	c0.67-2.661,1.353-5.31,2-7.966c0.661-2.714-0.32-4.634-2.805-5.486c-0.676-0.231-1.378-0.396-2.109-0.328
	c-4.666,0.432-9.353,0.203-14.027,0.381c-6.623,0.254-13.256,0.259-19.869,0.785c-1.395,0.11-2.746,0.41-4.04,0.946
	c-1.129,0.468-1.886,1.239-2.182,2.484c-0.281,1.185-0.695,2.338-1.052,3.506c-0.588-0.026-0.861-0.481-1.244-0.741
	c-2.152-1.462-4.366-2.168-6.939-1.023c-2.568,1.142-3.887,3.233-4.601,5.769c-0.648,2.3-1.406,4.532-2.594,6.615
	c-0.537,0.94-0.806,1.979-0.828,3.073c-0.047,2.275,0.014,4.547-0.198,6.826c-0.238,2.574-0.603,5.127-0.928,7.688
	c-0.311,2.442-0.478,4.905-0.816,7.346c-0.214,1.546-0.234,3.101-0.355,4.647c-0.205,2.621-0.31,5.269,0.347,7.854
	c1.014,3.992,2.104,7.965,3.074,11.969c0.261,1.075,0.25,1.965-0.517,2.851c-0.647,0.748-1.138,1.63-1.711,2.442
	c-6.13,8.691-12.237,17.399-18.404,26.064c-5.153,7.243-10.356,14.45-15.577,21.645c-5.618,7.741-11.302,15.436-17.274,22.91
	c-3.21,4.019-6.422,8.034-9.585,12.089c-3.088,3.958-6.138,7.948-9.162,11.956c-2.569,3.404-5.049,6.877-7.634,10.271
	c-0.777,1.021-1.857,1.759-3.158,2.451c0-0.768-0.002-1.322,0-1.879c0.104-19.276-0.038-38.555,0.195-57.831
	c0.251-20.756-0.019-41.514,0.235-62.271c0.264-21.595-0.007-43.191,0.259-64.789c0.247-20.075,0.003-40.154,0.213-60.231
	c0.249-23.795-0.024-47.593,0.318-71.388c0.006-0.436-0.078-0.881,0.118-1.33c0.988-0.466,1.762-1.203,2.26-2.19
	c0.465-0.921,0.751-1.909,1.008-2.913c0.278-1.084,0.095-2.234,0.514-3.28c0.27-0.165,0.556-0.118,0.832-0.118
	c14.757-0.004,29.515-0.013,44.272,0.138c0.673,0.007,1.208,0.185,1.697,0.69c1.08,1.116,2.438,1.737,3.956,2.053
	c2.694,0.562,5.446,0.638,8.206,1.019c0.212,0.248,0.419,0.548,0.681,0.788c3.009,2.759,5.779,5.749,8.446,8.833
	c2.558,2.958,4.936,6.022,6.231,9.811c1.281,3.746,2.356,7.487,2.25,11.518c-0.062,2.348,0.097,4.718,0.285,7.061
	c0.199,2.473,0,4.958,0.364,7.422c0.114,0.768,0.105,1.579-0.059,2.438c-1.506,0.197-2.954,0.403-4.405,0.572
	c-1.141,0.133-1.569,0.412-1.752,1.575c-0.407,2.594-0.705,5.204-0.771,7.834c-0.061,2.411-0.613,3.056-2.857,3.191
	c-2.191,0.133-4.39,0.034-6.578,0.333c-1.385,0.189-1.796,0.456-1.783,1.806c0.042,4.238-0.042,8.476,0.151,12.715
	c0.152,3.313,0.067,6.638,0.103,9.957c0.017,1.583,0.605,2.152,2.177,2.16c3.638,0.02,7.274,0.018,10.913,0.186
	c4.433,0.204,8.874,0.062,13.313,0.208c6.833,0.227,13.673,0.233,20.51,0.331c1.439,0.021,2.883-0.015,4.318,0.05
	c6.753,0.306,13.517,0.115,20.268,0.439c1.559,0.075,2.174-0.573,2.107-2.131c-0.301-7.072-0.26-14.151-0.441-21.226
	c-0.033-1.336-0.367-1.794-1.648-2.069c-1.703-0.365-3.416-0.694-5.119-1.055c-1.605-0.34-2.202-1.027-2.346-2.672
	c-0.027-0.318-0.013-0.64-0.014-0.959c-0.009-2.596-0.293-5.166-0.722-7.723c-0.142-0.833-0.575-1.363-1.438-1.535
	c-0.551-0.11-1.093-0.254-1.656-0.212c-1.121,0.083-2.194-0.245-3.422-0.289c-0.233-9.776-0.467-19.475-0.695-29.107
	c0.207-0.186,0.318-0.303,0.445-0.395c2.848-2.065,5.352-4.518,6.971-7.627c2.675-5.134,5.748-10.094,7.422-15.685
	c0.505-0.331,1.04-0.197,1.546-0.195c7.998,0.047,15.996,0.133,23.994,0.157c14.077,0.042,28.155,0.052,42.233,0.069
	c24.678,0.03,49.354,0.031,74.03,0.167c26.559,0.146,53.115,0.065,79.673,0.082c4.839,0.003,9.678,0.005,14.517,0.007
	c0-0.64,0-1.28,0-1.92c-12.839-0.04-25.676-0.087-38.513-0.118c-17.517-0.042-35.032-0.083-52.55-0.105
	c-21.516-0.028-43.032,0.057-64.547-0.104c-26.155-0.195-52.312-0.116-78.465-0.147c-0.513,0-1.035,0.093-1.562-0.104
	c-0.139-0.739-0.233-1.488-0.422-2.213c-0.519-2.009-1.822-3.395-3.574-4.43c-1.875-1.108-3.946-1.636-6.037-2.12
	c-0.535-0.125-1.075-0.232-1.78-0.384c0.257-4.22,0.511-8.416,0.764-12.577c0.739-0.259,10.179-0.57,11.45-0.394
	c0.145,1.154-0.255,2.263-0.486,3.357C291.761,36.31,290.9,39.858,289.25,43.155z M286.248,309.235
	c-0.08-0.001-0.16-0.002-0.24-0.004c0-6.298,0-12.595,0-18.99c0.668-0.128,1.254-0.134,1.983-0.077
	C287.407,296.551,286.828,302.895,286.248,309.235z M310.783,278.924c-0.225,2.107-0.819,4.116-2.071,5.893
	c-0.593,0.84-1.349,1.498-2.196,2c-3.97,2.354-7.801,4.955-12.02,6.865c-1.542,0.698-3.096,1.403-4.904,1.812
	c0.053-1.104-0.004-2.035,0.167-2.922c0.171-0.874,0.044-1.756,0.229-2.649c0.859-0.562,1.888-0.53,2.841-0.714
	c3.466-0.67,6.875-1.544,10.246-2.583c0.421-0.131,0.819-0.262,1.059-0.696c0.242-0.439,0.108-0.752-0.268-1.091
	c-0.653-0.002-1.25,0.36-1.894,0.521c-2.699,0.664-5.479,0.937-8.15,1.703c-3.193,0.916-6.487,1.183-9.762,1.533
	c-1,0.107-2.066-0.039-3.096-0.127c-2.015-0.172-4.051-0.269-5.986-0.947c-1.09-0.383-2.158-0.836-3.026-1.61
	c-1.188-1.062-1.237-1.847-0.446-3.004c0.953-1.396,2.361-2.244,3.766-3.078c1.539-0.916,3.244-1.422,4.936-2.009
	c3.898-1.353,8.038-1.957,11.777-3.788c0.535-0.263,1.127-0.372,1.629-0.189c1.062,0.388,2.02,0.025,3.027-0.157
	c1.441-0.263,2.881-0.625,4.362-0.567c2.519,0.097,4.923,0.657,7.285,1.583C309.979,275.361,310.938,277.461,310.783,278.924z
	 M285.832,271.941c1.209-0.067,2.258,0.347,3.352,0.213c0,0.467,0,0.779,0,1.16c-1.02,0.44-2.072,0.684-3.201,0.817
	C285.688,273.398,285.9,272.708,285.832,271.941z M291.414,272.229c0.953-0.102,1.927-0.205,3.168-0.338
	c-1.123,0.633-2.146,0.627-3.08,0.963C291.323,272.605,291.363,272.45,291.414,272.229z M301.932,271.094
	c1.955-0.562,3.961-0.812,6.221-1.17c-0.502,0.837-0.996,1.322-1.01,2.139C305.32,271.793,303.677,271.191,301.932,271.094z
	 M318.525,259.174c0.293,1.52,0.205,2.91-0.586,4.242c-1.336,2.254-3.383,3.281-5.916,3.754c-2.414,0.451-4.836,0.867-7.256,1.283
	c-2.385,0.408-4.787,0.703-7.175,1.092c-1.847,0.301-3.711,0.536-5.567,0.569c-1.899,0.032-3.797,0.39-5.695,0.146
	c-2.609-0.336-4.855-2.947-4.09-6.164c0.461-1.934,1.293-3.496,3.24-4.26c0.184-0.07,0.397-0.162,0.504-0.311
	c1.158-1.619,3.004-1.541,4.644-1.729c1.847-0.212,3.711-0.433,5.599-0.329c0.89,0.049,1.824-0.207,2.696-0.466
	c1.983-0.589,4.013-0.677,6.045-0.614c2.286,0.071,4.401-0.514,6.47-1.381c1.604-0.673,3.196-1.369,4.922-2.107
	C317.456,254.96,318.109,257.011,318.525,259.174z M285.889,257.34c0-1.844,0-3.525,0-5.206c0.851,1.372,1.865,2.546,2.846,3.776
	C287.838,256.579,286.831,256.729,285.889,257.34z M296.723,217.365c1.965-0.455,3.899-1.037,5.896-1.354
	c2.665-0.423,4.657,0.82,6.243,2.762c4.519,5.526,1.705,13.201-4.303,15.412c-0.223,0.082-0.473,0.109-0.675,0.224
	c-0.51,0.286-0.768,0.735-0.518,1.296c0.217,0.484,0.638,0.641,1.186,0.498c1.412-0.362,2.737-0.95,3.818-1.9
	c0.878-0.771,1.657-1.086,2.879-0.837c2.912,0.593,5.839,1.082,8.614,2.198c1.873,0.752,3.349,1.916,4.265,3.771
	c1.16,2.354,0.763,5.506-1.396,7.42c-1.51,1.34-3.221,2.356-5.024,3.205c-2.479,1.166-4.979,2.291-7.508,3.345
	c-2.026,0.844-4.201,1.157-6.358,1.476c-2.396,0.354-4.798,0.708-7.21,0.915c-2.122,0.183-4.26,0.58-6.388-0.162
	c-1.023-0.356-1.797-0.829-1.982-1.961c-0.046-0.278-0.13-0.53-0.252-0.788c-1.447-3.078-0.24-5.848,2.717-7.232
	c2.369-1.112,4.871-1.93,7.278-2.971c4.408-1.904,8.822-3.791,13.172-5.826c0.287-0.135,0.578-0.291,0.812-0.498
	c0.31-0.273,0.479-0.619,0.272-1.062c-0.195-0.425-0.525-0.565-0.963-0.557c-0.461,0.009-0.83,0.261-1.223,0.446
	c-6.137,2.916-12.413,5.506-18.665,8.153c-0.033,0.015-0.079-0.003-0.326-0.021c0.521-1.896,1.133-3.688,1.485-5.532
	c0.316-1.649,1.185-2.369,2.767-2.867c4.265-1.346,8.226-3.39,11.953-5.864c0.801-0.533,1.558-1.141,2.078-1.959
	c0.327-0.515,0.735-1.087,0.103-1.752c-0.962,1.188-2.186,1.999-3.527,2.635c-3.485,1.647-6.836,3.59-10.469,4.92
	c-2.673,0.978-5.418,1.199-8.231,0.711c-2.612-0.454-3.927-2.316-4.735-4.543c-0.923-2.535,0.311-4.59,2.02-6.323
	c1.259-1.276,2.732-2.271,4.512-2.827C291.611,219.111,294.078,217.979,296.723,217.365z M260.997,210.294
	c0.7-2.733,2.69-4.226,5.142-5.244c0.243-0.102,0.551-0.069,0.827-0.065c7.589,0.135,15.175,0.297,22.765,0.234
	c0.765-0.007,1.504,0.162,2.228,0.385c2.837,0.871,2.653,3.78,1.636,5.354c-0.383,0.592-1.001,0.721-1.682,0.713
	c-4.395-0.054-8.779,0.357-13.176,0.246c-0.479-0.012-0.957-0.002-1.437-0.002c-4.864,0.328-9.743,0.18-14.609,0.453
	C261.178,212.452,260.627,211.734,260.997,210.294z M260.914,217.805c1.453-0.255,25.943,0.362,26.822,0.685
	c-1.01,0.719-2.022,1.155-3.307,1.149c-7.471-0.031-14.939-0.014-22.409-0.231c-0.432-0.013-0.878,0.063-1.333-0.136
	C260.59,218.751,260.934,218.299,260.914,217.805z M256.21,226.337c0.448-1.467,1.185-2.772,2.056-4.015
	c0.384-0.547,0.854-0.848,1.599-0.84c7.395,0.069,14.789-0.059,22.184,0.166c0.193,0.006,0.385,0.049,0.77,0.1
	c-3.33,3.691-3.359,7.434-0.211,11.422c-8.9-0.652-17.541-1.287-26.151-1.919C255.728,229.532,255.714,227.958,256.21,226.337z
	 M254.701,237.387c3.514,0.504,7.057,0.682,10.591,0.963c3.458,0.275,6.91,0.621,10.367,0.906c2.424,0.199,4.852,0.363,7.278,0.52
	c0.994,0.062,1.978,0.229,2.978,0.279c0.97,0.049,1.437,1.055,0.87,1.844c-0.952,1.326-1.998,2.584-3.021,3.856
	c-0.438,0.545-1.062,0.657-1.72,0.578c-4.146-0.201-8.294-0.358-12.437-0.613c-4.344-0.266-8.688-0.538-13.037-0.731
	c-0.995-0.045-1.985-0.182-2.985-0.223c-1.022-0.041-1.634-0.744-1.54-1.736c0.114-1.188,0.281-2.373,0.494-3.549
	c0.098-0.539,0.303-1.069,0.678-1.514C253.615,237.498,254.087,237.299,254.701,237.387z M158.234,59.273
	c-2.091-3.495-5.653-4.452-9.248-5.221c-3.124-0.668-6.322-0.891-9.518-0.727c-3.097,0.159-6.198,0.402-9.103,1.655
	c-0.656,0.283-1.291,0.617-1.936,0.927c-1.698-0.183-2.674-1.625-2.672-3.288c0.005-3.796-0.152-7.596,0.156-11.391
	c0.087-1.074,0.043-2.158,0.069-3.237c0.161-6.713,0.37-13.426,0.464-20.14c0.039-2.799,0.371-5.587,0.257-8.388
	c-0.025-0.64,0.306-1.021,0.778-1.384c2.327-1.789,5.011-2.728,7.843-3.283c4.057-0.796,8.143-0.901,12.265-0.541
	c2.663,0.232,5.291,0.559,7.806,1.491c1.659,0.615,3.185,1.431,4.22,2.971c0.576,0.857,0.936,1.792,0.934,2.784
	c-0.006,6.195,0.202,12.394-0.229,18.395c-2.276,2.447-3.947,5.028-4.04,8.304c-0.103,3.634,0.308,7.228,1.358,10.73
	c0.429,1.433,1.042,2.752,2.168,3.75C159.987,55.378,159.361,58.018,158.234,59.273z M203.467,51.376
	c-13.472-0.021-26.944-0.043-40.416-0.066c-2.08-0.003-2.451-0.237-3.2-2.168c-0.693-1.787-0.979-3.667-1.245-5.558
	c-0.201-1.432-0.139-2.869-0.261-4.297c-0.239-2.79,0.951-5.01,2.599-7.093c13.211,0,26.392,0,39.579,0
	c0.212,0.422,0.148,0.826,0.103,1.209c-0.393,3.313,0.263,6.389,1.928,9.288c1.563,2.721,2.723,5.644,4.225,8.685
	C205.537,51.376,204.502,51.378,203.467,51.376z M212.404,52.625c-1.296,0.964-1.334,1.072-2.696-0.507
	c-0.804-0.932-1.381-2.041-1.892-3.171c-1.229-2.722-2.486-5.427-3.966-8.031c-1.392-2.451-1.453-5.176-1.24-7.911
	c0.021-0.274,0.06-0.598,0.215-0.803c0.472-0.621,0.477-1.313,0.379-2.029c0.149-0.072,0.249-0.161,0.352-0.165
	c2.635-0.092,5.272-0.166,7.907-0.263c4.352-0.162,8.706-0.305,13.058-0.408c4.715-0.112,9.427-0.4,14.146-0.332
	c0.114,0.002,0.228,0.044,0.421,0.083c-0.016,1.199-0.426,2.323-0.626,3.478c-0.583,3.365-1.328,6.706-1.339,10.148
	c-0.003,0.795,0.158,1.422,1.028,1.64c0.836-0.205,0.976-0.817,0.993-1.556c0.105-4.71,1.189-9.266,2.125-13.78
	c0.479-0.34,0.932-0.216,1.361-0.225c4.875-0.097,9.747-0.323,14.62-0.421c5.633-0.113,11.264-0.478,16.902-0.322
	c1.865,0.051,3.561,0.722,5.291,1.558c-0.096,4.134-0.433,8.235-0.688,12.436c-5.086-1.002-10.021-1.157-14.959-0.957
	c-2.777,0.113-5.554,0.403-8.308,0.848c-2.352,0.38-4.719,0.665-7.071,1.044c-2.976,0.479-5.947,0.987-8.913,1.525
	c-3.78,0.685-7.553,1.413-11.288,2.313c-4.907,1.183-9.766,2.522-14.258,4.916C213.432,52.018,212.88,52.271,212.404,52.625z
	 M284.871,125.776c1.391-0.01,1.932,0.512,1.908,1.854c-0.045,2.562,0.199,5.113,0.234,7.671c0.021,1.583-0.355,1.969-1.969,1.96
	c-8.995-0.045-17.988-0.354-25.909-0.225c-10.072-0.09-19.068-0.169-28.062-0.251c-1.415-0.013-1.974-0.605-1.809-2.019
	c0.323-2.777,0.449-5.568,0.668-8.352c0.076-0.958,0.514-1.369,1.569-1.355c3.078,0.041,6.156,0.123,9.234,0.16
	c10.794,0.128,21.589,0.228,32.383,0.375C277.036,125.647,280.952,125.804,284.871,125.776z M240.26,114.365
	c12.111-0.134,24.147-0.267,36.174-0.4c0.35,1.076,0.35,1.076,0.192,2.126c-12.069-0.253-24.145-0.506-36.051-0.756
	C240.095,114.928,240.276,114.621,240.26,114.365z M284.688,45.367c1.467,0.4,2.852,1.015,4.004,2.041
	c1.168,1.037,1.893,2.354,1.688,3.911c-0.272,2.084-0.577,4.169-1.601,6.095c-1.865,3.517-3.555,7.129-5.444,10.633
	c-1.636,3.029-3.987,5.478-6.788,7.475c-0.834,0.594-1.152,1.315-1.125,2.335c0.145,5.354,0.227,10.709,0.355,16.063
	c0.129,5.274,0.289,10.547,0.431,15.821c0.019,0.672,0.003,1.344,0.003,1.998c-1.092,0.32-32.303,0.756-34.476,0.488
	c-0.092-0.885-0.282-1.791-0.263-2.692c0.052-2.562-0.209-5.107-0.308-7.661c-0.116-2.991-0.219-5.985-0.395-8.976
	c-0.137-2.35-0.272-4.71-0.271-7.063c0.002-2.971-0.988-5.682-1.801-8.458c-1.415-4.829-4.305-8.743-7.577-12.434
	c-2.093-2.362-4.253-4.659-6.5-6.876c-0.139-0.137-0.297-0.275-0.265-0.671c4.686,0.592,9.437,0.632,13.775,2.821
	c-0.972-1.176-2.368-1.534-3.637-2.144c-2.579-1.237-5.45-1.434-8.101-2.389c-1.078-0.388-2.212-0.277-3.309-0.386
	c-2.097-0.208-4.202-0.384-6.302-0.578c-0.969-0.089-1.958-0.141-3.063-0.488c1.72-1.154,3.434-1.896,5.169-2.562
	c4.673-1.79,9.536-2.899,14.42-3.927c4.655-0.979,9.346-1.766,14.035-2.551c2.973-0.498,5.959-0.937,8.948-1.349
	c3.283-0.452,6.577-0.726,9.876-0.841c3.75-0.132,7.479,0.261,11.189,0.854C279.826,44.251,282.279,44.709,284.688,45.367z"/>
</svg>
