<?xml version="1.0" encoding="utf-8"?>
<!-- Generator: Adobe Illustrator 16.2.1, SVG Export Plug-In . SVG Version: 6.00 Build 0)  -->
<!DOCTYPE svg PUBLIC "-//W3C//DTD SVG 1.1//EN" "http://www.w3.org/Graphics/SVG/1.1/DTD/svg11.dtd">
<svg version="1.1" id="RS_x5F_straps06c_xA0_Image_1_"
	 xmlns="http://www.w3.org/2000/svg" xmlns:xlink="http://www.w3.org/1999/xlink" x="0px" y="0px" width="528px" height="396px"
	 viewBox="0 0 528 396" enable-background="new 0 0 528 396" xml:space="preserve">
<g>
	<path d="M279,144.25L275.75,131l-2.5-3.75l-13,25.5l2.875,10.125l9.375-3.125l2.75-4l2.5,5.75l-0.5,3l-5.5,7.25l5.875,3.375
		l2.875,3.375l0.5,3.375l-2.5,3.875l-6.875,4.875l-2-4.75L266,185.5c0,0,2,9.75,3.75,12l11-8.25l3,11.25l6.189-0.695L279,144.25z
		 M274.809,146.4c-1.709,1.937-2.55,4.378-3.813,6.573c-1.091,1.891-2.33,3.695-3.351,5.628c-0.412,0.78-1.146,1.011-1.931,1.148
		c-0.411-0.159-0.442-0.516-0.539-0.869c-0.172-0.636-0.202-1.311-0.722-1.845c-0.437-0.45-0.138-0.989,0.105-1.444
		c0.787-1.473,1.567-2.95,2.404-4.394c1.756-3.027,3.545-6.035,5.321-9.049l1.465-0.15c0.413,1.398,0.958,2.144,1.265,3.497
		C275.083,145.801,275.045,146.133,274.809,146.4z"/>
	<path d="M249.84,396.24c0.05-2.439-0.351-4.864-0.22-7.31c0.188-3.545,0.332-7.09,0.682-10.629
		c0.922-9.306,2.635-18.456,4.995-27.501c0.642-2.461,1.413-4.882,2.042-7.347c0.603-2.36,1.794-4.504,2.875-6.673
		c2.386-4.785,5.113-9.366,8.418-13.585c2.534-3.238,5.586-5.886,9.009-8.159c4.381-2.91,8.569-6.097,12.813-9.201
		c1.226-0.896,2.47-1.756,3.817-2.456c2.67-1.387,5.148-3.065,7.428-5.021c1.992-1.711,4.146-3.105,6.662-3.903
		c2.953-0.938,5.414-2.701,7.757-4.658c0.979-0.819,1.932-1.674,2.938-2.457c2.123-1.649,2.981-3.862,2.993-6.479
		c0.003-0.719,0.039-1.438,0.038-2.158c-0.007-2.838,0.273-5.66,0.432-8.489c0.092-1.672,0.207-3.345,0.297-5.019
		c0.213-3.944,0.479-7.889,0.662-11.834c0.098-2.076,0.043-4.158,0.09-6.237c0.104-4.679,0.19-9.354,0.229-14.034
		c0.037-4.467-1.688-7.9-5.351-10.465c-2.411-1.688-4.952-3.177-7.317-4.939c-3.392-2.524-6.289-5.528-9.017-8.729
		c-1.66-1.95-3.438-3.78-5.631-5.163c-2.006-1.267-4.258-1.728-6.551-1.944c-4.039-0.383-8.005-1.135-11.949-2.055
		c-3.01-0.703-5.998-1.566-9.154-1.348c-1.533,0.106-2.67,0.747-3.328,2.138c-0.883,1.867-1.096,3.8-0.459,5.866
		c4.016,1.754,7.934,3.81,12.297,4.691c0.773,0.157,1.604,0.213,2.385,0.125c4.521-0.508,8.105,1.392,10.539,4.896
		c4.252,6.123,9.732,11.088,14.696,16.539c1.935,2.123,4.151,3.99,5.747,6.417c1.215,1.851,1.968,3.86,2.258,6.067
		c0.457,3.469,0.083,6.946,0.23,10.416c0.178,4.148,0.34,8.297,0.65,12.439c0.229,3.064,0.332,6.143,0.43,9.216
		c0.025,0.834,0.021,1.74-0.65,2.419c-0.43-0.224-0.344-0.537-0.322-0.796c0.359-4.358-0.302-8.612-1.314-12.829
		c-0.318-1.326-0.403-2.671-0.484-4.029c-0.13-2.196-0.168-4.392-0.234-6.586c-0.064-2.123,0.043-4.239,0.008-6.356
		c-0.051-2.919-0.31-5.799-1.888-8.392c-0.881-1.444-1.978-2.709-3.155-3.896c-5.01-5.054-9.864-10.251-14.695-15.475
		c-0.387-0.418-0.656-0.897-0.946-1.375c-1.298-2.135-2.827-4.062-4.946-5.45c-1.302-0.853-2.734-1.33-4.285-1.199
		c-3.174,0.269-6.135-0.521-9.073-1.585c-2.148-0.777-4.155-1.789-6.044-3.068c-1.104-0.748-2.361-1.113-3.675-1.357
		c-2.144-0.399-3.838,0.396-5.023,2.054c-0.99,1.386-2.032,2.765-2.776,4.318c-0.412,0.86-0.777,1.729-0.863,2.704
		c-0.237,2.684,1.116,4.467,3.284,5.725c5.221,3.027,10.767,5.232,16.694,6.443c0.979,0.199,1.719,0.693,2.23,1.615
		c2.209,3.978,4.716,7.76,7.691,11.213c0.887,1.027,1.829,2.006,2.737,3.017c2.493,2.771,3.938,6.046,4.56,9.687
		c0.529,3.096,0.854,6.215,0.984,9.361c0.078,1.859,0.705,3.653,1.084,5.477c0.711,3.426,1.462,6.84,2.377,10.217
		c0.062,0.227,0.145,0.462-0.025,0.826c-0.486-1.185-0.959-2.272-1.388-3.379c-0.836-2.158-2.028-4.181-2.61-6.43
		c-0.838-3.24-1.34-6.533-1.635-9.882c-0.308-3.485-1.557-6.703-3.723-9.528c-1.479-1.931-3.323-3.445-5.23-4.896
		c-2.859-2.178-5.205-4.814-7.207-7.787c-0.887-1.316-1.697-2.703-3.115-3.578c-1.037-0.639-2.192-0.902-3.326-1.264
		c-3.775-1.195-7.552-2.385-11.306-3.643c-1.4-0.469-2.721-0.463-4.058,0.124c-0.437,0.191-0.9,0.335-1.313,0.568
		c-2.167,1.224-3.61,2.571-1.962,5.844c2.34,4.646,5.756,8.015,10.63,9.974c2.318,0.933,4.401,2.403,6.73,3.229
		c0.169,0.928,0.318,1.705,0.451,2.484c0.32,1.889,1.409,3.353,2.639,4.726c1.75,1.953,2.885,4.187,3.221,6.804
		c0.078,0.6,0.166,1.213-0.045,1.783c-0.955,2.583-1.688,5.251-3.055,7.676c-1.011,1.793-2.349,3.162-4.223,4.094
		c-3.332,1.658-6.426,3.72-9.405,5.947c-0.612,0.458-1.221,0.885-1.987,0.918c-0.473,0.801,0.07,1.115,0.573,1.471
		c1.569,1.111,3.016,2.361,4.251,3.845c1.243,1.491,1.797,3.254,1.956,5.147c0.434,5.182-1.04,9.977-3.025,14.663
		c-0.887,2.096-1.914,4.121-2.986,6.124c-0.312,0.582-0.485,1.156-0.467,1.819c0.03,1.119,0.005,2.239,0.009,3.359
		c0.02,5.376-1.133,10.47-3.519,15.307c-1.94,3.936-4.176,7.696-6.431,11.45c-0.942,1.567-1.931,3.112-2.802,4.72
		c-2.172,4.007-5.567,6.472-9.794,7.908c-2.701,0.918-5.414,1.802-8.125,2.69c-3.936,1.29-7.664,3.057-11.345,4.934
		c-5.559,2.834-11.105,5.692-16.707,8.44c-1.273,0.625-1.629,1.513-1.781,2.775c-0.393,3.271-0.934,6.525-1.316,9.798
		c-0.313,2.685-0.784,5.354-0.811,8.067c-0.72,0-1.44,0-2.16,0c0.076-0.473,0.216-0.925,0.262-1.408
		c0.233-2.453,0.471-4.906,0.779-7.35c0.333-2.639,0.79-5.262,1.092-7.901c0.066-0.575,0.419-1.184,0.158-1.778
		c-0.351-0.062-0.541,0.124-0.74,0.229c-4.005,2.122-8.013,4.234-11.918,6.542c-1.456,0.859-2.541,1.989-3.411,3.415
		c-0.831,1.357-1.666,2.714-2.395,4.126c-0.706,1.364-1.677,2.602-2.067,4.125c-0.8,0-1.6,0-2.4,0
		c1.637-2.871,3.113-5.828,4.795-8.676c1.248-2.112,2.827-3.8,4.997-4.997c3.555-1.961,7.096-3.934,10.77-5.683
		c3.6-1.713,7.039-3.762,10.572-5.618c5.82-3.061,11.644-6.117,17.63-8.84c3.542-1.609,7.284-2.697,10.989-3.875
		c2.763-0.879,5.499-1.834,7.818-3.693c1.081-0.866,1.973-1.877,2.666-3.043c2.986-5.027,6.17-9.94,8.876-15.131
		c1.523-2.923,2.908-5.911,3.579-9.17c0.506-2.458,0.716-4.949,0.853-7.443c-0.476-0.08-0.517,0.271-0.641,0.491
		c-3.164,5.616-6.315,11.238-9.48,16.854c-1.408,2.497-2.829,4.987-4.267,7.466c-0.334,0.576-0.729,1.159-1.535,0.956
		c-0.151-0.277-0.041-0.452,0.058-0.62c1.708-2.9,2.938-6.031,4.342-9.077c0.583-1.264,1.296-2.468,1.974-3.686
		c2.941-5.284,5.98-10.515,8.787-15.868c0.97-1.851,2.055-3.642,2.955-5.534c1.539-3.232,2.898-6.525,3.675-10.029
		c0.562-2.535,0.895-5.09,0.375-7.69c-0.231-1.153-0.648-2.218-1.379-3.132c-1.18-1.475-2.713-2.545-4.222-3.737
		c-0.567,0.863-0.84,1.733-1.199,2.562c-1.579,3.648-3.525,7.117-5.242,10.699c-3.796,7.92-7.45,15.904-10.633,24.099
		c-0.309,0.795-0.545,1.678-1.492,2.032c-0.21-0.33-0.067-0.604,0.03-0.845c1.69-4.188,2.97-8.516,4.336-12.816
		c0.975-3.068,2.485-5.938,3.871-8.843c2.177-4.562,4.505-9.053,6.655-13.627c1.824-3.882,3.358-7.888,4.144-12.125
		c0.4-2.16,0.432-4.336,0.141-6.541c-0.342-2.6-0.622-5.209-1.034-7.799c-0.642-4.031-1.288-8.07-2.9-11.863
		c-0.547-1.289-1.168-2.549-2.497-3.254c-0.3-0.158-0.421-0.466-0.567-0.746c0.064-0.604,0.377-0.951,1.095-1.105
		c1.736,1.925,3.79,3.646,4.611,6.348c0.983,3.234,1.671,6.528,2.163,9.868c0.399,2.714,0.785,5.431,1.161,8.146
		c0.415,3,0.158,5.961-0.545,8.894c-0.1,0.414-0.179,0.832-0.293,1.373c1.013-0.387,1.818-0.871,2.585-1.415
		c1.965-1.393,4.17-2.309,6.361-3.253c0.253-0.108,0.537-0.209,0.808-0.212c1.531-0.014,2.491-0.9,3.297-2.066
		c1.666-2.416,2.66-5.086,2.941-7.996c0.287-2.971-0.64-5.574-2.566-7.838c-0.596-0.699-1.183-1.406-1.748-2.131
		c-1.111-1.422-1.545-3.123-1.853-4.846c-0.167-0.934-0.669-1.471-1.472-1.87c-1.079-0.539-2.256-0.759-3.387-1.125
		c-6.346-2.058-10.529-6.406-13.12-12.405c-0.99-2.294-0.297-4.638,1.697-6.191c1.666-1.301,3.599-2.055,5.649-2.457
		c0.99-0.192,1.969,0.242,2.905,0.533c4.36,1.361,8.695,2.801,13.054,4.174c2.302,0.727,3.888,2.281,5.161,4.234
		c1.531,2.348,3.189,4.6,5.294,6.469c1.401,1.246,2.874,2.412,4.337,3.586c0.779,0.625,1.473,1.342,2.312,2.185
		c-0.067-0.849-0.567-1.248-0.905-1.722c-1.097-1.536-2.552-2.75-3.761-4.19c-2.834-3.374-5.252-7.026-7.442-10.834
		c-0.38-0.659-0.844-1-1.537-1.146c-5.849-1.229-11.307-3.479-16.523-6.352c-0.557-0.306-1.076-0.685-1.588-1.062
		c-0.478-0.354-0.922-0.752-1.434-1.172c-1.265,0.591-2.518,1.192-3.786,1.764c-2.577,1.156-5.17,2.277-7.74,3.449
		c-2.792,1.272-5.29,2.961-7.274,5.34c-0.432,0.52-0.862,1.041-1.107,1.706c0.609,0.462,1.338,0.539,1.99,0.791
		c5.255,2.034,8.25,5.933,9.395,11.348c0.496,2.343,0.757,4.729,0.707,7.122c-0.057,2.678,0.248,5.342,0.051,8.025
		c-0.32,4.365-1.505,8.41-3.846,12.121c-1.603,2.543-3.673,4.715-5.487,7.092c-3.386,4.432-6.689,8.922-9.889,13.488
		c-2.014,2.875-3.956,5.793-5.729,8.824c-0.246,0.42-0.503,0.896-1.093,0.977c-0.154-0.42,0.108-0.666,0.255-0.926
		c0.992-1.736,1.957-3.498,2.663-5.362c1.219-3.218,3.188-5.968,5.18-8.709c2.836-3.901,5.686-7.796,8.709-11.556
		c1.621-2.019,3.358-3.945,4.565-6.269c1.352-2.603,2.204-5.338,2.541-8.259c0.361-3.114,0.25-6.225,0.056-9.333
		c-0.102-1.63-0.086-3.261-0.296-4.896c-0.883-6.88-4.232-11.025-11.096-12.621c-1.272-0.297-2.566-0.562-3.89-0.515
		c-0.547,0.021-0.99-0.282-1.546-0.438c-0.542,1.459-0.71,3.004-1.025,4.51c-0.438,2.097-0.798,4.209-1.166,6.318
		c-0.191,1.101-0.049,2.217-0.225,3.338c-0.306,1.95-0.917,3.789-1.778,5.527c-3.731,7.539-8.659,14.171-14.897,19.857
		c-5.832,5.318-12.24,9.837-18.927,13.964c-1.606,0.991-3.362,1.786-4.982,2.801c-2.311,1.447-4.401,3.175-6.425,4.987
		c-0.627,0.561-1.189,1.223-1.548,1.966c-0.902,1.87-2.45,3.123-3.998,4.369c-1.585,1.274-3.242,2.461-4.866,3.688
		c-0.101,0.076-0.202,0.105-0.383,0.018c-0.069-0.64,0.352-1.052,0.747-1.495c2.817-3.17,5.823-6.148,9.008-9.041
		c0-0.205,0.049-0.454-0.007-0.678c-0.713-2.85,0.344-5.33,1.627-7.748c1.298-2.444,3.008-4.607,4.884-6.627
		c3.045-3.279,6.164-6.492,9.216-9.766c2.749-2.947,5.421-5.957,7.561-9.404c2.221-3.578,3.494-7.433,3.894-11.635
		c0.255-2.681,0.26-5.355,0.153-8.021c-0.125-3.137-0.622-6.237-1.874-9.163c-0.41-0.958-0.909-1.863-1.568-2.675
		c-1.286-1.582-2.922-2.434-4.987-2.315c-1.436,0.082-2.832,0.392-4.151,0.976c-1.012,0.447-1.783,1.156-2.317,2.155
		c-0.79,1.476-1.411,3.021-2.048,4.56c-1.507,3.64-3.765,6.812-6.096,9.947c-2.57,3.454-5.099,6.94-7.683,10.387
		c-3.361,4.48-6.949,8.769-11.262,12.377c-2.139,1.789-4.376,3.464-6.598,5.152c-4.203,3.195-7.784,6.993-10.736,11.348
		c-6.913,10.193-12.919,20.896-17.766,32.23c-3.641,8.517-6.341,17.333-8.369,26.364c-1.87,8.328-4.5,16.42-7.691,24.331
		c-3.979,9.863-8.532,19.45-13.866,28.659c-0.72,0-1.44,0-2.16,0c1.881-3.545,3.897-7.019,5.699-10.606
		c4.222-8.411,7.988-17.013,11.192-25.868c2.501-6.914,4.165-14.048,5.917-21.164c2.898-11.769,7.187-23.012,12.792-33.756
		c3.02-5.788,6.281-11.436,9.747-16.967c3.146-5.022,6.676-9.733,11.12-13.696c2.173-1.938,4.508-3.679,6.836-5.427
		c4.341-3.259,8.094-7.112,11.427-11.381c4.464-5.717,8.721-11.588,12.909-17.509c1.548-2.188,2.598-4.646,3.596-7.125
		c0.369-0.916,0.769-1.827,1.242-2.694c0.895-1.64,2.268-2.762,4.01-3.417c1.893-0.711,3.875-0.998,5.865-0.742
		c2.209,0.283,3.862,1.598,5.198,3.327c0.241,0.312,0.39,0.698,0.774,0.911c0.659-0.357,0.953-1.051,1.404-1.586
		c2.981-3.541,5.885-7.146,8.886-10.669c1.968-2.312,3.948-4.618,6.147-6.722c0.26-0.248,0.493-0.586,0.806-0.707
		c1.242-0.48,1.542-1.556,1.894-2.67c1.782-5.646,4.178-11.053,6.541-16.469c0.601-1.378,1.406-2.669,2.14-4.042
		c-0.381-0.677-1.013-1.123-1.504-1.684c-1.949-2.225-3.304-4.746-4.069-7.618c-0.571-2.141-1.573-4.01-3.402-5.463
		c-1.679-1.335-3.134-2.956-4.665-4.474c-0.933-0.925-1.316-2.026-1.072-3.368c0.213-1.174-0.162-2.398,0.291-3.581
		c-1.56-2.054-2.965-4.172-4.248-6.375c-2.849-4.892-5.214-10.021-7.528-15.178c-1.234-2.751-2.417-5.528-4.061-8.158
		c-1.34,0.003-2.217-0.941-3.146-1.714c-4.736-3.944-9.054-8.324-13.224-12.856c-2.894-3.146-5.763-6.315-8.396-9.683
		c-2.755-3.524-5.175-7.256-6.604-11.543c-0.617-1.853-1.033-3.75-1.056-5.715c-0.018-1.53,0.251-3.019,0.889-4.401
		c0.305-0.66,0.412-1.315,0.287-1.97c-0.436-2.283-0.443-4.6-0.595-6.902c-0.148-2.235,0.099-4.463,0.308-6.69
		c0.234-2.496,0.744-4.929,1.49-7.321c1.604-5.14,4.389-9.449,8.904-12.493c3.036-2.046,6.356-2.942,10.062-2.355
		c2.904,0.459,5.458,1.645,7.859,3.256c0.297,0.2,0.585,0.414,0.949,0.672c1.181-1.19,1.809-2.692,2.466-4.158
		c1.118-2.493,1.601-5.142,1.679-7.861c0.021-0.726,0.209-1.247,1.007-1.443c0.651,0.08,1.087,0.536,1.518,1.016
		c2.906,3.239,4.969,7.01,6.822,10.903c1.894,3.98,3.527,8.071,5.038,12.211c0.137,0.375,0.233,0.798,0.536,1.045
		c0.91,0.744,0.86,1.833,1.077,2.821c0.081,0.369-0.107,0.749-0.426,0.931c-0.549,0.315-0.718,0.83-0.85,1.368
		c-1.902,7.77-4.046,15.475-6.165,23.187c-0.234,0.849-0.096,1.547,0.208,2.299c1.964,4.856,3.916,9.718,5.876,14.575
		c3.269,8.097,6.544,16.191,9.811,24.289c1.218,3.018,2.434,6.037,3.622,9.066c0.381,0.972,0.97,1.613,1.954,2.078
		c4.004,1.889,7.25,4.689,9.885,8.269c3.403,4.625,6.54,9.424,9.69,14.381c3.234-1.391,6.357-3.017,9.685-4.299
		c0.015-1.288-0.527-2.379-0.789-3.521c-0.363-1.581-0.847-3.136-1.325-4.688c-0.288-0.934-0.152-1.76,0.287-2.622
		c2.068-4.059,4.109-8.131,6.143-12.207c2.107-4.225,4.195-8.459,6.295-12.688c0.547-1.103,1.459-1.228,2.242-0.271
		c0.322,0.394,0.562,0.865,0.787,1.328c1.613,3.34,2.57,6.892,3.393,10.492c1.472,6.447,2.684,12.946,4.031,19.418
		c0.057,0.272,0.055,0.556,0.092,0.832c0.262,1.934,0.836,3.637,2.674,4.747c0.787,0.476,1.35,1.341,1.863,2.161
		c1.271,2.023,1.535,4.138,0.65,6.379c-0.521,1.326-0.997,2.67-1.459,4.02c-0.219,0.641-0.241,1.26-0.122,1.877
		c0.925,4.787,1.772,9.586,2.597,14.391c0.348,2.03,0.768,4.047,1.143,6.073c0.104,0.554,0.054,1.104-0.165,1.757
		c0.934,0.15,1.821,0.262,2.696,0.438c3.183,0.642,5.836,2.256,8.172,4.462c1.923,1.814,3.545,3.9,5.322,5.849
		c3.314,3.632,7.223,6.492,11.367,9.076c2.069,1.29,4.02,2.746,5.562,4.679c1.673,2.096,2.494,4.5,2.602,7.151
		c0.217,5.437-0.02,10.873-0.04,16.31c-0.017,4.031-0.245,8.065-0.479,12.094c-0.227,3.902-0.488,7.806-0.719,11.709
		c-0.205,3.468-0.384,6.933-0.47,10.406c-0.075,3.086-1.724,5.387-4.092,7.232c-2.685,2.092-5.673,3.689-8.646,5.307
		c-6.836,3.721-13.24,8.09-19.459,12.758c-5.131,3.85-10.326,7.608-15.637,11.213c-2.47,1.677-4.425,3.921-6.221,6.267
		c-4.253,5.557-7.675,11.607-10.295,18.095c-1.144,2.83-1.79,5.827-2.551,8.776c-1.219,4.716-2.243,9.48-3.086,14.279
		c-0.515,2.929-0.888,5.884-1.303,8.831c-1.006,7.145-1.008,14.318-0.907,21.505C251.12,396.24,250.48,396.24,249.84,396.24z
		 M215.797,65.549c-0.6-1.618-1.135-3.11-1.706-4.587c-2.066-5.347-4.207-10.661-7.181-15.589c-0.755-1.252-1.504-2.514-2.523-3.621
		c-0.257,0.333-0.355,0.622-0.395,0.941c-0.479,3.879-2.025,7.313-4.318,10.447c-1.064,1.455-2.396,2.676-3.494,4.097
		c-2.03,2.629-3.615,5.536-5.131,8.473c-4.063,7.876-7.581,16.003-10.958,24.191c-1.752,4.249-3.444,8.524-5.152,12.76
		c2.926,5.238,20.656,24.075,23.824,25.375c0.367-0.586,0.131-1.251,0.237-1.869c0.672-3.913,1.567-7.774,2.75-11.565
		c1.217-3.899,2.485-7.782,3.698-11.682c2.932-9.426,5.543-18.943,8.025-28.496c0.533-2.053,1.058-4.107,1.622-6.298
		c-1.181,0.25-2.072,0.758-2.986,1.192c-5.031,2.392-9.588,5.409-13.014,9.915c-1.265,1.663-2.299,3.46-3.241,5.317
		c-0.184,0.362-0.277,0.824-0.82,0.962c-0.335-0.962-0.043-1.794,0.251-2.614c1.055-2.943,2.766-5.487,4.879-7.756
		c3.321-3.565,7.418-6.007,11.822-7.979C213.211,66.613,214.459,66.113,215.797,65.549z M273.548,128.854
		c-0.456,0.248-0.538,0.662-0.713,1.011c-3.372,6.73-6.669,13.501-10.158,20.171c-1.046,2-1.471,3.794-0.634,5.948
		c0.668,1.72,1.041,3.554,1.526,5.268c0.508,0.134,0.826-0.062,1.162-0.183c1.642-0.596,3.276-1.332,4.992-1.549
		c1.969-0.25,2.981-1.458,3.891-2.948c0.166-0.272,0.312-0.558,0.482-0.827c0.416-0.658,0.969-1.05,1.805-0.884
		c0.412,0.287,0.634,0.709,0.787,1.164c0.565,1.664,1.381,3.217,2.104,4.81c0.627,1.381,0.446,2.697-0.759,3.684
		c-0.6,0.49-1.077,1.062-1.542,1.657c-1.3,1.665-2.591,3.335-3.882,5.002c0.436,0.473,0.979,0.509,1.453,0.672
		c1.635,0.561,3.18,1.283,4.518,2.395c1.984,1.649,2.958,3.817,3.132,6.347c0.106,1.574-0.785,2.801-1.616,4.019
		c-1.354,1.985-3.302,3.332-5.218,4.693c-0.778,0.554-1.621,1.013-2.233,1.773c-0.39,0.481-0.852,0.909-1.511,0.719
		c-0.743-0.214-0.831-0.9-0.86-1.549c-0.017-0.369-0.09-0.703-0.262-1.029c-0.371-0.697-0.725-1.402-0.769-2.237
		c-2.293-0.101-4.302-0.956-6.364-1.85c-0.145,1.375-0.368,2.582-0.726,3.76c-1.574,5.18-4.669,9.189-9.288,12.013
		c-0.861,0.525-1.629,1.104-2.156,2.01c-0.399,0.688-1.116,1.094-1.911,1.051c-1.563-0.084-2.961,0.411-4.388,0.946
		c-3.193,1.198-6.413,2.327-9.707,3.226c-0.754,0.205-1.278,0.573-1.41,1.391c-0.037,0.232-0.146,0.453-0.216,0.683
		c-2.022,6.642-3.719,13.368-5.287,20.127c-0.217,0.937-0.607,1.879-0.494,2.953c1.526-0.028,2.951,0.33,4.432,0.425
		c0.232-1.02,0.781-1.788,1.386-2.533c2.21-2.729,5.053-4.604,8.201-6.05c2.495-1.146,5.025-2.215,7.526-3.347
		c1.184-0.535,2.391-1.038,3.467-1.745c-0.032-0.263-0.021-0.431-0.074-0.573c-0.595-1.599-0.526-3.18-0.007-4.793
		c1.106-3.441,3.339-6.027,6.107-8.225c1.007-0.801,2.109-1.271,3.439-1.014c0.298,0.058,0.638,0.113,0.912-0.099
		c-0.199-2.565,0.268-4.987,1.926-6.971c1.81-2.163,4.41-2.121,6.775-2.009c3.043-2.78,5.944-5.466,8.889-8.104
		c1.067-0.956,1.86-0.674,2.207,0.757c0.438,1.812,0.793,3.644,1.188,5.466c0.333,1.539,0.69,3.073,0.838,4.655
		c1.3,0.148,2.482,0.436,3.666,0.428c0.209-0.584-0.091-1.021-0.169-1.484c-0.718-4.227-1.443-8.452-2.203-12.671
		c-0.765-4.257-1.562-8.509-2.355-12.761c-0.74-3.98-1.476-7.962-2.244-11.937c-0.912-4.711-1.832-9.421-2.801-14.121
		c-0.864-4.194-1.719-8.392-2.862-12.522C275.042,132.266,274.418,130.518,273.548,128.854z M209.178,270.482
		c0.343-2.529,0.529-4.808,0.976-7.03c1.416-7.043,3.192-14.009,4.564-21.062c0.863-4.437,1.696-8.877,2.479-13.328
		c0.763-4.338,1.584-8.66,2.542-12.957c0.213-0.957,0.588-1.893,0.575-3.195c-5.921,6.214-11.095,12.74-16.345,19.13
		c-0.075,0.478,0.083,0.837,0.216,1.217c0.789,2.261,1.225,4.608,1.452,6.978c0.348,3.625,0.259,7.25-0.177,10.877
		c-0.395,3.279-1.322,6.367-2.82,9.3c-2.186,4.276-5.294,7.858-8.517,11.354c-3.656,3.967-7.567,7.697-11.056,11.818
		c-1.989,2.35-3.801,4.832-4.609,7.881c-0.211,0.795-0.38,1.604-0.073,2.489c0.252-0.199,0.442-0.341,0.623-0.493
		c2.473-2.082,5-4.092,7.71-5.859c4.34-2.832,8.71-5.617,12.833-8.769C202.978,276.213,206.25,273.414,209.178,270.482z
		 M210.717,268.594c0.65-0.382,1.016-0.859,1.39-1.301c2.869-3.386,5.345-7.049,7.485-10.932c1.207-2.188,2.381-4.422,2.784-6.928
		c0.233-1.451,0.151-2.953,0.398-4.4c0.581-3.399,1.201-6.797,1.938-10.164c1.909-8.712,3.967-17.391,6.672-25.896
		c0.684-2.148,1.241-4.348,2.366-6.344c0.476-0.844,1.181-1.495,1.67-2.324c1.959-3.321,4.003-6.592,5.947-9.921
		c1.538-2.635,3.818-4.19,6.738-4.961c0.705-2.513,0.995-5.12,1.46-7.693c0.128-0.709-0.616-1.639-1.375-1.858
		c-1.479-0.428-2.961-0.255-4.348,0.258c-2.394,0.886-4.477,2.26-6.047,4.345c-0.744,0.987-1.579,1.907-2.397,2.835
		c-0.53,0.602-1.087,1.193-1.374,1.946c-0.616,1.613-1.621,3.006-2.45,4.499c-1.742,3.137-2.944,6.514-4.378,9.789
		c-3.333,7.606-5.396,15.574-6.889,23.71c-0.68,3.705-1.308,7.419-2.006,11.12c-0.742,3.933-1.524,7.858-2.316,11.781
		c-1.042,5.165-2.227,10.299-3.485,15.415C211.934,263.869,211.335,266.162,210.717,268.594z M225.087,164.116
		c0.394-3.032,0.472-6.065,0.758-9.081c0.17-1.786,0.269-3.579,0.448-5.364c0.079-0.79-0.031-1.46-0.517-2.126
		c-0.938-1.287-2.136-2.269-3.468-3.082c-2.514-1.532-4.147-3.694-4.789-6.559c-0.329-1.47-0.625-2.961-0.752-4.459
		c-0.311-3.65-0.992-7.235-1.803-10.793c-1.444-6.334-2.972-12.65-4.478-18.971c-0.408-1.713-0.864-3.415-1.331-5.251
		c-0.447,0.399-0.479,0.812-0.59,1.164c-0.563,1.775-1.092,3.562-1.643,5.341c-1.831,5.91-3.953,11.734-5.213,17.809
		c-0.427,2.058-0.905,4.116-0.834,6.253c1.178,1.086,1.945,2.427,2.648,3.822c2.379,4.721,4.318,9.647,6.7,14.366
		c2.206,4.371,4.451,8.728,7.556,12.553c1.308,1.611,2.738,3.13,4.653,4.055C223.258,164.193,224.124,164.467,225.087,164.116z
		 M173.635,100.65c1.175-2.94,2.219-5.596,3.296-8.239c3.821-9.376,7.715-18.72,12.403-27.707c1.993-3.819,4.021-7.622,7.066-10.754
		c0.186-0.191,0.415-0.388,0.394-0.778c-1.311-1.12-2.828-1.971-4.459-2.624c-2.458-0.984-4.998-1.301-7.597-0.736
		c-3.739,0.813-6.505,3.119-8.769,6.046c-3.13,4.046-4.438,8.81-5.091,13.788c-0.386,2.94-0.278,5.902-0.23,8.855
		c0.018,1.112,0.131,2.231,0.312,3.329c0.265,1.612,0.629,3.205-0.37,4.711c-0.106,0.16-0.15,0.367-0.196,0.558
		c-0.466,1.932-0.399,3.866-0.003,5.797C170.943,95.599,172.116,98.04,173.635,100.65z M255.336,171.778
		c-0.078,0.312,0.094,0.488,0.218,0.692c0.699,1.16,1.384,2.327,2.081,3.488c0.352,0.585,0.617,1.17,0.615,1.895
		c-0.001,0.62,0.148,1.237,0.599,1.757c1.787,2.062,3.96,3.599,6.433,4.699c1.557,0.692,3.192,0.964,4.907,0.545
		c0.664-0.162,1.201-0.62,1.902-0.674c1.032-0.08,1.898-0.575,2.693-1.208c1.295-1.03,2.333-2.294,3.292-3.627
		c0.278-0.387,0.491-0.819,0.624-1.288c0.371-1.317,0.322-1.432-0.889-2.05c-0.283-0.145-0.574-0.286-0.832-0.47
		c-1.578-1.126-3.36-1.782-5.213-2.268C266.37,171.854,260.861,171.685,255.336,171.778z M254.559,170.77
		c0.457-1.029,1.215-1.085,2.06-1.091c4.194-0.03,8.363,0.191,12.5,0.941c0.477,0.086,0.982,0.191,1.492-0.156
		c2.504-1.709,4.668-3.735,6.166-6.404c0.156-0.275,0.32-0.559,0.4-0.859c0.396-1.48-0.465-2.521-2.002-2.466
		c-1.635,0.058-3.24,0.274-4.83,0.681c-4.25,1.089-8.266,2.801-12.256,4.581c-1.661,0.741-3.342,1.441-4.935,2.387
		C253.459,169.249,253.993,169.892,254.559,170.77z M237.409,161.165c-0.323,0.646-0.472,1.076-0.555,1.552
		c-0.46,2.611-0.944,5.218-1.431,7.824c-0.407,2.176-1.187,4.279-1.286,6.513c-0.06,1.348-0.005,2.676,1.247,3.691
		c2.96-3.587,6.228-6.773,9.814-9.71C242.662,167.64,240.309,164.298,237.409,161.165z M225.371,134.684
		c-4.176-10.356-8.352-20.713-12.527-31.07c-0.083,0.026-0.166,0.053-0.249,0.079c2.142,9.436,4.733,18.775,6.131,28.386
		C221.517,131.049,222.261,131.365,225.371,134.684z M258.109,181.592c-0.437,1.749-0.999,3.228-1.34,4.778
		c-0.826,3.748-1.607,7.517-3.528,10.917c-0.159,0.281-0.458,0.596-0.126,1.096c4.836-3.639,7.482-8.395,7.817-14.404
		C260.081,183.053,259.125,182.419,258.109,181.592z M243.915,202.807c-2.235-1.467-4.284-3.041-6.188-4.988
		c-1.317,2.75-2.359,5.365-3.27,8.279C237.821,205.213,240.879,204.134,243.915,202.807z M282.463,198.755
		c-0.593-2.827-1.001-5.439-1.781-8.132c-2.311,2.101-4.451,4.048-6.771,6.16C276.828,197.456,279.534,198.079,282.463,198.755z
		 M279.943,179.442c-2.256,3.823-4.936,6.699-9.262,7.46c0.213,1.175,0.953,1.943,1.151,3.006c3.513-2.347,7.104-4.409,8.771-8.496
		C280.316,180.866,280.137,180.304,279.943,179.442z M242.985,190.76c0.251,0.267,0.366,0.434,0.521,0.542
		c0.257,0.18,0.531,0.341,0.813,0.477c0.745,0.359,1.223,0.287,1.638-0.36c0.676-1.056,1.172-2.199,1.506-3.641
		C245.658,188.459,244.319,189.483,242.985,190.76z M284.215,164.856c-0.048,1.23,0.992,6.446,1.395,7.126
		C287.252,169.124,286.486,166.778,284.215,164.856z M273.732,158.781c0.869,0.106,1.533,0.187,2.332,0.283
		c-0.358-0.798-0.651-1.449-1.004-2.233C274.596,157.516,274.227,158.059,273.732,158.781z M246.248,172.754
		c-0.367,0.291-0.757,0.467-0.834,1.006c0.544-0.025,1.017,0.114,1.438-0.155C246.863,173.167,246.608,172.986,246.248,172.754z"/>
</g>
</svg>
