<?xml version="1.0" encoding="utf-8"?>
<!-- Generator: Adobe Illustrator 16.2.1, SVG Export Plug-In . SVG Version: 6.00 Build 0)  -->
<!DOCTYPE svg PUBLIC "-//W3C//DTD SVG 1.1//EN" "http://www.w3.org/Graphics/SVG/1.1/DTD/svg11.dtd">
<svg version="1.1" id="RS_x5F_straps06_xA0_Image_1_"
	 xmlns="http://www.w3.org/2000/svg" xmlns:xlink="http://www.w3.org/1999/xlink" x="0px" y="0px" width="528px" height="396px"
	 viewBox="0 0 528 396" enable-background="new 0 0 528 396" xml:space="preserve">
<path d="M409.68,0.24c-0.72,0.93-1.779,1.436-2.71,2.083c-10.165,7.074-20.36,14.104-30.54,21.156
	c-10.74,7.439-21.476,14.89-32.214,22.333c-4.782,3.315-9.569,6.625-14.356,9.935c-0.293,0.204-0.603,0.385-0.871,0.556
	c-0.243-0.015-0.321-0.181-0.342-0.316c-0.506-3.36-1.691-6.52-2.885-9.673c-2.361-6.248-5.115-12.328-7.89-18.399
	c-0.032-0.071-0.058-0.146-0.106-0.273c0.531-0.632,1.297-0.992,1.988-1.425c7.126-4.45,14.268-8.877,21.4-13.312
	c5.949-3.699,11.904-7.393,17.841-11.111c0.759-0.475,1.606-0.841,2.205-1.552c-1.2,0-2.4,0-3.601,0
	c-0.109,0.293-0.406,0.368-0.634,0.509c-4.149,2.594-8.307,5.177-12.462,7.764c-7.906,4.923-15.801,9.866-23.729,14.756
	c-1.575,0.972-3.002,2.252-4.896,2.644c-0.214,0.044-0.382,0.184-0.464,0.353c-0.299,0.618-0.877,0.891-1.414,1.226
	c-4.767,2.969-9.526,5.946-14.293,8.915c-6.929,4.315-13.849,8.643-20.793,12.931c-5.215,3.22-10.414,6.467-15.627,9.69
	c-3.758,2.324-7.511,4.661-11.24,7.033c-0.482,0.307-0.929,0.697-1.625,0.572c-0.364-0.065-0.683,0.293-0.933,0.642
	c-0.963,1.337-2.5,1.826-3.839,2.741c-0.23-0.728,0.067-1.211,0.118-1.713c0.201-1.98,0.352-3.965,0.547-5.944
	c0.253-2.57,0.199-5.111-0.353-7.612c-0.764-3.461-2.857-5.794-6.297-6.829c-0.72-0.216-1.476-0.289-2.211-0.441
	c-3.78-0.781-7.603-1.302-11.442-1.565c-3.054-0.209-6.133-0.326-9.197,0.167c-2.304,0.371-4.458,1.083-6.492,2.229
	c-2.59,1.459-3.882,3.598-3.93,6.598c-0.032,2.026-0.288,4.051-0.492,6.071c-0.283,2.81-0.654,5.611-0.91,8.422
	c-0.295,3.249-0.632,6.494-0.939,9.741c-0.323,3.409-0.649,6.817-0.969,10.226c-0.327,3.488-0.684,6.976-0.949,10.467
	c-0.25,3.296-0.619,6.582-0.818,9.885c-0.076,1.268-0.11,2.549-0.255,3.817c-0.333,2.911-0.252,5.82,0.144,8.716
	c0.151,1.102,0.444,2.204,1.131,3.104c0.372,0.488,0.53,0.967,0.472,1.545c-0.214,2.143-0.294,4.297-0.438,6.444
	c-0.249,3.741-0.493,7.483-0.72,11.226c-0.231,3.822-0.484,7.643-0.724,11.465c-0.158,2.508-0.334,5.015-0.476,7.523
	c-0.218,3.864-0.495,7.723-0.73,11.585c-0.225,3.703-0.481,7.403-0.707,11.104c-0.236,3.862-0.457,7.725-0.733,11.585
	c-0.23,3.223-0.303,6.457-0.545,9.68c-0.076,1.012-0.125,1.922,0.715,2.631c-0.584,0.438-1.211,0.336-1.817,0.621
	c0.002-0.647-0.034-1.162-0.378-1.645c-1.446-2.023-3.002-3.939-4.999-5.454c-2.5-1.897-5.229-3.319-8.456-2.979
	c-3.039,0.321-6.017,1.062-8.795,2.397c-1.39,0.668-2.244,1.886-2.856,3.269c-0.775,1.752-1.13,3.617-1.475,5.487
	c-0.315,1.708-0.369,3.46-0.809,5.136c-1.413-0.021-2.503,0.639-3.567,1.34c-2.873,1.896-5.475,4.133-8.041,6.41
	c-2.786,2.476-5.698,4.771-9.192,6.166c-2.605,1.039-4.124,2.959-5.031,5.537c-1.002,2.844-1.742,5.756-2.485,8.672
	c-1.097,4.301-2.152,8.617-2.96,12.979c-0.781,4.213-1.394,8.455-1.787,12.734c-0.311,3.381-0.561,6.768-0.63,10.15
	c-0.139,6.828-0.063,13.658-0.731,20.471c-0.268,2.729-0.823,5.414-1.096,8.141c-0.264,2.633-0.332,5.284-0.018,7.895
	c0.32,2.656-0.025,5.033-1.575,7.252c-1.605,2.3-3.428,4.415-5.356,6.431c-6.936,7.248-13.934,14.437-20.89,21.666
	c-7.177,7.458-14.327,14.94-21.499,22.403c-5.124,5.332-10.268,10.646-15.395,15.976c-1.605,1.668-3.185,3.36-4.776,5.043
	c0.96,0,1.92,0,2.88,0c0.029-0.358,0.321-0.531,0.537-0.756c4.498-4.711,8.989-9.431,13.498-14.13
	c7.662-7.987,15.326-15.974,23.008-23.941c7.404-7.682,14.835-15.338,22.246-23.013c2.358-2.442,4.642-4.951,6.704-7.656
	c1.821-2.389,2.972-4.964,2.665-8.068c-0.098-0.989-0.191-1.984-0.249-2.979c-0.167-2.835-0.004-5.673,0.513-8.456
	c0.84-4.52,1.22-9.084,1.326-13.652c0.168-7.308,0.101-14.617,0.749-21.91c0.215-2.419,0.468-4.832,0.813-7.229
	c0.543-3.764,1.229-7.51,2.104-11.215c1.237-5.24,2.399-10.497,4.054-15.631c0.766-2.375,2.049-4.131,4.474-5.073
	c3.033-1.181,5.643-3.097,8.087-5.222c2.407-2.096,4.782-4.23,7.357-6.119c1.016-0.744,2.004-1.575,3.23-1.938
	c0.388,0.146,0.643,0.385,0.857,0.729c-0.06,0.369-0.171,0.759-0.179,1.15c-0.045,2.273-0.523,4.516-0.505,6.793
	c0.003,0.414-0.097,0.826-0.304,1.145c-0.378,0.578-0.409,1.188-0.4,1.832c0.06,4.121-0.544,8.166-1.462,12.166
	c-0.928,4.047-2.272,7.955-4.402,11.531c-2.525,4.241-5.181,8.404-7.749,12.621c-3.146,5.164-6.299,10.326-9.069,15.709
	c-0.345,0.668-0.702,1.336-0.907,2.069c-0.064,0.229-0.189,0.438-0.077,0.688c0.154,0.344,0.357,0.646,0.761,0.688
	c0.443,0.047,0.78-0.168,0.976-0.556c0.542-1.064,1.032-2.156,1.601-3.207c4.19-7.739,8.838-15.209,13.494-22.67
	c2.256-3.616,4.446-7.254,5.82-11.318c0.16-0.473,0.211-1.007,0.686-1.412c-0.152,1.725-0.271,3.387-0.451,5.042
	c-0.194,1.774-0.455,3.543-0.668,5.317c-0.271,2.248-0.498,4.503-0.789,6.75c-0.266,2.051-0.431,4.111-0.685,6.162
	c-0.207,1.668-0.159,3.346-0.359,5.013c-0.176,1.465-0.131,2.948,0.021,4.429c0.159,1.547,0.251,3.1,0.362,4.649
	c0.146,2.043-0.201,4.067-0.288,6.103c-0.042,0.98-0.136,1.983-0.252,2.973c-0.225,1.896-0.438,3.793-0.655,5.688
	c-0.186,1.618-0.365,3.237-0.56,4.854c-0.205,1.695-0.436,3.389-0.635,5.085c-0.19,1.617-0.341,3.241-0.531,4.859
	c-0.208,1.776-0.504,3.545-0.649,5.326c-0.167,2.064-0.363,4.129-0.57,6.188c-0.324,3.218-0.439,6.444-0.613,9.668
	c-0.133,2.473-0.064,4.958-0.025,7.437c0.05,3.15,0.518,6.243,1.337,9.291c1.209,4.495,3.053,8.758,4.712,13.088
	c1.035,2.702,2.018,5.415,2.592,8.34c-6.331,7.264-12.442,14.719-17.79,22.767c0.8,0,1.6,0,2.4,0
	c2.642-4.072,5.613-7.898,8.639-11.688c2.208-2.766,4.474-5.48,6.843-8.179c0.551,0.362,0.368,0.886,0.334,1.304
	c-0.168,2.067-0.611,4.064-1.507,5.959c-1.868,3.949-3.788,7.872-5.838,11.73c-0.143,0.27-0.403,0.514-0.311,0.873
	c0.72,0,1.44,0,2.16,0c-0.025-0.212,0.079-0.38,0.173-0.559c2-3.751,3.89-7.556,5.655-11.424c0.951-2.085,1.551-4.234,1.609-6.541
	c0.079-3.146-0.665-6.134-1.622-9.095c-1.441-4.458-3.404-8.718-4.936-13.144c-1.107-3.195-2.039-6.441-2.302-9.81
	c-0.462-5.908-0.102-11.822,0.251-17.726c0.064-1.068,0.138-2.147,0.252-3.219c0.21-1.979,0.45-3.953,0.662-5.932
	c0.259-2.413,0.473-4.831,0.759-7.24c0.356-2.998,0.791-5.986,1.145-8.984c0.289-2.449,0.472-4.912,0.769-7.358
	c0.389-3.208,0.673-6.415,0.719-9.651c0.031-2.162-0.312-4.3-0.281-6.455c0.028-2-0.026-4.002,0.093-5.996
	c0.135-2.263,0.411-4.518,0.646-6.772c0.169-1.62,0.365-3.237,0.563-4.854c0.282-2.287,0.616-4.567,0.855-6.859
	c0.186-1.779,0.353-3.564,0.566-5.34c0.3-2.496,0.587-5.008,0.593-7.502c0.012-5.676,0.379-11.327,0.808-16.979
	c0.075-0.99,0.152-1.986,0.259-2.977c0.284-2.649,0.574-5.299,0.925-7.939c0.271-2.041,0.619-4.074,1.268-6.037
	c0.632-1.91,1.879-3.193,3.872-3.697c1.499-0.379,3.001-0.752,4.482-1.191c2.123-0.631,4.16-0.41,6.151,0.48
	c3.52,1.574,5.888,4.358,7.993,7.529c-0.53,0.307-1.047,0.372-1.536,0.463c-0.761,0.141-1.157,0.539-1.369,1.287
	c-0.811,2.857,0.192,4.93,3.061,5.52c2.002,0.412,3.003,1.604,3.697,3.306c0.711,1.743,1.037,3.563,1.244,5.433
	c0.411,3.715,0.233,7.424-0.124,11.116c-0.214,2.218-0.533,4.441-0.592,6.655c-0.11,4.068-0.249,8.145,0.153,12.22
	c0.34,3.459,1.03,6.828,2.24,10.069c0.921,2.472,2.185,4.777,4.183,6.596c0.566,0.516,1.151,0.961,1.899,1.104
	c0.995-0.696,1.069-1.252,0.167-1.952c-1.688-1.312-2.806-3.027-3.717-4.918c-1.218-2.53-1.905-5.222-2.339-7.972
	c-0.234-1.481-0.562-2.972-0.493-4.473c1.116-0.838,1.896-1.893,2.609-3.005c3.241-5.062,4.342-10.718,4.557-16.601
	c0.093-2.555,0.109-5.119-0.239-7.662c-0.296-2.164-0.647-4.326-1.668-6.303c-0.809-1.565-2.006-2.635-3.76-3.082
	c-1.077-0.273-2.029,0.157-3.047,0.33c-0.18-0.143-0.4-0.262-0.339-0.658c11.556-2.071,22.961-4.978,34.369-7.717
	c0.237,0.252,0.199,0.512,0.153,0.731c-0.546,2.647-0.951,5.319-1.315,7.998c-0.295,2.168-0.562,4.339-0.827,6.511
	c-0.226,1.857-0.48,3.715-0.627,5.577c-0.095,1.201-0.482,2.446,0.231,3.587c-0.038,0.469-0.23,0.866-0.411,1.264
	c-1.328,2.938-2.627,5.887-4.005,8.799c-3.935,8.314-8.195,16.427-13.818,23.781c-6.986,9.139-12.755,19.062-18.21,29.166
	c-0.168,0.312-0.353,0.615-0.416,0.981c-0.085,0.485,0.017,0.886,0.472,1.099c0.44,0.205,0.858,0.096,1.174-0.283
	c0.125-0.149,0.222-0.326,0.314-0.5c2.341-4.433,4.814-8.789,7.4-13.082c3.228-5.361,6.604-10.625,10.394-15.607
	c2.778-3.652,5.365-7.426,7.646-11.408c3.56-6.216,6.62-12.68,9.553-19.206c2.559-5.692,4.897-11.489,8.12-16.864
	c1.582-2.638,3.18-5.26,5.398-7.427c1.569-1.532,3.362-2.498,5.677-2.264c2.661,0.271,5.293,0.647,7.764,1.717
	c3.404,1.474,5.569,4.035,5.934,7.748c0.395,4.021,0.016,8.053-0.512,12.051c-0.348,2.644-0.691,5.29-0.841,7.946
	c-0.193,3.424-0.088,6.854,0.682,10.229c0.753,3.291,1.573,6.558,3.064,9.612c0.315,0.647,0.667,1.274,1.139,1.815
	c0.362,0.416,0.81,0.695,1.356,0.279c0.508-0.387,0.514-0.852,0.185-1.367c-0.255-0.401-0.521-0.803-0.724-1.231
	c-3.219-6.866-4.375-14.083-3.549-21.606c0.092-0.83,0.131-1.666,0.248-2.496c0.234-1.69,0.47-3.385,0.644-5.084
	c0.214-2.098,0.364-4.201,0.542-6.297c0.719-0.444,1.523-0.508,2.281-0.699c4.738-1.196,9.531-1.836,14.406-1.065
	c3.201,0.507,5.729,1.974,7.01,5.19c2.275,5.726,3.299,11.679,3.381,17.806c0.041,2.997,0.041,5.993-0.167,8.993
	c-0.341,4.882,0.571,9.699,0.97,14.543c0.174,2.102,0.51,4.189,0.631,6.294c0.15,2.628,0.484,5.243,0.516,7.88
	c0.011,0.789,0.541,1.369,1.094,1.33c0.581-0.042,1.059-0.684,0.924-1.45c-0.264-1.503-0.21-3.026-0.314-4.534
	c-0.227-3.221-0.562-6.431-0.838-9.644c-0.086-1.021-0.158-2.06-0.326-3.085c-0.274-1.684-0.467-3.391-0.553-5.096
	c-0.096-1.875-0.035-3.76-0.031-5.64c0.002-0.306-0.096-0.646,0.258-0.958c1.849-0.015,3.761-0.038,5.658,0.275
	c2.399,0.396,4.744,0.965,6.867,2.219c2.031,1.202,3.379,2.924,3.771,5.27c0.321,1.92,0.655,3.857,0.717,5.795
	c0.078,2.557,0.379,5.103,0.295,7.666c-0.065,1.998-0.08,4.004,0.017,6c0.104,2.143-0.031,4.334,0.621,6.404
	c0.547,1.732,0.781,3.471,0.807,5.273c0.039,2.92-0.059,5.834-0.277,8.742c-0.125,1.66-0.406,3.311-0.607,4.967
	c-0.244,2.016-0.662,3.991-1.315,5.915c-0.194,0.573-0.065,1.047,0.513,1.276c0.588,0.234,0.995-0.093,1.273-0.584
	c0.135-0.238,0.221-0.51,0.303-0.774c1.036-3.358,1.406-6.83,1.762-10.308c0.195-1.91,0.239-3.824,0.266-5.74
	c0.003-0.231-0.016-0.489,0.234-0.633c0.23-0.062,0.373,0.075,0.525,0.205c1.758,1.469,3.286,3.146,4.546,5.062
	c2.396,3.641,3.493,7.669,3.271,11.995c-0.166,3.219-0.645,6.421-0.879,9.639c-0.236,3.264-0.304,6.539-0.528,9.804
	c-0.093,1.325-0.08,2.727-1.032,3.841c-1.479,1.729-2.938,3.476-4.438,5.187c-3.104,3.546-6.234,7.068-9.344,10.609
	c-3.24,3.69-6.472,7.39-9.701,11.09c-3.043,3.486-6.125,6.941-8.912,10.644c-4.256,5.647-8.875,10.993-13.486,16.35
	c-0.934,1.084-2.01,2.056-2.758,3.297c0.88,0,1.76,0,2.64,0c1.24-1.865,2.845-3.431,4.282-5.13
	c2.988-3.536,5.979-7.073,8.861-10.695c1.888-2.369,3.617-4.864,5.608-7.152c2.857-3.282,5.722-6.562,8.586-9.839
	c3.233-3.697,6.476-7.388,9.708-11.087c3.363-3.849,6.729-7.696,10.071-11.562c0.864-0.999,1.521-2.086,1.674-3.486
	c0.089-0.794,0.084-1.588,0.177-2.376c0.395-3.37,0.344-6.77,0.688-10.145c0.229-2.259,0.264-4.539,0.548-6.79
	c0.358-2.845,0.304-5.662-0.396-8.425c-1.373-5.427-4.477-9.731-8.922-13.067c-0.771-0.578-1.111-1.176-1.062-2.096
	c0.081-1.449-0.216-2.84-0.697-4.207c-0.344-0.977-0.469-2.008-0.495-3.043c-0.057-2.199-0.087-4.397-0.147-6.598
	c-0.14-4.982-0.114-9.967-0.783-14.934c-0.556-4.112-2.548-7.058-6.313-8.75c-2.629-1.181-5.412-1.771-8.291-1.993
	c-1.344-0.104-2.688-0.199-4.146-0.255c0-0.584,0.002-1.094,0-1.604c-0.018-3.948,0.109-7.894-0.45-11.833
	c-0.602-4.229-1.649-8.312-3.35-12.229c-0.806-1.854-2.11-3.26-3.859-4.267c-2.414-1.391-5.08-1.825-7.791-1.913
	c-3.352-0.107-6.653,0.396-9.937,1.086c-1.18,0.248-2.328,0.689-3.58,0.777c-0.264-1.249-0.401-2.439-0.53-3.714
	c1.505,0.428,2.884,0.553,4.254,0.116c1.647-0.523,3.364-0.545,5.058-0.725c1.899-0.199,3.805-0.356,5.705-0.553
	c1.978-0.204,3.951-0.447,5.931-0.645c1.981-0.198,3.968-0.35,5.948-0.541c2.18-0.213,4.355-0.451,6.533-0.676
	c1.821-0.188,3.645-0.365,5.465-0.556c1.978-0.207,3.953-0.431,5.931-0.632c1.899-0.194,3.803-0.363,5.702-0.561
	c1.938-0.203,3.871-0.438,5.809-0.637c1.86-0.189,3.727-0.328,5.585-0.529c2.606-0.283,5.208-0.638,7.817-0.899
	c2.683-0.271,5.378-0.447,8.025-0.984c2.199-0.446,4.293-1.188,6.066-2.633c2.688-2.187,3.381-5.097,2.986-8.379
	c-0.379-3.171-0.435-6.366-0.635-9.547c-0.195-3.064-0.464-6.126-0.591-9.198c-0.048-1.147-0.12-2.309-0.226-3.46
	c-0.217-2.379-0.45-4.757-0.67-7.136c-0.163-1.792-0.525-3.538-1.27-5.184c-0.783-1.734-2.072-2.939-3.967-3.292
	c-1.857-0.346-3.75-0.198-5.609,0.019c-1.479,0.172-2.953,0.163-4.426,0.103c-1.119-0.046-2.009-0.814-2.211-1.871
	c-0.142-0.736-0.294-1.474-0.291-2.248c0.014-3.588,0.555-7.17,0.037-10.769c-0.256-1.783-0.521-3.57-1.369-5.148
	c-1.537-2.867-2.974-3.79-5.953-3.055c-0.676,0.167-1.44,0.505-2.227,0.209c-0.109-0.358-0.225-0.693-0.316-1.036
	c-1.484-5.543-2.965-11.087-4.445-16.631c-2.422-9.066-4.846-18.133-7.265-27.201c-0.198-0.745-0.188-1.459,0.214-2.177
	c1.73-3.092,3.264-6.289,4.748-9.503c1.93-4.18,3.795-8.4,4.961-12.873c0.691-2.65,1.394-5.278,2.717-7.705
	c1.412-2.59,3.188-4.792,5.705-6.448c3.895-2.562,7.67-5.303,11.502-7.96c7.134-4.948,14.27-9.891,21.406-14.834
	c5.469-3.786,10.941-7.562,16.406-11.353c8.249-5.72,16.497-11.44,24.734-17.178c3.035-2.115,6.141-4.131,9.089-6.371
	C412.08,0.24,410.88,0.24,409.68,0.24z M201.129,220.938c1.94-0.408,2.952,0.033,3.852,1.679c0.854,1.562,1.183,3.272,1.43,5.008
	c0.47,3.296,0.382,6.617,0.206,9.915c-0.276,5.175-1.477,10.118-4.511,14.461c-0.156,0.225-0.255,0.499-0.619,0.527
	c-0.24-0.258-0.12-0.588-0.132-0.881c-0.128-3.114-0.02-6.236,0.306-9.323c0.375-3.566,0.742-7.136,0.789-10.712
	c0.044-3.332-0.155-6.676-1.292-9.879C201.072,221.494,200.927,221.207,201.129,220.938z M247.802,71.033
	c0.233-0.145,0.485-0.261,0.745-0.4c0.328,0.767-0.052,1.46-0.177,2.122c-0.49,2.592-0.649,5.215-0.85,7.832
	c-0.197,2.56,0.062,5.111,0.766,7.573c0.974,3.41,3.218,5.801,6.382,7.351c0.679,0.333,1.371,0.64,2.05,0.973
	c0.536,0.262,1.001,0.613,1.3,1.072c-0.035,0.361-0.251,0.477-0.447,0.613c-4.644,3.23-9.236,6.539-13.955,9.656
	c-2.085,1.377-4.001,2.983-6.129,4.295c-0.501,0.309-0.98,0.522-1.558,0.447c-4.797-0.625-9.504-1.528-13.639-4.277
	c-2.215-1.473-3.771-3.41-4.287-6.059c-0.246-1.26-0.182-2.562-0.067-3.827c0.241-2.651,0.686-5.272,1.764-7.745
	c1.702-3.905,4.347-6.704,8.656-7.714c1.243-0.292,2.244-1.195,3.326-1.867C237.061,77.74,242.429,74.381,247.802,71.033z
	 M273.165,162.251c-0.927,0.004-1.683,0.264-2.258,0.926c-0.738,0.848-1.05,1.865-1.13,2.952c-0.241,3.286,0.265,6.513,0.824,9.732
	c0.219,1.256,0.412,2.512,0.43,3.79c0.015,1.107-0.102,1.306-1.189,1.584c-2.291,0.584-4.473,1.392-6.346,2.884
	c-1.61,1.282-2.647,2.886-2.585,5.008c0.038,1.296,0.553,2.468,1.245,3.561c0.209,0.33,0.522,0.599,0.66,1.124
	c-2.524,0.77-5.039,1.536-7.457,2.272c-0.424-0.073-0.548-0.341-0.733-0.546c-1.328-1.478-2.967-2.292-4.951-2.592
	c-3.422-0.518-6.627,0.436-9.835,1.307c-2.98,0.809-5.852,1.969-8.772,2.972c-0.323,0.111-0.632,0.352-0.998,0.251
	c-0.287-0.375-0.023-0.708,0.01-1.052c0.187-1.942,0.368-3.885,0.545-5.829c0.208-2.298,0.394-4.598,0.671-6.891
	c0.239-1.974,0.35-3.963,0.538-5.944c0.202-2.138,0.436-4.274,0.637-6.412c0.101-1.071,0.189-2.143,0.293-3.213
	c0.311-3.208,0.582-6.419,0.944-9.623c0.232-2.057,0.333-4.127,0.529-6.188c0.195-2.06,0.448-4.114,0.649-6.173
	c0.198-2.022,0.349-4.048,0.545-6.07c0.207-2.137,0.467-4.269,0.654-6.407c0.073-0.83,0.012-1.671,0.012-2.56
	c1.684-0.459,2.911-1.385,3.825-2.784c0.746-1.143,1.026-2.417,1.241-3.706c0.613-3.676,1.204-7.355,1.903-11.016
	c0.097-0.504,0.222-1.037,0.228-1.522c0.016-1.465,0.825-2.258,1.948-3.021c4.48-3.045,8.91-6.162,13.357-9.254
	c0.13-0.09,0.234-0.221,0.574-0.195c0.556,0.867,0.697,1.907,1.082,2.851c2.163,5.312,4.831,10.375,7.589,15.393
	c1.168,2.127,2.398,4.22,3.565,6.348c0.272,0.495,0.571,0.893,1.157,0.875c0.896-0.027,1.346,0.563,1.795,1.183
	c1.129,1.556,1.568,3.362,1.888,5.208c0.397,2.298,0.345,4.627,0.207,6.931c-0.149,2.495-0.499,4.98-0.833,7.464
	c-0.587,4.368-1.707,8.628-2.43,12.964C273.011,159.919,273.165,161.062,273.165,162.251z M252.818,196.772
	c-4.652,1.26-9.286,2.515-14.118,3.824c0.625-1.875,1.805-2.909,3.189-3.735c0.646-0.386,1.363-0.654,2.052-0.966
	c0.179-0.081,0.399-0.087,0.56-0.191c2.374-1.519,4.774-0.99,7.158-0.064C252.113,195.816,252.608,196.08,252.818,196.772z
	 M236.678,201.232c-11.751,2.908-23.518,5.558-35.288,8.221c12.312-4.239,24.675-8.305,37.004-12.617
	C237.652,198.217,236.497,199.361,236.678,201.232z M203.441,108.248c0.208-2.299,0.414-4.603,0.564-6.91
	c0.144-2.183,0.439-4.355,0.646-6.534c0.192-2.021,0.348-4.046,0.537-6.067c0.208-2.219,0.443-4.435,0.653-6.653
	c0.191-2.022,0.352-4.047,0.546-6.069c0.202-2.098,0.433-4.193,0.641-6.291c0.192-1.941,0.365-3.884,0.556-5.825
	c0.214-2.178,0.444-4.354,0.656-6.533c0.115-1.189,0.254-2.379,0.293-3.572c0.032-0.978,0.357-1.751,1.056-2.441
	c1.8-1.776,4.027-2.641,6.442-3.121c3.236-0.643,6.486-0.558,9.762-0.31c2.897,0.22,5.77,0.587,8.636,1.032
	c1.526,0.237,3.066,0.446,4.559,0.829c2.929,0.753,4.586,2.781,5.089,5.689c0.513,2.965,0.329,5.955,0.076,8.943
	c-0.174,2.063-0.472,4.104-0.747,6.152c-0.09,0.674-0.356,1.105-0.894,1.439c-4.634,2.876-9.267,5.754-13.902,8.629
	c-0.375,0.232-0.784,0.383-1.213,0.493c-3.632,0.925-6.313,3.118-8.258,6.259c-1.615,2.608-2.467,5.476-2.921,8.5
	c-0.196,1.306-0.339,2.621-0.383,3.922c-0.159,4.652,2.017,8.089,5.877,10.507c3.107,1.946,6.552,3.007,10.136,3.683
	c1.448,0.274,2.914,0.396,4.365,0.629c0.728,0.118,1.324-0.164,1.895-0.559c0.973-0.674,1.949-1.348,2.981-2.061
	c0.309,0.902-0.078,1.621-0.189,2.333c-0.568,3.644-1.217,7.275-1.861,10.906c-0.229,1.296-0.849,2.4-1.873,3.242
	c-0.784,0.645-1.688,0.693-2.222,0.051c-2.324-2.795-5.499-4.121-8.833-5.167c-4.53-1.421-9.179-1.981-13.909-1.658
	c-2.469,0.168-4.85,0.817-7.079,1.942c-0.351,0.177-0.66,0.448-1.185,0.469c-0.674-0.984-0.819-2.174-0.887-3.328
	C202.804,116.608,203.063,112.43,203.441,108.248z M199.871,205.816c-0.063-1.842,0.208-3.666,0.298-5.5
	c0.155-3.187,0.425-6.366,0.653-9.549c0.097-1.353,0.137-2.711,0.211-4.064c0.1-1.832,0.259-3.663,0.337-5.498
	c0.135-3.147,0.411-6.288,0.643-9.43c0.097-1.314,0.077-2.629,0.221-3.946c0.204-1.862,0.199-3.745,0.319-5.617
	c0.2-3.105,0.412-6.209,0.655-9.311c0.109-1.392,0.109-2.786,0.235-4.182c0.288-3.177,0.352-6.374,0.553-9.56
	c0.188-2.986,0.417-5.969,0.664-8.951c0.111-1.349-0.134-2.727,0.384-4.148c1.986-1.334,4.315-1.886,6.733-2.248
	c2.277-0.342,4.544-0.284,6.798,0.031c4.304,0.603,8.542,1.487,12.318,3.798c1.56,0.954,2.875,2.152,3.267,4.073
	c0.206,1.008-0.125,1.984-0.236,2.957c-0.136,1.185-0.227,2.381-0.348,3.566c-0.345,3.365-0.611,6.738-0.966,10.104
	c-0.31,2.928-0.49,5.87-0.771,8.801c-0.277,2.891-0.627,5.775-0.909,8.666c-0.205,2.1-0.33,4.208-0.529,6.308
	c-0.196,2.058-0.458,4.11-0.659,6.167c-0.198,2.021-0.342,4.046-0.536,6.067c-0.204,2.139-0.449,4.273-0.654,6.412
	c-0.194,2.021-0.368,4.043-0.533,6.066c-0.042,0.515,0.034,1.048-0.459,1.599c-9.124,3.11-18.396,6.236-27.699,9.247
	C199.485,206.971,199.891,206.398,199.871,205.816z M254.216,211.896c-0.903-0.094-1.701-0.106-2.468-0.267
	c-2.893-0.603-5.25,0.462-7.317,2.345c-2.562,2.334-4.39,5.232-6.131,8.189c-1.455,2.472-2.89,4.953-4.056,7.579
	c-0.077,0.172-0.193,0.325-0.291,0.489c-0.089-0.02-0.178-0.039-0.267-0.059c0.744-6.734,1.536-13.464,2.897-20.052
	c6.241-1.774,12.242-3.763,18.438-5.542C254.736,207.171,254.478,209.52,254.216,211.896z M256.273,212.396
	c0.096-2.931,0.579-5.727,0.928-8.527c1.985-0.569,3.684-1.227,5.571-1.408c0.192,4.348-0.163,8.648,0.285,13.154
	C260.943,214.027,258.726,213.027,256.273,212.396z M330.5,178.167c0,0,3.167-1.167,4.5,3c0,0,4.001,12.5,0.167,15.333
	c0,0-2.501,1.167-3.334,1.333c0,0-47.834,7-49,7.167s-3.166,0.334-4.166-1.333l-2.168-4.481l20.438-4.936
	c3.625-2,1.062-5.188,1.062-5.188c-2.3-3.176-17.981,0.268-21.833,1.17v-1.566C276.167,188.667,329.5,177.833,330.5,178.167z
	 M321.333,162.358c-13.741,4.196-27.528,8.18-41.325,12.651c-0.846-1.444-0.816-3.015-1.13-4.452
	c5.817-1.396,11.386-3.423,17.037-5.165c8.017-2.47,16.015-5.002,24.021-7.506c0.334-0.105,0.655-0.341,1.191,0.001
	C320.971,159.269,321.464,160.734,321.333,162.358z M314.094,113.319c0.016,0.183,0.026,0.307,0.037,0.425
	c0.01,0.011,0.02,0.022,0.029,0.034c-0.002,0.023,0,0.046-0.002,0.069c0.676,1.107,0.812,2.395,1.143,3.606
	c2.11,7.752,4.164,15.52,6.232,23.284c0.091,0.339,0.141,0.689,0.23,1.145c-1.586,0.432-3.193,0.561-4.959,0.85
	c-0.087-1.083-0.209-2.135-0.248-3.189c-0.113-2.987-0.412-5.957-0.671-8.933c-0.17-1.941-0.38-3.878-0.56-5.817
	c-0.221-2.372-0.585-4.73-0.832-7.101c-0.135-1.279-0.456-2.544-0.338-3.845c-0.008-0.015-0.014-0.031-0.021-0.046
	c-0.002-0.018-0.003-0.038-0.005-0.057C314.042,113.646,313.954,113.544,314.094,113.319z M312.688,119.224
	c0.306,2.486,0.513,4.983,0.772,7.474c0.21,2.019,0.444,4.036,0.647,6.055c0.117,1.15,0.201,2.309,0.265,3.458
	c0.14,2.59,0.353,5.178,0.308,7.781c-0.043,2.387,0.188,4.763,0.647,7.121c0.371,1.911,1.042,3.656,2.291,5.156
	c-0.196,0.47-0.644,0.447-0.991,0.557c-11.878,3.735-23.759,7.464-35.641,11.186c-1.711,0.535-3.285,0.024-4.295-1.431
	c-1.478-2.128-1.976-4.553-1.566-7.052c0.632-3.87,1.536-7.694,2.203-11.559c0.371-2.148,0.609-4.324,0.855-6.495
	c0.17-1.512,0.228-3.025,0.297-4.535c0.15-3.234-0.09-6.435-1.278-9.503c-0.526-1.359-1.356-2.512-2.415-3.713
	c11.623-8.82,23.146-17.563,34.684-26.318c0.639,0.637,0.447,1.435,0.553,2.092c0.505,3.137,0.865,6.296,1.285,9.447
	C311.766,112.371,312.264,115.793,312.688,119.224z M320.961,67.364c-0.798,2.412-1.261,4.92-2.107,7.319
	c-2.098,5.942-4.912,11.561-7.668,17.213c-1.02,2.09-2.474,3.605-4.291,4.974c-9.815,7.389-19.582,14.842-29.367,22.274
	c-1.516,1.152-3.031,2.305-4.537,3.45c-0.645-0.386-0.822-0.985-1.11-1.494c-3.219-5.679-6.329-11.415-8.993-17.382
	c-0.583-1.307-1.103-2.642-1.504-4.01c-0.753-2.566-2.239-4.419-4.764-5.439c-1.984-0.801-3.717-1.949-5.015-3.735
	c-0.992-1.366-1.53-2.872-1.764-4.495c-0.418-2.896-0.333-5.797-0.047-8.708c0.253-2.573,0.641-5.113,1.195-7.637
	c0.115-0.527,0.353-0.893,0.758-1.147c3.171-1.982,6.353-3.947,9.533-5.913c0.058-0.036,0.148-0.021,0.396-0.05
	c-0.729,2.112-1.424,4.085-2.091,6.066c-1.645,4.888-3,9.855-3.942,14.928c-0.489,2.635-0.597,5.301-0.519,7.978
	c0.022,0.756,0.229,1.323,1.032,1.524c0.657-0.143,0.928-0.556,0.899-1.209c-0.245-5.637,1.054-11.036,2.518-16.413
	c1.23-4.521,2.775-8.936,4.397-13.328c0.423-1.146,1.121-1.919,2.158-2.555c5.6-3.434,11.163-6.924,16.744-10.389
	c0.431-0.268,0.835-0.603,1.393-0.728c2.006,4.859,5.938,7.725,10.322,10.088c4.928,2.656,10.216,4.366,15.615,5.76
	c3.57,0.922,7.188,1.631,10.779,2.235C321.219,66.867,321.049,67.098,320.961,67.364z M326.645,57.994
	c-1.811,1.89-3.345,4.106-4.56,6.558c-1.306,0.062-2.509-0.278-3.702-0.504c-5.225-0.99-10.392-2.231-15.404-4.035
	c-4.283-1.54-8.44-3.332-12.049-6.182c-2.158-1.704-3.957-3.695-4.933-6.588c9.965-6.201,19.89-12.377,29.834-18.566
	c0.587,0.632,0.797,1.327,1.088,1.965c3.056,6.685,6.065,13.389,8.386,20.375C326.042,53.236,326.829,55.461,326.645,57.994z"/>
</svg>
