<?xml version="1.0" encoding="utf-8"?>
<!-- Generator: Adobe Illustrator 16.2.1, SVG Export Plug-In . SVG Version: 6.00 Build 0)  -->
<!DOCTYPE svg PUBLIC "-//W3C//DTD SVG 1.1//EN" "http://www.w3.org/Graphics/SVG/1.1/DTD/svg11.dtd">
<svg version="1.1" id="RS_x5F_straps07_xA0_Image_1_"
	 xmlns="http://www.w3.org/2000/svg" xmlns:xlink="http://www.w3.org/1999/xlink" x="0px" y="0px" width="528px" height="396px"
	 viewBox="0 0 528 396" enable-background="new 0 0 528 396" xml:space="preserve">
<path d="M180.72,396.24c0.968-3.551,1.915-7.107,2.908-10.651c2.507-8.938,5.469-17.726,8.901-26.354
	c2.495-6.271,5.035-12.521,7.73-18.708c0.405-0.932,0.599-1.891,0.6-2.896c0-2.511,0-5.021,0-7.662
	c-1.525-0.075-2.988-0.175-4.452-0.212c-5.189-0.132-10.297-0.77-15.246-2.409c-1.705-0.563-3.325-1.324-4.851-2.272
	c-0.259-0.161-0.575-0.294-0.691-0.723c8.23,2.348,16.562,3.621,25.19,3.52c0-13.474,0-26.845,0-40.289
	c-0.954-0.204-1.948-0.069-2.926-0.276c-4.022-0.85-8.286-4.953-7.776-10.461c0.214-2.312,1.459-4.162,2.667-6.033
	c0.336-0.521,0.829-0.963,0.917-1.688c-0.973-0.204-1.926-0.056-2.859-0.312c-3.263-0.898-5.992-2.571-7.885-5.402
	c-1.145-1.712-1.561-3.566-0.903-5.669c1.185-3.789,2.457-7.536,4.185-11.117c0.102-0.211,0.173-0.437,0.301-0.763
	c-2.056-0.367-3.852-1.201-5.486-2.438c-2.096-1.584-3.763-3.461-4.319-6.097c-0.471-2.231-0.165-4.445,0.54-6.581
	c1.236-3.742,3.215-7.089,5.707-10.125c3.809-4.641,8.374-8.432,13.416-11.646c3.591-2.291,7.397-4.215,11.103-6.312
	c4.815-2.726,9.617-5.471,14.289-8.44c0.688-0.437,0.876-0.939,1-1.721c0.348-2.213,0.188-4.386-0.303-6.53
	c-0.765-3.341-2.581-5.803-6.107-6.588c-1.835-0.409-3.684-0.397-5.576-0.192c-3.24,0.351-6.227,1.348-8.847,3.224
	c-1.638,1.172-3.356,2.227-4.951,3.465c-1.595,1.238-3.368,2.084-5.474,2.045c-2.741-0.052-4.695,1.519-6.544,3.274
	c-1.797,1.706-3.454,3.554-5.315,5.195c-2.644,2.332-5.618,4.184-8.603,6.026c-1.898,1.171-3.77,2.386-5.467,3.845
	c-3.011,2.588-4.721,5.938-5.755,9.707c-2.181,7.947-4.089,15.961-5.718,24.039c-0.752,3.729-1.385,7.484-1.934,11.248
	c-0.565,3.872-0.837,7.783-0.49,11.691c0.341,3.836,0.986,7.637,1.735,11.416c0.751,3.791,1.499,7.582,2.24,11.374
	c0.053,0.271,0.088,0.555-0.045,0.881c-0.826-0.2-1.047-0.916-1.259-1.562c-0.595-1.807-1.13-3.633-1.684-5.451
	c-0.126-0.414-0.235-0.832-0.36-1.278c-0.533,0.261-0.563,0.794-0.743,1.207c-3.794,8.709-7.793,17.323-12.183,25.749
	c-3.256,6.251-6.628,12.438-10.774,18.162c-3.348,4.62-6.945,9.049-10.481,13.524c-2.868,3.632-5.771,7.237-8.637,10.871
	c-3.109,3.94-6.186,7.907-9.292,11.852c-4.215,5.354-8.323,10.79-12.363,16.275c-4.441,6.03-8.751,12.154-12.742,18.496
	c-0.355,0.565-0.831,1.075-0.946,1.772c-0.8,0-1.6,0-2.4,0c3.616-6.104,7.668-11.914,11.806-17.669
	c3.49-4.855,7.078-9.638,10.715-14.382c3.833-5.004,7.699-9.979,11.618-14.914c3.547-4.466,7.065-8.952,10.615-13.416
	c2.952-3.71,5.878-7.44,8.776-11.193c2.88-3.729,5.393-7.69,7.732-11.771c4.599-8.019,8.675-16.301,12.52-24.703
	c1.718-3.756,3.445-7.508,5.017-11.327c0.238-0.578,0.631-1.003,1.126-1.425c-0.486-2.318-0.951-4.642-1.287-6.986
	c-0.259-1.811-0.517-3.617-0.646-5.444c-0.102-1.434-0.276-2.86-0.214-4.301c0.105-2.429,0.368-4.84,0.679-7.252
	c0.382-2.953,0.903-5.879,1.421-8.81c0.834-4.725,1.86-9.406,2.967-14.069c1.207-5.082,2.401-10.171,4.01-15.15
	c1.308-4.048,3.741-7.235,7.115-9.774c2.328-1.75,4.854-3.192,7.294-4.768c2.625-1.693,5.103-3.554,7.276-5.814
	c1.827-1.901,3.697-3.76,5.816-5.35c1.518-1.14,3.197-1.747,5.103-1.706c1.894,0.041,3.456-0.793,4.92-1.878
	c0.448-0.333,0.843-0.768,1.336-1.002c1.67-0.796,1.883-2.285,1.975-3.868c0.161-2.782,0.633-5.525,1.09-8.269
	c0.8-4.809,1.913-9.547,3.218-14.243c0.031-0.11,0.004-0.237,0.004-0.433c-1.12-0.584-1.025-1.65-0.902-2.69
	c0.3-2.543,0.238-5.104,0.416-7.653c0.198-2.826,0.229-5.662,0.457-8.489c0.138-1.71,0.166-3.433,0.221-5.145
	c0.073-2.236,0.278-4.464,0.331-6.702c0.07-3.014,1.012-5.789,2.904-8.173c0.512-0.646,0.7-1.304,0.667-2.095
	c-0.145-3.481,0.287-6.951,0.226-10.43c-0.015-0.866,0.489-1.289,1.146-1.584c-0.446-3.48,0.152-6.809,0.723-10.137
	c0.65-3.79,1.305-7.58,1.984-11.365c0.764-4.253,1.575-8.498,2.334-12.752c0.529-2.966,1.004-5.942,1.508-8.913
	c0.53-3.125,1.086-6.245,1.593-9.373c0.457-2.818,0.862-5.646,1.29-8.468c0.374-2.471,0.767-4.939,1.115-7.414
	c0.293-2.085,0.536-4.177,0.799-6.266c0.304-2.403,0.625-4.805,0.904-7.211c0.206-1.777,0.371-3.56,0.526-5.342
	c0.242-2.778,0.565-5.555,0.657-8.338c0.083-2.515,0.393-5.021,0.298-7.542c0.64,0,1.28,0,1.92,0
	c0.115,4.04-0.297,8.058-0.542,12.081c-0.065,1.068-0.152,2.146-0.262,3.217c-0.214,2.096-0.422,4.193-0.654,6.287
	c-0.188,1.698-0.403,3.394-0.619,5.088c-0.265,2.089-0.536,4.177-0.814,6.264c-0.342,2.558-0.67,5.117-1.049,7.669
	c-0.425,2.864-0.894,5.721-1.354,8.579c-0.435,2.702-0.871,5.404-1.328,8.103c-0.503,2.969-1.031,5.934-1.547,8.901
	c-0.51,2.929-1.006,5.861-1.532,8.788c-0.596,3.315-1.238,6.621-1.823,9.938c-0.605,3.436-1.217,6.871-1.769,10.317
	c-0.401,2.5-0.523,4.999-0.361,7.504c0.057,0.877,0.09,1.971,1.409,2.384c6.006-5.01,12.192-9.902,17.843-15.355
	c-0.704-1.777-0.889-3.465-1.074-5.169c-0.454-4.163-0.135-8.265,0.682-12.355c0.47-2.354,1.432-4.529,2.234-6.769
	c1.958-5.467,2.956-11.178,4.085-16.851c0.735-3.693,1.415-7.397,2.08-11.104c0.54-3.005,1.027-6.02,1.527-9.031
	c0.442-2.662,0.876-5.324,1.304-7.988c0.453-2.82,0.899-5.642,1.338-8.464c0.366-2.355,0.734-4.71,1.069-7.07
	c0.234-1.649,0.514-3.295,0.596-4.964c0.72,0,1.44,0,2.16,0c-0.218,2.296-0.417,4.594-0.663,6.886
	c-0.119,1.11-0.185,2.231-0.252,3.337c-0.147,2.426-0.388,4.846-0.579,7.267c-0.19,2.42-0.318,4.848-0.618,7.263
	c-0.147,1.18-0.192,2.382-0.286,3.574c-0.215,2.74-0.467,5.476-0.672,8.215c-0.178,2.383-0.372,4.768-0.565,7.149
	c-0.203,2.5-0.343,5.005-0.641,7.5c-0.137,1.144-0.178,2.304-0.275,3.457c-0.292,3.453-0.466,6.917-0.776,10.368
	c-0.261,2.897-0.517,5.792-0.72,8.694c-0.067,0.952-0.186,1.9-0.227,2.859c-0.047,1.127-0.424,1.468-1.636,1.665
	c-0.025,0.53-0.104,1.067,0.042,1.743c0.568-0.487,0.992-0.94,1.352-1.459c1.247-1.797,3.047-2.629,5.148-2.882
	c1.987-0.24,3.812,0.943,4.479,2.844c0.45,1.283,0.592,2.615,0.736,3.962c0.317,2.977,0.347,5.971,0.638,8.947
	c0.167,1.708,0.157,3.433,0.225,5.145c0.102,2.554,0.294,5.105,0.326,7.664c0.039,3.116,0.272,6.227,0.29,9.345
	c0.009,1.54-0.112,1.823-1.562,2.42c-0.875,0.36-1.741,0.739-2.649,1.125c0.084,0.513-0.031,1.007,0.412,1.436
	c0.78,0.132,1.619,0.039,2.452,0.06c1.525,0.039,1.899,0.391,2.023,1.866c0.254,3.025,0.3,6.062,0.507,9.086
	c0.253,3.704,0.273,7.419,0.636,11.116c0.152,1.547,0.138,3.111,0.204,4.664c0.101,2.353,0.348,4.7,0.333,7.06
	c-0.008,1.35,0.128,2.697,0.463,4.016c0.433,1.707-0.112,3.207-1.031,4.609c-1.451,2.217-3.493,3.823-5.643,5.288
	c-5.799,3.951-11.986,7.237-18.319,10.608c0.184,4.121,0.873,8.263,1.329,12.462c0.511,0.106,0.899-0.026,1.316-0.145
	c2.409-0.684,4.84-1.255,7.368-1.277c3.153-0.027,5.722,1.136,7.667,3.657c2.434,3.156,3.851,6.715,4.459,10.645
	c0.418,2.703,0.391,5.399,0.205,8.107c-0.057,0.826-0.409,1.632-0.139,2.575c1.726,0.915,3.528,1.84,5.25,2.903
	c2.372,1.468,4.778,2.885,6.886,4.736c3.019,2.653,4.846,5.911,5.32,9.95c0.536,4.584,0.11,9.042-1.401,13.399
	c-0.076,0.221-0.078,0.467-0.119,0.729c0.746,0.575,1.66,0.771,2.465,1.188c4.057,2.1,6.236,5.562,7.164,9.902
	c0.5,2.336,0.83,4.698,0.75,7.104c-0.098,2.938-0.81,5.622-2.783,7.926c-1.37,1.6-2.51,3.387-3.617,5.148
	c0.039,0.119,0.043,0.217,0.093,0.266c2.83,2.771,3.884,6.408,4.833,10.07c0.486,1.875,0.895,3.783,1.152,5.701
	c0.46,3.428-0.432,6.381-3.329,8.56c-1.599,1.201-3.306,2.216-5.028,3.21c-2.763,1.595-5.371,3.43-8.078,5.108
	c-5.521,3.425-11.398,6.148-17.39,8.634c-1.574,0.651-3.17,1.252-4.758,1.872c-0.369,0.145-0.762,0.237-1.133,0.605
	c0,1.478-0.073,3.032,0.018,4.578c0.131,2.237,0.157,4.476,0.183,6.714c0.087,7.315,0.123,14.634,0.328,21.947
	c0.131,4.679,0.052,9.355,0.162,14.033c0.227,9.596,0.232,19.191,0.238,28.79c-0.64,0-1.28,0-1.92,0
	c0.019-4.521-0.077-9.038-0.132-13.558c-0.157-12.956-0.273-25.912-0.512-38.867c-0.13-7.077-0.291-14.154-0.371-21.232
	c-0.06-5.276-0.207-10.555-0.443-15.827c-0.121-2.7-0.096-5.421-0.541-8.157c-2.658-0.244-5.282,0.078-7.896,0.262
	c-2.75,0.193-5.489,0.474-8.25,0.404c-1.868-0.047-3.624-0.537-5.273-1.361c-1.325-0.662-2.54-1.493-3.437-2.731
	c-1.65-2.278-1.643-4.829-1.347-7.453c0.104-0.92,0.588-1.769,0.579-2.788c-2.219,0.809-4.305,1.641-6.477,2.219
	c0,3.979-0.008,7.857,0.001,11.735c0.036,13.981-0.149,27.961-0.226,41.94c-0.041,7.358-0.081,14.719-0.196,22.077
	c-0.139,8.838-0.205,17.675-0.501,26.51c-0.076,2.275-0.204,4.552-0.26,6.829c-0.72,0-1.44,0-2.16,0
	c0.502-2.444,0.372-4.943,0.421-7.4c0.095-4.754,0.389-9.504,0.321-14.262c-0.045-3.197,0.111-6.394,0.16-9.589
	c0.099-6.354,0.062-12.709,0.074-19.063c0-0.197,0.115-0.464-0.222-0.621c-0.222,0.438-0.462,0.847-0.643,1.277
	c-2.808,6.733-5.523,13.503-8.084,20.335c-2.867,7.648-5.155,15.477-7.323,23.341c-0.546,1.98-1.175,3.945-1.505,5.982
	C182.16,396.24,181.44,396.24,180.72,396.24z M241.71,31.957c-0.2,0.01-0.242,0.145-0.271,0.312
	c-0.416,2.502-0.798,5.01-1.262,7.503c-0.839,4.516-1.686,9.031-2.606,13.53c-0.818,3.996-1.681,7.986-2.92,11.88
	c-0.649,2.04-1.694,3.939-2.188,6.036c-0.186,0.789-0.54,1.56-0.354,2.435c2.139-0.264,4.215-0.488,6.179,0.65
	c0.445-2.748,0.475-5.423,0.746-8.076c0.247-2.417,0.334-4.848,0.539-7.269c0.282-3.331,0.691-6.653,0.89-9.989
	c0.147-2.466,0.413-4.922,0.564-7.388c0.068-1.107,0.135-2.225,0.243-3.333c0.204-2.1,0.498-4.193,0.42-6.311
	c0.229-0.267,0.226-0.562,0.108-0.92C241.661,31.354,241.701,31.657,241.71,31.957z M265.758,244.359
	c0.174-0.459,0.303-0.75,0.393-1.053c1.105-3.73,1.596-7.5,1.283-11.422c-0.341-4.301-2.146-7.697-5.533-10.252
	c-4.759-3.588-9.911-6.504-15.46-8.699c-1.229-0.486-2.517-0.461-3.771-0.229c-0.885,0.165-1.754,0.469-2.601,0.818
	c-2.536,1.047-4.926,2.381-7.362,3.627c-12.009,6.149-23.799,12.707-35.621,19.205c-1.014,0.558-1.974,1.184-2.847,1.957
	c-2.593,2.299-4.266,5.244-5.813,8.264c-1.907,3.719-3.315,7.643-4.462,11.656c-0.35,1.227-0.285,2.427,0.315,3.592
	c0.599,1.16,1.449,2.091,2.489,2.852c2.067,1.512,4.311,2.567,6.945,2.44c0.906-0.044,1.84-0.13,2.469-0.962
	c0.408-0.541,0.822-1.079,1.272-1.586c2.446-2.746,5.026-5.332,8.126-7.379c2.058-1.358,4.321-2.172,6.612-2.965
	c6.152-2.133,12.162-4.632,18.191-7.08c4.965-2.016,9.933-4.025,14.883-6.076c3.31-1.37,6.452-1.377,9.658,0.166
	c1.893,0.912,3.807,1.799,5.867,2.279C262.407,243.891,264.036,244.199,265.758,244.359z M270.083,275.104
	c1.485-2.309,3.103-4.472,4.711-6.642c0.779-1.052,1.041-2.305,1.21-3.565c0.375-2.797,0.055-5.562-0.48-8.309
	c-1.017-5.229-4.043-8.57-9.244-9.938c-1.693-0.444-3.423-0.655-5.127-1.021c-2.54-0.545-4.899-1.586-7.231-2.689
	c-2.416-1.144-4.827-1.321-7.353-0.272c-5.129,2.13-10.301,4.153-15.436,6.269c-5.538,2.279-11.092,4.515-16.708,6.596
	c-1.71,0.633-3.486,1.089-5.146,1.854c-3.458,1.594-6.289,4.022-8.84,6.795c-1.186,1.288-2.223,2.707-3.325,4.062
	c-1.417,1.74-2.649,3.591-3.859,5.457c-1.853,2.855-1.49,6.812,0.873,9.249c1.733,1.786,3.801,2.76,6.291,2.586
	c1.826-0.126,3.563-0.72,5.31-1.274c2.848-0.904,5.512-2.252,8.324-3.246c8.865-3.14,17.888-5.781,26.853-8.606
	c4.514-1.423,9.171-2.386,13.564-4.2c0.285-0.118,0.597-0.248,0.92-0.085c0.265,1.149,0.124,1.437-1.013,1.862
	c-3.049,1.146-6.143,2.16-9.25,3.135c-0.524,0.164-1.099,0.242-1.678,0.734c0.733,0,1.292,0.03,1.847-0.004
	c5.593-0.351,11.186-0.235,16.777,0.01c1.51,0.067,3.01,0.268,4.515,0.41C267.783,274.383,268.863,274.922,270.083,275.104z
	 M238.063,317.704c0.19,0.035,0.274,0.077,0.344,0.059c0.228-0.06,0.451-0.135,0.673-0.215c9.878-3.604,19.095-8.512,27.917-14.19
	c2.011-1.295,4.034-2.57,6.005-3.924c2.094-1.438,3.178-3.461,2.934-6.024c-0.315-3.324-1.111-6.562-2.112-9.739
	c-0.572-1.814-1.351-3.548-2.616-5.041c-0.53-0.625-1.355-0.679-1.854-1.255c-0.471-0.543-1.082-0.757-1.758-0.915
	c-2.306-0.54-4.664-0.553-7.002-0.682c-2.312-0.125-4.637-0.057-6.956-0.057c-5.428-0.001-10.856-0.021-16.254,0.721
	c-0.742,0.103-1.501,0.49-2.237,0.229c-0.674-0.238-1.238-0.048-1.836,0.139c-3.521,1.088-7.046,2.162-10.56,3.274
	c-3.098,0.981-6.188,1.987-9.231,3.134c-0.942,0.354-1.576,0.898-1.882,1.945c-0.38,1.302-0.756,2.611-0.875,3.943
	c-0.233,2.604,0.421,4.879,2.792,6.42c2.501,1.623,5.259,1.916,8.127,1.734c1.71-0.107,3.425-0.189,5.126-0.384
	c1.91-0.219,3.826-0.183,5.738-0.284c4.422-0.236,8.836-0.691,13.275-0.429c0.778,0.046,1.491,0.26,2.161,0.62
	c0.561,0.301,1.095,0.654,1.631,1c2.777,1.787,5.673,3.285,9.007,3.726c0.202,0.027,0.385,0.103,0.429,0.418
	c-0.557,0.771-1.282,0.817-2.176,0.519c-2.308-0.771-4.521-1.764-6.733-2.77c-1.15-0.523-2.245-1.169-3.532-1.394
	c-2.347-0.41-4.699-0.179-7.048-0.159c-0.739,0.006-1.477,0.188-2.308,0.304C237.736,304.893,237.723,311.318,238.063,317.704z
	 M249.838,212.046c-0.113-1.022,0.273-1.92,0.25-2.872c-0.046-1.951,0.064-3.896-0.199-5.855c-0.485-3.614-1.618-6.947-3.821-9.869
	c-1.449-1.921-3.227-3.253-5.82-3.205c-1.397,0.026-2.788,0.021-4.157,0.311c-4.413,0.935-8.637,2.373-12.482,4.791
	c-1.179,0.741-2.343,1.506-3.531,2.232c-6.012,3.673-12.166,7.098-18.333,10.5c-6.688,3.689-12.776,8.146-17.575,14.178
	c-2.316,2.912-4.137,6.104-5.201,9.7c-0.474,1.601-0.682,3.26-0.323,4.847c0.834,3.682,3.579,5.629,6.913,6.768
	c1.79,0.611,1.944,0.404,2.975-1.252c1.962-3.156,4.298-5.907,7.655-7.711c6.1-3.273,12.163-6.618,18.224-9.965
	c6.239-3.442,12.58-6.694,18.878-10.023c2.453-1.299,4.916-2.572,7.566-3.459c2.279-0.764,4.484-0.889,6.722,0.113
	C248.244,211.57,248.897,211.973,249.838,212.046z M216.29,177.284c0.27-0.263,0.343-0.588,0.403-0.888
	c0.426-2.139,0.819-4.284,1.234-6.425c1.056-5.451,2.07-10.91,3.19-16.348c1.207-5.86,2.485-11.707,3.792-17.545
	c0.806-3.6,1.619-7.209,3.092-10.613c1.12-2.588,2.405-5.062,5.347-6.075c0.453-0.157,0.789-0.553,1.075-0.932
	c0.226-0.298,0.494-0.658,0.153-1.048c-0.195-0.062-0.321,0.044-0.464,0.112c-4.379,2.093-8.173,4.977-11.374,8.607
	c-2.665,3.022-5.239,6.126-7.818,9.223c-1.454,1.746-2.817,3.568-3.693,5.689c-1.546,3.74-2.902,7.551-4.125,11.409
	c-2.545,8.028-4.381,16.216-5.456,24.566c-0.132,1.027-0.38,2.088-0.218,3.332C206.097,177.502,211.056,176.62,216.29,177.284z
	 M228.901,190.531c0.122-0.556,0.064-1.024-0.012-1.501c-0.149-0.943-0.288-1.889-0.39-2.839c-0.267-2.494-0.461-4.997-0.778-7.484
	c-0.415-3.246-0.639-6.509-0.871-9.768c-0.224-3.145-0.356-6.301-0.303-9.461c0.05-3.035-0.146-6.09,0.363-9.091
	c0.783-4.615,1.8-9.186,2.949-13.726c1.033-4.08,2.051-8.164,3.076-12.246c0.198-0.788,0.207-1.55-0.241-2.272
	c-0.489,0.087-0.688,0.451-0.932,0.756c-1.544,1.937-2.381,4.213-3.051,6.551c-2.394,8.362-3.995,16.908-5.753,25.415
	c-1.132,5.478-2.173,10.974-3.247,16.464c-0.424,2.171-0.828,4.347-1.244,6.54c1.329,0.741,2.571,1.461,3.502,2.588
	c1.903,2.303,2.725,5.009,2.887,7.937c0.067,1.225,0.011,2.457,0.011,3.829C226.317,191.615,227.625,191.066,228.901,190.531z
	 M228.706,165.688c4.888-3.226,9.556-6.308,14.195-9.37c0.048-2.161-0.348-4.15-0.587-6.44c-4.769,3.265-9.279,6.561-13.793,9.721
	C228.32,161.604,228.763,163.461,228.706,165.688z M233.652,110.031c-1.984,2.047-3.922,3.686-5.932,5.239
	c-0.22,0.17-0.436,0.353-0.626,0.555c-2.44,2.591-5.188,4.824-8.037,6.944c-1.116,0.831-2.193,1.713-3.293,2.566
	c-0.366,0.283-0.635,0.617-0.62,1.1c0.055,1.653,0.12,3.306,0.185,5.054c0.438-0.202,0.655-0.485,0.88-0.75
	c1.06-1.245,2.134-2.477,3.165-3.746c2.909-3.584,6.188-6.754,10.113-9.228c1.514-0.954,3.101-1.767,4.746-2.58
	C234.313,113.52,233.89,111.947,233.652,110.031z M232.202,92.26c-1.651,1.186-3.257,2.219-4.728,3.419
	c-4.391,3.584-8.73,7.231-13.086,10.858c-0.919,0.765-1.003,1.175-0.501,2.559c2.913-2.279,5.819-4.503,8.668-6.799
	c1.83-1.475,3.635-2.992,5.335-4.611c1.133-1.08,2.538-1.796,3.61-2.935C232.106,94.108,232.513,93.418,232.202,92.26z
	 M209.524,139.46c0.175-0.095,0.268-0.114,0.3-0.168c0.973-1.642,1.961-3.271,3.224-4.717c0.226-0.259,0.385-0.583,0.361-0.982
	c-0.116-1.933-0.205-3.867-0.305-5.837c-1.531,0.732-3.024,2.645-3.361,4.199C209.207,134.431,209.726,136.918,209.524,139.46z
	 M229.66,147.095c0.563-0.151,0.956-0.422,1.339-0.694c1.813-1.286,3.595-2.617,5.438-3.858c0.867-0.584,1.051-1.296,0.856-2.224
	c-0.482-0.031-0.807,0.223-1.148,0.416c-1.483,0.841-2.909,1.809-4.456,2.507C229.942,144.029,229.808,145.473,229.66,147.095z"/>
<g>
	<path fill="#929292" d="M238.612,80.217c0.568-0.487,0.992-0.94,1.352-1.459l-1.418,0.099
		C238.519,79.269,238.5,79.703,238.612,80.217z"/>
	<path fill="#FFFFFF" d="M238.333,83.933c-0.013,1.877-0.075,3.807,0.031,5.841c0.935-0.234,1.683-0.294,2.436-0.277
		c1.919,0.045,2.953,1.149,2.875,3.042c-0.27,6.549-0.581,13.098-0.789,19.65c-0.211,6.63-0.427,13.259-0.998,19.87
		c-0.059,0.68-0.139,1.363-0.261,2.036l-0.043-0.011c-0.002,0.127-0.016,0.254-0.031,0.38c-0.066,0.317-0.144,0.631-0.235,0.94
		c-0.765,2.041-3.066,3.951-5.312,5.413c-0.942,0.54-1.865,1.119-2.811,1.649c-1.328,0.706-2.277,1.117-2.277,1.117
		s-0.028,0.085-0.066,0.199c-0.324,0.282-0.537,0.613-0.702,0.97L230,145.5c0,0,13-6,13-9c0,0,1-5.75,0.75-7l1.5-38.5
		c0,0-1-4.5-5.75-3.25l0.28-5.43C239.345,82.882,238.882,83.432,238.333,83.933z"/>
</g>
</svg>
