<?xml version="1.0" encoding="utf-8"?>
<!-- Generator: Adobe Illustrator 16.2.1, SVG Export Plug-In . SVG Version: 6.00 Build 0)  -->
<!DOCTYPE svg PUBLIC "-//W3C//DTD SVG 1.1//EN" "http://www.w3.org/Graphics/SVG/1.1/DTD/svg11.dtd">
<svg version="1.1" id="RS_x5F_straps06a_xA0_Image_1_"
	 xmlns="http://www.w3.org/2000/svg" xmlns:xlink="http://www.w3.org/1999/xlink" x="0px" y="0px" width="528px" height="396px"
	 viewBox="0 0 528 396" enable-background="new 0 0 528 396" xml:space="preserve">
<g>
	<path d="M67.92,0.24c-0.15,3.081,0.224,6.147,0.254,9.227c0.067,6.755,0.318,13.508,0.428,20.263
		c0.048,2.999,0.095,5.995,0.246,8.99c0.053,1.062,0.147,2.142-0.322,3.233c1.035,0.094,1.993,0.111,2.938-0.009
		c1.195-0.152,2.392-0.155,3.591-0.174c5.473-0.088,10.939-0.389,16.412-0.525c4.392-0.11,8.784-0.309,13.176-0.462
		c4.712-0.165,9.424-0.333,14.136-0.491c4.431-0.148,8.859-0.398,13.294-0.455c1.195-0.016,2.388-0.177,3.671-0.278
		c0.155-0.436,0.304-0.903,0.355-1.42c0.112-1.134,0.474-1.401,1.624-1.418c0.648-0.009,1.256,0.197,1.883,0.282
		c3.465,0.471,6.938,0.372,10.404,0.183c2.735-0.149,5.458-0.532,8.157-1.014c4.681-0.835,9.307-1.957,14.028-2.592
		c3.515-0.473,7.032-0.782,10.575-0.97c3.173-0.168,6.35-0.392,9.511-0.844c3.548-0.507,7.133-1.044,10.719-0.737
		c2.034,0.174,3.9-0.41,5.84-0.632c1.855-0.212,3.706-0.46,5.566-0.628c2.419-0.218,4.837-0.441,7.255-0.665
		c1.272-0.118,2.552-0.141,3.824-0.212c1.872-0.104,3.744-0.25,5.619-0.333c4.027-0.178,8.051-0.433,12.075-0.664
		c1.674-0.096,3.353-0.139,5.025-0.205c2.433-0.097,4.863-0.359,7.301-0.311c1.204,0.024,2.393-0.15,3.588-0.207
		c2.517-0.121,5.018,0.123,7.521,0.391c1.742,0.186,3.475,0.379,5.188,0.746c1.119,0.239,1.122,0.224,1.862,1.167
		c2.055,0.142,4.147,0.368,6.239,0.579c4.941,0.498,9.889,0.505,14.841,0.434c0.358-0.005,0.722,0.001,1.077-0.047
		c1.947-0.265,2.354,0.022,2.604,1.942c0.819,0,1.662,0.086,2.479-0.02c1.396-0.18,2.791-0.147,4.188-0.199
		c3.831-0.141,7.662-0.306,11.492-0.475c4.906-0.217,9.813-0.442,14.72-0.674c1.994-0.094,3.993-0.131,5.987-0.201
		c2.953-0.103,5.903-0.303,8.86-0.344c2.714-0.038,5.425-0.253,8.137-0.391c0.279-0.014,0.561-0.055,0.838-0.046
		c3.04,0.098,6.073-0.171,9.102-0.312c4.547-0.212,9.101-0.305,13.646-0.6c2.39-0.156,4.79-0.225,7.185-0.274
		c2.957-0.062,5.91-0.229,8.863-0.339c3.189-0.119,6.383-0.237,9.573-0.411c5.062-0.276,10.137-0.347,15.199-0.682
		c1.991-0.132,3.992-0.146,5.986-0.207c2.994-0.092,5.986-0.271,8.981-0.346c4.63-0.117,9.256-0.406,13.882-0.64
		c2.074-0.104,4.153-0.137,6.227-0.211c3.034-0.108,6.067-0.275,9.104-0.352c4.669-0.116,9.335-0.415,14.001-0.646
		c1.954-0.097,3.913-0.132,5.866-0.199c2.954-0.1,5.91-0.239,8.86-0.362c2.751-0.115,5.51-0.113,8.258-0.363
		c2.227-0.202,4.471-0.186,6.702-0.255c3.073-0.096,6.147-0.256,9.223-0.352c3.99-0.124,7.979-0.378,11.974-0.453
		c0.159-0.003,0.319,0.007,0.479,0.012c0,0.64,0,1.28,0,1.92c-0.761,0.007-1.521-0.009-2.279,0.026
		c-4.708,0.219-9.414,0.531-14.124,0.646c-2.957,0.072-5.909,0.255-8.866,0.338c-2.072,0.059-4.15,0.123-6.227,0.217
		c-4.948,0.225-9.895,0.503-14.844,0.658c-2.717,0.085-5.43,0.242-8.146,0.33c-1.994,0.064-3.998,0.061-5.988,0.215
		c-4.622,0.358-9.259,0.378-13.886,0.641c-3.667,0.208-7.342,0.361-11.014,0.458c-4.993,0.132-9.978,0.523-14.974,0.543
		c-0.358,0.001-0.722,0.003-1.077,0.044c-2.823,0.321-5.668,0.275-8.498,0.39c-2.873,0.117-5.749,0.259-8.623,0.351
		c-2.033,0.065-4.073,0.114-6.107,0.212c-4.788,0.232-9.574,0.521-14.365,0.649c-2.836,0.076-5.668,0.259-8.505,0.334
		c-1.911,0.051-3.833,0.114-5.748,0.207c-4.39,0.212-8.776,0.472-13.167,0.66c-4.792,0.206-9.589,0.297-14.378,0.554
		c-2.157,0.115-4.313,0.156-6.471,0.25c-3.354,0.147-6.709,0.281-10.062,0.429c-2.396,0.104-4.793,0.21-7.189,0.288
		c-5.553,0.178-11.1,0.474-16.652,0.653c-2.595,0.083-5.183,0.344-7.785,0.295c-0.789-0.015-1.58,0.161-2.558,0.271
		c-3.739,8.558-6.095,17.637-9.179,26.535c2.703,2.268,4.072,5.249,4.562,8.616c0.688,0.136,1.249,0.099,1.802,0.046
		c3.945-0.378,7.911-0.235,11.864-0.375c4.272-0.151,8.55-0.287,12.828-0.36c3.194-0.055,6.394-0.143,9.591-0.237
		c4.795-0.141,9.59-0.306,14.385-0.426c3.596-0.09,7.196-0.162,10.789-0.304c7.15-0.283,14.307-0.37,21.457-0.62
		c5.354-0.188,10.709-0.316,16.062-0.462c5.914-0.161,11.829-0.29,17.742-0.495c4.954-0.172,9.912-0.221,14.866-0.355
		c4.155-0.112,8.311-0.348,12.466-0.383c4.118-0.036,8.231-0.254,12.35-0.324c2.956-0.049,5.915-0.125,8.872-0.213
		c7.033-0.208,14.063-0.527,21.097-0.647c4.318-0.074,8.633-0.27,12.95-0.334c3.035-0.045,6.076-0.105,9.111-0.233
		c4.953-0.208,9.909-0.318,14.865-0.433c3.557-0.082,7.109-0.314,10.671-0.276c0.793,0.008,1.6-0.02,2.382-0.217
		c0,0.72,0,1.44,0,2.16c-4.716,0.07-9.429,0.18-14.14,0.412c-0.199,0.01-0.399,0.026-0.601,0.022
		c-4.68-0.082-9.352,0.215-14.026,0.313c-6.073,0.128-12.146,0.329-18.222,0.487c-5.474,0.143-10.946,0.325-16.42,0.465
		c-6.033,0.155-12.066,0.333-18.1,0.496c-5.436,0.148-10.869,0.275-16.302,0.471c-6.75,0.243-13.506,0.272-20.253,0.632
		c-2.992,0.16-5.995,0.151-8.989,0.214c-4.558,0.095-9.114,0.22-13.668,0.362c-6.791,0.212-13.584,0.321-20.373,0.601
		c-3.713,0.153-7.434,0.192-11.148,0.302c-5.794,0.17-11.587,0.374-17.382,0.474c-6.994,0.121-13.983,0.41-20.979,0.54
		c-5.594,0.104-11.187,0.34-16.781,0.474c-2.914,0.07-5.83,0.22-8.643,0.202c-0.349,0.147-0.486,0.357-0.548,0.584
		c-1.569,5.78-4.093,11.169-6.735,16.51c-4.414,8.916-9.816,17.223-15.767,25.168c-1.021,1.365-1.388,2.615-1.367,4.231
		c0.144,10.916,0.169,21.834,0.345,32.75c0.065,4.078,0.147,8.156,0.168,12.235c0.002,0.351-0.076,0.715,0.131,1.135
		c0.548,0.093,1.144,0.086,1.726,0.008c2.091-0.281,4.146-0.065,6.138,0.544c2.142,0.654,3.504,2.008,3.791,4.381
		c0.432,3.541,0.573,7.072,0.282,10.629c-0.118,1.471-0.101,2.958-0.063,4.435c0.046,1.811,1.285,3.044,3.129,3.082
		c2.357,0.048,4.719,0.006,7.078,0.01c1.606,0.003,3.156,0.332,4.662,0.875c2.271,0.819,3.457,2.451,3.58,4.855
		c0.028,0.559,0.026,1.12,0.012,1.679c-0.1,3.68,0.222,7.35,0.306,11.027c0.089,3.95,0.388,7.898,0.435,11.854
		c0.01,0.758,0.116,1.503,0.289,2.344c1.156-0.205,2.269-0.422,3.387-0.596c4.193-0.652,8.382-0.974,12.563,0.122
		c2.484,0.65,4.558,2.053,6.58,3.539c5.437,3.996,10.595,8.343,15.802,12.629c6.866,5.652,13.711,11.336,20.805,16.705
		c3.654,2.768,7.563,5.173,11.274,7.861c3.925,2.846,7.597,5.955,10.505,9.881c2.026,2.737,3.582,5.748,4.881,8.873
		c1.438,3.465,3.1,6.805,4.961,10.053c1.699,2.969,2.772,6.115,3.069,9.549c0.189,2.188,0.265,4.377,0.446,6.561
		c0.191,2.301,0.423,4.598,0.637,6.896c0.186,1.98,0.359,3.965,0.557,5.945c0.205,2.059,0.438,4.112,0.648,6.17
		c0.188,1.821,0.358,3.646,0.55,5.468c0.212,2.017,0.448,4.032,0.657,6.049c0.192,1.861,0.351,3.727,0.548,5.587
		c0.197,1.858,0.437,3.713,0.639,5.57c0.196,1.819,0.364,3.645,0.559,5.466c0.205,1.937,0.432,3.872,0.636,5.809
		c0.195,1.86,0.371,3.724,0.562,5.583c0.212,2.059,0.423,4.116,0.649,6.172c0.105,0.949,0.17,1.904,0.263,2.854
		c0.343,3.571,0.668,7.151,0.694,10.74c0.023,2.953-0.106,5.907-0.354,8.855c-0.107,1.269-0.14,2.545-0.28,3.813
		c-0.64,0-1.28,0-1.92,0c0.392-5.141,0.646-10.285,0.479-15.439c-0.083-2.586-0.376-5.16-0.634-7.735
		c-0.187-1.861-0.338-3.728-0.542-5.589c-0.234-2.135-0.46-4.271-0.674-6.407c-0.19-1.901-0.345-3.808-0.544-5.707
		c-0.195-1.858-0.435-3.712-0.638-5.569c-0.195-1.781-0.363-3.564-0.555-5.348c-0.21-1.978-0.442-3.951-0.649-5.93
		c-0.195-1.86-0.359-3.726-0.557-5.587c-0.201-1.897-0.436-3.793-0.635-5.691c-0.199-1.9-0.369-3.805-0.562-5.705
		c-0.207-2.059-0.408-4.117-0.651-6.171c-0.108-0.909-0.168-1.83-0.233-2.734c-0.168-2.345-0.406-4.685-0.588-7.025
		c-0.25-3.209-0.177-6.453-0.912-9.621c-0.428-1.832-1.062-3.584-1.998-5.203c-2.271-3.934-4.228-8.012-5.992-12.192
		c-2.506-5.938-6.479-10.721-11.543-14.687c-4.213-3.299-8.797-6.051-13.073-9.25c-4.856-3.635-9.591-7.424-14.284-11.264
		c-4.261-3.484-8.506-6.99-12.758-10.488c-3.204-2.635-6.423-5.252-9.766-7.709c-2.174-1.599-4.318-3.269-7.078-3.799
		c-2.163-0.418-4.334-0.492-6.536-0.408c-3.638,0.14-7.168,0.842-10.683,1.711c-0.314,0.078-0.592,0.201-0.938,0.404
		c1.538,0.521,3.086,0.771,4.562,1.289c2.742,0.959,5.203,2.334,7.353,4.31c2.618,2.405,5.528,4.446,8.461,6.44
		c9.416,6.408,19.174,12.273,28.933,18.141c3.135,1.886,6.312,3.709,9.231,5.945c4.272,3.271,7.438,7.422,9.901,12.146
		c1.235,2.372,2.246,4.846,3.141,7.368c0.275,0.781,0.361,1.531-0.039,2.39c-0.609-0.358-0.657-0.952-0.846-1.429
		c-1.608-4.109-3.635-8-6.139-11.635c-2.768-4.016-6.431-7.062-10.543-9.604c-9.445-5.841-19.054-11.419-28.367-17.474
		c-4.578-2.975-9.117-6.006-13.396-9.401c-0.594-0.472-1.188-0.949-1.729-1.479c-2.718-2.676-6.131-3.924-9.74-4.74
		c-5.377-1.217-10.838-1.188-16.305-0.952c-0.111,0.005-0.223,0.067-0.506,0.161c0.012,1.458-0.061,2.958,0.075,4.463
		c0.035,0.398,0.118,0.795,0.119,1.191c0.011,5.838,0.403,11.666,0.262,17.508c-0.142,5.826-4.332,9.031-8.866,9.561
		c-2.32,0.271-4.647,0.488-7.113,0.795c0.834,1.588,1.902,2.891,2.902,4.418c0.75-1.183,1.869-1.131,2.861-1.293
		c2.855-0.469,5.727-0.854,8.589-1.285c1.097-0.164,2.187-0.365,3.269-0.548c0.188-0.471-0.121-0.793-0.284-1.129
		c-0.517-1.06-0.653-2.208-0.79-3.345c-0.096-0.799,0.098-1.561,0.896-1.943c0.514,0.282,0.397,0.686,0.407,1.022
		c0.065,2.288,0.856,4.239,2.397,5.972c2.396,2.697,5.059,5.102,7.867,7.338c5.058,4.024,10.188,7.956,15.155,12.092
		c0.275,0.229,0.552,0.469,0.86,0.647c2.111,1.221,2.592,3.423,3.283,5.481c2.553,7.588,5.154,15.157,7.879,22.687
		c0.633,1.751,1.291,3.494,1.937,5.24c0.408,1.104,1.062,1.914,1.929,2.652c2.44,2.084,4.576,4.445,6.305,7.159
		c0.449,0.705,0.824,1.451,1.072,2.258c0.168,0.547-0.026,0.949-0.482,1.219c-0.473,0.278-0.842,0.024-1.146-0.33
		c-0.154-0.181-0.309-0.372-0.408-0.584c-1.299-2.765-3.312-4.962-5.51-7.023c-3.676-3.446-7.763-6.357-11.923-9.166
		c-5.239-3.535-10.642-6.814-16.124-9.955c-4.294-2.459-7.787-5.833-11.027-9.479c-7.016-7.893-12.879-16.613-18.283-25.657
		c-2.983-4.991-6.539-9.537-10.618-13.677c-1.125-1.143-2.432-2.063-3.661-3.081c-1.255-1.039-2.471-2.124-3.861-2.978
		c-3.312-2.035-6.843-3.465-10.809-3.104c-4.524,0.411-8.384,2.221-11.409,5.748c-2.974,3.469-4.398,7.573-5.28,11.94
		c-0.474,2.35-0.554,4.747-0.855,7.118c-0.289,2.271,0.435,4.478,0.965,6.673c0.873,3.617,2.718,6.758,4.8,9.777
		c2.992,4.34,6.399,8.348,9.865,12.311c3.918,4.481,7.944,8.865,11.903,13.311c5.893,6.616,11.717,13.291,17.043,20.382
		c4.169,5.549,7.926,11.35,10.844,17.669c2.035,4.407,3.571,8.981,4.424,13.757c0.453,2.538,0.714,5.11,0.813,7.703
		c0.147,3.854,0.748,7.66,1.664,11.408c1.347,5.493,2.853,10.943,4.565,16.333c0.048,0.146,0.15,0.277,0.228,0.416
		c-0.799,0-1.601,0-2.399,0c-0.001-0.08,0.019-0.166-0.005-0.239c-1.58-4.933-2.948-9.925-4.202-14.95
		c-1.039-4.166-1.803-8.375-1.997-12.667c-0.105-2.348-0.365-4.669-0.714-6.99c-0.711-4.74-2.224-9.229-4.188-13.569
		c-2.937-6.486-6.819-12.401-11.103-18.062c-0.499-0.658-0.875-1.479-1.834-1.974c0.199,4.06-0.167,7.96-0.224,11.871
		c-0.104,7.153-0.301,14.306-0.467,21.457c-0.153,6.594-0.405,13.186-0.449,19.779c-0.034,5.115-0.437,10.227-0.258,15.346
		c-0.72,0-1.44,0-2.16,0c0.096-1.956,0.242-3.908,0.262-5.87c0.064-6.435,0.272-12.867,0.423-19.301
		c0.174-7.394,0.367-14.785,0.489-22.18c0.092-5.556,0.329-11.107,0.337-16.666c0.004-2.26,0.065-4.538,0.375-6.899
		c-2.282-2.937-4.763-5.853-7.274-8.736c-3.829-4.398-7.722-8.742-11.629-13.071c-4.574-5.068-9.151-10.133-13.335-15.534
		c-2.344-3.028-4.547-6.15-6.21-9.62c-0.709-1.479-1.166-3.512-1.884-5.028c-1.5-3.166-0.443-4.37-0.833-7.5
		c-0.157-1.256,0.719-4.084,0.667-5.387c-11.838-0.562-23.506,0.702-35.228,1.304c0.082,0.415,0.373,0.639,0.589,0.914
		c0.894,1.13,1.674,2.327,2.187,3.684c1.364,3.607,1.447,7.278,0.622,11.019c-0.757,3.428-1.996,6.681-3.412,9.876
		c-0.289,0.652-0.529,1.318-0.566,2.053c-0.125,2.51-0.371,5.01-0.522,7.518c-0.222,3.658-0.617,7.305-0.893,10.959
		c-0.208,2.744-0.289,5.498-0.541,8.235c-0.106,1.154-0.09,2.317-0.244,3.459c-0.346,2.57-0.37,5.164-0.641,7.741
		c-0.283,2.693-0.31,5.413-0.549,8.112c-0.105,1.192-0.105,2.396-0.254,3.579c-0.325,2.572-0.373,5.165-0.638,7.742
		c-0.277,2.693-0.283,5.417-0.56,8.11c-0.127,1.234-0.143,2.468-0.25,3.699c-0.235,2.739-0.472,5.478-0.649,8.221
		c-0.097,1.513-0.238,3.021-0.321,4.534c-0.14,2.584-0.448,5.159-0.638,7.741c-0.199,2.703-0.277,5.417-0.542,8.113
		c-0.121,1.232-0.138,2.469-0.26,3.698c-0.181,1.823-0.366,3.646-0.398,5.481c-0.72,0-1.44,0-2.16,0
		c0.463-0.908,0.19-1.891,0.274-2.836c0.326-3.691,0.666-7.383,0.919-11.079c0.216-3.142,0.468-6.278,0.7-9.418
		c0.243-3.299,0.463-6.6,0.741-9.897c0.23-2.739,0.281-5.498,0.549-8.233c0.113-1.154,0.131-2.31,0.228-3.459
		c0.218-2.581,0.476-5.158,0.667-7.74c0.203-2.743,0.279-5.497,0.552-8.232c0.12-1.194,0.138-2.39,0.24-3.582
		c0.232-2.698,0.488-5.396,0.641-8.102c0.088-1.553,0.251-3.1,0.327-4.656c0.125-2.585,0.452-5.159,0.642-7.742
		c0.2-2.703,0.268-5.42,0.538-8.115c0.119-1.194,0.118-2.391,0.246-3.579c0.209-1.943,0.398-3.888,0.434-5.843
		c0.004-0.219,0.108-0.472-0.112-0.664c-0.242,0.008-0.318,0.213-0.43,0.365c-2.235,3.021-4.793,5.764-7.32,8.537
		c-2.794,3.068-5.523,6.198-8.028,9.509c-3.394,4.483-6.41,9.218-9.123,14.143c-3.46,6.28-7.143,12.421-11.273,18.292
		c-4.559,6.479-9.678,12.481-15.173,18.172c-4.027,4.17-8.257,8.131-12.509,12.071c-4.486,4.157-9.117,8.118-14.306,11.387
		c-5.975,3.763-12.299,6.791-18.974,9.103c-1.512,0.523-3.112,0.81-4.529,1.604c-2.72,0-5.44,0-8.16,0
		c2.1-0.557,4.206-1.095,6.3-1.673c6.295-1.737,12.353-4.085,18.146-7.108c6.576-3.432,12.528-7.732,18.009-12.726
		c5.703-5.195,11.318-10.483,16.615-16.091c7.889-8.352,14.678-17.531,20.45-27.476c2.696-4.646,5.164-9.425,8.109-13.924
		c2.666-4.07,5.555-7.974,8.704-11.688c3.072-3.625,6.369-7.049,9.458-10.658c2.613-3.055,4.573-6.495,6.063-10.219
		c1.032-2.58,2.028-5.176,2.519-7.92c0.544-3.043,0.744-6.096-0.333-9.08c-0.942-2.61-2.554-4.617-4.856-6.289
		c-4.223-3.066-8.965-4.631-13.993-5.427c-5.008-0.792-9.272,0.864-12.501,4.761c-2.653,3.201-4.626,6.859-6.338,10.642
		c-1.167,2.579-2.431,5.073-4.129,7.368c-1.683,2.273-2.757,4.925-4.11,7.404c-2.305,4.225-4.987,8.168-8.535,11.467
		c-2.434,2.262-5.27,3.988-7.924,5.957c-6.438,4.774-13.23,9.068-19.41,14.194c-1.014,0.841-1.954,1.771-2.924,2.664
		c-0.319,0.294-0.607,0.625-1.079,0.842c-0.18-0.54,0.194-0.851,0.419-1.166c1.405-1.966,3.171-3.597,4.962-5.19
		c2.179-1.938,4.444-3.776,6.78-5.524c0.477-0.355,0.963-0.719,0.95-1.429c-0.003-0.178,0.139-0.372,0.249-0.536
		c2.988-4.448,5.061-9.387,7.533-14.11c1.772-3.39,3.519-6.793,5.86-9.844c2.589-3.373,5.81-6.021,9.447-8.175
		c2.565-1.519,5.229-2.851,8.009-3.938c0.549-0.215,1.095-0.482,1.669-0.232c0.462-0.273,0.543-0.736,0.726-1.123
		c1.378-2.925,2.89-5.766,4.875-8.337c2.272-2.944,5.1-5.134,8.565-6.494c0.296-0.116,0.596-0.228,0.88-0.368
		c0.136-0.066,0.238-0.201,0.382-0.33c-0.332-1.873,0.479-3.566,0.81-5.342c0.369-1.977,1.724-3.374,2.807-4.921
		c3.312-4.733,6.677-9.433,10.017-14.146c0.109-0.154,0.163-0.35,0.231-0.5c-0.15-0.222-0.328-0.295-0.528-0.344
		c-1.545-0.371-3.047-0.89-4.496-1.527c-2.105-0.93-4.276-0.855-6.454-0.521c-4.109,0.63-7.98,2.08-11.729,3.796
		c-5.999,2.745-12.149,5.089-18.369,7.265c-8.857,3.102-17.782,5.992-26.757,8.731c-2.923,0.894-5.859,1.751-8.749,2.744
		c-4.174,1.437-7.844,3.747-11.093,6.729c-0.412,0.377-0.821,0.76-1.238,1.131c-0.052,0.047-0.147,0.046-0.314,0.092
		c-0.316-0.852,0.079-1.527,0.542-2.146c0.604-0.807,1.406-1.424,2.214-2.008c4.397-3.179,9.173-5.619,14.354-7.24
		c10.324-3.234,20.657-6.44,30.863-10.039c6.332-2.231,12.574-4.674,18.69-7.449c3.542-1.608,7.236-2.831,11.068-3.573
		c2.633-0.511,5.222-0.42,7.73,0.673c1.492,0.648,3.032,1.173,4.619,1.555c0.357,0.086,0.698,0.141,1.188,0.084
		c1.002-1.418,2.053-2.904,3.19-4.514c-2.284-1.234-4.097-3.038-6.454-3.971c-2.968-1.174-5.737-2.828-8.757-3.842
		c-4.167-1.396-7.801-3.742-11.518-5.967c-1.709-1.023-3.499-1.885-5.368-2.582c-3.546-1.322-7.044-1.145-10.585,0.123
		c-5.895,2.11-11.45,4.942-16.946,7.889c-6.487,3.477-12.902,7.089-19.346,10.646c-5.644,3.117-11.331,6.146-17.137,8.952
		c-3.557,1.719-6.944,3.741-10.196,5.977c-3.78,2.595-6.521,6.084-8.481,10.211c-0.266,0.559-0.431,1.187-0.942,1.656
		c-0.464-0.546-0.141-1.031-0.008-1.5c1.396-4.929,4.443-8.682,8.396-11.796c3.115-2.454,6.529-4.433,10.081-6.147
		c8.636-4.172,16.989-8.867,25.364-13.523c5.421-3.015,10.854-6.008,16.38-8.828c0.344-0.176,0.679-0.369,1.19-0.648
		c-1.183-0.312-2.153,0.021-3.073,0.164c-5.68,0.887-11.135,2.478-16.145,5.406c-4.025,2.354-8.332,4.135-12.584,6.02
		c-8.059,3.57-15.813,7.683-22.931,12.912c-3.57,2.623-7.07,5.335-10.366,8.31c-3.107,2.806-5.209,6.226-6.43,10.177
		c-4.217,13.648-9.143,27.043-14.396,40.321c-4.401,11.121-9.064,22.129-14.482,32.799c-2.287,4.506-4.698,8.95-7.6,13.104
		c-2.529,3.621-5.403,6.913-9.108,9.398c-1.997,1.339-4.151,2.312-6.494,2.856c-0.204,0.047-0.376,0.118-0.527,0.255
		c0-0.721,0-1.44,0-2.16c3.007-0.682,5.62-2.106,8.047-4.205c-1.109-0.933-0.957-2.225-1.027-3.366
		c-0.253-4.146-0.425-8.301-0.5-12.454c-0.095-5.277-0.147-10.559-0.18-15.835c-0.129-21.238-0.229-42.479,0.07-63.716
		c0.184-13.039-0.07-26.078,0.269-39.115c0.225-8.676-0.05-17.357,0.209-26.036c0.258-8.635-0.014-17.277,0.271-25.915
		c0.231-6.994,0.001-13.996,0.215-20.996c0.237-7.794,0.041-15.596,0.289-23.394c0.172-5.395-0.076-10.799,0.188-16.195
		c0.117-2.397,0.069-4.793,0.074-7.188c-0.533-0.432-1.138-0.65-1.623-1.075c-1.461-1.281-2.274-2.955-2.91-4.719
		c-0.482-1.339-1.042-2.697-0.894-4.163c0.125-1.238,0.116-2.475,0.162-3.712c0.137-3.632,0.39-7.262,0.447-10.895
		c0.05-3.158,0.247-6.309,0.348-9.464c0.066-2.074,0.047-4.158,0.206-6.229c0.364-4.783,0.38-9.58,0.634-14.368
		C4.74,32.263,4.901,28.348,5,24.437c0.132-5.234,0.44-10.461,0.57-15.695c0.059-2.395,0.209-4.79,0.238-7.188
		C5.816,1.108,5.934,0.675,6,0.24c0.64,0,1.28,0,1.92,0C7.755,4.432,7.635,8.626,7.412,12.814c-0.171,3.191-0.27,6.386-0.396,9.576
		c-0.119,2.993-0.291,5.987-0.326,8.985c-0.032,2.717-0.096,5.438-0.306,8.145c-0.22,2.832-0.225,5.669-0.347,8.502
		c-0.139,3.191-0.268,6.389-0.372,9.583c-0.067,2.074-0.083,4.154-0.202,6.228C5.145,69.378,4.994,74.93,4.776,80.479
		c-0.1,2.548,0.859,4.754,2.21,6.802c1.127,1.708,1.992,1.741,3.451,0.333c0.403-0.389,0.794-0.79,1.202-1.174
		c1.162-1.099,2.417-2.075,3.783-2.914c5.229-3.213,11.01-3.436,16.873-3.035c2.414,0.165,4.804,0.636,7.179,1.129
		c4.749,0.986,9.442,2.162,13.917,4.075c2.057,0.879,4.024,1.918,5.796,3.314c0.853,0.672,1.452,1.573,2.331,2.412
		c4.344-2.151,5.578-6.141,6.416-10.36c-0.129-0.111-0.181-0.175-0.247-0.208c-0.143-0.072-0.287-0.155-0.44-0.188
		c-3.336-0.709-5.265-2.97-6.508-5.951c-1.105-2.652-1.744-5.443-2.271-8.255c-0.761-4.062-1.695-8.09-1.127-12.301
		c0.535-3.96,1.945-7.443,4.725-10.345c1.166-1.217,2.516-1.94,4.252-1.806c0.293,0.022,0.63,0.114,0.96-0.183
		c-0.487-0.673-0.513-1.471-0.515-2.27c-0.006-2.44-0.066-4.881,0.001-7.319c0.103-3.757,0.342-7.51,0.434-11.267
		c0.17-6.921-0.495-13.818-0.718-20.728C66.96,0.24,67.44,0.24,67.92,0.24z M61.011,93.713c-0.284,3.282,0.213,142.758,0.533,144.12
		c0.339-0.24,0.662-0.454,0.969-0.688c2.184-1.672,4.321-3.408,6.556-5.009c6.95-4.979,14.436-9.017,22.238-12.491
		c4.538-2.021,9.147-3.893,13.437-6.438c2.297-1.364,4.771-2.345,7.296-3.213c3.313-1.14,6.716-1.917,10.181-2.306
		c1.719-0.19,3.479-0.554,5.246-0.119c0.656,0.16,1.314-0.002,1.969-0.283c2.477-1.066,4.964-2.102,7.56-2.872
		c2.74-0.813,5.455-0.89,8.23-0.213c3.214,0.784,6.068,2.329,8.875,3.998c2.456,1.461,4.782,3.181,7.499,4.142
		c2.71,0.959,5.282,2.199,7.838,3.49c0.512,0.259,1.009,0.593,1.695,0.628c0.064-1.09,0.169-2.122,0.177-3.155
		c0.04-4.918,0.051-9.837,0.078-14.756c0.002-0.396-0.034-0.791,0.087-1.188c0.583-1.911,1.621-3.54,3.059-4.907
		c1.548-1.472,3.449-2.075,5.553-2.118c2.075-0.043,4.132-0.232,6.095-0.957c1.938-0.715,3.123-2.039,3.475-4.156
		c0.179-1.076,0.15-2.146,0.26-3.214c0.324-3.149,0.255-6.309,0.045-9.458c-0.09-1.348,0.183-2.529,0.96-3.594
		c1.354-1.854,3.341-2.63,5.482-3.098c1.551-0.339,3.143-0.382,4.77-0.523c-0.017-3.17-0.419-6.253-0.622-9.345
		c-0.065-0.991-0.087-1.99-0.177-2.982c-0.245-2.698-0.503-5.396-0.663-8.1c-0.084-1.434-0.163-2.878-0.314-4.295
		c-0.379-3.551-0.794-7.102-1.344-10.637c-0.658-4.235-1.407-8.448-2.471-12.597c-0.949-3.698-2.129-7.321-4.348-10.5
		c-1.53-2.193-3.212-4.265-4.973-6.28c-4.109-4.702-8.603-9.015-13.192-13.237c-1.519-1.397-3.243-2.586-4.503-4.325
		c-2.885,0.437-5.799,0.327-8.685-0.061c-4.15-0.557-8.154-1.679-11.914-3.575c-0.431-0.217-0.867-0.438-1.36-0.38
		c-3.185,0.373-6.39,0.19-9.584,0.313c-6.268,0.243-12.542,0.434-18.815,0.542c-4.117,0.071-8.23,0.255-12.347,0.332
		c-3.035,0.057-6.075,0.095-9.11,0.212c-5.712,0.22-11.423,0.43-17.14,0.448c-3.079,0.009-6.149,0.336-9.231,0.242
		c-0.146-0.004-0.294,0.083-0.412,0.119C68.843,86.778,66.996,91.745,61.011,93.713z M59.114,91.964
		c-0.254-0.553-0.609-0.823-0.932-1.115c-1.316-1.193-2.86-2.031-4.453-2.776c-4.383-2.05-9.025-3.306-13.744-4.248
		c-4.882-0.975-9.773-1.872-14.82-1.31c-3.934,0.438-7.508,1.62-10.656,4.062c-1.207,0.936-2.16,2.142-3.389,3.036
		c-0.786,0.571-1.071,1.261-1.07,2.237c0.008,5.438,0.039,10.876-0.157,16.315c-0.232,6.474,0.018,12.956-0.222,19.434
		c-0.267,7.194,0.001,14.395-0.243,21.593c-0.268,7.914-0.008,15.836-0.255,23.754c-0.248,7.954,0.012,15.916-0.196,23.874
		c-0.297,11.394-0.113,22.794-0.284,34.192c-0.236,15.756-0.022,31.516-0.195,47.272c-0.144,13.077,0.151,26.153,0.126,39.229
		c-0.014,7.237,0.236,14.47,0.461,21.701c0.041,1.321,0.339,2.614,0.292,3.938c-0.006,0.191,0.104,0.379,0.375,0.483
		c1.288-1.099,2.389-2.408,3.439-3.76c3.042-3.917,5.443-8.23,7.751-12.6c4.431-8.388,8.281-17.045,11.905-25.801
		c6.517-15.746,12.583-31.66,17.593-47.959c1.516-4.931,3.777-9.387,7.789-12.791c0.448-0.382,0.979-0.697,1.289-1.33
		c-0.277-0.387-0.221-0.871-0.221-1.347c-0.012-20.397-0.044-40.794-0.173-61.191c-0.172-27.476-0.022-54.954-0.286-82.429
		C58.832,93.596,58.751,92.753,59.114,91.964z M266.413,176.271c0-0.423-0.001-0.899,0.001-1.375
		c0.021-5.479-0.133-10.957-0.193-16.435c-0.146-13.316-0.25-26.632-0.479-39.948c-0.062-3.573-0.538-2.965,1.855-5.6
		c0.053-0.058,0.079-0.139,0.127-0.202c3.908-5.205,7.471-10.643,10.789-16.236c3.989-6.723,7.448-13.712,10.125-21.069
		c0.555-1.526,1.195-3.057,1.278-4.701c0.166-3.276-1.297-5.871-3.679-7.961c-3.25-2.853-7.25-3.865-11.408-3.911
		c-11.837-0.133-23.676-0.109-35.512,0.197c-3.477,0.09-6.958,0.115-10.428,0.317c-3.506,0.205-7.02,0.282-10.519,0.627
		c-2.34,0.23-4.702,0.264-7.036,0.54c-2.878,0.339-5.761,0.65-8.626,1.124c-3.246,0.537-6.495,1.062-9.618,2.11
		c-4.999,1.678-9.971,3.435-14.952,5.169c-8.915,3.103-17.858,6.118-26.828,9.056c-0.261,0.085-0.516,0.126-0.622,0.416
		c0.077,0.072,0.126,0.148,0.194,0.177c4.581,1.895,9.371,2.771,14.309,2.709c3.424-0.042,6.833-0.463,10.229-0.896
		c3.677-0.469,7.349-0.932,11.061-1.004c2.287-0.044,4.555,0.085,6.77,0.703c0.577,0.161,1.191,0.296,1.778,0.928
		c-1.076-0.107-1.943-0.205-2.812-0.279c-2.92-0.249-5.854-0.36-8.708,0.395c-2.602,0.688-5.262,0.839-7.902,1.188
		c-1.431,0.189-2.862,0.379-4.534,0.602c1.373,1.26,2.564,2.364,3.766,3.456c5.565,5.055,10.905,10.33,15.618,16.204
		c1.845,2.3,3.588,4.684,4.741,7.428c1.806,4.299,2.853,8.817,3.738,13.373c0.598,3.077,1.077,6.174,1.504,9.282
		c0.331,2.402,0.616,4.81,0.874,7.218c0.275,2.574,0.28,5.176,0.552,7.751c0.118,1.114,0.137,2.228,0.233,3.338
		c0.217,2.5,0.52,4.995,0.653,7.499c0.14,2.629,0.395,5.248,0.564,7.874c0.21,3.263,0.54,6.519,0.682,9.788
		c0.038,0.867,0.187,1.728,0.288,2.625c0.208,0.025,0.36,0.057,0.513,0.061c5.081,0.133,10.154-0.192,15.23-0.304
		c5.153-0.113,10.3-0.489,15.453-0.62c2.718-0.069,5.43-0.253,8.147-0.324c1.993-0.052,3.993-0.139,5.989-0.231
		c2.953-0.138,5.905-0.318,8.859-0.423c2.197-0.078,4.384-0.341,6.586-0.286C265.492,176.627,265.943,176.589,266.413,176.271z
		 M147.791,76.95c0.158-0.627-0.148-1.035-0.331-1.46c-3.28-7.674-6.484-15.38-9.329-23.229c-0.918-2.533-1.893-5.048-2.138-7.787
		c-0.08-0.887,0.017-1.82-0.284-2.734c-0.399,0-0.756,0.011-1.113-0.002c-2.442-0.087-4.874,0.24-7.309,0.228
		c-3.401-0.017-6.791,0.246-10.188,0.324c-2.434,0.056-4.875,0.119-7.311,0.218c-5.43,0.222-10.858,0.493-16.29,0.655
		c-4.154,0.124-8.305,0.294-12.458,0.444c-4.833,0.174-9.666,0.382-14.5,0.494c-1.409,0.033-2.465,0.417-3.335,1.46
		c-0.358,0.429-0.74,0.833-1.071,1.289c-2.804,3.861-3.18,8.275-2.778,12.797c0.263,2.963,0.92,5.884,1.602,8.784
		c0.554,2.36,1.125,4.718,2.329,6.863c1.037,1.846,2.535,3.139,4.648,3.394c1.49,0.18,2.997,0.325,4.52,0.315
		c3.96-0.023,7.916-0.147,11.873-0.252c5.675-0.151,11.351-0.257,17.026-0.44c7.272-0.236,14.547-0.366,21.821-0.541
		c0.72-0.018,1.439-0.025,2.159-0.05c4.115-0.14,8.228-0.369,12.343-0.399c3.201-0.023,6.39-0.357,9.591-0.281
		C147.421,77.044,147.576,76.989,147.791,76.95z M161.866,254.264c6.098-0.529,11.519,0.961,16.506,3.826
		c1.967,1.131,3.862,1.512,6,1.344c0.04-0.004,0.08-0.006,0.12-0.008c4.711-0.232,9.427-0.322,14.14-0.486
		c4.151-0.146,8.308-0.057,12.455-0.311c2.627-0.161,5.268-0.098,7.961-0.465c0.591-2.721,1.513-5.354,2.717-7.876
		c-0.402-0.205-0.683-0.142-0.96-0.132c-5.872,0.209-11.743,0.462-17.617,0.609c-3.317,0.082-6.633,0.217-9.947,0.334
		c-2.676,0.096-5.355,0.111-8.031,0.245c-3.273,0.164-6.55,0.259-9.824,0.401c-0.838,0.037-1.378-0.271-1.601-1.167
		c0.846-1.675,1.863-3.292,2.891-4.901c0.355-0.557,0.931-0.883,1.625-0.859c1.884,0.062,3.752-0.191,5.631-0.242
		c5.634-0.153,11.27-0.284,16.899-0.531c2.478-0.107,4.955-0.148,7.432-0.241c5.952-0.218,11.902-0.473,17.855-0.646
		c1.122-0.033,2.067-0.274,3.025-0.873c2.863-1.79,6.04-2.633,9.397-2.742c3.181-0.104,6.135,0.82,8.942,2.229
		c0.931,0.467,1.839,0.621,2.874,0.562c3.232-0.178,6.469-0.285,9.705-0.382c1.258-0.037,1.782,0.562,1.586,1.774
		c-0.197,1.217-0.44,2.428-0.722,3.625c-0.273,1.162-0.726,1.467-1.937,1.524c-0.518,0.024-1.072-0.138-1.727,0.201
		c2.708,2.452,4.667,5.381,7.113,8.067c0.455-1.025,1.235-1.207,2.042-1.276c2.145-0.188,4.277-0.445,6.413-0.726
		c3.579-0.471,6.543-4.186,6.313-7.32c-0.093-1.274-0.048-2.559-0.084-3.838c-0.132-4.715-0.257-9.431-0.414-14.146
		c-0.146-4.396-0.277-8.79-0.531-13.179c-0.088-1.508-0.102-3.03-0.394-4.53c-0.173-0.886-0.641-1.462-1.432-1.76
		c-0.747-0.281-1.541-0.464-2.347-0.349c-2.263,0.321-4.545,0.297-6.815,0.402c-4.991,0.23-9.989,0.311-14.978,0.555
		c-2.117,0.104-4.234,0.162-6.35,0.26c-4.431,0.205-8.859,0.449-13.29,0.66c-3.831,0.185-7.667,0.279-11.494,0.535
		c-4.662,0.312-9.329,0.516-13.989,0.872c-4.453,0.343-8.916,0.564-13.333,1.249c-2.394,0.371-4.763,0.893-7.013,1.842
		c-1.157,0.487-2.245,1.039-2.607,2.407c-0.078,0.294-0.312,0.552-0.496,0.812c-6.572,9.283-13.165,18.554-19.707,27.857
		C162.489,249.441,162.313,251.818,161.866,254.264z M149.92,76.179c0.854-0.007,1.451-0.346,2.084-0.553
		c9.615-3.132,19.181-6.406,28.751-9.672c4.464-1.523,8.857-3.252,13.383-4.599c1.202-0.358,2.481-0.453,3.666-1.02
		c-0.174-0.774-0.466-1.483-0.502-2.238c-0.11-2.32,0.092-4.608,0.604-6.881c1.271-5.642,3.293-11.019,5.608-16.3
		c0.245-0.56,0.586-1.098,0.663-1.81c-3.784-0.339-7.474,0.069-11.143,0.569c-2.806,0.383-5.619,0.7-8.436,0.835
		c-3.904,0.188-7.792,0.436-11.667,0.965c-3.105,0.424-6.172,1.025-9.243,1.636c-2.957,0.588-5.908,1.2-8.911,1.549
		c-1.74,0.203-3.48,0.361-5.224,0.517c-3.435,0.306-6.851,0.248-10.261-0.252c-0.421-0.062-0.859-0.168-1.251,0.072
		c-0.392,3.173-0.129,6.27,0.819,9.235c2.156,6.743,4.951,13.241,7.634,19.781C147.608,70.729,148.765,73.43,149.92,76.179z
		 M199.844,59.962c0.245,0.014,0.452,0.071,0.638,0.031c2.487-0.544,5.018-0.824,7.536-1.129c3.557-0.431,7.133-0.729,10.708-0.983
		c2.627-0.188,5.26-0.337,7.89-0.456c5.269-0.237,10.542-0.433,15.815-0.511c9.036-0.133,18.073-0.161,27.11-0.239
		c0.391-0.003,0.8,0.09,1.333-0.248c0.286-8.628,0.604-17.361,0.583-26.175c-2.544-0.502-5.023-0.869-7.518-0.96
		c-5.115-0.187-10.221,0.131-15.33,0.403c-4.822,0.256-9.647,0.473-14.469,0.738c-2.829,0.156-5.657,0.307-8.485,0.473
		c-3.225,0.188-6.44,0.438-9.657,0.726c-2.815,0.251-5.617,0.566-8.414,0.964c-0.632,0.089-0.995,0.299-1.256,0.884
		c-2.691,6.022-5.22,12.104-6.534,18.605C199.273,54.661,198.863,57.267,199.844,59.962z M319.33,312.079
		c0.201-0.386,0.089-0.597,0.008-0.821c-1.083-3.021-2.184-6.037-3.234-9.07c-2.104-6.061-4.183-12.129-6.264-18.196
		c-0.236-0.688-0.515-1.313-1.113-1.789c-4.148-3.302-8.277-6.629-12.427-9.933c-3.276-2.608-6.661-5.093-9.604-8.094
		c-0.893-0.908-1.711-1.89-2.678-2.965c-5.06,0.771-10.181,1.555-15.312,2.339c0.038,0.188,0.037,0.319,0.089,0.423
		c0.124,0.245,0.269,0.483,0.412,0.719c5.026,8.177,10.384,16.115,16.717,23.358c3.726,4.261,7.83,8.017,12.822,10.802
		c5.553,3.099,10.931,6.496,16.161,10.119C316.367,309.984,317.816,311.016,319.33,312.079z M280.648,222.452
		c1.181-0.14,1.354-0.272,1.354-1.261c-0.001-1.196-0.104-2.396-0.099-3.592c0.023-4.478,0.041-8.953,0.133-13.43
		c0.027-1.333-0.676-2.417-2.004-2.925c-0.637-0.243-1.275-0.399-1.973-0.394c-6.117,0.064-12.235-0.052-18.354,0.176
		c-6.554,0.242-13.116-0.051-19.673,0.233c-5.753,0.249-11.517-0.056-17.272,0.229c-5.193,0.257-10.395-0.014-15.592,0.246
		c-4.823,0.24-9.669-0.055-14.479,0.566c-1.864,0.241-3.678,0.66-5.28,1.715c-0.696,0.459-1.067,1.071-1.238,1.934
		c-0.212,1.068-0.157,2.146-0.31,3.214c-0.251,1.76-0.356,3.54-0.521,5.282c0.291,0.185,0.502,0.092,0.732,0.008
		c0.783-0.286,1.562-0.592,2.362-0.821c5-1.437,10.164-1.771,15.31-2.149c2.981-0.221,5.966-0.44,8.957-0.572
		c1.43-0.062,2.875-0.068,4.3-0.221c3.536-0.375,7.09-0.424,10.634-0.623c2.548-0.144,5.104-0.272,7.66-0.354
		c1.913-0.062,3.838-0.062,5.746-0.224c4.341-0.37,8.696-0.42,13.042-0.621c3.07-0.143,6.152-0.23,9.223-0.364
		c2.75-0.119,5.515-0.05,8.262-0.353c1.345-0.147,2.716-0.226,4.07-0.06c1.702,0.21,3.551,1.226,3.981,3.24
		c0.233,1.093,0.397,2.192,0.433,3.301c0.064,2.156,0.338,4.304,0.297,6.464C280.343,221.529,280.355,221.982,280.648,222.452z
		 M272.855,56.616c4.582,0.204,8.936,0.777,12.828,3.174c0.235-0.256,0.338-0.497,0.422-0.77c0.388-1.25,0.795-2.492,1.203-3.735
		c1.875-5.728,3.711-11.469,5.729-17.149c0.69-1.948,1.646-3.773,2.718-5.737c-7.497,0.649-14.763-0.309-22.176-0.898
		C273.221,39.808,273.419,48.151,272.855,56.616z M201.856,184.26c0.781-0.206,1.502-0.397,2.269-0.396
		c7.159,0.01,14.318,0.005,21.477,0.005c13.398,0,26.796,0.002,40.194-0.009c0.501,0,1.04,0.151,1.579-0.239
		c-0.316-1.68,1.27-3.23,0.467-5.047c-2.916-0.169-5.738,0.204-8.566,0.285c-4.271,0.124-8.535,0.5-12.806,0.614
		c-2.757,0.074-5.509,0.258-8.265,0.334c-2.034,0.057-4.078,0.074-6.108,0.23c-3.27,0.252-6.548,0.261-9.821,0.407
		c-4.192,0.188-8.392,0.208-12.587,0.326c-1.999,0.057-3.993,0.168-5.99-0.052c-1.07-0.118-1.518-0.49-1.581-1.545
		c-0.045-0.758-0.002-1.52-0.034-2.279c-0.016-0.36,0.088-0.792-0.341-1.06c-1.232,1.418-2.18,2.848-1.194,4.767
		c0.068,0.134,0.092,0.32,0.065,0.468C200.377,182.354,201.07,183.277,201.856,184.26z M115.62,305.632
		c0.513-0.071,0.779-0.307,1.053-0.502c2.368-1.685,4.695-3.427,7.102-5.054c3.533-2.389,6.678-5.172,9.23-8.604
		c2.217-2.981,3.977-6.234,5.678-9.523c1.042-2.016,2.09-4.02,3.527-5.801c0.659-0.815,1.247-1.709,1.525-2.69
		c-0.162-0.197-0.296-0.146-0.393-0.106c-4.882,1.946-9.387,4.516-13.298,8.064c-2.754,2.5-4.696,5.591-6.496,8.8
		c-2.509,4.47-4.611,9.146-6.987,13.683C116.274,304.445,115.971,304.984,115.62,305.632z M176.834,249.568
		c15.557-0.529,30.914-1.055,46.261-1.578c0.73-0.87,1.43-1.66,2.085-2.694c-15.713,0.548-31.263,1.091-46.775,1.632
		C177.774,247.714,177.347,248.514,176.834,249.568z M252.211,244.307c-0.021,0.094-0.042,0.187-0.063,0.278
		c0.853,0.697,1.703,1.399,2.561,2.09c0.288,0.231,0.625,0.327,1.003,0.293c1.062-0.096,2.125-0.183,3.158-0.27
		c0.3-0.853,0.447-1.651,0.489-2.649C256.93,244.248,254.572,244.342,252.211,244.307z"/>
	<path d="M278.833,210.833L276,208.667L191.333,214l-6.667,2.667l-23,32.666l-0.667,6h5l6.333,1.167l8.833,3.833L220,259.167
		c0.333-4.333,3.833-10,3.833-10l-48.5,1.666L178,246l49-1.833l8.167-3.167l5.833-0.333l8.667,2.666l10.833-0.5L260.333,248
		l-5.167,0.333c1.333,0,8.667,9,8.667,9l11-1.666l5-5.667l0.167-8.167L278.833,210.833z M260.334,227.338
		c0.31,0.877,0.37,1.789,0.316,2.711c-0.086,1.479,0.248,2.913,0.431,4.365c-0.163,0.307-0.473,0.303-0.735,0.293
		c-2.042-0.08-4.067,0.213-6.103,0.283c-4.669,0.162-9.334,0.422-14,0.658c-1.954,0.1-3.913,0.149-5.865,0.217
		c-2.714,0.093-5.427,0.257-8.142,0.332c-4.989,0.14-9.974,0.436-14.961,0.66c-2.195,0.099-4.395,0.156-6.586,0.209
		c-3.316,0.08-6.625,0.358-9.945,0.31c-3.119-0.048-6.228,0.358-9.349,0.231c-0.428-0.019-0.879,0.106-1.434-0.248
		c1.356-3.799,2.724-7.627,4.119-11.53c1.314,0.337,2.41-0.245,3.557-0.624c0.559-0.186,1.123-0.396,1.743-0.341
		c1.61,0.145,3.112-0.597,4.712-0.605c0.295-0.002,0.623-0.124,0.938-0.12c2.162,0.03,4.266-0.498,6.407-0.658
		c1.394-0.104,2.793-0.178,4.184-0.231c3.312-0.133,6.613-0.431,9.924-0.565c3.308-0.138,6.606-0.492,9.914-0.64
		c1.756-0.078,3.508-0.205,5.262-0.304c3.465-0.195,6.928-0.438,10.392-0.667c1.434-0.095,2.868-0.103,4.305-0.236
		c2.542-0.235,5.103-0.394,7.653-0.364c1.279,0.015,2.593,0.224,3.965,0.401c0.046,0.332,0.132,0.515,0.08,0.635
		c-0.597,1.38-0.292,2.917-0.769,4.312C260.169,226.335,260.152,226.823,260.334,227.338z M262.503,215.037
		c-4.951,0.208-9.901,0.43-14.852,0.65c-2.076,0.094-4.153,0.127-6.23,0.229c-5.109,0.251-10.225,0.358-15.337,0.56
		c-4.752,0.188-9.501,0.428-14.252,0.631c-2.755,0.119-5.511,0.269-8.268,0.301c-1.882,0.021-3.75,0.232-5.629,0.263
		c-0.772,0.013-1.32-0.224-1.577-1.073c0.254-0.808,0.787-1.048,1.561-1.074c6.51-0.228,13.021-0.443,19.528-0.741
		c5.869-0.269,11.738-0.499,17.609-0.714c6.789-0.246,13.574-0.613,20.362-0.875c2.356-0.092,4.713-0.164,7.069-0.278
		c1.093-0.054,1.711,0.362,1.717,1.046C264.21,214.648,263.634,214.989,262.503,215.037z"/>
</g>
</svg>
