<?xml version="1.0" encoding="utf-8"?>
<!-- Generator: Adobe Illustrator 16.0.0, SVG Export Plug-In . SVG Version: 6.00 Build 0)  -->
<!DOCTYPE svg PUBLIC "-//W3C//DTD SVG 1.1//EN" "http://www.w3.org/Graphics/SVG/1.1/DTD/svg11.dtd">
<svg version="1.1" id="_x32_9BnNcwyfddZGFzVQ546G5C4bB1pzTbyV7Subd_x5F_Aecs_xA0_Image_1_"
	 xmlns="http://www.w3.org/2000/svg" xmlns:xlink="http://www.w3.org/1999/xlink" x="0px" y="0px" width="640px" height="960px"
	 viewBox="0 0 640 960" enable-background="new 0 0 640 960" xml:space="preserve">
<g>
	<path fill-rule="evenodd" clip-rule="evenodd" d="M532.107,111.08c0.446,2.336,1.648,5.385,3.914,2.261
		c15.229-20.999,31.615-41.152,45.943-62.805c1.813-2.741,3.556-5.547,5.088-8.451c1.187-2.249,2.984-3.712,5.309-3.958
		c2.126-0.225,3.013-1.183,4.118-2.854c1.172-1.771,2.792-4.18,5.64-2.753c2.76,1.383,3.771,4.094,2.792,6.774
		c-1.829,5.009-2.046,10.586-2.226,15.401c-0.242,6.503-1.615,12.616-2.786,18.791c-3.618,19.082-13.321,34.628-28.581,46.657
		c-1.677,1.322-3.504,2.632-5.689,2.897c-7.121,0.864-9.619,6.239-11.595,11.939c-4.143,11.953-7.266,24.212-10.354,36.465
		c-6.334,25.129-18.726,47.063-34.766,67.148c-4.64,5.809-8.839,11.96-12.267,18.55c-7.066,13.586-17.445,24.541-27.932,35.361
		c-8.11,8.368-11.301,18.95-13.468,29.696c-0.981,4.861,1.271,10.37,2.03,15.589c2.27,15.575,4.634,31.146,2.704,46.963
		c-0.724,5.937-3.924,10.8-6.961,15.697c-14.863,23.971-31.583,46.824-44.162,72.158c-3.862,7.777-7.989,15.459-11.092,23.654
		c-3.666,9.685-10.271,17.64-17.197,25.176c-8.308,9.039-13.087,19.491-15.049,31.601c-2.191,13.528-8.012,26.002-12.573,38.82
		c-7.995,22.469-16.768,44.618-28.991,65.211c-1.685,2.838-3.293,6.038-5.776,8.02c-5.603,4.469-7.63,10.518-9.158,17.009
		c-2.797,11.88-9.481,21.896-18.476,29.299c-8.933,7.352-13.664,16.058-16.327,26.766c-3.328,13.381-7.936,26.423-10.75,39.953
		c-0.463,2.229-0.868,4.104,0.989,5.929c1.354,1.328,1.795,3.171,1.532,5.08c-0.848,6.138,2.762,9.026,7.803,11.088
		c9.29,3.797,19.072,5.949,28.641,8.814c5.188,1.554,10.359,3.09,14.916,6.303c5.076,3.579,5.138,8.688,4.541,13.856
		c-0.514,4.453-4.266,5.986-8.038,6.941c-9.682,2.451-19.417,3.515-29.473,2.246c-16.422-2.073-32.895-2.954-49.621,1.344
		c2.316,2.955,3.446,6.154,3.388,9.942c-0.07,4.525,3.208,7.031,6.898,8.878c12.816,6.414,26.121,11.576,39.91,15.495
		c5.276,1.499,10.553,3.194,14.001,7.835c7.852,10.566,1.529,23.567-12.775,26.071c-13.673,2.395-27.207,1.712-40.837-1.293
		c-12.837-2.829-25.935-4.477-38.918-6.641c-5.685-0.948-11.161-2.606-16.577-4.575c-12.76-4.639-15.625-14.738-11.356-25.968
		c2.914-7.665,6.106-15.215,8.527-23.073c1.073-3.481,2.608-6.858,6.48-8.157c1.766-0.592,1.889-2.186,2.396-3.459
		c6.809-17.104,10.04-34.989,12.268-53.201c1.297-10.604,0.181-21.224,1.709-31.81c1.761-12.202,7.396-22.426,14.186-32.283
		c2.811-4.08,5.543-8.215,8.246-12.367c0.62-0.953,1.363-2.072,1.388-3.13c0.238-10.342,5.61-18.613,11.402-26.356
		c6.968-9.313,7.818-19.92,8.991-30.779c1.874-17.343,2.197-34.778,3.703-52.138c0.647-7.455,0.631-14.957,0.99-22.425
		c0.757-15.776,0.762-31.617,2.339-47.328c1.977-19.693,7.034-38.28,22.627-52.274c7.308-6.559,14.171-13.611,21.408-20.252
		c2.469-2.266,1.637-3.131-0.778-4.374c-16.134-8.301-32.135-16.867-48.383-24.937c-5.408-2.687-11.519-3.9-16.907-6.813
		c-0.917-0.495-2.159-0.723-2.689,0.32c-2.117,4.162-4.786,1.963-7.503,0.898c-8.397-3.29-14.605-9.67-21.386-15.189
		c-14.196-11.555-31.169-18.494-46.412-28.296c-3.417-2.197-6.991-4.151-10.802-6.4c-0.697,3.054,0.985,4.917,1.684,7
		c3.642,10.86,8.65,21.283,10.477,32.723c1.813,11.36,2.086,22.725,0.864,34.202c-0.911,8.553-2.254,16.936-5.445,24.941
		c-1.294,3.247-3.081,6.221-5.594,8.735c-5.614,5.616-12.172,5.06-16.705-1.502c-5.098-7.38-7.192-15.92-8.439-24.519
		c-2.618-18.068-0.673-35.901,3.705-53.585c1.272-5.138,5.735-8.455,6.5-13.75c0.846-5.846,1.977-11.662,3.286-17.422
		c0.443-1.953-0.765-2.458-1.773-3.042c-9.238-5.345-18.528-10.6-28.257-16.139c-2.064,9.507,0.014,17.949,2.903,26.089
		c6.897,19.435,7.799,39.471,6.377,59.7c-0.514,7.316-1.42,14.729-4.685,21.583c-1.507,3.165-3.313,6.264-6.967,6.139
		c-3.508-0.12-5.743-3.081-7.225-6.158c-3.542-7.356-3.799-15.409-3.883-23.265c-0.224-20.893,1.131-41.671,7.297-61.841
		c2.071-6.773,0.921-13.289-1.285-19.812c-0.663-1.961-1.928-2.852-3.516-3.837c-15.144-9.4-30.261-18.854-45.411-28.228
		c-16.765-10.374-34.086-19.725-50.924-29.926C2.615,283.324,1.764,283.235,1,283c0-1,0-2,0-3
		c16.103,9.181,32.19,18.388,48.335,27.493c1.356,0.766,2.983,3.373,4.687-0.004c1.434-2.841-0.615-3.312-2.324-4.294
		C34.789,293.481,17.897,283.736,1,274c0-0.667,0-1.333,0-2c22.087,12.108,44.141,24.278,66.277,36.298
		c10.088,5.478,6.976,4.938,13.54-4.504c2.306-3.316,1.989-4.991-1.659-7.146c-16.506-9.747-32.728-19.975-49.228-29.733
		C20.316,261.229,11.152,254.764,1,250c0-0.667,0-1.333,0-2c9.442,4.324,17.92,10.322,26.809,15.595
		c18.141,10.76,36.084,21.852,54.135,32.764c1.119,0.677,2.306,1.993,3.817,0.436c1.627-1.677,2.938-0.382,4.342,0.531
		c20.765,13.508,41.652,26.829,62.291,40.525c23.939,15.886,49.873,27.396,77.034,36.442c13.194,4.395,25.221,11.178,36.495,19.285
		c0.781,0.562,2.036,1.793,1.87,2.142c-2.467,5.185,2.269,5.122,4.717,6.393c16.551,8.591,33.2,16.994,49.733,25.618
		c3.314,1.729,4.757,1.307,5.913-2.41c2.945-9.469,4.768-19.157,5.784-28.957c3.07-29.589,11.081-57.504,27.518-82.58
		c6.674-10.183,15.926-17.744,26.449-23.673c2.955-1.665,5.198-3.34,6.453-6.694c1.374-3.675,3.32-7.23,6.52-9.79
		c3.163-2.53,2.208-4.894-0.092-7.354c-3.859-4.131-7.286-8.759-11.571-12.378c-8.187-6.916-11.857-16.066-13.991-26.013
		c-2.479-11.56-1.113-22.86,7.26-31.551c9.546-9.907,21.631-15.944,35.368-18.351c10.38-1.817,20.017-0.159,28.856,5.683
		c4.261,2.815,6.582,7.365,10.014,11.326c9.554-16.753,20.938-32.106,32.2-47.534c6.673-9.143,12.434-19.037,21.208-26.506
		c-0.538,1.006-0.934,2.127-1.635,3.002c-17.785,22.193-33.692,45.713-49.167,69.539c-1.261,1.941-1.722,3.823-0.14,5.871
		c2.594,3.356,4.092,7.017,3.625,11.446c-0.26,2.459,1.981,3.845,3.726,4.918c1.643,1.011,2.018-0.897,2.601-2.037
		c11.562-22.605,27.273-42.466,41.784-63.122c6.922-9.854,13.807-19.735,20.604-29.675c1.171-1.713,2.552-3.803,0.646-5.875
		c-2.406-2.616-3.99,0.334-5.438,1.322c-5.814,3.967-9.908,9.806-15.098,14.476c-0.9,0.811-1.51,2.539-4.057,1.56
		c2.565-2.364,5.109-4.132,6.903-6.475c4.805-6.272,12.513-10.368,14.14-19.077c0.486-2.603,0.66-5.434,2.454-7.673l-0.16-0.197
		c0.497,3.681-0.722,7.025-1.938,10.396c-0.386,1.068-1.981,2.442-0.296,3.368c1.507,0.828,2.005-1.241,3.031-1.904L532.107,111.08z
		 M445.61,345.688c3.326-10.85,6.498-20.3,9.099-29.904c3.098-11.439,8.516-21.148,17.149-29.541
		c8.521-8.283,16.327-17.459,22.021-28.039c4.165-7.738,8.838-15.102,14.312-21.925c13.228-16.485,23.862-34.474,30.386-54.574
		c4.756-14.653,8.141-29.747,12.565-44.516c2.196-7.327,4.638-14.955,14.21-16.123c1.371-0.167,2.782-1.033,3.925-1.904
		c9.883-7.536,17.657-16.803,22.916-28.128c4.547-9.791,6.208-20.379,8.619-30.76c0.339-1.46,0.532-2.854-1.477-3.621
		c-2.4-0.917-2.532,1.176-3.002,2.218c-2.896,6.419-5.501,12.969-8.416,19.377c-1.071,2.355-2.309,4.766-4.665,6.289
		c4.339-9.046,8.338-18.166,11.817-27.518c0.371-0.998,1.417-2.415,2.228-2.469c5.186-0.349,4.765-4.017,4.671-7.468
		c-0.042-1.569,0.838-3.901-1.096-4.453c-1.906-0.544-2.362,1.866-3.201,3.184c-6.47,10.17-10.934,21.485-17.907,31.367
		c-0.64,0.906-0.931,2.324-2.936,2.038c7.247-10.257,12.097-21.626,18.248-32.273c1.295-2.24,2.188-5.339,5.047-5.753
		c2.482-0.359,3.736-1.372,3.751-3.56c0.012-1.605-0.731-3.339-2.755-3.569c-2.526-0.289-3.351,1.687-4.232,3.497
		c-4.058,8.331-9.597,15.733-14.783,23.346c-3.234,4.748-6.814,9.26-10.239,13.877c0.422-2.445,1.707-4.283,2.979-6.132
		c5.986-8.698,12.005-17.376,17.88-26.149c0.443-0.663,1.923-1.966,0.375-2.922c-1.094-0.676-2.159,0.305-2.877,1.105
		c-0.638,0.713-0.958,1.707-1.439,2.564c-4.29,7.647-9.317,14.819-14.466,21.89c-11.087,15.225-22.874,29.97-33.4,45.567
		c-16.627,24.64-34.06,48.699-51.132,73.019c-7.313,10.419-14.651,20.928-19.438,32.74c-4.905,12.104-12.309,22.105-21.761,30.871
		c-12.074,11.196-23.783,22.748-33.547,36.102c-2.789,3.815-5.623,7.599-8.886,12.003c-0.217-2.575,1.709-3.562,1.197-5.503
		c-13.62,4.927-23.298,13.741-28.661,27.07c-5.644,14.026-3.385,23.282,7.948,33.251c9.397,8.266,20.715,12.666,32.604,15.63
		c4.7,1.172,9.41,2.929,14.567,1.63c13.785-3.472,18.509-17.621,17.306-31.72C448.849,338.527,449.943,342.777,445.61,345.688z
		 M290.572,466.84c-4.984,4.788-9.846,9.271-13.799,14.635c-8.819,11.968-12.243,25.979-13.564,40.261
		c-1.789,19.327-2.251,38.778-3.19,58.182c-0.754,15.588-1.046,31.208-2.261,46.758c-0.333,4.261,1.066,5.206,4.323,6.591
		c19.567,8.316,40.35,11.644,61.061,15.318c2.667,0.473,3.834-0.912,4.949-3.062c14.274-27.521,24.352-56.702,33.836-86.088
		c3.116-9.654,3.053-20.47,9.371-28.913c3.524-4.71,2.773-6.241-2.085-9.296c-21.649-13.611-42.588-28.348-64.702-41.233
		C298.884,476.714,293.357,473.529,290.572,466.84z M411.006,284.611c-0.347-0.161-0.653-0.442-0.899-0.397
		c-20.159,3.661-35.946,14.511-47.167,31.154c-16.438,24.38-23.979,52.005-27.008,81.051c-1.107,10.615-2.607,21.258-6.762,31.223
		c-1.054,2.525-0.349,3.411,1.771,4.359c25.237,11.294,47.922,27.04,71.482,41.248c2.669,1.609,3.086,0.739,4.164-1.228
		c3.096-5.647,6.376-11.192,9.513-16.817c11.112-19.933,24.784-38.248,36.467-57.818c3.051-5.109,5.001-10.396,5.762-16.537
		c0.858-6.938-0.164-13.625-0.413-20.398c-0.399-10.864-2.262-21.579-4.248-33.016c-1.044,2.698-0.492,4.62-0.344,6.554
		c0.697,9.062-0.36,17.786-5.298,25.687c-4.423,7.075-11.09,11.074-19.153,10.119c-14.915-1.769-28.896-6.894-41.073-15.899
		c-9.924-7.34-16.415-16.919-13.422-29.877c4.096-17.729,15.06-29.818,32.319-35.955
		C408.586,287.391,410.573,287.039,411.006,284.611z M299.47,679.645c7.862-6.116,15.278-12.709,21.068-20.912
		c5.033-7.133,4.936-7.171-3.417-8.875c-19.319-3.941-38.819-7.22-57.041-15.249c-1.906-0.84-2.882-1.08-3.138,1.633
		c-0.839,8.886-1.756,17.772-3.003,26.608c-1.219,8.64-3.012,17.113-8.013,24.625c-6.861,10.305-12.831,21.255-20.256,31.12
		c-11.211,14.897-15.362,31.486-14.666,49.692c0.332,8.672-1.023,17.229-2.349,25.709c-2.413,15.431-5.949,30.637-12.298,45.029
		c-1.21,2.742-0.178,4.46,2.418,5.464c3.978,1.539,7.916,3.21,11.971,4.513c8.267,2.657,19.238-2.713,22.363-10.705
		c12.861-32.886,25.156-65.98,36.925-99.273c3.123-8.835,5.752-18.085,13.833-24.134c4.965-3.717,9.072-8.259,12.861-13.136
		c6.211-7.992,10.454-16.815,12.118-27.304C305.446,676.336,303.075,678.984,299.47,679.645z M376,218.974
		c1.718,11.541,3.826,23.054,13.298,32.25c8.452,8.207,19.14,15.667,17.779,29.952c-0.089,0.924,0.475,1.741,1.499,1.341
		c2.296-0.897,4.779-0.188,6.903-2.907c8.81-11.279,18.427-21.875,29.285-31.293c8.08-7.008,14.993-15.03,20.123-24.498
		c1.659-3.062,2.791-5.817-1.411-7.95c-1.167-0.592-2.641-1.757-2.483-3.486c0.79-8.655-5.067-14.312-9.309-20.651
		c-6.849-10.24-17.474-12.921-28.668-12.388c-12.457,0.594-23.305,6.169-33.49,13.375C380.414,199.165,376.934,208.032,376,218.974z
		 M268.718,907.453c8.042-0.375,16.173-0.4,23.823-3.603c5.027-2.104,7.291-5.972,7.455-11.249
		c0.266-8.564-4.095-13.646-14.707-16.459c-13.083-3.468-25.518-8.57-37.803-14.144c-6.718-3.048-12.305-6.753-11.53-15.376
		c0.121-1.344-0.526-2.785-1.647-3.338c-1.275-0.629-1.909,0.966-2.747,1.676c-11.405,9.654-28.766,8.419-37.669-2.788
		c-0.904-1.138-1.546-1.164-2.265-0.226c-0.898,1.173-1.88,2.421-2.303,3.797c-2.509,8.153-5.565,16.065-8.804,23.973
		c-4.93,12.038-0.759,19.979,11.552,24.311c3.232,1.137,6.537,2.098,9.854,2.964c11.5,3.003,23.378,3.817,35.04,5.915
		C247.485,904.798,257.81,908.164,268.718,907.453z M314.418,445.016c-0.862,0.638-1.835,1.242-2.673,1.996
		c-4.572,4.116-9.161,8.216-13.65,12.42c-6.707,6.281-6.305,10.179,1.508,15.473c0.954,0.646,2.043,1.088,3.035,1.685
		c7.075,4.251,14.245,8.356,21.188,12.813c16.234,10.422,32.356,21.019,48.53,31.533c1.839,1.195,3.528,3.174,5.824,0.43
		c7.219-8.629,14.501-17.182,18.699-27.854c1.038-2.64,0.566-4.045-2.078-5.301c-26.392-12.527-51.048-28.294-77.12-41.425
		C316.645,446.265,315.64,445.681,314.418,445.016z M235.947,836.75c1.113,0.077,1.97,0.337,2.723,0.159
		c15.414-3.657,30.9-2.308,46.335-0.453c9.54,1.146,18.814,0.1,28.014-2.117c3.13-0.754,6.668-1.606,6.956-5.897
		c0.317-4.733,0.239-9.219-4.625-12.153c-5.286-3.189-11.182-4.506-16.941-6.324c-9.657-3.049-19.765-4.721-28.797-9.698
		c-3.9-2.148-5.783-5.116-5.665-9.572c0.047-1.786,0.851-3.973-1.73-5.43c-1.076,6.094-3.012,11.393-10.337,11.859
		c-1.07,0.068-1.406,1.31-1.754,2.225C245.421,811.729,240.733,824.115,235.947,836.75z M151.94,428.23
		c0.539-9.187-0.771-18.308-2.971-27.314c-0.602-2.466-0.794-6.605-2.971-6.649c-2.755-0.055-3.06,4.034-3.952,6.521
		c-5.439,15.161-3.346,30.616-1.526,46.029c0.517,4.376,0.902,8.814,2.523,12.983c0.287,0.736,0.726,1.741,1.331,1.955
		c1.233,0.436,1.549-0.954,2.008-1.697c0.678-1.099,1.176-2.33,1.602-3.557C151.152,447.383,152.465,437.994,151.94,428.23z
		 M154.033,343.423c-3.364,1.573-2.791,5.289-4.289,7.878c-1.121,1.935,0.236,2.713,1.636,3.396
		c12.045,5.873,24.044,11.848,36.183,17.521c3.896,1.82,3.085-2.701,4.32-4.213c2.651-3.246,2.18-5.627-2.283-7.601
		c-11.421-5.05-22.577-10.699-33.838-16.111C155.181,344.014,154.611,343.71,154.033,343.423z M147.065,355.411
		c-1.604,0.171-1.47,1.1-1.163,2.152c0.768,2.63,2.172,4.747,4.597,6.167c8.403,4.918,16.76,9.914,25.198,14.77
		c1.27,0.731,2.925,3.137,4.302-0.053c0.868-2.01,1.81-3.676-1.118-5.249c-10.004-5.374-19.843-11.056-29.746-16.62
		C148.42,356.177,147.706,355.772,147.065,355.411z M251.944,794.924c4.433-0.587,6.995-2.138,7.2-6.524
		c0.098-2.094,0.919-4.153,1.415-6.229c2.103-8.793,4.207-17.587,6.311-26.38c-0.197-0.055-0.394-0.109-0.59-0.163
		C261.574,768.527,256.868,781.428,251.944,794.924z M142.424,357.778c2.19,8.699,4.475,17.376,6.496,26.114
		c0.448,1.935,0.753,2.972,3.046,2.69c2.769-0.339,2.239-2.407,1.761-3.681C150.51,374.322,147.889,365.469,142.424,357.778z
		 M236.71,697.495c4.901-8.076,11.553-15.185,12.928-25.024C244.725,680.515,238.083,687.638,236.71,697.495z M395.404,285.722
		c9.719-1.981,10.649-3.001,9.585-10.336c-0.116-0.801,0.021-1.915-0.945-2.01c-0.625-0.062-1.49,0.571-1.976,1.13
		C399.188,277.819,396.678,281.371,395.404,285.722z M135.664,399.928c-3.983,4.416-5.612,21.725-2.248,27.082
		C131.869,417.254,135.669,409.169,135.664,399.928z M107.694,362.581c-1.494,3.229-2.621,6.531-2.418,10.171
		C114.779,371.029,107.35,366.037,107.694,362.581z M102.572,410.101c-0.433-4.767,2.906-9.294,0.979-14.779
		C100.655,400.479,103.148,405.421,102.572,410.101z"/>
	<path fill-rule="evenodd" clip-rule="evenodd" d="M531.081,99.148c-0.745-2.835,2.451-5.654-0.343-9.072
		c-6.821,10.103-11.731,21.19-19.789,30.132c0.682-4.088,4.038-6.573,5.961-9.92c3.657-6.365,7.467-12.645,11.036-19.058
		c0.978-1.755,2.21-2.753,4.063-3.172l-0.08-0.123c1.184,3.812,2.49,7.634-1.009,11.016L531.081,99.148z"/>
	<path fill-rule="evenodd" clip-rule="evenodd" d="M532.01,88.059c3.132-1.075,4.598-0.275,4.953,2.987
		c0.285,2.612,0.086,5.183-0.869,7.748c-1.5,4.032-2.674,8.185-3.986,12.286l-0.389-0.269c-0.306-5.532,2.821-10.204,3.879-15.403
		c0.724-3.557,0.746-6.543-3.668-7.473L532.01,88.059z"/>
	<path fill-rule="evenodd" clip-rule="evenodd" d="M433.743,243.378c0.425,7.983-0.887,8.954-7.065,6.416
		c-8.17-3.356-12.854-10.164-11.704-16.98c0.521-3.083,2.2-5.176,5.293-5.788c2.182-0.433,4.476-0.619,6.222,2.44
		c-3.752-0.605-7.36-1.66-8.997,1.804c-1.614,3.416-0.927,7.052,1.479,10.247c2.058,2.73,4.603,4.705,7.731,6.044
		C431.919,249.793,432.215,249.68,433.743,243.378z"/>
</g>
</svg>
