<?xml version="1.0" encoding="utf-8"?>
<!-- Generator: Adobe Illustrator 16.2.1, SVG Export Plug-In . SVG Version: 6.00 Build 0)  -->
<!DOCTYPE svg PUBLIC "-//W3C//DTD SVG 1.1//EN" "http://www.w3.org/Graphics/SVG/1.1/DTD/svg11.dtd">
<svg version="1.1" id="Layer_1" xmlns="http://www.w3.org/2000/svg" xmlns:xlink="http://www.w3.org/1999/xlink" x="0px" y="0px"
	 width="590px" height="319px" viewBox="0 0 590 319" enable-background="new 0 0 590 319" xml:space="preserve">
<circle cx="80.451" cy="82.851" r="63.715"/>
<g>
	<path fill="#FFFFFF" d="M68.751,91.07c0.935,6.882,3.313,9.855,7.901,9.855s7.646-3.483,7.646-8.581
		c0-3.059-1.104-5.438-3.229-6.797c-1.529-0.935-3.229-1.274-6.627-1.274H71.81l1.784-9.091h3.483c3.993,0,5.777-0.51,7.562-2.209
		c1.444-1.359,2.294-3.483,2.294-5.947c0-4.078-2.294-6.542-6.032-6.542c-3.398,0-5.522,2.209-7.307,7.562l-10.025-3.398
		c2.804-8.666,9.516-13.339,19.201-13.339c10.11,0,16.228,5.692,16.228,15.038c0,7.137-3.398,11.64-10.11,13.509
		c4.928,1.954,7.477,6.287,7.477,12.489c0,11.13-7.137,17.672-19.201,17.672c-6.797,0-12.149-2.209-15.123-6.287
		c-2.039-2.804-2.549-4.248-3.568-9.771L68.751,91.07z"/>
</g>
<g>
	<path fill-rule="evenodd" clip-rule="evenodd" d="M163.121,28.684c3.848,1.782,7.319,4.215,10.949,6.37
		c7.402,4.397,14.731,8.918,22.093,13.383c0.336,0.204,0.938,0.577,1.03,0.484c1.533-1.531,2.455,0.064,3.456,0.703
		c7.841,5.002,15.778,9.866,23.436,15.135c10.252,7.055,21.518,11.812,33.21,15.794c5.038,1.716,9.64,4.406,13.945,7.555
		c0.312,0.228,0.796,0.754,0.724,0.89c-1.086,2.063,0.865,2.018,1.791,2.5c5.621,2.925,11.304,5.734,16.911,8.683
		c1.461,0.769,1.972,0.853,2.239-1.069c1.108-7.985,2.686-15.918,5.787-23.368c3.579-8.599,8.699-16.302,15.439-22.812
		c2.799-2.702,6.458-3.675,10.109-4.726c2.794-0.803,5.783-1.032,8.333-2.689c2.689-1.749,4.234-4.233,5.165-7.215
		c1.041-3.337,1.856-6.743,2.376-10.18c1.017-6.728,7.258-11.02,13.177-12.555c7.606-1.972,20.932,6.009,22.529,14.844
		c0.246,1.365,0.44,2.694,0.063,3.989c-1.043,3.595-1.82,7.287-4.43,10.257c-0.952,1.082-0.707,2.7-0.678,4.127
		c0.022,1.155,0.019,2.312-0.003,3.467c-0.021,1.149-0.775,2.35-1.705,2.013c-2.537-0.919-3.237,1.251-4.61,2.287
		c-0.375,0.283-0.643,0.743-1.184,0.675c-1.062-0.134-1.47,0.55-1.68,1.376c-0.648,2.539-3.143,2.925-5.448,1.885
		c-1.147-0.518-2.151-1.369-3.191-2.109c-1.207-0.86-2.231-1.141-3.167,0.428c-0.548,0.92-1.228,1.877-2.085,2.479
		c-3.011,2.112-3.339,4.582-2.329,8.086c2.136,7.415,0.643,14.737-2.115,21.729c-2.408,6.111-5.164,12.093-7.955,18.043
		c-1.44,3.071-4.198,5.274-6.006,8.133c-0.43,0.679-0.803,1.402-1.298,2.029c-0.989,1.255-1.336,2.317,0.491,3.144
		c1.049,0.476,0.76,1.162,0.041,1.698c-3.62,2.693-3.757,6.781-4.242,10.689c-0.593,4.783-0.792,9.598-0.809,14.415
		c-0.008,2.1,0.105,4.223,0.428,6.295c0.265,1.696,1.696,2.895,2.75,4.095c2.938,3.345,4.003,7.388,4.9,11.522
		c0.442,2.035-0.876,4.088-0.138,6.208c0.13,0.369-0.546,1.016-1.087,1.034c-2.54,0.084-1.547,1.885-1.436,3.073
		c0.178,1.876,0.561,3.728,0.657,5.622c0.058,1.113-0.275,2.139-0.456,3.194c-0.149,0.876-0.665,1.71-1.711,1.73
		c-0.949,0.019-1.686-0.418-1.96-1.441c-0.099-0.369-0.326-0.706-0.613-1.306c-0.312,1.467,0.113,2.821-0.557,4.018
		c-0.507,0.904-0.917,1.79-2.163,1.844c-1.277,0.054-1.743-0.834-2.243-1.73c-0.232-0.418,0.125-1.225-1.045-0.92
		c-2.123,0.552-3.459-0.373-3.885-2.491c-0.159-0.793-0.716-1.496-0.375-2.419c-2.396,0.877-3.279,0.388-3.747-1.878
		c-0.247-1.191-0.401-2.375-0.44-3.599c-0.039-1.134,0.021-2.339-1.37-3.067c-0.821-0.43-0.833-1.694-0.928-2.567
		c-0.498-4.562-1.593-9.083-1.307-13.701c0.222-3.559,0.703-7.102,1.091-10.871c-1.992,2.623-2.628,5.58-3.273,8.503
		c-1.813,8.21-5.724,15.6-9.037,23.218c-2.494,5.734-4.933,11.505-8.02,16.959c-1.575,2.783-3.551,5.264-6.107,7.23
		c-0.381,0.292-0.574,0.55-0.72,1.072c-1.139,4.115-1.982,8.244-5.338,11.516c-2.002,1.955-3.646,4.293-6.027,5.906
		c-0.352,0.237-0.621,0.724-0.75,1.149c-2.777,9.112-6.803,17.768-9.76,26.814c-0.971,2.972,1.556,7.792,5.438,7.881
		c5.437,0.125,10.75,1.483,15.825,3.555c2.678,1.095,3.672,2.75,3.301,5.333c-0.356,2.487-1.641,3.607-4.528,4.061
		c-6.948,1.091-13.944,1.634-20.958,2.087c-2.928,0.188-5.774,1.109-8.631,1.863c-1.561,0.413-0.839,1.602-1.333,2.336
		c-0.498,0.736,0.564,0.946,0.987,1.162c5.854,2.993,11.167,7.038,17.609,8.906c2.329,0.676,4.423,1.983,6.195,3.696
		c1.773,1.715,2.1,5.097,1.016,7.963c-0.984,2.601-3.141,3.107-5.389,2.934c-5.114-0.397-10.224-0.867-15.323-1.482
		c-6.41-0.775-12.769-1.804-19.106-2.98c-3.167-0.589-6.29-1.423-8.946-3.427c-1.712-1.292-2.462-2.99-2.266-5.109
		c0.423-4.544,2.39-8.64,3.797-12.895c0.182-0.554,0.558-1.155,1.02-1.489c3.956-2.848,4.709-7.326,5.727-11.557
		c1.477-6.145,2.284-12.434,2.881-18.718c0.979-10.296,5.059-19.235,11.107-27.468c2.67-3.635,5.594-7.139,7.622-11.192
		c2.474-4.948,2.969-10.43,3.716-15.812c0.848-6.111,0.908-12.281,1.29-18.428c0.397-6.404,1.162-12.783,1.869-19.165
		c0.607-5.497,1.187-10.968,3.154-16.169c2.872-7.594,7.608-13.888,13.52-19.404c3.016-2.814,6.531-5.073,9.076-8.432
		c1.194-1.579,0.907-2.073-0.761-2.908c-6.438-3.221-12.763-6.669-19.184-9.927c-2.327-1.18-4.966-1.653-7.27-2.937
		c-0.441-0.246-0.929-0.295-1.22,0.267c-0.679,1.316-1.599,0.781-2.575,0.41c-3.573-1.358-6.217-4.042-9.086-6.377
		c-5.794-4.716-12.721-7.547-18.938-11.553c-1.396-0.898-2.858-1.69-4.404-2.598c-0.318,1.224,0.391,1.979,0.673,2.829
		c1.471,4.437,3.541,8.683,4.268,13.355c0.722,4.633,0.866,9.267,0.36,13.951c-0.376,3.488-0.917,6.907-2.219,10.171
		c-0.528,1.324-1.25,2.542-2.279,3.567c-2.318,2.308-4.949,2.085-6.815-0.604c-2.088-3.008-2.942-6.492-3.448-9.999
		c-1.066-7.371-0.282-14.646,1.505-21.863c0.505-2.035,2.259-3.338,2.581-5.418c0.379-2.448,0.897-4.876,1.403-7.303
		c0.099-0.477,0.036-0.738-0.373-1.003c-3.815-2.487-7.888-4.496-11.846-6.743c-1.114,4.428,0.251,8.372,1.573,12.107
		c2.646,7.48,2.57,15.124,2.18,22.807c-0.161,3.184-0.57,6.438-2.168,9.347c-1.392,2.532-2.965,2.668-4.866,0.479
		c-1.263-1.454-1.573-3.285-1.831-5.042c-0.944-6.427-0.123-12.845,0.226-19.275c0.255-4.698,2.159-9,2.742-13.605
		c0.414-3.264-0.845-6.515-3.562-8.224c-5.755-3.619-11.555-7.174-17.326-10.757c-6.833-4.243-13.898-8.058-20.771-12.212
		c-0.271-0.164-0.618-0.2-0.93-0.296c0-0.408,0-0.816,0-1.224c6.571,3.745,13.137,7.501,19.726,11.217
		c0.556,0.314,1.214,1.376,1.908-0.005c0.586-1.166-0.265-1.353-0.954-1.749c-6.896-3.965-13.788-7.939-20.679-11.911
		c0-0.272,0-0.544,0-0.816c8.832,4.846,17.644,9.731,26.505,14.521c3.958,2.14,3.938,2.014,6.259-1.888
		c0.768-1.29,0.452-1.76-0.7-2.45c-8.442-5.064-16.823-10.234-25.274-15.285c-2.233-1.335-4.315-2.955-6.791-3.873
		C163.121,29.228,163.121,28.956,163.121,28.684z M335.701,81.814c2.976-1.11,4.891-2.999,5.586-5.698
		c2.082-8.069,0.809-15.657-4.13-22.425c-1.828-2.503-4.203-4.147-7.751-3.862c-6.984,0.56-12.16,3.977-16.277,9.358
		c-2.462,3.218-2.612,6.639-0.76,10.188c0.649,1.243,1.48,3.206,2.506,3.08c1.079-0.132,1.165-2.293,1.698-3.565
		c0.677-1.621,0.004-3.421,0.894-5.563c0.635,3.197,0.177,5.684-0.938,8.07c-2.935,6.285-3.587,13.044-4.059,19.818
		c-0.215,3.106-0.498,6.206-1.02,9.259c-1.004,5.88-2.774,11.583-2.029,17.75c0.624,5.161-0.204,10.474,0.65,15.639
		c1.34,8.095,1.695,16.249,1.954,24.417c0.014,0.473,0.061,0.982-0.084,1.416c-1.58,4.731-2.294,9.524-1.571,14.526
		c0.548,3.796,0.845,7.629,1.252,11.445c0.094,0.862,0.408,1.815,1.374,1.567c0.763-0.193,1.445-0.969,1.255-2.052
		c-0.347-1.979-0.152-4.01-0.889-5.975c-0.374-1-0.064-2.256-0.064-3.397c0.215-0.016,0.43-0.031,0.643-0.046
		c-0.175,2.503,0.864,4.78,0.953,7.238c0.085,2.363,0.294,4.722,0.85,7.024c0.248,1.027,0.948,1.914,2.058,1.91
		c1.246-0.004,1.573-1.375,1.444-2.09c-0.479-2.659-0.192-5.383-0.874-8.02c-0.338-1.309-0.617-2.759,0.436-4.047
		c0.467,4.381,0.945,8.664,1.37,12.951c0.146,1.482,0.074,3.49,1.912,3.438c1.785-0.047,1.735-2.021,1.78-3.533
		c0.147-4.94-0.706-9.857-0.362-14.81c0.513,0.096,0.673,0.481,0.714,0.887c0.168,1.677,0.305,3.358,0.456,5.036
		c0.242,2.678,0.475,5.359,1.244,7.955c0.219,0.741,0.585,1.517,1.439,1.443c0.742-0.063,0.844-0.82,1.048-1.517
		c0.596-2.037,0.343-4.024-0.068-6.012c-0.758-3.676-0.188-7.426-0.718-11.129c-0.251-1.745-0.33-3.671,0.727-5.681
		c0,1.967-0.049,3.588,0.014,5.205c0.061,1.552,0.219,3.101,0.374,4.648c0.058,0.589,0.528,0.959,1.012,1.157
		c0.278,0.112,0.78-0.188,0.701-0.524c-0.489-2.118,0.667-4.16,0.275-6.246c-0.85-4.493-2.516-8.591-5.585-12.105
		c-0.758-0.868-1.92-1.612-2.072-2.929c-0.883-7.672-0.621-15.392,0.673-22.917c1.148-6.671,1.74-13.222,0.95-19.918
		c-0.114-0.964,0.125-1.831,0.563-2.728c1.772-3.618,3.79-7.134,5.037-10.986c1.204-3.713,1.411-7.646,2.36-11.415
		c1.75-6.944,5.429-13.105,8.139-19.662c0.021-0.051,0.237-0.021,0.615-0.045C340.196,73.085,337.332,77.054,335.701,81.814z
		 M260.219,183.458c-0.025,2.006-0.022,2.001,1.801,2.704c8.522,3.289,17.244,5.882,26.22,7.613c1.301,0.251,2.05-0.212,2.547-1.349
		c1.049-2.399,2.195-4.759,3.159-7.191c2.689-6.789,6.45-13.129,8.427-20.216c1.67-5.989,2.886-12.165,6.968-17.18
		c0.77-0.946-0.208-1.18-0.712-1.455c-9.957-5.446-18.695-12.71-28.169-18.871c-1.512-0.983-2.985-2.924-4.562-2.679
		c-1.577,0.245-2.581,2.399-3.677,3.849c-4.112,5.433-7.047,11.397-8.36,18.142c-0.864,4.442-1.014,8.965-1.692,13.41
		C260.994,167.945,260.958,175.727,260.219,183.458z M289.459,194.789c-0.633-0.053-1.115-0.044-1.577-0.138
		c-8.821-1.793-17.478-4.169-25.828-7.561c-1.435-0.583-2.048-0.377-2.12,1.177c-0.021,0.473-0.115,0.946-0.117,1.419
		c-0.023,3.727-1.003,7.327-1.441,10.999c-0.766,6.415-3.813,11.751-7.632,16.819c-4.015,5.322-7.808,10.829-10.518,16.963
		c-2.791,6.314-2.947,13.213-4.009,19.885c-1.171,7.366-1.95,14.787-4.994,21.703c-0.364,0.827-0.618,1.708,0.238,2.165
		c3.204,1.715,6.438,3.492,10.263,1.784c1.851-0.825,3.766-1.207,4.706-3.594c5.547-14.108,11.26-28.15,16.99-42.184
		c1.292-3.165,2.563-6.428,5.436-8.599c5.468-4.136,9.506-9.217,10.921-16.088c0.022-0.104-0.071-0.23-0.116-0.345
		c-0.502-0.01-0.799,0.76-1.809,0.221C283.506,205.854,287.037,200.833,289.459,194.789z M344.231,63.584
		c1.681-1.711,3.633-3.39,5.109-5.518c1.031-1.488,2.257-1.56,3.647-0.605c0.948,0.649,1.826,1.401,2.784,2.031
		c2.138,1.404,4.222,0.801,5.199-1.517c0.364-0.863,0.825-1.298,1.794-1.638c1.11-0.389,2.523-1.264,2.846-2.243
		c0.49-1.495,1.293-1.22,2.095-0.887c1.831,0.761,2.347,0.028,2.263-1.684c-0.039-0.813,0.047-1.634-0.017-2.444
		c-0.192-2.458,0.734-4.404,1.967-6.564c2.785-4.881,4.898-10.076,1.654-15.753c-0.998-1.747-2.234-3.255-3.743-4.493
		c-4.726-3.875-9.71-7.06-16.317-5.842c-5.707,1.051-11.524,5.941-12.65,11.79c-1.292,6.727-1.548,14.159-8.534,18.549
		c2.427,0.798,4.117,2.089,5.359,4.012C340.292,54.804,341.48,59.521,344.231,63.584z M268.729,305.321
		c1.616-0.272,3.642-0.292,4.123-2.421c0.512-2.273,1.575-4.689-0.454-6.872c-1.949-2.096-4.441-3.38-7.063-4.162
		c-6.353-1.895-11.499-6.056-17.345-8.882c-0.845-0.407-1.664-1.04-0.784-2.207c0.493-0.656,0.127-1.386-0.274-1.838
		c-0.455-0.511-0.933,0.123-1.407,0.337c-1.344,0.609-2.696,1.219-4.092,1.691c-3.95,1.342-7.439,0.022-10.472-2.364
		c-1.206-0.949-1.689-0.801-2.432,0.181c-0.445,0.587-1.033,1.134-1.274,1.8c-1.455,4.024-3.235,7.958-3.727,12.276
		c-0.246,2.153,0.497,3.86,2.368,5c3.152,1.92,6.68,2.735,10.261,3.33c5.63,0.934,11.259,1.854,16.929,2.566
		C258.251,304.407,263.441,304.677,268.729,305.321z M308.766,125.097c0-1.738-0.097-3.104,0.027-4.449
		c0.123-1.345-0.461-2.01-1.561-2.687c-4.983-3.064-10.213-5.667-15.347-8.45c-0.946-0.514-1.393-0.514-2.018,0.557
		c-1.498,2.568-3.279,4.907-5.719,6.762c-2.419,1.838-4.589,4.003-6.871,6.022c-0.638,0.565-1,0.938,0.061,1.603
		c9.873,6.187,18.853,13.696,28.932,19.574c1.292,0.754,2.438,1.893,4.061,2.009c-0.009-1.677,0.123-3.369-0.053-5.026
		C309.7,135.587,308.533,130.218,308.766,125.097z M337.859,53.015c-1.711-3.919-5.291-6.233-8.248-5.486
		c-3.045,0.77-6.057,1.677-9.055,2.613c-4.698,1.466-7.821,4.961-10.68,8.673c-4.531,5.883-8.746,11.998-11.185,19.093
		c-2.404,6.99-3.873,14.212-5.11,21.5c-0.333,1.959,0.307,2.464,1.794,3.17c4.061,1.925,8.056,3.992,12.027,6.096
		c1.076,0.57,1.343,0.197,1.614-0.751c1.451-5.073,2.25-10.275,2.551-15.512c0.322-5.673,0.966-11.27,2.526-16.727
		c0.428-1.5,0.132-2.482-0.858-3.606c-3.407-3.866-3.928-9.013-1.185-12.862c3.556-4.987,8.184-8.571,14.333-9.777
		c3.124-0.612,6.311-1.08,9.042,1.279C336.143,51.337,336.808,52.018,337.859,53.015z M257.857,257.71
		c0.072,2.298-1.429,3.385-3.358,3.75c-1.331,0.252-1.708,1.032-2.11,2.06c-1.66,4.246-3.376,8.471-5.01,12.728
		c-0.189,0.493-0.938,0.984-0.385,1.595c0.6,0.664,1.469,0.725,2.255,0.443c6.657-2.381,13.676-2.025,20.546-2.813
		c3.397-0.39,6.842-0.55,10.148-1.53c2.131-0.63,2.713-1.967,2.568-4.123c-0.192-2.891-2.466-3.37-4.402-4.017
		c-4.587-1.537-9.308-2.544-14.154-2.998c-2.43-0.228-4.88-0.792-5.249-3.961C258.658,258.416,258.567,257.87,257.857,257.71z
		 M342.382,62.364c0.448,3.886,1.079,7.735,0.262,11.644c-0.637,3.05-1.537,6.069-4.542,7.438c-2.663,1.212-3.786,3.209-4.398,5.783
		c-0.156,0.653-0.365,1.298-0.461,1.96c-0.948,6.553-2.234,13.088-5.842,18.707c-2.682,4.176-1.076,8.363-1.268,12.602
		c2.051-3.405,4.616-6.339,7.022-9.389c0.958-1.212,1.984-2.419,2.498-3.857c1.356-3.796,3.022-7.456,4.648-11.137
		c3.403-7.696,6.226-15.515,4.763-24.159C344.509,68.675,343.991,65.369,342.382,62.364z M222.281,87.975
		c-0.948,0.949-1.27,1.979-1.616,2.977c-2.479,7.16-1.183,14.378-0.214,21.57c0.156,1.161,0.059,3.229,1.277,3.232
		c1.191,0.003,1.408-2.026,1.764-3.277c1.73-6.077,1.567-12.241,0.626-18.405C223.81,92.059,223.535,89.989,222.281,87.975z
		 M241.843,75.949c-0.083-0.721-0.754-0.862-1.266-1.107c-4.542-2.172-9.132-4.248-13.618-6.529c-1.179-0.6-2.113-0.815-2.415,0.501
		c-0.257,1.121-2.053,2.526,0.293,3.618c4.775,2.222,9.492,4.57,14.233,6.864c0.336,0.163,0.751,0.638,1.039,0.138
		C240.744,78.33,241.254,77.155,241.843,75.949z M310.807,147.578c-1.43,1.428-2.134,2.557-2.084,4.206
		c0.047,1.534-0.115,3.116-0.463,4.612c-1.361,5.866-0.559,11.696,0.268,17.503c0.209,1.471-0.043,3.199,1.345,4.658
		c0-0.584,0.033-0.913-0.006-1.231c-0.552-4.493-1.153-8.993,0.128-13.458c0.953-3.325,1.559-6.682,1.163-10.146
		C310.942,151.84,310.733,149.962,310.807,147.578z M253.354,261.003c1.82-0.677,3.257-0.789,3.607-2.567
		c0.895-4.553,2.435-8.896,4.254-13.162c2.224-5.223,4.021-10.604,5.642-16.05C261.747,239.35,257.938,250.019,253.354,261.003z
		 M236.463,81.122c0.184-1.137-0.547-1.187-0.955-1.421c-3.726-2.147-7.461-4.277-11.236-6.335c-0.603-0.329-1.417-1.381-2-0.523
		c-0.442,0.65,0.337,1.61,0.89,2.287c0.209,0.256,0.495,0.468,0.783,0.638c3.529,2.098,7.062,4.19,10.604,6.266
		c0.388,0.228,0.878,0.735,1.267,0.358C236.217,82.001,236.358,81.344,236.463,81.122z M220.837,73.454
		c0.901,3.688,1.817,7.372,2.692,11.067c0.174,0.736,0.619,0.744,1.207,0.7c0.962-0.074,0.901-0.814,0.722-1.331
		C224.21,80.297,223.035,76.667,220.837,73.454z M217.771,90.944c-1.986,3.271-0.755,6.835-1.142,10.26
		C216.568,97.735,217.995,94.431,217.771,90.944z M205.527,79.594c4.344-0.702,0.423-3.129,1.26-4.526
		C206.053,76.426,205.758,77.891,205.527,79.594z M204.554,94.901c-0.06-2.024,1.124-3.959,0.41-6.366
		C203.851,90.831,204.699,92.915,204.554,94.901z"/>
	<path fill-rule="evenodd" clip-rule="evenodd" d="M357.268,33.426c-0.889-0.875-1.343-2.447-3-1.778
		c-1.623,0.653-2.537,1.927-2.664,3.715c-0.086,1.217-0.264,2.432-0.26,3.648c0.008,2.122,0.547,2.438,2.447,1.578
		c-0.452,1.072-1.003,1.637-1.6,1.517c-0.832-0.167-1.299-0.804-1.372-1.577c-0.241-2.542-0.443-5.113,0.712-7.51
		c0.774-1.608,2.222-2.436,3.934-2.228C356.707,30.944,357.426,31.967,357.268,33.426z"/>
</g>
<g>
</g>
<g>
</g>
<g>
</g>
<g>
</g>
<g>
</g>
<g>
</g>
</svg>
