<?xml version="1.0" encoding="utf-8"?>
<!-- Generator: Adobe Illustrator 16.2.1, SVG Export Plug-In . SVG Version: 6.00 Build 0)  -->
<!DOCTYPE svg PUBLIC "-//W3C//DTD SVG 1.1//EN" "http://www.w3.org/Graphics/SVG/1.1/DTD/svg11.dtd">
<svg version="1.1" id="Layer_1" xmlns="http://www.w3.org/2000/svg" xmlns:xlink="http://www.w3.org/1999/xlink" x="0px" y="0px"
	 width="296px" height="319px" viewBox="0 0 296 319" enable-background="new 0 0 296 319" xml:space="preserve">
<path fill-rule="evenodd" clip-rule="evenodd" d="M278.031,42.557c-2.743-9.368-7.18-11.331-14.607-11.572
	c-4.625-0.15-9.166,1.104-13.597,2.516c-0.667,0.212-1.438,0.613-1.367,1.23c0.193,1.675-0.994,2.475-1.864,3.492
	c-1.819,2.122-3.386,4.583-3.566,7.27c-0.257,3.837-2.083,6.523-4.641,9.009c-1.033,1.006-1.027,2.138,0.044,3.087
	c0.598,0.533,0.672,1.026,0.792,1.795c0.193,1.237-0.965,2.526-0.051,3.519c0.911,0.99,0.56,1.738,0.24,2.744
	c-0.718,2.26,0.009,3.417,2.313,4.166c1.331,0.432,2.72,0.236,4.08,0.567c2.56,0.622,4.206,2.63,4.157,5.515
	c-0.034,2.111-1.936,4.292-4.246,4.394c-2.129,0.093-3.907,0.931-5.682,1.882c-5.704,3.065-11.563,5.759-17.759,7.68
	c-2.997,0.93-5.701,2.42-7.726,4.82c-2.678,3.178-5.067,6.789-2.874,11.005c1.506,2.896,0.55,5.244-0.191,7.814
	c-0.189,0.655-0.533,1.164-1.434,0.854c-4.063-1.402-8.202-2.527-11.693-5.308c-2.888-2.3-5.858-4.721-9.73-5.124
	c-1.48-0.155-2.28-0.868-3.138-1.896c-6.441-7.73-15.786-9.304-24.443-4.092c-1.07,0.644-1.794,0.512-2.771-0.124
	c-8.22-5.346-16.632-10.384-24.822-15.789c-8.586-5.667-17.301-11.137-26.212-16.339C88.817,54.916,70.973,43.163,52.853,31.883
	c-3.646-2.269-7.137-4.811-11.047-6.644c0,0.924,0,1.851,0,2.775c3.665,1.474,6.818,3.846,10.164,5.87
	c18.197,11.01,36.35,22.091,54.555,33.088c1.461,0.883,1.827,1.593,0.635,2.907c-0.388,0.427-0.602,1.01-0.911,1.513
	c-1.775,2.892-1.778,2.895-4.78,1.079c-15.21-9.207-30.416-18.422-45.636-27.614c-2.006-1.21-3.763-2.787-5.684-4.118l-2.238-1.357
	c-0.17-0.085-0.34-0.169-0.515-0.25c-0.17-0.077-0.304-0.18-0.394-0.3l-0.185-0.111c0,0,0.167-4.588,0.168-6.671
	c-1.368-0.908-4.475-2.202-5.181-2.052c0,2.51,0,5.022,0,7.533c0.454,0.246,0.919,0.471,1.359,0.74
	c20.834,12.797,42.124,24.839,62.688,38.086c8.403,5.416,16.883,10.715,25.454,15.876c7.107,4.279,13.804,9.241,20.677,13.909
	c0.808,0.549,1.164,1.066,0.759,2.266c-0.904,2.67-1.09,5.407-0.599,8.305c1.388,8.191,8.959,16.203,18.132,16.084
	c5.096-0.068,9.699-1.313,13.575-4.681c2.509-2.179,4.065-2.438,6.89-0.726c1.732,1.049,3.441,2.14,5.176,3.183
	c2.57,1.543,2.576,1.532,0.791,3.928c-2.893,3.882-5.387,8.04-8.404,11.845c-7.995,10.083-14.94,20.827-20.476,32.5
	c-3.717,7.839-6.397,16.124-10.499,23.785c-1.348,2.524-2.729,5.006-3.587,7.792c-1.331,4.327-0.271,8.715-0.711,13.053
	c-0.322,3.155,0.525,6.319,0.306,9.45c-0.288,4.103-1.012,8.178-1.606,12.256c-0.866,5.938-1.753,11.875-2.687,17.804
	c-0.727,4.61-1.283,9.053-6.713,11.199c-5.001,1.976-9.92,3.864-15.3,4.441c-2.513,0.27-5.033,0.645-7.433,1.553
	c-2.071,0.784-3.438,2.218-3.75,4.403c-0.293,2.059,0.964,3.472,2.478,4.625c1.155,0.881,2.565,1.222,3.891,1.756
	c0.755,0.304,1.843-0.041,2.369,0.934c-2.28,0.594-4.505,1.054-6.649,1.766c-2.162,0.717-4.304,1.832-4.434,4.424
	c-0.128,2.547,1.853,3.928,3.823,5.062c3.131,1.8,6.643,2.406,10.151,2.586c3.983,0.205,7.936,1.013,11.992,0.332
	c2.29-0.386,4.719-1.054,7.034-0.38c2.915,0.849,5.847,0.654,8.789,0.646c1.358-0.007,2.634-0.477,3.519-1.508
	c2.347-2.731,3.241-5.962,2.751-9.508c-0.26-1.88-0.713-3.73-0.645-5.652c0.06-1.708,0.118-3.422-1.336-4.736
	c-0.436-0.393-0.2-0.963-0.074-1.489c1.855-7.745,4.832-15.016,8.952-21.835c2.984-4.94,4.61-10.372,5.096-16.09
	c0.487-5.737-1.107-11.337-1.539-17.022c-0.161-2.145-0.155-3.968,1.493-5.681c2.53-2.627,5.611-4.532,8.355-6.871
	c6.531-5.57,12.758-11.383,17.037-18.963c1.614-2.855,3.764-5.091,6.669-6.727c4.665-2.627,9.341-5.178,12.722-9.67
	c4.499-5.977,7.234-12.461,7.557-19.971c0.151-3.548,0.498-7.088,0.8-10.627c0.059-0.7,0.31-1.979,0.491-1.983
	c1.943-0.036,1.413-1.74,1.88-2.691c0.535-1.083,0.976-1.398,2.223-0.822c2.707,1.253,5.412,2.523,8.305,3.373
	c1.749,0.513,2.876,0.134,3.911-1.251c3.622-4.842,6.377-10.197,9.062-15.572c3.18-6.37,6.98-12.429,9.567-19.088
	c0.577-1.483,1.198-2.92,2.226-4.097c5.779-6.611,7.429-14.149,5.517-22.679c-0.785-3.498-1.02-7.12-1.526-10.856
	c0.962,0.428,1.719,0.804,2.503,1.104c2.432,0.928,3.682,0.357,4.553-2.097c0.393-1.105,0.616-2.245,0.75-3.427
	c0.487-4.282,0.766-8.608,1.85-12.792C279.22,52.239,279.442,47.375,278.031,42.557z M71.983,45.148
	c-2.01-1.222-4.019-2.443-6.029-3.666c0.114-0.145,0.228-0.291,0.342-0.438c1.972,1.247,3.943,2.489,5.914,3.733
	C72.135,44.903,72.059,45.026,71.983,45.148z M212.692,112.167c0.549-1.048,0.198-2.451,1.318-3.336
	c0.449-0.355-0.173-0.633-0.355-0.877c-3.378-4.511-2.236-8.29,1.16-12.395c2.283-2.761,5.308-4.309,8.71-5.351
	c5.317-1.629,10.37-3.934,15.265-6.574c1.631-0.879,3.105-1.661,5.218-1.345c2.211,0.331,4.583,0.293,6.865-0.273
	c0.802-0.198,1.694-0.031,3.125-0.031c-3.581,1.089-6.515,2.173-8.869,4.497c-2.968,2.93-3.52,6.478-2.925,10.331
	c0.438,2.833,1.147,5.615,2.515,8.18c0.389,0.728,0.032,1.386-0.241,2.068c-2.25,5.625-4.592,11.215-6.39,17.01
	c-0.285,0.922-0.781,1.334-1.731,1.012c-8.083-2.744-16.243-5.316-23.028-10.854C212.538,113.582,212.158,113.184,212.692,112.167z
	 M211.566,115.332c0.348-0.842,0.622-1.131,1.511-0.414c6.627,5.337,14.495,8.073,22.443,10.626c1.783,0.573,1.791,0.551,1.77,1.33
	c-0.068,2.448-1.658,3.656-3.884,2.922c-7.666-2.525-15.287-5.175-22.786-8.17c-1.447-0.578-1.792-0.992-0.822-2.387
	C210.6,118.083,211.022,116.657,211.566,115.332z M194.662,107.278c4.488,3.586,9.351,6.362,15.004,7.622
	c0.736,0.164,1.121,0.501,0.745,1.478c-1.682,4.385-1.822,4.453-5.567,1.837c-2.632-1.838-5.244-3.655-7.164-6.338
	c-1.422-1.987-3.363-2.711-5.873-1.908c-1.281,0.408-2.713,0.501-2.983-1.633c-0.159-1.24-0.883-2.405-1.408-3.747
	C190.248,104.644,192.617,105.645,194.662,107.278z M182.501,106.425c0.667,0.809,0.957,1.642,0.895,2.407
	c-0.054,0.686-0.9,0.876-1.518,0.811c-0.691-0.076-1.302-0.699-1.038-1.312C181.145,107.615,181.892,107.092,182.501,106.425z
	 M174.147,102.75c2.365-0.921,6.655,0.771,7.653,3.057C179.558,104.11,176.976,103.297,174.147,102.75z M179.241,106.549
	c0.801,0.413,1.165,0.934,0.686,1.851c-0.58,1.11-1.136,0.082-1.508-0.09c-1.975-0.921-3.884-1.98-5.818-2.989
	C174.989,105.072,177.188,105.494,179.241,106.549z M167.454,102.03c-1.004,0.369-1.721-0.166-2.461-0.76
	c2.627-1.6,7.639-1.801,11.037-0.253C172.75,100.814,170.054,101.078,167.454,102.03z M181.177,100.687
	c-5.554-3.765-11.458-4.128-17.663-1.97C166.5,94.265,174.521,95.095,181.177,100.687z M164.601,102.749
	c0.683-0.183,3.878,1.187,4.115,1.785c0.069,0.175,0.042,0.386,0.036,0.331c-0.321,2.209-1.231,3.852-2.739,5.122
	c-0.515,0.435-5.625-2.554-5.685-3.265C160.248,105.75,163.02,103.172,164.601,102.749z M162.082,110.072
	c-0.138,0.373-0.494,0.534-0.775,0.374c-0.953-0.541-1.871-1.149-2.787-1.752c-0.34-0.224-0.268-0.506-0.051-0.815
	c0.19-0.268,0.322-0.574,0.917-0.438c0.821,0.521,1.813,1.121,2.768,1.773C162.519,109.469,162.187,109.793,162.082,110.072z
	 M145.083,90.33c4.216,2.626,8.426,5.269,12.624,7.924c0.422,0.268,1.314,0.432,0.92,1.132c-0.418,0.744-1.114,0.59-1.845,0.091
	c-2.745-1.881-5.541-3.686-8.325-5.511c-4.145-2.717-8.294-5.428-12.441-8.142c-0.528-0.346-1.194-0.57-1.358-1.937
	C138.369,86.178,141.734,88.241,145.083,90.33z M157.263,114.816c-0.669-1.242-0.669-1.242-0.13-4.398
	C158.448,112.069,156.917,113.439,157.263,114.816z M154.585,107.102c-7.406-5.021-14.782-10.092-22.226-15.06
	c-1.091-0.728-1.152-1.275-0.629-2.347c2.147-4.405,2.126-4.426,6.281-1.717c6.891,4.494,13.777,8.996,20.657,13.507
	c0.582,0.383,1.099,0.866,1.6,1.267c-0.755,1.266-1.42,2.466-2.168,3.614C156.706,108.507,156.67,108.517,154.585,107.102z
	 M158.017,123.872c4.778,5.655,11.16,5.435,17.901,4.668C171.833,132.46,162.833,130.047,158.017,123.872z M177.566,126.147
	c-4.299,2.185-8.746,2.443-12.873-0.068c-3.048-1.854-3.186-5.346-3.403-8.569c-0.097-1.415,0.069-2.775,0.601-4.074
	c0.337-0.824,0.717-1.276,1.738-0.612c3.828,2.498,7.845,4.729,11.521,7.428c1.52,1.114,2.694,2.938,2.933,5.124
	C178.155,126.032,177.791,126.034,177.566,126.147z M156.647,205.397c3.644-6.496,6.246-13.458,9.135-20.296
	c2.592-6.131,5.747-12.003,9.05-18.07c0.985,1.442,1.956,2.56,3.287,3.255c1.005,0.525,0.084,0.975-0.098,1.277
	c-3.94,6.542-7.917,13.062-11.207,19.975c-4.193,8.808-8.289,17.664-12.929,26.571C153.451,213.38,154.474,209.268,156.647,205.397z
	 M145.897,274.041c3.055-4.021,3.594-8.866,4.327-13.628c0.953-6.185,1.824-12.384,2.751-18.571c0.104-0.688-0.21-1.436,0.341-2.188
	c0.426,4.137-0.263,8.109-0.785,12.043c-0.812,6.127-1.974,12.209-3.107,18.288c-0.68,3.651-1.78,7.2-3.355,10.576
	c-0.219,0.47-0.353,1.34-1.13,1.099c-0.604-0.187-0.638-0.905-0.64-1.521C144.291,277.963,144.512,275.864,145.897,274.041z
	 M119.901,289.249c-2.453-0.981-3.517-2.684-3.288-4.599c0.282-2.348,1.942-3.412,3.973-4.059c2.745-0.876,5.618-1.132,8.443-1.516
	c5.366-0.73,10.347-2.427,14.991-5.181c0.272-0.161,0.575-0.272,1.296-0.611c-1.519,2.7-2.055,5.134-1.642,7.725
	c0.068,0.427,0.153,0.642-0.286,0.945c-4.767,3.297-9.466,6.694-14.971,8.723C125.295,291.829,122.602,290.329,119.901,289.249z
	 M159.544,286.025c0.12,0.254,0.32,0.479,0.318,0.704c-0.041,4.361,1.775,8.651,0.647,13.037c-1.312,5.103-2.744,5.88-6.924,5.875
	c-1.959-0.002-3.952,0.178-5.863-0.472c-2.605-0.89-5.201-0.157-7.786,0.077c-6.782,0.611-13.459,0.117-20.018-1.72
	c-1.78-0.499-3.322-1.51-4.584-2.896c-1.695-1.86-1.458-3.674,0.567-5.158c2.31-1.695,5.101-1.905,7.727-2.556
	c6.632-1.645,12.479-4.785,17.912-8.851c0.847-0.635,1.555-2.245,3.127-0.991c1.551,1.24,1.634,2.818,0.581,4.176
	c-1.267,1.636-0.388,2.406,0.663,3.511c2.386,2.504,5.139,3.887,8.613,3.074c2.73-0.638,4.05-2.466,4.405-5.744
	C159.006,287.36,159.048,286.656,159.544,286.025z M199.102,195.366c-5.734,10.333-14.508,17.729-23.695,24.727
	c-3.511,2.674-6.064,6.704-4.313,12.109c3.461,10.681,1.748,20.787-4.125,30.441c-4.003,6.582-6.8,13.802-8.317,21.43
	c-0.253,1.276-0.314,2.6-0.457,3.896c-0.643,5.873-5.455,6.194-9.079,4.398c-0.922-0.458-1.747-1.168-2.515-1.875
	c-0.938-0.864-1.618-1.769-0.6-3.168c0.904-1.238,1.003-2.71-0.024-4.011c-0.366-0.46-0.249-0.695,0.002-1.143
	c2.901-5.139,4.048-10.828,5.035-16.547c0.974-5.659,2.091-11.314,2.645-17.018c0.604-6.204,1.038-12.428,0.269-18.713
	c-0.646-5.292-0.167-10.484,2.558-15.423c5.246-9.505,9.204-19.666,14.367-29.221c1.669-3.089,3.507-6.085,5.361-9.284
	c1.576,1.667,2.94,3.345,4.434,4.898c5.125,5.327,11.222,9.207,17.847,12.293C199.91,193.813,199.706,194.279,199.102,195.366z
	 M225.42,157.774c-0.329,8.819-2.823,16.772-8.725,23.597c-3.601,4.164-8.511,6.254-12.904,9.175
	c-0.543,0.361-1.306,0.551-1.639,1.042c-1.345,1.984-2.696,1.26-4.415,0.462c-6.691-3.107-12.372-7.573-17.668-12.616
	c-3.7-3.526-3.771-4.015-0.884-8.198c1.407-2.039,2.983-3.972,3.622-6.466c0.184-0.715,0.362-1.374,0.105-2.671
	c-0.909,2.458-1.354,4.515-2.556,6.253c-1.21,1.748-1.497,1.807-3.054,0.368c-2.205-2.037-2.307-2.261-0.7-4.726
	c4.549-6.975,9.473-13.681,14.598-20.247c1.518-1.944,2.832-4.058,4.138-6.156c0.545-0.875,0.806-1.078,1.697-0.296
	c7.247,6.37,15.076,11.958,23.228,17.095c1.367,0.861,2.735,1.819,4.381,2.071C225.554,156.604,225.44,157.208,225.42,157.774z
	 M226.265,148.446c-0.782,1.92-0.355,4.028-0.696,6.043c-0.264,1.553-0.815,1.38-1.888,0.904c-2.947-1.314-5.56-3.178-8.203-4.977
	c-6.18-4.208-12.235-8.579-17.858-13.535c-1.074-0.946-1.059-1.479-0.052-2.239c0.771-0.583,1.047-1.695,2.131-2.005
	c0.465,0.252,0.921,0.503,1.379,0.751c8.106,4.39,16.207,8.793,24.33,13.15C226.282,147.006,226.707,147.361,226.265,148.446z
	 M268.758,97.853c-1.488,2.468-3.365,4.804-4.492,7.466c-4.537,10.719-10.037,20.948-15.469,31.217
	c-1.685,3.182-3.541,6.263-5.525,9.269c-0.903,1.37-1.966,1.85-3.668,1.297c-4.743-1.533-9.2-3.701-13.628-5.929
	c-8.345-4.196-16.492-8.767-24.603-13.404c-2.779-1.589-5.718-2.408-8.985-2.255c-3.866,0.178-7.751-0.118-11.604,0.438
	c-1.189,0.173-2.146-0.171-2.392-1.442c-0.264-1.348,0.802-1.51,1.759-1.868c0.589-0.221,1.505-0.157,1.711-1.182
	c-1.121,0.039-2.091,0.723-3.204,0.546c-0.737-0.116-1.691,0.215-1.88-0.923c-0.169-1.022,0.48-1.492,1.307-1.932
	c0.992-0.526,2.3-0.532,3.019-1.748c-1.045-0.259-1.713,0.557-2.555,0.74c-0.728,0.156-1.312,0.336-1.679-0.374
	c-0.369-0.716,0.121-1.203,0.675-1.653c1.214-0.99,2.909-1.277,3.945-2.782c-1.109-0.125-1.669,0.761-2.465,1.044
	c-0.4,0.144-0.762,0.599-1.215,0.08c-0.355-0.41-0.346-0.861-0.098-1.277c0.23-0.388,0.525-0.755,0.858-1.059
	c0.232-0.212,0.609-0.26,0.867-0.451c3.213-2.39,6.69-1.981,10.213-0.959c0.593,0.172,1.204,0.294,1.744,0.1
	c2.515-0.906,4.274-0.061,6.044,1.877c4.338,4.752,9.551,8.307,15.602,10.612c6.987,2.66,13.976,5.296,21.138,7.466
	c1.39,0.421,2.013,0.023,2.751-1.01c0.956-1.343,1.031-2.94,1.481-4.416c2.248-7.377,5.424-14.397,8.153-21.588
	c1.38-3.639,2.382-7.333,2.203-11.266c-0.018-0.409,0.189-0.912-0.663-1.419c-0.046,4.734-0.636,9.193-2.674,13.321
	c-2.487-4.102-4.048-12.635-0.659-16.505c2.515-2.872,5.745-4.269,9.268-5.08c4.362-1.004,8.402-0.141,11.923,2.766
	C269.647,88.612,270.901,94.302,268.758,97.853z M269.256,88.284c-2.373-3.243-5.255-5.552-9.46-6.484
	C265.049,81.442,269.467,84.504,269.256,88.284z M268.95,84.174c-1.621-0.955-2.93-2.193-4.686-2.649
	c-4.426-1.154-8.875-0.468-13.303-0.153c-2.413,0.172-4.834,0.031-7.246,0.427c0.844-1.12,2.132-0.558,3.182-0.984
	c2.219-0.903,4.01-3.064,3.852-5.155c-0.261-3.478-2.121-5.702-5.004-6.022c-0.581-0.065-1.149-0.253-1.728-0.348
	c-4.259-0.699-4.275-0.702-3.295-4.805c0.113-0.472,0.043-0.751-0.268-1.03c-0.712-0.639-0.373-1.342-0.418-2.104
	c-0.075-1.268,0.792-3-0.796-4.008c-1.197-0.759-0.914-1.561-0.151-2.432c0.607-0.692,1.136-1.461,1.791-2.1
	c1.897-1.847,2.456-4.168,2.798-6.707c0.447-3.313,2.109-6.095,4.619-8.688c0.862,3.038,1.816,5.804,2.396,8.648
	c0.437,2.143-0.042,4.302-1.125,6.264c-1.94,3.513-3.088,7.309-3.894,11.21c-0.667,3.234,0.46,4.711,3.792,5.326
	c3.898,0.717,7.89,1,11.653,2.374c1.649,0.603,3.245,1.358,4.911,1.904c1.102,0.358,1.517,1.16,1.666,2.111
	C268.153,78.151,268.521,81.066,268.95,84.174z M277.188,57.259c-1.157,4.161-1.275,8.513-1.896,12.773
	c-0.142,0.968-0.206,1.961-0.473,2.893c-0.57,1.994-1.984,2.65-3.883,1.737c-4.408-2.117-8.806-4.257-13.635-5.232
	c-2.741-0.55-5.527-0.876-8.273-1.399c-1.772-0.336-3.144-1.133-2.809-2.395c0.562-4.892,1.7-8.661,3.567-12.09
	c2.008-3.689,2.163-7.268,0.762-11.11c-0.759-2.079-1.444-4.196-1.475-6.462c-0.013-0.967,0.245-1.685,1.213-1.945
	c4.084-1.095,8.215-2.383,12.42-2.349c7.344,0.059,11.775,1.881,14.529,10.711C278.772,47.315,278.578,52.272,277.188,57.259z"/>
<ellipse cx="54.277" cy="57.466" rx="37.917" ry="37.991"/>
<g>
	<path fill="#FFFFFF" d="M47.921,62.823c0.455,3.141,2.022,4.863,4.499,4.863c2.882,0,4.651-2.482,4.651-6.636
		c0-2.938-1.416-4.61-3.943-4.61c-1.719,0-3.084,0.912-4.095,2.837l-5.409-2.128l4.044-17.882h18.401l-1.365,6.484H52.016
		l-1.719,7.801c0.354-0.456,0.606-0.811,0.859-1.063c1.011-1.064,2.629-1.621,4.55-1.621c5.308,0,8.543,3.799,8.543,10.03
		c0,7.7-4.752,12.766-11.981,12.766c-3.792,0-6.774-1.267-8.645-3.749c-1.062-1.419-1.466-2.229-2.123-4.914L47.921,62.823z"/>
</g>
<g>
</g>
<g>
</g>
<g>
</g>
<g>
</g>
<g>
</g>
<g>
</g>
</svg>
