<?xml version="1.0" encoding="utf-8"?>
<!-- Generator: Adobe Illustrator 16.2.1, SVG Export Plug-In . SVG Version: 6.00 Build 0)  -->
<!DOCTYPE svg PUBLIC "-//W3C//DTD SVG 1.1//EN" "http://www.w3.org/Graphics/SVG/1.1/DTD/svg11.dtd">
<svg version="1.1" id="Layer_1" xmlns="http://www.w3.org/2000/svg" xmlns:xlink="http://www.w3.org/1999/xlink" x="0px" y="0px"
	 width="322px" height="319px" viewBox="0 0 322 319" enable-background="new 0 0 322 319" xml:space="preserve">
<ellipse cx="58.478" cy="60.898" rx="42.094" ry="42.105"/>
<g>
	<path fill="#FFFFFF" d="M57.597,69.87H43.454l1.066-6.568l17.454-22.567H70l-3.816,22.848h4.714l-1.066,6.288h-4.714l-1.347,8.308
		h-7.577L57.597,69.87z M61.357,49.043l-11,14.82h8.25L61.357,49.043z"/>
</g>
<g>
	<path fill-rule="evenodd" clip-rule="evenodd" d="M113.746,74.459c6.62,4.656,13.251,9.297,19.857,13.973
		c7.479,5.295,14.936,10.623,22.408,15.928c0.515,0.367,1.122,0.811,1.731,0.365c1.173-0.859,1.775-0.097,2.672,0.577
		c5.411,4.068,10.821,8.155,17.18,10.708c1.06,0.426,2.125-0.048,3.136-0.173c5.098-0.634,10.173-1.457,15.257-2.214
		c0.309-0.046,0.794,0.01,0.899-0.163c1.522-2.512,3.851-1.253,5.806-1.121c1.695,0.115,3.25,0.217,4.697-0.793
		c1.449-1.013,3.186-0.567,4.772-0.914c3.883-0.848,7.716,0.362,11.579,0.573c2.72,0.148,5.428,0.303,8.128-0.179
		c0.294-0.052,0.614-0.02,0.799-0.371c0.398-0.747-0.208-4.627-0.842-5.24c-5.051-4.883-5.386-11.756-1.008-17.489
		c2.362-3.094,5.426-5.469,8.033-8.309c2.743-2.99,4.795-6.468,7.203-9.692c0.3-0.401,0.582-0.847,0.968-1.147
		c4.054-3.149,4.574-8.129,1.255-12.033c-1.3-1.53-3.004-1.48-4.696-1.164c-0.883,0.165-1.747,0.27-2.628,0.241
		c-2.131-0.071-3.213-1.119-3.021-3.216c0.111-1.214,0.082-2.141-0.922-3.024c-0.965-0.848,0.048-2.182-0.507-3.324
		c-0.283-0.58-0.275-1.154-1-1.461c-1.434-0.605-1.566-1.658-0.837-2.923c0.627-1.089,1.292-2.158,1.862-3.275
		c0.804-1.574,1.149-3.108,0.881-5.025c-0.498-3.563,0.729-6.906,2.564-9.992c0.359-0.605,0.889-1.095,0.445-2.026
		c-0.453-0.953,0.316-1.708,1.125-2.135c5.856-3.089,11.753-6.106,18.692-5.4c3.391,0.346,5.772,2.371,7.568,5.09
		c2.4,3.633,3.728,7.682,3.655,12.032c-0.113,6.905,0.659,13.727,1.517,20.549c0.006,0.063,0.016,0.126,0.023,0.189
		c0.412,3.511-0.44,4.28-3.854,3.391c-0.602-0.157-1.167-0.237-1.888-0.216c1.244,3.794,2.85,7.283,4.78,10.648
		c3.046,5.306,3.349,11.057,2.583,16.979c-0.684,5.305-2.091,10.403-4.015,15.379c-0.647,1.671-0.309,3.49-0.538,5.239
		c-0.715,5.484-1.043,11.017-1.642,16.519c-0.277,2.546-0.81,5.067-1.271,7.591c-0.442,2.419-1.889,3.877-4.366,4.226
		c1.005,3.779,3.238,6.776,5.572,9.607c2.56,3.106,3.492,6.765,4.214,10.484c0.823,4.249,1.558,8.541,0.85,12.933
		c-0.383,2.374-0.893,4.668-2.185,6.717c-3.513,5.571-5.192,11.636-5.075,18.226c0.157,8.871-1.873,17.45-3.581,26.069
		c-0.279,1.408-0.667,2.796-0.935,4.206c-0.183,0.96,0.103,1.799,0.667,2.649c2.748,4.133,5.219,8.396,6.304,13.335
		c0.655,2.984,0.633,6.019,0.799,9.025c0.289,5.237,0.395,10.489-0.102,15.737c-0.658,6.975-1.423,13.951-0.862,20.979
		c0.077,0.963,0.383,1.736,1.256,2.329c1.266,0.86,1.946,2.071,1.793,3.7c-0.23,2.482,0.557,4.869,0.915,7.282
		c0.305,2.067,0.162,3.995-0.412,5.934c-1.042,3.511-4.166,4.245-7.098,5.134c-2.085,0.632-4.176,0.5-6.291-0.186
		c-1.959-0.635-3.853,0.271-5.68,0.834c-4.479,1.382-8.948,0.869-13.45,0.283c-2.675-0.349-5.319-0.802-7.883-1.658
		c-0.65-0.217-1.311-0.427-1.932-0.712c-1.874-0.862-3.859-1.874-3.723-4.245c0.139-2.419,1.923-3.9,4.078-4.748
		c1.659-0.652,3.404-1.084,5.096-1.936c-1.872-0.611-3.703-0.998-5.324-2.011c-1.929-1.203-3.16-2.986-3.05-5.115
		c0.111-2.148,1.892-3.267,3.96-3.739c0.912-0.208,1.805-0.506,2.722-0.681c7.278-1.388,14.164-3.963,20.966-6.817
		c0.846-0.354,0.807-0.895,0.711-1.501c-1.79-11.419-4.381-22.66-7.478-33.792c-0.61-2.198-1.579-4.212-2.544-6.239
		c-2.146-4.501-2.599-9.367-3.273-14.207c-0.541-3.899-1.307-7.769-2.044-11.638c-1.297-6.817-3.324-13.528-3.9-20.439
		c-0.562-6.738-0.485-13.536-0.562-20.313c-0.049-4.252-0.838-8.493-1.275-12.741c-0.681-6.644-1.554-13.287-0.577-19.975
		c0.654-4.487,0.68-4.515-3.848-4.8c-3.257-0.207-6.501-0.64-9.787-0.43c-1.161,0.075-2.247,0.188-3.251,0.789
		c-2.904,1.736-6.14,2.848-8.912,4.851c-1.459,1.055-3.16,0.554-3.773-1.116c-0.283-0.773-0.588-0.353-0.917-0.322
		c-1.13,0.103-2.051-0.54-2.078-1.472c-0.064-2.134-1.502-1.914-2.833-1.992c-0.567-0.033-1.139,0.038-1.708,0.048
		c-0.699,0.013-1.523-0.377-1.53-0.893c-0.029-2.566-2.147-1.897-3.372-2.067c-4.28-0.596-8.511-1.442-12.755-2.213
		c-2.105-0.383-2.146-0.358-2.25,1.813c-0.078,1.633,0.447,3.083,0.929,4.582c1.136,3.539,3.659,6.396,4.947,9.81
		c2.396,6.36,3.264,12.88,0.621,19.453c-0.117,0.291-0.234,0.584-0.371,0.867c-1.249,2.569-2.765,5.047-5.958,5.094
		c-3.198,0.048-5.33-2.066-6.852-4.646c-1.615-2.734-2.373-5.773-2.409-8.962c-0.048-4.095-0.171-8.196,1.122-12.174
		c0.513-1.576,1.221-3.033,2.468-4.147c0.648-0.579,0.987-1.254,1.133-2.085c0.543-3.089,1.218-6.15,1.018-9.338
		c-0.064-1.009-0.508-1.357-1.293-1.494c-3.139-0.548-6.276-1.119-9.432-1.555c-2.495-0.345-4.992,2.22-4.462,4.713
		c0.4,1.881,0.429,3.775,0.52,5.642c0.211,4.341,0.436,8.655,1.287,12.937c0.883,4.438,0.41,8.952,0.256,13.425
		c-0.174,5.067-0.242,10.132-0.211,15.2c0.007,1.219-0.24,2.354-0.733,3.452c-0.498,1.113-1.367,1.63-2.552,1.43
		c-1.182-0.2-1.608-1.091-1.663-2.192c-0.261-5.238-0.85-10.487-0.686-15.713c0.243-7.771,0.255-15.565,2.659-23.174
		c1.084-3.435-0.232-7.274-0.152-10.939c0.002-0.146-0.25-0.28-0.317-0.447c-1.169-2.887-3.913-4.172-6.154-5.919
		c-5.012-3.902-9.869-8.008-15.115-11.607c-0.285-0.196-0.703-0.733-0.64-0.824c1.385-2.009-0.565-2.415-1.55-3.199
		c-6.353-5.059-12.732-10.087-19.104-15.125c0-1.267,0-2.535,0-3.802c1.199,0.493,2.024,1.486,3,2.27
		c6.29,5.051,12.597,10.08,18.792,15.245c1.103,0.919,1.679,1.066,2.419-0.118c0.393-0.631,0.684-0.947,1.442-0.317
		c3.292,2.734,6.552,5.522,9.993,8.06c3.718,2.741,6.828,6.376,11.368,7.929c0.379,0.13,0.523,0.331,0.496,0.661
		c-0.088,1.046,0.657,0.864,1.258,0.866c2.787,0.008,5.573,0.015,8.359-0.009c0.383-0.003,0.897,0.256,1.163-0.358
		c-1.108-1.304-2.394-2.354-3.914-3.207c-3.824-2.146-7.569-4.426-11.36-6.63c-0.752-0.438-1.532-1.04-1.336-1.856
		c0.264-1.097-0.275-1.444-0.989-1.941c-9.633-6.708-19.231-13.466-28.883-20.145c-3.918-2.709-7.689-5.636-11.806-8.054
		C113.746,76.995,113.746,75.727,113.746,74.459z M265.601,184.658c0.109-0.459,0.43-1.255-0.625-0.955
		c-3.46,0.984-7.021,1.242-10.589,1.534c-4.928,0.401-9.854,0.519-14.742-0.227c-3.403-0.519-3.379-0.667-3.113,2.771
		c0.01,0.126,0.007,0.255,0.031,0.378c1.184,6.005,2.356,12.013,3.562,18.016c0.899,4.474,1.945,8.925,2.46,13.463
		c0.507,4.487,1.034,8.947,2.861,13.144c0.998,2.288,2.238,4.47,2.872,6.917c2.269,8.763,4.657,17.494,6.129,26.445
		c0.938,5.701,2.268,11.348,1.846,17.191c-0.046,0.633,0.027,1.202,0.478,1.756c1.049,1.294,0.924,2.797,0.076,4.044
		c-0.642,0.941-0.424,1.44,0.261,2.05c0.566,0.504,1.097,1.057,1.699,1.515c2.397,1.824,5.202,1.934,7.702,0.342
		c1.64-1.046,2.762-3.873,2.249-6.009c-2.07-8.641-0.941-17.297-0.186-25.951c0.54-6.183,0.562-12.304-1.517-18.282
		c-1.378-3.958-3.635-7.541-4.837-11.564c-1.148-3.841-2.096-7.585-1.179-11.766C263.549,208.015,266.176,196.548,265.601,184.658z
		 M249.922,75.869c2.099,3.563,3.326,7.299,3.349,11.419c0.026,4.491,0.19,8.984,0.383,13.472c0.074,1.691,0.428,3.369,0.605,5.057
		c0.317,3.006,0.579,6.018,0.895,9.023c0.184,1.729-0.745,2.573-2.263,2.93c-0.85,0.2-1.725,0.302-2.593,0.412
		c-4.879,0.619-9.81,0.734-14.684,1.251c-7.257,0.768-14.172-0.102-20.845-2.897c-1.85-0.776-3.259-0.502-4.57,0.806
		c-1.473,1.471-3.212,1.823-5.206,1.547c-3.153-0.437-5.801,1.982-5.767,5.222c0.008,0.6-0.084,1.467,0.707,1.521
		c0.61,0.041,0.672-0.805,0.831-1.312c0.143-0.459,0.137-0.963,0.803-1.263c-0.07,0.514-0.143,0.935-0.184,1.359
		c-0.125,1.294-1.002,2.273-1.437,3.44c-0.282,0.76-0.294,1.366,0.497,1.72c0.859,0.385,0.825-0.483,1.086-0.888
		c0.336-0.517,0.618-1.067,1.069-1.859c0.155,1.626-0.837,2.61-1.012,3.813c-0.088,0.607-0.262,1.309,0.35,1.763
		c0.654,0.486,1.344,0.248,1.929-0.153c0.59-0.403,1.108-0.913,1.657-1.376c-0.004,0.569-0.279,0.978-0.396,1.427
		c-0.156,0.605-1.026,1.218-0.24,1.845c0.731,0.583,1.667,0.672,2.452,0.073c2.831-2.161,6.215-3.289,9.266-5.042
		c1.264-0.727,2.679-1.219,4.141-1.081c5.893,0.557,11.782,1.123,17.689,1.559c8.073,0.595,16.171,0.487,24.242,1.059
		c1.875,0.132,3.02-0.782,3.535-2.678c1.322-4.872,1.704-9.882,2.205-14.862c0.479-4.76,0.999-9.517,1.292-14.3
		c0.301-4.92,0.713-9.819-0.008-14.73c-0.311-2.117,0.035-4.171,0.703-6.222c-0.059,2.974-0.342,5.954,0.672,9.487
		c0.242-0.594,0.328-0.836,0.438-1.069c0.245-0.512,0.575-0.995,0.737-1.531c1.42-4.738,1.786-9.47-0.266-14.14
		c-1.858-4.229-6.438-6.677-11.021-6.081c-4.475,0.582-8.007,2.777-10.929,6.078c-4.445,5.024-4.73,9.068-2,14.687
		c0.874,1.798,2.375,3.13,4.303,3.975C253.125,84.406,251.332,80.162,249.922,75.869z M233.839,142.061
		c-0.188,4.25,0.518,8.366,0.891,12.499c0.451,5.008,1.426,9.966,1.418,15.021c-0.006,3.927,0.053,7.852,0.031,11.778
		c-0.008,1.547,0.555,2.276,2.181,2.66c4.623,1.094,9.293,0.711,13.938,0.654c4.068-0.05,8.128-0.563,12.112-1.491
		c1.041-0.243,1.643-0.716,1.906-1.948c0.7-3.252,1.919-6.352,3.691-9.187c1.006-1.609,1.876-3.236,2.271-5.121
		c0.676-3.231,0.84-6.43,0.416-9.742c-0.525-4.105-1.252-8.131-2.698-12.01c-0.582-1.56-1.497-3.018-2.788-3.951
		c-0.864-0.624-2.124,0.222-3.197,0.484c-0.24,0.059-0.504,0.018-0.754,0.054c-3.429,0.506-6.881,0.691-10.34,0.874
		C246.559,142.971,240.213,143.358,233.839,142.061z M257.893,14.738c-1.181,0.191-2.361-0.031-3.573,0.231
		c-4.284,0.925-8.137,2.871-12.021,4.772c-1.065,0.521-1.368,1.128-0.979,2.405c0.782,2.565,2.243,4.752,3.466,7.07
		c1.293,2.453,1.754,5.121,1.094,7.682c-0.77,2.987-1.426,5.99-1.64,9.028c-0.4,5.739,0.115,7.477,6.528,6.645
		c2.988-0.387,6.028-0.264,9.066,0.08c3.625,0.409,7.114,1.367,10.634,2.203c1.483,0.352,1.881-0.118,1.78-1.436
		c-0.164-2.134-0.324-4.269-0.541-6.397c-0.446-4.385-1.219-8.764-0.926-13.177c0.223-3.324-0.17-6.529-1.245-9.611
		C267.449,18.254,263.95,14.114,257.893,14.738z M244.343,106.081c-2.594,1.525-5.402,1.564-8.228,1.438
		c-0.975-0.044-2.106-1.17-2.735-0.532c-0.461,0.468,0.191,1.9,0.069,2.868c-0.246,1.97,0.779,2.383,2.451,2.691
		c1.621,0.299,3.255,0.365,4.868,0.523c3.969,0.388,7.967,0.223,11.952,0.08c1.018-0.037,1.584-0.402,1.354-1.777
		c-0.455-2.72-0.445-5.514-0.856-8.244c-0.585-3.898-0.072-7.843-0.66-11.739c-0.124-0.826-0.305-1.351-1.092-1.696
		c-5.093-2.229-8.065-11.625-3.85-17.021c1.575-2.017,3.201-3.97,5.118-5.696c-2.936,0.879-5.58,2.042-7.259,4.853
		c-1.317,2.205-2.968,4.208-4.454,6.313c-2.469,3.497-6.096,5.875-8.797,9.153c-2.946,3.574-4.707,7.45-3.274,12.146
		c1.401,4.592,4.281,7.897,10.26,7.42C240.967,106.719,242.593,105.981,244.343,106.081z M268.7,284.259
		c0.647,0.937,0.395,1.711,0.569,2.431c1.282,5.332-3.352,9.172-7.992,7.916c-2.294-0.62-4.073-2.015-5.482-3.807
		c-0.915-1.161,0.74-1.937,0.896-3.024c0.21-1.475-0.417-2.478-1.522-3.197c-1.06-0.689-1.765,0.296-2.42,0.87
		c-3.392,2.97-7.157,5.292-11.403,6.815c-3.642,1.305-7.298,2.57-10.937,3.887c-1.256,0.455-2.359,1.139-3.107,2.332
		c-1.104,1.764-0.885,3.199,0.817,4.388c0.563,0.392,1.186,0.71,1.812,0.994c2.935,1.332,6.073,1.849,9.235,2.284
		c4.62,0.636,9.214,1.128,13.813-0.259c2.005-0.605,4.038-1.382,6.233-0.657c1.899,0.627,3.817,0.456,5.76,0.033
		c4.898-1.062,6.993-3.521,6.88-8.537c-0.08-3.52-1.186-6.938-1.194-10.488C270.656,285.506,270.104,284.714,268.7,284.259z
		 M268.936,61.613c-0.882-2.371-1.655-4.464-2.44-6.552c-0.17-0.453-0.547-0.66-1.014-0.744c-2.772-0.498-5.516-1.214-8.363-1.145
		c-2.775,0.067-5.549,0.083-8.328,0.226c-4.146,0.212-4.898-0.882-5.168-3.846c-0.371-4.075,0.41-7.985,1.321-11.898
		c0.295-1.27,0.596-2.495,0.479-3.857c-0.342-3.946-3.097-6.765-4.483-10.455c-2.145,3.362-3.311,6.81-2.781,10.5
		c0.247,1.713-0.093,3.08-0.708,4.496c-0.494,1.142-1.063,2.286-1.801,3.278c-0.959,1.289-0.904,2.207,0.647,2.756
		c0.496,0.175,0.796,0.439,0.884,0.854c0.389,1.818,0.037,3.833,1.577,5.344c0.213,0.209,0.051,0.858-0.021,1.29
		c-0.387,2.314,0.292,3.188,2.548,3.204c0.693,0.005,1.406,0.054,2.081-0.073c4.475-0.843,8.676,3.555,7.781,8.073
		c-0.247,1.239-0.907,2.411-0.797,4.012C256.265,64.104,261.929,60.87,268.936,61.613z M245.248,142.142
		c4.055,0.31,8.085-0.197,12.115-0.439c2.61-0.156,5.235-0.454,7.822-1.028c1.61-0.357,1.262-0.907,0.57-1.814
		c-1.184-1.551-2.479-3.168-2.899-5.018c-0.534-2.359-2.079-2.693-3.905-2.708c-7.519-0.058-15.027-0.428-22.53-0.826
		c-1.793-0.095-2.055,0.768-2.19,2.155c-0.213,2.195-0.253,4.406-0.476,6.59c-0.194,1.911,0.679,2.414,2.246,2.719
		C239.071,142.368,242.169,142.034,245.248,142.142z M255.897,280.656c-0.118-1.068-0.362-2.199-0.34-3.325
		c0.031-1.586-0.486-1.604-1.792-1.056c-5.706,2.395-11.524,4.48-17.543,5.978c-2.171,0.54-4.451,0.61-6.516,1.603
		c-2.333,1.12-2.856,2.604-1.646,4.871c1.376,2.58,6.646,4.916,9.471,4.058c4.392-1.337,8.649-2.988,12.283-5.928
		c1.319-1.067,2.575-2.519,4.098-2.949C255.889,283.347,255.71,282.063,255.897,280.656z M171.111,149.051
		c0.32,3.621,1.167,7.822,3.64,11.53c1.227,1.839,2.589,1.776,3.738-0.062c1.562-2.495,1.833-5.31,1.934-8.121
		c0.156-4.336-0.474-8.521-3.042-12.202c-1.125-1.614-2.614-1.654-3.701-0.01C172.059,142.642,171.146,145.341,171.111,149.051z
		 M211.99,111.938c-0.076,1.256-0.077,1.277,0.996,1.299c2.772,0.059,5.519,0.388,8.271,0.699c1.193,0.134,1.75,0.547,1.58,1.764
		c-0.089,0.632,0.191,0.882,0.826,0.969c2.474,0.339,4.933,0.787,7.41,1.089c2.219,0.271,2.909-0.571,2.448-2.78
		c-0.102-0.485-0.223-1.014-0.234-1.461c-0.053-2.041-1.313-1.993-2.695-1.667c-2.005,0.472-4.032,0.309-6.032,0.19
		c-4.161-0.249-8.275-1.51-12.479-0.671c-1.553,0.31-3.389-0.181-4.91,1.457C209.032,112.789,210.624,113.32,211.99,111.938z
		 M175.297,122.266c3.398,1.112,6.945,0.725,10.388,1.615c-0.327,0.431-0.881,0.107-1.014,0.648c1.026,0.23,2.056,0.448,3.077,0.694
		c0.972,0.234,1.911,0.357,2.896,0.82c2.22,1.044,4.129-0.411,4.062-2.724c-0.047-1.656-1.551-1.599-2.472-1.703
		c-6.646-0.75-13.312-0.294-19.978-0.188c2.362,0.35,4.766,0.192,7.405,0.838C178.005,122.266,176.651,122.266,175.297,122.266z
		 M268.717,245.452c0.16-8.662-3.48-19.555-7.49-22.714C261.433,230.984,266.292,237.585,268.717,245.452z M233.556,112.829
		c0.864,1.106,0.713,2.109,0.926,3.07c0.22,0.993,0.475,1.322,1.512,1.169c2.233-0.327,4.483-0.54,6.729-0.783
		c3.624-0.39,7.246-0.775,10.873-1.135c0.528-0.053,0.8-0.188,0.792-0.777c-0.011-0.761-0.497-0.824-1.021-0.722
		c-1.119,0.219-2.233,0.353-3.38,0.364C244.645,114.067,239.316,113.938,233.556,112.829z M186.676,120.466
		c1.508,0.067,4.289,0.199,7.069,0.309c0.568,0.023,1.225,0.033,1.305-0.746c0.104-0.998-0.704-0.649-1.185-0.696
		c-5.947-0.573-11.895-1.124-17.841-1.7c-0.492-0.048-1.306-0.271-0.989,0.478c0.458,1.083,0.645,2.557,2.585,2.405
		C180.201,120.313,182.807,120.466,186.676,120.466z M182.403,117.232c3.766,0.833,7.503,0.887,11.193,1.296
		c2.477,0.274,2.969-0.338,3.017-2.86c0.017-0.862-0.108-1.19-1.167-0.966C191.19,115.606,186.907,116.372,182.403,117.232z
		 M273.647,73.286c0.062-2.087-0.94-4.676-2.29-7.573c-1.247-2.677-2.987-3.871-6.024-3.472c-2.465,0.323-6.327,1.241-7.507,2.256
		C266.127,63.112,271.359,64.799,273.647,73.286z M175.675,126.448c0-0.082-0.017-0.462,0.002-0.839
		c0.041-0.761,0.005-1.307-1.063-1.295c-1.17,0.013-0.784,0.807-0.754,1.296c0.136,2.228,0.043,4.473,0.954,6.624
		c0.506,1.191,0.795,2.544,0.848,3.837c0.064,1.563,1.185,0.948,1.878,1.116c1.09,0.264,0.789-0.661,0.858-1.206
		c0.099-0.781-0.241-1.454-0.554-2.147C176.815,131.568,175.511,129.379,175.675,126.448z M271.013,94.909
		c1.266-3.849,2.378-7.682,2.804-11.716C271.777,86.849,269.706,90.458,271.013,94.909z M157.612,138.453
		c-0.849,2.083-1.302,3.926-1.667,6.064c1.066-0.789,2.023-0.287,2.914-0.403C158.457,142.293,158.073,140.547,157.612,138.453z"/>
</g>
<g>
</g>
<g>
</g>
<g>
</g>
<g>
</g>
<g>
</g>
<g>
</g>
</svg>
