<?xml version="1.0" encoding="utf-8"?>
<!-- Generator: Adobe Illustrator 16.2.1, SVG Export Plug-In . SVG Version: 6.00 Build 0)  -->
<!DOCTYPE svg PUBLIC "-//W3C//DTD SVG 1.1//EN" "http://www.w3.org/Graphics/SVG/1.1/DTD/svg11.dtd">
<svg version="1.1" id="Layer_1" xmlns="http://www.w3.org/2000/svg" xmlns:xlink="http://www.w3.org/1999/xlink" x="0px" y="0px"
	 width="322px" height="319px" viewBox="0 0 322 319" enable-background="new 0 0 322 319" xml:space="preserve">
<ellipse cx="56.421" cy="56.438" rx="42.093" ry="42.105"/>
<g>
	<path fill="#FFFFFF" d="M45.156,67.207h6.623l3.592-21.5c-1.347,1.403-2.077,1.796-3.76,2.133
		c-1.291,0.225-1.796,0.281-4.546,0.281l1.179-7.017h0.617c4.321,0,7.913-1.853,9.877-5.108h6.229l-5.219,31.212h6.454l-1.123,6.512
		H44.09L45.156,67.207z"/>
</g>
<path fill="#010101" d="M262.252,46.962c-0.043-0.432-0.046-0.878,0-1.31c0.109-1.022-0.353-1.335-1.332-1.306
	c-1.853,0.057-3.708-0.012-5.561,0.027c-4.013,0.084-8.04-0.32-12.031,0.588c-1.051,0.239-2.605,0.574-3.291-0.208
	c-1.093-1.249-2.816-1.319-3.834-2.588c-0.501-0.624-1.303-0.739-1.812,0.165c0.008,0.002,0.016,0.005,0.023,0.007
	c-0.005,0.02-0.011,0.038-0.016,0.056c0.305-0.007,0.613-0.041,0.914-0.006c1.239,0.143,1.639,0.924,1.072,1.997
	c-0.289,0.545-0.52,1.121-0.775,1.684c0.015-0.009,0.028-0.018,0.044-0.025c-0.002,0.009-0.003,0.019-0.006,0.028
	c0.767-0.32,0.828-1.173,1.272-1.737c0.469-0.597,0.923-0.908,1.608-0.277c0.517,0.477,0.673,0.586,0.006,1.309
	c-0.676,0.733-1.523,1.637-1.687,2.842c-0.053,0.387-0.218,0.994-1.028,1.02c-0.117-1.046-0.439-2.073-0.171-3.158
	c-0.018,0.008-0.032,0.019-0.051,0.026c0.004-0.01,0.008-0.02,0.013-0.029c-0.789,0.426-0.579,1.145-0.489,1.816
	c0.107,0.808,0.341,1.756-0.79,1.923c-1.066,0.158-0.802-0.854-1.019-1.462c-0.787-2.208,0.563-3.998,1.087-5.95
	c-0.015,0-0.029,0.001-0.043,0.001c0.012-0.022,0.025-0.042,0.037-0.064c-0.68-0.146-0.67-1.224-1.362-1.176
	c-1.584,0.108-3.106,0.55-4.541,1.251c0,0.004,0,0.007,0,0.011c1.55-0.477,1.895-0.174,1.976,1.498
	c0.073,1.501-0.289,3.025,0.273,4.507c0.203,0.536-0.085,0.941-0.639,1.115c-0.617,0.194-0.754-0.304-0.894-0.687
	c-0.758-2.084-0.899-4.243-0.716-6.434c-0.021,0.005-0.038,0.011-0.059,0.016c0.02-0.008,0.039-0.017,0.059-0.027
	c0.001-0.011,0.001-0.022,0.002-0.034c-0.948,0.735-2.427,0.814-2.741,2.345c-0.09,0.444-0.653,0.292-1.013,0.293
	c-4.315,0.01-8.631-0.01-12.945,0.021c-0.788,0.005-1.073-0.249-1.013-1.031c0.146-1.955,0.133-3.929,0.428-5.859
	c0.119-0.775,0.138-1.678,1.481-2.152c1.791-0.632,2.699-5.745,0.941-6.875c-0.615-0.396-0.611-0.715-0.574-1.26
	c0.157-2.297-0.025-4.542-0.948-6.698c-1.369-3.196-3.577-5.505-7.11-5.916c-3.722-0.431-6.83,1.026-8.988,4.127
	c-1.673,2.404-2.057,5.187-1.962,8.068c0.018,0.558,0.235,1.123-0.55,1.662c-1.674,1.15-1.029,6.291,0.909,6.961
	c1.016,0.351,1.113,0.881,1.329,1.668c0.573,2.097,0.091,4.25,0.423,6.354c0.115,0.722-0.237,0.949-0.934,0.944
	c-3.824-0.022-7.648-0.022-11.472,0c-0.641,0.003-0.824-0.227-0.846-0.854c-0.041-1.211-0.631-1.89-1.887-1.34
	c-0.503,0.219-0.584,0.055-0.865-0.273c-1.174-1.375-3.209-0.648-4.526-1.765c-0.096-0.081-0.507,0.139-0.728,0.287
	c-0.825,0.559-1.789,0.711-2.707,1.014c-0.797,0.263-1.72,0.351-2.299,1.063c-1.124,1.384-2.511,2.036-4.325,1.874
	c-1.945-0.174-3.902-0.234-5.853-0.342c-1.197-0.066-2.528,0.334-3.334-1.039c-0.132-0.227-0.43-0.222-0.732-0.114
	c-2.882,1.032-5.888,0.837-8.867,0.81c-1.414-0.013-2.064,0.471-2.023,1.981c0.036,1.296,0.094,2.085,1.818,2.031
	c2.604-0.082,4.026,1.169,4.483,3.465c0.378,1.901,0.703,3.813,1.037,5.724c0.127,0.727-0.765,3.166-1.346,3.753
	c-0.885,0.894-0.283,3.358,0.727,4.077c1.045,0.743,2.306,1.298,2.642,2.884c1.971,9.314,4.037,18.608,6.068,27.91
	c0.099,0.456,0.357,0.963-0.217,1.297c-1.254,0.73-1.099,1.968-0.939,3.054c0.546,3.698,1.006,7.402,1.291,11.13
	c0.122,1.599,1.012,2.258,2.379,1.624c1.299-0.604,1.586-0.124,1.886,1.047c1.706,6.661,3.469,13.309,5.261,19.949
	c0.236,0.875,0.596,1.595-0.467,2.191c-0.394,0.22-0.283,0.785-0.122,1.207c1.154,3.029,1.705,6.22,2.429,9.356
	c0.938,4.069,1.773,8.155,0.8,12.391c-0.253,1.107-0.212,2.367,0.173,3.56c0.246,0.762,0.26,1.647-0.024,2.422
	c-1.943,5.3-2.29,10.883-2.771,16.412c-0.534,6.131-0.925,12.291-0.982,18.44c-0.07,7.538-0.359,15.071-0.375,22.605
	c-0.035,16.551-0.02,33.103,0.007,49.653c0.002,1.1-0.181,1.671-1.416,2.044c-2.638,0.802-4.856,2.343-6.475,4.662
	c-2.678,3.838-3.441,9.628-0.481,13.197c4.602,5.545,14.563,8.268,21.733,2.287c6.293-5.249,5.155-14.761-0.793-18.626
	c-1.794-1.166-3.79-1.786-5.853-2.211c-0.567-0.117-0.808-0.242-0.855-0.882c-0.147-2.013-0.316-4.016-0.314-6.041
	c0.009-9.503,0.131-19.004,0.307-28.506c0.186-10.102-0.032-20.208,0.164-30.313c0.289-14.905,0.449-29.816-0.075-44.721
	c-0.067-1.903-0.234-3.822,0.379-5.731c0.296,0.423,0.433,0.854,0.56,1.319c0.667,2.45,1.013,4.963,1.524,7.442
	c0.652,3.162,1.51,6.28,2.205,9.435c0.23,1.045-0.479,2.611,1.636,2.369c0.125-0.015,0.395,0.709,0.496,1.115
	c0.566,2.299,1.105,4.605,1.649,6.91c1.991,8.436,3.4,16.995,5.477,25.418c0.779,3.16,1.567,6.354,0.566,9.855
	c-0.911,3.186,0.188,5.427,4.512,5.053c2.225-0.194,4.441-0.352,6.674-0.31c1.802,0.034,3.608,0.055,5.395-0.241
	c0.618-0.103,1.174,0.03,1.75,0.224c2.201,0.742,4.486,0.779,6.767,0.661c2.166-0.112,3.631-1.25,3.949-2.755
	c0.791-3.736,1.547-7.484,2.481-11.186c2.558-10.149,5.195-20.279,7.821-30.412c0.231-0.895-0.037-2.457,1.842-1.591
	c0.356,0.163,0.543-0.401,0.631-0.789c0.084-0.37-0.216-0.84,0.448-1.235c-0.263,4.651-0.626,9.158-0.751,13.674
	c-0.395,14.351-0.528,28.709-0.959,43.06c-0.237,7.856-0.392,15.712-0.657,23.567c-0.284,8.398-0.329,16.805-0.647,25.206
	c-0.057,1.497-0.43,2.069-1.881,2.524c-3.109,0.97-5.271,3.104-5.66,6.451c-0.334,2.881,1.304,5.043,3.506,6.597
	c6.839,4.828,14.158,4.57,21.126,0.882c4.711-2.493,4.794-7.792,0.508-11.016c-3.018-2.272-6.439-3.441-10.123-3.971
	c-0.84-0.119-1.272-0.356-1.349-1.393c-0.163-2.234-0.122-4.437-0.042-6.677c0.316-8.831,0.799-17.655,1.029-26.486
	c0.225-8.675,0.543-17.354,0.607-26.028c0.077-10.7,0.529-21.402,0.175-32.101c-0.223-6.714-0.005-13.428-0.299-20.147
	c-0.304-6.939-0.072-13.889,0.863-20.816c0.832-6.161,2.727-12.14,2.899-18.421c0.07-2.561,0.808-5.103,1.276-7.648
	c0.672-3.655,1.402-7.301,2.05-10.96c0.182-1.027,0.396-1.465,1.633-1.118c2.162,0.605,2.549,0.139,2.655-2.192
	c0.146-3.208,0.439-6.41,0.577-9.618c0.052-1.21,0.629-2.719-0.504-3.556c-0.982-0.728-0.833-1.485-0.728-2.328
	c0.302-2.41,0.605-4.825,1.024-7.218c1.043-5.942,2.035-11.899,3.301-17.796c0.378-1.761-0.271-4.118,2.07-5.167
	c0.096-0.042,0.13-0.292,0.136-0.446c0.03-0.696,0.355-0.982,1.058-1.198c0.898-0.275,1.523-3.206,0.854-3.711
	c-1.36-1.025-1.596-2.499-1.545-3.992c0.051-1.551-0.188-3.589,0.668-4.538c1.785-1.973,3.939-3.896,6.896-4.041
	C262.03,48.277,262.348,47.917,262.252,46.962z M244.211,46.41c0.042-0.491-0.036-1.014,0.68-1.052
	c1.294-0.071,2.589-0.165,3.885-0.201c0.375-0.011,1.083-0.131,0.896,0.53c-0.145,0.514,0.129,1.442-0.868,1.484
	c-0.692,0.031-1.386,0.005-2.039,0.005c-0.632,0.131-1.215,0.119-1.814,0.032C244.445,47.134,244.16,46.987,244.211,46.41z
	 M239.81,45.833c0.573-0.13,1.186-0.083,1.856-0.117c0.564,0.33,1.797-0.471,1.844,0.515c0.051,1.058-1.152,0.455-1.801,0.567
	c-0.587,0.104-1.195,0.166-1.788,0.132c-0.421-0.024-1.136,0.382-1.214-0.323C238.645,46.061,239.37,45.934,239.81,45.833z
	 M230.756,44.097c0.05-0.613,0.153-1.185,0.423-1.722c0.307-0.608,0.682-1.136,1.515-0.908c0.837,0.229,0.703,0.989,0.908,1.576
	c-0.284,0.875-0.593,1.74-0.841,2.621c-0.2,0.711-0.52,1.384-0.085,2.19c0.31,0.574,0.048,1.224-0.708,1.348
	c-0.781,0.127-0.867-0.467-0.855-1.042C231.143,46.793,230.642,45.481,230.756,44.097z M225.5,46.438
	c0.23-0.764,0.643-1.484,1.059-2.173c0.175-0.291,0.172-0.867,0.649-0.816c0.547,0.061,0.753,0.595,0.895,1.054
	c0.39,1.262-0.543,2.215-1.088,3.685c0.898-0.914,1.394-1.522,1.552,0.042c0.129,1.279,0.776,2.202,2.473,1.471
	c0.649-0.279,1.544-0.276,2.481,0.338c1.099,0.721,2.584-0.106,3.367-1.045c0.705-0.845,1.482-0.869,2.124-0.585
	c0.62,0.275,0.333,1.18,0.182,1.78c-0.671,2.668-1.589,5.298-1.181,8.119c0.531,3.681,1.341,7.306,2.123,10.94
	c0.701,3.255,1.78,6.43,2.134,9.759c0.275,2.585-0.603,4.921-1.764,7.119c-0.751,1.421-2.123,2.664-3.754,2.395
	c-2.081-0.344-3.706-1.747-4.611-3.754c-0.883-1.961-0.516-4.091-0.673-6.14C231.112,74,232,69.38,231.739,64.753
	c-0.158-2.8-0.498-5.598-1.586-8.233c-0.161-0.389-0.258-0.835-0.698-1.045c0.392,2.384,1.078,4.699,1.409,7.109
	c0.338,2.46,0.428,4.929,0.166,7.324c-0.389,3.547-0.055,7.078-0.308,10.86c-2.13-2.443-4.64-4.423-5.764-7.395
	c-0.432-1.14-0.186-2.591-0.054-3.88c0.738-7.156-1.312-13.261-6.661-18.176c-0.353-0.324-0.639-0.721-0.974-1.104
	c3.808-1.355,6.775-0.485,9.324,2.536c0.77,0.913,1.212,2.246,2.648,2.465c-1.214-1.463-2.549-2.844-3.604-4.412
	C224.744,49.475,225.062,47.891,225.5,46.438z M220.549,99.833c0.308,2.747,0.615,5.489,1.05,8.217
	c0.185,1.163-0.165,1.568-1.457,1.579c-5.57,0.045-11.124-0.633-16.696-0.322c-5.562,0.36-11.131,0.176-16.698,0.241
	c-1.237,0.014-1.579-0.157-1.357-1.659c0.736-4.978,1.857-9.956,1.432-15.026c-0.412-4.896-1.415-9.709-2.754-14.442
	c-1.5-5.295-1.964-10.706-0.746-16.054c1.114-4.89,3.649-9.141,7.591-12.394c1.152-0.951,2.436-0.637,3.542,0.487
	c1.694,1.718,3.928,2.673,6.193,2.983c4.632,0.635,8.996,0.012,12.488-3.721c0.962-1.029,2.652-0.053,3.374,0.667
	c3.132,3.131,6.221,6.369,7.213,10.942c0.839,3.867,0.602,7.74,0.319,11.653c-0.308,4.263-2.293,8.084-2.872,12.238
	C220.497,90.065,219.996,94.918,220.549,99.833z M218.625,177.902c0.294,5.807-1.254,11.355-2.727,16.896
	c-0.903,3.395-1.509,6.842-1.823,10.337c-0.104,1.152-0.382,1.794-1.643,1.083c-1.114-0.629-2.096,0.108-3.112,0.34
	c-1.75,0.399-2.073,0.198-1.807-1.493c0.678-4.308,0.161-8.55-0.567-12.792c-1.122-6.539-1.614-13.085-0.177-19.847
	c0.602,0.583,0.353,1.455,1.509,1.786c-3.143-7.612-2.84-15.47-3.432-23.412c5.349,1.368,10.611,0.972,15.994,0.368
	c-0.263,1.347-0.435,2.681-1.094,3.816c-1.719,2.965-1.311,6.285-1.785,9.466C217.281,169.004,218.397,173.421,218.625,177.902z
	 M219.136,150.806c-4.117,0.282-8.234,0.699-12.361-0.187c-1.573-0.338-2.188-0.989-2.238-2.557
	c-0.203-6.474-0.941-12.928-0.688-19.419c0.018-0.449,0.159-0.997-0.617-1.305c0,2.632-0.067,5.178,0.015,7.719
	c0.118,3.609-0.599,7.107-1.2,10.629c-0.164,0.96-0.168,1.957-0.15,2.935c0.026,1.331-0.763,1.841-1.893,1.897
	c-4.232,0.209-8.461,0.796-12.705,0.062c-1.041-0.18-1.505-0.616-1.804-1.685c-1.468-5.253-1.875-10.63-2.292-16.035
	c-0.356-4.604,0.56-9.065,0.973-13.586c0.238-2.594,0.536-5.186,0.682-7.786c0.056-1.003,0.371-1.321,1.351-1.312
	c11.519,0.111,23.04-0.495,34.558,0.076c0.481,0.024,1.048-0.232,1.178,0.68c0.955,6.663,1.903,13.337,1.913,20.077
	c0.009,6.253-1.234,12.369-2.578,18.456C221.006,150.717,219.897,150.752,219.136,150.806z M200.146,174.521
	c0.833,4.869,0.729,9.656-0.034,14.533c-0.793,5.074-1.702,10.169-1.148,15.371c0.287,2.693-0.023,2.874-2.688,2.178
	c-0.26-0.067-0.507-0.182-0.762-0.268c-0.929-0.315-2.12,0.478-2.838-0.492c-0.595-0.803-0.36-1.91-0.474-2.85
	c-0.635-5.212-2.162-10.219-3.258-15.323c-1.036-4.83-0.95-9.677-0.239-14.569c0.509-3.499,0.453-7.052-0.047-10.574
	c-0.113-0.793-0.407-1.555,0.177-2.328c0.328-0.436-0.062-0.918-0.237-1.355c-0.997-2.489-1.796-5.04-2.486-7.831
	c4.92,0.931,9.562,0.54,14.197-0.054c0.817-0.106,1.325-0.144,1.316,0.961c-0.052,6.723,0.195,13.471-2.286,19.917
	C198.945,172.861,199.979,173.542,200.146,174.521z M194.493,48.834c0.302-0.936,1.316-0.509,2.021-0.521
	c2.289-0.045,4.579-0.017,6.869-0.017c2.562,0,5.125,0.012,7.686-0.01c0.624-0.004,1.295,0.059,1.547,0.608
	c0.232,0.507-0.455,0.786-0.756,1.129c-1.597,1.82-3.843,2.417-6.056,2.806c-3.39,0.595-6.656,0.035-9.608-1.877
	c-0.134-0.087-0.334-0.097-0.436-0.206C195.222,50.175,194.193,49.764,194.493,48.834z M213.431,48.296
	c3.651,0,6.857,0.003,10.063-0.003c0.559,0,1.167-0.048,1.083,0.772c-0.089,0.889-0.619,0.345-1.052,0.313
	c-1.877-0.136-3.719-0.651-5.654-0.18C216.515,49.53,215.098,49.328,213.431,48.296z M196.096,36.444
	c-0.143-0.854-0.612-1.621-0.337-2.64c-1.088,0.345-0.405,1.287-1.032,1.742c-1.278-1.34-1.587-2.973-1.638-4.701
	c-0.014-0.464,0.242-1.049,0.531-1.071c0.546-0.042,0.695,0.541,0.773,1.035c0.055,0.349-0.131,0.784,0.513,1.058
	c0.219-0.678,0.076-1.29-0.001-1.958c-0.433-3.72-0.415-7.371,1.949-10.594c2.627-3.586,9.524-5.647,13.475-0.033
	c1.964,2.792,2.521,5.948,1.904,9.304c-0.163,0.885-0.232,1.753,0.081,3.016c0.416-0.869,0.656-1.371,0.906-1.894
	c0.932,1.378,0.63,4.467-0.507,5.569c-0.17,0.165-0.334,0.268-0.569,0.189c-0.354-0.118-0.346-0.363-0.211-0.642
	c0.151-0.314,0.245-0.615-0.253-0.971c-0.308,0.55-0.5,1.018-0.572,1.56c-0.451,3.33-1.966,4.956-5.297,5.294
	c-2.093,0.213-4.232,0.2-6.31-0.363C197.497,39.802,196.421,38.391,196.096,36.444z M210.105,44.488
	c0.052,0.558-0.431,0.526-0.808,0.526c-3.812,0.003-7.622-0.01-11.433,0.014c-0.694,0.004-0.927-0.251-1.008-0.927
	c-0.167-1.412-0.207-2.816-0.118-4.403c3.248,2.314,11.008,2.498,13.588-0.392C210.737,41.12,209.945,42.791,210.105,44.488z
	 M184.636,45.722c3.927-0.017,7.855-0.027,11.782-0.034c2.564-0.004,5.128-0.001,7.692-0.001c0,0.023,0,0.047,0,0.069
	c6.492,0,12.983-0.007,19.474,0.019c0.443,0.002,1.231-0.41,1.268,0.508c0.033,0.844-0.703,0.635-1.21,0.685
	c-11.062,1.079-22.155,0.65-33.231,0.472c-1.88-0.032-3.877-0.281-5.819-0.452c-0.46-0.042-1.04,0.129-1.018-0.669
	C183.597,45.505,184.188,45.724,184.636,45.722z M184.085,48.29c2.961,0.014,5.922,0.006,8.884,0.006
	c-1.199,0.744-2.479,1.073-3.819,0.923c-1.674-0.186-3.327-0.437-5.003,0.02c-0.28,0.075-0.905,0.343-0.957-0.317
	C183.146,48.361,183.601,48.288,184.085,48.29z M175.119,41.435c1.395-0.478,1.849,0.492,2.083,1.522
	c0.466,2.049,1.421,4.129-0.071,6.164c0,0,0,0,0.001,0c1.196-1.014,1.709-2.239,1.194-3.796c-0.202-0.607-0.391-1.221-0.554-1.839
	c-0.143-0.545-0.24-1.165,0.455-1.364c0.611-0.177,1.283-0.022,1.447,0.695c0.478,2.094,0.817,4.217-0.35,6.215
	c-0.64,1.091-1.432,0.536-2.177,0.085c-0.004,0.001-0.009,0.002-0.014,0.004c0,0-0.002,0.001-0.002,0.002
	c0-0.001,0-0.002,0.001-0.002c-1.076,0.364-1.981,0.488-1.291-1.126c0.726-1.701-0.444-2.964-0.881-4.412
	C174.751,42.897,173.469,42.002,175.119,41.435z M163.424,45.795c1.832,0.019,3.669,0.27,5.494-0.103
	c-0.136-0.264-0.714-0.246-0.556-0.635c0.398-0.978,2.852-1.294,3.486-0.44c0.855,1.153,2.091,2.2,1.104,3.936
	c-0.305,0.536-0.568,0.819-1.149,0.714c0.001,0.01,0.002,0.02,0.003,0.03c1.9,1.277,2.642,1.276,3.307-0.013
	c-0.007-0.005-0.014-0.011-0.021-0.017c0.008-0.017,0.014-0.035,0.021-0.051c-0.538,0.039-0.738,1.161-1.579,0.406
	c-0.687-0.616-0.106-1.102,0.016-1.572c0.423-1.626-0.882-3.92-2.935-4.871c0.631-0.267,1.186-0.592,1.785-0.734
	c0.847-0.2,1.499-0.038,1.962,0.925c0.912,1.896,1.691,3.748,0.751,5.847c0.012-0.001,0.024-0.005,0.038-0.005
	c-0.013,0.026-0.026,0.048-0.038,0.072c0.924,0.8,2.186,0.419,3.232,0.898c0.44,0.2,0.953-0.49,1.389-0.925
	c0.63-0.627,0.004-2.062,1.457-2.137c0.209-0.01-0.116-0.429-0.242-0.648c-0.552-0.962-1.023-1.963-0.089-2.942
	c0.596-0.623,1.186-0.798,1.517,0.314c1.093,3.671,0.486,7.349-2.832,9.429c-1.148,0.72-2.419,1.686-2.848,3.213
	c1.923-2.029,4.433-3.448,5.976-5.886c0.663-1.048,1.965-0.753,2.99-0.923c1.329-0.221,2.661,0.106,4.328,0.315
	c-3.615,2.992-5.63,6.745-6.905,10.835c-1.114,3.574-1.341,7.319-0.892,11.072c0.037,0.308,0.052,0.675-0.076,0.94
	c-1.646,3.416-3.888,6.42-6.437,9.208c-0.761,1.809-1.032,3.858-2.703,5.214c-2.092,1.698-3.48,1.855-5.464,0.089
	c-1.967-1.748-2.914-4.226-3.173-6.734c-0.168-1.632,0.523-3.376,0.939-5.043c1.488-5.95,2.75-11.947,3.838-17.981
	c0.477-2.648-0.155-5.252-0.331-7.875c-0.031-0.468-0.747-1.145,0.087-1.337c0.711-0.165,1.608-0.378,2.299,0.254
	c0.228,0.208,0.244,0.619,0.632,0.684c0-0.006-0.001-0.015-0.002-0.022c-0.02-0.013-0.038-0.025-0.058-0.038
	c0.02,0.004,0.036,0.004,0.056,0.007c-0.074-1.205-0.488-2.267-1.312-3.168c-0.405-0.445-0.702-1.179-1.439-0.405
	c0.448,0.206,1.02,0.439,0.821,1.015c-0.178,0.515-0.772,0.192-1.167,0.196c-1.793,0.02-3.587-0.014-5.381-0.025
	c-0.375-0.003-0.959,0.386-0.955-0.383C162.373,45.856,162.884,45.79,163.424,45.795z M156.761,45.784
	c0.069-0.611,0.484-0.592,0.953-0.544c0.537,0.054,1.079,0.055,1.619,0.079c0,0.01,0,0.02,0,0.03c0.594,0,1.19,0.029,1.783-0.008
	c0.62-0.039,0.897,0.182,0.831,0.826c-0.051,0.482,0.01,0.878-0.719,1.003c-1.324,0.23-2.566-0.122-3.836-0.278
	C156.768,46.813,156.702,46.305,156.761,45.784z M151.645,45.003c0.435-0.176,1.239-0.394,1.372-0.215
	c1.043,1.397,1.534-0.395,2.317-0.346c0.181,0.012,0.375-0.187,0.63-0.326c0.714,2.14,0.581,2.304-1.537,2.555
	c-0.871,0.104-1.768-0.454-2.626,0.181c-0.287,0.212-0.499-0.133-0.471-0.417C151.381,45.945,150.933,45.292,151.645,45.003z
	 M150.119,47.082c-1.452,0.479-2.904,0.046-4.352,0.051c-0.5,0.002-0.537-0.623-0.515-1.055c0.026-0.521,0.196-0.965,0.851-0.961
	c0.653,0.005,1.305,0.001,1.958,0.001c0,0.005,0,0.011,0,0.016c0.651,0,1.305-0.032,1.955,0.01c0.615,0.04,0.765,0.479,0.79,1.032
	C150.83,46.703,150.614,46.919,150.119,47.082z M150.572,47.867c2.668-0.78,5.045-0.723,7.586-0.19
	c-0.537,0.507-0.979,0.204-1.387,0.174c-0.483-0.034-0.962-0.181-1.444-0.193c-0.484-0.012-0.925,0.177-1.227,0.523
	c-0.021,0.806,1.452-0.324,1.2,1.037c0.512,0.028,1.052-0.545,1.786-0.018c-1.291,0.406-2.341,1.257-3.687,1.168
	C151.855,50.267,152.035,48.367,150.572,47.867z M152.43,56.962c-0.23-1.652-0.567-3.29-0.883-4.931
	c-0.157-0.806-0.206-1.201,0.907-0.862c0.844,0.257,1.92,0.278,2.737-0.024c1.312-0.485,1.416,0.067,1.593,1.118
	c0.321,1.906,0.817,3.781,1.197,5.476c0.071,0.682-0.009,1.033-0.621,1.087c-0.591,0.051-1.173,0.208-1.76,0.318
	C152.774,59.676,152.808,59.671,152.43,56.962z M163.072,96.098c-2.151,0.893-2.205,0.852-2.675-1.352
	c-2.146-10.048-4.198-20.117-6.563-30.119c-0.23-0.969-0.669-2.31,1.371-2.216c1.107,0.05,2.472-0.967,3.305-0.589
	c0.996,0.453,0.69,2.095,0.891,3.236c1.396,7.956,2.79,15.913,4.194,23.868c0.4,2.267,0.833,4.526,1.255,6.814
	C164.235,95.993,163.645,95.861,163.072,96.098z M171.381,135.386c-0.915,0.187-0.73-0.684-0.834-1.062
	c-1.686-6.083-3.322-12.179-4.955-18.275c-0.25-0.936-0.485-1.853,0.483-2.632c0.954-0.768,0.626-2.147,1.345-3.163
	c1.489,7.961,2.959,15.859,4.455,23.749C171.99,134.613,172.271,135.2,171.381,135.386z M169.294,218.444
	c0.073-6.112,0.083-12.231,0.302-18.342c0.218-6.048,0.633-12.089,0.97-18.133c0.009-0.153,0.109-0.301,0.167-0.45l-0.027,0.052
	c0.138-2.007,0.291-4.015,0.41-6.024l1.117-6.38c0.346-1.184,0.71-2.364,1.317-3.529c0.567,13.31,0.526,26.607,0.319,39.909
	c-0.136,8.736-0.166,17.475-0.19,26.213c-0.031,10.812-0.008,21.625-0.289,32.454c-0.006-0.037-0.014-0.074-0.021-0.112
	l-0.034,1.265c-1.085,0.63-3.213-0.114-3.907-0.33c-0.073-0.019-0.148-0.038-0.222-0.057c-0.112,0.017-0.045-3.024,0-4.708
	C169.205,246.329,169.127,232.385,169.294,218.444z M169.183,267.084c0.746,0.855-0.361,2.312,1.195,2.454
	c0.96,0.088,1.958,0.212,2.871-0.47c0.413,2.188,0.58,4.325,0.315,6.583c-0.959-0.709-1.952-0.407-2.821-0.074
	c-1.438,0.553-1.601-0.084-1.576-1.279C169.218,271.966,169.183,269.634,169.183,267.084z M169.155,295.178
	c1.56-0.176,2.989,0.055,4.501,0.306C172.457,296.14,170.77,296.022,169.155,295.178z M181.018,281.201
	c2.529,3.142,1.979,7.805-1.232,10.277c-2.165,1.667-4.599,2.819-7.467,2.678c-2.895-0.15-5.724-0.596-7.934-2.691
	c-3.408-3.233-2.925-8.983,0.829-11.827c1.572-1.19,3.275-1.633,5.188-1.814C174.449,277.441,178.252,277.767,181.018,281.201z
	 M187.539,199.807c-1.535-6.437-3.021-12.885-4.405-19.356c-0.185-0.861-1.299-2.382,0.83-2.761c0.48-0.085,0.115-0.508,0.026-0.789
	c-2.114-6.669-3.854-13.446-5.464-20.246c-1.451-6.122-2.545-12.329-3.771-18.501c-0.104-0.526-0.075-1.096-0.014-1.634
	c0.093-0.825-0.278-1.322-1.043-1.314c-1.017,0.01-1.116-0.698-1.246-1.366c-1.958-10.157-3.87-20.321-5.888-30.464
	c-0.2-1.004,0.39-1.688,0.499-2.546c0.247-1.946-0.244-3.446-1.461-4.861c-0.643-0.746-0.495-1.766-0.658-2.641
	c-1.363-7.312-2.628-14.641-3.92-21.965c-0.243-1.381-0.516-2.759-0.698-4.149c-0.177-1.347,0.734-2.477,1.249-3.531
	c0.47-0.964,0.439-1.778,0.302-2.574c-0.27-1.568-1.409-2.625-2.79-3.311c-0.452-0.226-0.66-0.394-0.761-0.88
	c-0.392-1.892-0.852-3.77-1.258-5.658c-0.142-0.661,0.135-1.058,0.77-1.419c2.886-1.645,6.017-1.637,9.184-1.556
	c0.898,0.023,1.005,0.551,1.163,1.241c0.924,4.051,0.521,8.019-0.427,12.02c-1.463,6.181-2.749,12.403-4.128,18.603
	c-0.154,0.69,0.054,1.303,0.291,1.897c0.851,2.132,1.295,4.505,3.369,5.948c2.761,1.919,6.323,1.2,7.472-1.959
	c1.657-4.561,5.448-7.625,7.617-11.84c0.835,4.361,2.212,8.524,2.967,12.834c0.839,4.796,1.04,9.528,0.315,14.384
	c-0.693,4.647-1.441,9.296-1.796,14.002c-0.358,4.754-1.126,9.478-1.507,14.232c-0.164,2.041,0.185,4.125,0.319,6.187
	c0.491,7.546,2.763,14.701,4.583,21.979c1.297,5.187,1.488,10.604,0.629,16.011c-1.037,6.533-0.157,12.963,1.669,19.277
	c1.233,4.264,1.708,8.669,2.502,13.018c0.167,0.915-0.647,1.555-0.647,2.473c0,1.377-0.466,2.725-0.574,4.154
	C189.735,208.431,188.571,204.135,187.539,199.807z M201.084,219.941c0.577,4.161,0.435,4.99-3.58,5.606
	c-1.495,0.229-3.014,0.298-4.522,0.44c-3.628,0.252-3.985-2.067-3.283-5.174c0.519-2.293,1.681-4.42,1.875-6.818
	c0.141-1.729,0.421-3.447,0.502-5.176c0.066-1.412,0.766-1.867,2.065-1.9c0.835-0.021,1.64,0.119,2.375,0.403
	c1.055,0.408,2.086,0.42,2.96-0.171c0.826-0.56,1.031,0.04,1.05,0.484c0.141,3.346,1.706,6.617,0.485,10.052
	C200.773,218.357,200.978,219.176,201.084,219.941z M204.573,222.241c-0.034,0.887-0.58,0.79-1.107,0.749
	c-0.581-0.044-1.46,0.325-1.466-0.757c-0.011-2.022-0.817-4.012,0.122-6.089c0.563-1.244-0.267-2.653-0.264-4.022
	c0.001-1.334-0.355-2.672-0.59-4.003c-0.102-0.581-0.11-1.328-0.473-1.685c-1.804-1.78-1.404-4.046-1.308-6.125
	c0.271-5.85,1.45-11.609,2.055-17.428c0.283-2.72-0.375-5.409-0.747-8.091c-0.267-1.925-0.575-3.739,0.102-5.702
	c1.14-3.307,1.185-6.831,1.323-10.284c0.162-4.084-0.043-8.187,0.386-12.262c0.158-1.492,0.496-2.965,0.801-4.736
	c0.805,3.33,0.48,6.402,0.773,9.432c0.611,6.31,0.386,12.706,2.023,18.903c0.283,1.071-0.206,2.012-0.333,3.013
	c-0.604,4.706-0.975,9.418-0.326,14.151c0.477,3.478,0.952,6.957,1.482,10.426c0.384,2.519,0.776,5.437-0.378,7.392
	c-1.833,3.104-1.484,6.365-2.165,9.535c-0.095,0.447-0.127,0.874,0.051,1.276C205.464,218.037,204.653,220.137,204.573,222.241z
	 M214.06,226.263c-0.528,0.095-1.088,0.014-1.883,0.014c-0.947,0.032-2.118-0.089-3.307-0.298c-3.287-0.583-4.077-1.898-3.484-5.44
	c0.218-1.308,0.21-2.446,0.004-3.746c-0.497-3.127,0.059-6.235,0.771-9.297c0.078-0.331,0.171-0.724,0.607-0.423
	c1.293,0.894,2.544,0.118,3.716-0.191c2.279-0.605,4.284,0.969,4.306,3.324c0.034,3.545,0.16,7.161,2.012,10.398
	c0.348,0.609,0.507,1.279,0.559,2.011C217.558,225.403,216.325,225.857,214.06,226.263z M229.069,284.055
	c0.049-0.532,0.49-0.635,0.955-0.697c1.112-0.148,2.151-0.504,3.176-1.291c0.375,0.904,0.407,1.719,0.43,2.529
	c0.024,0.813,0.005,1.628,0.005,2.467c-0.746,0.075-1.34-0.449-2.15-0.352C230.313,286.85,228.961,285.214,229.069,284.055z
	 M234.719,289.765c3.466-0.203,7.127,0.658,9.844,3.292c1.671,1.619,1.252,4.145-0.758,5.456c-2.2,1.433-4.684,1.862-7.923,1.86
	c-3.007-0.18-6.525-0.789-9.532-3.127c-1.501-1.169-2.377-2.811-2.005-3.956c0.518-1.59,2.555-2.792,4.371-3.031
	C230.71,289.993,232.785,289.877,234.719,289.765z M235.446,205.081c-0.102,10.756-0.244,21.511-0.499,32.264
	c-0.256,10.747-0.63,21.492-1.049,32.233c-0.07,1.792-0.369,3.594-0.223,5.385c0.129,1.563-0.41,2.212-1.969,2.009
	c-0.316-0.042-0.642-0.007-1.005-0.1l-1.473-0.146c1.328-32.755,0.92-65.562,3.029-98.301c0.041-0.744,0.119-2.128,0.145-2.285
	c0,0,0.137-0.974,2.248-0.626c0,0,0.43,0.021,0.553,0.472c0,0,0.135,5.384,0.124,6.811c0.072,3.662-0.198,7.339,0.166,10.99
	C235.868,197.542,235.481,201.317,235.446,205.081z M233.468,168.611c0.244-0.981,0.498-1.958,0.742-2.92
	c0.764,0.076,0.823,0.57,0.831,1.071c0.024,1.566,0.049,3.132,0.038,4.698c-0.003,0.282,0.079,0.81-0.247,0.806
	c-0.332-0.004-0.811-0.112-0.956-0.659C233.615,170.62,233.205,169.663,233.468,168.611z M235.376,132.28
	c-0.065,0.441-0.043,1.066-0.491,1.107c-1.453,0.134-1.103,1.153-1.162,2.028c-0.421,6.213-1.729,12.275-3.06,18.343
	c-0.634,2.893-0.528,5.899-1.394,8.808c-1.165,3.916-1.896,7.958-2.879,11.929c-0.362,1.465-0.66,3.221-0.138,4.335
	c1.058,2.257,0.312,4.189-0.131,6.236c-0.479,2.208-1.061,4.396-1.602,6.591c-2.199,8.932-4.72,17.778-7.177,26.64
	c-0.08,0.286-0.188,0.497-0.512,0.687c-0.587-1.442-1.033-2.881-1.154-4.454c-0.194-2.514-0.02-5.06-1.126-7.495
	c-0.388-0.853,0.089-2.116,0.225-3.184c0.733-5.739,2.495-11.253,3.684-16.893c0.974-4.618,1.146-9.247,0.281-13.903
	c-0.633-3.408-0.303-6.814,0.045-10.227c0.708-6.951,3.724-13.371,4.592-20.287c0.669-5.333,1.405-10.619,0.957-16.053
	c-0.441-5.351-1.102-10.667-1.763-15.988c-0.48-3.87-1.044-7.726-1.546-11.592c-0.09-0.701-0.089-1.416-0.077-2.124
	c0.103-6.355,0.531-12.659,2.84-18.688c0.415-1.083,0.566-2.27,0.889-3.619c1.301,2.236,2.966,3.934,4.614,5.663
	c0.929,0.974,1.494,2.23,1.832,3.58c0.478,1.91,1.527,3.42,3.247,4.486c2.619,1.625,5.32,0.931,6.757-1.864
	c0.616-1.197,1.146-2.441,1.447-3.762c0.082-0.364,0.222-0.446,0.528-0.269c0-0.001,0-0.003,0.001-0.004
	c0.001-0.018,0.003-0.035,0.004-0.052c-0.269-7.319-2.89-14.185-4.125-21.319c-0.693-4.002-0.311-7.872,0.856-11.714
	c0.165-0.544,0.234-0.962,0.999-0.946c2.275,0.049,4.559-0.059,6.556,1.358c0.412,0.291,0.862,0.459,0.741,1.091
	c-0.364,1.906-0.685,3.818-1.089,5.713c-0.113,0.527-0.296,0.941-1.106,1.106c-1.852,0.378-2.985,4.048-2.113,5.735
	c0.99,1.914,1.535,3.914,1.068,6.207c-0.857,4.21-1.44,8.478-1.786,12.769c0,0.02,0.003,0.04,0.003,0.061
	c-0.003-0.001-0.005-0.002-0.008-0.004c-0.5,3.744-0.962,7.486-1.531,11.211c-0.219,1.433,0.074,2.913-1.423,4.169
	c-0.987,0.829-0.708,2.75-0.828,4.19c-0.48,5.721-0.964,11.438-1.917,17.109C236.663,123.41,236.036,127.847,235.376,132.28z
	 M241.882,117.88c-0.853,4.748-2.183,9.402-2.642,14.23c-0.154,1.617-1.884,2.225-3.206,1.265c-0.379-0.276-0.098-0.581-0.053-0.876
	c0.626-4.072,1.274-8.141,1.874-12.216c0.583-3.969,1.181-7.938,1.446-11.947c0.092-1.392,0.5-2.742,0.619-4.144
	c0,1.895,0.263,3.838-0.072,5.673c-0.348,1.905,0.357,3.49,1.4,4.605C242.367,115.664,242.087,116.744,241.882,117.88z
	 M251.725,63.18c-0.291,2.185-0.757,4.346-1.132,6.521c-1.355,7.869-3.109,15.669-4.095,23.603
	c-0.179,1.445-0.489,2.875-0.755,4.409c-0.141,0.016-0.2,0.038-0.249,0.024c-4.067-1.144-3.993-1.179-3.187-5.908
	c0.672-3.945,1.049-7.94,1.587-11.908c0.58-4.282,1.188-8.558,1.797-12.835c0.229-1.603,0.467-3.207,0.751-4.8
	c0.163-0.909,0.272-1.857,1.562-0.7c0.498,0.446,1.734,0.303,2.264,0.165C251.915,61.319,251.838,62.327,251.725,63.18z
	 M252.714,51.294c-0.86-0.007-1.72-0.024-2.581-0.036c0.013,0.02,0.022,0.037,0.037,0.058c-0.009-0.003-0.017-0.008-0.024-0.013
	c0.769,1.159,2.051,0.674,3.139,0.943c-0.193,1.811-0.373,3.628-0.587,5.442c-0.097,0.821-0.202,1.713-1.437,1.131
	c-0.046-0.022-0.107-0.013-0.162-0.02c-4.052-0.42-4.077-0.427-3.094-4.392c0.183-0.735,0.347-1.536,0.358-2.213
	c0.029-1.784,0.805-1.399,1.783-0.892c-0.011-0.015-0.022-0.028-0.034-0.045c0.007,0,0.015,0,0.021,0.001
	c-0.6-0.926,0.52-0.756,0.881-1.223c-1.035-0.4-2.233-0.283-3.172-1.139c1.498-1.152,3.081-1.446,4.889-1.176
	c-0.328,0.612-1.136,0.282-1.351,0.935c0.293,0.582,0.877,0.325,1.265,0.285c1.158-0.118,0.881,1.248,1.654,1.475
	C253.998,51.118,253.406,51.301,252.714,51.294z M255.069,47.033c-0.753-0.009-1.507-0.003-2.261-0.003c0-0.016,0-0.031,0-0.046
	c-0.594,0-1.191,0.028-1.782-0.011c-0.363-0.023-0.921,0.225-0.915-0.523c0.005-0.55,0.144-1.008,0.758-1.038
	c1.398-0.069,2.799-0.101,4.199-0.107c0.525-0.002,0.786,0.403,0.762,0.87C255.807,46.598,255.66,47.04,255.069,47.033z
	 M260.868,46.927c-1.132,0.046-2.262,0.1-3.392,0.167c-0.562,0.034-1.113,0.123-1.125-0.719c-0.009-0.704,0.244-1.158,0.996-1.196
	c0.43-0.023,0.863-0.004,1.627-0.004c0.483-0.078,1.281,0.05,2.078,0.208c0.486,0.096,0.535,0.459,0.528,0.862
	C261.573,46.72,261.32,46.909,260.868,46.927z"/>
<g>
</g>
<g>
</g>
<g>
</g>
<g>
</g>
<g>
</g>
<g>
</g>
</svg>
