<?xml version="1.0" encoding="utf-8"?>
<!-- Generator: Adobe Illustrator 16.2.1, SVG Export Plug-In . SVG Version: 6.00 Build 0)  -->
<!DOCTYPE svg PUBLIC "-//W3C//DTD SVG 1.1//EN" "http://www.w3.org/Graphics/SVG/1.1/DTD/svg11.dtd">
<svg version="1.1" id="Layer_1" xmlns="http://www.w3.org/2000/svg" xmlns:xlink="http://www.w3.org/1999/xlink" x="0px" y="0px"
	 width="590px" height="319px" viewBox="0 0 590 319" enable-background="new 0 0 590 319" xml:space="preserve">
<path d="M150.682,78.391c0,35.189-28.524,63.714-63.716,63.714c-35.188,0-63.714-28.525-63.714-63.714
	c0-35.189,28.527-63.715,63.714-63.715C122.158,14.676,150.682,43.202,150.682,78.391z"/>
<g>
	<path fill="#FFFFFF" d="M66.347,93.068c6.627-4.248,13.764-10.025,19.116-15.548c5.522-5.777,8.411-10.96,8.411-15.293
		c0-3.229-1.954-5.353-4.843-5.353c-3.993,0-6.372,3.398-7.562,10.79l-11.13-2.549c1.189-11.045,8.666-18.267,19.031-18.267
		c10.195,0,16.907,6.202,16.907,15.633c0,6.372-2.719,12.064-8.751,18.097c-3.568,3.653-5.268,4.928-15.208,11.725
		c-0.68,0.425-1.614,1.104-2.889,2.039h22.515l-1.784,10.195H64.647L66.347,93.068z"/>
</g>
<g>
	<g>
		<path fill-rule="evenodd" clip-rule="evenodd" d="M231.51,161.151c0.036,0.316,0.067,0.631,0.101,0.947
			c0.017,0.029,0.038,0.056,0.058,0.084L231.51,161.151z"/>
		<path fill-rule="evenodd" clip-rule="evenodd" d="M236.113,160.714c-0.023-0.239-0.046-0.485-0.069-0.72l0.051,0.772
			C236.101,160.75,236.108,160.732,236.113,160.714z"/>
	</g>
	<path fill-rule="evenodd" clip-rule="evenodd" d="M355.179,25.806c0.82-3.478-0.089-7.237,1.746-10.56
		c0.252-0.456,0.237-1.101-0.33-1.487c-0.622-0.425-1.198-0.204-1.667,0.243c-3.329,3.164-6.467,6.378-7.224,11.285
		c-0.276,1.795,0.112,4.229-2.479,5.099c-0.357,0.119-0.559,0.908-0.699,1.424c-1.145,4.198-2.193,8.424-3.418,12.599
		c-0.395,1.351-0.358,2.389,0.782,3.251c0.492,0.373,0.487,0.897,0.335,1.331c-1.524,4.327-1.726,8.926-2.778,13.347
		c-2.241,9.404-4.445,18.817-6.775,28.199c-2.082,8.384-3.811,16.856-6.271,25.146c-0.519,1.746-1.173,3.099-3.414,2.539
		c-0.96-0.24-1.942,0.084-2.887,0.347c-0.819,0.229-1.248,0.335-1.494-0.888c-1.084-5.373-4.379-8.75-9.709-10.177
		c-3.27-0.875-6.562-1.726-9.744-2.867c-5.81-2.083-6.653-3.422-6.625-9.444c0-0.246-0.041-0.5,0.007-0.735
		c0.282-1.4,0.109-3.438,0.97-4.073c2.474-1.83,2.351-4.37,2.678-6.832c0.133-0.992,0.191-2.175-1.371-2.269
		c-0.555-0.033-0.458-0.515-0.426-0.835c0.132-1.304-0.27-2.546-0.387-3.821c-0.667-7.235-8.238-11.048-12.975-9.627
		c-4.084,1.225-7.777,3.068-8.936,7.689c-0.524,2.095-0.117,4.272-0.213,6.409c-0.021,0.469,0.348,1.206-0.498,1.338
		c-1.208,0.189-1.258,1.326-1.221,1.975c0.144,2.579,0.894,5.002,2.877,6.833c0.254,0.235,0.595,0.317,0.701,0.735
		c0.623,2.442,1.725,4.733,1.594,7.4c-0.073,1.517-0.571,2.295-1.813,2.958c-4.462,2.376-9.117,4.135-14.075,5.234
		c-4.95,1.097-8.035,4.335-9.223,9.285c-0.393,1.638-0.639,3.312-0.981,5.118c-1.649-1.039-3.399-2.308-5.171-2.09
		c-3.846,0.472-4.154-2.231-4.974-4.68c-0.277-0.822-0.25-1.679-0.424-2.498c-2.095-9.873-4.481-19.677-6.419-29.594
		c-1.612-8.25-2.508-16.675-5.224-24.714c-0.825-2.444-1.274-5.075-1.469-7.652c-0.154-2.062-2.091-4.392,0.521-6.303
		c0.251-0.183,0.185-0.954,0.097-1.419c-0.847-4.52-1.714-9.035-2.627-13.542c-0.114-0.564-0.309-1.357-0.961-1.469
		c-1.587-0.271-1.572-1.637-1.481-2.545c0.519-5.257-2.902-8.832-5.27-12.854c-0.523-0.887-1.501-1.18-2.446-1.492
		c-1.054-0.349-1.564,0.029-1.549,1.072c0.043,2.736,0.067,5.448,0.468,8.198c0.455,3.123,2.327,6.31,0.303,9.558
		c-0.162,0.26-0.054,0.729,0.014,1.084c0.765,3.982,1.785,7.915,2.227,11.963c0.114,1.056,0.439,2.199,1.454,2.866
		c0.787,0.517,0.981,1.191,1.105,2.124c0.336,2.522,1.116,4.996,1.318,7.521c0.168,2.087,1.627,4.292-0.181,6.351
		c-0.091,0.102-0.03,0.357-0.003,0.535c0.241,1.561,0.407,3.138,0.754,4.675c1.701,7.538,2.837,15.186,4.488,22.74
		c1.008,4.609,0.911,9.462,1.304,14.205c0.276,3.347,0.516,6.697,0.821,10.042c0.44,4.859,0.961,9.711,1.369,14.573
		c0.125,1.494,0.141,2.984-0.351,4.494c-2.108,6.465-1.912,12.702,2.181,18.456c0.293,0.412,0.364,0.874,0.417,1.378
		c0.487,4.6,0.988,9.199,1.522,13.793c0.571,4.897,1.218,9.787,1.77,14.687c0.545,4.841,0.972,9.696,1.528,14.537
		c0.679,5.923,1.479,11.833,2.152,17.758c0.673,5.928,1.271,11.866,1.862,17.803c0.103,1.042,1.389,2.41-0.659,3.03
		c-0.079,0.023-0.114,0.492-0.027,0.692c0.361,0.819,0.225,1.693,0.354,2.534c1.114,7.208,2.149,14.425,2.959,21.676
		c0.177,1.583-0.011,3.526,1.999,4.416c0.274,0.121,0.365,0.745,0.467,1.155c1.792,7.218,5.131,13.744,9.029,20.006
		c2.302,3.7,2.348,3.724-0.403,7.144c-0.191,0.238-0.43,0.438-0.626,0.672c-1.806,2.167-4.142,3.819-5.796,6.145
		c-2.91,4.091-0.927,7.781,2.839,8.342c2.949,0.438,5.667,0.105,8.417-0.799c1.365-0.449,2.329-1.286,2.846-2.615
		c0.512-1.317,1.479-2.187,2.642-2.924c0.87-0.551,1.901-0.904,2.54-1.759c0.656-0.878,1.29-0.733,2.163-0.293
		c3.348,1.691,6.966,2.561,10.674,2.718c6.791,0.287,12.976-1.645,18.47-5.694c1.272-0.94,2.543-1.883,3.984-2.951
		c-0.945,3.622,0.321,6.208,3.546,7.392c1.322,0.487,2.442,1.104,2.997,2.45c2.308,5.61,7.279,6.87,12.519,5.149
		c4.383-1.44,5.287-4.009,2.636-7.677c-1.836-2.541-4.069-4.738-6.241-6.987c-1.763-1.828-2.953-3.977-3.252-6.539
		c-0.103-0.878-0.421-1.706-0.937-2.337c-1.583-1.944-1.285-4.069-0.348-5.973c2.719-5.524,4.839-11.25,6.415-17.186
		c0.108-0.409,0.023-1.052,0.475-1.097c1.773-0.179,1.498-1.49,1.872-2.697c2.345-7.604,2.365-15.591,4.028-23.299
		c0.065-0.305,0.23-0.643-0.133-0.778c-1.484-0.55-1.042-1.57-0.82-2.683c0.38-1.902,0.584-3.84,0.862-5.763
		c0.777-5.35,1.533-10.702,2.336-16.048c0.793-5.282,1.663-10.553,2.448-15.837c0.908-6.127,1.738-12.266,2.643-18.394
		c0.814-5.521,1.661-11.039,2.535-16.553c0.497-3.132,0.492-6.445,3.219-8.803c0.563-0.487,0.871-1.309,1.201-2.022
		c2.4-5.193,2.343-10.486,0.501-15.805c-0.455-1.307-0.681-2.6-0.481-3.949c0.721-4.861,1.455-9.721,2.214-14.577
		c1.45-9.292,2.869-18.588,4.397-27.867c1.283-7.786,1.778-15.691,4.002-23.339c1.62-5.571,2.738-11.288,4.052-16.947
		c0.355-1.53,1.002-3.151,0.767-4.61c-0.179-1.117,0.106-1.605,0.54-2.496c0.949-1.942,2.162-4.367,1.05-6.238
		c-0.978-1.646-0.449-2.855-0.347-4.281C354.958,26.755,355.067,26.277,355.179,25.806z M327.753,118.753
		c0.331-6.811,1.945-13.321,3.511-19.863c2.873-11.997,5.908-23.956,8.725-35.966c0.436-1.86,1.165-2.424,2.928-2.239
		c1.057,0.111,2.017,0.43,2.977,0.816c0.388,0.156,0.826,0.32,0.809,0.484c-0.709,2.853-1.296,5.326-1.94,7.783
		c-3.397,12.942-6.747,25.896-10.25,38.808c-1.24,4.576-2.051,9.157-1.818,13.9c0.035,0.695,0.028,1.515-0.551,1.851
		c-0.578,0.333-1.04-0.475-1.594-0.695C328.316,122.745,327.62,121.472,327.753,118.753z M320.687,123.676
		c2.496-1.295,5.657-0.515,8.5,1.412c3.217,2.182,2.109,5.076,1.905,7.856c-0.24,3.281-0.571,6.559-1.003,9.819
		c-0.265,1.989-0.191,4.006-0.66,5.98c-0.181,0.761-0.547,0.983-1.401,1.104c1.172-1.705,1.252-3.286,0.925-5.207
		c-0.342-1.998-1.391-3.541-2.125-5.29c-0.308-0.736-0.819-1.415-1.399-1.607c-1.612-0.536-2.13-2.112-3.293-3.019
		c-0.813-0.634-0.31-1.379-0.369-2.004c-0.228-2.394-0.708-4.693-1.899-6.786C319.199,124.763,319.629,124.224,320.687,123.676z
		 M327.61,149.309c-0.846,0.688-1.549,0.406-2.015-0.136c-0.558-0.646,0.004-1.276,0.671-1.466c1.249-0.356,1.047-1.872,2.318-2.5
		C328.598,146.763,329.016,148.167,327.61,149.309z M326.433,140.414c-0.099,2.111-0.974,3.912-1.508,5.803
		c-0.119,0.42-0.455,0.387-0.727,0.258c-0.662-0.313-1.577-0.68-1.398-1.492c0.47-2.12,0.174-4.251,0.356-6.365
		c0.086-0.992,0.521-1.234,1.538-0.687C325.805,138.529,326.221,139.406,326.433,140.414z M319.261,126.286
		c1.144,2.201,1.676,4.543,1.748,6.988c0.016,0.506-0.091,0.997,0.312,1.345c2.147,1.855,1.469,4.172,1.133,6.461
		c-0.117,0.793-0.349,1.255-1.239,1.139c-0.847-0.111-1.444-0.584-1.385-1.412c0.123-1.697-0.479-3.221-1.119-4.782
		c0.2,1.814,0.229,3.669,0.654,5.429c0.401,1.661,1.853,1.598,3.242,1.218c-0.429,3.638-0.386,3.728,2.069,4.478
		c1.44-0.738,1.098-2.363,1.716-3.517c0.349-0.651,0.371-1.479,0.583-2.424c1.48,1.139,1.165,2.705,0.737,3.701
		c-0.469,1.091-0.971,2.978-3.044,2.243c0.304,0.574,0.75,1.279-0.521,0.933c-1.882-0.513-3.121-1.759-4.398-3.271
		c-3.147-3.722-4.023-8.014-3.986-12.637c0.018-2.253,0.997-4.229,2.24-6.063C318.491,125.393,318.842,125.481,319.261,126.286z
		 M311.088,109.113c4.133,1.562,5.759,4.955,6.841,8.81c0.207,0.739,0.041,1.38-0.733,1.867c-4.262,2.678-5.207,7.096-5.83,11.591
		c-0.208,1.488-0.558,3.016-0.217,4.567c0.262,1.192-1.467,1.008-1.27,2.315c-4.951-6.715-5.193-13.901-3.574-21.53
		c-1.368,0.656-0.52,2.042-1.41,2.604c-2.131-2.865-3.953-7.572-5.237-13.658C303.604,106.77,307.405,107.722,311.088,109.113z
		 M313.668,130.014c-0.249-2.162,0.191-4.092,1.986-6.068C315.412,126.447,314.298,128.148,313.668,130.014z M314.378,146.506
		c-1.182,0.072-1.988-0.441-2.829-0.909c-0.735-0.409-1.369-0.993-1.546-1.737c-0.242-1.006,1.014-0.731,1.42-1.258
		c0.181-0.236,0.446-0.406,0.771-0.69C312.926,143.452,313.622,144.917,314.378,146.506z M274.428,91.408
		c-0.09-0.876-0.36-1.735-0.567-2.699c-0.861,0.476-0.213,1.234-0.787,1.772c-1.265-2.254-2.772-4.375-1.84-7.272
		c1.472,0.701,0.779,2.303,1.81,3.429c0.322-1.33-0.058-2.459-0.209-3.557c-0.379-2.746-0.584-5.564-0.003-8.216
		c0.912-4.151,4.326-6.014,8.068-7.081c5.612-1.599,11.67,3.011,12.423,8.981c0.344,2.735,0.194,5.412-0.129,8.502
		c1.114-1.001,0.619-1.939,1.07-2.613c0.172-0.259,0.242-0.55,0.627-0.534c0.274,0.012,0.427,0.147,0.541,0.396
		c0.611,1.339-0.688,5.726-2.018,6.806c-0.564-0.78,0.423-1.59,0-2.636c-1.235,1.42-1.053,3.032-1.131,4.424
		c-0.237,4.262-2.747,6.646-6.363,8.077c-3.34,1.32-6.117-0.01-8.63-2.273C275.621,95.41,274.656,93.636,274.428,91.408z
		 M273.334,104.103c0.167-1.37,0.521-1.587,1.972-1.155c0.769,0.229,0.645-0.349,0.65-0.713c0.026-1.702,0.013-3.404,0.013-5.399
		c5.649,5.077,10.462,4.683,15.761-0.998c0.113,1.927-0.001,3.742,0.406,5.52c0.244,1.07,0.147,1.092,1.165,0.814
		c0.695-0.189,2.273,2.021,2.158,3.07c-0.239,2.167-1.544,3.68-3.234,4.845c-4.741,3.268-12.17,2.544-16.527-0.42
		C273.744,108.338,273.057,106.408,273.334,104.103z M272.466,103.654c0.273,5.069,1.705,6.843,6.435,8.339
		c4.272,1.351,8.46,1.464,12.566-0.633c2.883-1.473,4.659-3.667,4.803-6.982c1.895,0.278,2.646,1.384,3.049,3.23
		c0.958,4.392,2.504,8.603,4.97,12.411c0.439,0.679,0.421,1.378,0.395,2.104c-0.129,3.37,0.061,6.702,1.112,9.937
		c0.225,0.69,0.308,1.524,0.755,2.026c1.656,1.86,1.019,3.649,0.203,5.6c-1.542,3.682-1.787,7.673-2.377,11.559
		c-0.604,3.978-0.935,8-0.827,12.055c0.107,3.978,0.621,7.91,1.245,11.81c0.28,1.741-0.079,1.93-1.625,2.179
		c-7.341,1.18-14.664,2.558-22.133,2.421c-5.856-0.106-11.6-1.187-17.291-2.534c-0.78-0.185-0.904-0.433-0.772-1.239
		c0.607-3.717,1.079-7.454,1.642-11.177c0.471-3.11,0.312-6.214,0.083-9.33c-0.474-6.45-2.086-12.661-3.814-18.856
		c-0.337-1.209,0.463-2.238,0.958-3.258c1.683-3.46,2.707-7.013,1.951-10.907c-0.153-0.796,0.05-1.565,0.423-2.299
		c2.345-4.599,4.739-9.186,5.675-14.338C270.149,104.362,271.405,104.394,272.466,103.654z M310.307,206.1
		c-0.276,5.259-0.571,10.52-0.813,15.783c-0.037,0.827-0.364,1.143-1.128,1.374c-4.49,1.358-9.038,2.355-13.74,2.541
		c-1.709,0.068-2.842-0.518-3.128-2.425c-0.729-4.864-2.647-9.442-3.529-14.272c-0.588-3.222-1.079-6.463-1.729-9.672
		c-0.256-1.27-0.119-2.997-2.061-3.156c-1.121-0.093-2.453,1.783-2.71,3.511c-0.401,2.698-0.757,5.408-1.288,8.082
		c-0.955,4.81-2.798,9.376-4.013,14.118c-0.124,0.482-0.239,0.946-0.227,1.431c0.028,1.245-0.812,1.762-1.808,1.952
		c-5.04,0.958-9.914,0.074-14.697-1.5c-1.28-0.42-1.068-1.74-1.13-2.652c-0.336-4.829-0.633-9.665-0.733-14.502
		c-0.142-6.874,1.574-13.498,3.042-20.144c0.534-2.422,1.238-4.812,1.648-7.252c0.249-1.489,0.916-1.578,2.129-1.284
		c6.412,1.552,12.896,2.649,19.518,2.421c4.87-0.166,9.692-0.905,14.504-1.647c1.739-0.268,3.466-0.612,5.202-0.891
		c1.054-0.169,1.639-0.05,1.949,1.35c1.626,7.332,3.247,14.663,4.583,22.051c0.28,1.546,0.041,3.186,0.041,4.781
		C310.229,206.096,310.268,206.098,310.307,206.1z M270.776,247.425c0.827,2.094,0.495,4.466,0.207,6.716
		c-0.926,7.231-3.257,14.129-5.104,21.142c-0.668,2.541-1.035,5.125-1,7.763c0.028,2.046-0.791,2.688-2.715,1.962
		c-1.258-0.473-2.472-0.942-3.833-1.059c-0.736-0.063-1.217-0.383-1.031-1.467c0.678-3.968,0.065-7.956-0.363-11.889
		c-0.99-9.078-1.619-18.089,1.634-26.89c0.793-2.144,1.008-4.438,1.042-6.638c0.062-3.935,1.268-7.972-0.591-11.825
		c-0.093-0.193-0.012-0.469-0.012-0.792c4.604,1.239,9.007,2.354,13.658,1.756c0.927-0.118,2.017-0.973,2.745-0.255
		c0.67,0.661-0.126,1.735-0.229,2.627c-0.649,5.613-1.7,11.128-4.356,16.207C270.376,245.651,270.345,246.333,270.776,247.425z
		 M250.183,120.976c0.335-2.532,0.944-4.988,2.064-7.323c1.521-3.167,4.354-4.434,7.424-5.394c3.045-0.954,6.282-1.257,9.463-3.021
		c-0.829,5.54-3.243,9.917-5.618,14.515c-0.806-1.363-0.433-2.926-1.576-4.332c0.194,4.281,1.931,8.043,1.165,12.13
		c-0.736,3.931-3.365,7.103-3.908,11.447c-1.062-1.524-1.875-2.807-3.483-3.151c-0.704-0.149-0.348-0.807-0.399-1.238
		c-0.508-4.177-1.604-8.12-4.638-11.236C249.942,122.618,250.079,121.77,250.183,120.976z M253.809,143.771
		c0.845-2.035,1.131-2.159,3.097-1.26c0.382,0.175,0.779,0.32,1.259,0.515c-1.503,1.85-3.127,3.43-5.812,3.968
		C252.918,145.748,253.393,144.772,253.809,143.771z M250.864,126.422c2.062,2.18,2.668,4.925,1.572,7.097
		C252.351,131.019,251.342,128.997,250.864,126.422z M254.973,139.383c0.07-0.458,0.229-1.354,0.338-2.255
		c0.091-0.741,0.507-0.525,0.899-0.334c1.833,0.891,2.301,2.896,3.461,4.337c0.303,0.376-0.206,0.86-0.751,1.008
		C257.703,142.469,254.943,140.869,254.973,139.383z M249.961,137.608c-0.147-0.463-0.244-0.767-0.356-1.112
		c-0.718,1.361-1.066,2.773-1.283,4.215c-0.129,0.867-0.657,1.294-1.443,1.416c-1.152,0.178-0.883-0.921-0.971-1.387
		c-0.377-1.986-0.436-3.973,0.848-5.752c0.866-1.199,1.425-2.437,1.047-4.053c-0.191-0.815,0.142-1.809,0.773-2.836
		C250.663,131.115,250.726,134.206,249.961,137.608z M242.504,146.968c-0.42,0.103-0.675-0.061-0.944-0.352
		c-1.15-1.248-1.418-3.668-0.389-5.745c0.61,2.054,1.111,3.763,1.63,5.465C242.903,146.669,242.908,146.868,242.504,146.968z
		 M242.123,150.145c-0.667,0.542-1.007-0.495-1.488-0.903c-1.466-1.25-1.173-2.708-0.662-4.239c0.78,0.893,1.032,2.111,2.076,2.881
		C242.753,148.404,242.762,149.624,242.123,150.145z M242.077,141.262c-0.178-1.634,0.606-3.672,2.871-3.711
		c0.142,2.049,0.272,3.978,0.41,5.905c0.045,0.622-0.03,1.213-0.388,1.738c-0.31,0.454-0.634,0.953-1.243,0.967
		c-0.88,0.021-0.583-0.821-0.729-1.243C242.589,143.732,242.213,142.503,242.077,141.262z M244.34,146.493
		c1.107-0.491,1.732-1.696,1.619-2.666c-0.129-1.101,0.237-1.2,1.003-1.215c0.63-0.012,1.066-0.414,1.965-0.92
		c-0.881,1.757-1.479,3.083-2.199,4.338c-0.392,0.683-0.981,1.306-1.733,1.592c-0.646,0.245-1.477,1.288-1.999,0.302
		C242.617,147.207,243.62,146.812,244.34,146.493z M239.003,125.829c3.075-1.643,5.759-1.298,8.415,0.966
		c0.58,0.493,0.443,0.842,0.225,1.4c-0.472,1.2-0.673,2.433-0.506,3.756c0.174,1.384-1.915,4.504-3.242,5.095
		c-2.306,1.027-3.048,3.339-3.94,5.333c-0.388,0.865-0.666,2.024-0.878,3.083c-0.464,2.323,0.857,3.897,2.353,5.649
		c-0.806,0.25-1.362,0.486-1.942,0.593c-2.254,0.418-3.202-0.472-3.365-2.732c-0.405-5.596-0.857-11.19-1.422-16.771
		c-0.284-2.804,0.111-3.945,2.535-5.414C237.808,126.44,238.412,126.145,239.003,125.829z M227.221,86.06
		c1.053-0.255,2.108-0.504,3.163-0.755c1.151-0.026,1.518,0.43,1.771,1.605c1.838,8.519,3.993,16.974,5.646,25.527
		c0.666,3.441,0.248,7.081,0.761,10.604c0.091,0.62-0.543,0.845-0.956,0.947c-0.971,0.24-1.659,0.918-2.446,1.422
		c-1.294,0.828-1.586,0.693-1.959-0.89c-0.526-2.221-0.396-4.498-0.636-6.742c-0.549-5.111-2.103-9.987-3.14-14.979
		c-1.01-4.861-2.209-9.686-3.452-14.495C225.625,86.96,225.996,86.356,227.221,86.06z M224.032,38.797
		c-0.146,1.152-0.144,2.104,0.647,3.16c0.813,1.085-0.054,2.4-1.41,2.522c-0.304,0.027-0.611,0.01-0.914,0.034
		c-2.871,0.237-3.333-0.243-3.145-3.189c0.05-0.78,0.126-1.604-0.061-2.345c-0.404-1.602,0.647-1.829,1.747-2.083
		c-0.501-0.427-1.228-0.925-0.887-1.588c0.441-0.86,1.344-0.506,2.219-0.288c-0.366,0.641-0.712,1.243-1.055,1.844
		C222.464,36.478,224.184,37.596,224.032,38.797z M222.318,32.074c-1.342,0.921-2.333,0.97-3.553,0.287
		C219.854,31.252,220.902,31.702,222.318,32.074z M217.599,27.601c-1.056,0.125-2.281,0.735-3.107,0.379
		c-0.958-0.412-0.491-1.899-0.639-2.884c-0.659-4.364-1.981-8.682-1.11-13.277c0.935,0.111,1.845,0.371,2.299,1.087
		c2.269,3.578,5.65,6.663,5.262,11.465c-0.082,1.01,0.947,2.222,0.114,2.931C219.825,27.806,218.557,27.487,217.599,27.601z
		 M221.283,59.852c-0.945,0.188-1.252,0.077-1.389-0.971c-0.412-3.121-0.815-6.26-1.559-9.31c-0.399-1.635-0.067-2.083,1.47-2.023
		c0.548,0.021,1.1-0.061,1.651-0.096c-0.001-0.018-0.001-0.035-0.002-0.053c0.306,0,0.636,0.075,0.914-0.012
		c1.626-0.507,2.089,0.427,2.327,1.766c0.55,3.096,1.108,6.192,1.732,9.275c0.17,0.841,0.129,1.073-0.823,0.893
		C224.137,59.042,222.705,59.569,221.283,59.852z M229.037,144.922c-1.409-0.853-0.955-1.938-0.696-2.945
		C229.028,142.803,229.093,143.731,229.037,144.922z M228.071,129.099c-1.206-13.52-2.413-27.04-3.638-40.781l0.778,0.892
		c0,0,6.756,26.041,6.756,31.691l-0.007,0.134C232.673,124.458,229.59,126.395,228.071,129.099z M230.784,142.265
		c-0.146-1.146-0.086-2.328-0.022-3.488c0.067-1.273,0.21-2.495,1.861-2.847c0.816-0.174,0.779-1.299,1.583-1.951
		c0.431,5.555,0.845,10.903,1.282,16.556C232.047,148.558,231.198,145.512,230.784,142.265z M240.444,231.819l-0.86,0.123
		c-0.491-0.37-0.614-2.703-0.614-2.703c0-2.087-2.211-20.882-2.211-20.882c-0.38-2.947-2.526-22.006-3.477-30.473
		c-0.93-5.195-1.122-10.501-1.67-15.786c-0.124-0.225-0.174-0.523-0.101-0.947l4.534-1.156c0.124,0.248,0.134,0.483,0.069,0.72
		c0.303,3.107,0.586,6.479,0.722,9.939c0.689,6.687,3.73,58.832,3.73,58.832L240.444,231.819z M253.863,283.259
		c-4.037-5.654-6.598-11.94-8.039-18.708c-0.104-0.492-0.26-1.231,0.202-1.333c2.515-0.548,1.205-2.408,1.031-3.487
		c-1.186-7.362-2.576-14.69-3.882-22.031c-0.085-0.477,0.099-1.026-0.062-1.46c-0.185-0.5,0.799-1.827-0.951-1.444
		c-0.285,0.062-0.427-1.067-0.46-1.663c-0.275-4.763-0.461-9.532-0.784-14.292c-0.425-6.281-0.983-12.552-1.419-18.832
		c-0.313-4.516-0.482-9.042-0.784-13.558c-0.438-6.585-0.962-13.166-1.396-19.752c-0.21-3.175-0.286-6.358-0.45-9.537
		c-0.034-0.671,0.109-1.02,0.879-1.015c5.854,0.036,9.905-3.224,13.355-7.469c0.51-0.626,0.925-0.914,1.734-1.041
		c2.641-0.417,4.389-2.247,6.02-4.175c0.941-1.112,2.294-2.108,0.927-3.865c-0.356-0.458,0.207-1.141,0.566-1.835
		c1.089,2.959,1.649,5.921,2.308,8.85c1.199,5.324,1.808,10.738,1.438,16.178c-0.247,3.624-0.984,7.214-1.555,10.812
		c-1.388,8.729-3.963,17.217-5.304,25.953c-0.353,2.29-0.516,4.652-0.405,6.963c0.281,5.741-0.066,11.581,1.181,17.186
		c0.838,3.772,0.956,7.466,0.985,11.238c0.035,4.435-1.255,8.612-2.327,12.844c-1.593,6.283-1.56,12.613-0.774,19.045
		c0.593,4.843,1.045,9.741,0.872,14.651c-0.014,0.419-0.204,0.829-0.239,1.249c-0.075,0.9-0.664,1.624-1.343,1.817
		C254.596,284.715,254.243,283.792,253.863,283.259z M264.492,298.657c-0.577,0.445-1.116,0.967-1.756,1.294
		c-1.744,0.891-2.951,2.179-3.817,3.971c-1.219,2.521-3.894,2.479-6.16,2.875c-1.773,0.309-3.631,0.208-5.372-0.57
		c-2.133-0.954-2.805-2.457-2.138-4.696c0.469-1.58,1.454-2.788,2.561-3.92c2.553-2.615,5.359-5.007,7.217-8.685
		c2.694,3.626,5.791,6.44,9.434,8.634C265.118,297.956,264.968,298.286,264.492,298.657z M266.213,294.773
		c-2.043-0.77-3.567-2.248-5.191-3.563c-1.759-1.424-3.358-3.018-4.741-4.816c-0.31-0.403-0.813-0.756-0.289-1.406
		c0.402-0.497,0.843-0.712,1.424-0.55c1.45,0.406,2.954,0.556,4.375,1.146c2.124,0.882,3.249,0.369,4.193-1.537
		C265.607,287.629,266.884,291.114,266.213,294.773z M298.542,288.785c-4.961,4.917-10.741,8.336-17.806,9.202
		c-1.028,0.127-2.084,0.018-3.292,0.018c-3.099,0.348-6.072-0.738-9.036-1.869c-0.946-0.361-1.5-0.945-1.317-2.072
		c0.498-3.09-0.828-6.178-0.048-9.28c0.05-0.199-0.055-0.53-0.207-0.674c-2.263-2.169-0.973-4.677-0.547-6.995
		c1.031-5.588,3.061-10.93,4.259-16.489c0.982-4.556,1.829-9.082,1.024-13.761c-0.142-0.831-0.087-1.663,0.306-2.503
		c2.338-4.991,3.592-10.294,4.036-15.753c0.491-5.988,2.526-11.576,4.149-17.272c1.05-3.684,1.547-7.454,2.149-11.215
		c0.065-0.414,0.134-0.844,0.3-1.223c0.366-0.839,0.781-1.896,1.824-1.779c0.986,0.111,0.975,1.282,1.165,2.058
		c1.174,4.82,1.325,9.827,2.845,14.604c1.338,4.206,2.48,8.498,3.035,12.888c0.71,5.608,1.829,11.107,3.729,16.43
		c0.551,1.544,0.934,3.016,0.775,4.722c-0.719,7.742,1.551,15.046,3.438,22.411c0.944,3.689,2.397,7.322,2.094,11.222
		C301.209,284.146,300.542,286.803,298.542,288.785z M310.492,284.84c0.987,0.172,1.034,1.437,1.227,2.404
		c0.52,2.613,1.688,4.934,3.584,6.831c2.248,2.248,4.521,4.472,6.328,7.106c1.788,2.605,1.175,4.734-1.755,5.915
		c-1.465,0.591-3.031,0.86-3.945,0.887c-4.114-0.008-6.711-1.437-8.083-4.636c-0.775-1.806-1.883-3.034-3.807-3.6
		c-4.082-1.201-4.27-6.626-1.858-8.962c1.537-1.49,2.94-3.089,4.138-4.867C307.382,284.344,309.059,284.592,310.492,284.84z
		 M307.857,283.895c0.639-0.993,1.147-1.783,1.686-2.621C310.217,283.828,310.087,284.061,307.857,283.895z M310.264,272.705
		c-0.286,1.458-1.14,2.523-1.849,3.684c-1.707,2.797-3.622,5.453-5.966,7.978c-0.04-9.261-3.765-17.649-5.415-26.472
		c-0.611-3.266-0.866-6.657-0.294-9.855c0.336-1.876-0.267-3.142-0.783-4.621c-1.957-5.623-3.229-11.39-3.924-17.442
		c3.921,0.883,7.568,0.089,11.206-0.711c1.647-0.361,3.277-0.809,4.898-1.276c0.844-0.243,1.132,0.033,0.945,0.833
		c-0.193,0.823-0.375,1.663-0.708,2.433c-1.556,3.606-0.209,7.25-0.188,10.871c0.025,4.116,1.428,7.971,2.531,11.866
		c0.59,2.08,1,4.183,0.898,6.299C311.351,261.773,311.327,267.277,310.264,272.705z M323.107,214.602
		c-0.486,5.281-0.978,10.564-1.551,15.837c-0.092,0.846-0.168,1.726-1.271,2.341c-0.623,0.349-0.648,1.862-0.838,2.87
		c-1.32,6.96-2.444,13.958-4.295,20.814c-0.271,1.009-0.955,2.408,0.665,3.192c0.406,0.195,0.25,0.596,0.117,0.969
		c-1.214,3.42-2.616,6.757-4.428,9.935c0.143-2.823,0.295-5.646,0.626-8.411c0.772-6.417-0.746-12.427-2.297-18.536
		c-1.495-5.896-1.815-11.957-0.257-17.92c0.739-2.828,0.75-5.704,0.907-8.533c0.275-4.952,0.838-9.925,0.434-14.889
		c-0.356-4.355-1.484-8.596-2.399-12.863c-1.409-6.579-3.112-13.109-3.789-19.821c-0.558-5.544-0.628-11.076,0.239-16.64
		c0.775-4.976,1.145-10.009,3.083-14.731c0.062-0.151,0.194-0.272,0.351-0.485c0.893,1.09,0.142,2.031-0.08,2.983
		c0.019-0.005,0.034-0.012,0.055-0.016c-0.003,0.013-0.004,0.023-0.007,0.036c1.347-0.681,1.293-2.552,2.826-3.266
		c0.193,0.93,0.367,1.83,0.569,2.724c0.329,1.456-0.446,2.112-1.729,2.311c-1.375,0.213-1.891-0.46-1.666-1.77
		c-0.021,0.01-0.039,0.024-0.061,0.034c0.004-0.018,0.009-0.036,0.013-0.054c-0.963,0.26-0.522,1.002-0.283,1.398
		c1.527,2.55,2.955,5.285,6.574,5.202c0.606-0.015,0.79,0.469,1.111,0.829c2.682,2.999,5.616,5.579,9.775,6.364
		c1.1,0.207,2.198-0.002,3.331,0.264c-0.68,7.459-1.318,14.903-2.048,22.34c-0.673,6.853-1.48,13.691-2.158,20.546
		C324.066,203.299,323.627,208.953,323.107,214.602z M329.746,179.737c0,0-5.037,33.288-5.282,34.885l-0.614,0.369l3.836-38.695
		c0.411-5.2,0.867-10.414,1.553-15.667l0.139-1.403l0.615-5.037c0,0,2.702-0.86,4.053-1.965
		C334.045,152.224,329.992,178.878,329.746,179.737z M334.585,142.182c-0.456,2.625-1.679,4.64-3.906,6.469
		c-0.335-3.583,0.364-6.784,0.795-10.109c0.285,1.208,0.955,1.862,2.193,1.937C334.795,140.547,334.769,141.116,334.585,142.182z
		 M333.674,133.336c1.142,0.844,0.511,1.959,1.341,3.019C333.142,135.62,333.686,134.53,333.674,133.336z M336.166,144.777
		c-0.261-1.391,0.623-2.52,0.958-3.808C337.62,142.428,337.02,143.634,336.166,144.777z M337.547,127.807
		c-1.284-1.81-2.39-3.337-3.459-4.889c-0.302-0.438-0.599-0.887-0.15-1.168c0.09-2.368,0.689-10.36,4.653-23.573l4.054-15.477
		l0.028,0.16c1.329-5.801,2.677-11.597,4.012-17.397c0.039-0.168,0.11-0.329,0.462-0.441
		C343.96,85.87,340.772,106.718,337.547,127.807z M350.374,44.605c-0.248,0.989-0.513,1.966-1.868,1.725
		c-0.469-0.084-1.257,0.287-1.267-0.607c-0.01-1.077-0.147-2.271,1.204-2.781c0.223-0.084,0.452-0.149,0.889-0.291
		c-1.136-1.225-1.136-1.225,0.897-4.43c0.113,1.74,0.885,0.898,1.667,0.352C351.35,40.738,350.858,42.67,350.374,44.605z
		 M353.771,31.456c-0.506,1.821-1.053,3.632-1.496,5.468c-0.135,0.559-0.159,0.903-0.854,0.637
		c-0.554-0.211-1.569-0.356-1.077-1.057c1.179-1.681,1.336-3.584,1.72-5.464c0.163-0.796,0.896-0.499,1.362-0.47
		C353.956,30.604,353.788,31.086,353.771,31.456z M354.087,28.371c-0.141,1.24-0.761,1.486-1.854,1.332
		c-1.085-0.153-2.195-0.308-3.283-0.25c-1.116,0.059-1.276-0.361-1.162-1.338c0.617-5.294,2.856-9.712,6.947-13.166
		c0.285-0.24,0.554-0.487,1.198-0.319c-0.561,2.502-0.812,5.063-0.962,7.643C354.854,24.315,354.323,26.331,354.087,28.371z"/>
</g>
<g>
</g>
<g>
</g>
<g>
</g>
<g>
</g>
<g>
</g>
<g>
</g>
</svg>
