<?xml version="1.0" encoding="utf-8"?>
<!-- Generator: Adobe Illustrator 16.2.1, SVG Export Plug-In . SVG Version: 6.00 Build 0)  -->
<!DOCTYPE svg PUBLIC "-//W3C//DTD SVG 1.1//EN" "http://www.w3.org/Graphics/SVG/1.1/DTD/svg11.dtd">
<svg version="1.1" id="Layer_1" xmlns="http://www.w3.org/2000/svg" xmlns:xlink="http://www.w3.org/1999/xlink" x="0px" y="0px"
	 width="296px" height="319px" viewBox="0 0 296 319" enable-background="new 0 0 296 319" xml:space="preserve">
<g>
	<path fill-rule="evenodd" clip-rule="evenodd" d="M44.22,23.754c4.484,2.531,8.536,5.709,12.76,8.625
		c16.602,11.46,33.146,23.004,49.727,34.495c0.695,0.482,1.372,1.215,2.469,0.5c0.605-0.393,1.235,0.349,1.736,0.717
		c7.703,5.669,15.436,11.302,23.055,17.084c8.692,6.596,20.635,13.211,30.423,16.959c5.079,1.946,9.55,5.042,13.764,8.476
		c0.285,0.235,0.728,0.755,0.654,0.879c-1.202,2.032,0.787,2.097,1.689,2.646c4.95,3.012,9.945,5.949,14.933,8.895
		c1.815,1.072,1.995,1.01,1.893-1.021c-0.318-6.416,1.241-12.59,2.263-18.838c0.639-3.901,0.97-7.863,1.775-11.727
		c1.898-9.134,5.362-17.496,12.635-23.792c0.338-0.294,0.686-0.499,0.582-1.12c-0.885-5.301,1.434-9.488,4.649-13.391
		c1.214-1.475,2.208-3.129,3.369-4.651c0.889-1.166,0.523-1.973-0.499-2.784c-2.859-2.268-2.317-3.001-1.754-6.351
		c0.397-2.36,2.919-3.299,2.598-5.693c-0.043-0.309,0.501-0.734,0.83-1.046c0.606-0.575,5.641-2.216,6.42-1.978
		c0.772,0.238,1.257,0.122,1.641-0.567c5.203-9.332,17.442-9.646,25.743-4.515c6.608,4.086,7.571,10.162,7.135,17.013
		c-2.109,2.583-0.125,4.937,0.469,7.331c0.741,2.988,0.625,3.375-2.183,4.21c-0.355,0.105-0.642,0.175-0.637,0.585
		c0.023,1.934-1.146,3.279-2.207,4.708c-0.273,0.371-0.222,1.016-0.237,1.537c-0.079,2.85-0.717,3.612-3.493,3.524
		c-1.622-0.053-2.416,0.376-2.933,2.036c-0.935,2.994-3.478,4.957-5.452,7.219c-2.27,2.601-2.915,4.916-1.882,8.455
		c1.827,6.262,2.651,12.797,2.219,19.392c-0.153,2.34-1.015,4.526-2.199,6.476c-3.743,6.164-6.241,12.885-8.95,19.512
		c-2.114,5.165-4.849,10.062-6.505,15.433c-0.442,1.435-0.411,2.402,0.877,3.155c0.929,0.542,0.953,1.064,0.259,1.859
		c-3.679,4.216-4.552,9.456-5.346,14.741c-1.071,7.125-3.878,13.72-6.28,20.446c-3.841,10.753-10.073,20.101-16.825,29.144
		c-1.26,1.688-2.812,3.237-4.487,4.514c-1.922,1.464-2.942,3.27-3.893,5.467c-2.037,4.708-4.928,8.938-9.542,11.564
		c-2.11,1.201-3.518,2.878-4.633,4.979c-5.874,11.066-11.818,22.095-17.691,33.161c-0.7,1.319-2.355,2.727-1.883,3.928
		c0.522,1.32,2.692,1.337,4.153,1.851c4.078,1.433,8.191,2.762,12.521,3.272c1.1,0.128,2.031,0.76,2.438,1.805
		c0.671,1.723,1.116,3.519,1.106,5.391c-0.008,1.316-0.94,1.948-1.916,2.567c-0.66,0.419-1.533,0.467-2.083,1.217
		c0.859,0.362,1.697,0.686,2.509,1.062c2.191,1.015,2.895,2.91,2.98,5.153c0.08,2.104-1.004,3.494-2.771,4.426
		c-3.918,2.069-8.191,2.791-12.53,3.098c-7.822,0.551-14.986-2.219-22.224-4.591c-2.874-0.942-5.783-1.731-8.004-4.021
		c-1.738-1.792-2.369-3.803-1.372-6.104c0.551-1.273,0.711-2.282-0.293-3.408c-0.736-0.826-0.729-1.799-0.364-2.958
		c0.845-2.682,1.374-5.46,2.116-8.176c0.629-2.303,1.369-4.578,3.952-5.501c0.566-0.203,0.597-0.81,0.864-1.237
		c3.125-4.993,4.635-10.583,5.92-16.244c1.119-4.924,2.18-9.864,3.209-14.808c1.331-6.384,5.045-11.297,9.285-16.036
		c4.462-4.989,9.023-10.022,10.549-16.895c0.966-4.351,1.834-8.726,2.885-13.056c1.685-6.949,3.563-13.862,4.682-20.928
		c0.802-5.065,1.205-10.187,2.765-15.119c2.351-7.431,6.465-13.964,10.346-20.619c0.167-0.285,0.34-0.568,0.54-0.831
		c1.006-1.33,0.767-2.101-0.768-2.987c-6.042-3.491-11.972-7.173-17.968-10.743c-2.204-1.312-4.774-1.887-6.91-3.358
		c-0.341-0.235-0.831-0.249-1.08,0.126c-0.996,1.502-2.005,0.547-3.059,0.101c-2.506-1.064-4.401-2.99-6.219-4.849
		c-4.733-4.842-10.618-8.025-16.105-11.789c-2.597-1.782-5.217-3.532-8.075-5.464c0.938,3.276,1.651,6.311,2.676,9.236
		c2.14,6.105,1.941,12.329,1.363,18.622c-0.345,3.757-1.123,7.401-2.541,10.879c-0.795,1.948-1.76,3.865-3.664,5.067
		c-1.918,1.212-3.63,1.019-5.14-0.646c-1.894-2.092-2.622-4.735-3.021-7.379c-1.22-8.092-0.4-16.065,1.98-23.871
		c0.518-1.698,1.151-3.414,2.623-4.582c0.792-0.627,0.545-1.584,0.828-2.362c0.486-1.345,0.424-2.904,0.983-4.202
		c0.952-2.207,0.236-3.378-1.728-4.487c-2.75-1.552-5.327-3.411-7.99-5.119c-0.908-0.582-1.273-0.758-1.647,0.758
		c-0.866,3.525,0.545,6.666,1.153,9.914c0.849,4.542,2.07,9.039,1.72,13.694c-0.424,5.636-0.63,11.329-2.739,16.702
		c-0.631,1.606-1.528,3.327-3.281,3.336c-1.912,0.012-2.636-1.803-3.181-3.532c-0.963-3.048-0.933-6.176-0.646-9.257
		c0.411-4.403,0.801-8.813,1.454-13.2c0.481-3.232,1.789-6.18,2.611-9.289c0.469-1.777,1.227-3.504,1.018-5.392
		c-0.28-2.542-0.743-4.74-3.311-6.408c-5.41-3.518-10.59-7.403-15.86-11.14C79.479,61.911,62.233,51.273,45.431,39.958
		c-0.374-0.252-0.806-0.417-1.211-0.623c0-0.4,0-0.799,0-1.2c6.426,4.19,12.869,8.351,19.272,12.573
		c10.222,6.74,20.414,13.527,30.635,20.27c0.478,0.314,1.039,1.293,1.728,0.103c0.517-0.895,0.083-1.278-0.614-1.737
		c-7.353-4.821-14.667-9.701-22.037-14.495c-9.64-6.27-19.321-12.478-28.984-18.71c0-0.266,0-0.532,0-0.799
		c0.765-0.121,1.206,0.489,1.734,0.833C56.36,42.93,66.728,49.749,77.153,56.478c8.215,5.301,16.495,10.503,24.753,15.738
		c2.089,1.324,2.397,1.239,3.853-0.844c0.152-0.217,0.303-0.435,0.451-0.653c1.512-2.241,1.521-2.253-0.788-3.861
		C89.992,56.117,74.58,45.349,59.109,34.665c-4.936-3.409-9.735-7.023-14.889-10.111C44.22,24.286,44.22,24.021,44.22,23.754z
		 M187.267,149.194c-0.388,1.114-0.762,2.128-1.096,3.156c-1.617,4.971-2.083,10.149-2.879,15.282
		c-1.522,9.803-3.403,19.55-5.056,29.335c-0.259,1.54-1.427,3.255-0.614,4.573c0.816,1.327,2.84,1.473,4.275,2.259
		c0.17,0.094,0.361,0.148,0.54,0.229c5.93,2.636,11.806,5.413,18.175,6.892c1.25,0.29,2.508,0.579,3.405-0.706
		c4.521-6.472,9.285-12.807,12.443-20.111c4.567-10.558,8.777-21.233,10.268-32.772c0.125-0.976-0.062-1.259-0.916-1.497
		c-6.364-1.784-12.711-3.629-19.173-5.033c-6.199-1.348-12.588-2.054-18.235-5.269c-0.922-0.525-1.037,0.123-1.27,0.57
		c-2.453,4.72-4.645,9.53-5.775,14.788c-0.97,4.51-1.334,9.106-2.139,13.637c-1.308,7.368-3.502,14.529-5.043,21.84
		c-0.289,1.368,0.837,3.362,2.076,3.291c1.399-0.081,0.521-1.627,1.131-2.298c0.068-0.075,0.002-0.261,0.024-0.391
		c1.044-5.887,2.121-11.769,3.125-17.665c0.861-5.054,1.792-10.103,2.408-15.189c0.557-4.589,1.487-9.068,2.927-13.443
		C186.049,150.117,186.153,149.209,187.267,149.194z M229.43,144.485c1.504-5.737,4.292-10.753,6.544-15.991
		c3.01-6.998,5.438-14.25,9.523-20.779c1.4-2.241,2.233-4.889,2.212-7.688c-0.032-4.114-0.415-8.193-1.13-12.237
		c-0.394-2.229-0.646-4.504-1.646-6.605c0.028,2.723,0.024,5.417-0.542,8.084c-1.408,6.626-6.775,9.863-13.368,8.059
		c-5.684-1.555-10.361-4.823-14.59-8.758c-2.302-2.142-3.684-5.001-3.454-8.141c0.315-4.313,2.15-8.13,5.109-11.331
		c3.896-4.214,8.971-5.771,14.703-6.316c-1.143-0.882-2.288-1.05-3.447-1.065c-6.178-0.084-10.858,3.133-15.257,6.979
		c-6.894,6.026-10.049,14.052-11.915,22.689c-0.833,3.854-1.094,7.83-1.757,11.725c-1.12,6.565-2.675,13.066-2.318,19.814
		c0.062,1.166,0.25,1.875,1.349,2.459c3.598,1.913,7.166,3.891,10.685,5.952C216.789,135.235,222.947,139.881,229.43,144.485z
		 M202.449,212.11c-0.894-0.186-1.47-0.289-2.039-0.427c-7.631-1.851-14.669-5.219-21.715-8.555
		c-1.256-0.595-1.81-0.672-2.123,0.964c-2.029,10.583-6.207,19.969-14.188,27.62c-5.714,5.478-9.133,12.372-10.152,20.443
		c-1.159,9.171-3.512,18.041-8.268,26.1c-0.747,1.267-0.402,2.106,0.702,2.842c2.109,1.403,4.466,2.237,6.912,2.69
		c2.47,0.458,5.332-1.22,6.421-3.469c0.69-1.426,1.328-2.88,2.063-4.281c6.503-12.392,13.469-24.533,19.761-37.038
		c1.237-2.458,2.834-4.567,5.352-5.919c4.336-2.328,6.636-6.461,8.988-10.52c0.424-0.73,0.672-1.537,0.725-2.432
		c-0.786,0.212-1.294,0.964-2.282,0.749C196.096,218.158,199.603,215.681,202.449,212.11z M230.117,64.159
		c-0.328-0.022-0.578-0.062-0.823-0.05c-0.328,0.016-0.664,0.034-0.981,0.111c-6.869,1.686-11.459,5.884-13.807,12.563
		c-1.247,3.545-1.041,6.959,1.425,9.872c4.286,5.065,9.729,8.578,16.136,10.111c5.216,1.245,9.277-1.146,10.898-5.581
		c1.367-3.743,1.295-7.596,0.892-11.792c-2.396,2.587-5.151,3.834-8.676,4.38c0.379-0.455,0.444-0.601,0.551-0.648
		c0.236-0.107,0.491-0.174,0.743-0.242c2.86-0.777,5.337-2.111,7.128-4.592c1.512-2.09,3.102-4.128,4.724-6.134
		c1.655-2.046,3.73-3.772,4.628-6.379c0.752-2.183,1.637-4.373,0.655-6.681c-2.277-5.351-5.397-10.083-9.877-13.911
		c-2.249-1.922-4.697-3.703-6.332-6.271c-0.22-0.348-0.923-0.903-0.355-1.075c1.583-0.481,0.452-1.373,0.237-1.747
		c-1.493-2.583-3.654-4.326-6.709-4.691c-0.965-0.115-2.2-0.417-2.724,0.608c-0.441,0.863,0.909,1.119,1.229,1.816
		c0.079,0.171,0.106,0.244-0.16,0.31c-0.657,0.022-1.076-0.524-1.606-0.901c-1.436-1.014-2.958-0.816-3.543,0.522
		c-0.655,1.491,0.507,1.909,1.553,2.416c0.591,0.288,1.621,0.483,0.825,1.672c-0.268-0.224-0.532-0.413-0.758-0.637
		c-1.067-1.067-2.284-1.434-3.434-0.298c-1.247,1.228-0.394,2.281,0.603,3.173c1.044,0.935,1.775,2.036,2.281,3.797
		c-1.426-1.008-1.623-2.46-2.677-3.23c-0.636-0.465-1.287-0.793-1.553,0.081c-0.272,0.895-0.499,1.989,0.3,2.826
		c2.608,2.736,5.129,5.603,9.082,6.63c-0.087-0.905-0.848-1.566-0.657-2.647c1.194,1.375,1.712,2.824,1.923,4.476
		c0.34,2.66,0.259,5.431,2.001,7.761c0.745,0.995,1.354,1.993,2.943,1.278c-3.002,1.861-5.398,4.198-7.29,7.132
		c-0.44-1.062,0.688-1.548,0.65-2.695c-2.994,1.794-6.193,2.873-7.468,6.288C222.76,67.202,227.112,66.451,230.117,64.159z
		 M247.781,44.68c-0.799-0.843-0.408-1.536-0.713-2.029c-0.328-0.53-0.425-1.375-1.299-1.294c-1.075,0.099-1.763,0.797-2.29,1.693
		c-0.481,0.818,0.333,1.036,0.676,1.408c0.992,1.072,2.136,2.008,3.071,3.125c3.782,4.517,7.699,8.99,7.511,15.447
		c-0.009,0.272-0.049,0.468,0.255,0.636c1.736,0.961,4.06-0.396,4.132-2.428c0.023-0.654-0.111-1.313,0.228-1.944
		c0.89-1.659,2.389-3.041,2.247-5.176c-0.034-0.512,0.56-0.669,1.02-0.786c2.422-0.612,2.528-0.797,1.748-3.309
		c-0.409-1.317-0.826-2.633-1.31-3.924c-0.19-0.509-0.553-1.087-0.229-1.505c1.741-2.247,1.167-4.852,1.052-7.299
		c-0.151-3.201-0.979-6.298-3.54-8.524c-2.4-2.084-5.03-3.841-8.096-4.826c-7.337-2.355-14.816-0.489-18.999,5.335
		c-0.732,1.021-0.997,1.498,0.486,2.252c2.877,1.466,4.771,3.8,5.132,7.251c0.203,1.939,2.107,2.788,3.359,4.01
		c0.46,0.449,0.515-0.363,0.738-0.607c0.969-1.06,2.074-2.145,3.572-1.502C248.083,41.351,247.798,42.936,247.781,44.68z
		 M158.301,282.345c-3.56,2.47-7,2.829-10.666,1.115c-1.55-0.725-3.531-1.109-4.309-2.621c-1.226-2.388-1.745-0.962-2.377,0.182
		c-1.882,3.41-2.943,7.148-4.271,10.783c-0.575,1.575-0.125,2.856,0.734,4.077c0.889,1.267,2.129,2.117,3.518,2.812
		c1.888,0.945,3.921,1.45,5.9,2.114c6.729,2.259,13.444,4.688,20.718,4.184c4.198-0.292,8.335-0.978,12.149-2.915
		c1.562-0.793,2.643-1.943,2.498-3.888c-0.146-1.958-0.729-3.617-2.741-4.392c-1.037-0.399-2.045-0.927-3.118-1.165
		c-5.273-1.175-10.252-3.083-15.03-5.602C159.399,286.024,158.016,284.854,158.301,282.345z M227.259,153.835
		c0.494-1.101-0.503-1.416-1.069-1.833c-2.651-1.947-5.368-3.803-8.037-5.727c-6.734-4.853-13.852-9.109-20.9-13.476
		c-1.123-0.694-1.915-1.105-2.765,0.52c-1.618,3.086-3.502,6.035-5.275,9.039c-1.278,2.164-1.281,2.167,0.954,3.24
		c0.35,0.168,0.719,0.298,1.078,0.449c4.006,1.691,8.236,2.513,12.482,3.321c7.391,1.408,14.608,3.537,21.848,5.555
		C226.804,155.267,227.36,155.235,227.259,153.835z M173.658,199.032c-0.795,3.28-1.357,6.584-2.41,9.724
		c-1.982,5.908-6.108,10.511-10.264,14.891c-5.192,5.469-8.102,11.774-9.579,19.103c-1.895,9.408-3.316,19.018-8.333,27.497
		c-0.486,0.821-0.356,1.286,0.565,1.651c1.35,0.536,2.329,0.76,3.084-1.011c2.55-5.979,3.822-12.288,4.704-18.645
		c1.06-7.636,4.053-14.186,9.265-19.847c2.73-2.966,5.509-5.911,7.878-9.203c4.667-6.483,5.808-14.231,7.876-21.653
		c0.177-0.632-0.055-0.97-0.502-1.069C174.986,200.26,174.491,199.351,173.658,199.032z M180.729,287.843
		c-0.224-0.762-0.339-1.644-0.419-2.457c-0.244-2.5-1.604-3.632-3.935-3.864c-4.488-0.448-8.638-2.106-12.841-3.57
		c-3.166-1.103-3.16-1.124-4.508,2.071c-0.815,1.933,0.184,4.867,2.061,5.843c2.452,1.276,4.842,2.764,7.432,3.656
		c3.55,1.225,7.196,3.092,11.009,0.448C180.346,289.403,180.728,288.823,180.729,287.843z M233.548,61.667
		c-2.454-2.608-2.833-5.896-3.054-9.171c-0.077-1.13-0.389-1.677-1.428-1.915c-1.489-0.341-2.849-0.966-3.989-2.004
		c-0.796-0.723-1.279-0.519-1.875,0.345c-1.909,2.77-3.917,5.469-5.883,8.199c-1.954,2.717-2.305,5.764-1.894,9.227
		C220.919,62.42,226.484,59.336,233.548,61.667z M128.109,134.984c1.256-1.158,1.72-2.617,2.208-4.025
		c1.923-5.559,1.822-11.337,1.537-17.084c-0.089-1.786-0.233-3.689-1.046-5.396c-0.129-0.272-0.02-0.776-0.474-0.725
		c-0.27,0.031-0.62,0.304-0.739,0.558c-0.583,1.247-1.176,2.499-1.628,3.796c-2.044,5.871-1.207,11.937-1.018,17.934
		C126.999,131.594,126.903,133.37,128.109,134.984z M150.236,96.946c-0.089-0.629-0.559-0.768-0.951-0.988
		c-4.606-2.58-9.209-5.166-13.821-7.734c-0.262-0.147-0.561-0.497-0.882-0.251c-1.007,0.769-1.338,1.958-1.693,3.083
		c-0.306,0.969,0.614,1.201,1.213,1.542c4.006,2.281,8.013,4.559,12.043,6.793c0.648,0.358,1.467,1.338,2.009,0.812
		C149.063,99.316,149.581,98.023,150.236,96.946z M145.541,273.315c-0.98-0.313-1.937-0.431-2.679-0.896
		c-1.438-0.901-2.323-0.386-3.069,0.867c-0.302,0.509-0.699,0.999-0.857,1.553c-1.022,3.575-2.023,7.156-2.955,10.754
		c-0.228,0.877,0.222,1.633,1.156,2.254c0.417-1.093,0.772-2.132,1.205-3.139c0.854-1.99,1.332-4.477,3.152-5.584
		C143.866,277.68,144.4,275.397,145.541,273.315z M143.725,103.158c1.174-1.378,1.273-2.282-0.461-3.312
		c-3.516-2.088-6.877-4.441-10.31-6.675c-0.486-0.318-1.065-0.973-1.564-0.603c-0.681,0.504,0.053,1.196,0.197,1.8
		c0.111,0.469,0.438,0.799,0.837,1.072C136.187,98.005,139.945,100.576,143.725,103.158z M129.852,93.52
		c0.701,3.592,1.432,7.178,2.082,10.777c0.153,0.855,0.654,0.651,1.145,0.608c0.696-0.064,0.852-0.443,0.667-1.108
		C132.772,100.267,131.8,96.739,129.852,93.52z M125.805,110.075c-2.038,3.167-1.306,6.741-1.715,10.146
		C124.237,116.759,125.74,113.531,125.805,110.075z M114.453,98.368c3.467-0.35,1.345-2.338,1.553-4.004
		C114.874,95.687,114.964,97.044,114.453,98.368z M113.46,106.864c-1.093,2.361-0.501,4.417-0.802,6.366
		C112.821,111.278,113.966,109.471,113.46,106.864z"/>
</g>
<ellipse cx="53.091" cy="57.466" rx="37.917" ry="37.991"/>
<g>
	<path fill="#FFFFFF" d="M58.261,48.082c-0.303-2.583-1.466-3.951-3.286-3.951c-2.932,0-4.752,3.597-5.763,11.246
		c1.466-2.837,3.134-4.002,5.915-4.002c5.106,0,8.139,3.749,8.139,9.929c0,7.599-4.297,12.361-11.071,12.361
		c-6.926,0-10.616-4.61-10.616-13.323c0-5.725,1.466-11.601,3.943-15.654c2.275-3.698,6.218-6.028,10.262-6.028
		c5.106,0,8.543,3.141,9.049,8.156L58.261,48.082z M56.087,61.607c0-3.09-1.112-4.762-3.185-4.762c-2.477,0-4.146,2.685-4.146,6.586
		c0,2.938,1.314,4.812,3.438,4.812C54.773,68.244,56.087,65.964,56.087,61.607z"/>
</g>
<g>
</g>
<g>
</g>
<g>
</g>
<g>
</g>
<g>
</g>
<g>
</g>
</svg>
