<?xml version="1.0" encoding="utf-8"?>
<!-- Generator: Adobe Illustrator 16.2.1, SVG Export Plug-In . SVG Version: 6.00 Build 0)  -->
<!DOCTYPE svg PUBLIC "-//W3C//DTD SVG 1.1//EN" "http://www.w3.org/Graphics/SVG/1.1/DTD/svg11.dtd">
<svg version="1.1" id="Layer_1" xmlns="http://www.w3.org/2000/svg" xmlns:xlink="http://www.w3.org/1999/xlink" x="0px" y="0px"
	 width="296px" height="319px" viewBox="0 0 296 319" enable-background="new 0 0 296 319" xml:space="preserve">
<ellipse cx="51.905" cy="57.466" rx="37.917" ry="37.991"/>
<g>
	<path fill="#FFFFFF" d="M42.869,73.057c0.91-6.13,3.033-11.905,6.42-17.275c2.376-3.901,4.752-6.636,8.847-10.385H43.172
		l1.011-6.129h20.524l-0.86,5.42c-3.387,4.255-6.521,9.22-8.291,13.02c-2.174,4.61-3.539,9.473-4.297,15.35H42.869z"/>
</g>
<g>
	<path fill-rule="evenodd" clip-rule="evenodd" d="M75.401,52.91c4.321,2.085,8.261,4.826,12.375,7.266
		c6.249,3.706,12.424,7.536,18.635,11.306c0.316,0.191,0.874,0.539,0.973,0.445c1.553-1.464,2.433,0.172,3.406,0.792
		c7.368,4.692,14.814,9.274,22.004,14.229c9.522,6.562,19.994,10.979,30.838,14.706c4.797,1.648,9.17,4.17,13.27,7.155
		c0.29,0.211,0.732,0.715,0.663,0.843c-0.958,1.761,0.685,1.868,1.517,2.296c6.349,3.279,12.744,6.467,19.091,9.751
		c1.172,0.607,1.465,0.57,1.743-0.86c0.778-4.016-0.419-7.804-1.048-11.649c-0.929-5.681-2.419-11.274-2.464-17.083
		c-0.008-1.076-0.33-1.771-1.508-2.289c-2.973-1.304-5.31-3.547-7.159-6.16c-1.709-2.412-3.544-4.463-6.22-5.917
		c-2.472-1.342-4.662-3.166-5.559-6.19c-0.33-1.111-2.003-1.821-0.703-3.351c0.119-0.142-0.458-0.961-0.8-1.396
		c-0.913-1.161-1.638-2.273,0.31-3.114c0.342-0.147,0.474-0.207,0.338-0.643c-0.521-1.681,0.737-2.158,1.944-2.668
		c-1.062-1.687-2.126-3.334-3.138-5.016c-0.236-0.392-0.428-0.741-0.876-0.933c-4.272-1.836-6.749-5.705-9.827-8.87
		c-0.822-0.846-1.352-2.175-1.558-3.362c-0.166-0.959-0.567-1.702-1.112-2.333c-1.61-1.86-2.213-4.042-2.415-6.415
		c-0.092-1.083-0.659-2.01-1.091-2.985c-0.361-0.815-1.003-1.618-0.169-2.62c0.781-0.939,1.628-0.596,2.513-0.327
		c-0.04-0.649-0.134-1.204-0.097-1.751c0.101-1.509,1.318-2.183,2.647-1.524c0.943,0.467,1.678,1.199,2.25,2.031
		c1.764,2.571,3.75,4.953,5.802,7.297c1.465,1.677,3.758,1.98,5.41,3.82c-0.125-1.988-1.1-3.248-1.916-4.55
		c-0.902-1.44-1.799-2.864-2.411-4.468c-0.596-1.563-0.475-2.855,1.033-3.798c1.508-0.944,2.427,0.016,3.41,1.005
		c1.342,1.354,1.664,3.279,2.781,4.743c1.347,1.766,2.773,3.474,4.081,5.268c2.573,3.53,3.189,7.402,1.557,11.474
		c-0.465,1.159-0.27,1.752,0.564,2.567c4.836,4.723,9.625,9.496,14.393,14.291c0.605,0.608,1.31,0.866,2.04,0.838
		c1.112-0.04,2.137,0.316,3.178,0.526c2.573,0.516,3.102,0.047,2.886-2.613c-0.188-2.328-1.216-4.191-2.693-5.92
		c-2.975-3.479-5.816-7.098-7.397-11.439c-3.247-8.913,1.663-17.903,11.069-20.366c3.23-0.846,6.478-1.552,9.923-0.973
		c3.33,0.56,5.688,2.21,7.382,5.053c1.161,1.95,3.129,3.707,3.496,5.771c0.544,3.07,2.546,4.647,4.485,6.464
		c1.332,1.246,1.6,2.409,0.062,3.643c-1.254,1.006,0.05,2.296-0.429,3.493c-0.586,1.466-0.609,3.03,0.556,4.522
		c0.628,0.804-0.904,3.327-2.104,3.808c-1.334,0.536-2.698,0.997-4.051,1.485c-0.953,0.344-1.311,0.807-1.085,1.988
		c0.661,3.47,1.11,6.982,1.613,10.482c0.097,0.669,0.367,1.218,0.838,1.662c4.365,4.112,6.78,9.432,9.095,14.801
		c1.673,3.88,3.38,7.742,4.043,11.985c0.324,2.076-0.725,3.813-0.965,5.737c-0.653,5.209-1.427,10.401-2.408,15.562
		c-1.166,6.141-3.743,11.728-6.311,17.371c-1.608,3.53-3.342,7.009-4.838,10.594c-1.481,3.551-3.86,6.517-6.428,9.314
		c-3.223,3.512-5.109,7.577-5.867,12.29c-0.824,5.133-3.039,9.854-4.76,14.717c-3.055,8.626-6.38,17.137-11.093,25.026
		c-0.615,1.031-1.129,2.279-2.041,2.949c-2.652,1.951-3.153,4.905-4.014,7.71c-1.386,4.521-4.176,8.117-7.633,11.153
		c-2.211,1.942-3.952,3.961-4.682,6.916c-1.479,5.995-3.554,11.831-4.853,17.879c-0.185,0.858-0.285,1.578,0.43,2.267
		c0.524,0.505,0.65,1.23,0.557,1.958c-0.292,2.251,0.987,3.363,2.86,4.146c3.956,1.653,8.162,2.482,12.218,3.797
		c1.439,0.467,2.836,0.979,4.158,1.766c2.263,1.347,2.495,3.434,2.167,5.658c-0.292,1.974-2.089,2.462-3.642,2.844
		c-4.879,1.199-9.811,0.992-14.744,0.264c-3.218-0.475-6.458-0.481-9.669-0.002c-1.723,0.258-3.508,0.204-5.367,0.909
		c1.061,1.123,1.342,2.402,1.354,3.842c0.016,1.834,1.395,2.775,2.849,3.482c4.877,2.368,9.896,4.368,15.125,5.83
		c2.019,0.564,4.029,1.235,5.34,3.042c2.975,4.096,0.545,9.026-4.965,9.956c-5.299,0.896-10.528,0.662-15.812-0.582
		c-4.837-1.138-9.819-1.647-14.732-2.472c-2.232-0.376-4.402-0.984-6.503-1.869c-4.2-1.767-5.836-4.839-4.305-9.157
		c1.237-3.49,2.621-6.932,3.81-10.444c0.309-0.915,0.809-1.729,1.819-2.045c0.676-0.213,0.945-0.78,1.175-1.362
		c2.197-5.547,3.307-11.35,4.336-17.207c0.9-5.123,0.338-10.299,1.077-15.407c0.485-3.361,1.443-6.531,3.362-9.371
		c1.102-1.63,2.179-3.277,3.233-4.938c1.24-1.954,2.549-3.76,2.817-6.295c0.322-3.051,2.222-5.638,4.058-8.03
		c2.674-3.486,2.974-7.523,3.415-11.625c0.723-6.718,0.856-13.472,1.428-20.198c0.243-2.86,0.147-5.731,0.389-8.604
		c0.379-4.511,0.184-9.068,0.485-13.589c0.495-7.486,1.371-14.908,6.009-21.235c2.776-3.789,6.501-6.601,9.948-9.698
		c0.755-0.677,1.539-1.321,2.255-1.934c-0.064-0.706-0.577-0.722-0.934-0.91c-6.211-3.258-12.394-6.574-18.655-9.733
		c-2.125-1.073-4.543-1.511-6.654-2.679c-0.347-0.192-0.831-0.294-1.032,0.105c-0.803,1.591-1.827,0.776-2.873,0.365
		c-3.214-1.266-5.592-3.713-8.189-5.831c-5.436-4.434-11.938-7.095-17.773-10.861c-1.31-0.846-2.682-1.594-4.136-2.451
		c-0.29,1.157,0.364,1.87,0.632,2.668c1.396,4.166,3.307,8.167,4.009,12.557c0.698,4.358,0.802,8.718,0.336,13.122
		c-0.346,3.282-0.861,6.498-2.083,9.568c-0.495,1.247-1.178,2.388-2.139,3.355c-2.155,2.166-4.652,1.957-6.396-0.562
		c-1.958-2.829-2.759-6.106-3.238-9.404c-1.005-6.933-0.261-13.775,1.412-20.561c0.472-1.914,2.117-3.143,2.422-5.097
		c0.36-2.302,0.841-4.586,1.315-6.867c0.094-0.451,0.032-0.702-0.349-0.945c-3.604-2.297-7.36-4.311-11.129-6.289
		c-1.04,4.107,0.247,7.816,1.485,11.329c2.479,7.035,2.406,14.223,2.052,21.449c-0.138,2.805-0.533,5.651-1.781,8.281
		c-0.578,1.215-1.27,2.425-2.665,2.358c-1.413-0.067-2.274-1.263-2.851-2.525c-1.273-2.784-1.378-5.804-1.407-8.754
		c-0.082-8.016,0.425-15.99,2.791-23.729c0.795-2.601,0.354-5.098-0.489-7.602c-0.252-0.752-0.735-1.095-1.344-1.474
		c-5.799-3.606-11.585-7.239-17.392-10.829c-6.423-3.974-13.05-7.575-19.501-11.484c-0.255-0.154-0.581-0.188-0.873-0.278
		c0-0.384,0-0.767,0-1.151c6.167,3.521,12.327,7.052,18.509,10.545c0.52,0.294,1.142,1.302,1.792,0.003
		c0.543-1.085-0.233-1.27-0.891-1.648C88.337,70.36,81.87,66.62,75.401,62.885c0-0.256,0-0.512,0-0.768
		c8.458,4.645,16.907,9.309,25.38,13.926c3.873,2.109,2.675,1.883,5.186-1.727c0.884-1.271,0.761-1.917-0.636-2.743
		c-6.375-3.771-12.647-7.719-19.018-11.5c-3.625-2.152-7.082-4.596-10.912-6.396C75.401,53.42,75.401,53.166,75.401,52.91z
		 M165.785,34.484c-1.407-1.089-2.681-2.311-3.724-3.763c-0.87-1.211-1.923-2.209-3.373-2.671c-0.637-0.204-1.311-0.179-1.655,0.524
		c-0.227,0.464,1.828,3.935,2.361,3.982c2.055,0.186,3.375,1.435,4.232,3.131c0.356,0.705,0.774,1.187,1.342,1.696
		c1.534,1.371,3.065,2.791,3.286,5.077c-1.106-2.742-3.984-4-5.316-6.574c-0.552-1.067-1.451-1.945-2.605-2.43
		c-0.462-0.194-0.99-0.252-1.445,0.112c-0.564,0.449-0.163,0.892-0.003,1.351c0.288,0.826,0.46,1.706,0.846,2.482
		c0.607,1.227,1.19,2.971,2.605,2.977c1.817,0.009,2.835,0.769,3.678,2.092c0.48,0.754,1.099,1.321,1.735,1.93
		c1.186,1.135,2.922,1.891,3.295,4.314c-2.198-2.959-4.931-4.717-6.885-7.247c-0.413-0.535-1.164-0.743-1.672-0.235
		c-0.41,0.409-0.246,1.112,0.087,1.604c0.804,1.19,1.247,2.585,2.362,3.611c2.965,2.726,5.209,6.327,9.356,7.599
		c0.172,0.053,0.575-0.129,0.48,0.327c-0.25,1.22,0.676,1.939,1.205,2.813c3.859,6.388,8.538,12.268,11.688,19.101
		c0.696,1.51,1.988,2.562,3.649,3.131c2.518,0.862,4.996,1.865,7.195,3.385c4.134,2.858,8.481,2.769,13.049,1.301
		c2.898-0.931,5.868-1.634,8.806-2.439c-2.808,1.776-6.102,2.229-9.441,3.551c3,0.775,5.669,0.69,8.321,0.877
		c-1.816,0.902-3.704,0.645-5.562,0.389c-1.682-0.231-3.422-1.099-4.994-0.836c-2.9,0.484-5.602,0.09-8.381-0.766
		c1.555,5.494,6.378,7.928,10.53,8.325c3.895,0.373,7.704-0.189,11.54-0.752c6.771-0.993,7.99-4.43,7.136-10.46
		c-0.688-4.857-3.515-8.535-6.19-12.386c-1.915-2.757-4.399-4.126-7.585-4.4c-2.774-0.238-5.491,0.217-8.308,0.997
		c0.683,0.97,2.18,0.955,2.399,2.367c-1.576-0.765-2.969-1.673-4.496-2.119c-1.549-0.451-3.139-1.201-4.896-0.762
		c0.297,0.91,1.139,1.483,0.98,2.346c-5.455-6.741-12.355-12.104-18.086-18.552c-0.819,0.609-0.65,1.651-1.804,1.95
		c0.569-1.56,1.053-2.964,1.59-4.349c1.373-3.542,1.248-7.003-0.85-10.193c-2.354-3.58-5.299-6.751-7.226-10.641
		c-0.464-0.938-1.37-1.846-2.648-1.092c-1.257,0.741-1.019,1.814-0.581,2.995c0.696,1.875,1.853,3.465,2.886,5.138
		c2.034,3.293,1.852,5.478-0.731,8.621c0.048-0.956,0.272-1.82,0.718-2.568c0.519-0.873,0.457-1.459-0.44-2.002
		c-0.647-0.391-1.152-1.056-1.829-1.351c-2.36-1.026-3.677-3.102-5.337-4.885c-1.657-1.778-2.807-3.938-4.555-5.603
		c-0.538-0.513-1.203-1.431-2.105-0.708c-0.852,0.681-0.886,1.604-0.152,2.493c1.354,1.639,2.305,3.6,4.056,4.924
		c0.744,0.562,1.422,1.248,1.424,2.308L165.785,34.484z M175.432,165.366c-0.282,4.967-0.595,9.932-0.839,14.9
		c-0.293,5.984-0.442,11.977-0.85,17.953c-0.098,1.427,0.239,1.933,1.478,2.457c7.56,3.201,15.578,4.509,23.575,5.931
		c1.058,0.188,1.458-0.419,1.872-1.218c5.475-10.561,9.331-21.764,12.963-33.046c1.155-3.588,1.271-7.491,3.36-10.806
		c1.495-2.373,1.466-2.438-0.982-4.003c-8.677-5.551-17.062-11.56-26.081-16.571c-1.284-0.713-2.388-1.696-3.044-3.056
		c-0.428-0.886-0.817-1.137-1.635-0.339c-2.844,2.776-5.304,5.82-6.816,9.541C176.055,152.962,175.526,159.133,175.432,165.366z
		 M225.778,70.714c-0.223,0.359-0.293,0.432-0.28,0.457c0.219,0.377,0.424,0.767,0.683,1.118c2.896,3.947,4.434,8.32,4.327,13.266
		c-0.081,3.71-2.146,6.461-5.737,7.225c-3.657,0.778-7.354,1.271-11.106,1.343c-7.344,0.139-11.051-2.347-14.28-9.599
		c-0.348-0.782-1.185-1.402-1.929-1.343c-0.723,0.059-0.663,1.046-0.66,1.726c0.007,2.359,0.208,4.709,0.31,7.059
		c0.256,5.858,1.604,11.516,2.573,17.25c0.682,4.032,2.01,8.081,0.88,12.214c-0.335,1.229,0.135,1.545,0.977,1.97
		c3.316,1.674,6.725,3.197,9.909,5.097c5.917,3.53,11.704,7.283,17.542,10.943c0.542,0.339,0.993,0.691,1.429-0.216
		c2.52-5.237,5.336-10.333,6.604-16.101c1.333-6.061,2.252-12.183,3.025-18.33c0.221-1.752,1.372-3.369,1-5.159
		c-1.848-8.897-5.561-17.006-10.766-24.406C229.088,73.531,227.324,72.238,225.778,70.714z M190.595,218.302
		c-0.09-0.088-0.181-0.176-0.27-0.264c0.548-0.51,1.066-1.06,1.65-1.523c2.207-1.75,4.193-3.717,5.811-6.025
		c1.911-2.727,1.879-2.739-1.346-3.403c-7.392-1.521-14.856-2.77-21.83-5.85c-0.734-0.324-1.102-0.405-1.198,0.63
		c-0.322,3.471-0.645,6.947-1.161,10.393c-0.494,3.303-1.219,6.544-3.156,9.415c-2.653,3.933-4.949,8.119-7.768,11.921
		c-4.206,5.677-5.776,11.99-5.505,18.905c0.13,3.325-0.391,6.606-0.893,9.859c-0.913,5.919-2.298,11.744-4.695,17.272
		c-0.456,1.049-0.142,1.716,0.873,2.105c1.583,0.607,3.151,1.264,4.765,1.776c3.059,0.971,7.24-1.097,8.399-4.081
		c4.926-12.676,9.718-25.403,14.16-38.26c1.399-4.05,3.29-7.634,6.788-10.515c4.304-3.544,7.142-8.28,8.093-14.178
		C192.307,217.154,191.452,217.728,190.595,218.302z M227.034,70.825c-0.558-3.81-0.937-7.261-1.617-10.652
		c-0.307-1.528,0.326-2.161,1.455-2.629c1.278-0.529,2.619-0.905,3.905-1.417c1.832-0.728,2.403-2.717,1.172-4.216
		c-0.603-0.735-0.715-1.207-0.225-2.151c0.454-0.878,0.527-2.143,0.306-3.133c-0.232-1.036-0.095-1.691,0.698-2.286
		c1.091-0.819,0.956-1.531,0.008-2.462c-2.028-1.989-4.675-3.614-4.596-7.011c0.004-0.161-0.175-0.331-0.28-0.488
		c-1.368-2.047-2.775-4.069-4.096-6.146c-1.246-1.958-3.085-2.87-5.263-3.345c-4.669-1.018-9.062,0.081-13.251,1.958
		c-7.107,3.186-10.146,10.45-7.704,17.881c1.148,3.493,3.32,6.363,5.472,9.264c1.851,2.497,4.355,4.572,4.673,8.07
		c0.091,1.006-0.785,2.56,0.375,2.989c0.976,0.362,2.319-0.269,3.5-0.461c0.062-0.011,0.119-0.056,0.181-0.061
		c4.132-0.312,8.084-0.15,11.217,3.218C224.015,68.875,225.447,69.645,227.034,70.825z M177.786,305.926
		c3.143-0.15,6.324-0.128,9.31-1.408c1.841-0.789,2.699-2.223,2.801-4.16c0.175-3.333-1.595-5.399-5.683-6.472
		c-5.326-1.396-10.373-3.503-15.334-5.848c-2.171-1.026-3.661-2.518-3.479-5.13c0.044-0.625-0.146-1.292-0.553-1.55
		c-0.636-0.402-0.927,0.432-1.332,0.767c-3.71,3.07-10.008,2.996-13.627-0.178c-1.693-1.485-1.707-1.49-2.517,0.907
		c-0.945,2.796-1.966,5.554-3.089,8.29c-1.919,4.667-0.514,8.281,4.335,9.646c1.264,0.355,2.509,0.786,3.778,1.121
		c4.403,1.164,8.957,1.453,13.421,2.273C169.781,304.911,173.678,306.141,177.786,305.926z M227.319,145.94
		c0.062-0.461-0.573-0.488-0.972-0.705c-9.823-5.331-19.66-10.634-29.461-16.004c-1.131-0.62-1.803-0.376-2.638,0.434
		c-1.553,1.506-3.136,2.996-4.825,4.343c-2.894,2.306-2.966,3.114-0.146,5.54c0.474,0.408,1.052,0.698,1.59,1.027
		c2.757,1.68,5.553,3.296,8.267,5.042c6.224,4.006,12.425,8.049,18.592,12.139c1.078,0.717,1.751,0.617,2.499-0.368
		c1.153-1.518,2.418-2.95,3.552-4.481C225.292,150.863,226.485,148.636,227.319,145.94z M165.392,278.81
		c0.427,0.021,0.755,0.109,1.044,0.04c5.903-1.402,11.834-0.867,17.745-0.165c3.652,0.433,7.206,0.051,10.725-0.827
		c1.197-0.298,2.549-0.611,2.648-2.272c0.109-1.819,0.073-3.53-1.79-4.656c-1.971-1.191-4.156-1.733-6.309-2.379
		c-3.661-1.098-7.429-1.855-10.893-3.554c-1.693-0.831-2.611-2.109-2.467-4.083c0.045-0.619,0.271-1.39-0.598-1.817
		c-0.693,1.626-0.547,3.866-2.95,4.191c-1.253,0.17-1.754,0.99-2.138,2.031C168.776,269.741,167.125,274.156,165.392,278.81z
		 M175.535,68.774c-0.325,1.217,0.238,1.523,0.754,1.906c1.035,0.769,2.057,1.72,2.408,2.894c0.59,1.975,2.001,3.029,3.632,3.783
		c2.657,1.229,4.303,3.362,5.891,5.676c1.667,2.433,3.885,4.33,6.41,5.862c0.955,0.58,1.495,0.631,1.412-0.751
		c-0.066-1.082-0.298-2.271,0.042-3.236c0.941-2.67-0.99-3.15-2.654-3.908c-0.227-0.104-0.48-0.155-0.724-0.217
		c-3.397-0.865-5.386-3.106-6.815-6.268c-1.983-4.386-4.966-8.214-7.541-12.268c-0.504-0.794-1.223-1.239-2.072-0.757
		c-1.043,0.592-0.447,1.426-0.052,2.144c0.517,0.94,1.094,1.834,1.79,2.669c0.609,0.73,1.412,1.476,0.965,2.687
		c-0.397-1.735-2.151-2.459-2.806-3.985c-0.348-0.811-1.007-0.752-1.562-0.368c-0.76,0.525-0.009,0.925,0.22,1.396
		c1.01,2.072,2.899,3.512,3.856,5.658C177.697,70.772,176.706,69.856,175.535,68.774z M133.212,121.851
		c0.21-3.348-0.328-6.844-1.151-10.301c-0.225-0.943-0.264-2.477-1.168-2.538c-0.966-0.065-1.145,1.464-1.437,2.362
		c-2.415,7.44-1.227,14.861,0.218,22.274c0.097,0.497,0.153,1.22,0.644,1.274c0.626,0.068,0.796-0.672,1.012-1.183
		C132.913,130.007,133.358,126.088,133.212,121.851z M149.258,97.462c0.026-0.818-0.668-0.901-1.135-1.128
		c-4.474-2.176-8.962-4.325-13.449-6.476c-0.264-0.127-0.668-0.367-0.816-0.269c-1.161,0.773-1.154,2.177-1.583,3.319
		c-0.297,0.792,0.713,0.943,1.217,1.191c4.376,2.162,8.776,4.274,13.171,6.396c0.309,0.149,0.697,0.623,0.975,0.15
		C148.244,99.615,148.732,98.514,149.258,97.462z M144.307,101.979c0.067-0.841-0.658-0.905-1.098-1.159
		c-3.442-1.985-6.894-3.957-10.377-5.867c-0.578-0.318-1.335-1.288-1.887-0.542c-0.458,0.621,0.288,1.512,0.793,2.149
		c0.23,0.291,0.558,0.525,0.881,0.718c3.26,1.939,6.521,3.874,9.794,5.787C143.497,103.698,144.326,103.181,144.307,101.979z
		 M171.491,262.761c1.765-0.231,2.69-0.912,2.778-2.559c0.042-0.798,0.357-1.583,0.544-2.373c0.803-3.374,1.604-6.747,2.404-10.12
		c-0.072-0.021-0.143-0.041-0.215-0.062C175.19,252.613,173.379,257.581,171.491,262.761z M129.562,95.104
		c0.837,3.289,1.723,6.567,2.475,9.875c0.192,0.846,0.354,1.268,1.296,1.069c1.044-0.221,0.701-1.042,0.527-1.497
		C132.625,101.325,131.645,97.982,129.562,95.104z M165.655,225.37c1.881-3.059,4.39-5.804,4.963-9.568
		C168.694,218.841,166.235,221.589,165.655,225.37z M125.601,121.12c-0.103-3.26,1.398-6.368,1.08-9.653
		C124.771,114.509,126.041,117.917,125.601,121.12z M116.244,96.918c-0.593,1.248-0.919,2.497-0.956,3.845
		C118.917,100.179,116.192,98.213,116.244,96.918z M114.285,115.221c-0.102-1.852,1.065-3.628,0.35-5.952
		C113.659,111.492,114.455,113.385,114.285,115.221z"/>
	<path fill-rule="evenodd" clip-rule="evenodd" d="M165.748,34.521c1.905,0.751,2.315,3.04,3.944,4.074
		c-1.933-0.734-2.973-2.368-3.907-4.111L165.748,34.521z"/>
	<path fill-rule="evenodd" clip-rule="evenodd" d="M212.992,40.538c-0.671,0.041-1.24-0.019-1.751,0.125
		c-1.375,0.387-1.988,1.425-1.635,2.747c0.616,2.31,2.422,3.757,4.408,4.722c1.667,0.81,1.417-0.963,1.712-1.942
		c0.959,0.637,0.666,1.295,0.178,1.952c-0.565,0.763-1.389,0.967-2.141,0.521c-1.913-1.136-3.767-2.437-4.56-4.632
		c-0.443-1.222-0.387-2.572,0.868-3.434C210.934,40.003,211.874,39.301,212.992,40.538z"/>
</g>
<g>
</g>
<g>
</g>
<g>
</g>
<g>
</g>
<g>
</g>
<g>
</g>
</svg>
