<?xml version="1.0" encoding="utf-8"?>
<!-- Generator: Adobe Illustrator 16.0.0, SVG Export Plug-In . SVG Version: 6.00 Build 0)  -->
<!DOCTYPE svg PUBLIC "-//W3C//DTD SVG 1.1//EN" "http://www.w3.org/Graphics/SVG/1.1/DTD/svg11.dtd">
<svg version="1.1" id="cPuAx3svUTILs0Cf1aY8MQg3kRjYy-1lHAxV1kS858E_xA0_Image_1_"
	 xmlns="http://www.w3.org/2000/svg" xmlns:xlink="http://www.w3.org/1999/xlink" x="0px" y="0px" width="640px" height="960px"
	 viewBox="0 0 640 960" enable-background="new 0 0 640 960" xml:space="preserve">
<g>
	<path fill-rule="evenodd" clip-rule="evenodd" d="M1,166c12.091,7.142,23.279,15.629,34.834,23.56
		c35.016,24.034,69.846,48.339,104.759,72.521c0.796,0.552,2.128,1.533,2.527,1.271c4.656-3.053,6.958,1.339,9.607,3.267
		c17.795,12.946,35.623,25.865,53.018,39.338c24.75,19.17,52.239,33.18,81.074,44.926c11.071,4.511,20.879,11.321,30.218,18.735
		c1.685,1.337,3.928,2.71,2.161,5.708c-0.833,1.416,0.918,1.883,1.837,2.43c11.348,6.743,22.744,13.407,34.06,20.203
		c4.058,2.438,4.747-1.683,6.459-3.271c11.581-10.751,16.472-25.197,21.39-39.586c9.377-27.436,27.057-46.869,54.486-57.137
		c5.249-1.965,10.874-2.938,15.068-7.688c4.224-4.78,6.322-9.952,6.466-16.066c0.145-6.145-0.7-12.284-2.208-18.172
		c-4.654-18.169,1.413-32.309,15.456-43.75c20.998-17.108,58.289-4.684,67.507,11.011c4.491,7.645,6.388,15.771,4.668,24.719
		c-0.832,4.329-1.085,8.583-2.934,12.853c-1.115,2.576,1.024,6.597,1.805,9.944c0.521,2.232,1.257,4.413,1.833,6.633
		c0.923,3.557,0.445,6.56-3.996,6.642c-5.635,0.104-3.807,5.898-6.682,8.349c-2.91,2.479-4.527,6.396-5.451,10.534
		c-1.18,5.29-5.492,7.478-10.929,6.519c-13.525-2.386-15.697-0.183-23.637,11.017c-6.646,9.374-6.977,18.396-4.071,28.35
		c0.858,2.938-0.718,6.582,1.453,8.58c2.16,1.987,5.328-0.527,8.166-0.341c7.383,0.484,12.912,4.589,18.44,8.808
		c0.395,0.302,0.674,0.762,1.084,1.031c3.591,2.358,7.011,6.166,10.849,6.651c4.711,0.597,4.694-5.705,7.176-8.675
		c13.273-15.89,23.391-33.934,34.461-51.326c0.786-1.234,1.354-2.606,2.106-3.865c2.214-3.704,2.25-6.829-1.43-9.906
		c-10.877-9.097-10.779-20.812-7.275-33.125c0.373-1.309,0.361-2.618,0.705-3.852c0.453-1.629-1.65-4.326,1.723-4.79
		c2.755-0.38,4.934,0.8,6.079,3.302c1.822,3.983,1.358,8.407,2.092,12.607c0.223,1.271,0.167,2.591,0.236,3.829
		c1.8,0.562,2.398-0.64,2.689-1.662c3.145-11.038,8.665-21.224,11.485-32.396c0.826-3.271,2.58-6.347,5.12-8.919
		c2.486-2.517,4.737-4.454,7.783-1.028c1.188,1.337,1.791,0.541,2.727-0.26c1.648-1.41,2.611-4.325,5.562-3.223
		c3.128,1.169,3.7,3.953,3.537,6.954c6.96-1.324,8.978,0.046,7.662,6.875c-0.696,3.613,1.941,5.196,2.268,7.929
		c0.657,5.521-0.361,10.888-1.174,16.291c-2.294,15.249-8.4,28.959-16.872,41.685c-12.102,18.179-20.654,38.174-30.024,57.772
		c-6.601,13.809-13.206,27.657-22.681,39.896c-3.579,4.624-7.237,6.334-13.212,4.749c-6.878-1.825-14.138-1.738-21.289-1.441
		c-9.192,0.382-18.11-1.101-26.721-4.211c-1.979-0.715-3.022-0.76-3.81,1.271c-7.468,19.241-20.345,35.052-32.6,51.244
		c-12.215,16.141-19.73,34.398-24.618,53.873c-0.519,2.066-1.08,4.123-1.788,6.816c4.738,0,9.295-0.115,13.844,0.02
		c22.743,0.674,45.102,3.633,66.094,12.959c12.736,5.659,24.796,13.195,35.396,21.819c13.938,11.34,18.712,27.607,11.393,45.104
		c-3.481,8.324-11.299,12.324-18.145,17.129c-24.615,17.277-50.864,31.976-76.24,48.056c-13.083,8.29-24.266,19.042-36.473,28.467
		c-2.095,1.617,0.256,2.981-0.548,4.409c-6.312,11.214,1.237,18.79,6.896,27.086c7.354,10.781,15.13,21.244,22.803,31.789
		c3.729,5.127,3.171,11.951-1.008,17.379c-3.977,5.165-9.18,6.93-15.328,4.979c-13.08-4.15-24.006-12.029-33.451-21.528
		c-8.968-9.019-19.207-16.301-28.964-24.257c-5.408-4.411-11.142-8.525-15.351-14.188c-9.323-12.542-7.802-22.997,4.718-32.387
		c4.396-3.298,8.506-6.872,12.523-10.614c3.591-3.344,7.276-7.01,13.103-4.435c1.426,0.63,2.701-0.828,3.919-1.696
		c11.054-7.882,20.027-17.749,28.231-28.509c8.343-10.942,17.882-20.926,26.261-31.872c3.527-4.608,8.561-7.716,14.343-11.583
		c-5.876,0.371-10.689,0.484-15.457,1.007c-22.543,2.47-44.602,1.451-65.383-8.862c-3.327-1.651-4.773-1.356-5.661,2.703
		c-4.354,19.921-15.391,36.149-28.431,51.391c-6.422,7.507-11.515,16.141-17.77,23.808c-3.814,4.675-6.732,9.717-9.268,15.073
		c-5.332,11.261-14.832,18.463-24.65,25.328c-2.41,1.686-4.234,3.823-5.466,6.345c-15.562,31.826-30.174,64.089-44.088,96.667
		c-2.341,5.482,2.725,19.121,8.382,22.742c7.709,4.936,16.69,6.92,24.934,10.624c5.393,2.423,10.839,4.71,15.699,8.169
		c7.026,5.002,10.317,11.91,8.488,18.071c-2.339,7.875-8.07,10.929-17.607,11.719c-6.826,0.565-13.433-1.32-19.851-3.557
		c-10.066-3.507-20.438-4.749-31.047-5.522c-12.429-0.906-25.135-1.634-36.232-8.486c-6.85-4.23-9.548-11.07-7.256-18.781
		c2.197-7.391,4.943-14.617,7.197-21.992c1.421-4.648,3.409-8.722,8.344-10.289c1.91-0.606,2.02-2.152,2.417-3.39
		c7.589-23.646,16.186-46.978,16.676-72.378c0.209-10.872,6.231-20.345,11.532-29.663c6.708-11.792,14.11-23.177,23.23-33.236
		c8.653-9.545,10.893-21.509,13.983-33.26c4.671-17.765,4.747-36.027,6.071-54.161c0.211-2.89-1.4-3.864-3.332-5.641
		c-2.467-2.27-3.627-1.585-5.883-0.385c-4.588,2.439-6.849,0.831-6.879-4.259c-0.016-2.611,1.144-4.748,2.03-7.013
		c-0.252-0.166-0.571-0.475-0.658-0.419c-2.795,1.781-5.615,4.189-8.924,1.271c-3.105-2.74-0.57-5.519,0.518-8.101
		c3.523-8.361,7.176-16.671,14.658-23.802c-6.651,1.626-9.486,6.727-13.738,9.858c-1.324,0.976-2.38,2.331-3.745,3.231
		c-2.505,1.652-5.08,1.499-7.227-0.658c-2.318-2.329,0.149-4.086,1.217-5.604c6.06-8.609,11.954-17.138,22.83-20.95
		c4.986-1.748,8.012-7.302,11.934-11.12c3.802-3.703,7.207-7.806,11.708-10.774c1.199-0.79,2.201-2.075,2.938-3.34
		c10.78-18.508,20.325-37.65,29.447-57.02c3.288-6.98,6.939-13.803,10.716-20.534c1.547-2.757,1.381-4.26-1.431-5.912
		c-10.523-6.188-20.871-12.675-31.414-18.829c-5.68-3.315-12.229-4.935-17.733-8.654c-1.018-0.688-2.042-0.653-2.603,0.298
		c-2.182,3.703-4.643,1.706-7.218,0.604c-6.93-2.965-11.889-8.444-17.104-13.507c-11.974-11.626-26.492-19.646-40.146-28.897
		c-6.26-4.242-12.5-8.514-19.066-12.988c-0.034,3.839,1.787,6.843,2.715,10.062c4.475,15.518,9.631,30.917,8.343,47.438
		c-1.065,13.673-2.665,27.241-7.964,40.087c-1.479,3.585-3.598,6.723-6.14,9.568c-5.846,6.543-13.069,5.603-17.841-2.189
		c-3.508-5.727-4.994-12.157-5.945-18.621c-2.873-19.511,0.122-38.492,5.809-57.179c1.218-4.003,3.167-7.493,5.797-10.756
		c3.903-4.84,2.957-11.311,5.18-16.768c2.008-4.932,0.86-8.29-4.359-11.004c-6.851-3.562-13.107-8.268-19.624-12.475
		c-4.028-2.601-4.516-2.233-4.934,2.754c-0.576,6.879,0.578,13.584,2.373,20.091c4.186,15.171,5.723,30.606,4.527,46.193
		c-0.829,10.798-1.768,21.71-5.799,31.984c-1.76,4.485-3.493,9.999-9.229,9.469c-5.13-0.475-6.844-5.539-7.894-10.278
		c-2.044-9.223-1.313-18.604-0.669-27.793c0.689-9.835,1.814-19.714,3.624-29.483c1.625-8.778,5.378-16.873,7.43-25.508
		c1.508-6.345,0.792-12.485-0.633-18.599c-0.688-2.948-3.875-4.064-6.086-5.582c-13.622-9.349-27.047-19.007-40.513-28.548
		C75.777,252.178,37.871,228.876,1,204c0-0.667,0-1.333,0-2c0.47,0.136,1.009,0.167,1.4,0.424
		c22.891,15.014,45.77,30.047,68.65,45.077c12.215,8.025,24.442,16.032,36.634,24.093c1.979,1.309,3.657,2.432,4.801-0.854
		c0.981-2.82-1.634-2.925-2.893-3.781c-27.963-19.045-56.372-37.41-85.041-55.368C16.728,206.688,9.462,200.871,1,197c0-1,0-2,0-3
		c10.697,6.859,21.385,13.734,32.094,20.575c29.917,19.108,59.813,38.249,89.781,57.278c10.231,6.497,10.206,6.287,16.602-2.919
		c2.027-2.918,1.867-4.177-1.24-6.315c-31.074-21.393-61.959-43.061-92.976-64.536C30.595,187.929,15.759,178.02,1,168
		C1,167.333,1,166.667,1,166z M422.918,327.766c-1.633,8.069-7.851,10.57-13.52,13.138c-8.78,3.976-15.421,10.053-20.834,17.904
		c-5.247,7.613-8.41,16.469-14.428,23.598c-7.601,9.004-15.58,17.732-22.61,27.165c-10.517,14.11-17.517,30.292-25.363,45.941
		c-4.93,9.831-8.924,20.113-14.553,29.614c-6.785,11.452-13.873,22.589-24.49,31.057c-4.268,3.403-6.898,9.37-11.931,11.122
		c-10.718,3.732-16.603,12.03-22.587,20.555c-0.675,0.961-2.446,1.646-0.935,3.248c1.261,1.336,2.751,1.148,4.092,0.33
		c3.583-2.186,6.49-5.192,9.415-8.154c1.99-2.016,3.876-4.329,6.854-4.683c4.433-0.526,7.017-3.187,9.026-6.821
		c0.537-0.971,1.44-1.737,2.176-2.598c-2.044,5.023-4.403,9.688-8.192,13.14c-7.224,6.581-10.192,15.645-14.611,23.862
		c-0.762,1.417-1.199,3.663,0.346,4.534c1.43,0.806,3.487,0.645,5.03-0.919c2.443-2.476,4.369-5.287,6.358-8.128
		c4.853-6.931,9.198-14.28,15.453-20.207c-0.024,0.861-0.307,1.578-0.749,2.177c-6.368,8.634-11.533,17.959-15.923,27.725
		c-1.329,2.956-4.622,7.02-1.498,9.036c4.286,2.768,7.226-2.016,9.244-5.191c3.606-5.676,7.562-11.153,10.405-17.329
		c2.677-5.816,6.623-9.916,11.982-13.062c-9.243,9.042-13.27,21.483-20.977,31.517c-1.249,1.625-1.455,2.844-0.025,4.324
		c1.342,1.391,2.695,1.832,4.341,0.458c1.268-1.059,2.929-1.783,3.882-3.056c3.347-4.47,6.524-9.07,9.652-13.697
		c5.564-8.228,11.804-15.789,20.758-22c-0.749,2.663-3.069,3.754-1.852,6.43c2.268,4.986,1.658,10.18-0.25,15.312
		c-1.111,2.987-0.999,6.177-0.01,9.254c0.651,2.025,2.168,2.679,4.217,2.8c2.583,0.152,2.325-1.895,2.845-3.322
		c0.854-2.348,0.377-4.845,1.074-7.327c4.13-14.699,7.363-29.476,2.416-44.763c-1.069-3.302-0.12-6.792,1.733-10.04
		c4.437-7.774,9.737-14.922,14.981-22.146c9.472-13.045,19.758-25.478,26.608-40.38c5.945-12.933,14.772-23.778,27.954-30.472
		c12.753-6.476,24.887-13.715,32.89-26.339c3.048-4.806,5.464-10.469,10.255-13.75c10.804-7.4,23.6-11.765,33.286-22.996
		c-0.705,4.552-3.098,6.077-5.152,7.841c-6.844,5.872-14.996,9.629-22.73,14.062c-1.098,0.629-3.017,0.905-2.776,2.384
		c0.239,1.474,2.007,1.867,3.485,2.086c4.089,0.604,8.194,1.824,12.259,1.698c7.225-0.225,15.046-0.274,18.441-8.629
		c3.953-9.726,4.923-20.025,2.958-30.214c-2.663-13.811-10.733-25.03-19.46-35.654c-5.007-6.097-11.662-7.823-19.194-5.189
		c-12.927,4.521-23.387,12.311-30.549,24.074c-2.128,3.495-4.326,7.237-3.943,11.889
		C415.532,336.114,417.701,334.478,422.918,327.766z M429.92,597.883c12.236,0.876,24.216-1.601,36.318-1.924
		c6.414-0.171,10.019-3.168,12.219-9.584c5.812-16.951,11.391-33.895,14.779-51.562c0.961-5.01-0.152-5.943-4.651-7.018
		c-11.109-2.651-22.29-4.113-33.663-5.133c-18.01-1.616-35.955-0.606-53.813,0.789c-11.651,0.911-21.944-0.865-31.494-7.326
		c-5.606-3.792-10.985-7.935-16.707-11.537c-4.138-2.604-8.103-8.329-12.273-7.243c-4.071,1.061-5.782,7.551-8.462,11.709
		c-2.507,3.891-4.071,7.841-2.837,12.582c2.926,11.235,3.479,22.466-0.174,33.703c-0.807,2.481-0.27,4.296,2.553,5.906
		c16.926,9.658,34.084,18.84,51.834,26.897C398.305,594.842,413.536,599.321,429.92,597.883z M512.125,596
		c-8.967,0-17.97-0.489-26.889,0.164c-6.438,0.472-13.282-0.469-19.231,3.318c-5.616,3.575-11.279,7.21-15.371,12.499
		c-6.694,8.654-14.098,16.71-20.884,25.263c-10.735,13.532-21.307,27.162-36.165,36.552c-3.187,2.013-2.801,4.095-0.8,6.419
		c2.168,2.519,4.629,4.785,6.777,7.318c9.547,11.257,17.381,11.526,28.442,2.132c12.575-10.681,25.275-21.188,39.415-29.954
		c25.801-15.993,51.875-31.542,76.962-48.716c14.549-9.96,16.544-29.612,10.186-41.226c-4.222-7.71-9.335-14.049-17.38-18.338
		c-12.156-6.483-22.795-15.645-36.111-20.2c-4.405-1.507-5.459-0.034-6.112,3.88c-1.782,10.682-4.339,21.183-7.741,31.488
		c-3.089,9.355-6.204,18.7-9.927,27.697C489.132,594.05,500.539,593.213,512.125,596z M237.436,822.688
		c2.463-0.205,4.951-1.576,6.196-4.683c1.162-2.899,2.126-5.88,3.351-8.751c12.414-29.09,25.228-58.001,39.149-86.408
		c2.959-6.039,5.325-12.5,11.155-16.64c3.096-2.199,6.168-4.435,9.204-6.716c6.643-4.994,12.733-11.267,14.411-19.064
		c1.24-5.769,5.235-7.98,7.971-11.794c3.174-4.424,6.284-8.899,9.624-13.196c1.604-2.062,0.625-2.807-1.186-3.246
		c-18.723-4.542-37.239-9.59-53.452-20.646c-1.42-0.969-2.542-1.123-2.941,1.354c-0.729,4.524-1.681,9.05-3.008,13.434
		c-2.541,8.393-3.289,17.323-9.185,24.663c-10.554,13.138-20.654,26.639-28.787,41.495c-4.604,8.409-9.61,16.968-9.716,26.606
		c-0.168,15.264-3.742,29.727-7.861,44.158c-2.701,9.464-5.906,18.782-8.764,28.202c-0.549,1.81-2.466,4.367,0.673,5.44
		C221.581,819.395,228.979,821.676,237.436,822.688z M486.169,331.331c2.79-4.833,5.11-9.383,7.915-13.611
		c8.293-12.51,12.024-13.272,23.679-10.398c4.601,1.134,9.469-0.688,9.604-5.553c0.2-7.121,7.806-10.732,7.955-17.784
		c0.018-0.81,1.266-0.798,2.075-1.002c6.841-1.723,6.81-1.734,4.874-8.369c-1.056-3.617-2.074-7.25-2.956-10.912
		c-0.302-1.251-0.723-3.209-0.091-3.83c3.947-3.885,2.851-9.105,3.46-13.613c1.307-9.657-0.958-18.747-7.987-26.016
		c-8.056-8.331-18.554-11.27-29.543-13.515c-22.267-4.551-47.595,11.183-48.115,39.58c-0.13,7.121,2.856,13.776,3.547,20.858
		c0.927,9.519,0.136,18.147-7.3,25.066c-0.669,0.622-1.676,1.257-1.223,2.026C472.312,298.531,476.755,316.694,486.169,331.331z
		 M530.299,379.993c1.408-2.321,0.686-3.745-1.521-4.666c-4.797-2.003-8.574-5.51-12.627-8.628
		c-4.461-3.432-9.103-6.563-14.867-7.497c-6.689-1.084-9.354,0.954-9.255,7.448c0.048,3.152,0.267,6.316,0.646,9.445
		c0.989,8.18,0.071,16.295-1.199,24.312c-0.457,2.883,0.041,3.817,2.549,4.646c7.41,2.448,14.938,4,22.78,3.965
		c8.285-0.038,16.652-0.633,24.755,1.561c4.849,1.312,8.063-0.009,11.11-3.963c7.518-9.756,12.86-20.726,18.507-31.547
		c9.984-19.132,17.294-39.589,29.026-57.867c9.614-14.979,19.178-30.041,21.405-48.345c0.717-5.894,2.813-11.716,0.408-19.289
		c-4.833,8.5-5.938,16.676-7.722,24.768c-1.575-1.951-1.281-3.815-0.703-6.065c1.996-7.773,3.938-15.551,7.47-22.803
		c1.34-2.752,1.136-5.93-1.191-6.988c-2.619-1.19-3.98,1.901-5.089,4.126c-3.315,6.652-4.514,13.99-6.908,20.931
		c-0.728,2.11-0.342,3.368,1.039,4.993c-1.825-1.08-4.167,0.023-5.44-2.081c1.597-0.679,2.224-1.802,2.677-3.605
		c1.475-5.884,3.41-11.653,5.197-17.457c0.772-2.508,1.673-4.977,2.409-7.493c0.681-2.323,0.054-4.421-2.029-5.627
		c-2.133-1.235-3.285,0.629-4.507,1.984c-3.533,3.918-5.149,8.663-6.255,13.72c-1.353,6.182-3.375,12.152-6.656,17.663
		c1.807-8.275,4.305-16.331,6.606-24.443c0.627-2.21,4.3-4.795,0.603-6.769c-3.622-1.933-5.053,1.835-6.655,4.19
		c-1.38,2.029-2.366,4.227-3.017,6.679c-0.79,2.979-1.519,5.981-2.776,8.886c-3.301,7.621-6.158,15.436-9.23,23.273
		c2.622,0.913,5.48,0.435,7.049,3.685c-2.968-1.423-5.798-1.473-8.467-1.046c-4.045,0.646-4.928-1.153-4.495-4.592
		c0.528-4.203-0.589-8.257-1.356-12.31c-0.292-1.544-1.488-3.241-3.413-3.013c-1.988,0.236-1.136,2.144-1.088,3.252
		c0.093,2.104-0.993,3.831-1.373,5.765c-2.003,10.181-2.786,19.859,5.976,28.008c6.961,6.472,6.685,7.391,1.927,15.748
		C561.371,336.178,545.212,357.485,530.299,379.993z M314.523,547.945c-3.421,3.703-6.685,6.71-9.597,10.146
		c-6.61,7.797-10.561,17.642-18.742,24.202c-0.993,0.796-1.216,1.86-1.199,3.099c0.108,7.658-1.3,15.231-1.091,22.924
		c0.139,5.112-0.224,10.359-1.308,15.34c-0.716,3.29,0.007,4.67,2.65,6.385c13.856,8.986,29.174,13.99,44.975,18.384
		c8.017,2.229,13.698,2.823,17.524-5.569c0.261-0.572,0.919-0.954,1.357-1.455c13.008-14.836,23.16-31.189,27.245-50.828
		c0.352-1.69,1.204-2.906-1.045-3.979c-15.441-7.371-30.518-15.438-45.264-24.114c-1.975-1.162-2.695-0.577-3.003,1.379
		c-0.537,3.414-1.28,6.814-1.543,10.25c-0.312,4.081-2.784,4.358-5.897,3.905c-3.809-0.554-5.185-3.265-5.541-6.621
		c-0.334-3.152-0.194-6.354,0.987-9.336C316.848,557.481,316.447,553.021,314.523,547.945z M342.058,494.602
		c9.571,6.682,18.88,13.239,28.253,19.705c8.301,5.728,17.574,8.662,27.59,7.496c8.766-1.021,17.571-0.798,26.331-1.68
		c3.011-0.303,4.052-1.153,4.938-4.065c3.811-12.525,6.695-25.404,12.778-37.126c1.316-2.535-0.508-2.733-1.699-3.576
		c-18.153-12.847-36.057-26.051-55.26-37.364c-3.512-2.069-5.105-2.041-7.376,1.536c-1.847,2.908-3.857,5.737-5.316,8.849
		c-3.432,7.32-6.87,14.591-11.802,21.094C354.24,477.716,348.237,486.152,342.058,494.602z M396.574,421.163
		c19.244,11.791,37.075,24.553,54.67,37.646c2.286,1.701,3.176,0.454,4.315-1.091c5.583-7.572,10.964-15.304,16.792-22.682
		c17.37-21.99,20.977-47.148,17.533-74.023c-0.756-5.902-0.821-11.978-2.309-17.686c-3.666-14.062-10.842-26.501-19.733-37.877
		c-5.958-7.623-14.076-10.572-23.433-7.712c-19.698,6.023-36.158,16.775-47.832,34.171c-6.656,9.918-11.6,20.549-14.644,33.37
		c6.292-9.846,12.1-18.477,21.711-23.558c1.242-0.656,1.908-1.942,2.154-3.241c2.933-15.446,13.322-25.031,25.947-32.692
		c7.443-4.518,15.409-8.106,24.29-4.453c6.595,2.713,10.074,8.844,14.103,14.327c12.07,16.431,17.407,34.241,11.873,54.512
		c-1.827,6.691-5.311,11.954-12.311,13.483c-8.014,1.75-16.301,1.71-23.934-1.376c-4.327-1.749-5.633-0.34-7.88,2.889
		c-6.124,8.798-11.659,18.265-21.043,24.188C410.457,413.393,403.79,416.983,396.574,421.163z M423.05,697.247
		c-6.845,1.587-13.656,1.993-19.144-2.406c-5.262-4.221-9.61-9.58-13.622-15.077c-0.829-1.135-1.896-2.655-1.104-4.147
		c1.932-3.643-1.095-2.77-2.423-2.447c-1.709,0.416-3.57,1.283-4.771,2.529c-5.687,5.897-12.505,10.445-18.541,15.905
		c-6.905,6.246-8.017,14.068-3.447,22.293c3.214,5.783,8.103,10.078,13.062,14.202c12.103,10.065,24.988,19.109,36.207,30.339
		c8.271,8.278,18.161,14.865,29.542,18.642c6.281,2.084,10.142,0.802,14.181-4.652c3.53-4.768,3.749-9.71,0.309-14.638
		c-7.95-11.385-15.791-22.856-24.113-33.966c-5.729-7.647-10.919-15.058-6.156-25.123C423.2,698.336,423.05,697.818,423.05,697.247z
		 M246.795,816.82c-2.536,4.922-5.232,8.432-10.175,7.896c-8.194-0.89-16.03-3.515-23.78-6.121c-5.753-1.936-6.625-2.216-8.88,3.688
		c-3.157,8.263-6.113,16.624-8.66,25.092c-2.06,6.849,1.312,13.815,7.752,17.147c7.731,3.999,16.175,5.616,24.705,6.411
		c14.789,1.378,29.607,2.135,43.815,7.271c8.297,2.999,16.936,4.63,25.454,0.362c6.658-3.336,8.807-10.118,5.367-16.688
		c-1.813-3.463-4.687-5.852-7.889-8.02c-7.891-5.341-16.887-8.194-25.614-11.644c-5.675-2.243-11.362-4.358-16.303-8.106
		C247.152,829.984,247.346,823.899,246.795,816.82z M191.976,432.827c12.354-13.122,13.806-59.03,5.725-70.155
		C185.429,385.16,188.543,408.325,191.976,432.827z M210.098,314.004c-4.145,0.962-3.544,5.096-5.466,7.421
		c-1.303,1.576,0.544,2.617,1.846,3.355c11.384,6.463,22.8,12.87,34.15,19.392c1.839,1.057,2.875,1.21,3.721-1.061
		c0.51-1.366,1.476-2.604,2.405-3.764c2.193-2.735,1.496-4.362-1.536-5.954c-8.809-4.623-17.497-9.478-26.212-14.277
		C215.968,317.443,212.986,315.665,210.098,314.004z M202.161,325.133c-1.31,0.093-2.274,0.568-1.686,1.824
		c1.008,2.151,1.262,4.545,3.713,6.138c8.322,5.407,16.351,11.269,24.661,16.695c1.002,0.655,2.473,4.182,4.539,0.599
		c1.466-2.544,1.539-4.118-1.338-5.904c-9.414-5.844-18.627-12.012-27.917-18.056C203.444,325.98,202.759,325.525,202.161,325.133z
		 M197.328,327.44c1.584,8.988,3.244,17.963,4.697,26.972c0.346,2.145,1.587,2.035,3.114,2.182c2.98,0.287,1.873-2.089,1.664-3.018
		C204.766,344.488,202.037,335.621,197.328,327.44z M187.262,369.416c-3.635,3.529-4.008,7.779-3.298,13.435
		C186.998,378.087,187.446,373.816,187.262,369.416z M158.858,339.863c6.256-1.63,6.398-2.195,2.75-8.798
		C160.106,333.658,159.69,336.501,158.858,339.863z M154.477,375.355c0.183-4.257,3.415-8.22,1.644-13.579
		C153.583,366.55,154.483,370.989,154.477,375.355z"/>
	<path fill-rule="evenodd" clip-rule="evenodd" d="M491.482,247.388c-4.515-1.78-7.797-3.142-10.364,0.214
		c-2.901,3.792-2.964,8.187-0.637,12.104c1.158,1.951,2.29,3.954,3.427,5.931c1.94,3.372,2.074,3.464,5.822,1.888
		c-2.068,3.642-4.668,4.32-6.253,1.199c-2.067-4.069-5.104-7.666-6.248-12.201c-1.649-6.532,3.395-13.103,9.508-12.562
		C488.59,244.123,489.604,245.054,491.482,247.388z"/>
</g>
</svg>
