<?xml version="1.0" encoding="utf-8"?>
<!-- Generator: Adobe Illustrator 16.0.0, SVG Export Plug-In . SVG Version: 6.00 Build 0)  -->
<!DOCTYPE svg PUBLIC "-//W3C//DTD SVG 1.1//EN" "http://www.w3.org/Graphics/SVG/1.1/DTD/svg11.dtd">
<svg version="1.1" id="Uk26UAXQC--kJPeQj3XKl0RH9FAKW9xSWiwSDsOjlec_xA0_Image_1_"
	 xmlns="http://www.w3.org/2000/svg" xmlns:xlink="http://www.w3.org/1999/xlink" x="0px" y="0px" width="640px" height="960px"
	 viewBox="0 0 640 960" enable-background="new 0 0 640 960" xml:space="preserve">
<g>
	<path fill-rule="evenodd" clip-rule="evenodd" d="M1,248c9.431,4.368,17.94,10.332,26.836,15.615
		c18.145,10.777,36.108,21.861,54.155,32.804c0.824,0.499,2.3,1.413,2.525,1.188c3.756-3.755,6.017,0.157,8.472,1.723
		c19.218,12.259,38.674,24.182,57.444,37.098c25.13,17.292,52.742,28.952,81.403,38.716c12.348,4.206,23.628,10.8,34.183,18.518
		c0.763,0.559,1.949,1.848,1.772,2.183c-2.664,5.058,2.119,4.946,4.389,6.128c13.778,7.171,27.707,14.056,41.454,21.285
		c3.581,1.884,4.833,2.091,5.487-2.622c2.719-19.573,6.583-39.02,14.185-57.28c8.773-21.077,21.32-39.959,37.845-55.915
		c6.859-6.623,15.828-9.009,24.776-11.584c6.849-1.97,14.176-2.528,20.425-6.593c6.594-4.287,10.378-10.377,12.659-17.687
		c2.553-8.18,4.549-16.527,5.823-24.952c2.494-16.492,17.792-27.014,32.301-30.775c18.645-4.835,51.309,14.73,55.222,36.387
		c0.604,3.347,1.075,6.603,0.154,9.778c-2.556,8.812-4.461,17.863-10.859,25.143c-2.332,2.652-1.73,6.617-1.662,10.117
		c0.055,2.832,0.046,5.667-0.006,8.499c-0.052,2.816-1.899,5.759-4.18,4.934c-6.221-2.252-7.936,3.068-11.3,5.606
		c-0.92,0.694-1.576,1.821-2.9,1.654c-2.603-0.328-3.604,1.348-4.119,3.373c-1.585,6.225-7.704,7.171-13.355,4.621
		c-2.812-1.27-5.271-3.354-7.819-5.169c-2.96-2.109-5.471-2.795-7.765,1.05c-1.345,2.256-3.007,4.602-5.109,6.076
		c-7.38,5.178-8.185,11.231-5.71,19.821c5.237,18.175,1.577,36.124-5.181,53.264c-5.906,14.979-12.658,29.644-19.499,44.229
		c-3.531,7.528-10.29,12.929-14.724,19.936c-1.054,1.664-1.97,3.437-3.182,4.975c-2.426,3.078-3.273,5.68,1.2,7.706
		c2.574,1.166,1.867,2.849,0.103,4.162c-8.873,6.603-9.208,16.623-10.396,26.203c-1.454,11.722-1.942,23.527-1.985,35.332
		c-0.02,5.148,0.262,10.353,1.051,15.432c0.647,4.161,4.158,7.096,6.74,10.036c7.202,8.203,9.812,18.112,12.011,28.246
		c1.082,4.989-2.149,10.021-0.336,15.216c0.316,0.906-1.339,2.49-2.664,2.535c-6.228,0.206-3.792,4.62-3.518,7.534
		c0.433,4.597,1.374,9.137,1.609,13.781c0.138,2.729-0.675,5.245-1.117,7.826c-0.368,2.149-1.629,4.194-4.197,4.243
		c-2.324,0.045-4.133-1.024-4.803-3.532c-0.242-0.906-0.798-1.729-1.503-3.201c-0.764,3.598,0.278,6.917-1.364,9.847
		c-1.243,2.218-2.248,4.389-5.301,4.521c-3.132,0.135-4.271-2.043-5.499-4.24c-0.571-1.022,0.309-3.002-2.562-2.256
		c-5.205,1.354-8.48-0.91-9.524-6.105c-0.39-1.944-1.756-3.667-0.917-5.929c-5.874,2.149-8.036,0.948-9.185-4.606
		c-0.604-2.919-0.982-5.821-1.08-8.823c-0.091-2.776,0.053-5.733-3.354-7.518c-2.015-1.055-2.043-4.15-2.276-6.296
		c-1.22-11.181-3.906-22.262-3.203-33.582c0.542-8.724,1.723-17.408,2.675-26.646c-4.882,6.43-6.441,13.678-8.023,20.842
		c-4.445,20.126-14.029,38.24-22.15,56.914c-6.112,14.057-12.092,28.202-19.658,41.572c-3.86,6.821-8.702,12.903-14.968,17.723
		c-0.934,0.719-1.41,1.349-1.764,2.628c-2.792,10.088-4.862,20.206-13.085,28.229c-4.909,4.79-8.938,10.523-14.775,14.475
		c-0.863,0.584-1.52,1.774-1.838,2.817c-6.809,22.334-16.676,43.552-23.926,65.728c-2.381,7.284,3.814,19.098,13.328,19.317
		c13.325,0.308,26.352,3.637,38.788,8.717c6.564,2.682,9.002,6.742,8.094,13.071c-0.875,6.097-4.024,8.843-11.103,9.954
		c-17.03,2.676-34.178,4.006-51.37,5.116c-7.179,0.464-14.153,2.719-21.157,4.568c-3.826,1.012-2.057,3.925-3.27,5.724
		c-1.218,1.804,1.385,2.317,2.423,2.848c14.349,7.339,27.369,17.255,43.161,21.835c5.708,1.656,10.842,4.859,15.185,9.058
		c4.348,4.203,5.147,12.496,2.49,19.522c-2.409,6.372-7.698,7.615-13.209,7.188c-12.534-0.972-25.058-2.123-37.56-3.633
		c-15.711-1.896-31.297-4.423-46.832-7.307c-7.765-1.441-15.418-3.485-21.928-8.4c-4.197-3.168-6.037-7.33-5.554-12.522
		c1.036-11.138,5.856-21.178,9.306-31.609c0.449-1.358,1.368-2.832,2.503-3.649c9.697-6.98,11.543-17.955,14.037-28.328
		c3.621-15.064,5.598-30.479,7.062-45.883c2.398-25.239,12.4-47.151,27.224-67.333c6.545-8.91,13.714-17.498,18.682-27.435
		c6.065-12.13,7.278-25.566,9.108-38.76c2.079-14.979,2.227-30.104,3.161-45.171c0.973-15.696,2.85-31.333,4.58-46.978
		c1.49-13.475,2.909-26.885,7.732-39.637c7.04-18.613,18.65-34.041,33.138-47.562c7.393-6.899,16.009-12.435,22.246-20.669
		c2.929-3.869,2.224-5.082-1.865-7.128c-15.783-7.895-31.285-16.349-47.023-24.333c-5.701-2.893-12.171-4.052-17.818-7.198
		c-1.082-0.604-2.276-0.723-2.989,0.656c-1.666,3.224-3.919,1.913-6.312,1.003c-8.757-3.329-15.237-9.906-22.271-15.632
		c-14.202-11.561-31.181-18.5-46.42-28.319c-3.419-2.203-7.007-4.145-10.793-6.368c-0.78,3,0.958,4.852,1.648,6.934
		c3.606,10.875,8.681,21.282,10.463,32.736c1.767,11.357,2.121,22.717,0.882,34.197c-0.922,8.551-2.25,16.932-5.441,24.935
		c-1.294,3.246-3.062,6.231-5.585,8.742c-5.681,5.656-12.129,5.111-16.706-1.479c-5.119-7.372-7.209-15.913-8.453-24.51
		c-2.614-18.067-0.69-35.902,3.692-53.591c1.236-4.988,5.535-8.183,6.325-13.28c0.93-6.001,2.199-11.952,3.438-17.9
		c0.244-1.169,0.087-1.809-0.911-2.459c-9.353-6.095-19.334-11.022-29.036-16.528c-2.73,10.852,0.617,20.52,3.855,29.675
		c6.484,18.336,6.298,37.073,5.344,55.906c-0.396,7.806-1.396,15.782-5.314,22.913c-3.411,6.206-7.267,6.541-11.928,1.174
		c-3.095-3.564-3.855-8.052-4.487-12.357c-2.313-15.755-0.302-31.487,0.554-47.248c0.625-11.515,5.291-22.062,6.721-33.351
		c1.013-7.999-2.073-15.97-8.73-20.157c-14.106-8.872-28.324-17.585-42.468-26.369c-16.749-10.4-34.066-19.753-50.913-29.935
		C2.615,283.324,1.764,283.234,1,283c0-1,0-2,0-3c16.108,9.181,32.202,18.388,48.35,27.496c1.361,0.768,2.976,3.373,4.676-0.014
		c1.436-2.858-0.649-3.315-2.339-4.287C34.784,293.477,17.894,283.735,1,274c0-0.667,0-1.333,0-2
		c21.648,11.88,43.246,23.854,64.969,35.596c9.702,5.244,9.654,4.936,15.343-4.631c1.88-3.161,1.108-4.312-1.715-6.005
		c-20.694-12.415-41.236-25.085-61.95-37.466C12.171,256.221,7.067,252.249,1,250C1,249.333,1,248.667,1,248z M424.021,378.234
		c7.295-2.72,11.985-7.349,13.692-13.967c5.102-19.78,1.983-38.379-10.125-54.969c-4.479-6.136-10.298-10.165-18.997-9.467
		c-17.117,1.373-29.805,9.748-39.897,22.938c-6.035,7.889-6.402,16.273-1.862,24.972c1.591,3.047,3.628,7.859,6.144,7.551
		c2.643-0.323,2.854-5.621,4.158-8.739c1.662-3.972,0.011-8.386,2.195-13.637c1.555,7.835,0.432,13.933-2.3,19.782
		c-7.193,15.405-8.792,31.973-9.946,48.579c-0.53,7.613-1.224,15.212-2.502,22.695c-2.46,14.413-6.8,28.395-4.973,43.51
		c1.528,12.649-0.5,25.674,1.594,38.335c3.282,19.845,4.154,39.827,4.786,59.854c0.036,1.158,0.15,2.407-0.205,3.47
		c-3.872,11.596-5.621,23.348-3.851,35.604c1.344,9.307,2.071,18.702,3.072,28.059c0.227,2.111,0.995,4.448,3.364,3.844
		c1.871-0.477,3.544-2.379,3.077-5.035c-0.852-4.849-0.375-9.827-2.18-14.643c-0.918-2.452-0.16-5.533-0.16-8.329
		c0.526-0.037,1.054-0.074,1.58-0.111c-0.432,6.134,2.115,11.716,2.333,17.743c0.21,5.793,0.723,11.575,2.084,17.219
		c0.607,2.517,2.323,4.69,5.044,4.682c3.054-0.01,3.855-3.37,3.539-5.125c-1.174-6.516-0.469-13.191-2.142-19.658
		c-0.83-3.211-1.511-6.764,1.068-9.92c1.146,10.738,2.316,21.237,3.359,31.748c0.36,3.629,0.183,8.551,4.686,8.427
		c4.372-0.119,4.255-4.958,4.364-8.66c0.36-12.112-1.729-24.164-0.89-36.304c1.261,0.235,1.651,1.177,1.751,2.175
		c0.414,4.11,0.747,8.229,1.118,12.344c0.591,6.566,1.163,13.137,3.047,19.5c0.537,1.815,1.438,3.716,3.53,3.537
		c1.818-0.156,2.07-2.01,2.57-3.72c1.462-4.992,0.839-9.863-0.167-14.736c-1.859-9.008-0.461-18.202-1.763-27.276
		c-0.614-4.282-0.809-9.001,1.781-13.926c0,4.823-0.12,8.795,0.035,12.757c0.148,3.804,0.538,7.602,0.914,11.394
		c0.144,1.445,1.295,2.353,2.485,2.838c0.68,0.277,1.907-0.462,1.717-1.284c-1.201-5.191,1.637-10.196,0.67-15.31
		c-2.083-11.013-6.162-21.059-13.689-29.671c-1.858-2.126-4.704-3.95-5.076-7.18c-2.166-18.803-1.523-37.729,1.65-56.177
		c2.813-16.352,4.265-32.411,2.326-48.823c-0.278-2.361,0.308-4.488,1.384-6.686c4.343-8.869,9.285-17.487,12.344-26.929
		c2.948-9.103,3.459-18.744,5.786-27.981c4.289-17.021,13.305-32.124,19.947-48.194c0.052-0.125,0.584-0.052,1.508-0.11
		C435.038,356.839,428.017,366.565,424.021,378.234z M239.001,627.39c-0.062,4.918-0.056,4.903,4.414,6.628
		c20.889,8.062,42.269,14.417,64.271,18.662c3.189,0.615,5.025-0.522,6.243-3.307c2.573-5.881,5.382-11.666,7.743-17.629
		c6.593-16.641,15.811-32.184,20.655-49.554c4.094-14.681,7.073-29.819,17.08-42.11c1.888-2.32-0.511-2.892-1.745-3.566
		c-24.407-13.351-45.822-31.155-69.047-46.257c-3.707-2.41-7.32-7.168-11.181-6.568c-3.866,0.601-6.328,5.881-9.017,9.436
		c-10.076,13.316-17.273,27.936-20.492,44.469c-2.119,10.888-2.486,21.975-4.146,32.87
		C240.9,589.362,240.812,608.437,239.001,627.39z M310.674,655.163c-1.552-0.129-2.733-0.108-3.864-0.338
		c-21.624-4.395-42.842-10.221-63.308-18.533c-3.519-1.429-5.021-0.925-5.197,2.883c-0.054,1.161-0.283,2.318-0.29,3.478
		c-0.057,9.136-2.458,17.962-3.532,26.962c-1.876,15.724-9.345,28.808-18.708,41.227c-9.838,13.048-19.136,26.548-25.78,41.583
		c-6.841,15.478-7.224,32.387-9.826,48.745c-2.872,18.052-4.781,36.243-12.241,53.195c-0.893,2.029-1.514,4.186,0.583,5.309
		c7.855,4.204,15.783,8.558,25.158,4.372c4.538-2.026,9.23-2.958,11.532-8.812c13.598-34.579,27.6-69.001,41.645-103.402
		c3.167-7.756,6.286-15.758,13.323-21.08c13.402-10.136,23.301-22.589,26.772-39.433c0.053-0.254-0.176-0.565-0.285-0.846
		c-1.234-0.022-1.961,1.862-4.435,0.542C296.083,682.286,304.734,669.979,310.674,655.163z M444.929,333.55
		c4.119-4.195,8.904-8.312,12.521-13.526c2.528-3.646,5.535-3.822,8.943-1.484c2.32,1.592,4.471,3.436,6.821,4.979
		c5.241,3.441,10.35,1.963,12.743-3.718c0.891-2.114,2.021-3.183,4.398-4.015c2.722-0.953,6.185-3.099,6.974-5.499
		c1.205-3.665,3.171-2.99,5.138-2.174c4.491,1.864,5.755,0.069,5.549-4.128c-0.098-1.993,0.114-4.005-0.041-5.991
		c-0.472-6.024,1.799-10.795,4.82-16.089c6.827-11.964,12.007-24.699,4.054-38.615c-2.446-4.281-5.476-7.98-9.175-11.013
		c-11.585-9.497-23.802-17.305-39.994-14.321c-13.991,2.577-28.249,14.564-31.006,28.901c-3.17,16.488-3.796,34.707-20.919,45.469
		c5.949,1.956,10.089,5.119,13.137,9.833C435.274,312.026,438.185,323.588,444.929,333.55z M259.861,926.105
		c3.962-0.669,8.928-0.718,10.105-5.937c1.256-5.572,3.862-11.495-1.112-16.846c-4.777-5.139-10.883-8.285-17.312-10.203
		c-15.571-4.646-28.184-14.843-42.515-21.77c-2.069-1-4.077-2.55-1.921-5.41c1.21-1.606,0.312-3.396-0.671-4.504
		c-1.115-1.257-2.286,0.297-3.448,0.824c-3.294,1.494-6.61,2.987-10.03,4.148c-9.683,3.288-18.236,0.053-25.668-5.796
		c-2.955-2.325-4.142-1.965-5.962,0.441c-1.091,1.441-2.532,2.778-3.123,4.412c-3.565,9.867-7.929,19.508-9.136,30.093
		c-0.602,5.277,1.217,9.462,5.804,12.256c7.729,4.708,16.373,6.706,25.151,8.163c13.801,2.289,27.598,4.545,41.497,6.291
		C234.179,923.86,246.9,924.527,259.861,926.105z M357.997,484.332c0-4.259-0.238-7.608,0.066-10.907
		c0.304-3.295-1.128-4.926-3.826-6.585c-12.212-7.511-25.032-13.89-37.615-20.713c-2.32-1.258-3.417-1.26-4.948,1.366
		c-3.671,6.296-8.039,12.03-14.02,16.575c-5.929,4.505-11.247,9.813-16.84,14.761c-1.563,1.384-2.451,2.299,0.15,3.93
		c24.199,15.165,46.21,33.571,70.914,47.982c3.167,1.848,5.975,4.638,9.953,4.923c-0.022-4.109,0.303-8.255-0.13-12.319
		C360.288,510.045,357.427,496.886,357.997,484.332z M429.311,307.642c-4.195-9.607-12.972-15.279-20.218-13.447
		c-7.462,1.888-14.846,4.111-22.195,6.406c-11.514,3.595-19.172,12.159-26.179,21.258c-11.107,14.422-21.438,29.411-27.415,46.802
		c-5.89,17.135-9.491,34.837-12.523,52.701c-0.815,4.803,0.75,6.039,4.397,7.771c9.95,4.722,19.743,9.788,29.479,14.943
		c2.639,1.397,3.294,0.483,3.959-1.841c3.558-12.437,5.517-25.188,6.249-38.024c0.794-13.904,2.373-27.623,6.195-41
		c1.05-3.675,0.321-6.084-2.104-8.839c-8.349-9.477-9.629-22.095-2.904-31.527c8.716-12.227,20.061-21.012,35.132-23.966
		c7.655-1.5,15.466-2.649,22.162,3.134C425.104,303.529,426.732,305.198,429.311,307.642z M233.211,809.398
		c0.178,5.635-3.502,8.299-8.23,9.193c-3.262,0.618-4.186,2.527-5.171,5.048c-4.068,10.409-8.276,20.765-12.279,31.199
		c-0.464,1.209-2.3,2.414-0.944,3.911c1.472,1.626,3.602,1.777,5.53,1.087c16.314-5.838,33.523-4.963,50.361-6.897
		c8.325-0.957,16.77-1.349,24.875-3.75c5.223-1.547,6.648-4.823,6.295-10.105c-0.473-7.088-6.044-8.261-10.789-9.849
		c-11.248-3.766-22.815-6.236-34.694-7.348c-5.957-0.558-11.965-1.938-12.867-9.709C235.176,811.127,234.953,809.79,233.211,809.398
		z M440.394,330.558c1.1,9.526,2.647,18.961,0.645,28.543c-1.562,7.476-3.768,14.876-11.135,18.229
		c-6.528,2.972-9.277,7.866-10.78,14.176c-0.381,1.601-0.895,3.183-1.129,4.805c-2.324,16.063-5.477,32.082-14.32,45.855
		c-6.573,10.236-2.639,20.5-3.108,30.891c5.029-8.346,11.313-15.539,17.215-23.015c2.346-2.971,4.862-5.93,6.121-9.456
		c3.324-9.307,7.406-18.278,11.394-27.298c8.34-18.865,15.257-38.031,11.675-59.221C445.61,346.027,444.337,337.925,440.394,330.558
		z M146.011,393.336c-2.324,2.327-3.113,4.85-3.961,7.298c-6.078,17.552-2.899,35.245-0.527,52.873
		c0.383,2.844,0.146,7.913,3.131,7.922c2.922,0.009,3.45-4.966,4.323-8.032c4.241-14.896,3.843-30.005,1.535-45.114
		C149.758,403.349,149.085,398.273,146.011,393.336z M193.959,363.858c-0.203-1.768-1.848-2.113-3.103-2.714
		c-11.132-5.324-22.383-10.412-33.378-16.003c-2.892-1.47-5.181-1.999-5.92,1.229c-0.629,2.746-5.032,6.191,0.72,8.868
		c11.705,5.445,23.266,11.201,34.887,16.826c0.825,0.398,1.844,1.563,2.546,0.339C191.265,369.695,192.515,366.814,193.959,363.858z
		 M363.001,539.438c-3.504,3.501-5.232,6.267-5.109,10.312c0.115,3.759-0.283,7.636-1.135,11.304
		c-3.338,14.38-1.372,28.668,0.656,42.905c0.514,3.605-0.106,7.841,3.294,11.417c0-1.433,0.083-2.237-0.013-3.021
		c-1.353-11.012-2.825-22.044,0.312-32.986c2.338-8.151,3.821-16.379,2.851-24.869C363.331,549.886,362.819,545.282,363.001,539.438
		z M222.175,817.47c4.459-1.661,7.983-1.933,8.84-6.292c2.193-11.161,5.97-21.806,10.425-32.264
		c5.453-12.799,9.857-25.993,13.832-39.344C242.746,764.395,233.412,790.546,222.175,817.47z M180.771,376.539
		c0.454-2.787-1.34-2.908-2.337-3.482c-9.132-5.264-18.29-10.486-27.544-15.53c-1.476-0.805-3.472-3.385-4.901-1.283
		c-1.083,1.593,0.827,3.946,2.183,5.606c0.512,0.628,1.213,1.146,1.917,1.564c8.651,5.143,17.312,10.271,25.994,15.36
		c0.953,0.559,2.154,1.801,3.104,0.876C180.169,378.694,180.515,377.084,180.771,376.539z M142.472,357.74
		c2.208,9.04,4.451,18.073,6.598,27.129c0.428,1.805,1.517,1.824,2.959,1.715c2.357-0.181,2.207-1.995,1.767-3.263
		C150.739,374.516,147.858,365.62,142.472,357.74z M134.956,400.616c-4.871,8.018-1.851,16.753-2.803,25.148
		C132.005,417.261,135.505,409.161,134.956,400.616z M104.942,372.792c10.649-1.721,1.039-7.669,3.089-11.094
		C106.233,365.028,105.511,368.618,104.942,372.792z M102.559,410.314c-0.147-4.961,2.754-9.704,1.006-15.604
		C100.833,400.338,102.912,405.445,102.559,410.314z"/>
	<path fill-rule="evenodd" clip-rule="evenodd" d="M476.883,259.625c-2.179-2.145-3.288-5.999-7.354-4.36
		c-3.978,1.602-6.221,4.726-6.528,9.108c-0.21,2.982-0.649,5.963-0.639,8.943c0.02,5.202,1.341,5.976,5.999,3.869
		c-1.108,2.626-2.457,4.011-3.922,3.718c-2.038-0.409-3.185-1.97-3.363-3.864c-0.59-6.232-1.086-12.534,1.745-18.41
		c1.898-3.939,5.445-5.97,9.645-5.459C475.508,253.539,477.271,256.048,476.883,259.625z"/>
</g>
</svg>
