<?xml version="1.0" encoding="utf-8"?>
<!-- Generator: Adobe Illustrator 16.0.0, SVG Export Plug-In . SVG Version: 6.00 Build 0)  -->
<!DOCTYPE svg PUBLIC "-//W3C//DTD SVG 1.1//EN" "http://www.w3.org/Graphics/SVG/1.1/DTD/svg11.dtd">
<svg version="1.1" id="r3ut3NRkctod-5BQpeNCUjueNaWsCZ570_x5F_V4ZvcASyI_xA0_Image_1_"
	 xmlns="http://www.w3.org/2000/svg" xmlns:xlink="http://www.w3.org/1999/xlink" x="0px" y="0px" width="640px" height="960px"
	 viewBox="0 0 640 960" enable-background="new 0 0 640 960" xml:space="preserve">
<path fill-rule="evenodd" clip-rule="evenodd" d="M474.02,378.122c-16.521,6.054-33.215-3.896-37.521-19.007
	c-2.44-8.562,1.368-16.25,6.193-23.155c3.634-5.2,8.282-9.435,14.356-11.798c-0.928,1.669-1.249,1.766-3.402,3.405
	c-8.454,6.438-14.345,14.42-15.688,25.364c-1.572,12.802,12.677,23.779,22.358,25.143
	C464.474,378.659,468.562,377.911,474.02,378.122z"/>
<path fill-rule="evenodd" clip-rule="evenodd" d="M597.92,197.677c-6.931-23.626-18.146-28.574-36.913-29.185
	c-11.688-0.38-23.162,2.781-34.356,6.342c-1.69,0.538-3.637,1.55-3.457,3.102c0.492,4.229-2.508,6.243-4.709,8.808
	c-4.598,5.353-8.554,11.562-9.009,18.336c-0.649,9.678-5.262,16.455-11.728,22.725c-2.611,2.533-2.597,5.392,0.11,7.788
	c1.512,1.339,1.697,2.588,2.002,4.526c0.49,3.12-2.439,6.37-0.13,8.873c2.302,2.496,1.416,4.383,0.606,6.924
	c-1.813,5.698,0.024,8.616,5.844,10.502c3.363,1.09,6.875,0.599,10.311,1.432c6.47,1.569,10.626,6.634,10.504,13.912
	c-0.089,5.322-4.893,10.822-10.731,11.079c-5.378,0.236-9.874,2.344-14.356,4.748c-14.414,7.729-29.222,14.524-44.876,19.372
	c-7.57,2.344-14.407,6.103-19.522,12.157c-6.769,8.012-12.803,17.119-7.263,27.753c3.807,7.307,1.392,13.225-0.483,19.711
	c-0.478,1.649-1.345,2.934-3.621,2.149c-10.266-3.538-20.725-6.369-29.546-13.384c-7.299-5.804-14.807-11.908-24.587-12.925
	c-3.744-0.389-5.767-2.188-7.932-4.782c-16.274-19.497-39.89-23.468-61.765-10.321c-2.705,1.626-4.536,1.292-7.003-0.311
	c-20.771-13.485-42.029-26.189-62.725-39.823c-21.696-14.293-43.717-28.085-66.235-41.207
	c-46.555-27.129-91.644-56.771-137.434-85.221C19.701,165.033,10.879,158.625,1,154c0,2.333,0,4.667,0,7
	c9.261,3.715,17.229,9.698,25.683,14.803c45.983,27.768,91.854,55.718,137.855,83.454c3.694,2.228,4.615,4.019,1.607,7.331
	c-0.98,1.079-1.522,2.549-2.302,3.816c-4.486,7.296-4.496,7.302-12.079,2.722c-38.438-23.219-76.858-46.464-115.319-69.645
	c-5.069-3.055-9.508-7.03-14.361-10.391l-5.655-3.42c-0.429-0.217-0.861-0.43-1.301-0.631c-0.429-0.196-0.769-0.457-0.994-0.756
	L13.667,188c0,0,0.421-11.569,0.426-16.825C10.635,168.884,2.784,165.623,1,166c0,6.333,0,12.667,0,19
	c1.146,0.62,2.324,1.188,3.433,1.867c52.647,32.275,106.442,62.647,158.407,96.062c21.234,13.654,42.664,27.025,64.32,40.041
	c17.957,10.792,34.878,23.308,52.245,35.08c2.043,1.385,2.944,2.693,1.919,5.715c-2.284,6.733-2.754,13.634-1.514,20.944
	c3.507,20.66,22.641,40.866,45.818,40.563c12.878-0.169,24.508-3.309,34.303-11.801c6.341-5.498,10.272-6.149,17.409-1.833
	c4.378,2.647,8.694,5.397,13.083,8.028c6.489,3.89,6.505,3.86,1.993,9.906c-7.309,9.793-13.609,20.277-21.236,29.878
	c-20.202,25.429-37.752,52.528-51.739,81.968c-9.394,19.771-16.168,40.668-26.525,59.993c-3.41,6.362-6.901,12.625-9.067,19.653
	c-3.362,10.91-0.684,21.977-1.798,32.915c-0.811,7.962,1.33,15.942,0.774,23.838c-0.728,10.348-2.557,20.624-4.059,30.91
	c-2.188,14.979-4.431,29.952-6.792,44.906c-1.835,11.625-3.238,22.832-16.961,28.244c-12.641,4.985-25.066,9.747-38.662,11.201
	c-6.35,0.68-12.721,1.625-18.785,3.918c-5.232,1.978-8.686,5.593-9.475,11.104c-0.744,5.193,2.435,8.754,6.261,11.666
	c2.917,2.221,6.483,3.084,9.832,4.432c1.91,0.769,4.658-0.105,5.985,2.354c-5.76,1.498-11.385,2.662-16.801,4.455
	c-5.462,1.809-10.875,4.62-11.204,11.158c-0.323,6.425,4.683,9.905,9.663,12.766c7.912,4.544,16.784,6.068,25.65,6.523
	c10.065,0.517,20.054,2.556,30.302,0.837c5.789-0.971,11.923-2.658,17.775-0.958c7.368,2.141,14.775,1.65,22.208,1.626
	c3.433-0.012,6.656-1.199,8.894-3.801c5.927-6.89,8.189-15.034,6.952-23.982c-0.656-4.744-1.802-9.406-1.63-14.255
	c0.152-4.308,0.298-8.631-3.373-11.944c-1.101-0.993-0.506-2.432-0.189-3.754c4.684-19.534,12.208-37.877,22.619-55.075
	c7.541-12.458,11.652-26.157,12.878-40.577c1.229-14.473-2.799-28.595-3.885-42.935c-0.409-5.411-0.395-10.01,3.77-14.328
	c6.392-6.627,14.179-11.433,21.114-17.334c16.503-14.043,32.235-28.705,43.052-47.824c4.076-7.205,9.51-12.842,16.848-16.966
	c11.792-6.629,23.606-13.062,32.15-24.395c11.365-15.072,18.28-31.427,19.093-50.368c0.384-8.947,1.258-17.876,2.021-26.803
	c0.151-1.767,0.784-4.992,1.242-5c4.909-0.091,3.57-4.388,4.754-6.785c1.35-2.734,2.464-3.531,5.614-2.075
	c6.842,3.161,13.676,6.364,20.99,8.506c4.418,1.294,7.263,0.338,9.88-3.155c9.149-12.212,16.117-25.718,22.897-39.275
	c8.033-16.063,17.638-31.348,24.176-48.142c1.456-3.741,3.025-7.366,5.625-10.334c14.604-16.675,18.77-35.683,13.938-57.198
	c-1.981-8.823-2.573-17.958-3.856-27.385c2.434,1.079,4.343,2.031,6.327,2.787c6.144,2.342,9.302,0.901,11.503-5.288
	c0.991-2.787,1.557-5.661,1.896-8.64c1.229-10.803,1.935-21.714,4.675-32.269C600.922,222.099,601.485,209.83,597.92,197.677z
	 M77.256,204.217c-5.078-3.083-10.156-6.165-15.234-9.248c0.288-0.366,0.576-0.733,0.865-1.1c4.981,3.138,9.963,6.274,14.944,9.411
	C77.64,203.593,77.448,203.904,77.256,204.217z M432.813,373.244c1.388-2.643,0.502-6.179,3.332-8.413
	c1.133-0.895-0.44-1.6-0.901-2.215c-8.536-11.377-5.649-20.907,2.932-31.262c5.771-6.964,13.414-10.867,22.011-13.495
	c13.436-4.106,26.203-9.921,38.572-16.578c4.122-2.219,7.849-4.189,13.185-3.393c5.589,0.835,11.582,0.738,17.35-0.687
	c2.027-0.5,4.281-0.079,7.899-0.079c-9.052,2.744-16.464,5.48-22.41,11.338c-7.5,7.389-8.897,16.343-7.393,26.059
	c1.107,7.146,2.898,14.163,6.355,20.632c0.983,1.838,0.079,3.496-0.61,5.216c-5.682,14.188-11.603,28.287-16.145,42.901
	c-0.722,2.324-1.976,3.367-4.373,2.555c-20.43-6.921-41.046-13.411-58.19-27.379C432.425,376.813,431.467,375.812,432.813,373.244z
	 M429.97,381.228c0.875-2.123,1.568-2.852,3.817-1.044c16.743,13.459,36.627,20.366,56.711,26.806
	c4.508,1.445,4.526,1.39,4.472,3.356c-0.169,6.171-4.188,9.217-9.812,7.367c-19.371-6.37-38.627-13.054-57.58-20.609
	c-3.656-1.457-4.528-2.5-2.075-6.022C427.529,388.169,428.592,384.569,429.97,381.228z M387.254,360.918
	c11.34,9.046,23.627,16.045,37.916,19.22c1.86,0.413,2.83,1.262,1.883,3.727c-4.251,11.06-4.605,11.229-14.069,4.634
	c-6.652-4.636-13.253-9.219-18.104-15.986c-3.593-5.013-8.496-6.838-14.839-4.815c-3.236,1.032-6.855,1.267-7.542-4.118
	c-0.399-3.124-2.228-6.066-3.552-9.446C376.1,354.27,382.088,356.797,387.254,360.918z M356.524,358.764
	c1.686,2.04,2.418,4.142,2.263,6.07c-0.139,1.729-2.273,2.212-3.836,2.043c-1.749-0.188-3.291-1.759-2.625-3.31
	C353.098,361.768,354.982,360.445,356.524,358.764z M335.414,349.494c5.977-2.324,16.815,1.94,19.341,7.708
	C349.089,352.925,342.562,350.874,335.414,349.494z M348.286,359.079c2.023,1.04,2.942,2.351,1.732,4.663
	c-1.466,2.803-2.867,0.209-3.81-0.229c-4.989-2.319-9.817-4.986-14.702-7.532C337.542,355.35,343.099,356.415,348.286,359.079z
	 M318.501,347.683c-2.536,0.929-4.346-0.422-6.217-1.923c6.64-4.035,19.303-4.538,27.888-0.635
	C331.883,344.611,325.073,345.276,318.501,347.683z M353.178,344.288c-14.031-9.495-28.95-10.412-44.632-4.967
	C316.088,328.092,336.362,330.187,353.178,344.288z M311.292,349.491c1.729-0.463,9.802,2.99,10.4,4.501
	c0.173,0.438,0.104,0.973,0.091,0.833c-0.813,5.569-3.112,9.719-6.924,12.921c-1.302,1.094-14.213-6.443-14.363-8.241
	C300.292,357.061,307.297,350.562,311.292,349.491z M304.929,367.964c-0.35,0.939-1.253,1.343-1.963,0.941
	c-2.41-1.364-4.727-2.896-7.042-4.42c-0.856-0.563-0.677-1.279-0.127-2.055c0.481-0.678,0.816-1.449,2.316-1.106
	c2.076,1.317,4.582,2.829,6.993,4.479C306.031,366.438,305.191,367.257,304.929,367.964z M261.974,318.168
	c10.655,6.627,21.289,13.288,31.899,19.986c1.068,0.675,3.323,1.091,2.328,2.854c-1.06,1.878-2.818,1.488-4.662,0.229
	c-6.938-4.741-14.004-9.295-21.037-13.897c-10.473-6.855-20.958-13.69-31.437-20.537c-1.335-0.873-3.019-1.437-3.431-4.884
	C245.009,307.699,253.51,312.902,261.974,318.168z M292.753,379.927c-1.692-3.131-1.692-3.131-0.332-11.094
	C295.743,373,291.877,376.453,292.753,379.927z M285.983,360.471c-18.716-12.668-37.351-25.455-56.16-37.981
	c-2.758-1.837-2.913-3.218-1.591-5.924c5.427-11.104,5.372-11.16,15.871-4.327c17.414,11.334,34.813,22.688,52.196,34.068
	c1.474,0.965,2.779,2.186,4.046,3.196c-1.909,3.19-3.591,6.219-5.479,9.112C291.341,364.015,291.253,364.037,285.983,360.471z
	 M294.656,402.768c12.075,14.265,28.202,13.706,45.234,11.775C329.564,424.43,306.824,418.342,294.656,402.768z M344.056,408.507
	c-10.862,5.51-22.099,6.158-32.531-0.174c-7.701-4.674-8.05-13.479-8.597-21.609c-0.244-3.569,0.173-7,1.517-10.276
	c0.853-2.077,1.814-3.221,4.39-1.544c9.675,6.3,19.824,11.925,29.116,18.73c3.844,2.815,6.807,7.413,7.409,12.926
	C345.541,408.215,344.623,408.219,344.056,408.507z M291.193,608.385c9.208-16.379,15.78-33.939,23.084-51.188
	c6.548-15.464,14.521-30.274,22.869-45.577c2.488,3.638,4.943,6.458,8.309,8.214c2.534,1.322,0.212,2.456-0.248,3.219
	c-9.959,16.503-20.008,32.945-28.321,50.381c-10.594,22.216-20.944,44.552-32.668,67.016
	C283.12,628.521,285.705,618.146,291.193,608.385z M264.028,781.515c7.722-10.144,9.083-22.362,10.936-34.373
	c2.406-15.6,4.608-31.23,6.954-46.839c0.261-1.736-0.532-3.623,0.859-5.516c1.079,10.436-0.663,20.453-1.981,30.377
	c-2.052,15.451-4.991,30.792-7.853,46.124c-1.719,9.207-4.5,18.157-8.476,26.674c-0.554,1.186-0.895,3.38-2.856,2.773
	c-1.529-0.472-1.613-2.287-1.619-3.839C259.971,791.405,260.529,786.112,264.028,781.515z M198.341,819.871
	c-6.201-2.477-8.887-6.766-8.308-11.598c0.71-5.923,4.906-8.604,10.037-10.239c6.937-2.21,14.196-2.852,21.336-3.822
	c13.556-1.843,26.145-6.12,37.881-13.064c0.688-0.407,1.45-0.69,3.273-1.543c-3.838,6.812-5.19,12.947-4.147,19.484
	c0.171,1.073,0.385,1.616-0.725,2.382c-12.042,8.314-23.917,16.883-37.827,22.002C211.971,826.376,205.164,822.597,198.341,819.871z
	 M298.515,811.738c0.303,0.646,0.805,1.214,0.8,1.777c-0.099,11,4.489,21.82,1.641,32.881c-3.315,12.872-6.936,14.83-17.498,14.818
	c-4.952-0.005-9.988,0.45-14.814-1.194c-6.585-2.242-13.146-0.393-19.675,0.196c-17.138,1.544-34.013,0.297-50.583-4.338
	c-4.498-1.258-8.396-3.81-11.585-7.305c-4.284-4.694-3.686-9.267,1.431-13.012c5.837-4.271,12.891-4.8,19.524-6.441
	c16.76-4.146,31.536-12.069,45.26-22.325c2.142-1.601,3.933-5.663,7.904-2.498c3.92,3.126,4.128,7.105,1.468,10.532
	c-3.202,4.125-0.979,6.069,1.678,8.854c6.027,6.313,12.985,9.803,21.761,7.754c6.898-1.61,10.232-6.219,11.13-14.491
	C297.155,815.107,297.262,813.335,298.515,811.738z M398.474,583.088c-14.49,26.06-36.662,44.713-59.874,62.36
	c-8.874,6.747-15.323,16.91-10.897,30.544c8.743,26.936,4.415,52.423-10.424,76.775c-10.116,16.603-17.185,34.813-21.018,54.052
	c-0.641,3.218-0.794,6.555-1.154,9.826c-1.625,14.812-13.786,15.618-22.941,11.091c-2.333-1.153-4.416-2.946-6.354-4.729
	c-2.373-2.181-4.092-4.465-1.516-7.991c2.284-3.125,2.534-6.837-0.064-10.115c-0.922-1.165-0.63-1.754,0.008-2.884
	c7.327-12.959,10.224-27.312,12.716-41.736c2.465-14.27,5.286-28.531,6.688-42.919c1.523-15.647,2.622-31.347,0.678-47.198
	c-1.637-13.347-0.424-26.445,6.462-38.899c13.256-23.974,23.257-49.599,36.305-73.7c4.218-7.791,8.863-15.35,13.547-23.417
	c3.983,4.205,7.431,8.438,11.206,12.356c12.95,13.436,28.354,23.222,45.096,31.005C400.515,579.172,400.001,580.343,398.474,583.088
	z M464.978,488.271c-0.833,22.245-7.133,42.304-22.046,59.517c-9.101,10.504-21.507,15.773-32.608,23.142
	c-1.373,0.911-3.298,1.39-4.141,2.63c-3.398,5.002-6.814,3.178-11.158,1.164c-16.906-7.838-31.263-19.1-44.645-31.821
	c-9.354-8.892-9.531-10.122-2.238-20.671c3.557-5.146,7.537-10.021,9.153-16.311c0.465-1.807,0.915-3.467,0.267-6.736
	c-2.299,6.199-3.42,11.387-6.459,15.77c-3.058,4.409-3.781,4.559-7.715,0.933c-5.574-5.139-5.831-5.706-1.771-11.921
	c11.494-17.595,23.937-34.509,36.887-51.064c3.837-4.904,7.155-10.234,10.455-15.529c1.376-2.208,2.037-2.716,4.286-0.743
	c18.313,16.062,38.098,30.159,58.699,43.114c3.452,2.171,6.909,4.59,11.069,5.226C465.313,485.319,465.03,486.848,464.978,488.271z
	 M467.111,464.748c-1.979,4.842-0.896,10.157-1.761,15.238c-0.667,3.917-2.059,3.484-4.77,2.28
	c-7.449-3.31-14.05-8.011-20.729-12.55c-15.615-10.612-30.917-21.637-45.127-34.138c-2.713-2.387-2.674-3.732-0.129-5.649
	c1.946-1.466,2.646-4.273,5.386-5.056c1.172,0.638,2.324,1.271,3.48,1.896c20.484,11.072,40.951,22.178,61.48,33.166
	C467.153,461.118,468.229,462.012,467.111,464.748z M574.489,337.142c-3.762,6.225-8.504,12.117-11.351,18.831
	c-11.464,27.037-25.364,52.836-39.092,78.732c-4.256,8.027-8.947,15.798-13.958,23.378c-2.282,3.452-4.969,4.663-9.271,3.273
	c-11.983-3.869-23.245-9.339-34.433-14.955c-21.09-10.586-41.676-22.112-62.168-33.807c-7.024-4.009-14.449-6.071-22.707-5.691
	c-9.767,0.449-19.583-0.298-29.321,1.11c-3.006,0.435-5.423-0.433-6.048-3.64c-0.663-3.399,2.03-3.809,4.447-4.712
	c1.488-0.557,3.803-0.393,4.324-2.978c-2.832,0.096-5.283,1.819-8.094,1.376c-1.864-0.293-4.273,0.538-4.751-2.33
	c-0.428-2.577,1.212-3.761,3.301-4.869c2.508-1.33,5.813-1.342,7.625-4.41c-2.639-0.656-4.329,1.402-6.454,1.861
	c-1.84,0.396-3.317,0.85-4.241-0.939c-0.935-1.81,0.304-3.035,1.703-4.173c3.066-2.493,7.354-3.219,9.974-7.013
	c-2.808-0.318-4.219,1.916-6.23,2.635c-1.012,0.362-1.929,1.511-3.07,0.202c-0.902-1.034-0.876-2.171-0.249-3.222
	c0.582-0.979,1.326-1.906,2.168-2.671c0.587-0.534,1.537-0.651,2.189-1.136c8.119-6.032,16.906-4.999,25.808-2.423
	c1.499,0.434,3.046,0.743,4.409,0.253c6.354-2.286,10.801-0.153,15.272,4.736c10.963,11.984,24.134,20.95,39.426,26.763
	c17.654,6.71,35.314,13.36,53.412,18.831c3.513,1.062,5.091,0.058,6.951-2.548c2.417-3.384,2.608-7.413,3.745-11.136
	c5.681-18.606,13.707-36.312,20.602-54.451c3.488-9.178,6.021-18.494,5.569-28.414c-0.047-1.033,0.476-2.299-1.675-3.578
	c-0.119,11.943-1.607,23.189-6.76,33.595c-6.285-10.341-10.228-31.865-1.665-41.624c6.354-7.241,14.519-10.767,23.418-12.811
	c11.024-2.532,21.232-0.357,30.128,6.975C576.733,313.837,579.9,328.188,574.489,337.142z M575.748,313.009
	c-5.998-8.178-13.283-14.005-23.907-16.353C565.115,295.754,576.277,303.478,575.748,313.009z M574.971,302.642
	c-4.093-2.408-7.403-5.529-11.837-6.682c-11.187-2.909-22.427-1.18-33.618-0.387c-6.097,0.432-12.216,0.083-18.308,1.078
	c2.131-2.827,5.384-1.408,8.038-2.484c5.608-2.274,10.135-7.729,9.737-13.002c-0.661-8.771-5.36-14.379-12.645-15.188
	c-1.471-0.163-2.904-0.636-4.369-0.876c-10.759-1.764-10.803-1.768-8.324-12.122c0.284-1.187,0.109-1.892-0.677-2.594
	c-1.802-1.611-0.943-3.387-1.057-5.305c-0.189-3.201,2.003-7.567-2.014-10.109c-3.024-1.914-2.31-3.939-0.382-6.135
	c1.533-1.745,2.869-3.684,4.526-5.295c4.795-4.66,6.205-10.518,7.071-16.914c1.131-8.357,5.331-15.373,11.671-21.913
	c2.176,7.661,4.587,14.639,6.053,21.811c1.104,5.405-0.104,10.85-2.842,15.798c-4.901,8.859-7.8,18.435-9.837,28.274
	c-1.688,8.158,1.159,11.883,9.58,13.431c9.853,1.812,19.938,2.525,29.447,5.99c4.166,1.519,8.198,3.425,12.408,4.797
	c2.781,0.905,3.831,2.93,4.209,5.325C572.958,287.455,573.886,294.805,574.971,302.642z M595.791,234.76
	c-2.928,10.491-3.224,21.471-4.793,32.219c-0.356,2.439-0.518,4.942-1.192,7.295c-1.442,5.028-5.015,6.684-9.814,4.381
	c-11.135-5.34-22.251-10.737-34.456-13.194c-6.925-1.394-13.963-2.213-20.904-3.53c-4.478-0.851-7.942-2.862-7.096-6.041
	c1.416-12.34,4.295-21.846,9.012-30.493c5.075-9.303,5.467-18.331,1.924-28.022c-1.916-5.242-3.646-10.582-3.727-16.301
	c-0.034-2.439,0.616-4.248,3.068-4.904c10.318-2.762,20.757-6.009,31.381-5.925c18.557,0.148,29.755,4.744,36.716,27.016
	C599.791,209.679,599.299,222.184,595.791,234.76z"/>
<polyline fill-rule="evenodd" clip-rule="evenodd" points="20.25,169.5 20.25,194.75 1,185 1,157.5 "/>
</svg>
