<?xml version="1.0" encoding="utf-8"?>
<!-- Generator: Adobe Illustrator 16.2.1, SVG Export Plug-In . SVG Version: 6.00 Build 0)  -->
<!DOCTYPE svg PUBLIC "-//W3C//DTD SVG 1.1//EN" "http://www.w3.org/Graphics/SVG/1.1/DTD/svg11.dtd">
<svg version="1.1" id="w8kgk2wOJJLSl48eeL69FCCEHoSMiqm_x5F_lQQqYPBsAuk_xA0_Image_1_"
	 xmlns="http://www.w3.org/2000/svg" xmlns:xlink="http://www.w3.org/1999/xlink" x="0px" y="0px" width="640px" height="960px"
	 viewBox="0 0 640 960" enable-background="new 0 0 640 960" xml:space="preserve">
<g>
	<path d="M271.437,585.78c-10.927,14.095-27.454,17.829-42.499,23.771c-13.632,5.384-19.153-4.894-19.91-14.977
		c-0.713-9.514,1.661-18.724,3.357-27.95c3.359-18.277,6.994-36.502,9.633-54.906c1.06-7.39,3.411-14.381,7.112-20.88
		c1.343-2.359,2.34-3.854-1.641-5.022c-5.856-1.72-8.551-6.941-10.439-12.334c-3.845-10.986-4.733-22.534-6.026-33.984
		c-1.373-12.162-2.591-24.341-3.815-36.521c-0.274-2.729-0.291-5.484-0.432-8.344c-1.882,0.6-1.663,1.968-1.682,3.017
		c-0.123,6.98-0.543,13.937-0.974,20.907c-1.341,21.731-1.938,43.51-3.229,65.243c-0.799,13.441-1.438,26.88-1.983,40.333
		c-0.995,24.582-2.572,49.141-3.822,73.712c-0.777,15.272-1.262,30.562-2.121,45.828c-1.158,20.56-2.717,41.097-3.77,61.66
		c-0.517,10.108-0.754,20.215-2.169,30.261c-1.816,12.896-3.33,25.833-5.222,38.716c-1.745,11.883-4.265,23.664-5.626,35.583
		c-1.522,13.321-6.175,25.861-8.651,38.924c-0.856,4.517-3.643,9.401-2.604,13.343c1.107,4.2,7.646,2.984,11.373,5.253
		c4.792,2.917,10.035,5.128,13.029,10.364c2.334,4.081,2.188,7.668-0.879,11.354c-7.937,9.536-18.989,12.65-30.42,14.826
		c-14.963,2.849-30.096,2.858-45.119,0.909c-9.919-1.288-19.93-3.173-27.464-10.887c-7.01-7.176-5.368-14.425,1.6-19.945
		c9.092-7.205,20.233-9.182,31.344-11.085c5.291-0.906,10.69-0.271,15.859-1.137c5.703-0.954,8.99-5.732,10.623-10.937
		c2.694-8.587,5.121-17.297,6.983-26.099c2.923-13.822,7.548-27.245,9.575-41.263c1.604-11.089,3.125-22.189,4.555-33.303
		c1.37-10.646,2.701-21.302,3.818-31.979c1.206-11.519,2.222-23.058,3.182-34.6c1.345-16.18,2.548-32.371,3.842-48.555
		c0.49-6.125,0.439-12.261,0.979-18.407c1.233-14.06,1.289-28.218,2.255-42.306c1.637-23.871,2.941-47.755,4.12-71.653
		c0.885-17.919,2-35.831,2.885-53.755c1.065-21.57,2.637-43.114,3.871-64.677c0.38-6.638,0.471-13.283,0.874-19.931
		c0.763-12.601,1.676-25.224,1.964-37.825c0.252-11.039-1.192-22.136-2.259-33.171c-0.306-3.16-0.381-6.295-0.51-9.444
		c-0.164-3.988,0.608-8.192-4.6-10.169c-2.005-0.761-2.364-3.55-2.35-5.695c0.07-11.161-0.078-22.31-1.019-33.44
		c-0.108-1.274-0.472-2.797,0.645-3.81c6.463-5.858,1.933-12.975,1.885-19.381c-0.068-9.056-1.685-18.096-2.549-27.151
		c-1.32-13.837-2.572-27.68-3.826-41.522c-0.15-1.654-0.106-3.326-0.196-4.987c-0.052-0.955,0.32-2.638-0.635-2.676
		c-4.645-0.187-3.71-5.777-7.604-7.265c-3.114-1.19-1.64-7.975,0.445-10.745c3.038-4.036,4.698-9.01,3.479-14.248
		c-0.462-1.987-0.664-3.913-0.672-5.903c-0.043-9.996-5.552-15.987-15.565-15.772c-5.367,0.115-5.26-2.569-5.474-6.433
		c-0.25-4.521,1.801-5.777,5.775-5.734c7.622,0.084,15.241,0.145,22.833-0.932c1.543-0.219,2.847-0.79,4.158-1.365
		c1.184-0.521,2.354-0.962,3.168,0.083c2.717,3.492,6.685,2.89,10.256,3.149c22.449,1.63,44.94,0.923,67.415,0.962
		c60.662,0.105,121.336,0.785,181.978-0.281c19.356-0.34,38.769-1.434,58.173-1.555c1.818-0.011,4.625-1.016,5.043,1.731
		c0.462,3.027,0.973,6.294-0.444,9.287c-0.47,0.991-1.668,1.016-2.682,0.925c-8.365-0.747-13.088,6.234-19.59,9.414
		c-1.909,0.934-1.748,4.146-1.94,6.359c-0.218,2.474-0.452,4.886-1.028,7.322c-1.255,5.302,1.519,9.339,4.893,12.871
		c2.307,2.414,0.938,10.35-2.226,12.052c-3.531,1.9-5.947,5.866-6.438,8.921c-2.636,16.438-4.226,33.041-6.347,49.565
		c-1.741,13.562-3.727,27.095-5.585,40.643c-0.106,0.783-0.323,2.148-0.016,2.303c5.95,2.998,3.524,8.47,3.512,12.869
		c-0.029,9.641-0.729,19.28-1.224,28.917c-0.174,3.359-0.843,6.325-5.339,6.162c-2.898-0.105-2.062,2.314-2.324,4
		c-1.354,8.715-0.298,17.609-1.981,26.296c-4.175,21.522-1.464,43.182-1.299,64.79c0.188,24.662,0.12,49.328,0.508,73.986
		c0.366,23.309,0.854,46.624,1.879,69.91c1.214,27.602,2.122,55.208,2.991,82.819c0.633,20.098,1.562,40.198,3.042,60.248
		c1.202,16.295,3.209,32.534,5.667,48.713c2.006,13.201,3.448,26.487,5.223,39.726c4.553,33.962,12.542,67.096,24.188,99.328
		c2.314,6.407,7.586,11.198,10.007,17.588c0.332,0.877,1.134,1.086,2.011,1.199c7.616,0.987,15.271,1.763,22.832,3.066
		c12.388,2.138,24.673,4.711,33.896,14.397c6.096,6.402,5.347,14.819-1.772,20.107c-7.432,5.521-16.227,7.061-25.021,8.393
		c-11.562,1.752-23.262,1.516-34.86,0.91c-12.333-0.644-24.654-2.271-35.147-9.834c-9.109-6.565-13.479-20.812,0.782-28.088
		c4.275-2.181,8.584-4.159,13.354-5.035c2.355-0.434,3.324-1.433,1.672-3.986c-10.877-16.82-14.797-36.094-18.857-55.225
		c-4.294-20.232-8.367-40.529-11.784-60.926c-2.152-12.851-2.984-25.928-4.292-38.914c-1.344-13.341-2.621-26.688-3.784-40.047
		c-0.863-9.916-1.651-19.844-2.202-29.781c-1.407-25.399-2.159-50.83-3.232-76.243c-1.299-30.766-2.325-61.523-2.824-92.309
		c-0.32-19.748-1.598-39.476-1.266-59.281c-2.32,6.246-2.621,12.821-3.659,19.243c-2.155,13.332-3.809,26.748-6.148,40.045
		c-1.026,5.831-4.146,10.898-9.993,13.264c-1.949,0.789-2.381,1.437-1.504,3.095c7.52,14.204,9.205,30.041,12.561,45.384
		c3.231,14.778,6.183,29.629,8.764,44.532c1.04,6.001,1.324,12.243,0.2,18.354c-1.089,5.922-9.396,10.796-16.042,9.109
		c-15.739-3.99-31.311-8.493-42.531-21.438c-1.971-2.273-3.074-1.026-4.057,0.576c-3.781,6.169-6.63,12.666-4.186,20.055
		c1.669,5.046,0.4,9.814-2.082,13.725c-4.241,6.679-6.254,13.963-6.688,21.483c-0.543,9.391-2.651,18.762-0.498,28.304
		c1.36,6.022,3.521,11.681,6.539,16.888c5.172,8.922,8.892,18.424,11.411,28.28c1.921,7.507,5.767,13.508,11.674,17.827
		c10.563,7.721,16.099,18.746,20.817,30.198c4.745,11.514,9.865,23.107,8.733,36.122c-0.057,0.646-0.075,1.793,0.202,1.9
		c5.046,1.978,7.142,8.037,13.124,8.96c4.492,0.692,8.785,2.615,13.201,3.871c13.048,3.711,15.884,15.203,15.031,26.754
		c-0.547,7.415-3.55,13.778-11.717,15.943c-4.172,1.104-8.314,0.234-12.24-0.889c-19.044-5.447-36.597-13.517-49.298-29.562
		c-0.73-0.924-1.441-1.123-2.465-1.229c-16.459-1.711-32.854-0.135-49.295,0.564c-16.125,0.687-32.281,1.946-48.438,0.979
		c-12.584-0.754-25.189-0.775-37.784-2.07c-5.967-0.613-11.498,4.428-16.456,8.233c-4.911,3.769-9.967,7.008-16.196,8.03
		c-5.267,0.864-10.246-0.228-14.791-2.731c-4.196-2.312-4.037-7.054-4.735-10.99c-0.454-2.556-1.259-4.764-2.568-6.877
		c-5.746-9.273-5.172-20.278,1.619-28.601c1.848-2.265,4.215-3.714,7.325-3.561c2.243,0.11,2.805-0.701,2.071-3.008
		c-4.006-12.593,0.437-22.908,8.968-32.037c5.211-5.576,9.174-12.191,14.831-17.422c7.33-6.777,16.279-10.801,25.094-14.956
		c6.514-3.07,11.037-7.099,12.497-14.53c2.042-10.396,8.858-19.076,11.309-29.347c4.047-16.96,1.44-33.476-4.463-49.519
		c-1.313-3.569-4.237-6.458-5.007-10.544c-0.629-3.337-0.827-6.39-0.123-9.771C279.316,599.155,276.409,592.537,271.437,585.78z
		 M330.381,80.939c0,0.021,0,0.04,0,0.061c-36.825,0-73.651,0.02-110.478-0.015c-8.625-0.008-17.167-0.399-25.291,3.817
		c-2.451,1.272-3.062,2.565-2.5,4.413c1.62,5.32,0.486,10.867,1.727,16.245c0.54,2.341,0.835,3.075,3.238,2.604
		c2.707-0.53,4.092,0.831,3.921,3.635c-0.086,1.409,0.755,2.316,1.424,3.471c1.905,3.287,4.341,6.879,0.351,10.443
		c-1.24,1.107-0.699,2.46-0.762,3.729c-0.065,1.329,0.235,3.085-1.19,3.555c-3.558,1.173-2.923,3.962-2.787,6.481
		c0.267,4.963,0.679,9.92,1.127,14.87c1.253,13.835,2.519,27.668,3.851,41.495c0.919,9.544,2.208,19.062,2.809,28.623
		c0.211,3.365,4.375,3.271,4.228,6.661c-0.766,17.666,1.674,35.169,2.943,52.732c0.878,12.162,2.616,24.396,2.164,36.479
		c-0.417,11.169,5.516,21.207,3.875,32.268c-0.07,0.472-0.051,1.108,0.21,1.454c4.401,5.816,3.417,12.924,4.539,19.488
		c0.399,2.335,1.817,6.159-1.433,7.091c-3.854,1.105-3.505,3.399-3.265,6.031c1.498,16.38,2.147,32.809,2.95,49.229
		c0.494,10.108,1.044,20.23,2.116,30.288c0.404,3.789,1.139,7.944,4.301,10.812c1.876,1.699,3.865,3.323,5.529-0.429
		c0.703-1.585,2.386-2.782,4.024-2.376c6.093,1.513,12.758-3.681,18.512,1.618c0.266,0.245,1.239-0.075,1.764-0.354
		c1.869-0.993,3.759,0.039,4.477,1.121c3.369,5.08,9.124,4.091,13.728,5.239c4.863,1.214,10.264,0.231,15.429,0.296
		c1.863,0.023,2.765-0.275,3.268-2.532c1.102-4.947,3.084-9.641,5.738-14.033c7.404-12.253,17.074-20.375,32.503-19.619
		c3.927,0.192,6.007,3.349,9.399,3.84c3.924,0.567,6.445,2.825,8.695,5.945c5.075,7.044,7.101,15.098,8.512,23.435
		c0.354,2.097-0.207,4.854,3.386,4.984c3.989,0.146,7.966,0.634,11.953,0.892c2.237,0.146,4.748,0.532,2.903-3.255
		c-0.896-1.838,0.217-3.795,2.107-3.506c4.01,0.612,6.305-1.003,8.428-4.14c0.918-1.357,2.996-1.991,4.928-2.026
		c5.49-0.101,10.98-0.27,16.472-0.343c4.606-0.062,8.002,1.539,8.803,6.626c0.205,1.303,0.107,3.262,2.109,3
		c1.843-0.241,4.144-0.113,5.024-2.492c0.629-1.692,1.466-3.351,1.8-5.102c3.888-20.392,3.488-41.2,5.969-61.741
		c1.508-12.491,2.123-25.089,3.187-37.635c0.268-3.146,3.601-7.454-3.242-7.631c-0.811-0.021-0.611-1.398-0.929-2.114
		c-1.125-2.546-1.335-5.278-0.851-7.843c2.075-10.987,2.6-22.238,5.686-33.058c0.943-3.308,2.608-6.92,2.03-10.037
		c-0.973-5.233,0.276-10.14,0.665-15.125c0.847-10.852,2.363-21.651,3.533-32.479c1.108-10.269,2.095-20.55,3.228-30.814
		c0.143-1.28,0.49-3.177,1.354-3.632c5.212-2.753,3.61-7.806,4.417-12.032c0.217-1.136,0.252-2.306,0.383-3.458
		c1.208-10.667,2.41-21.336,3.634-32.002c1.204-10.498,2.364-21.001,3.672-31.486c1.093-8.764,2.438-17.42-1.798-25.899
		c-3.422-6.849-2.212-13.849,2.581-18.478c0.432-0.417,1.28-0.732,1.847-0.626c4.479,0.843,4.56-2.392,4.636-5.198
		c0.113-4.156,0.896-8.188,1.768-12.206c0.465-2.142-0.141-3.486-1.983-4.548c-5.075-2.924-10.364-4.769-16.371-4.756
		C411.028,80.98,370.705,80.939,330.381,80.939z M274.2,762.746c9.238-1.719,17.599,1.69,25.981,4.418
		c10.263,3.338,10.198,3.616,14.553-6.332c2.89-6.602,4.484-13.527-0.436-19.624c-7.934-9.829-17.629-16.897-31.173-16.386
		c-4.158,0.156-8.33,0.291-12.484,0.142c-15.955-0.572-27.72,6.975-37.317,18.915c-3.638,4.526-7.405,8.948-11.116,13.416
		c-8.355,10.059-11.012,26.442,0.252,35.6c6.203,5.041,13.633,7.079,21.396,8.102c12.546,1.651,25.257,2.617,37.246,7
		c14.801,5.411,30.126,8.026,45.72,7.458c22.978-0.837,45.412,2.152,67.762,7.324c-4.234-10.805,5.801-12.557,10.892-17.568
		c-3.918-1.996-7.885-3.213-12.327-3.288c-4.799-0.08-9.724-0.208-14.355-1.31c-15.664-3.727-30.891-8.841-45.17-16.403
		c-12.393-6.562-25.139-12.24-38.431-16.734C288.355,765.161,281.333,763.845,274.2,762.746z M338.132,629.477
		c5.765-0.75,11.542-0.104,17.345,0.179c14.563,0.709,23.498-10.094,20.64-24.263c-1.038-5.145-2.812-10.073-3.536-15.346
		c-0.688-4.991-0.219-10.123-2.344-15.051c-4.213-9.781-8.605-19.52-10.385-30.217c-0.631-3.8-5.102-2.692-7.812-3.619
		c-2.523-0.862-2.049,2.092-2.553,3.354c-1.729,4.344-3.711,8.508-7.451,11.448c-13.145,10.334-31.83,5.031-37.882-10.746
		c-0.51-1.331-0.359-3.113-2.058-3.466c-2.942-0.61-8.94,3.982-9.036,6.995c-0.229,7.25-2.815,13.807-5.604,20.325
		c-1.743,4.073-4.483,8.135-4.265,12.491c0.458,9.14-2.749,17.542-3.978,26.313c-1.159,8.268,1.472,19.415,13.486,21.347
		c8.29,1.332,16.489,0.677,24.741,0.585c-10.403,2.97-20.813,3.353-31.35-0.523c3.167,13.104,0.436,12.507,14.783,12.721
		c18.663,0.279,37.305-0.417,55.954-0.958c10.458-0.304,10.648-0.256,12.371-10.65c0.068-0.401,0.25-0.784,0.516-1.597
		C359.016,632.77,348.598,631.183,338.132,629.477z M502.268,846.896c-0.521-1.714-0.742-2.48-0.986-3.242
		c-8.542-26.576-15.746-53.508-20.105-81.098c-2.812-17.799-4.623-35.755-7.268-53.583c-2.506-16.893-4.727-33.829-5.773-50.849
		c-1.493-24.244-2.244-48.535-3.203-72.811c-1.36-34.431-3.14-68.854-3.788-103.301c-0.719-38.135-1.474-76.278-1.218-114.433
		c0.112-16.648-0.576-33.304-0.967-49.954c-0.023-1.02,0.841-3.013-1.503-2.693c-3.851,0.523-7.4-1.23-11.253-1.36
		c-1.354,10.033-0.922,19.991-0.74,29.979c0.69,37.967,0.79,75.944,1.766,113.901c0.443,17.318,0.389,34.643,0.968,51.95
		c1.142,34.104,2.371,68.205,3.872,102.293c0.723,16.428,1.998,32.837,3.29,49.232c1.383,17.532,3.266,35.024,4.579,52.562
		c0.967,12.903,2.17,25.804,4.334,38.519c4.198,24.665,8.842,49.271,14.824,73.582c2.056,8.346,3.684,16.92,8.598,24.981
		c0-1.628-0.349-2.815,0.096-3.462c0.466-0.681,1.637-0.181,2.126,0.51c2.961,4.178,5.127-1.783,7.828-0.572
		C498.007,842.571,500.143,845.343,502.268,846.896z M159.833,849.655c-0.622,1.698-1.021,2.958,0.288,3.649
		c1.042,0.552,2.449-0.404,2.34-1.125c-0.574-3.797,2.927-5.68,3.792-8.763c1.515-5.396,3.331-10.716,4.717-16.145
		c3.805-14.902,5.472-30.195,7.907-45.343c2.044-12.712,3.186-25.568,5.232-38.28c1.851-11.495,2.565-23.029,3.13-34.634
		c0.995-20.422,2.569-40.814,3.728-61.229c0.867-15.273,1.464-30.563,2.18-45.846c1.285-27.42,2.567-54.839,3.853-82.26
		c0.702-14.957,1.333-29.919,2.13-44.871c1.23-23.076,2.544-46.148,3.884-69.22c0.674-11.613,1.337-23.229,2.268-34.824
		c1.089-13.556,2.482-27.086,3.706-40.63c0.327-3.621,2.084-8.767,0.394-10.519c-2.375-2.462-6.952,1.279-10.672,0.916
		c-2.32-0.228-2.625,0.682-2.969,2.604c-1.478,8.243-0.92,16.605-1.497,24.897c-1.556,22.387-1.938,44.854-3.406,67.25
		c-0.512,7.812-0.584,15.622-1.049,23.424c-1.286,21.573-2.585,43.146-3.765,64.724c-0.8,14.621-1.242,29.263-2.137,43.876
		c-1.495,24.384-3.39,48.74-4.803,73.127c-1.123,19.397-2.14,38.786-3.938,58.147c-2.115,22.761-4.49,45.482-7.017,68.201
		c-2.428,21.83-5.549,43.477-11.106,64.766c-3.322,12.727-6.004,25.618-8.965,38.438c-0.191,0.829-0.276,1.717,0.722,2.104
		c0.987,0.384,1.728-0.177,1.872-1.067c0.629-3.9,1.265-5.697,6.503-4.108C160.138,847.822,159.839,848.284,159.833,849.655z
		 M319.035,711.001c14.954,0.353,28.801-2.216,42.676-4.203c5.083-0.728,10.279-2.173,14.268-6.059
		c2.043-1.99,2.754-4.021,1.183-6.604c-8.401-13.797-12.957-28.314-10.345-44.84c1.18-7.461,0.279-7.587-7.459-6.425
		c-1.145,0.172-2.324,0.116-3.488,0.125c-9.814,0.077-19.617,0.275-29.432,0.799c-10.121,0.538-20.309,0.357-30.441-0.079
		c-6.881-0.296-6.898-0.481-5.62,6.6c1.182,6.547,0.644,13.157,0.121,19.793c-0.708,8.986-5.188,16.498-8.478,24.509
		c-2.265,5.516-1.112,8.55,4.562,10.358C297.386,708.423,308.179,712.31,319.035,711.001z M279.456,596.037
		c1.682-2.771,1.812-5.604,1.766-8.396c-0.092-5.607-0.781-10.847,2.863-16.276c4.564-6.802,6.459-14.97,7.377-23.312
		c0.308-2.797-0.069-3.297-2.415-3.004c-4.906,0.615-9.958,0.771-14.661,2.121c-6.562,1.886-14.266,3.085-17.889,9.446
		c-3.608,6.335-8.531,10.337-14.814,13.081c-2.864,1.25-3.993,2.878-3.771,6.009c0.15,2.128,0.986,4.693-1.86,6.702
		c-0.173-19.228,0.096-38.009,3.409-56.67c1.229-6.925,2.227-13.47,10.964-14.53c0.741-0.09,1.388-0.854,2.104-1.261
		c5.75-3.26,9.501-8.416,13.754-13.308c4.151-4.772,3.422-9.934,5.024-15.835c-4.89,2.943-2.812,7.283-4.209,10.478
		c-1.61,3.683-5.711,7.319-8.01,5.53c-3.385-2.635-8.038-2.021-10.993-5.176c-1.085-1.159-3.549-0.083-3.978-2.358
		c-0.277-1.475,0.432-3.599-2.357-3.275c-3.353,0.389-7.777-0.314-9.475,2.708c-3.927,6.991-7.054,14.409-8.349,22.535
		c-2.612,16.398-5.617,32.735-8.408,49.106c-1.907,11.186-4.967,22.198-4.563,33.72c0.342,9.784,5.948,18.661,18.966,13.305
		c6.844-2.816,13.722-5.552,20.548-8.41c8.725-3.653,16.17-8.931,21.548-16.916c2.277-3.381,4.92-6.515,7.397-9.761
		c0.424,0.991,0.221,1.571,0.005,2.146c-1.434,3.836-6.311,6.461-5.863,10.331C274.004,588.544,277.216,591.999,279.456,596.037z
		 M335.369,782.494c0.415,0.509,0.641,1.025,1.029,1.229c21.898,11.479,45.822,15.62,69.886,19.246
		c0.324,0.049,0.711,0.087,0.99-0.04c4.898-2.229,9.915-2.039,15.051-0.977c2.26,0.467,3.95-0.238,3.699-3.125
		c-0.186-2.125,0.815-4.101,0.38-6.389c-2.89-15.135-8.235-29.291-15.729-42.748c-3.674-6.598-9.035-11.492-14.964-15.576
		c-14.207-9.788-31.895-4.056-43.332,4.108c-4.436,3.166-7.42,7.81-8.179,13.188c-1.183,8.376,0.89,16.336,4.516,23.937
		c0.683,1.431,1.329,1.986,2.947,1.824c7.989-0.8,15.848,0.705,23.649,1.952c6.395,1.021,12.862,2.257,18.729,5.43
		C374.633,780.648,355.307,775.423,335.369,782.494z M378.156,578.212c5.275,2.65,9.611,5.85,13.363,9.81
		c3.441,3.636,7.316,6.702,11.91,8.741c8.396,3.727,17.165,6.451,25.956,9.004c5.521,1.604,12.087-3.514,13.755-9.196
		c1.886-6.422,0.176-12.571-0.77-18.7c-1.775-11.53-4.034-22.996-6.425-34.419c-3.193-15.262-5.875-30.666-10.813-45.5
		c-3.34-10.031-3.577-9.905-13.771-10c-3.438-0.032-6.74,0.281-9.18,2.782c-5.901,6.053-11.838,5.64-16.66-1.193
		c-1.615-2.286-1.756-4.911-2.449-7.404c-0.338-1.208-0.328-2.463-1.983-2.026c-1.874,0.492-0.688,1.683-0.519,2.737
		c1.597,9.872,8.693,16.052,15.347,22.365c2.694,2.557,6.323,4.18,10.438,3.859c2.329-0.182,4.687-0.032,7.211-0.032
		c-0.646,2.187-3.669,1.166-2.628,4.32c6.86,20.792,5.483,42.61,7.631,64.023c-2.332-0.557-2.206-3.062-2.104-4.079
		c0.613-6.084-3.868-7.082-7.896-8.162c-4.158-1.113-7.021-3.305-8.954-7.126c-1.911-3.778-5.018-6.511-8.693-8.593
		c-6.221-3.524-13.046-4.031-20.013-4.642c-9.763-0.854-9.736-1.23-7.081,8.411c3.824,13.887,13.042,26.235,11.37,41.789
		c1.774-2.275,2.612-4.589,3.907-6.608C381.412,584.77,384.01,581.342,378.156,578.212z M379.538,700.156
		c-4.476,4.517-9.804,6.719-15.741,7.953c-7.275,1.514-14.634,2.261-21.98,3.2c-12.351,1.58-24.787,3.286-37.054,0.532
		c-8.807-1.977-18.299-2.746-25.924-9.937c-1.961,9.041-4.271,17.723-14.814,20.544c5.617,0.545,10.888,0.96,16.071,0.459
		c10.941-1.059,20.111,2.871,28.377,9.399c6.896,5.448,12.116,12.025,10.45,21.602c-0.967,5.558-3.481,10.591-6.62,15.283
		c-0.506,0.756-1.759,1.688-0.461,2.389c0.93,0.502,2.125,1.871,3.484,0.562c1.079-1.039,2.136-2.102,3.195-3.158
		c8.526-8.506,14.518-8.057,21.429,1.616c0.286,0.401,0.389,0.962,0.729,1.291c1.935,1.878,3.118,6.8,5.17,5.626
		c2.935-1.678-1.268-4.832-1.334-7.585c-0.022-0.961-0.437-1.916-0.705-2.863c-5.015-17.665,0.812-29.479,17.943-36.121
		c9.35-3.625,18.854-5.832,29.986-1.098C384.771,720.137,384.412,709.377,379.538,700.156z M238.056,569.562
		c5.539-3.175,11.34-4.473,13.972-9.634c5.225-10.245,14.727-12.848,24.719-14.956c7.237-1.526,14.831-1.035,21.823-3.939
		c4.783-1.986,9.361-4.132,10.37-10.035c-4.633,0-9.082,0.248-13.494-0.049c-10.49-0.706-15.211-4.724-10.708-15.546
		c2.389-5.742,5.773-11.024,7.015-17.331c1.798-9.131,2.094-9.072-7.059-9.072c-1.498,0-2.995-0.006-4.493,0.001
		c-4.519,0.021-7.838-0.368-10.708,5.636c-4.609,9.641-12.686,17.273-23.743,20.283c-1.902,0.52-2.332,1.777-2.648,3.104
		C239.132,534.653,237.748,551.537,238.056,569.562z M415.226,552.95c0.424-12.186-2.637-23.841-5.137-35.6
		c-0.821-3.865-1.5-6.594-6.593-6.574c-3.921,0.015-7.408-2.603-10.234-5.546c-2.762-2.879-6.506-5.344-8.021-8.782
		c-4.02-9.116-11.573-7.207-18.77-7.399c-4.273-0.115-5.074,1.664-4.229,5.384c1.739,7.68,3.329,15.393,4.944,23.1
		c1.133,5.405-0.918,8.744-6.062,10.479c-4.706,1.587-9.521,0.88-14.291,0.948c-3.06,0.045-3.315,1.003-2.021,3.572
		c2.227,4.409,6.107,6.161,10.482,7.479c8.432,2.538,17.248,2.482,25.821,4.021c8.065,1.447,15.722,4.568,19.427,12.13
		c2.808,5.729,7.607,6.806,12.419,8.655c1.553,0.598,2.425,0.12,2.312-1.891C415.091,559.609,415.226,556.276,415.226,552.95z
		 M453.567,855.238c7.103,0.748,11.854-4.879,13.167-9.518c3.33-11.773,0.637-27.859-15.716-30.944
		c-2.71-0.513-5.295-1.663-7.95-2.479c-4.875-1.494-10.047-2.478-12.444-7.91c-0.341-0.771-1.22-1.259-2.104-0.978
		c-4.498,1.431-8.903-0.878-13.314-0.354c-7.586,0.903-12.336,6.654-17.844,11.062c-2.7,2.159-2.307,4.35-0.931,7.395
		c3.36,7.438,9.334,12.267,15.533,16.902C424.35,847.679,438.598,852.399,453.567,855.238z M453.946,226.377
		c-0.688,2.458,0.4,4.019,4.141,3.696c2.111-0.182,4.329,0.183,6.421,0.652c2.768,0.622,4.043-0.374,4.378-3.076
		c1.689-13.614,3.356-27.232,5.134-40.836c1.818-13.926,3.807-27.829,5.621-41.755c0.898-6.889,1.631-13.8,2.319-20.713
		c0.174-1.752,0.407-4.129-2.344-3.996c-4.509,0.219-8.997-2.59-13.411-0.181c-0.665,0.362-0.647,2.146-0.778,3.29
		c-1.163,10.171-2.316,20.343-3.419,30.521c-1.139,10.522-2.161,21.059-3.336,31.577
		C457.188,198.857,455.599,212.146,453.946,226.377z M193.866,227.225c2.292-0.365,4.585-1.031,6.875-1.021
		c3.094,0.015,3.566-1.55,3.254-4.058c-1.435-11.503-2.179-23.065-3.127-34.613c-1.773-21.586-3.538-43.187-6.065-64.691
		c-0.928-7.891-7.411-1.338-11.144-2.594c-2.243-0.755-4.993-0.136-4.541,3.82c1.391,12.162,2.708,24.337,3.797,36.53
		c1.809,20.271,3.429,40.56,5.097,60.843C188.311,225.082,188.938,228.234,193.866,227.225z M351.298,495.595
		c-1.993-1.208,2.479-5.72-3.313-5.645c-13.65,0.177-27.318,0.363-40.926-1.01c-3.728-0.376-4.742,1.419-4.642,4.484
		c0.303,9.313,1.704,18.396,6.546,26.581c6.811,11.514,20.81,13.432,30.966,4.698C348.85,517.035,349.613,506.497,351.298,495.595z
		 M260.944,822.828c20.24,1.543,40.119,2.812,60.076,1.917c19.853-0.89,39.705-1.778,59.604-2.669
		c-0.436-0.291-0.924-0.876-1.484-0.954c-16.885-2.36-33.746-4.764-50.902-4.058c-15.296,0.629-30.261-1.17-44.801-6.528
		c-9.638-3.554-19.775-5.423-30.745-6.472C256.264,810.39,265.197,813.678,260.944,822.828z M331.018,73.12c0,0.106,0,0.214,0,0.321
		c-38.792,0-77.583,0.003-116.375-0.008c-1.991,0-3.986-0.218-5.971-0.135c-1.54,0.064-1.715,1.287-1.659,2.556
		c0.047,1.069,0.402,1.04,1.499,1.032c28.171-0.194,56.313-1.494,84.493,1.564c14.651,1.591,29.623,0.797,44.422,0.289
		c13.705-0.471,27.404,1.646,41.185-1.506c8.084-1.85,16.834-0.931,25.288-0.992c14.32-0.105,28.644,0.006,42.966,0.01
		c2.163,0,4.327-0.086,6.49-0.135c0.947-0.021,1.562-0.414,1.567-1.453c0.007-1.026-0.555-1.478-1.533-1.494
		c-0.999-0.019-1.998-0.048-2.996-0.048C410.602,73.119,370.811,73.12,331.018,73.12z M341.844,526.129
		c-10.188,6.646-20.333,9.107-30.541,0.252c-0.628,7.519-0.646,7.758-5.096,12.728c-1.177,1.313-1.271,2.372-0.776,3.984
		c2.674,8.725,9.856,17.101,24.553,15.952c8.619-0.673,16.916-8.396,18.647-17.779c0.205-1.109,0.3-1.834-0.761-2.489
		C343.332,535.967,341.909,531.57,341.844,526.129z M219.54,838.392c6.835,1.169,13.092-0.632,18.915-5.405
		c5.268-4.319,10.981-7.815,17.447-10.067c4.518-1.574,5.843-4.448,2.96-8.296c-4.076-5.441-7.226-12.521-16.108-11.773
		c-2.018,0.17-4.145-0.857-6.211-1.374c-7.16-1.786-13.629-4.732-18.455-10.633c-1.229-1.502-3.421-2.25-4.839-0.949
		c-1.619,1.485,0.888,2.268,1.512,3.38c1.741,3.104,3.999,5.658,7.463,6.99c1.665,0.642,2.303,2.188,2.865,3.837
		C229.304,816.469,229.952,828.263,219.54,838.392z M561.792,892.837c-9.863-5.688-19.888-7.734-29.976-8.667
		c-8.84-0.817-17.817,0.018-26.725-0.242c-6.073-0.177-11.707,1.441-17.357,3.178c-1.383,0.425-3.319,0.91-3.542,2.412
		c-0.268,1.792,1.913,1.852,3.079,2.588c2.241,1.419,4.725,2.253,7.281,2.901c16.861,4.283,33.951,5.165,51.138,2.84
		C550.898,897.142,556.288,896.246,561.792,892.837z M97.68,884.359c16.97,10.466,65.358,8.056,76.26-1.422
		c-5.707-3.179-11.664-4.922-17.948-4.854c-6.344,0.068-12.655-0.524-18.844-1.395C123.18,874.727,110.423,877.554,97.68,884.359z
		 M226.028,817.31c-0.603-4.491-0.077-10.941-4.59-14.956c-3.468-3.087-7.045-5.84-9.546-9.834c-1.148-1.835-2.826-2.38-4.469-0.413
		c-4.245,5.079-7.02,10.668-5.816,17.556c1.441,8.25,6.882,15.028,8.096,23.561c0.762,5.36,7.427,5.933,11.057,1.411
		C224.501,829.973,226.101,824.482,226.028,817.31z M330.393,448.001c-1.164,0-2.338-0.107-3.484,0.028
		c-1.289,0.151-2.583,0.428-3.823,0.812c-15.115,4.704-21.6,16.792-26.007,30.594c-0.291,0.911-0.737,2.494,1.133,2.659
		c1.4,0.124,3.075,0.849,3.919-1.05c0.667-1.5,1.195-3.062,1.816-4.582c6.584-16.101,24.506-21.83,38.379-12.062
		c5.858,4.125,8.252,10.604,9.562,17.302c0.803,4.109,3.543,1.81,5.395,2.204c1.611,0.343,1.814-0.912,1.516-2.25
		c-1.434-6.382-2.953-12.707-5.097-18.934C350.551,453.58,337.962,447.933,330.393,448.001z M341.703,483.991
		c1.994,0,3.992-0.099,5.979,0.025c2.147,0.135,2.685-1.056,2.26-2.74c-1.811-7.188-4.43-14.084-11.826-17.218
		c-13.891-5.882-28.734-0.623-33.735,16.295c-0.83,2.809,0.726,2.64,2.495,2.646C318.492,483.045,330.125,482.572,341.703,483.991z
		 M299.05,528.999c1.997,0,3.663,0.03,5.328-0.006c4.898-0.104,6.366-2.263,3.796-6.643c-5.537-9.433-7.875-19.513-7.161-30.339
		c0.166-2.517-0.822-3.029-3.138-3.076c-3.899-0.078-3.517,2.976-3.78,5.104c-0.737,5.973-2.227,11.597-5.264,16.866
		c-1.542,2.676-2.665,5.661-3.545,8.634c-1.399,4.729,0.161,6.925,4.756,8.575C293.159,529.233,296.261,528.838,299.05,528.999z
		 M351.993,526.996c1.663,0,3.334,0.102,4.989-0.019c7.256-0.523,9.531-3.472,8.062-10.614c-1.589-7.708-3.579-15.346-4.853-23.102
		c-0.461-2.806-0.803-4.144-3.981-3.953c-3.563,0.213-3.078,2.479-3.248,4.826c-0.618,8.553-1.522,17.062-5.68,24.816
		c-1.276,2.38-4.706,4.612-2.839,7.307C345.83,528.256,349.395,526.967,351.993,526.996z M176.239,95.882
		c-0.068,0.001-0.136,0.001-0.205,0.002c0,1.495-0.122,3.003,0.032,4.482c0.171,1.643,0.734,3.246,0.882,4.889
		c0.696,7.705,1.072,8.013,8.721,6.483c1.133-0.228,2.281-0.764,3.384-0.676c2.542,0.201,3.051-0.979,2.983-3.229
		c-0.16-5.299-1.183-10.511-1.203-15.845c-0.015-3.839-1.666-6.536-6.316-3.673c-1.475,0.908-3.57,1.551-5.216,1.286
		c-3.636-0.585-3.508,1.389-3.256,3.794C176.132,94.222,176.176,95.053,176.239,95.882z M471.404,88.173
		c-0.639,2.635-0.461,4.613-1.075,6.56c-0.576,1.827-0.122,3.951-0.396,5.906c-0.469,3.334-2.763,7.975-0.979,9.637
		c1.916,1.785,6.733,0.033,9.999,0.903c3.872,1.033,4.486-1.068,4.949-3.697c0.735-4.19,1.19-8.431,1.924-12.623
		c0.385-2.201-0.357-2.638-2.503-2.979C479.373,91.252,474.977,91.983,471.404,88.173z M329.453,764.88
		c-4.693,0.905-8.653,3.312-11.696,7.243c-0.531,0.687-0.976,1.604,0.073,2.055c5.111,2.195,9.661,6.002,15.212,6.699
		c2.793,0.351,7.021-0.702,8.487-2.684c1.421-1.918-2.104-4.645-3.543-6.967C336.035,768.076,333.768,765.327,329.453,764.88z
		 M151.802,875.502c3.348,1.254,4.191-0.646,4.181-3.716c-0.004-1.126,0.335-2.285,0.686-3.374c1.381-4.289-0.542-5.537-4.593-5.749
		c-3.393-0.177-6.825,0.429-10.204-0.528c-1.917-0.542-3.148,0.656-3.609,2.414c-0.581,2.21-1.237,4.376-1.383,6.736
		c-0.167,2.718,0.782,3.523,3.306,3.576C143.989,874.939,147.788,875.268,151.802,875.502z M505.683,870.361
		c2.316,3.675-0.4,9.239,2.564,11.027c2.892,1.744,7.733,0.253,11.719,0.189c0.83-0.014,1.67-0.073,2.488,0.023
		c4.04,0.478,3.531-2.36,3.48-4.791c-0.057-2.818,1.01-6.327-3.569-6.713C516.957,869.645,511.551,869.656,505.683,870.361z
		 M411.627,479.132c-1.052,3.031-5.486-0.836-4.887,2.543c0.436,2.453,4.036,0.922,6.197,1.293c0.797,0.138,1.661,0.004,2.479-0.124
		c1.975-0.309,2.67-0.952,1.967-3.335c-1.683-5.705-6.745-8.127-13.243-5.839c-3.115,1.097-5.555,6.236-3.821,8.888
		c1.185,1.814,3.186,4.448,5.163,3.877c2.288-0.661-0.642-2.562-0.576-4.12c0.085-2.058,1.062-3.613,1.879-6.338
		C408.024,478.575,409.705,479.179,411.627,479.132z M484.055,79.289c-5.824-0.618-11.221-0.788-15.992,3.494
		c2.788,2.709,6.611,1.96,9.562,3.52c-0.954,1.441-3.093,0.223-3.873,2.097c2.487,2.282,5.562,1.527,8.406,1.605
		c2.09,0.058,5.214,0.015,4.852-2.493c-0.175-1.208-1.13-5.413-5.039-4.581c-1,0.212-2.677,0.823-3.316-1.033
		C479.795,79.818,482.312,80.776,484.055,79.289z M190.657,83.818c-2.026-1.801-3.813,0.279-5.446-0.378
		c-0.55-1.364,1.566-1.086,1.26-2.231c-1.584-0.518-3.266,0.732-4.876-0.395c3.832-3.732,8.203-0.573,12.228-1.294
		c-7.411-2.299-14.799-2.099-23.635,0.244c5.44,0.964,4.449,7.106,9.23,7.362C183.57,87.35,186.788,85.054,190.657,83.818z
		 M165.377,78.119c1.179-0.191,2.193-0.243,3.133-0.532c1.742-0.535,3.611-1.048,3.298-3.543c-0.324-2.584-2.039-2.988-4.255-2.901
		c-3.311,0.13-6.628,0.065-9.941,0.145c-2.596,0.062-2.639,1.854-2.634,3.834c0.005,2.018,0.904,2.276,2.745,2.378
		C160.335,77.643,163.032,77.061,165.377,78.119z M245.747,489.038c3.897-0.483,5.86-2.723,5.123-6.316
		c-0.623-3.031-0.487-7.348-5.798-6.762c-2.14,0.236-4.327,0.069-6.492,0.037c-1.626-0.024-3.152,0.306-3.418,2.131
		c-0.389,2.658,1.811,1.629,3.054,1.88C247.023,481.784,247.453,482.182,245.747,489.038z M465.297,77.789
		c0-0.063,0-0.128,0.001-0.192c1.484,0,2.982-0.127,4.45,0.027c2.873,0.303,3.094-1.447,3.389-3.649
		c0.361-2.7-1.209-2.606-2.955-2.545c-3.462,0.121-6.922,0.326-10.384,0.366c-2.13,0.024-2.828,1.031-2.935,3.046
		c-0.121,2.275,1.055,2.924,2.979,2.943C461.661,77.804,463.479,77.789,465.297,77.789z M502.321,71.468
		c-2.229,0-3.567,0.133-4.871-0.028c-2.565-0.317-3.447,0.61-3.536,3.267c-0.111,3.345,2.21,2.904,3.913,2.726
		c3.108-0.325,6.188-0.894,9.336-0.733c1.66,0.085,2.445-0.944,2.618-2.402c0.209-1.757-0.971-2.26-2.467-2.379
		C505.349,71.761,503.387,71.565,502.321,71.468z M198.026,71.71c-0.006,0.058-0.013,0.114-0.02,0.171
		c-1.479-0.167-2.956-0.366-4.439-0.491c-1.625-0.136-3.34-0.663-3.609,2.019c-0.226,2.247,0.993,3.033,2.715,3.359
		c3.561,0.675,7.125,1.061,10.804,0.771c2.607-0.204,2.276-1.896,2.491-3.434c0.266-1.904-0.966-2.109-2.46-2.12
		C201.68,71.971,199.854,71.809,198.026,71.71z M474.729,77.119c4.739,0,9.539-0.005,14.34,0.003
		c1.938,0.003,3.097-0.628,3.033-2.883c-0.062-2.3-1.409-2.751-3.252-2.712c-3.143,0.065-6.285,0.268-9.426,0.231
		C475.984,71.72,474.169,73.043,474.729,77.119z M173.363,76.613c4.984-1.326,10.06,0.05,14.885-1.884
		c-0.416-1.58,0.497-4.069-0.722-6.475c-2.126,1.023-4.319,1.691-5.977,3.4c-0.31,0.319-0.956,1.52-1.291,0.568
		c-1.485-4.219-4.646-1.922-6.377-1.138C172.057,71.913,173.037,74.571,173.363,76.613z M400.017,491.332
		c-8.025-3.965-8.556-10.022-5.092-17.131c-5.245,0.251-5.954,0.986-5.924,5.548C389.043,486.042,393.814,491.501,400.017,491.332z
		 M250.479,474.781c1.208,5.329,4.869,9.887-0.185,14.331c-0.829,0.729-0.514,1.433-0.043,2.15c0.453,0.69,1.304,0.771,1.708,0.33
		c2.007-2.192,5.977-3.54,4.882-7.268C255.828,480.872,256.427,475.874,250.479,474.781z M253.034,493.03
		c5.818-1.138,9.064-5.047,9.92-10.396c0.343-2.143-0.209-3.94-2.059-5.203c-0.902-0.615-1.94-0.579-2.841-0.13
		c-1.195,0.598-0.817,1.535-0.361,2.516C260.063,484.9,258.68,489.035,253.034,493.03z M404.169,488.269
		c-7.079-3.861-7.306-9.1-3.403-15.842c-5.021,3.076-7.627,8.247-6.01,10.985C396.462,486.299,398.189,489.895,404.169,488.269z
		 M265.499,481.902c-1.616,3.384-2.887,6.902-4.902,10.09c-0.642,1.015-3.429,1.428-1.638,3.222
		c1.822,1.825,3.364-0.053,4.542-1.344C266.623,490.45,266.019,486.203,265.499,481.902z M395.083,492.532
		c-6.024-3.452-7.295-8.488-8.688-13.843C383.354,485.532,387.557,492.979,395.083,492.532z M144.11,894.975
		c-4.143,0-7.715-0.023-11.287,0.016c-0.979,0.011-1.959,0.067-1.925,1.569c0.036,1.573,0.787,2.029,2.194,1.885
		C136.747,898.062,140.602,898.396,144.11,894.975z M513.212,902.771c4.396,1.056,8.325,4.052,12.567,2.836
		C522.646,901.412,517.996,901.575,513.212,902.771z"/>
</g>
</svg>
