<?xml version="1.0" encoding="utf-8"?>
<!-- Generator: Adobe Illustrator 16.0.0, SVG Export Plug-In . SVG Version: 6.00 Build 0)  -->
<!DOCTYPE svg PUBLIC "-//W3C//DTD SVG 1.1//EN" "http://www.w3.org/Graphics/SVG/1.1/DTD/svg11.dtd">
<svg version="1.1" id="gOcsfyZB1xG3UIv-id2Y9uZX5NvGzCfelfQLBvYJSFY_xA0_Image_1_"
	 xmlns="http://www.w3.org/2000/svg" xmlns:xlink="http://www.w3.org/1999/xlink" x="0px" y="0px" width="640px" height="960px"
	 viewBox="0 0 640 960" enable-background="new 0 0 640 960" xml:space="preserve">
<g>
	<path fill-rule="evenodd" clip-rule="evenodd" d="M402.5,656.274c-0.84,4.594-1.432,7.679,0.125,11.675
		c1.865,4.789-1.453,10.187-2.569,15.319c-3.067,14.114-5.354,28.396-9.042,42.379c-0.168,0.635,0.034,1.468-0.307,1.941
		c-7.678,10.67-7.581,23.684-10.688,35.703c-4.561,17.639-8.7,35.389-12.886,53.123c-1.411,5.979,0.534,12.124-0.97,18.264
		c-1.894,7.727-6.503,12.907-14.384,14.291c-15.253,2.68-23.883-2.95-27.79-18.072c-1.477-5.718-3.331-11.354-4.474-17.135
		c-0.769-3.887-2.7-4.343-5.898-3.425c-5.311,1.524-10.531,0.747-15.587-1.047c-7.17-2.544-9.789-9.187-7.54-18
		c2.072-8.123,6.085-15.272,10.82-22.047c3.01-4.307,3.844-8.376,2.141-13.752c-4.263-13.459-7.695-27.183-11.432-40.808
		c-0.636-2.32-1.063-4.282-4.009-5.318c-2.91-1.022-3.2-4.42-3.209-7.308c-0.032-10.449-4.991-19.688-7.186-29.604
		c-1.737-7.849-3.097-15.801-6.256-23.267c-0.489-1.155-0.582-2.35,0.298-3.285c3.12-3.318,1.918-6.828,0.843-10.527
		c-1.458-5.013-2.55-10.132-4.501-15.198c0,10.27-0.03,20.538,0.009,30.807c0.032,8.306-0.586,16.553-2.026,24.734
		c-0.085,0.486-0.163,0.986-0.343,1.44c-1.627,4.091-3.57,8.485-8.49,8.656c-5.054,0.177-6.605-4.562-7.769-8.417
		c-2.15-7.124-3.009-14.549-3.349-21.975c-0.96-20.977,1.856-41.656,4.734-62.367c0.781-5.619,0.224-11.759-1.182-17.288
		c-5.409-21.282-7.338-43.274-13.411-64.41c-0.435-1.514-1.792-4.13,2.049-4.705c1.627-0.244,0.843-2.896,0.538-4.415
		c-5.558-27.697-11.138-55.39-16.784-83.068c-2.263-11.094-4.686-22.155-7.053-33.228c-0.556-2.601-1.52-4.239-4.877-4.031
		c-10.954,0.678-21.917-0.551-32.907-0.008c-9.457,0.467-13.799-3.372-15.05-12.678c-2.098-15.602-3.667-31.272-3.98-47.017
		c-0.082-4.079-1.737-7.709-1.465-12.037c0.57-9.073,6.133-15.827,8.953-23.785c0.52-1.467,1.655-2.36,3.409-2.471
		c1.656-0.105,3.328-0.562,4.412-1.983c2.692-3.53,5.864-3.168,9.009-0.935c1.944,1.381,2.983,0.669,4.01-0.938
		c2.721-4.253,6.946-7.186,9.959-11.101c3.421-4.445,3.213-10.142,2.105-15.199c-2.949-13.466-6.612-26.773-9.889-40.17
		c-2.611-10.673-5.229-21.349-7.517-32.094c-0.87-4.085-4.049-7.169-6.445-8.965c-2.936-2.201-2.11-4.386-2.869-6.606
		c-0.918-2.688-0.812-4.389,1.866-6.695c1.95-1.681,2.534-6.13,2.123-9.124c-0.901-6.556-1.834-13.059-1.819-19.7
		c0.009-4.128-2.79-6.932-6.157-8.219c-3.626-1.387-7.324-3.191-11.381-3.107c-3.657,0.075-3.578-2.427-3.272-4.747
		c0.312-2.372-1.811-5.8,3.042-6.498c3.317-0.478,6.627-0.871,9.907-0.679c4.858,0.284,9.616-0.228,14.299-1.206
		c8.091-1.69,15.329,3.477,23.371,2.588c2.308-0.255,4.924,0.457,7.417,0.458c61.832,0.032,123.666-0.146,185.496,0.22
		c17.149,0.102,34.306,0.326,51.455,0.23c10.067-0.057,19.928-2.919,30.124-2.546c9.767,0.356,19.534,2.121,29.366,0.209
		c2.713-0.527,5.123,0.92,4.309,4.298c-0.662,2.745,2.833,7.464-3.747,7.674c-7.958,0.255-13.126,6.456-19.529,10.023
		c-0.408,0.228-0.673,1.173-0.602,1.733c0.953,7.433-2.57,14.663,0.301,22.546c1.306,3.584,5.809,6.715,3.726,11.771
		c-0.823,1.998-0.981,4.4-3.053,5.354c-1.896,0.871-2.996,1.875-3.075,3.968c-0.018,0.466-0.199,1.202-0.514,1.341
		c-7.926,3.484-5.721,11.427-7.173,17.407c-3.797,15.636-7.103,31.431-9.643,47.315c-1.488,9.306-1.145,18.906-1.584,28.376
		c-0.027,0.604,0.21,1.708,0.489,1.764c4.04,0.813,6.736,5.453,9.6,5.822c8.562,1.104,14.193,6.366,18.39,12.302
		c2.467,3.489,5.46,8.954,3.287,14.292c-0.682,1.673-0.513,2.781,0.241,4.047c1.094,1.834,0.433,3.394-1.115,4.181
		c-6.38,3.242-6.93,9.534-7.834,15.336c-2.231,14.315-3.914,28.721-8.015,42.681c-2.565,8.735-5.786,14.858-18.434,13.675
		c-1.156-0.108-2.34,0.077-3.496-0.033c-2.604-0.247-3.91,0.216-4.446,3.439c-2.668,16.06-5.798,32.042-8.689,48.065
		c-3.242,17.962-6.449,35.932-9.543,53.921c-0.371,2.152-2.515,5.439,2.42,5.734c1.729,0.104,0.583,1.453,0.295,2.229
		c-3.702,9.979-2.714,20.589-4.112,30.876c-1.38,10.153-3.479,20.253-3.183,30.59c0.014,0.479-0.055,1.198-0.361,1.416
		c-5.769,4.095-3.295,10.145-3.438,15.388c-0.393,14.255-0.483,28.555,3.928,42.361c1.989,6.227,6.253,11.495,7.441,18.152
		c2.456,13.77,3.808,27.554,1.454,41.445c-1.445,8.533-6.928,14.052-14.645,15.351c-5.731,0.965-12.177-3.115-16.351-10.023
		C406.312,674.304,404.989,665.626,402.5,656.274z M472.537,126.577c-0.413,0.26-1.187,0.52-1.188,0.779
		c-0.005,7.029-0.203,14.037-1.288,21.007c-0.176,1.134-0.758,3.168,0.976,3.415c4.091,0.583,8.245,0.782,12.381,0.935
		c1.131,0.041,1.445-1.199,1.516-2.248c0.359-5.304,0.532-10.628,1.128-15.905c0.409-3.634-1.224-4.548-4.401-4.567
		c-3.425-0.021-7.151,0.469-9.146-3.447c4.016,1.732,8.133,2.947,12.474,1.447c1.516-0.523,2.572-0.375,1.237-3.409
		c-1.832-4.166-4.64-3.061-7.186-3.646c0.053-2.77,3.068-1.562,4.193-3.566c-5.888-0.685-10.733,0.23-15.322,3.854
		c3.188,2.354,6.576,2.528,9.911,3.25C476.292,126.809,473.998,125.449,472.537,126.577z M200.097,248.874
		c0.464,7.906-0.826,15.883,0.928,23.734c0.259,1.162-0.169,3.061,1.894,2.811c1.65-0.199,1.263-1.743,1.088-2.811
		c-1.293-7.895-2.653-15.778-3.991-23.666c0.042-6.639-1.429-13.133-1.938-19.706c-1.585-20.508-2.585-41.053-3.048-61.617
		c-0.19-8.448-0.032-8.451-8.292-6.117c-6.884,1.945-7.996,3.992-6.335,10.774c3.603,14.707,6.937,29.481,10.673,44.154
		C193.846,227.305,197.075,238.062,200.097,248.874z M348.938,297.951c-2.016,6.801,1.904,12.131,8.632,16.164
		c2.404,1.441,4.633,3.172,6.998,4.684c6.837,4.37,13.045,8.696,22.47,7.669c10.63-1.158,19.945,4.759,28.277,11.354
		c3.388,2.681,6.898,4.711,11.415,5.481c7.09,1.21,14.304,2.09,21.124,4.671c5.458,2.065,5.313,1.951,6.179-3.997
		c1.469-10.086,3.503-20.1,4.638-30.218c0.337-3.004,2.954-6.485,0.088-9.335c-2.312-2.297-3.684-5.092-5.37-7.729
		c-3.405-5.324-2.254-8.549,4.014-10.386c1.862-0.546,2.023-0.816,1.784-2.749c-0.475-3.836-1.671-7.489-0.536-11.693
		c2.308-8.543,4.767-17.309,5.117-26.063c0.884-22.098,2.628-44.18,2.255-66.324c-0.046-2.736,0.364-5.412-3.703-5.583
		c-2.067-0.087-2.834-1.764-1.959-3.609c0.601-1.268,0.685-2.143-0.422-3.024c-2.358-1.879-1.404-4.271-1.493-6.748
		c-0.133-3.75,3.79-5.32,3.692-8.751c-0.074-2.634,0.998-4.094,3.877-3.785c2.319,0.249,2.923-1.532,2.896-3.176
		c-0.082-5.173,1.41-10.19,1.184-15.397c-0.134-3.069-1.393-4.659-3.87-6.257c-5.088-3.283-10.66-4.112-16.452-4.13
		c-77.78-0.243-155.56,0.231-233.339,0.659c-7.497,0.041-14.677-0.032-21.539,3.669c-2.703,1.459-3.802,2.881-3.201,5.818
		c0.998,4.873,1.598,9.786,1.329,14.79c-0.193,3.59,0.067,6.919,5.219,6.117c0.66-0.104,1.92,0.427,2.096,0.939
		c1.6,4.669,5.619,9.188,3.406,14.224c-1.411,3.212-0.18,7.835-3.626,9.562c-3.131,1.57-3.294,3.59-3.117,6.275
		c0.994,15.067,1.174,30.168,2.801,45.22c1.241,11.477,1.937,23.028,4.312,34.33c1.648,7.848,3.493,15.891,1.218,23.5
		c-1.584,5.3-1.409,9.912-0.337,14.944c2.771,13.011,5.417,26.049,8.191,39.06c0.52,2.439,1.312,4.414,4.806,3.982
		c4.792-0.592,9.351-1.239,13.67-3.783c9.39-5.53,19.05-11.714,30.242-11.069c13.961,0.805,25.002-4.705,35.718-12.343
		c4.582-3.266,7.117-7.136,6.455-13.011c-0.408-3.619,0.056-7.328-0.111-10.985c-0.189-4.15-0.903-8.963-3.632-11.466
		c-3.426-3.142-5.431-6.449-6.43-10.67c-1.092-4.612-2.701-9.419,3.468-12.043c1.008-0.429,0.64-1.779,0.608-2.721
		c-0.139-4.163,0.359-8.246,0.977-12.364c2.484-16.565,21.622-28.381,36.968-22.285c14.046,5.579,20.996,18.335,19.543,33.351
		c-0.134,1.389-1.384,3.487,0.336,4.049c7.477,2.442,4.104,8.393,3.619,12.584c-0.369,3.184-1.709,8.385-4.782,9.09
		c-3.688,0.846-3.574,3.115-4.474,5.213C348.403,287.768,349.134,292.173,348.938,297.951z M358.389,317.697
		c0.394,6.915-0.855,9.441-7.578,11.947c-11.229,4.185-22.814,7.336-34.85,4.222c-8.322-2.153-17.501-3.402-21.841-12.604
		c-0.58-1.229-1.043-0.83-1.755-0.43c-2.72,1.53-5.382,2.818-6.473,6.341c-2.919,9.424-6.727,18.522-11.061,27.399
		c-3.917,8.021-7.224,16.34-7.755,25.318c-0.865,14.635,1.963,28.941,4.471,43.281c1.359,7.772,4.175,15.25,4.465,23.229
		c0.63,17.327-3.648,34.111-5.682,51.141c-0.414,3.465-0.53,5.96,3.606,6.341c8.251,0.759,16.51,1.438,24.768,2.112
		c15.458,1.264,30.934,1.112,46.369-0.071c11.072-0.85,22.188-1.217,33.213-2.788c2.624-0.374,3-1.378,2.557-3.514
		c-3.894-18.783-5.07-37.682-2.907-56.802c1.502-13.276,3.504-26.464,5.827-39.612c1.989-11.25,3.306-22.288-0.568-33.667
		c-4.982-14.635-11.944-28.481-16.502-43.24C365.32,321.857,362.772,319.008,358.389,317.697z M330.267,619.349
		c4.932-2.928,8.999-5.891,14.322-6.492c11.986-1.353,23.82-0.511,35.604,1.653c1.435,0.264,2.48,0.909,2.807-1.226
		c2.342-15.318,5.014-30.596,5.982-46.089c0.417-6.66-0.989-13.155-1.91-19.711c-1.88-13.388-3.463-26.818-5.043-40.246
		c-0.256-2.176-1.472-2.425-3.049-2.199c-8.878,1.274-17.82,1.666-26.76,2.22c-12.611,0.779-25.214,2.162-37.853,1.543
		c-13.087-0.642-26.231-1.251-39.182-3.073c-6.262-0.881-6.103,2.171-6.14,5.986c-0.175,17.809-1.643,35.591-1.109,53.414
		c0.104,3.494-0.351,7.085,0.298,10.47c3.192,16.644,8.562,32.69,13.858,48.751c0.959,2.909,2.714,4.893,5.749,5.356
		c13.946,2.128,27.048,0.713,38.098-9.239c1.189-1.07,1.148-2.278,1.145-3.6c-0.055-17.143-0.821-34.258-1.853-51.366
		c-0.196-3.253-0.967-6.628,0.956-9.729C328.535,576.683,327.981,597.743,330.267,619.349z M423.94,491.595
		c5.925,3.875,6.359-0.234,6.995-3.894c0.281-1.617,0.327-3.258,0.606-4.901c2.921-17.2,5.691-34.427,8.441-51.655
		c2.593-16.239,5.109-32.49,7.723-49.141c-2.178,0-4.354-0.24-6.462,0.041c-9.997,1.332-19.863,0.14-29.498-2.187
		c-7.796-1.883-15.322-4.89-22.957-7.428c-2.295-0.764-3.104-0.499-2.232,2.21c1.48,4.605,2.059,9.438,1.383,14.221
		c-1.313,9.294-3.125,18.518-4.419,27.813c-1.752,12.578-4.252,25.06-4.56,37.829c-0.372,15.465,1.055,30.707,3.886,45.924
		c2.229,11.987,3.779,24.129,5.015,36.265c1.069,10.51,3.854,20.878,3.094,31.539c-0.411,5.758-1.295,11.481-1.947,17.223
		c-1.601,14.087-4.163,27.974-7.298,41.821c-4.508,19.92-10.35,39.795-6.745,60.678c0.477,2.759,1.25,5.475,1.074,8.374
		c-0.62,10.244-2.793,20.175-5.572,30.016c-5.038,17.842-13.998,34.828-10.615,54.462c1.116,6.482,1.438,13.147,2.59,20.487
		c0.787-1.267,1.289-1.76,1.423-2.338c3.706-15.986,7.854-31.892,10.868-48.01c1.753-9.378,7.327-18.481,3.31-28.588
		c-0.218-0.55,0.01-1.326,0.161-1.966c4.097-17.255,8.462-34.451,12.156-51.79c1.025-4.812,4.624-8.075,5.654-12.64
		c2.236-9.914,4.938-19.753,6.561-29.768c3.972-24.52,12.743-48.053,13.734-73.256c0.499-12.703,4.104-25.289,5.961-37.993
		C423.371,507.414,423.95,499.89,423.94,491.595z M250.582,503.853c1.156,14.672,5.715,28.563,7.119,42.938
		c0.558,5.713,5.649,11.148,1.363,17.27c-0.271,0.387,0.109,1.276,0.268,1.911c3.766,15.116,7.895,30.152,11.217,45.364
		c3.146,14.403,7.89,28.282,12.319,42.282c2.139,6.759,4.04,13.592,6.048,20.392c1.074-7.353,1.45-14.485,0.942-21.556
		c-0.337-4.696-0.757-9.753-3.156-13.87c-5.126-8.8-8.194-18.357-11.12-27.954c-4.743-15.556-10.033-30.909-9.801-47.655
		c0.235-16.983,0.72-33.96,1.382-50.919c0.393-10.051,2.419-20.029,3.482-30.064c1.183-11.162,4.14-22.156,3.371-33.507
		c-1.005-14.834-6.037-28.967-7.608-43.729c-0.985-9.262-2.359-18.56-0.994-27.755c0.651-4.383-0.652-5.001-4.06-4.993
		c-1.981,0.006-3.894-0.024-5.833,0.875c-8.895,4.123-18.436,5.832-28.064,7.116c-3.512,0.468-5.909,0.894-4.628,5.876
		c2.325,9.045,3.618,18.351,5.457,27.525c5.876,29.318,11.865,58.614,17.632,87.954
		C246.573,504.688,247.139,506.479,250.582,503.853z M356.971,614.124c-13.281,0.014-15.215,0.629-22.812,5.015
		c-2.588,1.494-3.478,3.207-3.171,5.963c0.737,6.606,1.187,13.223,1.045,19.887c-0.151,7.149,0.752,14.227,1.933,21.274
		c0.98,5.856,2.994,11.422,4.53,17.121c0.29,1.078,1.438,3.899-0.706,2.986c-2.647-1.128-1.587,0.498-1.898,1.332
		c-4.915,13.167-2.044,26.455-0.498,39.688c1.503,12.86,5.326,25.645,0.314,38.58c-1.666,4.3,0.941,6.931,4.647,7.684
		c3.641,0.739,7.473,0.708,11.295-0.301c2.556-0.674,3.818-2.225,4.219-4.267c2.952-15.067,8.781-29.274,12.889-43.981
		c3.497-12.52,6.899-25.218,4.226-38.484c-0.201-0.997,0.714-2.975-1.742-2.273c-1.812,0.517-1.881,0.516-1.541-1.198
		c4.123-20.775,5.027-42.153,11.523-62.468c1.114-3.484-0.562-4.272-3.01-4.613C371.01,615.066,363.816,613.822,356.971,614.124z
		 M327.253,621.271c-12.758,12.654-27.162,11.938-41.827,10.118c0.871,3.018,2.901,5.435,4.546,8.067
		c0.519,0.83,1.529,1.784,1.4,2.522c-1.283,7.36,1.328,14.516,0.839,21.919c-0.521,7.885-1.083,15.93,0.544,23.842
		c2.261,10.996,6.798,21.248,10.405,31.802c2.863,8.378,6.831,16.443,6.832,25.571c0,1.393,0.69,2.266,1.84,2.646
		c5.146,1.699,10.336,2.021,15.552,0.233c2.734-0.937,3.085-2.475,1.662-4.943c-1.048-1.82-1.715-3.815-2.127-5.989
		c-2.282-12.017,0.505-23.788,1.655-35.596c1.161-11.91,2.237-23.696-1.836-35.251c-0.304-0.861-0.435-3.099-1.467-2.523
		c-3.226,1.797-2.656-0.17-1.935-1.786C328.995,649.229,326.439,635.865,327.253,621.271z M350.163,270.604
		c2.582,1.558,1.419,3.282,1.931,4.547c0.229,0.566,0.618,1.218,1.119,1.489c0.674,0.365,1.27-0.182,1.524-0.817
		c1.827-4.564,4.231-8.992,3.275-14.216c-0.183-0.998-0.133-2.073-1.3-2.424c-1.305-0.393-1.579,0.696-2.122,1.54
		c-0.453,0.703-0.228,2.15-2.113,1.9c0.279-6.447,1.93-12.803,0.629-19.384c-2.263-11.45-8.715-18.866-19.7-22.427
		c-8.605-2.788-20.016,0.896-26.347,8.336c-8.06,9.47-7.408,20.741-6.617,32.023c0.115,1.636,1.172,3.308-0.577,5.116
		c-1.51-2.432-0.556-5.749-3.557-6.922c-2.619,5.628-0.995,12.32,4.154,17.234c1.434-0.837-1.165-2.631,1.499-3.565
		c1.804,7.008,2.055,14.449,9.437,19.305c7.189,4.729,14.683,6.163,22.142,4.275C346.136,293.428,350.074,283.212,350.163,270.604z
		 M175.154,285.623c11.002,7.263,10.981,7.273,16.24,17.423c0.512,0.988,0.729,3.144,2.62,1.934
		c1.096-0.701,2.617-2.328,1.596-3.626c-4.048-5.143-4.926-12.122-10.8-16.374c-5.759-4.168-5.891-4.777-11.579-0.795
		c-0.785,0.549-1.76,0.919-2.701,1.133c-2.619,0.592-3.589,2.593-4.5,4.787c-1.642,3.954-2.849,8.244-5.249,11.689
		c-2.766,3.97-2.652,8.507-2.04,12.222c2.086,12.641,1.734,25.428,3.289,38.064c0.845,6.863,1.671,13.757,3.095,20.512
		c1.021,4.847,4.498,7.707,9.706,7.373c11.465-0.735,22.918,0.14,34.376,0.134c3.639-0.001,4.305-1.378,3.651-4.387
		c-1.536-7.069-3.072-14.14-4.632-21.203c-2.021-9.147-1.952-8.925-11-5.698c-5.056,1.804-8.946,3.614-8.397,10.158
		c0.29,3.454-1.392,4.687-4.958,5.642c3.407-3.743,3.333-8.025,3.249-12.361c-0.234-11.982-4.708-23.188-6.334-34.916
		c-0.225-1.621-1.188-2.136-3.076-1.241c-3.271,1.549-6.781,2.593-10.428,3.936c0.36-2.662,3.061-1.711,3.742-3.503
		c-2.036-2.951-6.054-3.443-8.64-6.351c3.075-0.182,5.103,1.61,7.289,2.878c2.942,1.707,6.559,4.072,8.482-0.08
		c1.703-3.674-2.97-4.166-5.208-5.395c-3.428-1.882-6.862-3.666-10.204-6.514c3.794,0.614,13.158,5.856,17.242,9.392
		c0.792,0.686,1.39,2.143,2.841,1.115c1.28-0.907,1.359-2.047,0.771-3.495c-1.217-2.992-3.033-5.378-5.681-7.308
		c-2.947-2.147-6.544-3.678-8.35-7.516c3.964,0.994,13.515,8.399,15.045,12.092c0.963,2.323,2.228,3.45,4.426,2.49
		c2.244-0.98,0.68-2.633,0.295-4.175c-1.518-6.089-4.545-10.823-10.488-13.516C177.336,289.46,175.675,288.369,175.154,285.623z
		 M387.54,369.752c4.645,1.621,9.185,3.016,13.581,4.773c14.496,5.794,29.587,6.367,44.89,5.506
		c2.462-0.139,2.532-2.065,2.782-3.431c1.212-6.635,2.032-13.341,3.249-19.975c0.678-3.695-0.52-5.693-4.146-6.645
		c-4.118-1.079-8.146-2.45-12.404-3.016c-8.7-1.154-16.849-3.245-23.973-9.19c-9.244-7.716-20.146-11.156-32.375-8.869
		c-2.127,0.397-3.821-0.64-5.489-1.752c-1.679-1.12-3.382-2.206-5.073-3.307c-0.254,0.213-0.508,0.426-0.762,0.639
		c5.813,14.604,11.628,29.207,17.492,43.938c1.501-1.372,2.122-3.369,4.327-3.263C390.386,367.497,387.688,367.822,387.54,369.752z
		 M333.502,762.369c-3.644,8.942-6.303,17.91-4.977,27.725c0.659,4.881,3.209,9.491,2.322,14.548
		c-1.052,5.997-2.638,11.91-3.49,17.93c-1.606,11.349,0.805,23.422,16.232,24.953c7.234,0.719,17.669-2.303,19.748-9.874
		c1.381-5.026,2.203-10.073,1.49-15.2c-2.304-16.592-8.39-32.631-6.619-50.336c-7.211,4.774-14.277,5.49-21.254,2.169
		C331.838,771.847,333.398,766.82,333.502,762.369z M284.048,325.916c-5.112,1.594-9.561,3.463-14.384,3.063
		c-12.563-1.041-23.706,3.087-34.132,9.498c-5.465,3.359-11.118,5.747-17.601,5.487c-3.111-0.124-3.244,1.675-2.815,3.825
		c1.924,9.651,3.976,19.277,5.852,28.938c0.319,1.644,0.918,2.534,2.549,2.153c7.511-1.753,15.221-2.445,22.667-4.635
		c6.018-1.77,11.513-5.811,17.921-4.164c0.839-3.164-2.874-3.923-2.903-6.874c3.473,0.104,3.453,3.839,6.022,5.007
		C271.886,353.908,280.014,341.172,284.048,325.916z M306,290.669c0,4.327-0.382,7.808,0.081,11.173
		c0.922,6.708-2.25,11.39-7.359,14.635c-3.565,2.265-2.88,4.239-1.157,6.88c1.126,1.727,2.79,2.759,4.584,3.681
		c15.601,8.02,31.283,6.875,47.321,1.135c7.69-2.752,9.614-10.323,2.903-15.335c-4.132-3.086-6.301-6.931-5.456-12.366
		c0.463-2.977,0.083-6.083,0.083-9.436C333.128,302.589,319.836,301.773,306,290.669z M482.024,320.371
		c-3.424-0.521-5.513-1.851-6.92-4.296c-0.855-1.488-1.227-3.555-3.726-3.07c-2.316,0.449-1.817,2.696-2.081,3.976
		c-1.754,8.512-4.636,16.732-5.937,25.378c-1.758,11.683-4.204,23.26-6.325,34.888c-0.475,2.599,0.255,4.172,3.344,3.786
		c1.474-0.185,3-0.111,4.489,0.011c9.598,0.787,12.327-3.244,14.896-10.652c2.64-7.613,3.615-15.68,5.287-23.557
		c2.313-10.903,1.556-22.474,6.973-32.697c1.023-1.931,0.063-2.486-1.52-3.042c-4.531-1.592-9.321-2.09-13.879-3.795
		c-5.952-2.228-10.456-6.566-15.744-9.711c-1.571-0.934-2.612-0.934-3.621-0.469c-2.028,0.933-0.245,2.281,0.338,2.854
		c4.572,4.49,8.345,10.291,15.788,10.407c0.781,0.012,1.32,0.197,1.44,0.935C475.494,315.386,479.132,317.161,482.024,320.371z
		 M414.9,115.028c0-0.01-0.001-0.02-0.001-0.028c11.994,0,23.988,0.04,35.98-0.056c1.39-0.011,3.887,1.14,3.946-1.473
		c0.062-2.691-2.53-1.135-3.878-1.628c-0.442-0.162-0.99-0.043-1.489-0.043c-36.141,0.017-72.278-0.115-108.419-0.379
		c-41.958-0.305-83.921,0.196-125.882,0.352c-1.666,0.007-3.331,0.09-4.996,0.082c-1.522-0.007-3.219-0.247-3.098,2.062
		c0.132,2.521,1.96,1.016,2.971,1.046c27.435,0.831,54.928-1.6,82.332,1.732c6.398,0.778,12.967,0.646,19.426,0.322
		c22.289-1.117,44.605,1.477,66.942-1.692C390.565,113.647,402.831,115.028,414.9,115.028z M433.052,659.52
		c0.257-13.646-2.487-24.829-9.545-34.722c-1.408-1.975-3.091-4.276-5.965-3.836c-2.894,0.442-2.887,3.353-3.518,5.429
		c-3.457,11.375-2.652,22.951-0.691,34.387c1.096,6.391,2.622,12.936,7.443,17.91c3.865,3.988,7.289,3.278,9.378-1.894
		C432.604,670.728,433.417,664.407,433.052,659.52z M330.033,739.444c0,0.466-0.134,0.981,0.02,1.389
		c2.631,6.975,0.881,9.487-6.796,10.215c-5.212,0.493-10.139-0.391-16.238-3.08c2.613,20.186,10.035,38.018,14.569,57.728
		c3.826-5.601,5.238-10.519,4.726-16.086c-0.895-9.72,0.409-19.472,5.043-27.783C336.019,753.466,333.542,746.725,330.033,739.444z
		 M306.127,765.582c-6.021,8.718-11.786,16.665-13.65,26.332c-1.708,8.859-0.742,14.501,9.609,16.431
		c4.33,0.808,8.414,0.617,12.715-0.145c2.79-0.494,2.734-1.61,2.189-3.569C313.456,791.914,309.916,779.199,306.127,765.582z
		 M197.79,303.507c-2.614,3.423-5.679,5.237-9.139,6.514c-5.467,2.019-6.735,4.499-5.466,10.21
		c2.171,9.768,4.301,19.544,6.468,29.409c4.717-1.768,9.584-3.716,14.545-5.385c1.708-0.575,2.029-1.539,1.73-2.939
		C203.273,328.862,200.575,316.418,197.79,303.507z M466.794,240.13c0.14-1.639,0.089-3.321,0.449-4.91
		c4.707-20.779,9.174-41.604,13.017-62.565c1.912-10.43,2.134-10.185-8.27-12.2c-3.72-0.721-4.041,0.539-4.047,3.63
		c-0.022,13.312-0.024,26.611-0.708,39.932C466.614,216.104,465.28,228.23,466.794,240.13z M448.902,410.854
		c5.679-31.454,11.225-62.934,17.182-94.335c0.894-4.709,0.187-7.187-4.844-8.378C457.354,342.521,448.858,376.183,448.902,410.854z
		 M189.695,127.21c-3.558,0.708-6.692,2.212-10.29,0.894c-2.776-1.018-4.052,1.072-3.696,3.434c0.718,4.767-0.049,9.552,1.001,14.36
		c2.367,10.834,2.369,10.989,13.406,7.502c1.778-0.562,2.388-0.896,2.068-3.152C191.122,142.741,191.209,135.097,189.695,127.21z
		 M218.956,384.704c-3.617-29.111-10.374-57.672-16.123-86.438c-4.116,2.016-3.109,5.161-2.425,8.172
		c2.598,11.444,5.454,22.836,7.797,34.332C211.213,355.526,213.979,370.327,218.956,384.704z M493.346,295.518
		c-4.251,2.748-10.176,2.527-12.588,8.01c-0.475,1.081-2.091,1.786-0.518,3.252c1.292,1.202,2.363,1.234,3.967,0.415
		c3.167-1.618,6.096-5.734,10.218-1.555c0.11,0.112,1.115-0.28,1.203-0.583c0.758-2.599,4.134-5.016,0.894-7.947
		c-1.6-1.446-1.374-3.154-1.524-4.965c-0.281-3.387-3.309-4.755-6.567-4.275c-7.565,1.112-11.244,6.471-14.668,12.296
		c-1.004,1.708-1.447,3.452,0.662,4.714c1.981,1.186,2.985,0.341,4.183-1.538C481.985,298.039,486.986,295.318,493.346,295.518z
		 M423.37,561.248c-0.471-0.025-0.941-0.051-1.413-0.076c-3.426,16.744-6.852,33.489-10.422,50.942
		c2.01-1.157,3.619-0.809,4.276-2.292C422.714,594.256,419.995,577.317,423.37,561.248z M489.777,284.67
		c-0.977-1.636-2.133-2.751-4.319-2.702c-8.385,0.186-16.458,6.583-18.266,14.678c-0.448,2.011,0.389,3.592,2.062,4.589
		c2.558,1.523,2.59-1.18,3.301-2.3c3.699-5.826,6.912-12.119,15.092-12.63C488.429,286.256,489.762,286.12,489.777,284.67z
		 M267.162,614.03c-3.847-15.37-7.694-30.741-11.542-46.111C254.404,584.496,257.997,599.899,267.162,614.03z M331.019,697.52
		c0.208-0.046,0.416-0.091,0.624-0.137c0.36-1.582,0.88-3.146,1.051-4.748c0.63-5.882,3.788-11.402,1.414-17.743
		c-2.062-5.507-2.61-11.459-3.362-17.36c-0.84-6.59-0.212-13.225-1.441-19.792c0.157,6.987-0.412,13.854-2.381,20.548
		c-0.458,1.559,0.341,2.801,0.722,4.208c2.658,9.849,6.109,19.615,3.429,30.107C330.679,694.146,331.019,695.876,331.019,697.52z
		 M330.349,702.565c-0.77,7.886-1.62,15.764-2.266,23.659c-0.256,3.126-1.015,6.933,1.247,9.146
		c3.108,3.043,4.808,6.612,6.436,10.467C333.892,731.411,331.875,717.074,330.349,702.565z M305.317,747.054
		c3.82-5.152-2.177-29.361-9.81-38.353C297.545,721.702,301.941,734.119,305.317,747.054z M194.419,117.83
		c-8.274-2.474-15.303-2.382-22.703,0.537c4.439,0.855,2.827,7.489,7.869,7.401c3.96-0.068,7.271-2.097,10.824-4.178
		c-2.398,0.383-4.675,1.11-6.142-1.551c-0.334-0.606-2.298,0.655-2.612-1.416C185.435,116.836,189.424,118.411,194.419,117.83z
		 M163.886,109.514c-0.005-0.091-0.009-0.182-0.014-0.272c-2.141,0.11-4.291,0.133-6.42,0.354c-2.147,0.224-2.422,1.8-2.475,3.628
		c-0.057,1.971,0.813,2.592,2.665,2.617c3.105,0.041,6.225,0.521,9.306,0.32c2.175-0.142,5.1-0.344,4.938-3.634
		c-0.176-3.567-2.952-3.351-5.519-3.156C165.541,109.434,164.713,109.467,163.886,109.514z M482.157,280.443
		c-4.148-4.419-7.263-0.217-10.435,0.584c-6.075,1.534-10.105,7.45-9.82,13.582c0.056,1.177-0.405,2.912,1.443,3.27
		c1.664,0.321,2.169-0.896,2.66-2.268c2.658-7.417,5.994-14.191,15.288-14.766C481.447,280.836,481.594,280.711,482.157,280.443z
		 M465.329,249.634c-0.794,3.729-1.803,8.39-2.773,13.057c-0.905,4.354-1.907,8.696-2.599,13.085
		c-0.378,2.403,0.34,4.003,3.51,3.978c3.611-0.029,2.603-2.321,2.326-4.005c-0.517-3.145-0.573-6.261-0.502-9.432
		C465.424,260.347,465.329,254.371,465.329,249.634z M464.353,116.048c0.003,0.051,0.006,0.102,0.009,0.152
		c1.801-0.089,3.613-0.354,5.399-0.229c3.26,0.228,3.17-1.936,3.385-4.154c0.287-2.965-1.92-2.192-3.302-2.172
		c-3.59,0.055-7.174,0.423-10.764,0.565c-2.223,0.089-2.053,1.69-2.188,3.138c-0.142,1.504,0.248,2.658,2.03,2.692
		C460.731,116.074,462.542,116.048,464.353,116.048z M487.134,116.086c1.764-0.714,4.674,0.747,4.887-2.71
		c0.081-1.309,0.173-3.006-1.646-3.032c-4.578-0.066-9.164,0.053-13.739,0.265c-2.214,0.102-1.538,2.244-1.9,3.502
		c-0.31,1.074,0.866,1.351,1.627,1.167C480.041,114.392,483.542,115.745,487.134,116.086z M197.953,110.062c0-0.03,0-0.06,0-0.089
		c-1.997,0-3.995,0.03-5.991-0.01c-1.565-0.032-2.084,0.837-1.927,2.203c0.115,0.998-0.789,2.658,1.114,2.725
		c3.96,0.14,7.695,1.834,11.842,1.127c2.585-0.441,2.863-1.805,2.97-3.674c0.124-2.153-1.397-2.309-3.015-2.287
		C201.282,110.079,199.617,110.062,197.953,110.062z M187.873,106.537c-1.213,0.567-2.036,1.146-2.94,1.337
		c-1.98,0.417-3.589,4.024-6.237,0.55c-0.434-0.57-3.801,0.478-5.243,1.546c-0.747,0.553-0.82,3.14-0.182,4.189
		c1.112,1.827,2.974-0.134,4.354,0.018c3.7,0.404,7.235-1.396,10.9-0.488C188.317,111.421,188.111,109.152,187.873,106.537z
		 M501.697,109.879c-1.985,0.1-3.303,0.265-4.611,0.209c-2.273-0.098-3.235,0.736-3.121,3.157c0.126,2.631,1.736,2.226,3.409,2.164
		c3.276-0.121,6.557-0.225,9.834-0.203c1.754,0.012,2.368-1.047,2.506-2.425c0.153-1.54-0.572-2.347-2.313-2.37
		C505.279,110.382,503.163,110.026,501.697,109.879z M257.529,624.417c-3.075,11.592-0.687,22.489,0.779,33.421
		C258.539,646.845,260.113,635.802,257.529,624.417z M328.088,798.182c-3.681,6.284-7.775,12.159-2.017,19.403
		C326.905,811.06,330.354,805.113,328.088,798.182z M196.01,289.977c-3.141,0.19-1.839,2.568-1.958,4.05
		c-0.186,2.331,0.069,4.977,3.004,5.193c2.69,0.199,3.662-2.497,3.486-4.425C200.33,292.457,199.009,290.136,196.01,289.977z
		 M425.898,604.431c-4.723,2.588-1.492-1.95-2.39-2.641c-2.124,1.24-3.306,2.434-3.01,5.057c0.303,2.684,2.797,5.221,0.796,8.132
		c-0.041,0.06,0.364,0.427,0.795,0.916C423.854,612.314,425.223,608.844,425.898,604.431z M460.948,290.1
		c-0.083-1.6-1.098-2.157-2.611-2.08c-2.796,0.143-4.721,1.681-5.193,4.306c-0.392,2.173,1.573,2.478,3.274,2.667
		C460.078,295.401,459.676,292.052,460.948,290.1z M221.581,400.027c-0.692-3.497-1.368-6.998-2.086-10.489
		c-0.185-0.897-0.21-2.312-1.591-1.863c-1.219,0.396-0.604,1.523-0.357,2.487C218.42,393.573,218.876,397.108,221.581,400.027z"/>
</g>
</svg>
