<?xml version="1.0" encoding="utf-8"?>
<!-- Generator: Adobe Illustrator 16.0.0, SVG Export Plug-In . SVG Version: 6.00 Build 0)  -->
<!DOCTYPE svg PUBLIC "-//W3C//DTD SVG 1.1//EN" "http://www.w3.org/Graphics/SVG/1.1/DTD/svg11.dtd">
<svg version="1.1" id="OnrRulb-qnvDC5d3-J05r5JLEXHGtRVQntjmi_x5F_xjoHs_xA0_Image_1_"
	 xmlns="http://www.w3.org/2000/svg" xmlns:xlink="http://www.w3.org/1999/xlink" x="0px" y="0px" width="640px" height="960px"
	 viewBox="0 0 640 960" enable-background="new 0 0 640 960" xml:space="preserve">
<g>
	<path fill-rule="evenodd" clip-rule="evenodd" d="M165.467,353.788c0.758-2.895,3.544-3.051,5.58-3.394
		c2.705-0.456,2.989-1.719,2.989-3.964c0.004-10.665,0.057-21.332,0.284-31.994c0.055-2.57-0.546-3.794-3.264-3.442
		c-4.969,0.642-6.368-1.836-6.109-6.453c0.696-12.441,0.562-24.927,1.98-37.33c0.111-0.967,0.169-2.349,0.784-2.784
		c6.739-4.771,3.309-11.718,2.894-17.301c-0.514-6.919-0.631-13.91-1.368-20.853c-1.417-13.361-1.342-26.875-2.35-40.29
		c-0.411-5.472-0.729-10.93-0.992-16.406c-0.21-4.358-2.771-7.832-5.979-10.565c-2.722-2.319-3.741-8.624-1.779-11.677
		c2.797-4.35,5.374-9.015,4.768-14.366c-0.596-5.26-0.713-10.54-1.237-15.784c-1.191-11.931-4.071-10.385-14.242-13.2
		c-3.111-0.862-6.092-0.606-5.87-5.354c0.318-6.805,0.015-7.073,7.159-6.965c8.662,0.132,17.171-0.736,25.621-2.519
		c0.639-0.135,1.542-0.353,1.952-0.042c7.152,5.413,15.639,3.645,23.453,3.717c46.494,0.436,92.993,0.26,139.49,0.425
		c32.329,0.115,64.659,0.3,96.981,0.844c4.815,0.081,9.047-1.592,13.563-2.266c13.012-1.938,25.904,0.681,38.844,0.167
		c1.164-0.047,2.342,0.082,3.497-0.029c8.119-0.784,7.981-0.799,7.96,7.412c-0.007,2.726-0.762,3.898-3.506,3.978
		c-7.655,0.222-12.634,5.919-18.752,9.295c-1.338,0.738-1.972,1.693-1.812,3.192c0.659,6.172-1.167,12.202-1.029,18.353
		c0.098,4.329,0.229,8.405,4.489,11.22c1.896,1.253,0.237,11.182-1.654,12.532c-3.757,2.682-6.943,6.051-7.526,10.708
		c-1.338,10.669-2.169,21.4-3.3,32.097c-1.147,10.852-2.418,21.689-3.618,32.535c-1.054,9.532-2.01,19.077-3.186,28.594
		c-0.239,1.938,0.955,2.316,2.08,2.768c2.919,1.17,3.694,3.473,3.742,6.303c0.226,13.172-0.334,26.321-0.971,39.473
		c-0.176,3.642-2.425,4.844-5.268,4.123c-4.378-1.111-4.72,0.707-4.871,4.403c-0.464,11.319-1.123,22.625-0.936,33.964
		c0.043,2.58,0.047,4.104,3.562,4.265c4.736,0.215,8.699,2.345,8.475,8.195c-0.058,1.5,0.737,2.511,1.716,3.447
		c0.892,0.854,1.806,2.078,1.208,3.062c-2.56,4.213-1.384,9.383-4.529,13.789c-2.386,3.345-4.8,7.154-6.496,11.141
		c-1.039,2.44-1.841,5.383-4.066,6.691c-7.156,4.209-7.61,11.41-8.773,18.288c-4.366,25.841-8.632,51.698-12.924,77.552
		c-0.107,0.65-0.351,1.493-0.065,1.962c4.825,7.908-0.217,16.104,0.648,24.228c0.904,8.497,0.884,17.248-0.417,25.896
		c-0.811,5.393,0.401,11.162-1.46,16.312c-1.646,4.553-3.696,8.86-2.784,13.797c1.406,7.609,1.237,15.301,0.853,22.924
		c-0.657,13.021-1.915,26.025-5.029,38.73c-0.876,3.573-1.843,7.88-7.336,6.777c-2.252-0.451-1.46,1.261-1.504,2.143
		c-0.713,14.288-1.041,28.605-2.236,42.851c-0.352,4.196,3.285,5.937,3.419,9.73c0.478,13.491-0.077,26.963-0.667,40.405
		c-0.329,7.493-0.499,14.959-0.364,22.441c0.036,2.042-0.207,3.589-1.778,5.312c-2.501,2.743-1.887,6.678-2.391,10.144
		c-0.64,4.403-0.725,8.932-1.798,13.219c-5.478,21.871-19.357,36.729-39.498,46.02c-2.545,1.174-3.201,2.642-2.629,4.88
		c1.027,4.019,0.161,7.997-0.206,11.921c-0.564,6.012-3.455,10.381-9.813,12.177c-6.176,1.745-12.424,2.313-18.671,1.637
		c-7.073-0.767-12.04-7.165-12.378-15.069c-0.135-3.161-0.189-6.344,0.023-9.495c0.184-2.727-0.921-3.381-3.454-3.327
		c-6.993,0.15-13.996-0.084-20.988,0.112c-17.628,0.495-32.257-6.343-45.541-17.441c-16.147-13.492-26.693-30.493-33.254-50.219
		c-0.772-2.322-1.226-4.751-1.813-7.135c-0.196-0.798-0.069-1.99-0.565-2.354c-8.123-5.947-3.913-15.305-6.258-22.855
		c-3.153-10.155-3.631-20.832-3.185-31.484c0.021-0.497,0.064-1.026-0.069-1.493c-1.513-5.277-2.188-10.285-1.323-16.089
		c0.964-6.475-1.112-13.411-1.929-20.139c-1.193-9.834-2.372-19.67-3.699-29.486c-0.654-4.838-0.605-9.803-2.255-14.757
		c-2.039,3.809-3.147,8.666-8.312,8.229c-4.869-0.412-6.029-4.998-7.554-8.816c-3.166-7.929-4.208-16.397-4.467-24.704
		c-0.492-15.821-2.586-31.947,3.93-47.185c1.763-4.122,1.178-8.387,1.166-12.416c-0.043-14.302-0.906-28.602-1.492-42.9
		c-0.073-1.786,0.311-3.573-0.65-5.351c-0.903-1.672-2.966-4.242,1.721-3.721c1.332,0.148,0.953-1.521,0.914-2.398
		c-0.382-8.633-0.737-17.269-1.283-25.893c-0.43-6.787-1.4-13.55-1.625-20.341c-0.412-12.444-3.245-24.566-4.486-36.891
		c-0.421-4.185-1.971-7.226-5.308-10.334c-4.681-4.359-5.654-11.339-7.971-17.216c-1.432-3.636-6.083-6.094-4.425-10.92
		c-5.779-5.417,0.873-9.846,1.176-14.778c0.297,1.263-0.527,2.669,0.956,4.375c9.387-5.908,19.166-8.809,28.283,1.401
		c1.27-3.545-0.02-5.398-1.817-6.577c-1.837-1.205-3.532-2.401-4.659-4.299c1.902-0.052,2.896,1.391,4.08,2.497
		c0.987,0.923,1.753,0.469,2.523-0.289c1.143-1.124,2.588-2.181,2.023-4.046c-0.305-1.005-0.685-2.506-2.179-2.188
		c-2.597,0.553-5.742,0.486-6.278,4.195C178.657,348.321,172.146,351.686,165.467,353.788z M177.156,119.678
		c-4.073-1.024-7.961-1.187-11.049,2.374c-2.45-0.243-3.345,0.938-2.79,3.221c0.585,2.406,1.309,4.78,2.032,7.384
		c1.515-1.922,2.676-3.677,4.634-4.615c0.056,2.017-2.392,2.648-2.64,4.924c3.579-0.493,7.042-0.62,10.923-2.087
		c-2.895-1.403-4.547-3.67-7.363-3.837c-0.537-0.768-1.074-1.536-1.61-2.305c1.33,0.159,2.593-0.02,3.744-0.752
		c0.266,4.243,3.885,4.331,6.826,5.478C177.937,126.407,180.42,122.277,177.156,119.678z M465,128.776
		c0.325,0.098,0.65,0.194,0.976,0.291c0.688,1.792,2.666,1.059,3.775,1.928c1.154,0.904,2.496,1.75,3.399,0.302
		c1.475-2.364,1.016-5.21,0.695-7.801c-0.229-1.861-1.941,0.123-2.844-0.501c-0.127-0.605,0.996-1.588,0.273-1.613
		c-3.417-0.119-6.996-1.704-10.225,0.754c-0.823-0.222-1.965-1.222-2.013,0.671c-0.062,2.453-0.016,4.91-0.016,7.841
		C461.179,129.39,463.031,128.847,465,128.776z M186.578,437.234c-1.676,11.585,1.077,22.919,2.613,34.318
		c-0.875-11.436-1.749-22.87-2.623-34.306c-1.942-18.203-4.141-36.383-4.866-55.024c-2.167,0.66-3.103,1.4-2.931,3.847
		c1.039,14.851,4.025,29.44,5.909,44.175C184.958,432.432,183.242,435.696,186.578,437.234z M413.409,402.423
		c2.008-1.34,3.422-2.473,4.997-3.3c5.423-2.851,7.559-7.409,7.472-13.364c-0.08-5.496,0.146-10.997,0.104-16.494
		c-0.056-7.312,0.415-14.536,1.531-21.801c3.707-24.131,14.874-46.583,15.971-71.248c0.226-5.093,3.133-9.396,3.438-14.265
		c0.894-14.263,1.02-28.584,2.272-42.81c0.658-7.48,0.547-14.954,1.113-22.419c0.78-10.271,1.17-20.573,1.654-30.865
		c0.048-1.003,0.589-2.433-1.166-2.819c-5.489-1.208-4.301-6.752-5.385-10.022c-1.613-4.871,2.53-9.707,4.019-14.612
		c0.729-2.407,3.521-1.081,5.367-1.476c1.386-0.296,1.048-1.439,1.286-2.338c1.584-5.977,0.717-12.202,1.893-18.228
		c0.934-4.785-0.627-7.762-5.466-10.085c-4.82-2.314-9.622-3.237-14.68-3.23c-40.817,0.052-81.634,0.165-122.451,0.374
		c-39.313,0.2-78.628,0.996-117.94,0.226c-6.164-0.12-10.962,3.27-16.542,4.49c-1.521,0.333-1.197,1.752-1.203,3.207
		c-0.036,7.989,1.252,15.821,2.314,23.686c0.139,1.031-0.463,2.658,1.43,2.551c6.749-0.38,5.096,6.325,7.156,9.423
		c2.893,4.351-1.596,9.787-1.991,14.916c-0.053,0.678-1.471,1.828-2.191,1.78c-4.124-0.276-3.44,2.539-3.405,4.945
		c0.425,29.32,1.442,58.634,1.013,87.964c-0.039,2.685,0.348,5.07,1.883,7.493c2.023,3.191,0.933,7.435,2.841,10.821
		c0.14,0.248-0.306,1.179-0.426,1.169c-3.848-0.328-2.051,2.615-2.259,4.123c-0.986,7.157,0.489,14.258,1.166,21.317
		c1.263,13.178,2.896,26.323,3.767,39.542c0.12,1.812,0.048,3.21,2.351,4.253c3.29,1.489,3.599,4.456,1.511,7.477
		c-0.543,0.787-1.758,1.666-1.626,2.277c1.602,7.413-0.79,14.727-0.463,22.146c0.211,4.79,1.418,8.285,5.051,11.061
		c3.952,3.019,7.272,6.83,11.911,9.409c3.321-7.995,5.65-16.428,10.87-23.511c0.51-0.692,0.37-1.923,0.39-2.906
		c0.09-4.296,0.286-8.539,0.894-12.841c2.071-14.664,9.51-24.994,23.293-30.552c12.784-5.155,26.133-9.036,37.662-16.981
		c2.039-1.405,4.267-2.438,4.204-5.562c-0.133-6.663,0.104-13.336-0.117-19.994c-0.09-2.727-0.27-7.32-1.614-7.82
		c-6.841-2.542-5.618-9.235-8.026-13.918c-0.937-1.821-1.285-5.563,0.978-6.377c5.156-1.854,3.901-5.741,3.673-9.14
		c-0.837-12.466,5.25-21.049,14.957-27.755c8.761-6.052,19.422-5.402,27.474-0.151c9.604,6.264,14.745,15.301,14.691,27.071
		c-0.019,3.938-1.763,8.664,3.771,10.864c0.63,0.251,1.312,1.893,1.071,2.567c-2.091,5.842-0.709,13.577-8.614,16.333
		c-1.213,0.423-1.054,1.456-1.313,2.403c-2.279,8.324-0.427,16.805-1.021,25.188c-0.115,1.629,1.26,2.254,2.241,3.072
		c8.441,7.031,17.478,13.335,28.168,16.121c22.669,5.91,35.179,19.907,36.698,43.482c0.474,7.349,2.359,14.188,7.158,20.133
		C410.554,391.563,412.319,396.599,413.409,402.423z M249.483,402.969c-8.598,10.368-16.516,20.839-23.485,32.08
		c-5.002,8.066-14.002,7.738-20.236,0.593c-3.618-4.147-6.498-9.106-11.91-12.486c0.623,8.924,1.26,17.208,1.208,25.538
		c-0.083,13.314,1.441,26.599,1.035,39.934c-0.049,1.625,0.359,4.674,0.671,4.689c5.622,0.276,2.005,3.917,2.184,5.934
		c1.528,17.236,0.102,34.596,2.084,51.819c0.107,0.936,1.11,2.036,0.124,2.792c-3.558,2.723-2.04,6.054-1.425,9.385
		c2.21,11.975,5.608,23.758,5.327,36.129c-0.125,5.494-1.264,11.049-0.841,16.389c1.081,13.646,2.446,27.358,5.092,40.769
		c2.694,13.655,2.017,27.672,7.239,41.204c4.24,10.988,4.787,23.49,6.331,35.404c1.469,11.33,5.854,22.427,3.184,34.169
		c-0.193,0.85,0.378,1.91,0.704,2.834c6.182,17.526,15.118,33.354,28.951,46.04c12.077,11.074,26.004,17.893,42.771,17.822
		c7.498-0.032,14.997,0.01,22.495-0.011c6.042-0.017,6.801-0.57,5.833-6.678c-1.447-9.136-0.437-18.286-0.835-27.418
		c-0.109-2.506,0.602-4.956,2.504-6.216c2.614-1.731,2.583-3.938,2.535-6.463c-0.035-1.828-0.054-3.689,0.24-5.484
		c1.99-12.169,0.764-24.307-1.753-36.116c-3.853-18.075-3.816-36.256-3.231-54.491c0.126-3.935-0.118-7.49-1.627-11.054
		c-3.777-8.916-4.646-18.413-5.714-27.908c-1.002-8.897-1.56-17.817-2.313-26.726c-0.928-10.973-2.812-21.884-4.702-32.748
		c-1.168-6.71-0.596-13.487-1.396-20.205c-1.051,5.049-2.115,10.068-2.455,15.137c-1.033,15.425-2.029,30.857-2.075,46.33
		c-0.008,2.654-0.18,5.252-0.721,7.91c-1.466,7.202-2.462,14.297,1.159,21.502c1.687,3.355,1.994,7.678,1.489,11.719
		c-1.556,12.471-3.272,24.924-4.589,37.419c-0.519,4.926-0.761,9.529,2.372,14.558c4.947,7.94,8.559,17.449,4.321,26.692
		c-4.481,9.774-6.585,19.488-6.197,30.179c0.246,6.788-1.307,13.526-7.384,18.122c-6.297,4.764-13.017,5.09-20.087,2.142
		c-6.343-2.646-9.225-7.491-9.567-14.321c-0.332-6.627,1.087-12.824,3.602-18.815c2.86-6.814,6.3-13.368,7.372-20.859
		c0.636-4.446-1.109-9.193,1.068-13.294c3.668-6.911,1.808-13.407-0.483-20.063c-7.12-20.688-13.399-41.558-11.311-63.856
		c0.777-8.301-1.167-15.714-5.873-22.536c-2.06-2.986-3.163-6.44-4.197-9.904c-4.35-14.564-6.643-29.458-8.26-44.568
		c-1.77-16.533,0.433-32.908,0.767-49.341c0.234-11.515,2.491-22.976,3.462-34.493c0.875-10.376,2.41-20.657,3.641-30.981
		c0.908-7.614,1.433-15.466-0.032-22.888C254.233,426.56,251.761,414.867,249.483,402.969z M278.858,315.816
		c-5.738,1.806-8.782,4.857-9.248,10.703c-0.262,3.295-1.906,6.539-3.84,9.496c-9.9,15.146-14.737,31.657-14.957,49.907
		c-0.18,14.902,2.682,29.238,5.842,43.534c2.139,9.678,3.009,19.297,2.053,29.029c-1.272,12.95-3.094,25.846-4.701,38.762
		c-0.305,2.448,0.269,4.293,3.021,4.698c8.658,1.278,17.203,3.141,26.066,3.126c25.908-0.041,51.805,0.302,77.604-2.937
		c4.085-0.513,4.923-2.29,4.167-5.455c-1.236-5.18-1.706-10.492-1.719-15.695c-0.027-10.489-1.542-20.891-1.323-31.397
		c0.071-3.424,0.997-7.015,0.052-10.315c-1.638-5.716-0.115-11.18,0.938-16.571c1.916-9.817,4.778-19.449,6.741-29.259
		c1.532-7.653,1.146-15.129-1.337-22.913c-4.902-15.364-12.201-29.744-17.312-44.979c-1.674-4.989-4.309-8.717-9.601-10.111
		c-0.66,5.412-4.049,8.956-8.651,11.26c-14.297,7.155-28.815,8.051-43.793,1.726C283.014,325.955,278.919,322.768,278.858,315.816z
		 M369.293,402.49c-0.145,1.138-0.1,2.34-0.461,3.403c-4.433,13.043-6.438,26.511-5.659,40.188
		c0.735,12.924,1.332,25.851,2.058,38.77c0.209,3.717,0.268,7.61,1.146,11.326c2.626,11.106,3.374,22.511,4.422,33.781
		c2.221,23.89,0.699,47.777-1.61,71.664c-1.575,16.284-5.882,32.131-6.579,48.545c-0.492,11.609-1.085,23.059,0.956,34.647
		c1.913,10.863,4.946,21.727,4.312,32.841c-0.788,13.825-4.783,27.167-7.385,40.723c-2.832,14.748-8.471,29.355-3.479,44.729
		c1.26,3.882,0.773,7.875,1.025,11.829c0.336,5.274,1.486,10.419,3.085,15.462c0.739,2.33,2.287,3.013,4.549,2.487
		c10.192-2.368,18.694-7.479,25.019-15.864c5.74-7.612,9.035-16.39,11.403-25.532c2.233-8.625,5.627-17.217,0.536-26.058
		c-1.095-1.901-0.807-4.301-0.425-6.389c1.092-5.961,0.346-11.987,0.869-17.937c0.974-11.053,0.202-22.312,2.907-33.143
		c2.453-9.825,3.023-19.664,3.158-29.736c0.246-18.479,0.646-36.964,1.084-55.44c0.392-16.541,2.769-32.952,5.562-49.271
		c0.198-1.163,0.538-2.474-0.408-3.321c-2.389-2.143-1.986-4.7-1.377-7.329c0.631-2.723,1.707-5.404,1.911-8.154
		c1.143-15.39,2.001-30.801,3.159-46.189c0.211-2.798-2.223-7.155,3.45-7.745c0.234-0.024,0.418-1.49,0.458-2.293
		c1.071-21.392,1.078-42.802,1.169-64.738c-2.352,1.826-4.279,3.617-6.479,4.961c-3.411,2.085-6.263,5.032-11.073,4.554
		c-6.828-0.68-10.769-4.863-13.85-10.056C386.18,422.133,376.963,413.065,369.293,402.49z M310.223,554.977
		c0.873,2.427,1.816,4.106,1.797,6.203c-0.195,20.925,3.531,41.475,5.964,62.15c0.223,1.887,0.951,3.214,2.81,3.612
		c4.841,1.038,9.736,2.704,14.674,1.809c7.417-1.345,14.918-0.681,22.368-1.487c4.607-0.499,6.433-2.045,7.076-6.161
		c2.823-18.035,4.062-36.224,5.037-54.421c1.106-20.635-1.586-41.066-3.922-61.505c-0.196-1.719-0.659-2.193-2.449-1.991
		c-11.996,1.357-23.976,2.667-36.088,2.98c-10.645,0.276-21.337-0.16-31.878,0.391c-12.911,0.673-25.456-0.377-37.897-2.942
		c-4.038-0.833-4.447,0.715-4.588,3.301c-0.415,7.608-1.852,15.178-1.955,22.732c-0.227,16.608-2.429,33.171-0.311,49.86
		c1.81,14.258,4.272,28.298,8.218,42.116c1.083,3.792,3.539,5.437,6.845,6.284c9.685,2.48,19.043,0.944,27.976-3.072
		c5.717-2.57,10.763-7.385,10.78-13.304c0.045-15.663,3.882-30.99,3.297-46.663C307.86,561.812,306.751,558.211,310.223,554.977z
		 M353.121,797.354c0-4.453-0.366-7.828,0.062-11.099c2.078-15.839,6.133-31.294,9.375-46.908
		c2.618-12.612,4.912-25.163,1.63-38.186c-2.121-8.416-3.355-17.145-4.063-25.808c-1.004-12.27-0.143-24.557,1.765-36.741
		c1.65-10.541,1.687-9.858-9.154-9.089c-10.147,0.72-20.466,2.967-30.634-0.284c-2.522-0.807-3.131,0.325-3.144,2.71
		c-0.035,6.339,1.49,12.498,1.962,18.756c0.799,10.59,2.212,20.989,6.393,30.854c1.18,2.783,1.348,5.597,1.126,8.689
		c-1.034,14.468-1.808,29.195,1.027,43.323c3.99,19.879,5.387,39.642,3.299,59.697c-0.311,2.981,0.484,3.163,2.696,2.359
		C341.261,793.521,346.968,792.834,353.121,797.354z M193.683,386.797c0.025,11.109,0.611,21.861,0.33,32.628
		c-0.036,1.371,1.006,1.994,1.774,2.832c3.812,4.159,8.036,8.023,11.329,12.562c5.892,8.121,12.59,4.554,17.664-0.729
		c1.226-1.276,2.076-2.939,2.986-4.49c3.265-5.568,6.706-10.982,10.944-15.909c3.875-4.505,9.288-8.852,9.908-14.629
		c1.213-11.302,0.66-22.794,0.794-34.208c0.01-0.852-0.576-2.64,0.181-2.346c3.574,1.389,2.581-1.972,2.925-2.955
		c2.407-6.87,5.242-13.492,9.072-19.714c2.844-4.619,5.684-9.276,6.681-14.781c0.229-1.266,1.398-2.671,0.221-3.667
		c-1.157-0.979-2.451,0.47-3.61,0.855c-5.299,1.769-10.503,3.818-15.758,5.723c-17.139,6.21-24.825,17.507-26.072,35.27
		c-0.439,6.26-0.835,12.369-4.567,17.797c-3.1,4.51-4.194,9.967-6.424,14.899c-0.918,2.032-0.5,3.343,1.665,4.737
		c3.874,2.495,6.53,6.111,6.661,11.146C215.115,399.686,201.35,396.728,193.683,386.797z M402.17,417.756
		c0.566-3.985,2.909-7.281,5.535-9.546c4.984-4.297,3.459-8.534,1.386-13.127c-1.015-2.248-1.893-4.705-3.457-6.532
		c-6.092-7.118-6.732-15.717-7.756-24.472c-1.536-13.134-6.73-25.013-18.599-31.676c-8.652-4.857-18.594-7.421-28.356-11.159
		c5.107,15.678,13.637,29.375,17.34,45.704c1.107-2.24,0.239-4.536,2.681-5.368c-0.467,11.92,3.606,23.657,0.002,35.45
		c-0.502,1.643,0.047,3.103,1.084,4.608c8.05,11.692,17.283,22.505,25.027,34.448c4.354,6.716,11.231,7.231,17.934,2.484
		c3.581-2.536,9.172-4.343,9.521-8.801c0.844-10.79,0.274-21.691,0.274-33.153C415.91,403.007,407.252,408.406,402.17,417.756z
		 M286.618,267.347c-2.75-2.11-3.184-5.239-4.244-8.074c-0.341-0.91-0.988-2.011-2.095-1.794c-0.536,0.105-1.141,1.2-1.253,1.919
		c-0.834,5.37,1.866,9.913,3.631,14.664c0.135,0.363,0.958,0.868,1.128,0.764c3.619-2.224,3.015,1.364,3.109,2.606
		c0.736,9.739,7.182,13.779,15.519,16.107c13.398,3.742,29.96-1.494,30.65-18.239c0.053-1.272,0.053-4.976,2.326-0.694
		c0.446,0.842,2.084,0.671,2.831-0.711c2.223-4.109,3.645-8.438,3.765-13.141c0.036-1.409-0.116-2.726-2.045-2.705
		c-1.562,0.016-1.596,1.098-2.011,2.267c-0.934,2.634-0.354,5.798-3.311,8.812c1.79-8.534,2.613-16.192,2.439-23.986
		c-0.304-13.634-11.742-26.067-25.366-27.132c-12.183-0.952-25.956,10.589-27.661,23.517
		C282.881,250.254,282.542,259.016,286.618,267.347z M262.296,629.211c6.912,8.014,7.041,16.873,6.759,25.927
		c-0.222,7.153-1.003,14.524,0.326,21.44c2.599,13.519,6.22,26.865,10.873,39.877c1.848,5.166,3.5,10.376,2.471,15.964
		c-0.471,2.555,1.013,3.71,2.97,4.406c2.329,0.83,4.729,1.257,7.278,1.226c8.63-0.105,8.919-0.347,8.049-8.859
		c-0.084-0.825,0.007-1.666-0.03-2.498c-0.732-16.501,2.841-32.614,4.547-48.888c0.772-7.364-0.642-13.985-3.496-20.85
		c-1.718,1.147-1.869,3.298-4.851,3.814c7.82-13.192,6.949-27.156,6.697-41.422C292.266,631.246,278.541,632.749,262.296,629.211z
		 M328.002,849.018c0,2.831-0.095,5.666,0.02,8.492c0.288,7.173,4.699,12.748,10.882,13.401c3.294,0.349,6.777,0.632,9.958-0.057
		c6.318-1.367,14.122-0.964,15.622-9.972c1.258-7.556,1.947-15.158-1.747-22.272c-4.745-9.14-6.952-18.777-6.774-29.06
		c0.105-6.087-1.39-11.157-8.396-13.021c-3.967-1.055-7.512-0.195-11.133,0.821c-2.281,0.641-4.484,1.688-6.14-0.925
		c-1.228-1.939-1.237-0.048-1.656,0.469c-1.186,1.463-0.554,3.197-0.614,4.805C327.422,817.472,330.024,833.245,328.002,849.018z
		 M303.791,726.321c-0.978,2.471-0.621,3.632-0.27,4.931c1.166,4.32-1.258,8.222-5.675,8.648c-4.593,0.444-9.437,0.83-13.59-1.643
		c-4.271-2.544-4.341,0.127-4.223,2.992c0.417,10.176-2.314,19.48-6.881,28.51c-3.134,6.197-4.508,12.91-4.381,20.05
		c0.155,8.702,6.178,13.427,14.673,14.148c8.379,0.712,16.159-4.646,17.429-12.187c0.654-3.886,1.622-7.812,1.137-11.85
		c-1.087-9.044,1.691-17.128,5.557-25.196C312.247,744.955,307.784,736.128,303.791,726.321z M289,289.086
		c0,4.551-0.3,8.39,0.073,12.162c0.512,5.185-1.004,8.987-5.722,11.523c-3.133,1.684-2.78,4.569-1.748,7.34
		c1.334,3.583,4.465,5.143,7.776,6.353c8.72,3.185,17.514,5.781,26.967,3.543c6.879-1.628,13.94-2.737,19.259-8.091
		c4.869-4.899,4.923-7.605-0.571-11.646c-3.172-2.333-4.386-4.956-4.104-8.817c0.309-4.228,0.07-8.495,0.07-13.474
		C317.149,300.126,303.507,298.434,289,289.086z M454.005,164.064c-0.966,21.528-1.951,44.616-3.062,67.697
		c-0.431,8.96-1.121,17.907-1.734,26.857c-0.34,4.971,3.188,7.598,7.585,5.109c2.429-1.373,1.729-4.682,2.003-7.178
		c1.233-11.202,2.295-22.422,3.498-33.627c1.185-11.028,2.489-22.043,3.7-33.068c1.282-11.676,2.456-23.364,3.812-35.032
		c0.346-2.973,0.637-5.203-3.598-4.963c-2.955,0.167-5.963-0.444-8.935-0.806c-2.338-0.284-3.386,0.533-3.301,2.994
		C454.095,155.53,454.005,159.02,454.005,164.064z M180.591,155.887c2.292-6.188-1.37-5.8-4.887-5.589
		c-8.939,0.537-9.162,0.547-8.649,9.505c0.767,13.404,1.954,26.784,2.828,40.184c0.799,12.251,1.38,24.516,2.133,36.77
		c0.447,7.282,1.004,14.558,1.596,21.83c0.143,1.761,0.227,3.38,2.997,3.523c4.11,0.213,5.609-0.59,5.613-5.306
		C182.252,222.945,181.326,189.103,180.591,155.887z M318.943,95.99c0-0.011,0-0.021,0-0.032c-39.642,0-79.285-0.001-118.927,0.008
		c-1.158,0.001-2.34-0.009-3.465,0.218c-0.867,0.174-1.314,0.995-1.297,1.884c0.023,1.226,0.975,1.053,1.787,1.06
		c18.601,0.149,37.199-0.676,55.809,0.469c8.884,0.546,17.737-0.579,26.746,1.05c8.035,1.452,16.503,0.79,24.771,0.613
		c23.522-0.501,47.03-0.113,70.572-1.818c20.955-1.519,42.103-0.353,63.163-0.528c1.616-0.014,4.858,1.546,4.759-1.492
		c-0.088-2.674-3.255-1.357-4.968-1.361C398.243,95.971,358.593,95.99,318.943,95.99z M454.962,391.236
		c-1.703,1.845-4.092-1.99-4.742,0.672c-1.093,4.477-1.374,9.15-2.04,14.059c4.484-1.632,6.39-5.221,7.521-8.652
		c1.457-4.423,4.523-7.913,6.793-11.59c2.688-4.354,2.036-9.246,4.486-13.308c0.305-0.506-0.222-1.538-0.413-2.314
		c-1.828-7.405-5.778-12.354-14.14-12.188c-0.156,0.003-0.313-0.104-0.471-0.158c-4.004-1.386-14.364,3.282-15.843,7.26
		c-0.269,0.724-0.543,1.876,0.46,2.561c14.342-6.943,16.339-7.057,26.29-1.256c-1.866-0.144-3.627,0.236-4.726-0.448
		c-6.242-3.888-11.883-1.523-17.632,1.167c-2.338,1.094-4.241,2.439-3.326,5.229c1.033,3.15,3.671,1.183,4.916,0.573
		c6.924-3.388,13.174-0.247,20.486,1.059c-3.656,2.247-6.461,0.651-8.804-0.184c-4.692-1.673-8.721,0.136-12.975,1.148
		c-2.3,0.548-2.122,2.307-1.759,3.944c0.387,1.743,1.324,2.031,3.289,1.625c5.76-1.19,11.357-0.632,16.481,3.208
		c-1.636,0.635-2.89,0.514-4.12-0.19c-3.525-2.015-7.397-1.373-11.181-1.459c-1.526-0.035-2.612,0.284-2.623,2.101
		c-0.013,1.953,1.247,1.923,2.693,1.946C448.131,386.112,451.374,388.91,454.962,391.236z M177.841,399.876
		c-0.348-4.745,0.447-9.639-1.307-13.318c-1.697-3.56,0.312-3.545,1.968-4.61c1.596-1.026,2.916-1.784,5.271-1.312
		c2.104,0.421,5.046-1.285,5.086-4.24c0.04-2.937-2.626-2.211-4.513-2.413c-3.198-0.342-6.184,0.333-9.186,1.392
		c-2.075,0.73-4.066,2.299-7.339,1.016c6.502-1.818,11.629-6.205,18.407-3.645c1.129,0.427,2.938,1.144,3.773-0.927
		c0.83-2.056-0.485-3.44-1.897-4.051c-4.62-1.994-9.268-4.242-14.526-1.691c-2.407,1.168-5.031,1.889-7.556,2.812
		c6.653-4.229,13.458-7.657,21.352-3.08c0.733,0.425,2.05,1.702,3.08,0.536c0.9-1.02,0.925-2.503,0.394-3.772
		c-1.22-2.915-12.093-7.098-15.09-5.866c-3.487,1.433-6.98,2.853-10.45,4.326c-2.198,0.935-4.633,2.303-4.15,4.872
		c0.569,3.036,1.294,6.779,2.677,8.863c3.635,5.479,6.302,11.056,8.027,17.363C172.66,395.052,174.147,398.239,177.841,399.876z
		 M441.085,416.103c-2.518,2.643-4.104,4.759-6.116,6.326c-4.021,3.131-5.08,6.97-5.131,12.036
		c-0.117,11.763-1.318,23.512-1.644,35.277c-0.269,9.689-0.473,19.383-0.412,29.127
		C432.153,471.673,436.524,444.477,441.085,416.103z M430.504,424.672c3.279-2.539,5.548-5.391,7.799-8.247
		c1.399-1.776,3.772-3.016,3.654-5.693c-0.285-6.497,0.507-12.928,1.006-19.38c0.104-1.352,0.6-3.028-1.569-3.625
		c-1.114-0.306-2.005-2.704-3.196-1.208c-2.033,2.551-5.999,2.939-6.381,7.548C430.979,404.151,431.387,414.278,430.504,424.672z
		 M444.717,356.117c0-12.952,0-25.507,0-38.061c-3.836,9.429-7.461,18.83-9.725,28.686c-0.911,3.97-1.597,7.509,4.652,6.365
		C441.571,352.756,442.248,355.446,444.717,356.117z M175.783,348.703c5.389,0.123,6.426-2.465,6.119-6.277
		c-0.146-1.808,0.054-3.642,0.056-5.464c0.009-8.615,0.004-17.229,0.004-26.651C172.784,322.701,177.459,336.051,175.783,348.703z
		 M447.006,312.469c0,13.291,0.013,26.507-0.015,39.722c-0.003,1.673,0.178,2.835,2.354,2.764c2.134-0.069,2.413-1.324,2.426-2.941
		c0.059-7.317,0.103-14.635,0.156-21.952C451.974,323.827,452.689,317.423,447.006,312.469z M177.501,97.566
		c-0.964-7.612-1.193-7.721-7.549-3.586c-0.623,0.406-1.292,1.562-1.795,0.275c-1.425-3.651-3.97-0.901-5.74-0.84
		c-2.021,0.07-0.656,2.424-0.924,3.742c-0.246,1.204,0.439,2.203,1.584,1.757c3.017-1.175,6.032-0.563,9.045-0.37
		c1.324,0.085,1.066-2.454,2.797-1.441c5.137,3.006,10.752,3.211,16.506,2.918c2.402-0.123,2.541-1.41,2.597-3.251
		c0.064-2.133-1.194-2.482-2.842-2.503c-2.989-0.037-6.019,0.244-8.954-0.165C179.255,93.688,177.954,94.834,177.501,97.566z
		 M173.766,144.137c3.944,0.092,7.988-1.91,7.252-4.017c-0.898-2.572-0.139-5.657-1.66-7.527c-0.645-0.792-4.104,0.767-6.302,1.161
		c-1.785,0.32-3.612,0.776-5.391,0.672c-2.61-0.153-2.745,1.162-2.699,3.195c0.133,5.999,0.994,6.858,6.872,6.38
		C172.328,143.962,172.829,144.066,173.766,144.137z M466.026,108.417c-0.851,2.562-3.393,0.786-4.913,2.776
		c3.387,0.937,6.256,2.141,9.455,1.649c1.918-0.295,5.16-0.9,4.554-2.645c-0.636-1.831-0.873-6.176-5.255-4.849
		c-1.045,0.316-2.339,0.722-2.833-0.938c1.173-1.899,3.197-1.709,4.987-2.21c-5.864-1.939-10.976-0.353-15.993,3.04
		C459.104,107.779,462.615,107.822,466.026,108.417z M181.655,101.917c-6.318-1.97-12.653-2.041-19.03-0.867
		c-0.746,0.138-1.684-0.076-1.771,1.173c-0.222,3.164,6.121,8.556,9.275,7.588c2.839-0.872,5.527-2.236,8.282-3.383
		c-3.814,1.101-5.438-3.178-8.585-3.177C173.678,100.866,177.75,102.375,181.655,101.917z M151.707,93.58c0-0.086,0-0.173,0-0.259
		c-1.975,0.092-3.969,0.044-5.917,0.32c-1.594,0.228-2.718,1.236-2.719,3.028c-0.001,1.36,0.135,3.047,1.73,3.154
		c4.39,0.297,8.809,1.271,13.204-0.002c1.784-0.518,2.091-1.85,1.996-3.493c-0.108-1.851-1.113-2.688-2.848-2.737
		C155.339,93.54,153.522,93.58,151.707,93.58z M452.884,100.081c0,0.039,0,0.079,0,0.118c1.964,0,3.938,0.13,5.889-0.029
		c3.154-0.258,2.596-3.156,2.844-4.96c0.267-1.942-1.911-1.359-3.015-1.362c-3.782-0.009-7.564,0.258-11.349,0.335
		c-1.795,0.036-2.227,1.091-2.23,2.574c-0.003,1.474-0.277,3.192,1.931,3.304C448.926,100.159,450.907,100.081,452.884,100.081z
		 M461.166,133.068c-3.91-1.342-2.73,2.307-3.512,4.371c-0.686,1.811,0.02,2.895,1.585,2.441c3.65-1.056,7.156-0.062,10.721,0.117
		c2.46,0.123,2.949-1.307,3.081-3.427c0.151-2.421-1.188-2.598-3.019-2.696C467.232,133.726,464.453,133.379,461.166,133.068z
		 M432.161,388.772c2.565-0.573,3.586-2.186,4.952-3.346c1.22-1.036,2.502-1.641,1.646-3.929
		c-2.211-5.914-4.106-11.961-5.312-18.293C433.596,371.648,431.454,379.955,432.161,388.772z M187.713,411.629
		c0-10.116,0-20.232,0-30.607c-2.664,0.549-4.023,1.547-3.75,4.319c0.597,6.072,0.688,12.209,1.598,18.228
		C185.962,406.23,185.208,409.164,187.713,411.629z M473.228,94.606c-2.843,0-5.319-0.069-7.79,0.022
		c-1.877,0.069-2.52,1.308-2.477,3.055c0.021,0.814-0.063,2.184,0.824,1.977c4.979-1.161,9.912,1.228,14.852,0.03
		c1.657-0.401,1.801-1.853,1.813-3.079c0.015-1.551-1.031-2.388-2.632-2.31C476.167,94.383,474.519,94.519,473.228,94.606z
		 M163.326,119.974c3.942-2.051,8.253-2.038,12.389-2.839c2.7-0.522,3.103-1.247,2.582-3.854c-0.64-3.2-2.294-1.241-3.377-0.92
		c-1.629,0.484-3.041,0.594-4.762,0.159c-6.603-1.669-7.385-0.973-7.13,5.594C163.046,118.6,163.179,119.081,163.326,119.974z
		 M489.938,94.032c-2.172,0.107-3.671,0.292-5.16,0.231c-2.409-0.1-2.618,1.439-2.717,3.239c-0.123,2.251,1.208,2.211,2.873,2.119
		c3.475-0.19,6.959-0.277,10.438-0.276c1.631,0,2.469-0.529,2.597-2.232c0.13-1.725-0.607-2.366-2.265-2.467
		C493.56,94.517,491.425,94.197,489.938,94.032z M460.484,112.906c-1.507,4.956-0.023,6.737,4.54,6.193
		c1.756-0.209,3.604,0.225,5.395,0.481c1.789,0.256,3.555,1.002,3.97-1.915c0.438-3.08-1.503-2.749-3.315-2.633
		C467.415,115.27,463.915,114.703,460.484,112.906z M192.719,608.487c-0.053-8.724,2.129-17.469-0.298-26.233
		C190.384,587.854,190.412,598.288,192.719,608.487z M433.729,339.594c-4.252,4.604-6.283,19.712-3.318,24.679
		C428.624,355.865,433.498,348.462,433.729,339.594z M436.494,354.957c-1.456,0.648-4.327-1.347-4.428,2.133
		c-0.074,2.57,1.489,4.197,4.008,3.969c2.446-0.223,5.524-1.236,5.61-3.857C441.786,354.104,438.562,355.267,436.494,354.957z
		 M185.369,308.796c-0.66,13.229,2.282,24.76,3.331,36.479C189.292,333.376,186.805,321.766,185.369,308.796z M446.067,388.374
		c-0.374,7.61-2.108,15.108-1.558,22.695C444.577,403.447,449.348,396.103,446.067,388.374z M184.237,332.182
		c0,5.365,0,10.731,0,16.098c0.458-0.003,0.917-0.005,1.375-0.008C187.624,342.895,184.836,337.511,184.237,332.182z
		 M426.489,439.953c-0.625,8.271-0.446,15.364,0.047,23.571C426.857,455.313,427.192,448.218,426.489,439.953z M412.788,648.791
		c-0.179-0.019-0.358-0.037-0.538-0.056c0,5.294,0,10.588,0,15.882c0.18-0.001,0.359-0.002,0.538-0.003
		C412.788,659.34,412.788,654.065,412.788,648.791z"/>
</g>
</svg>
