<?xml version="1.0" encoding="utf-8"?>
<!-- Generator: Adobe Illustrator 16.0.0, SVG Export Plug-In . SVG Version: 6.00 Build 0)  -->
<!DOCTYPE svg PUBLIC "-//W3C//DTD SVG 1.1//EN" "http://www.w3.org/Graphics/SVG/1.1/DTD/svg11.dtd">
<svg version="1.1" id="g-6pP8C4kLz4ZoBOvpmeTyONGrByCiEdC7yE7x2qPyg_xA0_Image_1_"
	 xmlns="http://www.w3.org/2000/svg" xmlns:xlink="http://www.w3.org/1999/xlink" x="0px" y="0px" width="640px" height="960px"
	 viewBox="0 0 640 960" enable-background="new 0 0 640 960" xml:space="preserve">
<path fill-rule="evenodd" clip-rule="evenodd" d="M495.138,112.279c-0.052-4.678-1.841-5.661-6.073-5.075
	c-5.919,0.818-11.838,0.801-17.875,0.191c-7.249-0.733-14.778-1.095-21.92,0.048c-12.014,1.922-23.995,2.294-36.073,2.055
	c-2.081-0.041-3.235,0.12-2.687-2.967c0.599-3.361-0.956-6.231-5.435-4.786c-1.042,0.337-1.615,0.435-2.116-0.98
	c-1.692-4.782-4.669-2.284-7.903-1.795c-2.279,0.345-4.417-4.842-7.985-1.503c-0.365,0.341-0.721,0.692-1.068,1.052
	c-0.822,0.847-1.674,1.433-2.982,1.533c-3.448,0.264-6.164,2.466-7.404,5.221c-1.656,3.682-4.125,3.92-7.455,3.908
	c-35.832-0.118-71.665-0.134-107.497-0.185c-2.211-0.003-3.733-0.025-5.461-2.603c-2.31-3.445-7.732-3.43-11.05-6.339
	c-0.261-0.229-1.187-0.156-1.418,0.11c-2.25,2.593-4.812,0.117-6.462,0.399c-4.001,0.682-8.266,1.642-12.165,3.333
	c0,0.026,0.001,0.052,0.001,0.078c5.059,0.141,6.687,1.567,5.718,6.362c-0.751,3.719-0.354,7.512-1.369,11.149
	c0.001,0.003,0.003,0.006,0.004,0.009c0,0-0.001,0-0.002-0.001c1.947,2.209,3.884,4.331,7.346,3.579
	c0.647-0.141,1.478,0.832,2.227,0.836c2.424,0.013,3.405,5.554,6.745,1.758c1.86-2.115,3.53-4.344,3.414-7.721
	c3.949,2.841-1.919,7.121,2.725,9.821c-0.181-4.333,1.376-8.359-0.98-12.216c-1.287-2.106-1.099-4.092,0.262-6.003
	c2.189-3.072,4.102-2.788,5.836,0.536c2.781,5.329,3.339,10.975,2.965,16.84c-0.455,7.153-6.398,10.237-10.907,14.091
	c-2.958,2.528-3.797,4.957-4.271,8.664c-1.272,9.954-0.624,19.949-1.367,29.909c-0.552,7.396,0.271,14.935,0.949,22.367
	c0.653,7.151,0.562,14.186-0.116,21.355c-1.246,13.16,0.246,26.155,6.432,38.047c5.137,9.876,8.848,20.023,10.476,31.098
	c0.875,5.958,3.407,11.655,6.338,17.018c2.301,4.209,6.026,5.962,11.229,5.571c-2.623,6.23-6.78,10.851-10.662,15.718
	c-9.674,12.127-15.197,26.225-18.904,42.229c-2.517-8.213-4.757-15.453-6.955-22.707c-5.667-18.704-11.496-37.345-19.91-55.061
	c-4.025-8.476-5.839-17.746-5.951-26.851c-0.131-10.797-2.66-20.875-5.362-31.072c-3.5-13.204-0.566-26.139,1.453-39.18
	c1.924-12.427,7.746-23.709,9.813-36.08c1.776-10.626,5.098-21.09,0.885-31.918c-0.734-1.888-0.164-4.29-0.164-6.454
	c-0.002-6.968,0.1-7.031,6.456-4.176c-0.001-0.001-0.002-0.002-0.003-0.004c0-0.001,0-0.002,0.001-0.004
	c-3.094-5.431-4.406-11.302-4.35-17.512c-0.06-0.001-0.113-0.005-0.174-0.007c0.057-0.025,0.115-0.046,0.172-0.071
	c0-0.035-0.002-0.069-0.001-0.104c-2.647,0.737,0.897,5.406-3.441,5.229c-11.137-0.456-22.286-0.078-33.439-0.421
	c-7.926-0.244-15.317-4.123-23.308-2.586c-5.057,0.973-10.153,1.265-15.289,1.191c-3.143-0.045-6.279-0.259-9.387,0.705
	c-1.18,0.366-1.977,0.395-2.279,1.933c-1.269,6.451,0.121,8.292,6.418,9.902c5.419,1.386,11.523,2.254,12.568,9.702
	c0.824,5.873,1.916,11.715,3.084,17.531c1.091,5.433-0.863,10.136-3.246,14.715c-1.162,2.232,0.265,10.355,2.528,11.855
	c5.759,3.818,10.232,8.071,11.087,15.774c0.789,7.11,3.311,14.027,5.06,21.032c4.843,19.403,9.74,38.793,14.375,58.246
	c0.285,1.197,2.242,3.181,0.075,4.319c-4.176,2.195-3.292,5.969-2.791,9.209c1.786,11.545,3.795,23.062,6.056,34.522
	c0.716,3.633,2.616,6.513,7.419,4.479c2.415-1.022,3.807-0.193,4.721,2.943c6.104,20.943,12.569,41.781,18.99,62.632
	c0.451,1.464,1.378,3.079,0.088,4.141c-2.299,1.893-1.207,3.641-0.579,5.744c4.647,15.562,10.764,30.764,12.694,47.006
	c0.525,4.417,4.188,7.402,3.611,12.303c-2.353,19.996-1.16,40.164-2.834,60.263c-2.138,25.681-2.967,51.522-3.142,77.303
	c-0.338,49.803-0.458,99.604,1.635,149.405c1.027,24.44,1.792,48.944,1.364,73.446c-0.065,3.752-1.283,4.892-4.779,5.814
	c-13.389,3.536-24.865,9.704-30.624,23.488c-5.664,13.557-2.237,28.528,8.784,35.921c16.345,10.965,44.771,12.1,60.571-2.73
	c9.357-8.782,14.703-19.496,11.906-32.845c-2.713-12.951-11.898-19.735-23.562-23.824c-2.413-0.846-3.344-1.73-3.526-4.398
	c-0.964-14.12-0.999-28.274-1.727-42.405c-1.251-24.264-1.286-48.587-2.253-72.868c-0.896-22.485-0.685-44.979-1.182-67.465
	c-0.825-37.298-1.794-74.593-2.767-111.887c-0.433-16.614-1.023-33.225-1.543-49.882c0.317,0.235,0.713,0.374,0.822,0.633
	c5.506,13.165,8.806,26.817,8.697,41.152c-0.027,3.623-0.693,7.237-0.948,10.864c-0.65,9.277-1.438,18.552-1.782,27.843
	c-0.314,8.485-1.399,17.225,0.104,25.44c3.848,21.028,9.779,41.565,17.669,61.521c3.587,9.073,3.736,18.695,2.396,28.354
	c-1.166,8.402-1.389,16.823,0.204,25.235c2.338,12.348,6.948,24.001,10.892,35.854c1.854,5.574,3.9,11.402,2.108,16.933
	c-1.286,3.971-1.621,7.695-1.499,11.616c0.118,3.771-1.127,7.062-2.617,10.418c-3.355,7.556-9.312,13.688-11.771,21.713
	c-1.706,5.566-2.439,10.982,2.227,15.674c7.277,7.318,16.035,7.293,24.896,4.387c8.188-2.687,9.93-9.778,10.189-17.491
	c0.146-4.313,1.1-8.282,3.786-12.011c9.079-12.599,5.701-26.065,0.454-38.534c-2.013-4.783-3.586-9.055-3.188-13.938
	c0.55-6.74,1.682-13.432,2.514-20.15c1.559-12.582,4.061-25.131-0.409-37.715c-1.688-4.756-2.901-9.835,1.185-15.522
	c1.796,9.426,8.045,16.249,9.767,25.088c0.557,2.86,1.683,5.679,2.957,8.318c3.773,7.811,10.058,11.693,18.801,11.055
	c8.275-0.604,14.898-3.773,18.139-12.112c2.589-6.663,1.298-13.287,0.513-20.032c-0.786-6.747-5.282-12.732-3.576-20.002
	c1.65-7.036,2.795-14.191,4.137-21.3c6.371-33.745,15.021-66.97,22.969-100.355c0.354-1.489,0.486-3.956,2.359-3.918
	c5.01,0.1,4.903-3.775,5.486-6.738c2.599-13.197,4.946-26.445,7.385-39.675c0.687,0.809,0.833,1.592,0.91,2.381
	c1.857,18.932,1.182,37.968,1.462,56.919c0.542,36.649,1.83,73.298,1.362,109.967c-0.853,66.825,1.079,133.641,1.043,200.466
	c-0.002,3.893-0.58,5.987-4.989,6.608c-4.182,0.589-8.006,2.774-11.855,4.681c-7.085,3.51-12.448,12.511-10.306,22.031
	c1.832,8.143,7.116,13.259,13.977,17.086c7.782,4.343,16.467,5.787,25.136,6.636c13.39,1.312,26.483,0.052,38.074-7.678
	c10.231-6.823,13.021-16.777,6.771-25.942c-7.431-10.897-18.609-16.363-31.358-17.749c-5.445-0.592-6.706-2.521-6.562-7.28
	c0.585-19.494-1.517-38.942-1.026-58.447c0.306-12.159,0.188-24.334,0.026-36.498c-0.241-18.158-0.352-36.329-1.136-54.468
	c-0.938-21.728-2.533-43.426-3.832-65.137c-0.734-12.273-1.355-24.555-2.189-36.821c-1.192-17.557-2.67-35.096-3.769-52.658
	c-0.892-14.264-0.992-28.587-2.274-42.81c-0.585-6.476-0.833-12.961-1-19.409c-0.208-7.98-3.805-16.237,1.133-24.01
	c0.232-0.366,0.023-0.989,0.103-1.479c2.723-16.902,5.702-33.771,8.029-50.728c0.655-4.771,6.084-9.85,0.07-14.766
	c-0.202-0.166,0.04-0.941,0.151-1.414c4.532-19.158,9.188-38.289,13.5-57.496c0.729-3.249,2.18-3.021,4.446-2.523
	c4.528,0.995,7.246-0.551,7.68-4.999c1.188-12.208,2.097-24.443,3.119-36.668c0.204-2.439-0.171-4.962-2.312-6.178
	c-2.242-1.271-1.865-3.064-1.593-4.687c1.278-7.616,2.727-15.204,4.188-22.788c3.886-20.17,7.577-40.384,11.895-60.462
	c0.996-4.632-1.159-11.14,5.742-13.496c0.442-0.15,0.812-1.118,0.854-1.73c0.137-1.989,0.512-3.278,3.039-3.551
	c1.592-0.173,3.885-9.493,2.708-10.804c-5.563-6.197-4.819-13.288-3.014-20.47c0.712-2.832-0.155-6.282,2.011-8.458
	c5.272-5.294,11.494-10.193,18.638-11.455C494.661,118.584,495.189,116.864,495.138,112.279z M235.2,121.762
	c-0.106,0.985-0.332,2.032-1.603,2.149c-1.387,0.128-2.279-0.722-2.463-1.935c-0.873-5.732-0.275-11.481,0.289-17.183
	c0.198-1.999,2.39-3.571,4.263-3.237c1.576,0.281,2.975,2.087,2.387,4.328C236.23,111.013,235.78,116.397,235.2,121.762z
	 M238.67,125.431c-2.791-5.713-0.5-19.612,3.04-22.813c1.567-1.417,2.864-1.114,4.375-0.054c1.751,1.228,1.665,2.414,0.355,3.976
	C242.056,111.765,239.912,118.045,238.67,125.431z M246.947,120.057c-0.87,2.759-1.061,7.527-4.88,6.49
	c-2.433-0.661-0.84-5.074-0.349-7.937c0.764-4.45,3.599-7.707,5.868-11.261c1.598-2.503,4.04-1.797,6.917-0.371
	C246.593,108.689,248.473,115.22,246.947,120.057z M442.279,110.305c3.925-0.34,7.858-0.631,11.795-0.79
	c1.186-0.049,3.018-0.294,2.8,1.776c-0.193,1.838-0.081,4.219-2.699,4.524c-2.111,0.247-4.274,0.05-6.415,0.05
	c0,0.065,0,0.131,0,0.195c-1.811,0-3.62,0.007-5.431-0.002c-1.642-0.009-2.389-0.857-2.302-2.482
	C440.11,112.021,440.333,110.474,442.279,110.305z M410.961,111.849c8.646-0.007,17.291,0.034,25.937,0.092
	c0.88,0.006,1.723,0.426,1.704,1.417c-0.024,1.229-0.965,1.614-2.064,1.616c-4.327,0.007-8.654,0.003-12.98,0.003
	c-4.161,0.011-8.321,0.035-12.481-0.008c-0.903-0.009-2.062,0.2-2.054-1.371C409.029,112.237,409.933,111.85,410.961,111.849z
	 M403.956,107.023c-0.028-2.27,0.277-4.104,3.065-3.952c2.6,0.142,2.113,2.302,1.919,3.772c-0.62,4.673-1.742,9.204-5.549,12.6
	C404.463,115.279,404.009,111.131,403.956,107.023z M398.857,99.062c3.232-0.294,3.172,2.107,3.146,4.358
	c-0.023,2.159-0.005,4.318-0.005,6.975c-0.489,2.725,0.861,6.071-0.845,9.251c-0.672,1.253-1.2,2.521-2.755,2.38
	c-2.068-0.188-1.334-1.977-1.365-3.135c-0.131-4.929,0.206-9.803-1.852-14.608C394.1,101.751,395.756,99.345,398.857,99.062z
	 M388.422,98.367c1.411-0.847,3.505-0.89,3.948,1.343c1.202,6.054,4.499,11.669,3.677,18.165c-0.232,1.831-0.783,3.098-3.038,4.102
	c0.444-7.484-1.811-13.846-6.094-19.419C385.02,100.091,387.123,99.146,388.422,98.367z M380.582,102.323
	c1.338-0.876,3.575-1.042,4.972,0.787c3.821,5.007,6.271,10.444,5.479,16.965c-0.178,1.457-0.516,2.643-2.144,2.847
	c-1.563,0.196-2.506-0.612-2.856-2.123c-0.591-2.549-1.682-5.015-0.608-7.755c0.464-1.186,0.626-2.598,0.521-3.873
	c-0.195-2.367-1.051-4.59-3.562-5.359c-2.652-0.812-2.947,1.784-4.002,3.198c-0.876,1.174-1.664,2.413-2.49,3.623
	C375.321,106.684,377.74,104.185,380.582,102.323z M374.51,115.911c0.042-3.547,4.198-7.194,6.863-10.486
	c1.011-1.248,1.927,0.494,2.484,1.428c1.33,2.227,0.786,5.088-0.089,6.697c-2.194,4.032-0.712,7.76-0.627,11.832
	c1.477-0.983,0.403-2.4,1.337-3.629c1.434,2.39,3.657,2.883,6.036,2.018c2.412-0.878,4.538-0.976,7.115-0.162
	c3.115,0.983,5.013-2.385,7.589-3.553c3.117-1.414,4.081-1.431,3.943,2.294c-0.142,3.812-0.051,7.73-1.396,11.25
	c-4.611,12.054-2.54,24.076-0.281,36.103c2.307,12.278,5.282,24.449,7.109,36.793c1.341,9.054-0.695,18.156-2.207,27.126
	c-1.894,11.235-4.493,22.405-4.302,33.854c0.154,9.264-1.288,18.125-4.922,26.577c-4.331,10.072-7.115,20.58-7.805,31.433
	c-0.855,13.468-7.292,24.815-12.458,36.694c-1.365,3.141-2.776,6.262-4.414,9.949c-3.546-10.138-6.434-19.876-11.047-28.974
	c-4.666-9.201-12.125-16.48-17.451-25.731c8.997-1.013,13.495-7.262,14.755-14.657c2.848-16.716,7.844-32.767,12.702-48.912
	c1.128-3.745,1.521-7.854,1.476-11.785c-0.187-16.597,0.939-32.969,3.701-49.434c2.567-15.304,3.09-31.001,3.503-46.603
	c0.065-2.476-0.992-3.881-2.571-4.923C374.248,134.964,374.401,125.08,374.51,115.911z M258.126,112.732
	c0.118-2.511,2.303-1.312,3.501-1.318c18.142-0.081,36.285-0.057,54.427-0.057c0,0.163,0,0.326,0.001,0.489
	c18.143,0,36.286-0.018,54.43,0.041c1.128,0.004,3.147-0.891,3.209,1.093c0.056,1.776-1.72,2.047-3.349,2.084
	c-10.858,0.246-21.577,2.274-32.516,1.981c-20.618-0.552-41.266,0.648-61.872-0.52c-4.803-0.272-9.472-1.964-14.454-0.877
	C260.083,115.96,258.03,114.775,258.126,112.732z M266.827,307.523c-3.915-7.59-4.866-15.953-6.822-24.062
	c-1.552-6.433-4.069-12.432-7.225-18.274c-7.047-13.048-9.029-27.098-7.166-41.722c0.678-5.321,0.821-10.702,0.197-15.948
	c-2.328-19.594-0.863-39.133,0.133-58.696c0.104-2.056,1.265-2.965,2.602-3.896c7.572-5.282,12.847-11.904,12.268-21.707
	c-0.231-3.92,1.811-4.044,4.854-4.022c17.154,0.118,34.309,0.057,51.463,0.057c0-0.084,0-0.168-0.001-0.252
	c16.994,0,33.988,0.113,50.979-0.087c3.82-0.045,5.583,0.831,4.905,4.871c-0.906,5.399,0.965,10.434,4.976,13.399
	c7.048,5.211,6.426,12.1,5.883,19.184c-0.848,11.078-1.761,22.155-2.923,33.203c-0.725,6.879-1.643,13.771-3.059,20.534
	c-1.319,6.304-1.065,12.61-0.799,18.877c0.607,14.262-1.506,27.936-6.79,41.225c-4.025,10.124-4.787,21.082-7.321,31.591
	c-2.98,12.364-11.725,16.427-23.266,11.327c-2.617-1.156-3.814-2.622-3.777-5.602c0.103-8.264-0.359-16.55,2.053-24.618
	c0.223-0.745,0.011-2.057,1.147-1.72c3.878,1.152,4.411-1.837,5.333-4.174c1.939-4.92,5.245-11.656,1.385-14.878
	c-6.009-5.016-2.716-10.573-3.626-15.685c-2.433-13.655-12.33-24.566-25.935-26.28c-9.494-1.196-20.437,4.422-27.32,15.753
	c-3.572,5.88-3.631,12.111-3.035,18.609c0.232,2.526,1.109,5.369-3.442,5.991c-2.177,0.298-2.941,3.919-2.397,6.435
	c0.828,3.83,2.057,7.579,3.25,11.32c0.287,0.897,0.96,2.145,1.7,2.35c6.859,1.9,5.161,7.83,5.868,12.479
	c0.446,2.934,0.081,5.985,0.149,8.983c0.205,9.051-2.896,12.41-11.976,12.91C271.925,315.393,270.27,314.198,266.827,307.523z
	 M288.14,277.097c0.025,0.791,0.005,1.583,0.005,2.534c-3.47-2.186-7.139-12.362-5.75-15.584c0.303-0.702,0.828-1.643,1.433-1.809
	c1.114-0.306,1.596,0.82,2.184,1.623c1.528,2.088,0.392,4.839,1.601,7.069c2.127-0.639,1.501-2.32,1.308-3.332
	c-1.102-5.762-0.502-11.613-1.075-17.373c-1.201-12.067,5.885-19.312,14.783-24.945c8.943-5.662,18.257-3.979,26.257,2.29
	c8.363,6.552,12.739,15.203,11.269,26.345c-0.589,4.462-0.097,9.067-0.097,13.861c0.539-0.391,0.804-0.507,0.96-0.708
	c1.169-1.503,0.432-5.201,2.661-4.688c2.729,0.629,1.389,4.063,1.172,6.099c-0.307,2.881-1.461,5.694-2.451,8.466
	c-0.314,0.88-0.388,2.656-2.183,1.953c-1.512-0.593-1.211-1.76-0.591-2.887c0.435-0.789-0.1-1.2-1.666-2.581
	c-1.437,14.924-6.437,26.36-23.467,26.611c-16.928,0.249-23.122-10.142-24.636-24.867
	C288.006,275.407,288.113,276.263,288.14,277.097z M293.605,309.609c-0.521-5.27-0.756-10.533-0.449-16.674
	c11.981,12.177,27.59,12.147,40.844,1.249c0,5.041,0.169,9.61-0.061,14.161c-0.149,2.972,0.385,4.991,3.588,5.945
	c2.863,0.854,2.769,2.722,1.685,5.365c-6.121,14.935-21.513,20.575-37.478,13.666c-6.901-2.986-11.631-7.561-13.909-15.006
	c-1.14-3.727,0.98-5.194,3.108-5.104C294.479,313.363,293.787,311.44,293.605,309.609z M254.66,359.798
	c4.084-11.877,10.648-22.318,18.838-31.773c2.403-2.774,4.166-5.951,5.833-9.177c0.941-1.821,2.403-2.73,4.331-2.793
	c2.546-0.082,1.965,2.096,2.443,3.571c3.739,11.543,12.727,16.754,24.799,18.229c14.851,1.815,25.377-4.991,30.802-18.583
	c1.219-3.056,4.051-3.506,6.319-0.79c14.605,17.481,25.348,37.16,29.541,59.534c1.542,8.228-1.375,17.307-4.007,25.655
	c-6.806,21.593-10.944,43.565-9.499,66.299c0.522,8.227,2.213,16.296,5.376,23.988c0.538,1.309,1.623,2.476,1.221,4.74
	c-3.625-6.19-8.74-9.828-14.74-12.448c-10.101-4.412-18.968-2.753-26.645,5.133c-3.944,4.052-7.699,8.366-10.104,13.461
	c-1.633,3.458-3.739,4.142-7.26,4.263c-11.185,0.388-22.276-1.397-33.433-1.06c-2.51,0.076-3.562-1.153-4.355-3.171
	c-3.547-9.026-7.061-18.066-10.735-27.041c-1.214-2.966-0.684-5.965-0.279-8.787c2.309-16.083-0.844-31.567-4.553-47.039
	c-2.908-12.13-5.951-24.237-8.452-36.454C248.251,376.519,251.792,368.138,254.66,359.798z M358.044,563.996
	c-1.757,7.89-4.133,15.596-7.571,22.876c-4.536,9.604-7.781,19.477-8.508,30.13c-0.248,3.637-3.309,5.053-6.104,5.661
	c-3.659,0.796-7.492,0.867-11.081-1.148c-4.948-2.779-5.729-4.597-3.928-10.097c2.415-7.375,0.91-14.672-0.328-22.031
	c-1.886-11.21-5.057-22.26-4.526-33.796c0.075-1.647,0.621-3.362,0.608-4.845c-0.032-3.659,3.962-6.135,0.128-11.425
	c-4.6-6.344-4.371-15.702-0.775-23.794c4.543-10.222,10.063-19.676,19.366-26.487c4.552-3.332,9.539-3.845,14.584-2.699
	c12.732,2.891,22.186,13.118,23.736,26.075c0.621,5.188-1.064,10.425-2.631,15.479c-2.282,7.36-4.95,14.561-8.652,22.027
	c-0.7-3.029,0.258-5.904-2.979-8.328C360.646,549.644,359.639,556.833,358.044,563.996z M312.072,551.836
	c1.444,7.224,0.393,14.602,1.697,21.84c0.922,5.115-0.399,10.257-0.663,15.389c-0.384,7.466-0.174,14.967-0.083,22.45
	c0.063,5.269-2.06,9.512-5.752,13.673c-5.002-11.515-8.643-23.086-12.093-34.713c-7.416-24.993-14.69-50.029-22.131-75.015
	c-1.206-4.048-0.035-5.555,4.12-5.529c12.625,0.077,25.182,1.857,38.603,0.901c-5.883,11.502-4.402,22.327-0.046,33.087
	c0.625,1.543,0.129,2.927-0.629,4.262c-0.201,0.354-0.454,0.939-0.716,0.957C311.95,549.307,311.576,549.352,312.072,551.836z
	 M316.668,579.977c-0.274,9.343,8.545,19.054-1.842,28.344C315.056,598.618,314.412,589.238,316.668,579.977z M194.181,111.79
	c8.661,0.125,17.327-0.018,25.99,0.026c1.354,0.007,3.523-0.608,3.617,1.511c0.127,2.877-2.421,1.586-3.739,1.607
	c-7.996,0.131-15.996,0.039-23.994,0.088c-1.593,0.01-3.39-0.583-4.697,1.15C190.204,112.794,191.125,111.745,194.181,111.79z
	 M173.628,112.991c0.275-1.358-0.165-3.205,2.242-3.014c1.654,0.132,3.316,0.159,4.975,0.233c0.001-0.049,0.001-0.098,0.002-0.147
	c1.825,0,3.652,0.055,5.475-0.014c2.241-0.083,2.757,1.076,2.723,3.097c-0.033,1.938-0.359,2.566-2.66,2.911
	c-4.142,0.622-7.85-1.272-11.823-1.11C172.834,115.018,173.446,113.889,173.628,112.991z M157.13,109.849
	c0.467-1.563,5.302-1.435,6.092,0.186c0.564,1.158,1.199,1.129,1.604,0.324c0.688-1.366,1.969-1.631,3.081-2.299
	c3.335-2.002,4.521-0.932,4.025,2.835c1.268,4.566-2.984,2.29-4.467,2.961c-2.561,1.157-5.805-0.395-8.626,0.98
	c-0.599,0.292-1.541,0.114-1.642-0.587C156.987,112.796,156.728,111.197,157.13,109.849z M153.337,115.604
	c-4.417,1.407-8.899,0.383-13.333,0.181c-1.583-0.072-1.491-1.997-1.377-3.274c0.133-1.495,0.425-3.068,2.501-3.071
	c1.988-0.003,3.977-0.001,5.965-0.001c0-0.033,0-0.066-0.001-0.1c1.665,0,3.33-0.018,4.995,0.005
	c1.683,0.023,2.936,0.531,2.908,2.562C154.974,113.398,155.257,114.992,153.337,115.604z M154.926,118.161
	c7.158-2.496,14.082-2.91,21.087-0.146c-1.908-0.087-3.83-0.349-5.722-0.211c-1.839,0.135-4.007-0.564-5.781,1.966
	c3.462-0.394,5.354,3.708,8.993,1.602c-2.392,2.221-8.287,4.453-10.23,4.455C158.132,125.832,159.21,119.142,154.926,118.161z
	 M162.532,154.613c-2.223-2.169-1.836-7.069-2.485-10.778c-0.48-2.747-0.663-5.548-1.164-8.291c-0.467-2.558-1.179-5.071-1.837-7.83
	c3.392,0.151,6.502,0.979,9.206,0.266c5.447-1.438,6.167,1.437,7.023,5.639c1.007,4.948,2.869,9.724,4.374,14.569
	c0.942,3.033,0.228,4.896-3.325,4.822c-0.33-0.007-0.662,0.03-0.99,0.069C169.604,153.517,165.335,157.349,162.532,154.613z
	 M200.103,269.944c-8.31,2.29-8.309,2.422-10.416-6.102c-7.955-32.17-15.885-64.346-23.833-96.518
	c-0.119-0.48-0.346-0.933-0.523-1.398c-0.633-1.817,0.732-1.83,1.859-2.059c3.884-0.79,7.777-1.534,11.647-2.386
	c2.669-0.587,1.988,1.507,2.277,2.753c2.976,12.802,5.978,25.598,8.861,38.42c4.577,20.359,8.971,40.761,13.686,61.088
	C204.517,267.435,203.647,268.968,200.103,269.944z M229.718,388.597c-2.564,0.732-4.199,0.269-4.507-2.653
	c-0.257-2.436-1.371-4.754-0.434-7.348c0.791-2.188-0.066-4.592-1.34-6.153c-6.757-8.287-7.625-18.837-11.189-28.328
	c-1.966-5.238-3.777-10.694-4.481-16.203c-0.752-5.887,7.023-8.029,7.873-13.913c5.24,22.146,10.482,44.29,15.713,66.437
	c0.303,1.285,0.208,2.757,0.814,3.858C233.806,387.274,232.067,387.926,229.718,388.597z M263.419,836.763
	c5.075,3.475,8.034,7.751,7.722,12.759c-0.07,11.815-6.343,18.559-14.695,23.129c-10.542,5.77-22.051,6.712-33.495,2.716
	c-15.428-5.388-18.941-20.233-7.671-32.057c5.095-5.345,11.429-9.368,18.688-10.488c5.205-0.803,10.724,0.682,16.103,0.683
	C254.856,833.505,259.25,833.908,263.419,836.763z M252.464,828.462c-4.88-3.223-9.295-3.699-14.221-0.062
	c0-10.981,0.015-21.669-0.018-32.355c-0.004-1.477,0.65-1.355,1.828-1.324c1.931,0.053,3.876-0.689,5.893,0.031
	c-0.222,1.697-2.929,2.308-1.966,4.212c0.902,1.785,2.981,1.047,4.522,1.411c2.578,0.608,2.025-1.963,2.792-3.26
	C252.922,807.442,253.324,817.652,252.464,828.462z M247.871,651.302c0.645,22.974,0.495,45.971,1.133,68.944
	c0.601,21.626,1.805,43.235,2.633,64.856c0.087,2.277,1.423,6.038-1.118,6.568c-3.754,0.783-7.904-0.239-11.861-0.7
	c-0.287-0.033-0.522-1.75-0.538-2.688c-0.409-25.973-1.376-51.935-2.175-77.892c-1.067-34.657-0.17-69.305-0.62-103.95
	c-0.024-0.658-0.035-1.624-0.036-2.849c-0.016-1.038-0.02-2.076-0.039-3.114c-0.041-2.31-0.005-4.621-0.005-7.705
	c0.056,0.023,0.111,0.047,0.167,0.07C235.75,573.56,236.667,542,236.667,542c2.333-14,4-85.667,4-85.667l0.216,0.554
	c0.125-1.726,0.569-3.735,1.356-6.127c1.966,5.037,1.632,9.048,1.233,13.248c-0.156-0.14-0.301-0.285-0.444-0.432l1.706,73.526
	C246.452,575.154,246.802,613.236,247.871,651.302z M254.357,445.589c-0.272-6.163-4.089-12.37-5.761-18.742
	c-3.21-12.232-6.402-24.47-9.591-36.707c-0.125-0.478,0.021-1.308-0.227-1.429c-7.513-3.681-5.904-11.579-7.473-17.566
	c-6.861-26.185-12.926-52.577-19.166-78.922c-0.424-1.79-0.407-3.743-0.337-5.707c0.229-6.444,0.029-12.701-5.229-17.994
	c-2.061-2.074-1.779-6.493-2.527-9.853c-5.889-26.424-11.787-52.845-17.622-79.279c-0.487-2.208-1.952-4.976,2.01-5.83
	c0.494-0.107,1.285-1.225,1.162-1.452c-1.941-3.568,1.736-6.409,1.044-10.087c-0.885-4.702-3.177-9.069-6.548-10.947
	c-9.034-5.033-6.975-14.426-9.943-21.749c-0.975-2.405,0.693-4.121,3.585-5.772c9.825-5.606,20.274-3.381,30.528-3.801
	c0.995-0.041,1.996,0.099,2.995,0.116c2.98,0.053,6.661-0.957,8.736,0.435c1.919,1.287-0.462,5.084,0.031,7.792
	c0.296,1.625,0.497,3.286,0.982,4.855c3.711,11.984-0.307,23.434-2.643,34.906c-2.487,12.21-7.396,23.747-9.682,36.138
	c-2.945,15.963-3.24,31.485,2.456,46.682c2.858,7.629,1.766,15.456,2.499,23.126c1.271,13.306,6.542,25.034,11.34,37.128
	c10.13,25.529,18.25,51.701,24.06,78.584c3.296,15.248,7.499,30.313,10.383,45.633c2.102,11.168,4.124,22.569,1.046,33.979
	C258.028,461.303,254.733,454.094,254.357,445.589z M267.174,627.746c-5.15-16.09-9.888-32.303-12.967-48.925
	c-0.745-4.02-0.111-8.295-0.111-12.453c0.574-17.062,1.204-34.126,2.93-51.124c0.149-1.469,0.183-3.244,2.287-3.188
	c2.182,0.059,2.199,2.036,2.707,3.536c9.666,28.559,19.326,57.118,29.013,85.669c3,8.845,5.955,17.708,9.193,26.467
	c0.866,2.344,0.539,2.886-1.802,3.623c-8.841,2.785-17.587,3.917-26.648,0.839C269.274,631.34,267.916,630.063,267.174,627.746z
	 M308.334,781.316c-2.831,3.245-3.08,7.573-3.321,11.717c-0.372,6.409-0.962,12.988-7.953,15.657
	c-7.878,3.007-15.916,3.097-22.875-2.606c-4.782-3.919-4.447-9.249-2.684-14.499c0.934-2.78,2.099-5.598,3.737-8.006
	c6.689-9.835,13.019-19.721,10.455-32.775c13.117,6.001,22.873,6.149,25.24-5.031C312.686,757.772,318.252,769.948,308.334,781.316z
	 M306.746,661.107c-0.822,3.055-3.083,5.733-2.575,9.153c2.24,0.157,1.403-2.091,2.579-2.8c0.347,0.31,0.893,0.557,1.007,0.934
	c4.186,13.798,2.604,27.534,0.589,41.546c-1.696,11.797-4.637,23.83-0.49,35.899c1.155,3.361-2.604,6.852-7.004,7.144
	c-3.715,0.247-7.078-1.339-10.541-2.287c-1.493-0.409-2.353-2.051-2.232-3.59c1.054-13.359-5.512-24.857-9.284-36.956
	c-4.449-14.271-6.203-28.333-4.088-43.304c1.532-10.848,1.862-22.228-4.805-32.492c10.217,2.875,19.578,2.141,28.845-1.054
	c2.247-0.773,3.549-0.481,4.417,2.131c1.549,4.664,3.581,9.168,5.398,13.744C310.277,653.496,307.796,657.21,306.746,661.107z
	 M311.776,635.609c-4.021-5.424-4.033-7.287,0-12.423C311.776,627.582,311.776,631.435,311.776,635.609z M318.099,655.25
	c-1.698-4.598-3.396-9.196-5.343-14.465C317.265,644.172,319.115,648.982,318.099,655.25z M360.686,677.772
	c0.345,9.222-2.401,16.999-14.582,19.906c-9.109,2.174-17.223-1.964-20.979-11.396c-3.272-8.217-4.587-16.886-4.099-25.742
	c0.44-8.005-0.652-15.462-5.966-21.939c-2.446-2.981-1.118-6.794-0.944-10.135c0.396-7.63,0.379-15.484,5.445-21.95
	c-0.037,4.552-3.751,8.853-0.21,13.302c2.37,2.979,5.638,4.66,9.338,5.123c7.207,0.901,15.724-1.5,15.62-9.364
	c1.281,0.545,1.613,1.625,1.362,2.791c-2.2,10.224,0.957,19.339,5.991,27.946C357.366,656.065,360.274,666.761,360.686,677.772z
	 M352.545,643.566c-4.376-7.784-6.236-15.226-5.329-23.312c0.146-1.295,1.22-2.761,0.319-3.847
	c-5.909-7.136-0.822-13.962,1.23-20.281c2.619-8.063,6.796-15.656,9.229-23.871c0.659-2.225,2.742-2.708,4.161-4.008
	c3.785-3.466,7.385-7.116,10.698-12.039C367.669,585.938,359.454,614.097,352.545,643.566z M360.109,566.856
	c-0.529-9.603,4.797-16.948,8.011-24.942c3.384-8.416,6.056-16.973,7.621-25.903c0.681-3.879-1.227-7.347-1.505-11.242
	C384.369,518.24,376.338,553.575,360.109,566.856z M398.346,415.057c-2.477,11.185-6.006,22.377-6.962,33.638
	c-1.604,18.904-9.641,36.039-12.618,54.449c-0.098,0.602-0.647,1.13-1.226,2.088c-5.594-8.807-9.139-18.016-10.539-28.051
	c-3.413-24.45,0.862-48.05,7.992-71.31c2.717-8.865,3.937-17.987,4.978-27.14c0.721-6.328,2.716-12.214,5.604-17.814
	c6.064-11.758,11.411-23.852,12.161-37.21c0.644-11.462,4.742-21.817,8.521-32.333c2.543-7.075,3.886-14.268,3.789-21.817
	c-0.148-11.627,1.751-23.082,4.123-34.397c3.531-16.843,2.662-33.313-1.484-49.986c-3.173-12.763-5.82-25.737-5.744-39.074
	c0.038-6.569,3.033-12.47,3.613-18.881c0.234-2.601-0.297-6.299,1.169-7.521c2.279-1.901,6.049-0.708,9.166-0.646
	c6.777,0.133,13.534-0.282,20.351,0.726c3.912,0.577,6.372,3.267,9.793,4.273c1.069,0.314,0.881,1.121,0.662,1.995
	c-1.686,6.709-2.929,13.503-3.702,20.378c-0.149,1.326-0.738,2.44-2.008,2.46c-6.159,0.092-6.388,6.031-8.672,9.446
	c-1.612,2.409-2.364,5.938,0.92,9.974c2.398,2.946,4.141,8.55,2.979,14.179c-3.093,14.976-5.096,30.175-7.587,45.276
	c-2.168,13.142-4.493,26.259-6.562,39.416c-0.517,3.284-0.896,6.054-3.849,8.527c-2.233,1.871-2.525,5.672-2.164,8.805
	c0.976,8.472-1.029,16.618-2.459,24.814c-3.106,17.81-6.403,35.585-9.58,53.382c-1.125,6.306-0.675,13.393-3.492,18.793
	C399.927,392.214,400.811,403.926,398.346,415.057z M447.568,871.653c6.111,4.288,6.019,9.242-0.566,12.885
	c-6.437,3.56-13.576,3.763-20.299,4.593c-10.919-0.73-21.268-2.451-30.952-7.067c-2.88-1.372-6.338-2.965-6.417-6.313
	c-0.082-3.51,3.168-5.609,6.171-7.188c8.247-4.334,17.354-4.412,26.205-4.161C430.74,864.657,439.745,866.164,447.568,871.653z
	 M421.52,832.149c0.399,6.455,0.938,12.909,0.952,19.364c0.006,2.455,1.201,8.028-5.092,4.302c-1.356-0.804-4.152-0.52-5.614,0.033
	c-4.697,1.777-4.679-0.821-4.643-4.014c0.046-4.151,0.104-8.307-0.004-12.456c-0.07-2.696,0.244-4.556,3.721-3.563
	c1.234,0.353,2.651,0.004,3.969,0.138C418.508,836.331,421.347,835.79,421.52,832.149c-0.04-0.648-0.08-1.297-0.117-1.945
	C421.514,830.938,421.547,831.578,421.52,832.149z M407.642,825.143c0.683,1.861,4.638,0.889,3.568,3.935
	c-0.415,1.184-1.849,1.977-2.814,1.422C406.219,829.249,407.938,826.966,407.642,825.143z M409.615,822.835
	c3.229-1.421,6.343-0.651,9.346-0.627c1.875,0.016,2.079,1.489,1.578,2.871c-0.641,1.765,0.475,4.385-1.958,5.205
	c-1.332,0.449-2.192-0.957-1.796-2.206c0.369-1.165,1.35-2.137,2.475-3.808C415.577,824.087,412.496,825.655,409.615,822.835z
	 M410.5,539.25c0,0,1.825,29.042,3.508,57.711c0.154,0.967,0.22,1.949,0.174,2.955c1.188,20.336,2.27,39.969,2.539,48.34
	c0.002,0.039,0.003,0.078,0.005,0.117c0.729,11.953,1.413,23.908,2.101,35.862c2.526,43.922,1.701,87.9,2.358,131.854
	c0.053,3.506-0.65,4.461-4.271,4.326c-9.893-0.369-9.726-0.176-9.909-9.827c-1.083-56.753-0.952-113.51-0.919-170.268L406,640.25
	c0,0,0.25-50-1-59.5l0.136-7.176c-0.114-8.934,0.045-17.871,0.162-26.81c-0.195-7.345-0.485-18.619-0.656-27.004
	c-0.615-20.104-1.931-40.127-1.29-59.725l1.148-0.536C404.5,459.5,410.5,512.75,410.5,539.25z M428.565,332.521
	c-1.722,10.14-4.009,20.181-7.574,29.814c-1.879,5.076-0.428,10.565-2.815,15.45c-0.568,1.164-0.688,2.544-1.039,3.817
	c-1.305,4.739-4.256,6.047-8.777,4.055c-1.617-0.712-1.047-1.796-0.854-2.896c4.263-24.253,8.526-48.507,12.858-73.152
	c1.053,2.142,0.619,3.934,0.359,5.688c-0.961,6.467,1.992,11.078,7.11,14.449C429.244,330.678,428.703,331.712,428.565,332.521z
	 M461.76,165.794c-3.12,16.305-6.263,32.604-9.354,48.914c-3.498,18.457-6.923,36.928-10.462,55.377
	c-0.38,1.983-0.277,5.552-2.003,5.511c-3.841-0.091-8.006-0.104-11.521-2.165c-0.953-0.559-0.333-2.146-0.147-3.289
	c3.26-19.997,6.334-40.025,9.804-59.985c2.654-15.265,4.948-30.574,7.017-45.925c0.354-2.633,1.066-4.729,4.789-3.518
	c2.956,0.962,6.21,1.096,9.351,1.376C461.753,162.314,462.238,163.714,461.76,165.794z M467.964,134.098
	c-1.023,5.837-2.137,11.657-3.257,17.476c-0.448,2.324-2.062,2.764-3.867,2.358c-12.485-0.854-12.521-0.858-10.799-12.736
	c0.589-4.062,1.331-8.106,2.14-12.132c0.468-2.331,1.828-3.548,3.855-1.473c2.66,2.724,5.835,3.65,9.446,3.388
	C467.994,130.796,468.279,132.295,467.964,134.098z M469.026,127.706c-4.062,2.121-7.92,0.802-11.887-0.664
	c0.851-1.739,3.169-0.5,3.737-2.732c-3.224-0.451-6.527-0.865-9.698-2.961c4.613-3.731,9.534-4.486,15.51-4.109
	c-1.553,2.197-4.165,0.903-4.467,3.699c3.231-0.046,6.127,0.087,7.72,4.003C470.755,126.943,470.045,127.175,469.026,127.706z
	 M473.253,115.78c-4.786,0.923-9.445-1.666-14.284-0.509c-0.851,0.203-1.009-1.1-0.912-1.941c0.162-1.412,0.709-2.7,2.28-2.805
	c2.284-0.152,4.586-0.039,6.88-0.039c0-0.131,0-0.263,0-0.394c1.817,0,3.638-0.068,5.45,0.021c1.585,0.078,3.053,0.628,3.114,2.499
	C475.835,114.248,474.992,115.445,473.253,115.78z M490.602,115.13c-3.264,0.064-6.523,0.337-9.782,0.555
	c-1.751,0.116-3.484,0.195-3.379-2.298c0.083-1.971,0.579-3.62,3.172-3.352c1.312,0.137,2.648,0.024,3.974,0.024
	c0.006-0.086,0.012-0.171,0.017-0.256c2.128,0.209,4.262,0.623,6.383,0.569c2.101-0.054,1.935,1.19,2.019,2.545
	C493.114,114.707,492.227,115.098,490.602,115.13z"/>
</svg>
