<?xml version="1.0" encoding="utf-8"?>
<!-- Generator: Adobe Illustrator 16.0.0, SVG Export Plug-In . SVG Version: 6.00 Build 0)  -->
<!DOCTYPE svg PUBLIC "-//W3C//DTD SVG 1.1//EN" "http://www.w3.org/Graphics/SVG/1.1/DTD/svg11.dtd">
<svg version="1.1" id="V27yfK43MrAM-Om7QgEGn_x5F_3a_x5F_ZH36nE_x5F_uG1M5znb_x5F_y0_xA0_Image_1_"
	 xmlns="http://www.w3.org/2000/svg" xmlns:xlink="http://www.w3.org/1999/xlink" x="0px" y="0px" width="640px" height="960px"
	 viewBox="0 0 640 960" enable-background="new 0 0 640 960" xml:space="preserve">
<path fill-rule="evenodd" clip-rule="evenodd" d="M541.467,906.434c-11.533-8.164-24.883-10.171-38.422-11.306
	c-2.98-0.25-4.196-1.078-5.13-3.867c-3.281-9.803-6.78-19.537-10.403-29.221c-6.271-16.763-13.186-33.378-16.364-51.053
	c-4.486-24.945-7.973-50.069-12.28-75.049c-4.309-24.984-10.275-49.639-11.14-75.222c-0.602-17.782-4.741-35.316-5.912-53.16
	c-1.392-21.199-3.413-42.35-3.901-63.613c-0.206-8.937-1.142-17.876-2.116-26.773c-1.605-14.655-3.311-29.303-3.755-44.048
	c-0.276-9.158,0.335-18.361-0.271-27.489c-1.88-28.318-0.506-56.612,0.441-84.896c0.204-6.113-0.104-12.665,2.894-18.468
	c5.302-10.262,5.404-21.772,7.768-32.718c2.657-12.304,6.177-24.449,7.105-37.525c1.962,1.195,3.333,2.12,4.782,2.896
	c3.713,1.989,5.075,1.21,5.232-2.982c0.539-14.46,1.066-28.92,1.568-43.382c0.047-1.338-0.176-3.06-1.281-3.572
	c-3.101-1.439-2.545-4.049-2.217-6.345c0.885-6.194,1.243-12.451,2.66-18.588c4.835-20.945,10.118-41.819,13.885-62.96
	c1.19-6.68,6.075-10.607,7.748-16.483c0.097-0.341,1.147-0.392,1.741-0.611c5.297-1.964,6.691-9.883,2.286-13.457
	c-1.027-0.833-0.779-1.408-0.52-2.406c0.331-1.276,0.491-2.95-0.936-3.579c-2.87-1.264-2.049-3.386-1.523-5.401
	c0.664-2.548,1.26-5.09,1.771-7.681c1.027-5.211,1.145-11.178,7.231-13.732c4.993-2.096,8.485-7.104,14.151-7.676
	c7.495-0.756,7.312-0.565,7.472-8.078c0.087-4.039-1.424-5.181-5.271-5.06c-7.634,0.241-15.29,0.306-22.92,0.02
	c-12.975-0.487-25.82,1.761-38.693,1.884c-47.994,0.456-95.997,0.362-143.995,0.11c-41.619-0.218-83.253,1.168-124.855-0.983
	c-2.91-0.15-6.373,0.98-8.113-2.969c-0.622-1.411-2.099-1.112-3.465-0.409c-1.284,0.66-2.542,1.346-4.141,1.463
	c-8.261,0.608-16.513,1.28-24.81,0.969c-2.161-0.081-5.083,0.111-5.484,2.155c-0.615,3.128-1,6.607,0.389,9.766
	c0.244,0.555,1.459,1.056,2.157,0.977c3.742-0.424,7.044,0.975,10.495,2.028c4.313,1.316,6.798,3.647,7.854,8.303
	c1.282,5.651,1.262,11.47,2.756,17.044c1.317,4.914,0.104,10.653-2.355,13.458c-2.945,3.358-3.019,6.345-2.226,9.258
	c1.138,4.18,5.746,6.204,8.381,9.662c1.062,1.394,2.785,2.888,3.059,4.625c0.41,2.601,0.796,5.228,1.125,7.847
	c2.811,22.392,7.239,44.514,10.751,66.782c0.884,5.608,5.555,12.291-1.37,17.65c-0.451,0.349-0.283,1.587-0.287,2.412
	c-0.052,13.482-0.256,26.971,1.008,40.418c0.42,4.468,3.556,6.315,7.549,4.552c0.895-0.395,1.805-0.756,2.941-1.229
	c1.647,6.697,3.168,13.211,4.806,19.666c2.784,10.979-0.863,23.22,6.611,33.204c0.324,0.433,0.053,1.303,0.074,1.969
	c0.727,23.49-1.99,46.834-3.267,70.228c-1.057,19.384-3.577,38.731-3.552,58.142c0.024,19.136-1.002,38.146-3.246,57.104
	c-2.404,20.313-2.415,40.768-3.978,61.125c-0.811,10.561-0.884,21.373-3.375,31.562c-3.795,15.522-4.027,31.231-4.357,46.877
	c-0.386,18.301-3.492,36.296-4.467,54.511c-0.672,12.548-2.83,25.013-3.654,37.559c-0.837,12.727-2.501,25.338-4.3,37.928
	c-2.326,16.282-5.212,32.484-7.789,48.731c-3.02,19.042-8.205,37.516-14.516,55.692c-2.784,8.019-8.361,11.601-17.024,12.172
	c-10.066,0.664-19.875,3.38-28.564,8.882c-8.435,5.342-9.345,14.726-2.554,21.967c4.288,4.573,9.791,6.682,15.609,7.893
	c15.78,3.283,31.681,5.378,47.833,3.06c9.785-1.404,19.616-2.854,28.594-7.225c5.682-2.766,10.011-7.096,10.575-13.905
	c0.513-6.195-2.818-10.251-7.854-13.271c-6.43-3.855-13.436-5.975-20.759-7.346c-6.195-1.159-6.083-1.467-4.698-7.774
	c1.915-8.721,6.349-16.568,8.361-25.245c4.435-19.128,8.057-38.33,9.152-58.033c1.039-18.688,3.412-37.3,4.734-55.978
	c1.045-14.766,1.8-29.576,1.95-44.374c0.261-25.815,2.495-51.567,2.163-77.394c-0.028-2.16,0.141-4.326,0.268-6.486
	c0.898-15.257,2.285-30.504,2.602-45.773c0.445-21.456-0.44-42.998,2.277-64.312c2.853-22.381,5.589-44.697,4.932-67.324
	c-0.128-4.407,0.667-8.912,1.562-13.264c2.478-12.049,6.96-23.61,8.88-35.804c0.571-3.624,0.245-7.676,5.11-9.153
	c4.785,19.717,9.511,39.453,14.396,59.149c1.334,5.38,1.922,11.305,6.924,14.91c3.978,2.867,4.538,6.854,3.944,11.03
	c-0.969,6.813-2.197,13.607-3.7,20.323c-3.353,14.985-2.938,29.865,0.935,44.646c3.411,13.016,9.433,25.16,13.165,38.047
	c2.916,10.069,3.562,20.932,7.408,30.566c7.324,18.347,7.653,38.562,16.126,56.479c0.201,0.425,0.079,0.99,0.173,1.478
	c1.428,7.425,2.802,14.86,4.32,22.266c2.194,10.701,2.075,21.287-0.912,31.853c-2.611,9.238-8.641,17.009-11.288,26.134
	c-2.07,7.136-6.265,11.619-12.971,14.207c-1.52,0.587-2.894,1.542-4.384,2.219c-16.129,7.32-27.198,19.555-34.373,35.511
	c-5.295,11.776-2.116,19.486,6.693,27.938c6.361,6.104,14.729,6.814,22.89,7.91c7.147,0.96,14.2,2.277,21.72,4.912
	c-9.844,3.693-11.775,2.886-20.357,0.373c-6.553-1.919-13.343-2.95-19.397-6.355c-1.851-1.041-3.829-0.817-5.803-0.944
	c-4.496-0.291-8.963,1.137-13.325,0.78c-6.474-0.53-8.181-0.023-9.884,6.203c-0.863,3.156-1.667,6.406-1.858,9.651
	c-0.32,5.453-0.604,11.279,4.429,14.989c3.635,2.681,6.427,5.626,7.448,10.084c1.226,5.35,5.42,6.948,9.883,6.13
	c10.852-1.988,21.526-4.795,30.396-11.992c1.539-1.249,3.088-2.436,5.292-2.454c18.772-0.154,37.447-2.013,56.143-3.428
	c7.896-0.598,15.727-2.139,23.626-2.644c10.36-0.661,20.33-4.126,31.194-1.555c15.202,3.597,30.123,7.188,41.577,18.604
	c10.439,10.405,23.313,15.771,37.259,19.21c9.413,2.32,14.975-0.646,18.271-9.723c4.793-13.196,2.829-22.03-6.51-28.159
	c-3.417-2.242-7.24-3.682-11.241-4.769c-4.312-1.171-8.794-2.679-10.773-7.176c-1.434-3.256-4.07-4.065-6.948-4.605
	c-3.201-0.601-6.468-0.854-9.766-1.265c3.278-9.555,5.277-21.693,3.302-26.574c-7.775-19.217-15.89-38.23-35.995-48.426
	c-3.865-1.96-7.578-4.632-8.268-9.774c-0.953-7.107-4.028-13.461-7.29-19.796c-10.615-20.616-12.376-42.215-7.525-64.788
	c1.595-7.421,4.577-14.336,6.143-21.703c0.916-4.31-0.801-8.856,1.866-13.065c8.032-12.674,12.45-26.737,15.438-41.343
	c2.626-12.835,5.581-25.453,10.391-37.854c5.001-12.896,9.418-26.529,8.519-40.876c-0.682-10.871-3.516-21.432-5.312-32.143
	c-1.314-7.835-3.5-15.562,3.245-22.354c1.716-1.728,2.34-4.689,3.096-7.195c3.414-11.316,6.751-22.656,10.008-34.019
	c4.167-14.534,8.231-29.098,12.4-43.864c4.588,2.58,1.643,5.72,0.936,7.979c-8.434,26.938-7.99,54.505-6.166,82.173
	c1.132,17.168,2.408,34.326,4.828,51.379c1.531,10.787,2.88,21.6,4.259,32.407c1.943,15.229,3.828,30.465,5.759,45.695
	c1.409,11.125,2.785,22.255,4.297,33.366c1.537,11.296,3.464,22.535,3.74,33.98c0.216,8.979,0.612,17.959,1.225,26.919
	c1.131,16.557,2.426,33.102,3.757,49.644c0.743,9.237,1.519,18.478,2.596,27.68c1.651,14.1,3.537,28.172,5.397,42.246
	c1.49,11.282,2.359,22.711,4.812,33.785c3.843,17.36,10.773,33.817,16.642,50.575c2.126,6.071,1.858,6.415-4.484,7.113
	c-7.084,0.779-13.953,2.598-20.069,6.315c-4.448,2.703-8.149,6.174-8.18,12.132c-0.042,8.313,5.505,14.937,15.859,18.539
	c18.352,6.384,37.413,6.653,56.437,5.743c8.636-0.413,17.287-2.538,25.113-6.772C551.902,925.624,552.434,914.196,541.467,906.434z
	 M493.019,896.97c0,0.056,0,0.111,0,0.167c1.487,0,3.002,0.185,4.457-0.034c4.835-0.726,5.86,1.58,5.578,5.938
	c-0.223,3.438-0.695,5.183-4.795,4.324c-3.188-0.668-6.636-0.814-9.867-0.402c-6.332,0.806-4.119-3.969-4.651-6.748
	c-0.842-4.396,2.661-3.018,4.818-3.219C490.033,896.858,491.531,896.97,493.019,896.97z M431.031,339.586
	c1.062-10.854,2.022-20.687,2.996-30.642C441.91,313.296,440.858,324.479,431.031,339.586z M478.129,114.65
	c-1.689,11.262-5.304,22.056-7.619,33.167c-3.784,18.157-8.431,36.134-12.328,54.271c-1.345,6.256-1.538,12.759-2.28,19.352
	c-3.497-1.244-5.939-4.213-9.877-3.601c-1.857,0.289-1.105-1.698-1.014-2.646c0.686-7.085,1.279-14.188,2.281-21.231
	c2.112-14.855,4.297-29.704,6.754-44.506c2.103-12.666,4.686-25.251,6.907-37.898c0.401-2.282,1.522-2.638,3.428-2.439
	c3.473,0.362,6.959,0.598,10.426,0.999C477.455,110.424,478.607,111.457,478.129,114.65z M471.477,73.58
	c-0.001,0-0.003,0.001-0.004,0.002c-0.003,0.002-0.007,0.003-0.01,0.006c2.417,3.85,6.159,4.773,10.319,4.371
	c3.008-0.291,3.781,0.804,3.091,3.609c-1.377,5.594-2.614,11.222-3.925,16.832c-0.487,2.084-1.091,3.29-3.973,2.866
	c-4.065-0.599-8.285-0.151-12.788-0.151c1.841-8.849,4.2-17.031,4.914-25.503c0.145-1.722,1.558-1.387,2.361-2.024
	c-0.004-0.006-0.008-0.011-0.012-0.018C471.46,73.574,471.468,73.577,471.477,73.58c1.631-1.07,3.988-0.289,5.528-2.202
	c-3.74-0.796-7.459-1.203-10.809-3.286c6.386-4.728,8.113-5.002,23.503-3.561c-2.992,0.254-4.71,0.229-6.344,0.587
	c-1.638,0.358-3.588,0.227-4.973,2.126c2.507,1.574,5.81-0.654,7.13,1.025c1.136,1.445,1.209,3.718,4.618,3.701
	C483.603,77.972,477.549,75.928,471.477,73.58z M494.756,59.903c0.285-2.496-0.074-5.07,3.857-4.663
	c3.104,0.322,6.263,0.208,9.396,0.15c2.337-0.043,3.278,1.053,3.274,3.279c-0.004,2.162-0.743,3.403-3.191,3.287
	c-1.801-0.086-3.619,0.176-5.429,0.283c-1.312,0.118-2.676,0.513-3.925,0.283C497.159,62.233,494.339,63.562,494.756,59.903z
	 M474.027,59.784c0.178-2.369,0.505-4.541,3.877-4.377c3.804,0.184,7.627-0.029,11.442-0.092c2.322-0.037,3.759,0.642,3.692,3.397
	c-0.065,2.718-1.459,3.39-3.818,3.299c-2.156-0.084-4.318-0.018-6.478-0.018c0-0.067,0.001-0.134,0.001-0.2
	c-1.657,0-3.315,0.037-4.971-0.011C476.21,61.737,473.776,63.128,474.027,59.784z M454.975,58.319
	c0.227-1.582,0.808-2.404,2.425-2.497c3.794-0.22,7.585-0.644,11.378-0.647c1.485-0.002,4.2-1.127,4.106,1.935
	c-0.066,2.169-0.257,4.48-2.903,5.735c-3.121,1.479-6.202-0.658-9.099,0.362C455.316,63.499,454.355,62.625,454.975,58.319z
	 M189.189,58.83c0.575-2.117,2.396-1.304,3.708-1.308c19.482-0.071,38.968,0.136,58.447-0.143
	c65.256-0.934,130.507,0.446,195.761,0.28c1.883-0.005,5.876-2.199,5.774,1.782c-0.077,2.975-3.777,1.452-5.766,1.475
	c-13.655,0.157-27.366,0.828-40.955-0.137c-12.342-0.877-23.97,3.184-36.172,3.108c-45.441-0.281-90.887,0.365-135.078-0.429
	c8.271-0.438,18.008,0.696,27.617-0.636c0.002-0.407,0.004-0.814,0.006-1.222c-2.647-0.201-5.295-0.569-7.943-0.575
	c-19.653-0.05-39.306-0.068-58.958,0.087c-1.081,0.009-4.393-1.988-3.606,2.203c0.137,0.73-1.649,0.904-2.288-0.138
	C188.927,61.858,188.784,60.32,189.189,58.83z M154.134,54.976c1.958-0.385,4.952-3.347,6.159,1.242
	c0.231,0.879,1.072,0.489,1.446-0.116c1.553-2.509,4.268-2.871,6.812-3.891c1.253,2.621-0.326,5.396,2.124,7.941
	c-0.153-4.132,1.327-5.541,5.117-4.66c2.705,0.628,5.615,0.412,8.436,0.493c1.974,0.057,4.099-0.428,3.811,2.845
	c-0.231,2.626-0.573,4.493-4.025,3.995c-5.774-0.835-11.78-0.41-16.923-4.056c-1.69-1.197-0.491,2.465-2.881,1.929
	c-2.818-0.631-5.945-0.596-8.922,0.24c-1.204,0.337-2.465-0.047-2.234-1.701C153.258,57.751,151.929,55.408,154.134,54.976z
	 M135.646,62.729c-2.639-0.104-1.45-2.51-1.595-3.937c-0.163-1.599-0.413-3.551,2.148-3.603c2.326-0.047,4.654-0.01,6.98-0.01
	c0-0.023,0-0.048,0-0.071c1.661,0,3.348,0.185,4.976-0.046c2.179-0.309,3.071,0.796,3.295,2.622
	c0.221,1.795,0.388,3.477-2.047,4.367C144.837,63.722,140.227,62.908,135.646,62.729z M148.604,65.11
	c9.257-3.312,18.443-3.776,27.715-0.593c-4.553,0.91-9.275-2.306-14.238,0.85c0.779,0.341,1.061,0.555,1.358,0.579
	c1.56,0.125,1.578,0.098,2.758,1.985c0.527,0.844,1.146,0.176,1.721,0.18c1.459,0.012,2.918,0.004,4.456,0.352
	c-4.515,1.363-8.349,4.495-13.354,4.461c-2.284-0.016-3.987-0.591-4.441-2.972C153.95,66.662,151.975,65.222,148.604,65.11z
	 M158.95,100.937c-2.099-7.986-1.804-16.302-3.417-24.39c-0.583-2.923,3.667-0.559,5.455-1.552c1.552-0.904,4.295,1.775,5.253-1.706
	c0.057-0.205,4.203-0.237,4.727,2.603c1.369,7.41,2.666,14.833,3.953,22.258c0.285,1.644,0.052,2.734-2.162,2.918
	c-3.926,0.325-7.828,1.017-11.714,1.706C159.343,103.074,159.286,102.214,158.95,100.937z M187.887,214.016
	c-3.458-0.446-5.496,2.802-9.08,3.535c-1.268-7.104-2.593-14.205-3.795-21.327c-2.519-14.933-5.021-29.868-7.439-44.817
	c-1.922-11.882-3.767-23.777-5.51-35.687c-0.343-2.348-0.711-4.449,3.288-5c12.973-1.788,13.04-2.062,14.586,10.745
	c2.438,20.182,4.667,40.388,7.111,60.568c1.131,9.34,2.569,18.644,3.847,27.967C191.209,212.287,191.366,214.464,187.887,214.016z
	 M131.889,900.493c0.332-4.994,2.569-6.126,7.109-5.603c2.87,0.33,5.86-0.309,8.789-0.59c2.904-0.277,4.167,0.791,4.267,3.887
	c0.288,8.898,0.304,8.981-9.334,8.662c-1.493-0.069-2.992-0.286-4.475-0.204C133.85,906.889,131.553,905.556,131.889,900.493z
	 M136.963,929.86c-0.806,0.143-1.105-0.056-0.722-1.038c0.294-0.754-0.303-1.815,1.183-1.958c3.263-0.314,6.513-0.719,10.067,0.076
	C144.594,931.505,140.442,929.241,136.963,929.86z M160.958,909.167c5.014-0.196,9.97,1.847,14.631,4.052
	c3.229,1.527,2.394,2.813,0.001,4.304c-4.023,2.507-8.596,3.768-13.103,4.269c-18.072,2.011-36.093,1.602-53.824-2.957
	c-1.932-0.496-4.076-0.999-5.777-2.941c5.767-4.053,12.13-5.978,18.818-6.863C134.775,907.299,147.855,909.681,160.958,909.167z
	 M203.514,403.396c-2.462,11.438-7.192,22.303-8.1,34.156c-0.523,6.832-0.19,13.634-0.408,20.446
	c-0.546,17.073-2.332,34.022-4.868,50.909c-0.209,1.393-0.326,2.801-0.496,4.271c-1.03,16.793-1.392,61.072-1.392,61.072
	l-0.185-0.146c0.004,6.673-0.792,13.235-1.342,19.767c-1.442,17.109-1.62,34.251-2.209,51.386
	c-1.172,34.11-2.087,68.236-3.851,102.317c-1.279,24.722-3.084,49.458-5.913,74.044c-2.15,18.687-5.226,37.402-13.102,54.835
	c-1.156,2.561-1.715,5.791-5.802,2.186c-1.239-1.094-4.869,0.308-7.326,0.894c-1.395,0.333-2.771,1.769-4.114,0.515
	c-1.467-1.37-0.421-3.223,0.027-4.701c3.302-10.896,6.128-21.914,8.621-33.02c3.471-15.466,5.33-31.207,7.904-46.825
	c2.02-12.257,4.271-24.521,5.374-36.874c1.787-20.021,4.709-39.916,6.034-59.99c0.741-11.229,2.194-22.435,3.424-33.637
	c1.396-12.713,1.219-25.598,1.726-38.407l1.704-18.463c3.053-12.378,3.703-24.967,4.367-37.562L183.5,570.5
	c0.076-0.866,0.176-2.171,0.294-3.807c0.074-1.338,0.149-2.676,0.231-4.014c0.019-0.301,0.06-0.606,0.113-0.958
	c0.906-13.482,2.324-36.868,2.878-46.08c-0.079-4.794,0.906-9.054,1.324-13.252c1.384-13.883,2.914-27.739,2.619-41.698
	c-0.5-23.645,2.573-47.072,3.861-70.605c1.234-22.556,3.42-45.075,3.207-67.703c-0.017-1.777-0.469-3.638,0.618-5.726
	c1.294,6.343,0.886,12.517,0.919,18.478c0.062,11.453,2.229,22.419,5.505,33.158C208.741,380.331,206.019,391.759,203.514,403.396z
	 M236.903,453.527c-1.65-3.544-1.296-6.589,2.422-8.199c2.401-1.039,4.042-2.938,5.799-4.487c5.594-4.933,12.219-1.39,18.156-2.878
	c0.506-0.127,1.271,0.299,1.765,0.669c4.893,3.67,7.554,15.593,4.969,21.502c-0.896,2.05-2.068,3.488-4.424,3.004
	c-2.448-0.502-1.506-2.641-1.553-4.123c-0.228-7.27-1.575-12.614-4.499-16.029c1.897,5.702,2.803,11.446,2.669,17.386
	c-0.038,1.67-0.29,3.218-2.039,3.464c-2.21,0.312-1.798-1.641-2.232-3.038c-1.833-5.9-3.878-11.735-6.244-17.463
	c-0.13,6.467,3.967,11.813,4.563,18.085c0.117,1.224,1.487,2.631-0.394,3.318c-1.734,0.634-3.616,0.656-4.703-1.459
	c-2.628-5.114-5.296-10.209-7.934-15.318c-0.336-0.652-0.589-1.348-1.485-1.751c1.143,6.228,4.653,11.49,7.433,17.557
	C243.257,461.936,239.312,458.701,236.903,453.527z M360.975,472.168c2.812,1.451,4.923,3.448,8.224,0.417
	c2.046-1.88,2.097,1.419,2.442,2.308c3.157,8.123,3.03,16.613,1.068,24.84c-2.655,11.133-3.332,22.466-4.727,33.734
	c-1.264,10.213-4.829,19.446-12.001,27.078c-2.739,2.915-5.397,6.078-6.115,10.063c-0.806,4.48-3.625,5.787-7.487,5.943
	c-3.741,0.152-7.188-0.766-9.897-3.57c-0.806-0.833-1.755-1.7-1.334-3.016c0.509-1.591,1.944-0.87,2.975-0.936
	c3.443-0.22,6.958,0.474,10.287-1.06c3.665-1.688,5.757-4.046,4.915-8.482c-2.545-13.407-4.724-26.887-7.428-40.261
	c-1.315-6.507-3.632-12.943-8.771-17.456c-9.097-7.987-23.449-7.208-32.573,1.149c-8.281,7.586-12.814,17.25-14.357,28.021
	c-1.463,10.211-4.171,19.809-9.297,28.861c-8.809-5.484-11.161-14.741-12.745-23.938c-2.739-15.901-3.715-32.065-6.768-47.955
	c-0.754-3.929,0.354-8.25,0.881-12.354c0.088-0.687,0.618-3.044,1.938-2.102c4.991,3.563,8.464-0.45,12.047-2.386
	c2.622-1.416,5.029-2.227,7.925-2.081c24.79,1.245,49.599,1.179,74.406,0.927C357.181,469.888,359.035,471.167,360.975,472.168z
	 M356.791,461.782c1.539-1.445,2.281,0.247,3.305,0.836c1.692,0.972,3.453,1.842,5.062,2.936c1.581,1.074,1.982,2.962,2.702,4.629
	c-0.198,1.252-0.858,2.224-2.121,2.414c-1.593,0.239-9.117-5.41-9.532-7.111C355.896,464.212,355.64,462.863,356.791,461.782z
	 M331.621,561.134c4.263-7.487,4.745-15.688,5.512-22.75c-0.252-9.029-1.195-16.832-6.422-23.049
	c-10.081-11.993-29.52-8.115-35.588,7.044c-5.275,13.18-3.997,26.163,2.276,38.705c3.201,6.4,2.458,7.92-4.455,7.909
	c-2.329-0.004-4.709,0.2-6.977-0.197c-7.224-1.264-9.034-3.869-5.828-10.603c4.026-8.456,6.536-17.201,7.814-26.368
	c0.899-6.447,2.851-12.562,6.152-18.09c4.058-6.795,9.269-12.509,17.337-14.734c10.878-3.002,20.82,1.618,25.692,11.817
	c3.689,7.723,4.532,16.135,5.648,24.383c1.062,7.859,3.31,15.437,4.514,23.244c0.753,4.879-0.258,7.412-4.89,8.296
	c-3.068,0.586-6.396,0.833-9.437,0.285C329.085,566.326,330.707,562.739,331.621,561.134z M327.505,563.209
	c-8.435,9.012-22.268,10.386-29.037-4.056c-5.475-11.682-6.521-23.769-1.587-35.974c3.402-8.418,11.398-13.798,19.183-13.128
	c9.534,0.821,15.719,6.566,17.966,16.332c0.828,3.6,1.076,7.181,1.039,10.854C334.52,546.463,334.363,555.88,327.505,563.209z
	 M283.148,570.866c0.117-0.817,0.998-0.953,1.535-0.701c2.364,1.111,4.856,0.8,7.318,0.829c2.249,0.027,4.498,0.006,6.786,0.006
	c-2.453,4.41-12.66,5.534-15.289,1.72C283.167,572.238,283.062,571.463,283.148,570.866z M297.283,575.702
	c3.474-1.548,3.996-4.579,3.689-8.853c10.017,7.714,18.927,5.432,28.026-1.807c-0.9,5.773,1.436,9.471,5.809,11.846
	c1.483,0.807,1.209,1.758,1.009,2.858c-2.152,11.803-14.073,19.856-25.558,17.1c-2.917-0.7-5.285-2.552-7.217-4.971
	c-3.265-4.087-5.167-8.728-6.3-13.78C296.51,577.071,295.934,576.304,297.283,575.702z M274,464.329
	c-0.005,3.976-6.983,9.508-10.851,8.584c-1.673-0.398-2.411-1.324-1.458-3.282c1.093-2.249,2.659-3.812,4.948-4.552
	c1.454-0.469,2.774-1,3.828-2.134c0.774-0.835,0.657-2.994,2.614-2.109C274.656,461.549,273.764,463.204,274,464.329z
	 M258.101,605.331c-2.895-10.758-4.775-21.788-7.69-32.539c-3.39-12.498-9.15-24.191-12.763-36.68
	c-4.58-15.832-4.658-31.503-1.278-47.442c1.428-6.735,2.521-13.548,3.557-20.357c0.258-1.696-0.297-3.517-0.516-5.646
	c7.531,3.39,15.161,4.281,22.182,2.716c0.074,0.252,0.296,0.635,0.202,0.744c-7.889,9.177-6.964,19.83-4.797,30.494
	c2.141,10.534,2.594,21.246,4.045,31.844c1.689,12.328,4.27,24.189,14.023,33.384c4.016,3.785,5.25,9.948,9.132,14.211
	c0.5,0.549-0.293,2.437-0.706,3.628c-3.425,9.89-6.146,20.02-10.423,29.625c-1.184,2.659-1.91,5.76-1.908,8.657
	c0.004,5.263-1.456,10.001-4.107,15.621C263.877,623.678,260.598,614.609,258.101,605.331z M209.712,872.322
	c-2.398-0.216-2.798-2.855-3.208-4.517c-1.09-4.42-3.318-7.557-7.152-10.127c-6.002-4.023-4.313-10.573-4.215-16.365
	c0.043-2.556,1.008-5.139,1.803-7.631c1.707-5.352,4.918-6.493,9.159-2.847c3.639,3.129,6.914,5.94,12.112,6.851
	c4.478,0.784,2.227,5.837,2.928,9.311c-0.587,7.483-1.257,15.143-5.89,21.829C213.834,870.867,212.195,872.545,209.712,872.322z
	 M249.747,857.384c-7.624,7.388-22.904,14.116-35.192,15.288c7.14-8.237,8.236-17.994,8.39-27.913
	c0.118-7.639-0.49-8.237-8.007-9.702c-3.159-0.616-4.45-3.154-7.204-5.871c8.395-0.149,15.756-1.415,22.309,3.707
	c2.286,1.787,5.438,2.276,8.492,2.108c3.269-0.18,5.873,0.61,6.922,4.221c0.355,1.222,1.265,2.136,2.574,2.839
	C253.688,845.097,254.482,852.795,249.747,857.384z M251.959,858.767c4.291-10.481,3.326-14.946-4.412-19.474
	c6.757-1.448,13.146-2.167,19.339-4.021c3.945-1.181,8.231,1.698,12.066,3.374c11.53,5.038,23.814,5.935,36.042,7.393
	c9.28,1.106,18.519,2.562,27.759,4.304C312.774,855.15,282.592,857.119,251.959,858.767z M384.252,856.877
	c-12.091-3.782-24.441-6.388-36.978-8.134c-11.581-1.612-23.173-3.153-34.756-4.752c-10.578-1.459-21.196-2.368-31.311-6.487
	c-14.979-6.1-30.673-9.668-46.753-11.517c-12.954-1.489-24.8-13.276-22.318-25.944c1.662-8.481,6.661-15.552,11.739-22.483
	c9.456-12.907,23.057-17.479,38.016-19.571c3.916-0.548,7.79-1.436,11.717-1.841c2.933-0.304,5.856-0.335,8.825,0.713
	c5.773,2.037,11.294,4.604,16.392,7.889c5.406,3.485,8.856,8.219,8.263,15.31c-0.457,5.46-1.447,10.739-3.295,15.848
	c-0.773,2.136-1.832,3.588-4.767,1.839c-10.457-6.232-22.324-7.462-34.091-8.61c-2.77-0.271-5.666-2.137-9.799,0.253
	c9.592,1.423,18.013,2.616,26.415,3.932c12.422,1.946,22.342,9.446,33.037,15.159c19.591,10.465,39.695,19.889,59.523,29.874
	c6.107,3.075,12.71,2.593,19.375,2.756c-0.586,2.207-2.432,2.646-3.437,3.862c-2.284,2.763-5.038,5.298-3.251,9.586
	C387.764,856.872,386.334,857.528,384.252,856.877z M313.528,804.12c1.937-1.664,4.274-2.717,6.777-1.907
	c2.875,0.931,4.991,3.005,6.57,6.045c-1.565,1.491-3.44,2.426-5.515,1.584c-2.561-1.038-4.911-2.588-7.383-3.857
	C313.014,805.489,312.758,804.781,313.528,804.12z M424.597,838.292c1.213,0.272,2.375,1.015,3.129,2.271
	c3.164,5.269,7.983,8.088,13.873,9.501c3.499,0.84,6.852,2.284,9.815,4.375c4.826,3.405,8.24,7.656,7.604,13.854
	c0.192,5.42-1.381,10.288-3.438,14.935c-2.353,5.316-7.675,7.451-14.891,5.579c-13.493-3.501-26.429-8.24-36.294-18.865
	c-3.913-4.215-9.781-5.969-13.347-10.822c-3.948-5.374-4.297-9.128,0.698-13.248C401.346,837.952,412.458,835.569,424.597,838.292z
	 M384.628,764.229c6.543,3.957,11.571,9.404,15.731,15.659c6.584,9.9,12.587,20.211,14.899,32.005
	c1.456,7.428-0.777,14.726-3.585,21.64c-0.932,2.296-3.715,2.776-5.858,3.333c-12.643,3.283-24.864,3.553-36.979-3.034
	c-14.148-7.692-28.836-14.391-44.363-22.049c9.082-3.352,17.342-5.067,25.841-6.245c8.573-1.189,16.912,0.101,25.386,0.62
	c-7.398-2.818-15.047-3.765-22.83-2.891c-5.547,0.622-11.07,1.63-16.526,2.822c-2.579,0.564-3.434-0.396-4.339-2.511
	c-6.859-16.044-1.559-30.422,14.442-37.599C358.833,760.425,371.477,756.276,384.628,764.229z M365.764,735.57
	c1.54,3.597,3.068,7.232,4.146,10.984c1.067,3.715,0.953,7.786,4.667,11.335c-11.303-0.261-20.855,2.393-29.916,6.877
	c-15.572,7.706-20.952,21.173-15.035,37.391c0.338,0.925,0.734,1.829,1.084,2.751c0.365,0.962,0.702,2.196-0.194,2.769
	c-1.255,0.802-1.963-0.367-2.738-1.298c-6.282-7.545-7.759-7.961-16.085-3.375c-3.371,1.856-4.686-1.357-6.842-2.226
	c-2.102-0.848-0.04-2.559,0.43-3.739c2.278-5.73,3.311-11.696,3.721-17.806c0.43-6.405-2.41-11.533-7.406-14.883
	c-6.811-4.567-14.079-8.816-22.327-10.03c-6.565-0.966-13.09,1.243-19.601,2.228c-2.566,0.389-5.219,0.396-7.887,1.001
	c0.226-0.208,0.416-0.509,0.683-0.613c7.282-2.842,11.838-8.029,13.523-15.686c1.056-4.794,3.693-6.013,8.655-5.279
	c11.606,1.714,23.312,3.59,34.995,3.715c13.182,0.142,26.439-0.817,39.5-3.35c4.662-0.903,9.523-0.926,14.023-2.551
	C365.326,733.003,365.397,734.715,365.764,735.57z M361.058,725.737c2.665,6.046,2.551,6.089-4.014,7.437
	c-14.952,3.069-30.134,3.972-47.04,5.082c-11.31-1.274-24.283-2.811-37.277-4.147c-3.065-0.314-3.207-1.238-1.859-3.699
	c4.79-8.745,7.749-17.965,8.583-28.062c0.655-7.924-0.871-15.507-1.769-23.185c-0.672-5.755-0.35-6.848,5.215-8.133
	c7.002-1.616,14.228-1.67,21.252-1.757c11.951-0.148,23.919-2.002,35.885-0.286c0.653,0.094,1.337-0.034,1.996,0.041
	c10.635,1.216,11.805,2.918,11.045,13.807C352.032,697.785,355.025,712.049,361.058,725.737z M360.356,649.507
	c-1.761,5.028-5.626,7.112-10.595,7.47c-7.148,0.513-14.228-0.434-21.307-1.265c-0.444-0.052-0.908,0.063-1.363,0.101
	c9.873,2.681,19.684,5.068,29.926,1.293c0.25,4.394-1.491,8.357-2.067,12.49c-0.316,2.271-1.555,0.93-2.465,0.534
	c-7.312-3.176-15.04-3.519-22.831-3.307c-12.967,0.354-25.934,0.716-38.896,1.212c-4.788,0.184-9.406,1.424-14.33,3.519
	c-0.868-3.688-1.69-7.183-2.681-11.392c11.176,5.833,20.992,2.544,31.857-3.058c-5.347,0.165-8.797,2.401-12.561,3.404
	c-11.611,3.096-20.674-0.848-24.226-10.996c-1.565-4.473-1.447-9.175-0.144-13.63c1.982-6.78,4.374-13.303,4.664-20.608
	c0.18-4.534,3.131-8.931,4.671-13.445c2.547-7.466,4.901-14.999,7.491-22.45c0.42-1.208,0.336-4.034,2.973-2.511
	c2.115,1.222,6.432-2.935,6.682,2.919c0.086,2.018,1.262,4.031,2.116,5.969c4.5,10.206,9.554,13.576,19.703,13.243
	c8.526-0.28,15.679-6.053,19.26-14.885c0.879-2.169-0.154-5.905,4.287-6.124c4.09-0.201,6.186,0.184,7.189,5.179
	c3.425,17.037,8.807,33.597,13.56,50.307C362.812,638.899,362.199,644.243,360.356,649.507z M397.906,507.429
	c1.944,15.553-3.053,30.307-8.476,44.274c-4.943,12.732-7.761,25.712-10.407,38.876c-2.975,14.8-9.406,31.468-16.403,40.967
	c-5.057-17.928-10.421-34.763-13.931-52.114c-0.229-1.134-1.377-2.198,0.988-1.625c1.163,0.283,1.386-0.682,1.287-1.532
	c-0.834-7.136,3.848-11.806,7.878-16.447c6.919-7.966,10.148-17.331,11.064-27.462c1.248-13.795,4.082-27.342,5.723-41.043
	c0.915-7.641,0.551-15.809-6.015-21.909c-0.884-0.821-1.396-2.857-1.015-3.963c0.296-0.854,2.426-1.006,3.586-0.418
	c6.173,3.126,12.32,2.236,18.932,0.013C392.227,479.418,396.134,493.256,397.906,507.429z M423.18,306.289
	c3.856,3.934,0.942,7.442-0.824,10.727c-2.953,5.486-3.364,11.62-4.979,17.43c-2.45,8.825-6.193,17.358-6.49,26.721
	c-0.043,1.354-0.619,2.816,1.532,2.806c3.523-0.018,3.233,1.952,2.576,4.446c-6.353,24.113-12.619,48.25-18.984,72.36
	c-1.369,5.188-2.851,5.64-6.775,1.887c-4.985-4.768-10.528-5.678-17.466-6.219c-8.725-0.68-9.542,4.685-12.041,9.682
	c0.054-0.035,0.099-0.073,0.153-0.107c0.015,0.027,0.017,0.05,0.029,0.077c0.408-0.144,0.925-0.257,0.991-0.495
	c2.106-7.539,8.435-7.788,14.245-7.392c4.071,0.278,8.863,0.627,11.637,4.714c1.104,1.627,2.523,2.468,4.277,3.15
	c2.797,1.089,3.884,3.687,2.726,6.062c-2.655,5.445-5.916,10.594-12.984,12.741c1.012-6.372,5.812-10.673,6.091-16.737
	c-2.271,4.257-4.687,8.446-6.756,12.8c-1.14,2.397-2.196,5.026-5.26,3.877c-3.646-1.369-0.755-3.949-0.209-5.759
	c1.639-5.433,3.653-10.752,5.074-16.286c-3.442,4.718-4.37,10.49-6.675,15.675c-0.965,2.17-1.186,5.562-4.647,4.282
	c-2.355-0.87-2.226-3.315-1.744-5.89c0.673-3.599,1.84-6.942,3.068-10.341c0.56-1.548,2.075-3.148,0.468-5.608
	c-2.27,5.962-5.33,11.212-5.253,17.535c0.018,1.38,0.803,3.569-0.813,3.992c-1.97,0.514-3.953-0.969-4.783-2.774
	c-1.544-3.354-2.172-6.91-0.528-10.538c0.434-0.956,1.722-1.675,1.076-3.009c-0.073,0.026-0.145,0.052-0.207,0.081
	c0.009-0.017,0.016-0.034,0.024-0.051c-3.692,2.436-2.972,6.247-2.687,9.73c0.299,3.649-0.977,5.094-4.672,5.181
	c-25.161,0.591-50.288-1.055-75.438-1.022c-3.033,0.004-4.381-1.38-3.908-4.292c1.143-7.04-2.788-12.286-6.053-17.803
	c-0.634-1.071-1.273-1.993-2.611-1.898c-8.374,0.594-17.358-1.297-23.998,6.216c-2.685,3.038-4.173,1.918-4.987-1.688
	c-4.376-19.376-8.88-38.723-13.237-58.103c-0.31-1.379-1.292-3.979,2.385-2.705c1.573,0.545,1.363-1.164,1.017-2.391
	c-4.353-15.435-6.912-31.334-12.477-46.469c-3.314-9.015-3.424-18.749-4.914-28.149c-2.555-16.125-4.154-32.4-6.293-48.594
	c-0.317-2.402-1.085-4.896-3.904-5.85c-0.725-0.246-1.848-0.278-1.848-1.328c-0.005-6.228-3.294-12.962,2.022-18.412
	c2.285-2.344,2.266-4.579,0.671-6.597c-9.4-11.896-7.42-26.518-9.698-40.065c-2.051-12.195-3.274-24.53-4.846-36.807
	c-0.735-5.738-1.433-11.48-2.141-17.223c-0.04-0.327-0.121-0.917-0.017-0.957c4.757-1.85,3.037-6.666,4.669-9.89
	c2.45-4.839,2.398-8.475-1.627-12.104c-0.887-0.8-1.205-1.567-1.096-2.533c0.415-3.7-1.502-4.77-4.773-4.368
	c-2.517,0.31-3.032-1.171-3.291-3.266c-0.824-6.673-1.383-13.424-3.368-19.864c-0.746-2.42-0.106-3.335,1.875-4.177
	c6.522-2.769,12.927-4.904,20.387-4.871c63.143,0.279,126.292,0.492,189.431-0.089c20.809-0.192,41.625-0.168,62.435-0.528
	c6.915-0.119,13.214,1.63,19.233,5.102c2.393,1.381,2.296,3.087,1.962,4.926c-1.202,6.638-2.664,13.229-3.92,19.857
	c-0.272,1.439-0.87,2.088-2.29,1.918c-3.789-0.456-4.805,1.63-6.019,4.935c-1.008,2.744-3.672,4.515-3.979,8.267
	c-0.44,5.379,0.745,9.599,3.69,13.983c2.181,3.247-0.115,7.128-0.733,10.554c-3.011,16.69-5.363,33.471-7.756,50.253
	c-1.468,10.288-2.327,20.711-4.322,30.838c-1.113,5.656-3.229,11.245-3.909,17.127c-0.097,0.839-0.957,2.114-1.668,2.272
	c-5.195,1.154-4.942,5.484-4.882,9.04c0.265,15.528-3.809,30.437-5.914,45.624c-0.661,4.769-1.35,9.451-2.847,14.019
	C423.139,304.682,422.814,305.916,423.18,306.289z M475.166,875.232c-2.193,1.394-2.6-1.097-2.985-2.101
	c-4.675-12.141-9.635-24.251-11.878-37.11c-1.845-10.572-2.71-21.314-3.988-31.984c-0.085-0.712-0.028-1.441-0.017-2.166
	c-2.54-19.293-8.968-69.252-10.298-90.538c0,0-2.908-60.269-5.898-82.175c-0.356-1.678-0.658-3.464-0.902-5.337
	c-0.066-0.296-0.133-0.575-0.199-0.821c0,0-1.936-16.769-3.729-31.688c-0.467-2.046-0.789-4.121-0.759-6.261
	c-0.36-2.948-0.701-5.695-1.003-8.068c-0.008,0.019-0.013,0.038-0.021,0.057c-1.816-13.133-4.119-26.019-5.255-39.007
	c-1.258-14.382-3.924-28.552-5.353-42.903c-2.49-25.009-4.042-50.05-3.833-75.177c0.114-13.631,3.646-26.761,7.062-39.826
	c2.696-10.312,3.539-20.803,4.73-31.356c-5.348,73.131,0.486,145.949,6.124,218.905l0.037-0.008c0,0,0.136,1.983,0.365,5.229
	c0.035,0.445,0.069,0.891,0.104,1.336c-0.003,0-0.005-0.001-0.009-0.001c1.09,15.32,3.816,52.325,4.873,54.437
	c0,0,4.001,33.666,3.334,39.666c0,0,7,52.001,8.333,57.334c0,0,9.109,46.133,11.602,66.944c0.015-0.026,0.025-0.053,0.04-0.079
	c3.332,25.665,12.073,48.912,20.852,72.149c0.697,1.848,1.352,3.719,1.884,5.619c0.819,2.928,0.032,4.36-3.408,4.076
	C481.709,874.107,478.342,873.217,475.166,875.232z M494.544,930.577c-3.536-0.747-7.035-1.669-10.549-2.522
	c0.026-0.346,0.052-0.692,0.077-1.038c3.628,0.323,7.258,0.628,10.882,0.982c0.888,0.086,2.372-0.364,2.298,1.069
	C497.179,930.485,495.709,930.823,494.544,930.577z M457.728,915.507c12.383-10.645,67.526-6.793,75.779,4.154
	C507.316,925.099,482.362,927.852,457.728,915.507z"/>
</svg>
