<?xml version="1.0" encoding="utf-8"?>
<!-- Generator: Adobe Illustrator 16.0.0, SVG Export Plug-In . SVG Version: 6.00 Build 0)  -->
<!DOCTYPE svg PUBLIC "-//W3C//DTD SVG 1.1//EN" "http://www.w3.org/Graphics/SVG/1.1/DTD/svg11.dtd">
<svg version="1.1" id="SF82TjlfzNJXBCGkN5S9K9HpQslQTQqny6lw_x5F_gw4TWA_xA0_Image_1_"
	 xmlns="http://www.w3.org/2000/svg" xmlns:xlink="http://www.w3.org/1999/xlink" x="0px" y="0px" width="640px" height="960px"
	 viewBox="0 0 640 960" enable-background="new 0 0 640 960" xml:space="preserve">
<g>
	<path fill-rule="evenodd" clip-rule="evenodd" d="M175.494,87.38c-4.998,0.377-7.467-4.968-12.278-5.399
		c-1.448-0.13-3.052-1.158-4.708-0.956c-4.118,0.501-5.567-1.137-5.508-5.338c0.057-4.014,0.648-6.793,5.415-6.691
		c7.463,0.158,14.906-0.031,22.337-0.923c1.677-0.201,3.235-0.503,4.707-1.207c1.279-0.612,2.711-1.191,3.595,0.122
		c2.243,3.336,5.749,2.728,8.845,2.957c22.928,1.702,45.902,0.954,68.857,0.993c60.497,0.101,121.006,0.719,181.485-0.324
		c19.354-0.334,38.758-1.405,58.158-1.664c3.678-0.049,6.096,0.266,5.7,4.999c-0.329,3.932,0.55,7.854-5.721,7.143
		c-5.646-0.64-8.679,4.91-13.424,6.606c-6.501,2.323-4.305,8.628-5.764,13.162c-0.617,1.917-0.666,4.271-1.411,6.211
		c-2.209,5.742,0.422,9.973,3.994,13.869c2.13,2.322-0.066,9.641-3.395,11.975c-3.298,2.312-6.479,5.498-7.175,9.336
		c-4.521,24.938-9.603,49.778-13.247,74.871c-0.542,3.736-1.117,7.487-2.021,11.147c-0.818,3.319-1.382,6.247,2.024,8.607
		c0.952,0.66,1.028,2.255,0.906,3.696c-1.022,12.063-2.007,24.133-2.813,36.213c-0.181,2.697-1.031,5.006-3.688,5.021
		c-4.009,0.021-4.074,2.7-4.318,5.243c-0.775,8.085-1.241,16.2-2.07,24.278c-4.063,39.603-1.671,79.263-1.193,118.907
		c0.094,7.831,0.188,15.663,0.204,23.495c0.043,21.803,1.579,43.532,2.916,65.278c0.959,15.593,1.218,31.229,2.145,46.824
		c1.082,18.222,2.565,36.419,3.845,54.63c0.732,10.431,1.427,20.865,2.098,31.301c0.892,13.852,2.449,27.617,4.692,41.322
		c2.288,13.979,4.078,28.039,6.36,42.02c4.95,30.315,10.629,60.481,20.233,89.748c2.818,8.585,5.817,17.114,8.92,25.602
		c2.512,6.874,7.809,12.188,10.907,18.761c0.315,0.67,1.215,1.66,1.673,1.576c5.06-0.929,9.442,2.175,14.332,2.234
		c12.218,0.148,23.779,3.165,34.768,8.414c2.678,1.279,4.981,3.122,7.248,5.094c9.082,7.901,7.7,17.907-3.423,24.083
		c-7.297,4.052-15.53,5.218-23.68,6.365c-9.925,1.396-19.956,1.507-29.892,0.887c-13.12-0.819-26.387-1.769-37.747-9.749
		c-5.899-4.144-9.904-9.531-9.273-16.961c0.588-6.932,6.17-10.174,11.655-13.032c2.458-1.28,5.177-2.101,7.836-2.946
		c5.91-1.881,6.016-1.891,2.916-6.835c-10.051-16.031-14.034-34.198-18.525-52.193c-5.128-20.544-9.594-41.239-13.601-62.021
		c-2.024-10.497-3.026-21.195-4.381-31.816c-1.669-13.096-3.292-26.198-4.803-39.312c-0.871-7.562-1.5-15.152-2.207-22.733
		c-1.274-13.671-2.662-27.335-3.737-41.022c-0.673-8.576-0.755-17.197-1.288-25.787c-1.223-19.716-2.661-39.419-3.799-59.139
		c-0.469-8.14-0.615-16.299-1.01-24.448c-0.765-15.786-0.62-31.613-1.213-47.41c-1.167-31.118-2.212-62.234-1.974-93.381
		c0.004-0.565-0.162-1.132-0.463-3.092c-0.77,3.587-0.922,5.927-1.228,8.118c-0.433,3.103-1.05,5.022-4.602,4.941
		c-2.225-0.052-2.197,1.89-2.77,3.457c-4.61,12.639-5,26.112-7.838,39.102c-3.755,17.19-6.956,34.5-10.673,51.698
		c-2.208,10.216-3.14,20.74-7.777,30.419c-1.203,2.51,1.455,5.47,2.306,8.235c7.593,24.688,17.93,48.377,26.436,72.729
		c2.763,7.911,2.249,15.302-4.737,21.205c-3.135,2.648-6.856,4.199-10.576,2.911c-9.923-3.435-19.679-7.371-29.41-11.33
		c-2.247-0.914-4.134-2.716-6.231-4.14c-2.069,2.622-2.82,5.585-2.404,8.8c1.099,8.475-3.985,15.433-5.692,23.236
		c-5.346,24.453-4.576,48.077,7.224,70.743c2.958,5.68,4.823,11.781,5.566,18.271c0.606,5.299,5.544,7.157,9.423,9.413
		c19.67,11.436,28.401,30.17,33.418,50.955c1.871,7.754-1.147,15.632-4.481,22.988c2.967,0.435,5.835,1.177,8.856,1.382
		c3.196,0.216,6.126,1.11,7.986,4.6c2.188,4.102,6.308,6.187,10.807,7.25c4.217,0.996,8.047,2.758,11.698,5.103
		c5.682,3.65,8.52,8.733,8.145,15.431c-0.346,6.159-2.302,11.957-5.421,17.206c-2.982,5.021-9.298,6.876-16.455,4.992
		c-14.024-3.691-27.167-8.831-37.726-19.622c-9.969-10.188-22.899-14.954-36.857-17.108c-4.707-0.726-9.339-2.43-14.038-2.57
		c-4.679-0.141-9.416,1.015-14.096,1.79c-11.425,1.894-22.954,2.778-34.471,3.833c-18.84,1.725-37.711,2.9-56.61,3.707
		c-1.382,0.06-2.997,0.777-4.04,1.708c-8.779,7.832-19.942,9.771-30.757,12.385c-5.916,1.43-10.071-1.362-11.327-7.277
		c-0.676-3.183-2.02-5.908-4.619-7.248c-5.36-2.763-6.35-7.678-6.231-12.565c0.122-5.019,0.652-10.184,2.668-14.993
		s4.377-5.882,9.588-5.039c4.421,0.715,8.808-1.39,13.314-0.723c1.792,0.266,3.793-0.106,5.391,0.556
		c6.497,2.689,13.655,4.131,19.746,6.915c7.312,3.343,13.261,1.481,19.874,0.518c0.705-0.103,1.252-0.397,1.416-1.413
		c-9.346-2.962-19.014-4.46-28.735-5.518c-13.708-1.491-25.575-13.332-24.495-25.302c0.736-8.16,5.424-14.803,10.012-21.246
		c7.351-10.325,16.845-18.201,28.435-23.464c1.801-0.818,3.551-1.774,5.403-2.455c7.265-2.672,11.947-7.529,14.218-15.081
		c1.172-3.897,3.185-7.655,5.394-11.107c10.603-16.57,11.362-34.388,7.22-52.93c-0.82-3.674-1.878-7.36-2.104-11.085
		c-0.389-6.391-5.107-10.853-6.773-16.65c-0.996-3.466-1.298-6.821-0.309-10.254c0.383-1.328,0.819-2.771,0.014-3.852
		c-1.151-1.545-1.573-5.065-4.937-1.303c-3.032,3.392-7.661,5.011-11.984,6.728c-4.278,1.698-8.527,3.501-12.665,5.514
		c-5.502,2.676-10.795,4.057-16.226-0.222c-5.997-4.726-7.901-10.884-6.359-18.077c3.662-17.081,10.964-33.023,15.817-49.732
		c3.199-11.012,4.97-22.43,9.54-33.061c0.637-1.482,0.09-3.169-0.42-4.833c-4.552-14.863-6.517-30.199-8.447-45.574
		c-2.298-18.298-5.055-36.542-8.644-54.646c-0.289-1.457-0.059-3.045-0.496-4.438c-0.786-2.504-0.505-6.36-5.369-4.295
		c-1.911,0.812-3.141-0.916-3.799-2.906c-1.552-4.694-2.774-9.436-2.793-15.485c-2.832,7.218-2.424,13.923-2.52,20.181
		c-0.247,16.143-1.66,32.202-2.404,48.3c-0.804,17.4-2.514,34.759-3.732,52.143c-0.43,6.132-0.552,12.275-1.011,18.418
		c-1.383,18.536-2.019,37.127-3.189,55.682c-1.169,18.534-2.414,37.07-4.024,55.57c-1.811,20.801-3.635,41.595-5.02,62.432
		c-1.011,15.207-2.228,30.419-4.03,45.548c-1.535,12.886-3.948,25.672-6.133,38.475c-2.489,14.588-5.353,29.114-7.68,43.728
		c-1.843,11.571-5.918,22.54-8.474,33.908c-1.009,4.488-2.229,8.931-3.357,13.392c-0.703,2.781-0.856,4.796,3.038,5.528
		c5.373,1.011,10.392,3.354,14.833,6.635c10.039,7.419,10.268,14.777,0.468,22.324c-7.904,6.088-17.248,8.785-26.876,10.403
		c-13.991,2.352-28.104,2.595-42.182,0.986c-9.825-1.123-19.605-2.914-27.744-9.154c-8.905-6.828-8.679-15.743,0.008-22.292
		c8.796-6.632,19.449-8.607,30.047-10.53c5.781-1.048,11.666-0.296,17.354-1.142c5.233-0.777,9.198-5.057,10.538-9.775
		c6.992-24.614,14.769-49.037,19.325-74.295c3.747-20.765,6.471-41.664,9.067-62.599c2.499-20.149,5.322-40.241,7.04-60.494
		c1.652-19.474,3.343-38.944,4.951-58.423c1.349-16.346,2.702-32.689,4.033-49.036c1.467-18.014,2.863-36.021,3.942-54.063
		c1.356-22.694,3.363-45.348,4.806-68.037c0.96-15.094,1.367-30.222,2.129-45.328c0.888-17.594,1.892-35.182,2.848-52.771
		c0.488-8.988-2.185-17.698-2.17-26.708c0.011-6.896-1.614-13.798-1.7-20.771c-0.027-2.207-0.004-4.115-3.127-4.666
		c-3.55-0.627-3.695-4.205-3.747-6.834c-0.217-11.14-0.833-22.238-2.086-33.308c-0.109-0.964-0.219-2.328,0.318-2.903
		c6.76-7.246,1.613-15.267,1.152-22.742c-0.708-11.479-2.945-22.862-4.493-34.292c-1.701-12.571-3.35-25.149-5.049-37.721
		c-0.083-0.62-0.427-1.731-0.645-1.729c-4.722,0.027-3.635-6.109-8.198-7.274c-3.124-0.798-3.536-7.112-1.707-9.321
		c6.237-7.529,3.756-15.472,2.915-23.563c-0.41-3.941-2.604-7.776-0.962-11.893c1.422-0.69,2.354,0.066,3.187,1.104
		c-2.53,1.198-1.762,3.471-1.285,5.195c1.735,6.264,1.778,12.744,2.595,19.11c0.413,3.219,0.869,4.377,4.33,3.423
		c2.83-0.779,5.87-0.884,8.83-1.067c1.792-0.11,2.228-0.818,2.031-2.489c-0.896-7.64-1.553-15.299-3.857-22.72
		c-1.051-3.384-2.684-3.412-5.467-2.125c-2.257,1.044-4.691,2.642-7.305,0.588c4.266-1.479,8.542-2.948,12.818-4.419
		c-3.86,1.145-5.142-4.455-8.785-3.088c4.719-4.015,9.427,0.885,15.429-0.715c-10.666-2.978-19.953-2.958-29.327,0.289
		C173.369,80.406,173.777,84.549,175.494,87.38z M258.078,516.121c-2.574-2.517-5.148-5.034-7.258-7.099
		c-6.396,11.251-6.893,24.379-11.054,36.48c-5.015,14.585-10.861,28.917-14.329,43.993c-1.344,5.843-0.855,11.638,3.789,16.137
		c3.974,3.849,8.749,4.456,13.773,2.31c6.947-2.969,13.872-5.997,20.721-9.181c3.157-1.467,6.334-3.224,8.008-6.465
		c4.767-9.229,10.448-17.993,14.145-27.767c4.547-12.022,4.2-12.479-8.798-11.486c-11.639,0.891-22.229,11.962-23.206,23.622
		c-0.291,3.47,0.02,7.46-3.14,10.292c1.222-6.768,1.735-13.591,2.174-20.385c0.659-10.18,3.089-19.804,7.153-29.104
		c0.383-0.878,0.605-1.422,1.553-1.442c8.649-0.185,13.289-6.721,18.685-11.952c1.877-1.82,3.659-4.157,2.354-7.065
		c-0.61-1.359-0.347-3.893-2.562-3.735c-2.337,0.166-2.266,2.304-2.287,4.206c-0.047,4.406-4.043,5.198-6.793,7.021
		c-2.787,1.847-3.492-1.252-5.009-2.422c-2.679-2.068-5.393-4.091-8.092-6.133c1.744,0.121,3.746,0.211,2.895-2.401
		c-1.172-3.594-0.633-7.229-0.8-10.849c-0.082-1.778,0.235-4.397-2.001-4.387c-2.93,0.015-2.097,2.969-1.918,4.688
		C256.536,507.396,257.386,511.75,258.078,516.121z M163.588,860.9c0.39-0.729,0.844-1.429,1.161-2.188
		c10.836-25.985,14.769-53.628,19.175-81.118c3.106-19.379,7.345-38.588,8.433-58.291c0.804-14.559,2.44-29.07,3.63-43.609
		c0.798-9.754,1.409-19.524,2.203-29.278c1.225-15.046,2.665-30.074,3.77-45.128c0.899-12.258,1.336-24.55,2.167-36.812
		c1.201-17.729,2.689-35.437,3.839-53.167c1.17-18.057,1.993-36.136,3.124-54.195c1.558-24.866,3.192-49.729,4.93-74.583
		c1.181-16.889,2.533-33.768,3.929-50.641c0.72-8.694,0.808-8.717-7.517-7.843c-0.663,0.069-1.35,0.234-1.99,0.131
		c-3.475-0.559-4.385,1.399-4.4,4.333c-0.124,24.135-2.195,48.188-3.084,72.292c-0.503,13.62-1.359,27.229-2.21,40.833
		c-1.172,18.732-2.494,37.455-3.746,56.183c-0.742,11.104-1.38,22.217-2.235,33.312c-1.171,15.203-2.513,30.393-3.762,45.59
		c-0.761,9.254-1.432,18.516-2.239,27.767c-1.21,13.873-2.513,27.738-3.761,41.608c-1.069,11.88-1.873,23.79-3.235,35.636
		c-1.68,14.604-3.789,29.162-5.765,43.732c-2.351,17.337-4.307,34.744-7.248,51.981c-4.438,26.011-12.617,51.134-19.219,76.631
		c-0.843,3.256-2.016,6.904-4.604,8.517c-5.027,3.132-5.245,8.079-6.583,12.758c-0.712,2.489,0.506,3.409,2.697,3.579
		c4.647,0.361,9.301,0.645,13.948,1.006c1.809,0.14,2.875-0.459,2.963-2.412c0.276-6.092,2.354-11.585,5.614-16.677L163.588,860.9z
		 M330.243,80.856c0,0.048,0,0.096,0,0.144c-39.157,0-78.316,0.185-117.47-0.173c-6.94-0.063-12.883,2.204-19.103,4.248
		c-1.275,0.419-1.958,1.26-1.389,2.657c2.837,6.961,2.867,14.51,4.514,21.723c0.41,1.794,0.465,3.086,2.891,2.618
		c2.741-0.528,4.626,0.422,4.316,3.688c-0.123,1.287,0.726,1.967,1.42,2.923c2.463,3.392,4.583,6.731,1.291,11.194
		c-1.946,2.637,0.57,7.721-4.458,9.118c-0.011,0.003,0.174,0.599,0.218,0.924c1.625,11.929,3.286,23.853,4.854,35.789
		c1.933,14.714,3.725,29.446,5.72,44.151c0.498,3.674-0.48,8.341,2.121,10.77c3.316,3.097,3.674,6.416,3.836,10.238
		c0.198,4.647-0.382,9.306,0.572,13.947c2.547,12.395,4.849,24.839,7.457,37.22c3.722,17.666,6.776,35.473,11.904,52.841
		c3.909,13.239,8.714,26.184,12.493,39.478c1.382,4.86,2.262,6.983-3.612,7.177c-1.386,0.046-1.843,1.015-1.611,2.479
		c1.184,7.492,2.325,14.991,3.392,22.501c1.508,10.608,3.904,21.204,4.165,31.849c0.355,14.472,2.711,28.799,2.381,43.294
		c-0.11,4.851,2.097,6.187,6.563,4.358c2.364-0.968,4.161-0.5,6.443,0.458c3.885,1.632,7.626,3.425,11.367,5.361
		c2.568,1.33,4.937,2.68,5.189,5.306c0.417,4.336,3.862,3.159,5.911,3.42c1.993,0.254,2.097-2.389,2.357-4.086
		c0.399-2.603,0.625-5.232,1.043-7.832c1.945-12.108,5.63-23.36,14.918-32.13c12.7-11.992,32.95-8.482,39.977,7.189
		c2.988,6.666,3.997,13.827,5.094,20.964c0.7,4.558,1.337,9.131,2.25,13.646c0.259,1.276,0.792,2.961,2.914,2.697
		c1.431-0.178,2.753-0.385,2.718-2.184c-0.139-6.881,6.621-7.588,10.305-10.414c5.061-3.884,12.195-3.511,18.543-3.184
		c2.913,0.149,3.106-0.398,3.33-2.836c1.316-14.327,2.261-28.67,4.812-42.894c4.012-22.355,7.816-44.747,12.466-66.979
		c0.633-3.029,1.568-5.444-2.409-6.497c-1.161-0.307-1.455-1.525-1.311-2.441c1.057-6.68-0.393-14.213,2.873-19.958
		c5.907-10.393,6.985-21.831,9.44-32.964c4.564-20.689,7.539-41.729,14.019-61.994c2.25-7.038,5.945-13.687,6.008-21.343
		c0.012-1.431,0.383-2.866,1.843-3.196c2.666-0.602,2.72-2.999,2.986-4.674c1.891-11.871,3.419-23.8,5.228-35.686
		c2.055-13.497,4.016-27.018,6.533-40.432c1.503-8.005,3.158-15.909-1.334-23.315c-2.602-4.289-1.206-8.929,0.894-11.365
		c2.193-2.547,1.449-9.252,7.981-7.485c1.759,0.475,1.674-1.455,1.933-2.739c1.356-6.737,2.662-13.49,4.294-20.162
		c0.365-1.494-0.526-1.203-1.029-1.474c-6.127-3.296-12.273-6.051-19.592-6.019C410.548,80.948,370.396,80.856,330.243,80.856z
		 M259.481,752.227c4.339-2.367,7.367-0.424,10.405-0.144c12.286,1.134,24.606,2.423,35.555,8.874
		c2.565,1.512,3.676,0.239,4.536-1.702c2.701-6.099,4.163-12.454,4.104-19.19c-0.041-4.537-1.864-8.172-5.358-10.645
		c-5.79-4.097-12.212-7.104-18.918-9.456c-7.001-2.456-13.755,0.341-20.575,1.093c-17.002,1.872-32.003,7.702-42.235,22.444
		c-4.62,6.655-9.729,13.22-10.873,21.432c-1.568,11.258,9.212,22.451,22.206,24.097c13.377,1.693,26.642,3.968,39.318,8.838
		c12.655,4.862,25.684,7.912,39.233,9.243c13.775,1.354,27.475,3.534,41.185,5.507c11.76,1.691,23.253,4.679,35.669,8.202
		c-4.378-8.669,2.265-12.021,7.085-16.711c-7.362-0.216-14.115,0.439-20.475-2.767c-22.802-11.492-46.238-21.753-68.227-34.816
		c-10.638-6.319-21.826-10.53-34.212-11.631C272.11,754.381,266.372,753.247,259.481,752.227z M506.632,870.367
		c-0.448-1.631-2.434-3.944-0.152-4.786c4.622-1.705,1.538-3.842,0.532-5.414c-1.441-2.252-2.64-4.563-3.631-7.022
		c-3.82-9.475-7.122-19.132-10.088-28.902c-7.46-24.579-13.618-49.45-17.366-74.904c-2.28-15.49-5.198-30.886-7.606-46.358
		c-2.11-13.561-4.22-27.134-5.298-40.828c-0.822-10.433-1.425-20.881-2.165-31.319c-1.27-17.898-2.706-35.785-3.815-53.693
		c-0.946-15.271-1.324-30.579-2.322-45.848c-1.781-27.241-3.324-54.51-3.591-81.793c-0.417-42.65-1.756-85.295-1.131-127.954
		c0.01-0.667-0.026-1.334-0.007-2c0.036-1.227-0.359-1.763-1.743-1.536c-2.692,0.441-5.27-0.496-7.874-0.959
		c-2.575-0.458-3.366,0.391-3.441,3.081c-0.408,14.649-0.794,29.284-0.457,43.952c0.707,30.809,0.941,61.628,1.568,92.438
		c0.278,13.644,1.002,27.279,1.587,40.915c0.757,17.614,1.515,35.229,2.389,52.838c0.685,13.78,1.453,27.558,2.354,41.326
		c1.117,17.062,2.315,34.122,3.66,51.168c0.886,11.236,1.989,22.459,3.181,33.668c1.137,10.696,2.465,21.373,3.796,32.048
		c1.72,13.778,3.058,27.626,5.406,41.298c3.424,19.94,7.721,39.729,12.605,59.37c4.645,18.681,8.411,37.646,18.232,54.647
		c5.196,8.994,4.95,9.137,15.062,6.826C506.436,870.599,506.527,870.456,506.632,870.367z M316.169,619.381
		c-10.282,5.756-20.734,10.434-32.394,3.847c-0.667,0.717-0.056,1.275,0.065,1.871c0.556,2.721,0.328,6.044,1.849,8.022
		c2.286,2.974,4.788-1.26,7.418-1.089c0.496,0.032,1.029,0.085,1.493-0.052c6.986-2.059,14.232-1.119,21.298-1.374
		c16.599-0.598,33.442-3.146,49.901,3.232c0.94-4.577,1.871-9.105,2.882-14.027c-7.625,3.835-26.206,2.044-31.812-0.802
		c8.359,0.988,16.306,1.29,24.262,0.967c5.356-0.217,9.095-3.101,10.758-8.045c1.816-5.404,2.19-11.173,0.342-16.584
		c-4.45-13.021-6.751-26.72-12.735-39.266c-2.401-5.034-10.564-7.342-14.584-3.472c-9.648,9.29-29.889,9.204-38.849,2.189
		c-3.959-3.101-6.593-3.18-10.973-2.099c-2.949,0.729-3.802,1.863-4.906,4.241c-6.486,13.964-8.056,29.313-12.525,43.852
		c-4.354,14.163,8.308,26.378,21.707,23.447C305.131,622.979,310.384,620.302,316.169,619.381z M330.568,631.948
		c-8.481-0.828-19.407,0.983-30.392,1.089c-3.97,0.039-7.82,0.95-11.47,2.632c-1.618,0.745-2.507,1.228-1.977,3.597
		c1.148,5.134,1.863,10.412,2.21,15.667c0.896,13.561-2.203,26.201-9.559,37.708c-1.642,2.568-2.302,4.253,1.966,4.639
		c11.697,1.06,23.339,3.143,35.048,3.559c17.075,0.606,34.033-1.542,50.827-4.713c6.706-1.267,6.512-1.241,3.955-7.652
		c-5.834-14.63-8.814-29.673-6.264-45.512c1.06-6.582,0.054-7.962-6.567-9.667C350.044,631.157,341.56,631.582,330.568,631.948z
		 M331.765,774.443c0.909,1.781,2.278,2.01,3.404,2.564c13.341,6.573,26.942,12.671,39.962,19.828
		c12.755,7.012,25.591,6.229,38.837,2.769c1.917-0.501,3.924-1.156,4.836-3.097c3.398-7.23,6.173-14.979,4.309-22.812
		c-3.515-14.766-10.182-28.309-20.597-39.483c-7.202-7.728-16.249-12.706-27.357-11.128c-9.134,1.298-18.1,3.682-25.966,8.746
		c-12.481,8.036-16.32,21.857-10.188,35.415c0.606,1.34,0.737,2.741,3.052,2.081c5.876-1.676,11.995-2.063,18.031-2.905
		c8.803-1.227,17.134,0.806,25.535,2.865C367.282,766.293,349.47,768.044,331.765,774.443z M257.963,721.101
		c5.583-0.943,10.35-1.403,14.929-2.587c13.974-3.613,25.633,1.396,36.511,9.405c4.858,3.576,7.207,8.411,6.633,14.625
		c-0.55,5.953-1.997,11.632-4.164,17.185c-0.512,1.311-3.118,3.021-1.008,3.996c2.404,1.112,4.331,4.647,8.222,1.878
		c5.711-4.065,9.732-3.142,14.184,2.188c0.315,0.378,0.598,0.793,0.833,1.224c0.661,1.212,1.394,2.551,3.015,1.697
		c1.609-0.847,0.147-2.006-0.043-3.009c-0.12-0.63-0.407-1.23-0.642-1.836c-6.682-17.275,2.437-31.109,14.952-37.355
		c9.934-4.958,20.502-8.01,32.204-7.582c-1.478-2.687-3.676-4.537-3.659-7.64c0.026-5.203-2.37-9.849-4.15-14.604
		c-0.429-1.146-0.928-2.318-2.836-1.789c-6.842,1.899-13.917,2.487-20.931,3.42c-12.172,1.618-24.408,3.075-36.663,2.391
		c-11.196-0.626-22.344-2.273-33.482-3.719c-4.095-0.531-6.737,0.056-7.983,4.612c-2.041,7.461-6.196,13.371-13.961,15.992
		C259.5,719.736,259.17,720.157,257.963,721.101z M373.6,583.549c4.12,8.838,10.994,13.227,19.307,15.954
		c5.906,1.938,11.652,4.36,17.497,6.493c7.554,2.757,13.734-0.256,16.617-7.833c2.322-6.103,0.097-11.711-1.75-17.295
		c-6.027-18.222-15.409-35.229-19.877-53.998c-1.72-7.224-5.197-13.602-7.875-20.65c-1.3,1.144-2.922,1.862-3.176,2.912
		c-1.511,6.225-7.229,8.442-11.217,12.291c-0.239,0.231-0.574,0.433-0.685,0.717c-1.241,3.213-3.624,2.505-5.641,1.307
		c-2.711-1.611-6.096-2.772-5.799-7.127c0.138-2.025-2.028-3.812-3.301-2.321c-1.455,1.705-2.988,4.709-0.938,7.249
		c4.472,5.536,9.228,11.536,16.356,12.854c6.228,1.151,7.945,5.073,10.018,9.656c4.558,10.084,5.045,21.021,6.862,31.683
		c0.331,1.94,0.964,3.887,0.916,5.817c-0.045,1.789,2.126,3.396-0.16,6.025c-3.124-9.928-2.501-20.479-11.449-27.922
		c-9-7.485-18.541-7.927-30.017-6.969c8.081,13.138,9.141,28.092,15.006,41.759C378.402,590.016,371.998,587.851,373.6,583.549z
		 M448.486,852.007c9.366,0.074,11.829-1.411,14.291-7.582c1.271-3.189,2.365-6.499,3.077-9.852
		c1.539-7.254-1.604-13.732-8.131-17.604c-2.969-1.76-6.087-3.111-9.427-3.999c-5.567-1.479-10.45-3.975-13.35-9.314
		c-0.978-1.799-2.834-2.204-4.603-2.582c-11.867-2.534-22.408,0.635-31.992,7.636c-4.705,3.437-5.574,8.319-2.08,12.84
		c1.674,2.165,3.548,4.187,6.029,5.727c4.204,2.61,8.086,5.696,11.721,9.15C424.369,846.261,437.43,849.92,448.486,852.007z
		 M454.681,234.061c4.59,0.655,7.117-0.061,7.632-5.91c0.892-10.136,3.039-20.172,4.858-30.215
		c3.894-21.502,7.946-42.976,11.866-64.473c1.808-9.911,1.736-9.925-8.018-10.465c-6.997-0.387-6.998-0.387-7.998,6.508
		c-0.024,0.164,0.007,0.336-0.02,0.498c-2.75,16.865-5.545,33.722-8.244,50.595c-2.627,16.417-5.15,32.85-7.733,49.273
		c-0.396,2.521,0.707,3.748,3.176,3.903C451.693,233.869,453.188,233.966,454.681,234.061z M195.419,122.894
		c-3.582,0.447-6.228,1.108-8.848,1.021c-3.409-0.113-3.827,1.354-3.384,4.245c2.992,19.53,6.039,39.056,8.75,58.626
		c1.948,14.059,3.405,28.184,5.073,42.28c0.165,1.39,0.548,3.088,2.193,2.587c3.623-1.104,7.283-0.391,10.905-0.751
		c2.207-0.219,2.503-1.006,2.217-3.224c-1.306-10.143-2.07-20.355-3.439-30.488c-3.176-23.504-6.606-46.974-9.883-70.465
		C198.617,123.951,197.596,122.297,195.419,122.894z M324.88,511.269c0-0.028,0-0.058,0-0.087c5.494,0,10.987-0.033,16.481,0.018
		c2.178,0.02,3.284-0.276,3.901-3.034c1.389-6.207,0.725-12.238-0.371-18.248c-1.799-9.873-8.257-15.619-18.165-16.714
		c-7.746-0.855-15.819,4.369-19.752,12.396c-3.598,7.343-3.034,15.118-2.913,22.872c0.039,2.476,1.812,2.821,3.838,2.81
		C313.56,511.246,319.22,511.269,324.88,511.269z M381.868,77.323c6.039-0.282,12.077-0.766,18.118-0.81
		c16.99-0.122,33.981-0.02,50.971-0.161c1.281-0.011,3.764,1.478,3.966-1.35c0.232-3.259-2.526-1.943-3.972-1.944
		c-79.961-0.045-159.922-0.018-239.882,0.004c-0.832,0.001-1.666-0.02-2.493,0.043c-1.306,0.098-1.615,1.057-1.534,2.113
		c0.096,1.245-0.552,2.785,0.948,3.574c0.503,0.265,1.436,0.261,1.901-0.04c3.072-1.982,3.047-2.029,4.856-2.031
		c6.664-0.008,13.328-0.008,19.991-0.013c7.33-0.006,14.696-0.465,21.98,0.114c6.462,0.514,13.091-2.092,19.611,1.77
		c1.537,0.91,5.864-0.121,9.025-0.052c29.799,0.654,59.618,0.427,89.431,0.451c5.725,0.005,11.449,0,17.173,0
		c0.014-0.419,0.026-0.839,0.039-1.258C388.577,78.344,385.206,78.32,381.868,77.323z M254.977,821.881
		c31.455-1.744,62.376-3.702,93.105-8.468c-7.117-1.401-14.271-2.309-21.389-3.437c-9.758-1.547-19.66-1.906-29.371-3.891
		c-7.78-1.59-14.878-5.147-22.46-7.288c-1.631-0.461-3.186-1.232-4.752-0.481c-5.898,2.827-12.407,2.674-18.703,3.923
		C259.086,808.216,259.759,811.654,254.977,821.881z M211.454,792.205c2.31,3.66,4.643,6.287,8.317,6.343
		c5.411,0.081,6.252,3.588,6.142,7.565c-0.119,4.272-0.689,8.562-1.423,12.78c-1.081,6.215-3.386,11.974-8.941,17.438
		c13.92-2.729,25.446-6.819,35.633-14.695c6.253-4.834,6.708-12.546-0.034-16.567c-1.149-0.686-1.747-1.544-2.035-2.602
		c-1.031-3.774-3.771-4.62-7.188-4.469c-3.217,0.142-6.304-0.445-8.896-2.393C226.617,790.79,219.407,791.993,211.454,792.205z
		 M395.696,563.576c-0.217-8.924-2.72-17.138-7.118-24.792c-0.483-0.84-0.844-1.68-2.107-1.79
		c-9.48-0.828-14.743-8.05-20.858-13.944c-0.683-0.657-1.219-1.623-1.464-2.541c-0.421-1.582,0.431-4.169-2.65-3.439
		c-3.153,0.747-1.407,3.336-1.209,4.896c0.641,5.04-0.755,7.312-5.681,9.235c-2.139,0.834-4.207,0.771-6.335,0.786
		c-7.063,0.047-7.721,0.969-6.345,8.096c0.778,4.031,3.409,6.225,6.804,7.874c5.282,2.567,10.985,2.424,16.54,1.961
		C377.941,548.86,387.832,553.466,395.696,563.576z M254.927,564.093c0.488,0.386,0.977,0.771,1.465,1.157
		c1.17-1.576,2.291-3.192,3.519-4.723c4.218-5.256,9.422-8.163,16.4-8.95c6.009-0.679,11.961,0.339,17.904-0.556
		c6.711-1.01,13.469-4.889,12.856-13.964c-0.155-2.297-0.61-3.205-3.085-3.119c-3.624,0.125-7.213,0.034-10.869-0.774
		c-4.864-1.076-6.649-3.575-6.209-8.376c0.172-1.872,0.766-3.532,1.29-5.259c0.274-0.903,1.926-2.087-0.413-2.444
		c-1.276-0.195-2.833-0.425-2.766,1.713c0.043,1.371-0.133,2.686-1.127,3.716c-5.814,6.025-10.736,13.249-19.586,15.304
		c-1.679,0.391-2.574,1.056-3.273,2.528C257.451,547.887,255.672,555.858,254.927,564.093z M562.707,896.399
		c-11.761-5.9-23.559-8.343-35.668-9.074c-6.565-0.397-13.273,1.111-19.79,0.471c-6.284-0.617-11.94,1.042-17.723,2.503
		c-1.886,0.478-5.131,0.825-5.04,3.168c0.077,2,3.081,2.666,5.074,3.482c0.3,0.123,0.655,0.104,0.965,0.21
		c18.211,6.242,36.914,6.904,55.776,4.467C551.558,900.947,557.02,900.131,562.707,896.399z M175.706,887.597
		c-1.36-2.682-3.82-3.072-5.976-3.551c-15.238-3.385-30.772-4.314-46.265-3.749c-8.403,0.307-16.768,2.753-23.947,8.104
		C113.939,897.732,158.389,897.23,175.706,887.597z M308.999,528.251c0,3.636,0.087,6.63-0.022,9.617
		c-0.13,3.498-0.615,7.092-3.328,9.521c-2.461,2.203-1.372,3.417,0.353,5.169c4.083,4.147,9.524,4.344,14.681,5.121
		c8.575,1.292,16.297-1.044,23.083-6.436c1.431-1.137,2.429-2.229,0.321-3.832c-3.669-2.788-4.335-6.821-4.24-11.116
		c0.056-2.55,0.01-5.103,0.01-7.928C325.603,537.11,320.754,537.112,308.999,528.251z M302.666,510.999
		c-1.174-7.142-1.219-13.922,0.515-20.513c5.514-20.967,25.251-22.724,35.316-14.808c9.499,7.472,9.96,18.732,8.974,29.886
		c-0.158,1.78-1.359,4.067,0.188,5.107c2.062,1.385,4.826,0.541,7.277,0.304c1.078-0.104,1.035-1.06,0.795-1.926
		c-2.935-10.607-3.352-21.672-6.439-32.326c-3.402-11.735-19.145-18.484-28.928-14.447c-7.031,2.901-12.14,7.897-16.104,14.138
		c-6.275,9.876-6.831,21.443-9.235,32.456c-0.308,1.41,0.203,2.188,1.776,2.142C298.61,510.958,300.422,510.999,302.666,510.999z
		 M224.117,808.633c-0.469-3.268,1.097-7.548-2.969-7.962c-5.364-0.547-8.503-3.714-12.064-6.936
		c-3.146-2.846-6.875-2.48-8.345,0.765c-2.872,6.339-4.32,12.959-3.173,20.075c0.538,3.337,2.341,5.654,4.853,7.04
		c3.285,1.812,4.65,4.625,5.467,7.803c0.636,2.47,1.065,5.545,3.604,5.919c2.581,0.381,4.686-1.876,6.256-4.212
		C222.436,824.15,223.147,816.137,224.117,808.633z M323.589,533c7.9-0.101,16.326-5.961,18.832-13.004
		c0.563-1.584,1.145-2.972-1.38-2.976c-10.781-0.018-21.562,0.008-32.343-0.035c-1.579-0.007-1.929,0.542-1.705,2.062
		C307.962,525.636,316.757,533.086,323.589,533z M472.56,89.341c-1.81,8.585-3.524,16.723-5.294,25.116
		c4.111,0.192,8.059,0.159,11.943,0.638c2.494,0.308,3.279-0.875,3.715-2.816c1.33-5.931,2.617-11.872,3.933-17.807
		c0.591-2.669-0.494-3.515-3.153-3.465C479.917,91.078,476.018,91.499,472.56,89.341z M520.865,885.991
		c5.384-0.438,6.887-2.341,5.766-7.567c-0.762-3.555-2.026-6.101-6.483-5.375c-2.421,0.394-4.966,0.022-7.454,0.008
		c-6.241-0.037-6.22-0.036-5.713,5.866c0.113,1.319,0.172,2.676-0.007,3.979c-0.328,2.388,0.526,3.246,2.96,3.133
		C513.57,885.865,517.221,885.991,520.865,885.991z M297.957,516.888c-2.21,0.771-5.142-1.28-6.828,1.141
		c-2.087,2.997-3.35,6.568-2.121,10.242c1.147,3.427,4.691,3.163,7.432,3.626c2.576,0.435,5.282,0.121,7.93,0.086
		c1.102-0.015,2.37,0.229,2.593-1.491c0.551-4.237-0.417-8.28-2.164-12C303.435,515.586,300.291,517.588,297.957,516.888z
		 M187.309,68.107c-2.607,0.988-4.988,2.38-7.255,5.001c0.901-6.176-3.188-3.066-4.699-2.781c-4.396,0.832-1.704,4.054-2.023,6.149
		c6.196-0.261,11.843-2.042,17.741-0.212c3.748,1.164,7.585,2.257,11.596,2.411c2.871,0.111,3.119-1.742,3.341-3.874
		c0.23-2.215-0.702-2.857-2.82-2.881c-2.644-0.029-5.296-0.35-7.922-0.71c-2.988-0.411-5.793-0.716-5.859,4.559
		C187.945,72.603,189.236,69.978,187.309,68.107z M347.641,530.18c2.748-0.4,5.621,0.23,8.239-1.303
		c2.065-1.209,3.6-3.075,2.931-5.168c-0.697-2.185,0.443-5.336-2.335-6.533c-6.467-2.786-12.118,0.379-13.496,7.335
		C341.787,530.529,341.787,530.529,347.641,530.18z M473.396,87.369c7.303,3.853,13.085,3.168,17.264-1.757
		c-1.548-1.146-4.727,1.794-4.543-0.328c0.37-4.307-2.338-1.841-3.616-2.311c-1.067-0.393-2.568,0.57-3.594-1.219
		c3.017-1.563,6.255-1.466,9.202-2.376c-7.108-0.125-14.523-2.067-20.868,3.579c2.885,2.564,6.796,1.808,10.305,3.693
		C475.996,86.92,475.057,87.082,473.396,87.369z M469.535,70.741c-3.608,0.181-6.91,0.366-10.214,0.506
		c-3.095,0.132-2.298,2.749-2.734,4.443c-0.305,1.182-0.49,3.106,1.465,2.984c4.162-0.26,8.264,1.096,12.54-0.406
		c3.277-1.15,2.64-3.74,2.794-5.608C473.623,69.792,470.659,71.361,469.535,70.741z M163.618,70.801
		c-0.001,0.043-0.002,0.086-0.003,0.129c-2.156,0-4.324-0.143-6.466,0.035c-2.797,0.231-2.125,2.511-2.112,4.221
		c0.01,1.342-0.669,3.285,1.774,3.334c4.437,0.091,8.879,0.771,13.194-1.29c1.786-0.854,2.137-1.925,1.917-3.479
		c-0.223-1.574-0.958-2.883-2.812-2.938C167.28,70.758,165.449,70.801,163.618,70.801z M384.312,517.658
		c0.476-0.067,0.952-0.134,1.428-0.201c0.415-5.866,1.021-11.729,1.17-17.603c0.08-3.164-3.096-3.377-5.028-3.233
		c-2.315,0.172-3.726,2.249-2.929,4.802C380.649,506.862,382.515,512.249,384.312,517.658z M264.535,519.821
		c1.69-7.16,3.15-13.009,4.416-18.9c0.423-1.97-0.198-3.847-2.655-3.839c-2.114,0.006-5.422,0.695-5.013,2.739
		C262.502,505.911,260.715,512.431,264.535,519.821z M501.726,71.214c0-0.052,0-0.104,0-0.155c-0.997,0-1.994-0.033-2.989,0.007
		c-2.377,0.095-4.881-0.665-4.883,3.537c-0.003,4.315,2.71,3.263,4.911,3.339c2.789,0.097,5.589-0.083,8.384-0.153
		c2.198-0.056,2.733-1.508,2.801-3.354c0.069-1.917-0.474-3.275-2.742-3.229C505.381,71.244,503.553,71.214,501.726,71.214z
		 M474.372,77.347c4.938,0,9.583-0.114,14.219,0.046c2.479,0.086,3.689-0.606,3.656-3.27c-0.031-2.44-1.191-3.12-3.42-3.045
		c-2.653,0.09-5.349,0.203-7.966-0.147C476.436,70.338,474.283,72.016,474.372,77.347z M266.234,521
		c4.602-5.155,7.365-10.493,10.531-15.503c1.308-2.07,0.293-4.515-2.24-5.418c-2.628-0.938-3.845,0.797-4.362,3.08
		C268.888,508.785,267.677,514.426,266.234,521z M382,520.145c0.267-0.154,0.533-0.31,0.8-0.464
		c-1.636-5.764-3.465-11.482-4.825-17.311c-0.646-2.765-2.012-3.18-4.172-2.326c-2.448,0.967-3.584,2.951-2.074,5.28
		C374.995,510.366,378.559,515.217,382,520.145z M283.986,508.538c0.464-2.051-0.825-3.628-2.768-4.388
		c-2.304-0.9-2.519,1.588-3.326,2.764c-2.324,3.389-4.636,6.819-6.536,10.451c-0.847,1.62-4.028,3.635-1.47,5.233
		c1.516,0.947,3.877-1.769,5.462-3.469c0.792-0.85,0.59-1.841,0.649-2.807c0.212-3.464,2.675-5.46,5.479-5.003
		C284.429,511.801,283.994,510.533,283.986,508.538z M379.534,522.712c0.366-0.328,0.733-0.655,1.1-0.983
		c-3.538-5.234-7.128-10.435-10.579-15.726c-0.91-1.395-1.673-2.564-3.462-1.52c-1.923,1.123-2.543,3.018-2.323,5.062
		c0.18,1.668,0.996,2.002,2.977,1.726c2.454-0.344,5.528,1.289,5.517,3.811C372.737,520.219,376.296,521.117,379.534,522.712z
		 M215.963,254.511c-0.051,0-0.102,0.001-0.152,0.001c0-2.812,0.023-5.623-0.013-8.434c-0.013-1.001-0.163-2.161-1.36-2.305
		c-0.717-0.086-1.962,0.252-2.191,0.755c-1.075,2.354-1.967,5.601,0.542,6.837c3.735,1.841,2.294,3.51,0.556,5.122
		c-2.204,2.045-1.233,4.24-0.89,6.432c0.167,1.061,1.045,1.679,2.166,1.675c1.511-0.006,1.307-1.222,1.325-2.137
		C215.996,259.809,215.963,257.159,215.963,254.511z M318.669,768.204c3.179,1.739,5.864,3.334,8.663,4.696
		c1.81,0.881,3.835,0.335,5.024-1.011c1.63-1.843-0.688-2.998-1.608-4.011C327.282,764.065,324.493,764.162,318.669,768.204z
		 M388.403,515.054c0.776-0.37,1.483-0.489,1.558-0.774c1.314-5.026,2.646-10.054,3.737-15.131c0.258-1.197-0.839-2.015-2.207-2.141
		c-1.503-0.139-2.957,0.237-2.846,1.874C389.005,504.177,387.265,509.471,388.403,515.054z M146.842,899.024
		c-4.792-1.006-9.191-1.172-13.635-0.372c-1.29,0.232-2.705,0.16-2.315,2.252c0.336,1.806,1.559,2.032,2.935,1.898
		C138.161,902.38,142.87,903.382,146.842,899.024z M530.814,909.711c-6.416-3.779-12.377-5.301-18.931-3.45
		C517.624,908.76,523.354,911.297,530.814,909.711z M280.318,580.28c-1.814,3.436-3.433,6.996-5.511,10.264
		c-1.411,2.219,0.047,3.263,1.344,3.869c2.029,0.948,1.669-1.361,2.184-2.279C280.376,588.492,280.106,584.331,280.318,580.28z
		 M215.103,238.749c-0.644-2.025,1.179-5.251-2.866-5.684c-2.066-0.221-2.338,1.46-2.006,2.528c0.7,2.257-0.349,5.724,3.175,6.325
		C216.167,242.391,214.608,239.942,215.103,238.749z M216.819,271.831c-0.821-1.55,0.96-4.863-1.887-5.027
		c-2.555-0.146-2.011,2.914-1.956,4.741c0.047,1.577-0.669,4.045,2.028,4.141C217.717,275.782,216.645,273.503,216.819,271.831z"/>
	<path fill-rule="evenodd" clip-rule="evenodd" d="M163.572,860.847c-2.417,3.379-5.648,3.419-10.702,2.052
		c4.11-2.592,7.683-1.137,10.72-1.982C163.588,860.9,163.572,860.847,163.572,860.847z"/>
</g>
</svg>
