<?xml version="1.0" encoding="utf-8"?>
<!-- Generator: Adobe Illustrator 16.0.0, SVG Export Plug-In . SVG Version: 6.00 Build 0)  -->
<!DOCTYPE svg PUBLIC "-//W3C//DTD SVG 1.1//EN" "http://www.w3.org/Graphics/SVG/1.1/DTD/svg11.dtd">
<svg version="1.1" id="YvfFyKKpqhA8YBCfxv6hrBcw5qg-g8JPy3lOhpPD2tA_xA0_Image_1_"
	 xmlns="http://www.w3.org/2000/svg" xmlns:xlink="http://www.w3.org/1999/xlink" x="0px" y="0px" width="640px" height="960px"
	 viewBox="0 0 640 960" enable-background="new 0 0 640 960" xml:space="preserve">
<g>
	<path fill="none" d="M1,480.5c0-158.333,0.016-316.667-0.094-475C0.903,1.751,1.751,0.904,5.5,0.906
		c210.333,0.105,420.667,0.105,631,0c3.749-0.002,4.595,0.845,4.593,4.594c-0.101,317-0.101,634,0,951
		c0.002,3.749-0.844,4.596-4.593,4.594c-210.333-0.105-420.667-0.105-631,0c-3.749,0.002-4.597-0.845-4.594-4.594
		C1.016,797.833,1,639.167,1,480.5z M415.093,123.821c-2.149-0.385-2.091-3.755-4.227-3.607c-4.9,0.339-9.604,1.713-14.034,3.904
		l0.184-0.186c-2.89,2.239-7.403,2.485-8.359,7.152c-0.278,1.356-1.994,0.891-3.093,0.894c-13.165,0.03-26.331-0.03-39.496,0.063
		c-2.401,0.017-3.27-0.759-3.09-3.145c0.447-5.963,0.407-11.989,1.309-17.876c0.362-2.363,0.42-5.118,4.519-6.566
		c5.462-1.929,8.232-17.526,2.87-20.975c-1.876-1.207-1.864-2.179-1.75-3.844c0.481-7.009-0.078-13.857-2.893-20.435
		c-4.173-9.752-10.912-16.794-21.691-18.045c-11.355-1.317-20.835,3.13-27.42,12.591c-5.103,7.331-6.276,15.823-5.988,24.612
		c0.056,1.702,0.721,3.426-1.675,5.071c-5.11,3.509-3.14,19.19,2.771,21.236c3.099,1.072,3.397,2.69,4.053,5.091
		c1.75,6.397,0.279,12.967,1.293,19.386c0.348,2.203-0.726,2.895-2.853,2.883c-11.665-0.065-23.331-0.065-34.996-0.003
		c-1.957,0.011-2.516-0.69-2.581-2.604c-0.126-3.693-1.924-5.765-5.757-4.088c-1.534,0.671-1.781,0.168-2.636-0.833
		c-3.584-4.198-9.792-1.975-13.809-5.386c-0.292-0.247-1.549,0.427-2.219,0.879c-2.519,1.702-5.457,2.169-8.258,3.091
		c-2.433,0.801-5.25,1.069-7.016,3.245c-3.427,4.224-7.661,6.212-13.193,5.716c-5.936-0.532-11.904-0.715-17.858-1.044
		c-3.651-0.201-7.714,1.021-10.173-3.171c-0.404-0.689-1.311-0.674-2.233-0.344c-8.795,3.145-17.964,2.55-27.054,2.466
		c-4.315-0.039-6.297,1.441-6.171,6.045c0.108,3.954,0.286,6.361,5.547,6.198c7.944-0.247,12.283,3.566,13.677,10.571
		c1.154,5.801,2.143,11.635,3.162,17.461c0.389,2.222-2.334,9.66-4.104,11.45c-2.702,2.732-0.864,10.248,2.216,12.439
		c3.188,2.267,7.037,3.961,8.061,8.798c6.013,28.417,12.317,56.771,18.513,85.149c0.304,1.392,1.091,2.939-0.661,3.959
		c-3.826,2.229-3.352,6.005-2.863,9.315c1.666,11.284,3.07,22.585,3.937,33.96c0.371,4.878,3.088,6.887,7.258,4.952
		c3.963-1.838,4.839-0.377,5.754,3.195c5.204,20.324,10.582,40.604,16.049,60.859c0.721,2.67,1.818,4.871-1.426,6.686
		c-1.2,0.671-0.861,2.396-0.372,3.682c3.522,9.241,5.203,18.975,7.411,28.547c2.863,12.415,5.408,24.878,2.441,37.803
		c-0.775,3.377-0.648,7.217,0.527,10.858c0.751,2.327,0.793,5.021-0.074,7.389c-5.926,16.17-6.985,33.204-8.452,50.071
		c-1.626,18.703-2.822,37.495-2.997,56.26c-0.214,22.994-1.095,45.974-1.143,68.963c-0.105,50.495-0.058,100.99,0.023,151.484
		c0.005,3.354-0.551,5.096-4.318,6.239c-8.05,2.442-14.818,7.145-19.754,14.221c-8.17,11.711-10.5,29.372-1.466,40.26
		c14.039,16.918,44.43,25.224,66.303,6.979c19.199-16.013,15.727-45.032-2.42-56.826c-5.473-3.558-11.564-5.45-17.854-6.746
		c-1.73-0.356-2.466-0.737-2.609-2.692c-0.448-6.139-0.964-12.252-0.958-18.428c0.026-28.994,0.4-57.98,0.935-86.97
		c0.568-30.821-0.097-61.65,0.5-92.481c0.881-45.476,1.368-90.962-0.23-136.439c-0.204-5.805-0.714-11.658,1.157-17.486
		c0.905,1.291,1.322,2.607,1.708,4.025c2.034,7.476,3.091,15.143,4.651,22.707c1.99,9.646,4.607,19.161,6.727,28.783
		c0.703,3.189-1.46,7.968,4.992,7.227c0.379-0.044,1.205,2.164,1.511,3.4c1.73,7.014,3.373,14.048,5.032,21.079
		c6.074,25.737,10.375,51.85,16.708,77.549c2.376,9.64,4.784,19.387,1.729,30.068c-2.779,9.718,0.574,16.557,13.766,15.413
		c6.788-0.588,13.55-1.071,20.362-0.943c5.498,0.104,11.008,0.166,16.458-0.738c1.887-0.313,3.582,0.094,5.337,0.685
		c6.717,2.264,13.687,2.377,20.644,2.017c6.608-0.342,11.078-3.815,12.05-8.407c2.411-11.399,4.72-22.832,7.567-34.126
		c7.806-30.964,15.85-61.868,23.861-92.78c0.707-2.727-0.113-7.495,5.62-4.856c1.086,0.5,1.656-1.222,1.925-2.408
		c0.255-1.126-0.66-2.56,1.365-3.768c-0.8,14.189-1.91,27.943-2.289,41.717c-1.204,43.785-1.613,87.587-2.929,131.373
		c-0.721,23.962-1.194,47.932-2.003,71.897c-0.864,25.624-1.003,51.271-1.974,76.9c-0.174,4.567-1.312,6.315-5.74,7.698
		c-9.484,2.964-16.081,9.474-17.266,19.684c-1.02,8.789,3.978,15.386,10.694,20.127c20.867,14.73,43.195,13.944,64.453,2.692
		c14.372-7.607,14.625-23.773,1.551-33.61c-9.208-6.929-19.647-10.495-30.884-12.109c-2.564-0.368-3.883-1.089-4.114-4.253
		c-0.497-6.813-0.373-13.532-0.129-20.368c0.965-26.939,2.438-53.864,3.14-80.806c0.688-26.468,1.657-52.943,1.85-79.408
		c0.237-32.644,1.614-65.292,0.534-97.935c-0.678-20.484-0.015-40.968-0.912-61.467c-0.928-21.169-0.219-42.369,2.634-63.502
		c2.537-18.8,8.319-37.039,8.845-56.203c0.214-7.809,2.465-15.569,3.893-23.333c2.052-11.152,4.278-22.273,6.255-33.439
		c0.555-3.134,1.208-4.469,4.982-3.412c6.595,1.846,7.776,0.423,8.1-6.688c0.444-9.786,1.338-19.553,1.759-29.34
		c0.159-3.692,1.921-8.297-1.536-10.852c-2.999-2.216-2.541-4.53-2.22-7.098c0.921-7.356,1.845-14.723,3.125-22.022
		c3.18-18.132,6.209-36.303,10.069-54.293c1.153-5.375-0.826-12.567,6.317-15.765c0.29-0.13,0.395-0.891,0.415-1.365
		c0.092-2.124,1.085-2.997,3.229-3.654c2.741-0.84,4.647-9.779,2.604-11.319c-4.149-3.128-4.868-7.624-4.716-12.181
		c0.157-4.732-0.574-10.949,2.042-13.842c5.442-6.02,12.018-11.889,21.035-12.33c3.176-0.156,4.144-1.255,3.853-4.166
		c-0.132-1.319-0.14-2.677,0.001-3.994c0.332-3.119-1.078-4.076-4.065-3.984c-5.651,0.173-11.313-0.036-16.967,0.083
		c-12.242,0.257-24.528-0.979-36.702,1.791c-3.208,0.73-7.95,1.755-10.04-0.632c-3.336-3.811-8.59-4.023-11.696-7.896
		c-1.565-1.951-4.097-2.279-5.641,0.7L415.093,123.821z"/>
	<path fill-rule="evenodd" clip-rule="evenodd" fill="none" d="M320.612,328.135c-16.967,1.1-33.959,0.539-50.941,0.736
		c-3.776,0.044-4.818-0.479-4.14-5.062c2.244-15.185,5.667-30.375,4.367-45.842c-1.255-14.939-4.317-29.621-8.405-44.061
		c-4.574-16.157-5.99-32.662-2.274-48.977c3.397-14.919,11.132-27.886,23.158-37.812c3.514-2.9,7.43-1.945,10.809,1.484
		c5.168,5.247,11.983,8.158,18.892,9.104c14.134,1.935,27.446,0.035,38.099-11.353c2.934-3.136,8.093-0.161,10.293,2.038
		c9.556,9.55,18.979,19.429,22.007,33.384c2.561,11.796,1.835,23.611,0.973,35.551c-0.938,13.005-6.997,24.662-8.761,37.337
		c-2.055,14.768-3.584,29.576-1.899,44.57c0.941,8.378,1.88,16.746,3.204,25.069c0.564,3.547-0.504,4.784-4.445,4.816
		C354.556,329.256,337.612,327.188,320.612,328.135z"/>
	<path fill-rule="evenodd" clip-rule="evenodd" fill="none" d="M319.961,383.146c0,8.032-0.203,15.797,0.048,23.547
		c0.357,11.014-1.831,21.686-3.663,32.432c-0.499,2.927-0.514,5.968-0.456,8.951c0.079,4.062-2.33,5.617-5.775,5.787
		c-12.912,0.639-25.814,2.431-38.76,0.191c-3.175-0.549-4.591-1.88-5.502-5.141c-4.479-16.026-5.722-32.432-6.993-48.919
		c-1.083-14.048,1.709-27.658,2.971-41.449c0.724-7.915,1.633-15.819,2.078-23.75c0.172-3.061,1.133-4.033,4.122-4.005
		c35.143,0.337,70.291-1.51,105.431,0.229c1.468,0.072,3.196-0.71,3.596,2.073c2.914,20.33,5.805,40.69,5.836,61.252
		c0.029,19.078-3.765,37.737-7.865,56.307c-0.843,3.818-4.226,3.93-6.547,4.089c-12.559,0.863-25.12,2.136-37.71-0.569
		c-4.799-1.032-6.677-3.017-6.828-7.801c-0.622-19.749-2.873-39.439-2.1-59.242C321.896,385.76,322.327,384.086,319.961,383.146z"/>
	<path fill-rule="evenodd" clip-rule="evenodd" fill="none" d="M441.62,245.784c-1.539,11.401-2.947,22.823-4.686,34.193
		c-0.669,4.375,0.227,8.891-4.343,12.723c-3.012,2.526-2.157,8.385-2.526,12.782c-1.465,17.456-2.941,34.896-5.848,52.197
		c-2.265,13.48-4.18,27.02-6.189,40.542c-0.2,1.345-0.132,3.253-1.499,3.378c-4.434,0.406-3.365,3.516-3.546,6.185
		c-1.284,18.959-5.272,37.451-9.332,55.964c-1.936,8.826-1.612,17.996-4.253,26.874c-3.553,11.943-5.784,24.276-8.783,36.392
		c-1.105,4.469-2.013,9.824-0.42,13.223c3.227,6.887,0.95,12.783-0.403,19.028c-1.461,6.739-3.234,13.411-4.884,20.109
		c-6.71,27.25-14.4,54.235-21.897,81.272c-0.242,0.873-0.572,1.516-1.562,2.094c-1.791-4.4-3.149-8.791-3.521-13.589
		c-0.594-7.668-0.062-15.435-3.437-22.862c-1.182-2.601,0.271-6.454,0.688-9.715c2.237-17.507,7.61-34.334,11.239-51.54
		c2.972-14.086,3.496-28.208,0.858-42.414c-1.932-10.398-0.925-20.788,0.136-31.199c2.162-21.206,11.361-40.793,14.011-61.894
		c2.042-16.268,4.284-32.395,2.919-48.971c-1.345-16.328-3.361-32.549-5.378-48.782c-1.466-11.802-3.187-23.57-4.716-35.364
		c-0.276-2.136-0.271-4.321-0.235-6.482c0.315-19.39,1.621-38.617,8.665-57.009c1.268-3.308,1.728-6.925,2.714-11.044
		c3.967,6.821,9.048,12.004,14.075,17.277c2.835,2.974,4.56,6.804,5.589,10.922c1.458,5.83,4.659,10.435,9.905,13.689
		c7.991,4.957,16.23,2.836,20.614-5.691c1.878-3.653,3.498-7.445,4.414-11.477c0.254-1.121,0.685-1.365,1.64-0.808L441.62,245.784z"
		/>
	<path fill-rule="evenodd" clip-rule="evenodd" fill="none" d="M256.338,221.01c2.547,13.303,6.75,26.003,9.053,39.153
		c2.562,14.63,3.173,29.066,0.962,43.881c-2.116,14.177-4.398,28.364-5.48,42.717c-1.093,14.507-3.435,28.917-4.598,43.42
		c-0.5,6.227,0.563,12.583,0.973,18.878c1.498,23.021,8.429,44.849,13.981,67.052c3.957,15.825,4.543,32.35,1.923,48.847
		c-3.166,19.932-0.478,39.548,5.092,58.811c3.762,13.01,5.213,26.454,7.633,39.717c0.51,2.792-1.974,4.746-1.974,7.543
		c0,4.203-1.419,8.316-1.751,12.674c-3.371-13.151-6.921-26.26-10.07-39.465c-4.683-19.636-9.218-39.311-13.438-59.051
		c-0.562-2.628-3.963-7.267,2.532-8.424c1.464-0.261,0.351-1.548,0.079-2.407c-6.451-20.347-11.756-41.021-16.671-61.768
		c-4.425-18.676-7.763-37.61-11.504-56.445c-0.319-1.606-0.229-3.344-0.043-4.987c0.283-2.514-0.847-4.033-3.183-4.009
		c-3.102,0.032-3.407-2.128-3.8-4.168c-5.971-30.984-11.808-61.995-17.963-92.942c-0.61-3.065,1.19-5.149,1.522-7.768
		c0.753-5.935-0.743-10.517-4.455-14.83c-1.962-2.28-1.51-5.388-2.009-8.062c-4.158-22.305-8.02-44.665-11.961-67.01
		c-0.743-4.213-1.573-8.417-2.128-12.655c-0.539-4.111,2.239-7.559,3.807-10.773c1.435-2.943,1.342-5.428,0.925-7.854
		c-0.824-4.783-4.301-8.01-8.512-10.103c-1.38-0.686-2.014-1.2-2.321-2.682c-1.197-5.772-2.6-11.501-3.84-17.265
		c-0.434-2.017,0.411-3.226,2.348-4.329c8.806-5.019,18.358-4.996,28.021-4.746c2.739,0.071,3.067,1.683,3.547,3.786
		c2.821,12.357,1.59,24.464-1.301,36.674c-4.464,18.854-8.387,37.836-12.595,56.751c-0.469,2.109,0.167,3.979,0.888,5.788
		c2.596,6.508,3.951,13.749,10.277,18.147c8.423,5.856,19.289,3.662,22.793-5.979C238.154,243.214,249.719,233.864,256.338,221.01z"
		/>
	<path fill-rule="evenodd" clip-rule="evenodd" fill="none" d="M267.728,455.374c15.009,2.842,29.17,1.648,43.312-0.168
		c2.493-0.32,4.043-0.438,4.017,2.936c-0.157,20.51,0.594,41.096-6.975,60.763c-1.202,3.124,1.951,5.203,2.462,8.19
		c2.538,14.852,2.223,29.456-0.104,44.338c-2.421,15.477-5.192,31.023-3.504,46.895c0.874,8.218-0.072,8.767-8.203,6.646
		c-0.792-0.207-1.545-0.557-2.322-0.82c-2.835-0.96-6.467,1.46-8.66-1.501c-1.814-2.448-1.096-5.825-1.445-8.696
		c-1.936-15.899-6.594-31.177-9.937-46.749c-3.162-14.733-2.902-29.524-0.73-44.448c1.553-10.67,1.38-21.514-0.143-32.258
		c-0.343-2.419-1.241-4.745,0.538-7.104c1.001-1.328-0.185-2.797-0.72-4.132C272.268,471.67,269.831,463.892,267.728,455.374z"/>
	<path fill-rule="evenodd" clip-rule="evenodd" fill="none" d="M330.747,520.704c1.836,1.778,1.077,4.439,4.604,5.447
		c-9.587-23.221-8.666-47.194-10.472-71.424c16.32,4.172,32.374,2.967,48.796,1.123c-0.802,4.11-1.328,8.176-3.338,11.643
		c-5.244,9.047-4,19.173-5.446,28.882c-2.069,13.89,1.334,27.363,2.028,41.034c0.899,17.716-3.825,34.642-8.317,51.544
		c-2.755,10.36-4.604,20.876-5.563,31.538c-0.316,3.516-1.165,5.474-5.014,3.304c-3.396-1.915-6.393,0.333-9.493,1.04
		c-5.339,1.217-6.326,0.601-5.514-4.556c2.07-13.14,0.49-26.086-1.729-39.025C327.866,561.307,326.363,541.334,330.747,520.704z"/>
	<path fill-rule="evenodd" clip-rule="evenodd" fill="none" d="M406.575,811.121c-2.454,7.598-1.056,15.052-1.989,22.188
		c-0.439-0.007-0.878-0.014-1.317-0.021c-0.506-7.261-1.012-14.521-1.518-21.781c-0.092-0.014-0.185-0.028-0.276-0.042
		c-0.381,4.576-1.004,9.148-1.073,13.729c-0.069,4.599,0.32,9.199-1.131,13.714c4.146-102.258,2.725-204.675,9.685-306.873
		c0.102,2.277,0.203,4.554,0.305,6.831c0.156,0,0.312,0,0.467,0.001c0.051-0.959,0.068-1.921,0.16-2.876
		c0.17-1.771-0.417-4.414,1.5-4.885c2.615-0.643,1.051,3.163,3.053,3.682c0.215-0.525,0.517-1.263,0.81-1.978
		c0.813-0.025,0.702,0.581,0.796,1.03c3.575,17.213,0.615,34.719,2.34,52.028c1.142,11.462-0.039,22.974-0.146,34.459
		c-0.309,32.813-0.742,65.628-1.521,98.434c-0.779,32.787-1.92,65.567-3.2,98.339c-0.213,5.47-1.124,10.963-0.677,16.429
		c0.391,4.768-1.252,6.748-6.008,6.129c-0.964-0.125-1.957-0.018-3.067-0.307c2.625,0.143,3.188-2.829,5.39-3.249l-0.229-0.107
		c1.327,1.902,2.406,1.18,2.278-0.603c-0.646-8.96,1.69-17.858,0.622-27.002c-2.036,1.373-1.485,3.36-1.878,5.054
		c-0.884,3.815-0.11,7.92-2.027,11.548l0.123,0.04 M407.501,558.038c-0.427,1.907,0.002,4.149,0.223,6.45
		c0.573,5.978,6.732,7.841,8.956,13.328C417.91,568.637,417.454,561.006,407.501,558.038z M414.349,640.738
		c0.983-3.533,1.117-5.896,0.493-8.353c-0.756-2.973-3.6-1.715-5.337-2.702c-1.062-0.604-2.078,0.365-2.057,1.419
		c0.044,2.124,0.34,6.043,1.183,5.928C411.361,636.66,412.506,638.112,414.349,640.738z M414.894,607.463
		c1.396-1.352,1.054-3.051,0.944-4.624c-0.141-2.028-1.779-2.587-3.413-3.037c-0.837-0.23-1.77-0.249-2.13,0.652
		c-0.735,1.841,1.3,1.979,2.008,2.938C413.246,604.67,413.185,606.585,414.894,607.463z"/>
	<path fill-rule="evenodd" clip-rule="evenodd" fill="none" d="M345.726,97.935c-0.938,1.677-1.523,3.108-1.746,4.758
		c-1.373,10.157-5.995,15.119-16.159,16.154c-6.387,0.65-12.912,0.61-19.25-1.106c-6.108-1.655-9.392-5.958-10.383-11.898
		c-0.435-2.605-1.866-4.944-1.026-8.056c-3.32,1.054-1.234,3.925-3.151,5.312c-3.897-4.087-4.84-9.066-4.997-14.34
		c-0.042-1.415,0.739-3.199,1.621-3.268c1.668-0.129,2.122,1.651,2.357,3.16c0.167,1.062-0.398,2.39,1.565,3.226
		c0.667-2.068,0.234-3.934-0.003-5.974c-1.322-11.349-1.264-22.487,5.944-32.324c8.017-10.94,29.057-17.227,41.11-0.099
		c5.992,8.517,7.692,18.146,5.811,28.383c-0.496,2.698-0.71,5.348,0.247,9.203c1.27-2.654,2.001-4.186,2.764-5.78
		c2.841,4.204,1.921,13.63-1.548,16.991c-0.519,0.503-1.021,0.816-1.737,0.579c-1.083-0.359-1.056-1.109-0.646-1.959
		C346.96,99.942,347.245,99.022,345.726,97.935z"/>
	<path fill-rule="evenodd" clip-rule="evenodd" fill="none" d="M399.307,163.103c-3.703-4.463-7.775-8.677-10.996-13.464
		c-2.719-4.042-1.752-8.876-0.416-13.31c0.701-2.328,1.962-4.525,3.228-6.628c0.534-0.887,0.528-2.646,1.981-2.489
		c1.668,0.181,2.299,1.816,2.731,3.214c1.189,3.849-1.658,6.757-3.322,11.24c2.743-2.786,4.255-4.641,4.738,0.132
		c0.395,3.899,2.366,6.714,7.544,4.488c1.981-0.853,4.714-0.844,7.572,1.031c3.354,2.199,7.882-0.328,10.272-3.192
		c2.149-2.578,4.521-2.652,6.478-1.783c1.891,0.84,1.016,3.596,0.555,5.43c-2.048,8.14-4.847,16.161-3.604,24.766
		c1.622,11.23,4.09,22.29,6.477,33.379c2.137,9.931,5.431,19.613,6.509,29.772c0.838,7.891-1.838,15.014-5.382,21.719
		c-2.292,4.337-6.478,8.129-11.452,7.308c-6.348-1.05-11.306-5.33-14.067-11.454c-2.696-5.981-1.574-12.482-2.054-18.732
		c-1.082-14.114,1.627-28.206,0.83-42.323c-0.482-8.542-1.519-17.078-4.837-25.116c-0.49-1.188-0.789-2.55-2.131-3.189
		C399.742,163.634,399.524,163.368,399.307,163.103z"/>
	<path fill-rule="evenodd" clip-rule="evenodd" fill="none" d="M223.901,144.938c6.048,4.093,8.301,4.062,10.382-0.141l-0.172,0.16
		c2.816,2.521,6.699,1.326,9.917,2.798c1.343,0.614,2.909-1.494,4.239-2.819c1.92-1.913,0.011-6.292,4.445-6.52
		c0.639-0.032-0.354-1.308-0.737-1.977c-1.685-2.938-3.124-5.992-0.275-8.974c1.82-1.904,3.619-2.438,4.63,0.956
		c3.335,11.2,1.483,22.419-8.64,28.766c-3.502,2.196-7.382,5.142-8.687,9.802c-0.325,1.145-0.649,2.29-0.974,3.435
		c-3.698,7.611-4.824,15.792-3.796,23.989c1.012,8.079,0.879,16.188,1.596,24.267c0.564,6.363,0.591,12.865-0.606,19.331
		c-0.378,2.043-2.265,5.105,0.834,7.073l-0.153-0.11c-2.322,5.52-3.148,11.77-8.247,15.907c-6.383,5.18-10.615,5.658-16.672,0.273
		c-6.001-5.335-8.888-12.896-9.678-20.548c-0.514-4.979,1.596-10.3,2.867-15.384c4.538-18.153,8.39-36.448,11.709-54.859
		c1.456-8.078-0.471-16.024-1.008-24.024c-0.096-1.432-2.278-3.493,0.264-4.082c2.172-0.502,4.906-1.152,7.016,0.778
		c0.693,0.635,0.744,1.886,1.93,2.086L223.901,144.938z"/>
	<path fill-rule="evenodd" clip-rule="evenodd" fill="none" d="M222.711,610.428c-2.073,5.308-2.007,5.678,2.161,9.723
		C224.707,616.359,226.438,613.024,222.711,610.428z M228.023,621.712c1.458-3.454-0.151-6.821-0.302-10.229
		C224.793,614.977,227.114,618.324,228.023,621.712z"/>
	<path fill-rule="evenodd" clip-rule="evenodd" fill="none" d="M320.497,427.28c2.454,10.161,1.463,19.536,2.358,28.777
		c1.863,19.247,1.176,38.76,6.17,57.669c0.862,3.266-0.625,6.138-1.017,9.193c-1.842,14.355-2.975,28.731-0.996,43.17
		c1.455,10.611,2.905,21.224,4.522,31.812c1.172,7.68,2.369,16.583-1.154,22.548c-5.594,9.469-4.528,19.419-6.603,29.089
		c-0.292,1.365-0.391,2.665,0.153,3.896c2.838,6.419,0.364,12.826,0.117,19.247c-0.104,2.703-1.767,2.406-3.375,2.283
		c-1.771-0.136-4.455,0.992-4.473-2.309c-0.034-6.171-2.494-12.241,0.374-18.575c1.718-3.794-0.814-8.094-0.809-12.27
		c0.005-4.071-1.082-8.153-1.798-12.212c-0.312-1.771-0.34-4.054-1.444-5.144c-5.503-5.429-4.284-12.342-3.99-18.685
		c0.827-17.851,4.426-35.417,6.271-53.17c0.862-8.299-1.144-16.504-2.277-24.689c-0.813-5.872-1.753-11.408,0.312-17.396
		c3.477-10.087,3.615-20.837,4.034-31.373c0.494-12.463-0.134-24.977,1.18-37.414C318.532,437.179,319.564,432.687,320.497,427.28z"
		/>
	<path fill-rule="evenodd" clip-rule="evenodd" fill="none" d="M225.646,892.082c-8.832-0.46-17.461-1.817-24.203-8.211
		c-10.399-9.861-8.926-27.406,2.527-36.08c4.796-3.633,9.991-4.986,15.826-5.537c12.352-1.166,23.953-0.17,32.389,10.306
		c7.717,9.584,6.04,23.807-3.756,31.352C241.824,888.998,234.398,892.509,225.646,892.082z"/>
	<path fill-rule="evenodd" clip-rule="evenodd" fill="none" d="M347.247,684.995c-2.89,0.097-6.461-0.271-10.086-0.912
		c-10.032-1.775-12.441-5.787-10.632-16.594c0.668-3.99,0.642-7.465,0.014-11.429c-1.514-9.539,0.179-19.019,2.356-28.364
		c0.235-1.009,0.523-2.21,1.849-1.294c3.948,2.731,7.764,0.366,11.338-0.581c6.955-1.844,13.068,2.958,13.136,10.146
		c0.102,10.813,0.488,21.843,6.14,31.723c1.062,1.855,1.545,3.9,1.702,6.132c0.601,8.503-3.161,9.89-10.07,11.13
		C351.381,685.241,349.672,684.995,347.247,684.995z"/>
	<path fill-rule="evenodd" clip-rule="evenodd" fill="none" d="M288.689,684.107c-11.07,0.771-12.16-6.306-10.017-15.781
		c1.583-7.002,5.127-13.487,5.722-20.806c0.428-5.271,1.283-10.513,1.531-15.788c0.203-4.306,2.335-5.696,6.303-5.799
		c2.549-0.065,5.002,0.362,7.243,1.229c3.218,1.243,6.362,1.282,9.031-0.523c2.52-1.705,3.145,0.125,3.202,1.479
		c0.432,10.21,5.205,20.189,1.48,30.666c-0.728,2.046-0.103,4.544,0.222,6.878c1.758,12.693,1.328,15.226-10.921,17.104
		C297.926,683.466,293.291,683.675,288.689,684.107z"/>
	<path fill-rule="evenodd" clip-rule="evenodd" fill="none" d="M238.03,170.425c0.325-1.145,0.649-2.29,0.974-3.435
		c5.866-6.189,13.523-10.515,18.23-17.957c2.021-3.197,5.995-2.295,9.123-2.814c4.055-0.674,8.118,0.322,13.204,0.959
		c-11.028,9.128-17.177,20.581-21.067,33.057c-3.4,10.903-4.091,22.329-2.721,33.777c0.113,0.943,0.161,2.062-0.23,2.872
		c-5.022,10.42-11.86,19.587-19.637,28.09c0,0.001,0.153,0.111,0.153,0.111c0.919-4.856,1.724-9.711,1.979-14.675
		c0.86-16.755-3.257-33.384-1.128-50.186C237.321,176.975,238.716,173.804,238.03,170.425z"/>
	<path fill-rule="evenodd" clip-rule="evenodd" fill="none" d="M399.307,163.103c0.218,0.266,0.436,0.531,0.653,0.797
		c1.193,7.271,3.287,14.337,4.297,21.69c1.031,7.505,1.307,15.033,0.505,22.342c-1.187,10.822-0.165,21.592-0.939,33.133
		c-6.499-7.454-14.156-13.495-17.584-22.56c-1.315-3.479-0.566-7.906-0.161-11.84c2.249-21.83-4.007-40.456-20.325-55.449
		c-1.077-0.989-1.948-2.201-2.971-3.373c11.618-4.131,20.67-1.479,28.445,7.738C393.574,158.365,394.926,162.431,399.307,163.103z"
		/>
	<path fill-rule="evenodd" clip-rule="evenodd" fill="none" d="M419.569,911.044c-9.174-0.548-19.91-2.403-29.083-9.539
		c-4.58-3.563-7.253-8.576-6.117-12.068c1.578-4.853,7.794-8.519,13.335-9.25c6.086-0.803,12.417-1.159,18.316-1.503
		c10.573-0.617,21.743,2.006,30.034,10.042c5.097,4.941,3.819,12.646-2.314,16.643C437.029,909.742,429.45,911.054,419.569,911.044z
		"/>
	<path fill-rule="evenodd" clip-rule="evenodd" fill="none" d="M449.652,292.767c-0.428,0.045-0.608,0.114-0.757,0.072
		c-12.409-3.489-12.181-3.599-9.723-18.025c2.051-12.035,3.2-24.224,4.84-36.331c1.769-13.061,3.626-26.108,5.483-39.156
		c0.696-4.892,1.423-9.782,2.293-14.646c0.495-2.771,0.83-5.665,4.765-2.136c1.518,1.361,5.29,0.924,6.908,0.501
		c5.023-1.312,4.786,1.759,4.44,4.364c-0.887,6.667-2.309,13.261-3.452,19.896c-4.135,24.007-9.485,47.802-12.494,72.007
		C451.408,283.723,450.465,288.084,449.652,292.767z"/>
	<path fill-rule="evenodd" clip-rule="evenodd" fill="none" d="M202.857,286.745c-1.87,0.771-3.672,0.367-5.419,1.093
		c-6.565,2.725-6.726,2.599-8.162-4.125c-6.547-30.655-12.809-61.373-20.024-91.885c-0.7-2.961-2.044-7.049,4.182-6.764
		c3.381,0.154,7.543-2.951,10.084-1.796c3.039,1.381,2.105,6.388,2.716,9.87c4.26,24.273,8.512,48.549,12.796,72.817
		C200.25,272.871,201.57,279.769,202.857,286.745z"/>
	<path fill-rule="evenodd" clip-rule="evenodd" fill="none" d="M441.631,245.788c-0.783-22.398-8.817-43.4-12.598-65.228
		c-2.115-12.208-0.949-24.014,2.613-35.738c0.503-1.657,0.715-2.934,3.047-2.884c6.944,0.149,13.909-0.177,20.003,4.143
		c1.254,0.889,2.629,1.402,2.26,3.331c-1.11,5.809-2.09,11.646-3.324,17.428c-0.344,1.609-0.903,2.869-3.373,3.373
		c-5.65,1.152-9.107,12.353-6.447,17.495c3.022,5.841,4.683,11.941,3.258,18.937c-2.627,12.898-4.407,25.971-5.456,39.128
		C441.62,245.784,441.631,245.788,441.631,245.788z"/>
	<path fill-rule="evenodd" clip-rule="evenodd" fill="none" d="M322.641,134.254c19.805,0,39.609-0.025,59.414,0.057
		c1.351,0.006,3.754-1.254,3.865,1.547c0.102,2.575-2.145,1.94-3.691,2.091c-33.748,3.291-67.593,1.985-101.384,1.437
		c-5.736-0.094-11.831-0.856-17.753-1.378c-1.407-0.123-3.174,0.396-3.105-2.041c0.07-2.479,1.875-1.812,3.24-1.819
		c11.982-0.053,23.964-0.081,35.946-0.102c7.823-0.014,15.646-0.003,23.469-0.003C322.641,134.113,322.641,134.184,322.641,134.254z
		"/>
	<path fill-rule="evenodd" clip-rule="evenodd" fill="none" d="M431.891,312.527c0,5.784,0.8,11.713-0.221,17.311
		c-1.061,5.813,1.092,10.648,4.274,14.049c3.409,3.642,2.555,6.938,1.932,10.403c-2.603,14.483-6.66,28.686-8.06,43.414
		c-0.469,4.937-5.749,6.788-9.781,3.859c-1.156-0.841-0.3-1.771-0.161-2.671c1.911-12.423,3.889-24.837,5.717-37.272
		c1.78-12.109,3.603-24.218,4.413-36.446C430.286,320.927,431.531,316.805,431.891,312.527z"/>
	<path fill-rule="evenodd" clip-rule="evenodd" fill="none" d="M320.419,142c7.816,0.001,15.634,0.038,23.449-0.026
		c1.902-0.016,3.952,0.176,4.72,1.851c0.709,1.547-1.387,2.399-2.307,3.449c-4.871,5.553-11.723,7.373-18.474,8.56
		c-10.342,1.817-20.309,0.106-29.315-5.728c-0.41-0.266-1.018-0.296-1.33-0.627c-1.642-1.744-4.78-3-3.863-5.836
		c0.922-2.854,4.016-1.551,6.167-1.592C306.447,141.915,313.435,142,320.419,142z"/>
	<path fill-rule="evenodd" clip-rule="evenodd" fill="none" d="M300.149,115.77c9.907,7.058,33.583,7.621,41.456-1.195
		c1.252,5.533-1.164,10.63-0.677,15.808c0.16,1.701-1.314,1.603-2.464,1.604c-11.627,0.012-23.254-0.03-34.88,0.045
		c-2.118,0.014-2.828-0.768-3.074-2.83C299.998,124.895,299.877,120.607,300.149,115.77z"/>
	<path fill-rule="evenodd" clip-rule="evenodd" fill="none" d="M210.699,331.021c4.543,24.29,9.028,48.381,13.594,72.457
		c0.354,1.863,1.21,3.655-1.508,4.217c-2.79,0.575-2.226-2.08-2.546-3.238c-5.142-18.557-10.132-37.156-15.115-55.757
		c-0.764-2.853-1.481-5.65,1.473-8.028C209.506,338.329,208.508,334.117,210.699,331.021z"/>
	<path fill-rule="evenodd" clip-rule="evenodd" fill="none" d="M181.905,170.81c0.215,2.079-0.029,3.15-1.894,3.314
		c-1.804,0.159-3.581,0.637-5.369,0.974c-8.62,1.622-8.519,1.607-9.672-6.657c-0.703-5.041-1.731-10.04-2.696-15.042
		c-0.475-2.459-0.625-3.668,2.768-2.633c2.574,0.785,5.86,0.846,8.349-0.073c4.003-1.479,4.322,0.206,4.863,3.41
		C179.234,159.916,180.747,165.639,181.905,170.81z"/>
	<path fill-rule="evenodd" clip-rule="evenodd" fill="none" d="M462.988,151.039c2.333,3.721,6.309,2.181,9.675,3.013
		c-0.59,5.522-1.137,11.067-1.792,16.6c-0.297,2.506-0.618,5.228-4.383,3.452c-0.142-0.066-0.327-0.04-0.493-0.057
		c-12.363-1.284-12.439-1.303-9.438-13.4c0.557-2.244,1.057-4.686,1.091-6.75c0.09-5.492,2.496-4.255,5.513-2.684L462.988,151.039z"
		/>
	<path fill-rule="evenodd" clip-rule="evenodd" fill="none" d="M229.448,835.627c-2.929-2.166-5.957-1.244-8.607-0.227
		c-4.387,1.687-4.884-0.26-4.806-3.904c0.154-7.11,0.045-14.227,0.045-22.007c2.276,2.609-1.101,7.056,3.645,7.488
		c2.931,0.268,5.976,0.645,8.759-1.436C229.743,822.219,230.255,828.736,229.448,835.627z"/>
	<path fill-rule="evenodd" clip-rule="evenodd" fill="none" d="M240.352,144.513c-3.28,1.111-6.08,1.518-3.964-3.433
		c2.217-5.188-1.355-9.045-2.688-13.46c-0.63-2.09-4.544-4.822,0.494-6.552c4.254-1.46,5.638,1.5,6.353,4.645
		c1.422,6.251,4.336,12.602-0.222,18.81L240.352,144.513z"/>
	<path fill-rule="evenodd" clip-rule="evenodd" fill="none" d="M414.911,124c0.975-0.015,1.962-0.136,2.921-0.025
		c3.78,0.437,5.001,2.819,3.27,6.091c-0.896,1.692-1.609,3.48-2.405,5.226l0.167-0.158c-2.569,1.282-1.896,3.523-1.619,5.608
		c0.328,2.464,1.04,5.357-2.411,5.868c-3.251,0.481-2.444-2.606-3.105-4.46c-2.425-6.799,1.801-12.304,3.364-18.326
		C415.093,123.821,414.911,124,414.911,124z"/>
	<path fill-rule="evenodd" clip-rule="evenodd" fill="none" d="M411.391,855.199c1.141,2.76,1.239,5.244,1.312,7.717
		c0.072,2.481,0.016,4.967,0.016,7.527c-2.275,0.23-4.088-1.37-6.559-1.076c-3.578,0.426-7.703-4.565-7.374-8.102
		c0.151-1.621,1.494-1.939,2.914-2.128C405.092,858.688,408.263,857.598,411.391,855.199z"/>
	<path fill-rule="evenodd" clip-rule="evenodd" fill="none" d="M234.283,144.798c-1.729-0.046-2.306,3.61-4.932,1.252
		c-2.095-1.882-0.326-3.363,0.047-4.798c1.291-4.963-2.689-11.96-8.954-14.861c1.924-0.814,3.618-1.806,5.444-2.239
		c2.583-0.614,4.575-0.118,5.987,2.82c2.803,5.833,5.205,11.525,2.23,17.99C234.111,144.958,234.283,144.798,234.283,144.798z"/>
	<path fill-rule="evenodd" clip-rule="evenodd" fill="none" d="M412.612,125.972c-0.865,2.669-1.809,5.308-2.566,7.998
		c-0.61,2.168-1.588,4.22-0.258,6.684c0.944,1.749,0.147,3.73-2.16,4.108c-2.386,0.391-2.648-1.424-2.61-3.177
		c0.093-4.168-1.434-8.174-1.085-12.395c0.154-1.873,0.466-3.618,1.291-5.256c0.936-1.855,2.079-3.467,4.62-2.771
		C412.398,121.862,411.986,124.18,412.612,125.972z"/>
	<path fill-rule="evenodd" clip-rule="evenodd" fill="none" d="M463.16,151.213c-2.104-3.033,1.45-2.45,2.577-3.907
		c-3.158-1.221-6.813-0.861-9.677-3.475c4.569-3.516,9.399-4.409,14.915-3.588c-1,1.866-3.464,0.862-4.121,2.855
		c0.893,1.775,2.676,0.989,3.861,0.868c3.531-0.362,2.686,3.807,5.044,4.498c-0.919,2.146-2.729,2.7-4.839,2.681
		c-2.646-0.023-5.291-0.073-7.935-0.109C462.988,151.039,463.16,151.213,463.16,151.213z"/>
	<path fill-rule="evenodd" clip-rule="evenodd" fill="none" d="M240.324,144.522c3.656-3.093,5.222-6.833,3.649-11.585
		c-0.614-1.855-1.192-3.726-1.69-5.614c-0.438-1.661-0.731-3.551,1.388-4.161c1.864-0.537,3.914-0.063,4.413,2.121
		c1.46,6.393,2.494,12.867-1.069,18.96c-1.95,3.333-4.365,1.636-6.652,0.265C240.352,144.513,240.324,144.522,240.324,144.522z"/>
	<path fill-rule="evenodd" clip-rule="evenodd" fill="none" d="M396.832,124.118c4.886-1.534,5.956-0.65,6.206,4.517
		c0.222,4.579-0.882,9.229,0.831,13.75c0.619,1.636-0.258,2.871-1.948,3.403c-1.88,0.592-2.302-0.926-2.727-2.094
		c-2.325-6.402-2.751-13.032-2.177-19.763C397.016,123.933,396.832,124.118,396.832,124.118z"/>
	<path fill-rule="evenodd" clip-rule="evenodd" fill="none" d="M173.729,144.813c1.559,0.088,3.208-1.661,5.446-0.054
		c-3.938,1.237-7.143,3.834-11.246,3.563c-4.711-0.311-4.165-6.106-8.625-7.632c8.14-2.382,15.391-2.204,23.142-0.579
		c-1.637,1.548-2.985,0.62-4.23,0.532c-1.477-0.104-2.936-0.555-4.409-0.591c-1.477-0.036-2.821,0.545-3.741,1.597
		C170.003,144.108,174.496,140.662,173.729,144.813z"/>
	<path fill-rule="evenodd" clip-rule="evenodd" fill="none" d="M151.644,132.357c1.989,0,3.983-0.099,5.964,0.028
		c1.878,0.12,2.334,1.458,2.41,3.147c0.072,1.604-0.589,2.265-2.099,2.763c-4.428,1.461-8.858,0.139-13.274,0.157
		c-1.526,0.006-1.638-1.899-1.571-3.221c0.08-1.586,0.601-2.945,2.598-2.929c1.99,0.016,3.98,0.003,5.971,0.003
		C151.644,132.323,151.644,132.34,151.644,132.357z"/>
	<path fill-rule="evenodd" clip-rule="evenodd" fill="none" d="M224.085,145.122c-0.198-3.741-1.465-7.032-4.016-9.826
		c-1.236-1.354-2.144-3.596-4.393-1.235l-0.406-0.005c-0.415-0.802-2.177-0.75-1.695-1.935c1.215-2.985,8.702-3.949,10.635-1.344
		c2.611,3.52,6.38,6.711,3.367,12.007c-0.959,1.687-1.775,2.567-3.676,2.154L224.085,145.122z"/>
	<path fill-rule="evenodd" clip-rule="evenodd" fill="none" d="M452.774,138.588c-1.926,0.396-3.707,0.359-5.535,0.094
		c-1.546-0.225-2.413-0.675-2.26-2.437c0.13-1.497-0.108-3.091,2.075-3.21c3.951-0.214,7.9-0.499,11.854-0.61
		c1.146-0.032,3.305-0.401,2.733,1.616c-0.442,1.568,0.393,4.399-2.648,4.529C456.883,138.661,454.765,138.588,452.774,138.588z"/>
	<path fill-rule="evenodd" clip-rule="evenodd" fill="none" d="M351.075,142.002c11.139,0,20.919,0.009,30.7-0.008
		c1.706-0.003,3.558-0.147,3.305,2.354c-0.274,2.711-1.89,1.054-3.208,0.958c-5.729-0.416-11.349-1.987-17.25-0.549
		C360.482,145.766,356.161,145.147,351.075,142.002z"/>
	<path fill-rule="evenodd" clip-rule="evenodd" fill="none" d="M175.754,129.248c2.178,6.529,1.772,7.029-4.688,7.796
		c-2.657,0.315-5.395-1.384-8.013,0.553c-0.873,0.646-1.521-0.408-1.434-1.273c0.15-1.497-1.219-3.49,0.953-4.37
		c1.328-0.539,3.781-1.199,4.188-0.654c3.182,4.258,4.679-1.205,7.067-1.056C174.381,130.278,174.974,129.672,175.754,129.248z"/>
	<path fill-rule="evenodd" clip-rule="evenodd" fill="none" d="M490.022,132.478c1.472-0.235,3.908,0.153,6.338,0.636
		c1.485,0.295,1.633,1.401,1.613,2.632c-0.023,1.444-0.796,2.023-2.175,2.08c-3.451,0.141-6.901,0.301-10.349,0.508
		c-1.714,0.103-3.395,0.376-3.43-2.193c-0.029-2.147,0.743-3.532,3.037-3.649C486.37,132.423,487.689,132.478,490.022,132.478z"/>
	<path fill-rule="evenodd" clip-rule="evenodd" fill="none" d="M186.032,133.006c1.813,0,3.632,0.089,5.438-0.024
		c1.895-0.119,2.741,0.554,2.537,2.519c-0.153,1.473,0.028,2.68-2.192,3.063c-4.039,0.699-7.83-0.373-11.705-0.851
		c-1.906-0.235-2.106-1.785-1.926-3.376c0.212-1.866,1.477-1.81,2.907-1.663c1.637,0.168,3.292,0.17,4.938,0.244
		C186.031,132.947,186.031,132.977,186.032,133.006z"/>
	<path fill-rule="evenodd" clip-rule="evenodd" fill="none" d="M418.696,135.291c2.504-0.917,2.65-3.614,4.037-5.378
		c1.431-1.819,2.816-2.769,4.906-0.842c1.576,1.454,2.055,1.789,0.018,3.995c-2.062,2.233-4.646,4.993-5.146,8.668
		c-0.161,1.18-0.666,3.033-3.137,3.108c-0.359-3.213-1.36-6.375-0.506-9.716C418.863,135.133,418.696,135.291,418.696,135.291z"/>
	<path fill-rule="evenodd" clip-rule="evenodd" fill="none" d="M471.208,137.998c-1.813,0-3.634,0.086-5.439-0.032
		c-1.108-0.073-2.809,0.684-2.79-1.598c0.014-1.676,0.44-3.074,2.312-3.166c4.265-0.208,8.538-0.305,12.809-0.325
		c1.604-0.008,2.4,1.229,2.327,2.651c-0.066,1.291-0.516,2.639-2.319,2.617c-2.299-0.026-4.599-0.007-6.897-0.007
		C471.208,138.092,471.208,138.045,471.208,137.998z"/>
	<path fill-rule="evenodd" clip-rule="evenodd" fill="none" d="M414.469,500.153c2.331,0.234,2.51,1.741,2.534,3.27
		c0.076,4.777,0.148,9.555,0.113,14.332c-0.007,0.863,0.241,2.471-0.753,2.459c-1.011-0.013-2.472-0.342-2.913-2.008
		c-0.798-3.013-2.047-5.932-1.246-9.145C412.949,506.07,413.722,503.087,414.469,500.153z"/>
	<path fill-rule="evenodd" clip-rule="evenodd" fill="none" d="M215.271,134.056l0.406,0.005c1.368,0.628,3.112,1.338,2.505,3.095
		c-0.543,1.574-2.354,0.587-3.559,0.6c-5.471,0.058-10.943-0.043-16.415-0.078c-1.145-0.008-2.926,1.18-2.914-1.164
		c0.011-1.958,1.571-2.156,3.218-2.141C204.1,134.428,209.705,135.193,215.271,134.056z"/>
	<path fill-rule="evenodd" clip-rule="evenodd" fill="none" d="M288.649,142.004c-3.659,2.268-7.564,3.27-11.654,2.815
		c-5.104-0.566-10.149-1.333-15.262,0.057c-0.853,0.232-2.762,1.05-2.918-0.965c-0.133-1.713,1.252-1.937,2.732-1.929
		C270.581,142.025,279.615,142.004,288.649,142.004z"/>
	<path fill-rule="evenodd" clip-rule="evenodd" fill="none" d="M437.216,134.129c1.721,1.007,5.481-1.435,5.625,1.572
		c0.154,3.229-3.516,1.387-5.494,1.734c-1.791,0.314-3.647,0.501-5.455,0.399c-1.286-0.072-3.464,1.166-3.705-0.985
		c-0.188-1.669,2.023-2.054,3.364-2.36C433.299,134.09,435.17,134.231,437.216,134.129z"/>
	<path fill-rule="evenodd" clip-rule="evenodd" fill="none" d="M215.996,895.199c4.757-0.536,9.119,0.168,13.733,0.934
		C226.07,898.136,220.924,897.774,215.996,895.199z"/>
	<path fill-rule="evenodd" clip-rule="evenodd" fill="none" d="M409.154,836.102c-4.958-3.229-1.999-7.253-1.11-11.069l-0.123-0.041
		c1.367,3.573,1.797,7.232,1.005,11.003L409.154,836.102z"/>
	<path fill-rule="evenodd" clip-rule="evenodd" d="M238.03,170.425c0.687,3.379-0.709,6.55-1.121,9.8
		c-2.129,16.802,1.988,33.431,1.128,50.186c-0.255,4.964-1.06,9.818-1.979,14.675c-3.1-1.968-1.212-5.03-0.834-7.073
		c1.197-6.466,1.17-12.968,0.606-19.331c-0.716-8.078-0.583-16.188-1.596-24.267C233.206,186.217,234.332,178.036,238.03,170.425z"
		/>
</g>
<path fill-rule="evenodd" clip-rule="evenodd" d="M500.021,137.932c-0.132-1.319-0.14-2.677,0.001-3.994
	c0.332-3.119-1.078-4.076-4.065-3.984c-5.651,0.173-11.313-0.036-16.967,0.083c-12.242,0.257-24.528-0.979-36.702,1.791
	c-3.208,0.73-7.95,1.755-10.04-0.632c-3.336-3.811-8.59-4.023-11.696-7.896c-1.528-1.905-3.976-2.254-5.527,0.504
	c0.023,0.005,0.043,0.015,0.067,0.019c-0.015,0.058-0.034,0.115-0.05,0.172c0.933-0.022,1.874-0.126,2.79-0.021
	c3.78,0.437,5.001,2.819,3.27,6.091c-0.881,1.664-1.586,3.42-2.366,5.137c0.046-0.025,0.086-0.052,0.134-0.076
	c-0.007,0.028-0.01,0.057-0.017,0.085c2.34-0.976,2.526-3.577,3.881-5.299c1.431-1.819,2.816-2.769,4.906-0.842
	c1.576,1.454,2.055,1.789,0.018,3.995c-2.062,2.233-4.646,4.993-5.146,8.668c-0.161,1.18-0.666,3.033-3.137,3.108
	c-0.356-3.186-1.338-6.322-0.522-9.631c-0.056,0.023-0.098,0.058-0.156,0.079c0.014-0.029,0.026-0.059,0.039-0.088
	c-2.408,1.298-1.764,3.493-1.491,5.539c0.328,2.464,1.04,5.357-2.411,5.868c-3.251,0.481-2.444-2.606-3.105-4.46
	c-2.401-6.734,1.717-12.199,3.314-18.154c-0.043,0.001-0.087,0.004-0.131,0.004c0.036-0.07,0.075-0.129,0.113-0.196
	c-2.076-0.447-2.046-3.736-4.158-3.59c-4.835,0.334-9.477,1.68-13.855,3.821c-0.001,0.01-0.001,0.021-0.002,0.031
	c4.729-1.454,5.782-0.533,6.029,4.569c0.222,4.579-0.882,9.229,0.831,13.75c0.619,1.636-0.258,2.871-1.948,3.403
	c-1.88,0.592-2.302-0.926-2.727-2.094c-2.31-6.36-2.743-12.944-2.186-19.628c-0.061,0.019-0.115,0.033-0.177,0.052
	c0.06-0.029,0.119-0.055,0.179-0.083c0.003-0.035,0.004-0.069,0.007-0.103c-2.892,2.24-7.405,2.486-8.361,7.153
	c-0.278,1.356-1.994,0.891-3.093,0.894c-13.165,0.03-26.331-0.03-39.496,0.063c-2.401,0.017-3.27-0.759-3.09-3.145
	c0.447-5.963,0.407-11.989,1.309-17.876c0.362-2.363,0.42-5.118,4.519-6.566c5.462-1.929,8.232-17.526,2.87-20.975
	c-1.876-1.207-1.864-2.179-1.75-3.844c0.481-7.009-0.078-13.857-2.893-20.435c-4.173-9.752-10.912-16.794-21.691-18.045
	c-11.355-1.317-20.835,3.13-27.42,12.591c-5.103,7.331-6.276,15.823-5.988,24.612c0.056,1.702,0.721,3.426-1.675,5.071
	c-5.11,3.509-3.14,19.19,2.771,21.236c3.099,1.072,3.397,2.69,4.053,5.091c1.75,6.397,0.279,12.967,1.293,19.386
	c0.348,2.203-0.726,2.895-2.853,2.883c-11.665-0.065-23.331-0.065-34.996-0.003c-1.957,0.011-2.516-0.69-2.581-2.604
	c-0.126-3.693-1.924-5.765-5.757-4.088c-1.534,0.671-1.781,0.168-2.636-0.833c-3.584-4.198-9.792-1.975-13.809-5.386
	c-0.292-0.247-1.549,0.427-2.219,0.879c-2.519,1.702-5.457,2.169-8.258,3.091c-2.433,0.801-5.25,1.069-7.016,3.245
	c-3.427,4.224-7.661,6.212-13.193,5.716c-5.936-0.532-11.904-0.715-17.858-1.044c-3.651-0.201-7.714,1.021-10.173-3.171
	c-0.404-0.689-1.311-0.674-2.233-0.344c-8.795,3.145-17.964,2.55-27.054,2.466c-4.315-0.039-6.297,1.441-6.171,6.045
	c0.108,3.954,0.286,6.361,5.547,6.198c7.944-0.247,12.283,3.566,13.677,10.571c1.154,5.801,2.143,11.635,3.162,17.461
	c0.389,2.222-2.334,9.66-4.104,11.45c-2.702,2.732-0.864,10.248,2.216,12.439c3.188,2.267,7.037,3.961,8.061,8.798
	c6.013,28.417,12.317,56.771,18.513,85.149c0.304,1.392,1.091,2.939-0.661,3.959c-3.826,2.229-3.352,6.005-2.863,9.315
	c1.666,11.284,3.07,22.585,3.937,33.96c0.371,4.878,3.088,6.887,7.258,4.952c3.963-1.838,4.839-0.377,5.754,3.195
	c5.204,20.324,10.582,40.604,16.049,60.859c0.721,2.67,1.818,4.871-1.426,6.686c-1.2,0.671-0.861,2.396-0.372,3.682
	c3.522,9.241,5.203,18.975,7.411,28.547c2.863,12.415,5.408,24.878,2.441,37.803c-0.775,3.377-0.648,7.217,0.527,10.858
	c0.751,2.327,0.793,5.021-0.074,7.389c-5.926,16.17-6.985,33.204-8.452,50.071c-1.626,18.703-2.822,37.495-2.997,56.26
	c-0.214,22.994-1.095,45.974-1.143,68.963c-0.105,50.495-0.058,100.99,0.023,151.484c0.005,3.354-0.551,5.096-4.318,6.239
	c-8.05,2.442-14.818,7.145-19.754,14.221c-8.17,11.711-10.5,29.372-1.466,40.26c14.039,16.918,44.43,25.224,66.303,6.979
	c19.199-16.013,15.727-45.032-2.42-56.826c-5.473-3.558-11.564-5.45-17.854-6.746c-1.73-0.356-2.466-0.737-2.609-2.692
	c-0.448-6.139-0.964-12.252-0.958-18.428c0.026-28.994,0.4-57.98,0.935-86.97c0.568-30.821-0.097-61.65,0.5-92.481
	c0.881-45.476,1.368-90.962-0.23-136.439c-0.204-5.805-0.714-11.658,1.157-17.486c0.905,1.291,1.322,2.607,1.708,4.025
	c2.034,7.476,3.091,15.143,4.651,22.707c1.99,9.646,4.607,19.161,6.727,28.783c0.703,3.189-1.46,7.968,4.992,7.227
	c0.379-0.044,1.205,2.164,1.511,3.4c1.73,7.014,3.373,14.048,5.032,21.079c6.074,25.737,10.375,51.85,16.708,77.549
	c2.376,9.64,4.784,19.387,1.729,30.068c-2.779,9.718,0.574,16.557,13.766,15.413c6.788-0.588,13.55-1.071,20.362-0.943
	c5.498,0.104,11.008,0.166,16.458-0.738c1.887-0.313,3.582,0.094,5.337,0.685c6.717,2.264,13.687,2.377,20.644,2.017
	c6.608-0.342,11.078-3.815,12.05-8.407c2.411-11.399,4.72-22.832,7.567-34.126c7.806-30.964,15.85-61.868,23.861-92.78
	c0.707-2.727-0.113-7.495,5.62-4.856c1.086,0.5,1.656-1.222,1.925-2.408c0.255-1.126-0.66-2.56,1.365-3.768
	c-0.8,14.189-1.91,27.943-2.289,41.717c-1.204,43.785-1.613,87.587-2.929,131.373c-0.721,23.962-1.194,47.932-2.003,71.897
	c-0.864,25.624-1.003,51.271-1.974,76.9c-0.174,4.567-1.312,6.315-5.74,7.698c-9.484,2.964-16.081,9.474-17.266,19.684
	c-1.02,8.789,3.978,15.386,10.694,20.127c20.867,14.73,43.195,13.944,64.453,2.692c14.372-7.607,14.625-23.773,1.551-33.61
	c-9.208-6.929-19.647-10.495-30.884-12.109c-2.564-0.368-3.883-1.089-4.114-4.253c-0.497-6.813-0.373-13.532-0.129-20.368
	c0.965-26.939,2.438-53.864,3.14-80.806c0.688-26.468,1.657-52.943,1.85-79.408c0.237-32.644,1.614-65.292,0.534-97.935
	c-0.678-20.484-0.015-40.968-0.912-61.467c-0.928-21.169-0.219-42.369,2.634-63.502c2.537-18.8,8.319-37.039,8.845-56.203
	c0.214-7.809,2.465-15.569,3.893-23.333c2.052-11.152,4.278-22.273,6.255-33.439c0.555-3.134,1.208-4.469,4.982-3.412
	c6.595,1.846,7.776,0.423,8.1-6.688c0.444-9.786,1.338-19.553,1.759-29.34c0.159-3.692,1.921-8.297-1.536-10.852
	c-2.999-2.216-2.541-4.53-2.22-7.098c0.921-7.356,1.845-14.723,3.125-22.022c3.18-18.132,6.209-36.303,10.069-54.293
	c1.153-5.375-0.826-12.567,6.317-15.765c0.29-0.13,0.395-0.891,0.415-1.365c0.092-2.124,1.085-2.997,3.229-3.654
	c2.741-0.84,4.647-9.779,2.604-11.319c-4.149-3.128-4.868-7.624-4.716-12.181c0.157-4.732-0.574-10.949,2.042-13.842
	c5.442-6.02,12.018-11.889,21.035-12.33C499.345,141.941,500.312,140.843,500.021,137.932z M444.979,136.245
	c0.13-1.497-0.108-3.091,2.075-3.21c3.951-0.214,7.9-0.499,11.854-0.61c1.146-0.032,3.305-0.401,2.733,1.616
	c-0.442,1.568,0.393,4.399-2.648,4.529c-2.111,0.091-4.229,0.018-6.22,0.018c-1.926,0.396-3.707,0.359-5.535,0.094
	C445.693,138.457,444.826,138.007,444.979,136.245z M431.551,134.489c1.748-0.399,3.619-0.258,5.665-0.36
	c1.721,1.007,5.481-1.435,5.625,1.572c0.154,3.229-3.516,1.387-5.494,1.734c-1.791,0.314-3.647,0.501-5.455,0.399
	c-1.286-0.072-3.464,1.166-3.705-0.985C427.999,135.181,430.21,134.796,431.551,134.489z M403.933,129.19
	c0.154-1.873,0.466-3.618,1.291-5.256c0.936-1.855,2.079-3.467,4.62-2.771c2.555,0.699,2.143,3.017,2.769,4.809
	c-0.865,2.669-1.809,5.308-2.566,7.998c-0.61,2.168-1.588,4.22-0.258,6.684c0.944,1.749,0.147,3.73-2.16,4.108
	c-2.386,0.391-2.648-1.424-2.61-3.177C405.11,137.417,403.584,133.411,403.933,129.19z M387.895,136.329
	c0.701-2.328,1.962-4.525,3.228-6.628c0.534-0.887,0.528-2.646,1.981-2.489c1.668,0.181,2.299,1.816,2.731,3.214
	c1.189,3.849-1.658,6.757-3.322,11.24c2.743-2.786,4.255-4.641,4.738,0.132c0.395,3.899,2.366,6.714,7.544,4.488
	c1.981-0.853,4.714-0.844,7.572,1.031c3.354,2.199,7.882-0.328,10.272-3.192c2.149-2.578,4.521-2.652,6.478-1.783
	c1.891,0.84,1.016,3.596,0.555,5.43c-2.048,8.14-4.847,16.161-3.604,24.766c1.622,11.23,4.09,22.29,6.477,33.379
	c2.137,9.931,5.431,19.613,6.509,29.772c0.838,7.891-1.838,15.014-5.382,21.719c-2.292,4.337-6.478,8.129-11.452,7.308
	c-6.348-1.05-11.306-5.33-14.067-11.454c-2.696-5.981-1.574-12.482-2.054-18.732c-1.082-14.114,1.627-28.206,0.83-42.323
	c-0.482-8.542-1.519-17.078-4.837-25.116c-0.49-1.188-0.789-2.55-2.131-3.189c1.193,7.271,3.287,14.337,4.297,21.69
	c1.031,7.505,1.307,15.033,0.505,22.342c-1.187,10.822-0.165,21.592-0.939,33.133c-6.499-7.454-14.156-13.495-17.584-22.56
	c-1.315-3.479-0.566-7.906-0.161-11.84c2.249-21.83-4.007-40.456-20.325-55.449c-1.077-0.989-1.948-2.201-2.971-3.373
	c11.618-4.131,20.67-1.479,28.445,7.738c2.348,2.784,3.699,6.85,8.08,7.521c-3.703-4.463-7.775-8.677-10.996-13.464
	C385.592,145.597,386.559,140.763,387.895,136.329z M372.789,299.232c0.941,8.378,1.88,16.746,3.204,25.069
	c0.564,3.547-0.504,4.784-4.445,4.816c-16.992,0.138-33.936-1.93-50.936-0.983c-16.967,1.1-33.959,0.539-50.941,0.736
	c-3.776,0.044-4.818-0.479-4.14-5.062c2.244-15.185,5.667-30.375,4.367-45.842c-1.255-14.939-4.317-29.621-8.405-44.061
	c-4.574-16.157-5.99-32.662-2.274-48.977c3.397-14.919,11.132-27.886,23.158-37.812c3.514-2.9,7.43-1.945,10.809,1.484
	c5.168,5.247,11.983,8.158,18.892,9.104c14.134,1.935,27.446,0.035,38.099-11.353c2.934-3.136,8.093-0.161,10.293,2.038
	c9.556,9.55,18.979,19.429,22.007,33.384c2.561,11.796,1.835,23.611,0.973,35.551c-0.938,13.005-6.997,24.662-8.761,37.337
	C372.634,269.43,371.104,284.238,372.789,299.232z M366.919,537.409c0.899,17.716-3.825,34.642-8.317,51.544
	c-2.755,10.36-4.604,20.876-5.563,31.538c-0.316,3.516-1.165,5.474-5.014,3.304c-3.396-1.915-6.393,0.333-9.493,1.04
	c-5.339,1.217-6.326,0.601-5.514-4.556c2.07-13.14,0.49-26.086-1.729-39.025c-3.423-19.947-4.926-39.92-0.542-60.55
	c1.836,1.778,1.077,4.439,4.604,5.447c-9.587-23.221-8.666-47.194-10.472-71.424c16.32,4.172,32.374,2.967,48.796,1.123
	c-0.802,4.11-1.328,8.176-3.338,11.643c-5.244,9.047-4,19.173-5.446,28.882C362.821,510.265,366.225,523.738,366.919,537.409z
	 M368.48,454.741c-12.559,0.863-25.12,2.136-37.71-0.569c-4.799-1.032-6.677-3.017-6.828-7.801
	c-0.622-19.749-2.873-39.439-2.1-59.242c0.054-1.369,0.484-3.043-1.882-3.982c0,8.032-0.203,15.797,0.048,23.547
	c0.357,11.014-1.831,21.686-3.663,32.432c-0.499,2.927-0.514,5.968-0.456,8.951c0.079,4.062-2.33,5.617-5.775,5.787
	c-12.912,0.639-25.814,2.431-38.76,0.191c-3.175-0.549-4.591-1.88-5.502-5.141c-4.479-16.026-5.722-32.432-6.993-48.919
	c-1.083-14.048,1.709-27.658,2.971-41.449c0.724-7.915,1.633-15.819,2.078-23.75c0.172-3.061,1.133-4.033,4.122-4.005
	c35.143,0.337,70.291-1.51,105.431,0.229c1.468,0.072,3.196-0.71,3.596,2.073c2.914,20.33,5.805,40.69,5.836,61.252
	c0.029,19.078-3.765,37.737-7.865,56.307C374.185,454.471,370.802,454.582,368.48,454.741z M310.544,527.095
	c2.538,14.852,2.223,29.456-0.104,44.338c-2.421,15.477-5.192,31.023-3.504,46.895c0.874,8.218-0.072,8.767-8.203,6.646
	c-0.792-0.207-1.545-0.557-2.322-0.82c-2.835-0.96-6.467,1.46-8.66-1.501c-1.814-2.448-1.096-5.825-1.445-8.696
	c-1.936-15.899-6.594-31.177-9.937-46.749c-3.162-14.733-2.902-29.524-0.73-44.448c1.553-10.67,1.38-21.514-0.143-32.258
	c-0.343-2.419-1.241-4.745,0.538-7.104c1.001-1.328-0.185-2.797-0.72-4.132c-3.045-7.595-5.482-15.373-7.586-23.891
	c15.009,2.842,29.17,1.648,43.312-0.168c2.493-0.32,4.043-0.438,4.017,2.936c-0.157,20.51,0.594,41.096-6.975,60.763
	C306.88,522.028,310.033,524.107,310.544,527.095z M293.299,143.643c0.922-2.854,4.016-1.551,6.167-1.592
	c6.982-0.136,13.969-0.051,20.954-0.051c7.816,0.001,15.634,0.038,23.449-0.026c1.902-0.016,3.952,0.176,4.72,1.851
	c0.709,1.547-1.387,2.399-2.307,3.449c-4.871,5.553-11.723,7.373-18.474,8.56c-10.342,1.817-20.309,0.106-29.315-5.728
	c-0.41-0.266-1.018-0.296-1.33-0.627C295.521,147.734,292.382,146.479,293.299,143.643z M351.075,142.002
	c11.139,0,20.919,0.009,30.7-0.008c1.706-0.003,3.558-0.147,3.305,2.354c-0.274,2.711-1.89,1.054-3.208,0.958
	c-5.729-0.416-11.349-1.987-17.25-0.549C360.482,145.766,356.161,145.147,351.075,142.002z M298.188,105.842
	c-0.435-2.605-1.866-4.944-1.026-8.056c-3.32,1.054-1.234,3.925-3.151,5.312c-3.897-4.087-4.84-9.066-4.997-14.34
	c-0.042-1.415,0.739-3.199,1.621-3.268c1.668-0.129,2.122,1.651,2.357,3.16c0.167,1.062-0.398,2.39,1.565,3.226
	c0.667-2.068,0.234-3.934-0.003-5.974c-1.322-11.349-1.264-22.487,5.944-32.324c8.017-10.94,29.057-17.227,41.11-0.099
	c5.992,8.517,7.692,18.146,5.811,28.383c-0.496,2.698-0.71,5.348,0.247,9.203c1.27-2.654,2.001-4.186,2.764-5.78
	c2.841,4.204,1.921,13.63-1.548,16.991c-0.519,0.503-1.021,0.816-1.737,0.579c-1.083-0.359-1.056-1.109-0.646-1.959
	c0.463-0.955,0.748-1.875-0.771-2.963c-0.938,1.677-1.523,3.108-1.746,4.758c-1.373,10.157-5.995,15.119-16.159,16.154
	c-6.387,0.65-12.912,0.61-19.25-1.106C302.462,116.085,299.178,111.782,298.188,105.842z M340.928,130.382
	c0.16,1.701-1.314,1.603-2.464,1.604c-11.627,0.012-23.254-0.03-34.88,0.045c-2.118,0.014-2.828-0.768-3.074-2.83
	c-0.512-4.306-0.633-8.593-0.361-13.431c9.907,7.058,33.583,7.621,41.456-1.195C342.856,120.107,340.44,125.204,340.928,130.382z
	 M263.226,134.146c11.982-0.053,23.964-0.081,35.946-0.102c7.823-0.014,15.646-0.003,23.469-0.003c0,0.071,0,0.142,0,0.212
	c19.805,0,39.609-0.025,59.414,0.057c1.351,0.006,3.754-1.254,3.865,1.547c0.102,2.575-2.145,1.94-3.691,2.091
	c-33.748,3.291-67.593,1.985-101.384,1.437c-5.736-0.094-11.831-0.856-17.753-1.378c-1.407-0.123-3.174,0.396-3.105-2.041
	C260.056,133.486,261.861,134.153,263.226,134.146z M261.547,141.982c9.034,0.043,18.068,0.021,27.103,0.021
	c-3.659,2.268-7.564,3.27-11.654,2.815c-5.104-0.566-10.149-1.333-15.262,0.057c-0.853,0.232-2.762,1.05-2.918-0.965
	C258.682,142.198,260.067,141.975,261.547,141.982z M234.193,121.068c4.254-1.46,5.638,1.5,6.353,4.645
	c1.421,6.25,4.334,12.599-0.219,18.805c0.001,0,0.002,0,0.003-0.001c3.652-3.092,5.215-6.831,3.644-11.58
	c-0.614-1.855-1.192-3.726-1.69-5.614c-0.438-1.661-0.731-3.551,1.388-4.161c1.864-0.537,3.914-0.063,4.413,2.121
	c1.46,6.393,2.494,12.867-1.069,18.96c-1.95,3.333-4.365,1.636-6.641,0.26c-0.015,0.005-0.029,0.009-0.043,0.014
	c-0.002,0.002-0.004,0.003-0.006,0.005c0.001-0.001,0.002-0.003,0.003-0.004c-3.281,1.109-6.045,1.489-3.939-3.438
	c2.217-5.188-1.355-9.045-2.688-13.46C233.069,125.53,229.155,122.798,234.193,121.068z M198.512,134.372
	c5.588,0.056,11.193,0.821,16.758-0.316c-0.415-0.802-2.177-0.75-1.695-1.935c1.215-2.985,8.702-3.949,10.635-1.344
	c2.611,3.52,6.38,6.711,3.367,12.007c-0.929,1.633-1.732,2.499-3.506,2.178c0.002,0.031,0.007,0.062,0.009,0.093
	c5.799,3.895,8.059,3.894,10.087-0.039c-0.021-0.018-0.043-0.033-0.064-0.051c0.024-0.052,0.041-0.103,0.064-0.155
	c-1.638,0.119-2.251,3.543-4.815,1.24c-2.095-1.882-0.326-3.363,0.047-4.798c1.291-4.963-2.689-11.96-8.954-14.861
	c1.924-0.814,3.618-1.806,5.444-2.239c2.583-0.614,4.575-0.118,5.987,2.82c2.781,5.786,5.159,11.435,2.29,17.838
	c0.039-0.003,0.076-0.013,0.117-0.012c-0.039,0.078-0.078,0.144-0.116,0.218c2.819,2.441,6.667,1.279,9.862,2.74
	c1.343,0.614,2.909-1.494,4.239-2.819c1.92-1.913,0.011-6.292,4.445-6.52c0.639-0.032-0.354-1.308-0.737-1.977
	c-1.685-2.938-3.124-5.992-0.275-8.974c1.82-1.904,3.619-2.438,4.63,0.956c3.335,11.2,1.483,22.419-8.64,28.766
	c-3.502,2.196-7.382,5.142-8.687,9.802c5.866-6.189,13.523-10.515,18.23-17.957c2.021-3.197,5.995-2.295,9.123-2.814
	c4.055-0.674,8.118,0.322,13.204,0.959c-11.028,9.128-17.177,20.581-21.067,33.057c-3.4,10.903-4.091,22.329-2.721,33.777
	c0.113,0.943,0.161,2.062-0.23,2.872c-5.022,10.42-11.86,19.587-19.637,28.09c-2.322,5.521-3.148,11.771-8.247,15.908
	c-6.383,5.18-10.615,5.658-16.672,0.273c-6.001-5.335-8.888-12.896-9.678-20.548c-0.514-4.979,1.596-10.3,2.867-15.384
	c4.538-18.153,8.39-36.448,11.709-54.859c1.456-8.078-0.471-16.024-1.008-24.024c-0.096-1.432-2.278-3.493,0.264-4.082
	c2.172-0.502,4.906-1.152,7.016,0.778c0.693,0.635,0.744,1.886,1.93,2.086c-0.001-0.022-0.005-0.044-0.006-0.067
	c-0.061-0.041-0.117-0.075-0.178-0.117c0.061,0.013,0.111,0.014,0.169,0.024c-0.226-3.674-1.488-6.913-4.001-9.666
	c-1.236-1.354-2.144-3.596-4.393-1.235c1.368,0.628,3.112,1.338,2.505,3.095c-0.543,1.574-2.354,0.587-3.559,0.6
	c-5.471,0.058-10.943-0.043-16.415-0.078c-1.145-0.008-2.926,1.18-2.914-1.164C195.305,134.555,196.865,134.356,198.512,134.372z
	 M178.185,134.337c0.212-1.866,1.477-1.81,2.907-1.663c1.637,0.168,3.292,0.17,4.938,0.244c0,0.029,0.001,0.059,0.001,0.088
	c1.813,0,3.632,0.089,5.438-0.024c1.895-0.119,2.741,0.554,2.537,2.519c-0.153,1.473,0.028,2.68-2.192,3.063
	c-4.039,0.699-7.83-0.373-11.705-0.851C178.204,137.478,178.004,135.928,178.185,134.337z M162.574,131.953
	c1.328-0.539,3.781-1.199,4.188-0.654c3.182,4.258,4.679-1.205,7.067-1.056c0.552,0.035,1.145-0.571,1.925-0.995
	c2.178,6.529,1.772,7.029-4.688,7.796c-2.657,0.315-5.395-1.384-8.013,0.553c-0.873,0.646-1.521-0.408-1.434-1.273
	C161.771,134.826,160.402,132.833,162.574,131.953z M157.919,138.296c-4.428,1.461-8.858,0.139-13.274,0.157
	c-1.526,0.006-1.638-1.899-1.571-3.221c0.08-1.586,0.601-2.945,2.598-2.929c1.99,0.016,3.98,0.003,5.971,0.003
	c0,0.017,0,0.033,0,0.051c1.989,0,3.983-0.099,5.964,0.028c1.878,0.12,2.334,1.458,2.41,3.147
	C160.09,137.138,159.429,137.798,157.919,138.296z M159.304,140.691c8.14-2.382,15.391-2.204,23.142-0.579
	c-1.637,1.548-2.985,0.62-4.23,0.532c-1.477-0.104-2.936-0.555-4.409-0.591c-1.477-0.036-2.821,0.545-3.741,1.597
	c-0.063,2.458,4.43-0.988,3.663,3.163c1.559,0.088,3.208-1.661,5.446-0.054c-3.938,1.237-7.143,3.834-11.246,3.563
	C163.217,148.013,163.764,142.217,159.304,140.691z M164.971,168.44c-0.703-5.041-1.731-10.04-2.696-15.042
	c-0.475-2.459-0.625-3.668,2.768-2.633c2.574,0.785,5.86,0.846,8.349-0.073c4.003-1.479,4.322,0.206,4.863,3.41
	c0.98,5.813,2.493,11.536,3.651,16.707c0.215,2.079-0.029,3.15-1.894,3.314c-1.804,0.159-3.581,0.637-5.369,0.974
	C166.023,176.72,166.124,176.705,164.971,168.44z M197.438,287.838c-6.565,2.725-6.726,2.599-8.162-4.125
	c-6.547-30.655-12.809-61.373-20.024-91.885c-0.7-2.961-2.044-7.049,4.182-6.764c3.381,0.154,7.543-2.951,10.084-1.796
	c3.039,1.381,2.105,6.388,2.716,9.87c4.26,24.273,8.512,48.549,12.796,72.817c1.221,6.915,2.54,13.812,3.828,20.789
	C200.987,287.517,199.186,287.112,197.438,287.838z M222.785,407.694c-2.79,0.575-2.226-2.08-2.546-3.238
	c-5.142-18.557-10.132-37.156-15.115-55.757c-0.764-2.853-1.481-5.65,1.473-8.028c2.909-2.342,1.911-6.554,4.102-9.65
	c4.543,24.29,9.028,48.381,13.594,72.457C224.646,405.341,225.503,407.133,222.785,407.694z M216.42,661.098
	c0.223-18.649,0.252-37.318,0.923-55.96c0.664-18.452,1.931-36.882,2.958-55.32c0.026-0.467,0.334-0.917,0.511-1.375l-0.083,0.162
	c0.424-6.126,0.888-12.25,1.251-18.381l3.405-19.462c1.057-3.613,2.167-7.212,4.02-10.768c1.728,40.607,1.605,81.175,0.974,121.755
	c-0.415,26.654-0.506,53.314-0.583,79.973c-0.094,32.988-0.022,65.976-0.879,99.011c-0.018-0.113-0.043-0.225-0.062-0.339
	l-0.105,3.856c-3.312,1.923-9.805-0.349-11.919-1.007c-0.225-0.058-0.451-0.115-0.676-0.173c-0.34,0.051-0.138-9.227-0.001-14.366
	C216.147,746.168,215.911,703.628,216.42,661.098z M216.08,809.489c2.276,2.609-1.101,7.056,3.645,7.488
	c2.931,0.268,5.976,0.645,8.759-1.436c1.26,6.677,1.771,13.194,0.964,20.085c-2.929-2.166-5.957-1.244-8.607-0.227
	c-4.387,1.687-4.884-0.26-4.806-3.904C216.188,824.386,216.08,817.27,216.08,809.489z M215.996,895.199
	c4.757-0.536,9.119,0.168,13.733,0.934C226.07,898.136,220.924,897.774,215.996,895.199z M252.185,852.56
	c7.717,9.584,6.04,23.807-3.756,31.352c-6.605,5.087-14.031,8.598-22.783,8.171c-8.832-0.46-17.461-1.817-24.203-8.211
	c-10.399-9.861-8.926-27.406,2.527-36.08c4.796-3.633,9.991-4.986,15.826-5.537C232.148,841.088,243.75,842.084,252.185,852.56z
	 M272.083,604.236c-4.683-19.636-9.218-39.311-13.438-59.051c-0.562-2.628-3.963-7.267,2.532-8.424
	c1.464-0.261,0.351-1.548,0.079-2.407c-6.451-20.347-11.756-41.021-16.671-61.768c-4.425-18.676-7.763-37.61-11.504-56.445
	c-0.319-1.606-0.229-3.344-0.043-4.987c0.283-2.514-0.847-4.033-3.183-4.009c-3.102,0.032-3.407-2.128-3.8-4.168
	c-5.971-30.984-11.808-61.995-17.963-92.942c-0.61-3.065,1.19-5.149,1.522-7.768c0.753-5.935-0.743-10.517-4.455-14.83
	c-1.962-2.28-1.51-5.388-2.009-8.062c-4.158-22.305-8.02-44.665-11.961-67.01c-0.743-4.213-1.573-8.417-2.128-12.655
	c-0.539-4.111,2.239-7.559,3.807-10.773c1.435-2.943,1.342-5.428,0.925-7.854c-0.824-4.783-4.301-8.01-8.512-10.103
	c-1.38-0.686-2.014-1.2-2.321-2.682c-1.197-5.772-2.6-11.501-3.84-17.265c-0.434-2.017,0.411-3.226,2.348-4.329
	c8.806-5.019,18.358-4.996,28.021-4.746c2.739,0.071,3.067,1.683,3.547,3.786c2.821,12.357,1.59,24.464-1.301,36.674
	c-4.464,18.854-8.387,37.836-12.595,56.751c-0.469,2.109,0.167,3.979,0.888,5.788c2.596,6.508,3.951,13.749,10.277,18.147
	c8.423,5.856,19.289,3.662,22.793-5.979c5.056-13.913,16.621-23.263,23.24-36.117c2.547,13.303,6.75,26.003,9.053,39.153
	c2.562,14.63,3.173,29.066,0.962,43.881c-2.116,14.177-4.398,28.364-5.48,42.717c-1.093,14.507-3.435,28.917-4.598,43.42
	c-0.5,6.227,0.563,12.583,0.973,18.878c1.498,23.021,8.429,44.849,13.981,67.052c3.957,15.825,4.543,32.35,1.923,48.847
	c-3.166,19.932-0.478,39.548,5.092,58.811c3.762,13.01,5.213,26.454,7.633,39.717c0.51,2.792-1.974,4.746-1.974,7.543
	c0,4.203-1.419,8.316-1.751,12.674C278.782,630.55,275.231,617.441,272.083,604.236z M313.407,665.662
	c1.758,12.693,1.328,15.226-10.921,17.104c-4.56,0.699-9.195,0.908-13.797,1.341c-11.07,0.771-12.16-6.306-10.017-15.781
	c1.583-7.002,5.127-13.487,5.722-20.806c0.428-5.271,1.283-10.513,1.531-15.788c0.203-4.306,2.335-5.696,6.303-5.799
	c2.549-0.065,5.002,0.362,7.243,1.229c3.218,1.243,6.362,1.282,9.031-0.523c2.52-1.705,3.145,0.125,3.202,1.479
	c0.432,10.21,5.205,20.189,1.48,30.666C312.458,660.83,313.083,663.328,313.407,665.662z M324.049,672.682
	c-0.104,2.703-1.767,2.406-3.375,2.283c-1.771-0.136-4.455,0.992-4.473-2.309c-0.034-6.171-2.494-12.241,0.374-18.575
	c1.718-3.794-0.814-8.094-0.809-12.27c0.005-4.071-1.082-8.153-1.798-12.212c-0.312-1.771-0.34-4.054-1.444-5.144
	c-5.503-5.429-4.284-12.342-3.99-18.685c0.827-17.851,4.426-35.417,6.271-53.17c0.862-8.299-1.144-16.504-2.277-24.689
	c-0.813-5.872-1.753-11.408,0.312-17.396c3.477-10.087,3.615-20.837,4.034-31.373c0.494-12.463-0.134-24.977,1.18-37.414
	c0.479-4.55,1.512-9.042,2.444-14.448c2.454,10.161,1.463,19.536,2.358,28.777c1.863,19.247,1.176,38.76,6.17,57.669
	c0.862,3.266-0.625,6.138-1.017,9.193c-1.842,14.355-2.975,28.731-0.996,43.17c1.455,10.611,2.905,21.224,4.522,31.812
	c1.172,7.68,2.369,16.583-1.154,22.548c-5.594,9.469-4.528,19.419-6.603,29.089c-0.292,1.365-0.391,2.665,0.153,3.896
	C326.77,659.854,324.296,666.261,324.049,672.682z M352.993,684.952c-1.612,0.289-3.321,0.043-5.746,0.043
	c-2.89,0.097-6.461-0.271-10.086-0.912c-10.032-1.775-12.441-5.787-10.632-16.594c0.668-3.99,0.642-7.465,0.014-11.429
	c-1.514-9.539,0.179-19.019,2.356-28.364c0.235-1.009,0.523-2.21,1.849-1.294c3.948,2.731,7.764,0.366,11.338-0.581
	c6.955-1.844,13.068,2.958,13.136,10.146c0.102,10.813,0.488,21.843,6.14,31.723c1.062,1.855,1.545,3.9,1.702,6.132
	C363.664,682.325,359.902,683.712,352.993,684.952z M398.785,861.266c0.151-1.621,1.494-1.939,2.914-2.128
	c3.393-0.45,6.563-1.54,9.691-3.938c1.141,2.76,1.239,5.244,1.312,7.717c0.072,2.481,0.016,4.967,0.016,7.527
	c-2.275,0.23-4.088-1.37-6.559-1.076C402.581,869.793,398.456,864.802,398.785,861.266z M416.021,878.684
	c10.573-0.617,21.743,2.006,30.034,10.042c5.097,4.941,3.819,12.646-2.314,16.643c-6.711,4.374-14.29,5.686-24.171,5.676
	c-9.174-0.548-19.91-2.403-29.083-9.539c-4.58-3.563-7.253-8.576-6.117-12.068c1.578-4.853,7.794-8.519,13.335-9.25
	C403.79,879.384,410.121,879.027,416.021,878.684z M418.238,620.327c-0.309,32.813-0.742,65.628-1.521,98.434
	c-0.779,32.787-1.92,65.567-3.2,98.339c-0.213,5.47-1.124,10.963-0.677,16.429c0.391,4.768-1.252,6.748-6.008,6.129
	c-0.964-0.125-1.957-0.018-3.067-0.307l-4.494-0.443c4.052-99.933,2.808-200.018,9.244-299.901c0.124-2.269,0.362-6.492,0.44-6.972
	c0,0,0.42-2.972,6.857-1.909c0,0,1.312,0.062,1.688,1.438c0,0,0.413,16.424,0.379,20.779c0.22,11.17-0.604,22.389,0.506,33.526
	C419.526,597.33,418.346,608.842,418.238,620.327z M412.204,509.062c0.745-2.991,1.518-5.975,2.265-8.908
	c2.331,0.234,2.51,1.741,2.534,3.27c0.076,4.777,0.148,9.555,0.113,14.332c-0.007,0.863,0.241,2.471-0.753,2.459
	c-1.011-0.013-2.472-0.342-2.913-2.008C412.652,515.193,411.403,512.274,412.204,509.062z M418.028,398.222
	c-0.2,1.345-0.132,3.253-1.499,3.378c-4.434,0.406-3.365,3.516-3.546,6.185c-1.284,18.959-5.272,37.451-9.332,55.964
	c-1.936,8.826-1.612,17.996-4.253,26.874c-3.553,11.943-5.784,24.276-8.783,36.392c-1.105,4.469-2.013,9.824-0.42,13.223
	c3.227,6.887,0.95,12.783-0.403,19.028c-1.461,6.739-3.234,13.411-4.884,20.109c-6.71,27.25-14.4,54.235-21.897,81.272
	c-0.242,0.873-0.572,1.516-1.562,2.094c-1.791-4.4-3.149-8.791-3.521-13.589c-0.594-7.668-0.062-15.435-3.437-22.862
	c-1.182-2.601,0.271-6.454,0.688-9.715c2.237-17.507,7.61-34.334,11.239-51.54c2.972-14.086,3.496-28.208,0.858-42.414
	c-1.932-10.398-0.925-20.788,0.136-31.199c2.162-21.206,11.361-40.793,14.011-61.894c2.042-16.268,4.284-32.395,2.919-48.971
	c-1.345-16.328-3.361-32.549-5.378-48.782c-1.466-11.802-3.187-23.57-4.716-35.364c-0.276-2.136-0.271-4.321-0.235-6.482
	c0.315-19.39,1.621-38.617,8.665-57.009c1.268-3.308,1.728-6.925,2.714-11.044c3.967,6.821,9.048,12.004,14.075,17.277
	c2.835,2.974,4.56,6.804,5.589,10.922c1.458,5.83,4.659,10.435,9.905,13.689c7.991,4.957,16.23,2.836,20.614-5.691
	c1.878-3.653,3.498-7.445,4.414-11.477c0.251-1.11,0.678-1.357,1.613-0.821c0.001-0.004,0.001-0.009,0.002-0.014
	c0.004-0.054,0.01-0.107,0.014-0.161c-0.821-22.328-8.817-43.273-12.587-65.039c-2.115-12.208-0.949-24.014,2.613-35.738
	c0.503-1.657,0.715-2.934,3.047-2.884c6.944,0.149,13.909-0.177,20.003,4.143c1.254,0.889,2.629,1.402,2.26,3.331
	c-1.11,5.809-2.09,11.646-3.324,17.428c-0.344,1.609-0.903,2.869-3.373,3.373c-5.65,1.152-9.107,12.353-6.447,17.495
	c3.022,5.841,4.683,11.941,3.258,18.937c-2.616,12.846-4.392,25.864-5.449,38.955c0.003,0.063,0.009,0.125,0.011,0.188
	c-0.01-0.005-0.017-0.008-0.026-0.014c-1.524,11.42-2.933,22.837-4.67,34.203c-0.669,4.375,0.227,8.891-4.343,12.723
	c-3.012,2.526-2.157,8.385-2.526,12.782c-1.465,17.456-2.941,34.896-5.848,52.197C421.953,371.16,420.038,384.699,418.028,398.222z
	 M437.876,354.29c-2.603,14.483-6.66,28.686-8.06,43.414c-0.469,4.937-5.749,6.788-9.781,3.859c-1.156-0.841-0.3-1.771-0.161-2.671
	c1.911-12.423,3.889-24.837,5.717-37.272c1.78-12.109,3.603-24.218,4.413-36.446c0.282-4.247,1.527-8.369,1.887-12.646
	c0,5.784,0.8,11.713-0.221,17.311c-1.061,5.813,1.092,10.648,4.274,14.049C439.354,347.528,438.499,350.825,437.876,354.29z
	 M467.902,187.41c-0.887,6.667-2.309,13.261-3.452,19.896c-4.135,24.007-9.485,47.802-12.494,72.007
	c-0.548,4.41-1.491,8.771-2.304,13.454c-0.428,0.045-0.608,0.114-0.757,0.072c-12.409-3.489-12.181-3.599-9.723-18.025
	c2.051-12.035,3.2-24.224,4.84-36.331c1.769-13.061,3.626-26.108,5.483-39.156c0.696-4.892,1.423-9.782,2.293-14.646
	c0.495-2.771,0.83-5.665,4.765-2.136c1.518,1.361,5.29,0.924,6.908,0.501C468.485,181.733,468.248,184.805,467.902,187.41z
	 M470.921,151.146c-2.624-0.023-5.249-0.072-7.872-0.11c0.039,0.061,0.067,0.114,0.111,0.178c-0.025-0.013-0.05-0.025-0.074-0.039
	c2.348,3.534,6.257,2.057,9.577,2.877c-0.59,5.522-1.137,11.067-1.792,16.6c-0.297,2.506-0.618,5.228-4.383,3.452
	c-0.142-0.066-0.327-0.04-0.493-0.057c-12.363-1.284-12.439-1.303-9.438-13.4c0.557-2.244,1.057-4.686,1.091-6.75
	c0.089-5.446,2.457-4.274,5.438-2.722c-0.033-0.049-0.068-0.089-0.101-0.14c0.021,0,0.042,0,0.063,0.001
	c-1.829-2.823,1.585-2.303,2.688-3.729c-3.158-1.221-6.813-0.861-9.677-3.475c4.569-3.516,9.399-4.409,14.915-3.588
	c-1,1.866-3.464,0.862-4.121,2.855c0.893,1.775,2.676,0.989,3.861,0.868c3.531-0.362,2.686,3.807,5.044,4.498
	C474.841,150.61,473.031,151.165,470.921,151.146z M478.106,138.146c-2.299-0.026-4.599-0.007-6.897-0.007
	c-0.001-0.047-0.001-0.094-0.001-0.141c-1.813,0-3.634,0.086-5.439-0.032c-1.108-0.073-2.809,0.684-2.79-1.598
	c0.014-1.676,0.44-3.074,2.312-3.166c4.265-0.208,8.538-0.305,12.809-0.325c1.604-0.008,2.4,1.229,2.327,2.651
	C480.359,136.819,479.91,138.167,478.106,138.146z M495.799,137.825c-3.451,0.141-6.901,0.301-10.349,0.508
	c-1.714,0.103-3.395,0.376-3.43-2.193c-0.029-2.147,0.743-3.532,3.037-3.649c1.312-0.067,2.632-0.013,4.965-0.013
	c1.472-0.235,3.908,0.153,6.338,0.636c1.485,0.295,1.633,1.401,1.613,2.632C497.95,137.189,497.178,137.769,495.799,137.825z"/>
</svg>
