<?xml version="1.0" encoding="utf-8"?>
<!-- Generator: Adobe Illustrator 16.0.0, SVG Export Plug-In . SVG Version: 6.00 Build 0)  -->
<!DOCTYPE svg PUBLIC "-//W3C//DTD SVG 1.1//EN" "http://www.w3.org/Graphics/SVG/1.1/DTD/svg11.dtd">
<svg version="1.1" id="gya_x5F_CnOsbCWIiaGJoghnUz2n3llZ-zwNKuqYtUcmwcI_xA0_Image_1_"
	 xmlns="http://www.w3.org/2000/svg" xmlns:xlink="http://www.w3.org/1999/xlink" x="0px" y="0px" width="640px" height="960px"
	 viewBox="0 0 640 960" enable-background="new 0 0 640 960" xml:space="preserve">
<g>
	<path d="M222.396,625.502c-0.057,0.096-0.101,0.192-0.161,0.289c0,0.005,0,0.01,0,0.015c0.066,0.027,0.119,0.06,0.182,0.089
		C222.409,625.764,222.402,625.634,222.396,625.502z"/>
	<path d="M494.642,109.987c-5.609-0.088-11.077,1.147-16.835,0.463c-10.893-1.293-21.899-0.646-32.804,0.774
		c-5.174,0.674-10.685,3.597-14.538-2.783c-0.331-0.548-1.62-0.999-2.248-0.803c-2.584,0.809-3.947-1.398-5.778-1.948
		c-4.345-1.306-9.087-1.302-13.572-2.492c-0.618-0.164-1.707,0.403-2.197,0.965c-3.22,3.686-8.876,3.419-11.878,7.404
		c-0.744,0.988-1.72,0.544-2.706,0.542c-43.999-0.064-87.999-0.18-131.997-0.015c-7.195,0.027-12.267-4.465-18.302-6.895
		c-2.348-0.944-4.375-4.119-6.77-0.355c0.026-0.006,0.051-0.02,0.078-0.024c-0.029,0.059-0.05,0.118-0.078,0.176
		c1.306,0.006,2.848-0.386,3.817,0.188c1.904,1.127,4.621,1.559,2.533,5.576c-2.438,4.691-4.527,9.905-4.432,15.531
		c0.022,1.296,0.067,3.217-1.43,3.22c-1.325,0.003-2.588-1.391-2.494-3.211c0.368-7.13-1.267-14.454,2.004-21.304
		c-0.034,0-0.07,0.002-0.104,0.001c0.035-0.058,0.069-0.099,0.104-0.154c-0.907,0.199-1.509,1.527-2.556,0.93
		c-5.579-3.178-9.326,4.016-14.616,2.575c-0.282-0.077-1.11,0.843-1.245,1.404c-0.658,2.756-2.765,2.16-4.684,2.265
		c-8.998,0.489-17.929-0.647-26.888-1.068c-2.714-0.128-6.059,1.32-7.706-2.63c-0.342-0.818-2.099-0.595-3.281-0.309
		c-5.441,1.313-10.95,2.054-16.566,2.017c-3.826-0.024-7.659,0.029-11.479,0.237c-6.271,0.341-3.729,5.265-4.293,8.544
		c-0.691,4.023,2.476,2.848,4.489,3.36c3.354,0.853,6.916,1.391,9.92,2.96c2.64,1.379,4.56,3.623,5.157,7.304
		c0.958,5.899,0.516,11.839,1.52,17.749c0.959,5.646,0.495,11.578-3.536,16.526c-1.647,2.021-0.495,10.592,1.632,11.023
		c4.236,0.861,2.623,7.801,7.919,6.995c0.062,0.489,0.105,0.982,0.19,1.468c1.659,9.57,3.38,19.129,4.972,28.71
		c3.317,19.957,6.598,39.92,9.792,59.896c0.319,1.993,1.36,4.518-0.852,5.987c-2.123,1.411-1.818,3.284-1.922,5.252
		c-0.645,12.172,1.525,24.181,2.154,36.279c0.189,3.642,1.168,7.47,6.493,6.74c1.685-0.23,2.163,1.02,2.368,2.534
		c0.951,7.026,2.014,14.036,2.988,21.059c2.06,14.864,4.507,29.689,6.027,44.608c1.991,19.548,8.794,38.161,9.83,57.986
		c0.785,15.047,4.965,29.889,6.802,44.924c0.591,4.837,1.788,9.69,1.57,14.662c-0.459,10.445-3.081,20.812-1.987,31.273
		c1.214,11.615,0.829,23.268,1.624,34.893c0.965,14.104,0.389,28.313,1.359,42.417c0.583,8.489,0.371,16.975,0.964,25.437
		c1.196,17.051,2.494,34.095,3.84,51.135c0.862,10.903,2.098,21.781,2.778,32.695c0.679,10.902,1.714,21.865-0.965,32.682
		c-0.516,2.081-1.368,3.746-3.73,4.71c-7.395,3.018-12.787,8.482-15.453,15.88c-6.715,18.637-5.424,36.772,5.588,53.527
		c4.514,6.867,10.746,12.322,19.368,13.459c11.218,1.479,17.724-5.658,23.424-13.777c7.316-10.421,6.75-22.408,5.627-34.084
		c-0.953-9.915-4.493-19.206-11.426-26.917c-2.103-2.339-4.291-4.458-5.603-7.872c-3.821-9.94-2.441-20.421-4.268-30.552
		c-2.167-12.015-1.819-24.501-2.326-36.792c-0.795-19.28-1.041-38.59-2.24-57.842c-0.508-8.155-0.036-16.361-1.042-24.432
		c-1.82-14.594,0.604-29.273-1.564-43.838c0.936,1.442,1.586,2.847,1.861,4.514c1.688,10.219,3.508,20.415,5.327,30.611
		c3.526,19.764,7.109,39.518,10.614,59.285c2.959,16.687,5.91,33.376,8.736,50.086c2.196,12.985,4.25,25.997,6.265,39.013
		c1.968,12.712,3.95,25.425,5.663,38.173c1.627,12.111,2.762,24.289,4.42,36.396c0.705,5.146,1.019,10.754,5.368,14.48
		c6.839,5.86,24.267,6.298,31.527,1.067c6.913-4.98,11.51-4.882,18.386,0.264c1.039,0.778,2.301,1.33,3.539,1.759
		c8.018,2.776,16.19,1.242,24.026-0.26c7.155-1.371,9.488-7.271,7.978-16.888c-1.341-8.53,0.693-16.74,1.562-25.069
		c0.989,24.061,7.504,30.533,17.308,38.893c18.317,15.617,39.166,11.699,52.83-2.968c18.793-20.173,12.967-60.785-17.987-70.49
		c-3.689-1.156-4.698-2.839-4.707-6.623c-0.068-31.646,1.819-63.221,2.989-94.825c1.225-33.099,1.295-66.235,3.035-99.326
		c1.005-19.123-3.073-38.288,0.881-57.476c1.418-6.88,1.722-14.088,2.685-21.128c1.61-11.776,3.23-23.551,4.836-35.327
		c0.323-2.373-1.619-4.156-1.096-6.895c3.793-19.87,7.376-39.784,10.7-59.739c3.246-19.491,6.049-39.057,9.234-58.559
		c0.293-1.791,0.17-4.627,4.028-4.151c2.4,0.296,4.566-1.689,4.839-4.695c0.975-10.726,2.175-21.437,2.868-32.18
		c0.274-4.251,1.502-9.147-3.499-12.145c-0.51-0.306-0.486-1.909-0.335-2.849c1.658-10.27,2.705-20.615,4.062-30.92
		c2.688-20.413,5.819-40.771,9.058-61.104c0.342-2.146-0.437-5.409,3.907-6.372c1.749-0.388,3.958-4.378,5.362-6.735
		c1.405-2.361,3.379-7.263,0.937-9.293c-3.294-2.739-0.83-7.998-5.317-9.483c0.399-7.776-1.438-16.745,1.876-22.971
		c2.889-5.428,10.511-10.315,18.045-10.695c6.58-0.332,4.667-4.395,5.03-7.877C500.481,109.965,497.68,110.036,494.642,109.987z
		 M451.706,113.152c2.016-0.625,4.158-1.176,6.345-0.681c1.362,0.309,3.983-1.068,3.542,1.753c-0.271,1.731,0.411,5.092-3.589,4.507
		c-1.903-0.278-3.924,0.24-6.051,0.41c-2.151-1.231-6.534,2.33-6.838-2.841C444.797,110.894,449.363,113.879,451.706,113.152z
		 M432.008,115.594c0.089-2.296,1.472-0.855,2.32-0.896c0.981-0.047,1.967-0.011,3.26-0.011c1.565,0.858,5.337-1.407,5.246,1.774
		c-0.084,2.922-3.756,1.015-5.778,1.496c-0.929,0.221-1.963-0.049-2.94,0.026C432.297,118.122,431.945,117.188,432.008,115.594z
		 M437.198,121.872c5.889,0.567,11.613,0.828,16.944,4.024c2.73,1.636,3.892,3.108,3.998,6.424
		c0.204,6.351-1.514,12.521-1.21,18.849c0.051,1.056-0.715,3.095-1.047,3.083c-4.78-0.172-4.853,4.339-7.177,6.534
		c-4.055,3.83-3.961,8.969-2.085,11.752c5.458,8.098,4.621,16.392,3.303,24.99c-1.224,7.983-2.423,15.963-2.986,24.028
		c-0.063,0.918-0.571,1.805-0.874,2.706c-3.234-20.373-9.67-39.909-14.367-59.846c-1.544-6.554-2.479-13.252-3.63-19.895
		c-0.136-0.783-0.151-1.832,0.259-2.425c3.057-4.412,2.646-9.416,2.724-14.374C431.111,123.791,432.294,121.4,437.198,121.872z
		 M418.375,106.048c1.732-0.213,3.476-0.102,4.166,1.82c0.434,1.207,0.414,2.578,0.626,4.077c-0.887,4.054-1.251,8.308-1.258,12.62
		c-0.004,1.976-0.865,4.325-3.278,4.203c-2.409-0.121-1.149-2.614-1.671-4.007c-1.975-5.278,1.141-10.764-0.799-16.067
		C415.631,107.244,416.835,106.236,418.375,106.048z M410.374,104.971c3.811,0.033,4.348,2.828,4.6,5.703
		c0.445,5.08-0.572,10.201,0.703,15.305c0.421,1.682-0.811,3.787-2.951,3.882c-2.902,0.13-1.493-2.357-1.677-3.687
		c-0.744-5.384-2.299-10.565-4.332-15.535C405.122,106.742,405.994,104.932,410.374,104.971z M399.026,109.929
		c2.259-1.345,4.041-0.873,5.783,0.734c0.225,0.207,0.326,0.573,0.43,0.885c1.74,5.265,3.472,10.533,4.78,14.51
		c-0.043,3.238,0.152,5.538-2.194,5.729c-1.991,0.163-3.071-1.896-3.655-3.582c-0.602-1.735,0.143-3.499,0.61-5.291
		c0.987-3.783-1.087-6.321-4.651-6.695c-2.045-0.214-4.424,0.129-4.746-2.039C395.098,112.261,397.235,110.995,399.026,109.929z
		 M399.17,118.504c2.162-1.304,3.638-0.106,3.882,2.055c0.341,3.007-0.163,5.938-2.377,8.304c-0.967,1.032-1.896,2.101-3.341,3.709
		c3.327-1.111,3.327-1.111,4.09,2.053c2.553-1.291,0.82-3.355,0.648-6.305c2.876,4.966,5.783,5.418,10.028,3.305
		c4.345-2.164,9.853-1.652,13.646-5.407c0.038-0.051,0.07-0.104,0.107-0.155c-0.705-0.266-2.129,0.196-1.995-0.713
		c0.669-4.545-0.677-9.187,0.986-13.716c0.808-2.198,2.058-3.108,4.001-2.488c1.973,0.629,2.671,2.489,1.794,4.376
		c-1.892,4.073-2.092,8.79-4.786,12.541c0.014,0.005,0.031,0.007,0.045,0.013c-0.05,0.051-0.103,0.093-0.152,0.143
		c-0.005,0.006-0.009,0.013-0.014,0.02c2.473,0.367,2.328-2.341,4.309-3.848c-0.429,7.226,0.024,13.66-3.475,19.956
		c-1.845,3.32,0.401,7.738,0.986,11.61c2.288,15.137,7.461,29.588,10.827,44.469c2.611,11.543,5.182,23.148,6.099,34.955
		c0.331,4.259,0.008,8.861-2.467,12.946c-4.051,6.688-5.799,14.303-7.679,21.76c-3.089,12.253-7.139,23.947-15.789,33.531
		c-7.884,8.735-9.955,20.234-14.534,30.54c-5.084,11.442-11.869,22.115-15.208,35.028c-2.38-4.255-2.491-8.217-3.186-12.03
		c-1.802-9.895-6.631-18.155-13.413-25.471c-3.714-4.006-7.043-8.366-10.569-12.548c-1.764-2.092-2.245-3.44,1.218-4.396
		c3.235-0.894,5.453-3.316,7.412-6.23c4.427-6.584,9.353-12.832,14.016-19.259c1.956-2.696,3.072-5.717,3.86-9.011
		c2.444-10.216,9.508-17.526,16.17-25.138c6.275-7.17,8.787-15.462,7.118-25.192c-1.224-7.134-2.695-14.319-2.427-21.653
		c0.688-18.807-1.495-37.398-3.762-56.019c-0.598-4.906-4.384-5.991-7.058-8.219C390.809,135.877,391.082,123.376,399.17,118.504z
		 M367.87,689.555c2.621,17.629,0.134,34.829-4.327,51.938c-3.188,12.223-5.714,24.623-8.312,36.991
		c-0.532,2.534-0.077,5.276-0.077,8.919c-5.188-2.732-9.433-0.543-13.717,0.225c-2.382,0.428-4.763,0.854-6.622-0.762
		c-2.206-1.918-0.02-4.016,0.516-5.9c2.244-7.902,0.922-15.89,0.203-23.711c-1.358-14.779-4.861-29.341-5.395-44.215
		c-0.327-9.106,1.662-18.071,3.145-27.164c2.788,0.002,1.692,4.106,5.127,4.363c-10.318-20.12-10.574-41.408-10.38-63.353
		c8.757,3.814,17.355,5.897,26.388,5.069c5.908-0.541,11.828-1.256,17.644-2.398c2.847-0.561,3.398-0.402,2.266,2.38
		c-0.736,1.809-0.838,3.894-1.671,5.642C364.672,654.332,365.233,671.817,367.87,689.555z M369.081,628.395
		c-10.045,1.514-20.017,2.586-30.063,0.498c-9.394-1.952-11.21-4.684-12.105-13.859c-1.951-19.99-3.661-39.97-2.95-60.082
		c0.021-0.581-0.286-1.175-0.656-2.589c-1.925,2.589-1.327,4.635-1.261,6.494c0.684,19.293-0.789,38.432-3.889,57.464
		c-0.026,0.165-0.026,0.336-0.07,0.495c-0.842,3.044,1.546,6.752-1.455,9.241c-2.628,2.18-6.244,2.244-9.414,2.632
		c-10.535,1.29-21.105,1.924-31.623-0.644c-3.785-0.924-5.839-2.736-6.68-6.716c-2.338-11.067-5.82-21.915-6.973-33.208
		c-1.168-11.444,0.028-22.922,0.458-34.365c0.452-12.053,1.534-24.088,3.576-36.01c0.529-3.089,0.719-6.235,1.147-9.344
		c0.388-2.811,1.896-3.926,4.814-3.262c9.228,2.101,18.579,2.956,28.053,2.892c16.825-0.115,33.65-0.052,50.475-0.024
		c8.479,0.014,16.857-0.835,25.132-2.685c1.693-0.378,3.051-0.873,3.453,1.836c2.875,19.309,6.005,38.732,5.597,58.18
		c-0.383,18.216-1.094,36.671-6.54,54.469C376.584,624.787,374.528,627.573,369.081,628.395z M313.187,692.934
		c1.1,8.661,2.883,17.117,1.978,26.048c-1.165,11.506-2.875,22.901-4.795,34.28c-1.638,9.701-2.565,19.473-0.121,29.076
		c1.258,4.94-1.096,5.479-4.675,5.654c-4.744,0.232-9.222-2.691-14.135-1.097c-1.376,0.447-1.383-1.039-1.422-2.012
		c-0.735-18.265-6.731-35.517-10.435-53.198c-2.676-12.78-3.496-25.358-1.822-38.349c1.184-9.185,0.585-18.687,1.748-27.818
		c1.696-13.323-5.613-23.922-8.425-36.75c10.444,2.945,20.587,3.141,30.847,2.316c4.31-0.347,8.574-0.862,12.612-2.207
		c3.058-1.018,3.521-0.329,3.515,2.616c-0.037,16.602-0.632,33.164-6.087,49.022C310.373,685.158,312.669,688.861,313.187,692.934z
		 M372.269,504.041c-16,3.062-32.161,1.55-46.142,1.959c-11.609,0-21.106,0.016-30.603-0.005
		c-8.298-0.019-16.419-1.489-24.555-2.931c-2.366-0.42-2.642-1.045-2.441-3.54c1.31-16.29,5.992-32.374,4.299-48.799
		c-1.159-11.243-3.955-22.32-6.058-33.464c-2.742-14.526-5.525-29.045-8.274-43.57c-0.117-0.62-0.232-1.322-0.065-1.903
		c5.91-20.481,13.639-39.993,29.456-55.196c4.342-4.173,5.831-3.779,8.105,1.677c4.088,9.809,11.536,15.646,22.118,16.591
		c4.875,0.436,9.864,0.567,14.854-0.656c9.49-2.326,14.821-8.74,18.191-17.257c1.495-3.78,4.167-4.54,6.897-1.304
		c6.523,7.732,13.105,15.437,19.202,23.501c5.099,6.744,4.875,15.606,7.942,23.058c4.944,12.012,0.492,23.041-1.806,34.163
		c-4.612,22.326-9.59,44.564-9.309,67.504c0.134,10.915,1.974,21.733,3.582,32.523C378.54,502.268,378.187,502.908,372.269,504.041z
		 M240.616,184.221c-0.56-8.797,1.785-17.364,2.936-26.021c0.13-0.981,0.453-1.964,0.42-2.937
		c-0.183-5.376,1.532-9.771,6.576-12.233c7.553-3.686,8.536-10.063,6.852-17.189c-0.823-3.482,0.278-3.796,3.24-3.787
		c20.821,0.063,41.644-0.033,62.465-0.049c23.146-0.018,46.291-0.004,70.291-0.004c-3.009,5.385-1.414,10.379-1.296,15.264
		c0.067,2.766,2.547,4.276,4.64,5.445c4.521,2.528,6.954,6.104,7.256,11.294c0.902,15.543,3.827,30.948,3.028,46.611
		c-0.5,9.812,1.212,19.419,2.72,29.079c1.217,7.794-0.986,15.106-6.156,21.166c-7.706,9.034-16.023,17.541-18.276,30.004
		c-0.755,4.181-3.979,7.509-6.584,10.912c-3.423,4.471-7.029,8.781-10.065,13.567c-4.688,7.39-14.279,8.881-21.246,3.631
		c-1.207-0.91-2.372-1.838-2.397-3.556c-0.124-8.479,0.472-17.066,3.515-24.844c1.049-2.683,5.03-4.982,6.462-8.48
		c1.254-3.064,2.248-6.141,2.034-9.538c-0.115-1.822-0.777-3.828-2.214-4.173c-4.213-1.015-3.194-3.584-2.913-6.559
		c1.49-15.731-7.057-28.968-21.786-32.968c-15.888-4.313-32.163,6.213-35.021,24.003c-0.593,3.69-1.349,7.529-0.213,11.379
		c0.303,1.025,0.778,2.585-1.319,3.105c-3.206,0.796-3.943,3.59-3.473,6.236c1.062,5.973,0.22,13.019,8.104,15.698
		c0.976,0.332,1.409,2.805,1.75,4.36c1.619,7.392,0.87,14.914,1.107,22.385c0.064,2.03-1.382,3-2.645,3.947
		c-4.484,3.366-13.458,2.702-17.433-1.269c-3.055-3.052-5.776-6.378-7.794-10.249c-1.997-3.829-4.196-7.496-7.94-9.997
		c-1.507-1.007-2.936-2.395-3.185-4.313c-1.64-12.622-8.676-22.077-17.316-30.845c-6.972-7.075-8.851-15.669-6.626-25.549
		C241.334,213.431,241.546,198.854,240.616,184.221z M298.816,236.961c4.886-11.968,17.403-19.142,29.495-16.862
		c11.519,2.172,21.737,14.756,21.64,26.964c-0.038,4.797-0.688,9.588-0.898,14.389c-0.05,1.129-0.77,2.692,1.086,3.484
		c1.746-1.246,0.485-5.857,3.442-4.711c2.688,1.041,1.58,4.662,0.906,7.195c-0.887,3.333-2.095,6.563-4.278,9.322
		c-2.431-0.155-0.035-3.327-2.994-3.603c0.027,13.219-6.332,22.128-19.649,23.687c-17.411,2.037-27.055-6.517-27.79-24.302
		c-1.979,0.376-1.668,1.311-1.759,1.982c-0.108,0.796,0.101,1.671-1.064,2.537c-3.096-4.279-5.215-8.789-4.979-14.251
		c0.057-1.303,0.526-2.736,1.488-2.881c1.352-0.204,2.454,0.97,2.485,2.507c0.039,1.861,0.287,3.524,2.846,5.152
		C296.957,256.681,294.8,246.799,298.816,236.961z M303.218,306.812c-0.112-4.99-0.042-9.984-0.042-15.385
		c13.76,10.374,27.13,10.803,40.855-0.549c-0.357,5.899-1.434,10.958-1.033,16.083c0.131,1.673-0.553,3.14,2.561,3.499
		c3.527,0.407,5.592,3.177,3.452,7.267c-3.808,7.277-8.602,13.577-17.35,14.722c-13.775,1.802-24.318,0.887-32.278-11.634
		c-3.601-5.663-3.426-6.95,2.185-10.537C303.262,309.195,303.253,308.368,303.218,306.812z M256.961,114.315
		c22.623-0.025,45.245-0.019,67.868-0.019c0,0.049,0,0.099,0,0.147c22.258,0,44.516,0.012,66.773-0.031
		c1.232-0.003,2.299-0.306,2.374,1.479c0.079,1.898-1.01,2.111-2.521,2.119c-7.271,0.039-14.637-0.59-21.794,0.35
		c-21.431,2.812-42.918,1.045-64.371,1.509c-8.301,0.18-16.842,1.041-24.856-0.535c-7.958-1.565-15.782-0.216-23.587-1.304
		c-1.341-0.187-2.938,0.685-2.907-1.921C253.971,113.425,255.695,114.316,256.961,114.315z M238.012,128.919
		c-0.168-6.392,2.593-12.049,4.668-17.849c0.785-2.193,3.032-2.392,5.083-2.005c2.477,0.468,4.651,3.673,4.876,7.025
		c-1.638-0.24-2.146-3.472-4.343-1.796c-1.679,1.28-3.604,2.581-3.29,5.125c0.443,3.582-1.513,6.619-2.145,9.957
		c-0.266,1.404-0.969,2.916-2.903,2.829C237.679,132.104,238.05,130.346,238.012,128.919z M233.125,128.373
		c-0.659,3.463-3.074,4.814-2.989,7.377c2.086-0.647,1.911-2.767,3.279-3.73c1.197-0.844,2.105-1.449,3.481-0.396
		c4.328,3.311,4.963,3.148,7.138-1.735c0.589-1.322,1.033-2.709,1.554-4.097c2.685,1.928,0.62,5.073,2.198,8.279
		c0.089-4.146,0.829-7.223-1.028-10.372c-2.055-3.487-0.457-6.324,2.354-8.293c4.447,4.87,7.914,9.916,7.093,17.155
		c-0.381,3.363-1.176,6.226-3.91,7.388c-9.281,3.943-10.05,11.997-11.428,20.418c-2.211,13.509-2.25,27.014-1.886,40.594
		c0.276,10.309-1.185,20.538-3.3,30.517c-1.877,8.856,1.642,15.479,6.345,21.886c3.13,4.265,7.083,7.927,10.685,11.842
		c4.002,4.349,4.816,10.04,6.187,15.396c1.071,4.186,2.698,7.627,6.252,10.255c3.265,2.414,4.913,6.156,6.959,9.573
		c3.555,5.939,7.458,11.624,14.646,14.117c-14.427,14.606-23.122,32.347-29.075,53.083c-4.077-12.65-9.384-23.398-13.636-34.579
		c-5.174-13.605-11.226-26.77-19.718-38.65c-6.63-9.277-10.751-19.587-13.124-30.613c-1.149-5.342-2.687-10.514-4.971-15.439
		c-3.326-7.171-3.358-14.407-2.271-22.185c2.877-20.596,8.995-40.418,13.458-60.628c1.558-7.054,2.89-14.186,3.773-21.349
		c0.449-3.641-2.343-6.828-2.764-10.61c-0.521-4.688,0.112-9.444-1.269-14.104c2.903,2.252,2.504,7.172,5.993,8.072
		C226.272,128.351,228.879,132.318,233.125,128.373z M225.458,108.33c0.333-1.67,2.317-2.766,4.443-2.262
		c2.148,0.51,2.118,2.195,2.103,3.896c-0.024,2.634-0.006,5.268-0.006,7.9c-0.103,0-0.206,0-0.309,0c0,2.64-0.019,5.28,0.009,7.92
		c0.012,1.14,0.27,2.344-1.312,2.693c-1.418,0.312-2.767-0.143-3.28-1.356C224.542,121.062,224.19,114.689,225.458,108.33z
		 M220.201,109.065c2.182-0.132,2.909,1.335,2.764,3.188c-0.36,4.602,1.32,8.975,0.969,13.673c-3.848-3.82-5.331-8.774-6.742-13.647
		C216.772,110.833,218.256,109.184,220.201,109.065z M197.166,114.668c5.925-0.104,11.85-0.168,17.775-0.27
		c1.384-0.023,0.855,1.072,0.973,1.686c0.298,1.545-0.565,1.965-1.983,1.932c-2.805-0.064-5.613-0.019-8.419-0.019
		c0-0.009,0-0.017,0-0.025c-2.641,0-5.283-0.051-7.921,0.023c-1.207,0.034-2.451,0.3-2.346-1.5
		C195.31,115.374,196.018,114.688,197.166,114.668z M178.146,115.397c0.048-1.557,0.447-2.528,2.24-2.485
		c3.141,0.075,6.29-0.039,9.423,0.134c1.717,0.095,4.099-0.924,4.251,2.485c0.147,3.304-1.818,3.314-4.078,3.355
		c-0.651,0.012-1.299,0.205-1.7,0.273c-3.028-0.447-5.793-0.879-8.566-1.257C178.131,117.688,178.105,116.674,178.146,115.397z
		 M161.908,112.635c1.879-0.36,4.425-3.571,6.125,0.26c0.422,0.951,0.769,0.855,1.34,0.382c0.503-0.418,0.842-1.104,1.397-1.377
		c1.6-0.787,3.353-2.106,4.895-1.927c1.443,0.168,1.129,2.457,1.331,4.37c0.676,4.3-3.479,1.501-5.083,2.384
		c-2.36,1.3-5.777-0.387-8.604,1.144c-0.732,0.396-1.746-0.053-1.666-1.155C161.749,115.283,160.556,112.895,161.908,112.635z
		 M157.918,118.494c-4.424,1.555-8.846,0.295-13.251,0.123c-1.624-0.063-1.668-1.864-1.584-3.191
		c0.104-1.631,0.827-2.913,2.684-2.97c2.152-0.065,4.308-0.016,6.462-0.016c0-0.037,0-0.074,0-0.111c1.66,0,3.319-0.01,4.979,0.003
		c1.831,0.014,2.655,0.988,2.789,2.779C160.122,116.793,159.689,117.872,157.918,118.494z M159.671,120.873
		c7.859-2.556,14.958-2.441,21.914-0.16c-4.101,0.719-8.261-1.685-12.766,1.861c3.873-0.224,5.789,3.873,9.477,1.606
		c-2.227,2.285-7.951,4.6-10.137,4.518C163.202,128.513,163.664,122.963,159.671,120.873z M163.166,138.173
		c-0.056-1.005,0-2.009-0.186-2.966c-0.695-3.567,0.771-4.669,4.242-4.265c2.717,0.316,5.509,1.242,8.243-0.001
		c1.631-0.742,2.57-0.726,2.833,1.51c0.218,1.846,0.595,3.217-1.916,3.563C172.024,136.618,167.692,137.423,163.166,138.173z
		 M163.459,140.644c2.518-0.54,3.198,2.903,5.57,2.369c-0.843-1.108-1.687-2.217-2.679-3.521c3.532-1.263,6.973-2.131,10.65-1.176
		c2.612-0.021,1.423,1.879,1.617,3.126c0.367,2.36,0.825,4.707,1.259,7.132c-1.114-0.229-2.03-0.416-2.945-0.604
		c1.421,2.56-0.922,2.685-2.176,2.854c-2.416,0.325-4.892,0.21-7.453,1.613c0.338-1.62,0.529-2.533,0.72-3.446
		c-1.234,0.259-1.69,1.382-2.671,2.487C164.267,147.81,162.801,144.468,163.459,140.644z M165.034,157.264
		c-0.69-3.178,0.747-4.431,3.904-4.305c1.279,0.051,2.598-0.384,3.868-0.717c4.294-1.127,7.463-1.891,7.838,4.823
		c0.254,4.55-0.283,6.155-4.733,5.959c-1.985-0.087-3.72,1.486-5.433,1.02C164.967,164.367,165.685,160.264,165.034,157.264z
		 M189.97,279.877c-4.128,1.435-4.374-1.908-4.655-4.33c-1.294-11.146-3.454-22.144-5.307-33.194
		c-2.527-15.072-5.001-30.154-7.563-45.221c-1.405-8.261-3.236-16.461-4.323-24.76c-0.733-5.601,5.178-1.502,6.896-3.97
		c0.171-0.245,1.216,0.249,1.818,0.155c7.561-1.173,7.288-1.106,8.232,6.28c1.67,13.063,3.812,26.064,5.682,39.103
		c1.8,12.553,3.485,25.122,5.258,37.678c1.127,7.982,2.112,15.993,3.599,23.909c0.533,2.835,0.008,3.545-2.685,3.555
		C194.613,279.091,192.427,280.386,189.97,279.877z M207.481,421.984c-1.967-6.009-2.412-12.313-3.4-18.493
		c-2.821-17.632-5.5-35.292-7.818-52.996c-0.804-6.139-2.479-12.296-1.641-18.799c4.029,2.854,7.558,2.119,12.758-2.688
		c1.234,8.242,2.469,16.186,3.604,24.145c2.125,14.888,4.128,29.794,6.301,44.675c2.438,16.696,5.001,33.374,7.53,50.057
		c0.259,1.71-0.184,2.496-2.005,3.206c-3.279,1.278-6.134,1.016-7.926-1.88c-1.623-2.622-2.571-5.707-3.532-8.68
		c-0.706-2.183-0.717-4.594-1.452-6.764 M246.572,790.517c3.27,7.268,5.793,14.679,5.409,22.931
		c0.373,5.901-0.959,11.647-2.95,17.285c-2.056,5.82-5.779,10.062-11.987,11.177c-6.757,1.214-11.648-2.655-15.001-7.726
		c-8.217-12.428-10.125-26.129-6.504-40.562c1.443-5.755,5.663-9.572,9.815-13.378c0.572-0.524,1.571-1.162,2.165-0.998
		C234.868,781.28,242.851,782.249,246.572,790.517z M238.838,759.052c-0.525,5.911-1.279,11.801-2.042,18.677
		c-2.733-3.644-5.278-5.902-9.492-4.643c0.941-5.157,1.821-10.135,2.774-15.098c0.27-1.403-0.332-4.252,2.311-3.069
		C234.642,755.927,239.287,753.99,238.838,759.052z M234.003,658.789c0.049,1.189,0.103,2.379,0.156,3.567
		c1.125,19.697,3.771,67.274,3.508,74.644l0.333,7.833l-7-0.333c0,0-8.5-86.501-7.833-104.834c0,0-0.332-5.692-0.739-13.54
		c-0.062-0.107-0.121-0.215-0.193-0.319v-0.001c-0.002-0.001-0.004-0.002-0.006-0.003c0.002-0.004,0.004-0.008,0.006-0.012
		c0-1.151,0-2.302,0-3.453c-0.789-15.681-1.701-36.926-1.087-41.017c-0.215-8.897-0.48-17.463-0.48-27.321l-1.403-9.726
		c-0.152-10.136,1.352-18.938,2.073-27.787c0.241-2.958,2.785-2.334,4.64-2.456c2.446-0.162,2.831,1.386,2.97,3.524
		c1.179,18.111,1.716,36.245,2.225,54.386C231.983,600.895,232.8,629.85,234.003,658.789z M276.053,800.803
		c-2.096-13.015-3.887-26.079-5.757-39.13c-1.8-12.565-3.484-25.146-5.314-37.707c-2.14-14.682-4.466-29.337-6.554-44.026
		c-1.603-11.277-2.914-22.595-4.44-33.883c-1.835-13.565-3.813-27.112-5.632-40.681c-1.206-8.997-2.291-18.012-3.317-27.032
		c-0.235-2.068-0.581-4.726,2.436-5.049c3.5-0.376,2.843-2.398,2.365-4.588c-3.29-15.047-7.257-29.933-10.782-44.914
		c-2.63-11.175-3.38-22.788-5.071-34.19c-1.84-12.405-2.328-25.213-5.43-37.176c-4.897-18.884-6.277-38.159-9.512-57.204
		c-2.893-17.028-5.433-34.121-7.866-51.224c-1.629-11.447-2.333-23.043-4.33-34.418c-1.536-8.748,2.008-17.491-0.794-26.093
		c-0.251-0.771-0.069-2.026-0.547-2.327c-7.551-4.756-5.036-12.95-6.29-19.566c-2.908-15.348-4.723-30.902-6.971-46.375
		c-1.42-9.778-2.901-19.55-4.168-29.349c-0.248-1.914-0.118-3.645,1.627-5.663c2.035-2.354,2.751-6.198,3.17-9.506
		c0.448-3.537,0.356-7.36-3.893-9.245c-1.267-0.562-1.001-2.002-0.948-3.146c0.062-1.321-0.25-2.634-1.743-2.356
		c-4.29,0.8-3.874-1.833-4.517-4.799c-1.524-7.03-1.634-14.106-2.066-21.199c-0.116-1.9,0.487-2.261,2.07-3.106
		c7.077-3.778,14.529-5.096,22.433-4.54c1.658,0.116,3.332,0.014,4.998,0.01c7.312-0.02,7.506,0.011,7.712,7.494
		c0.106,3.851,0.965,7.479,1.726,11.203c1.329,6.504-0.816,12.838-2.182,19.062c-3.696,16.838-8.077,33.523-11.836,50.349
		c-1.648,7.376-2.537,14.929-3.591,22.427c-0.636,4.521,0.371,8.893,2.166,13.041c2.678,6.19,5.04,12.498,6.343,19.114
		c2.402,12.191,7.843,22.899,14.852,33.058c11.126,16.128,16.781,34.894,24.804,52.528c6.804,14.954,8.536,30.991,11.727,46.736
		c2.968,14.649,5.2,29.457,8.526,44.02c2.579,11.294,1.464,22.39,0.219,33.563c-1.042,9.344-2.435,18.649-3.674,27.971
		c-1.499,11.285-2.869,22.59-4.567,33.845c-0.629,4.17-0.05,8.322-0.533,12.45c-2.802,23.914-1.214,47.354,5.465,70.663
		c3.382,11.804,8.207,23.212,9.943,35.553c1.29,9.164,1.502,18.366,0.284,27.314c-2.619,19.246-2.457,38.101,2.62,56.972
		c3.456,12.848,6.55,25.827,8.537,39.013c0.514,3.412,0.824,6.939-0.713,10.29c-1.518,3.308-1.257,6.871-0.979,10.307
		c0.768,9.5-1.986,18.217-5.694,27.602C277.977,817.846,277.415,809.254,276.053,800.803z M305.579,851.09
		c-6.258,1.625-12.406,1.438-18.456-0.839c-6.492-2.441-8.036-5.92-6.747-12.727c1.684-8.896,4.853-17.364,6.949-26.137
		c1.227-5.134,0.448-10.243,0.631-15.356c0.205-5.727,2.819-8.212,8.69-7.428c5.259,0.703,10.477,3.271,15.555-0.976
		c1.376-1.15,1.529,0.877,1.818,1.903c1.439,5.098,2.206,10.287,2.212,15.6c0.223,5.121,0.147,10.232-0.949,15.292
		c-0.945,4.359,0.436,8.479,1.428,12.639C318.963,842.512,315.147,848.605,305.579,851.09z M325.854,837.014
		c-0.136,2.262-2.635,1.556-4.122,1.714c-1.841,0.196-2.327-1.198-2.761-2.828c-2.025-7.631-1.498-15.262-0.916-23.031
		c0.803-10.715-0.078-21.1-5.403-31.116c-3.621-6.812-2.207-15.005-1.046-22.514c2.396-15.499,5.409-30.955,6.052-46.617
		c0.313-7.638-1.132-15.519-2.929-23.015c-1.301-5.429,0.105-10.071,1.248-15.015c3.458-14.954,4.366-30.152,3.985-45.434
		c-0.255-10.279,1.154-20.357,3.116-30.48c1.066,12.666,3.508,25.178,2.997,37.963c-0.598,14.97,2.088,29.557,5.47,44.13
		c1.078,4.646-0.682,10.103-1.741,15.06c-2.831,13.254-1.475,26.396,0.694,39.501c2.165,13.085,3.823,26.2,3.833,39.479
		c0.001,2.646-0.454,5.106-2.478,7.28c-3.08,3.31-3.292,7.772-3.836,12.007c-0.465,3.608-0.38,7.344-1.293,10.825
		c-1.215,4.635-1.435,9.034,0.244,13.55C329.313,824.78,326.224,830.832,325.854,837.014z M365.055,841.783
		c-0.236,4.358-2.199,7.722-6.251,8.412c-6.287,1.07-12.717,2.546-19.143,1.267c-8.592-1.711-13.309-9.182-11.405-17.798
		c1.361-6.162,2.509-12.213-0.139-18.384c-0.74-1.727-0.608-3.77-0.252-5.82c1.288-7.391,2.258-14.837,3.463-23.046
		c4.949,5.831,10.422,3.126,15.588,2.096c6.999-1.395,10.259,0.844,10.041,7.87c-0.296,9.534,1.175,18.643,4.758,27.539
		C363.988,829.563,365.394,835.516,365.055,841.783z M365.021,809.369c-0.503,3.39-1.07,6.735-2.535,10.263
		c-2.152-5.074-3.109-10.045-3.487-15.155c-0.483-6.537,0.271-12.986-1.646-19.651c-1.907-6.634,1.37-13.651,2.9-20.365
		c3.688-16.188,7.827-32.284,10.463-48.686c1.439-8.954,0.258-18.097-1.165-26.845c-2.043-12.549-1.58-24.815,1.022-36.975
		c3.26-15.229,9.925-29.586,12.589-44.975c1.55-8.947,1.687-18.129,2.89-27.147c2.356-17.666-0.565-35.108-2.222-52.552
		c-1.561-16.423-4.431-32.722-6.692-49.079c-1.81-13.09-0.901-26.117,0.556-39.193c2.686-24.099,9.695-47.365,13.331-71.275
		c1.404-9.239,6.24-17.203,10.298-25.413c3.5-7.08,6.845-14.178,9.148-21.782c2.377-7.848,6.944-14.486,12.176-20.805
		c7.21-8.707,10.562-19.287,13.37-30.046c1.688-6.465,3.385-12.937,6.994-18.81c-1.148,9.151-2.218,18.313-3.523,27.442
		c-0.22,1.538-0.259,3.61-2.898,3.973c-1.428,0.196-2.52,1.943-2.453,3.456c0.247,5.583-0.555,11.123,0.249,16.778
		c0.686,4.829,0.214,9.978-0.608,14.838c-2.584,15.271-4.655,30.607-6.83,45.936c-2.452,17.285-5.287,34.515-7.811,51.79
		c-1.835,12.565-3.683,25.14-4.962,37.767c-0.313,3.095-3.022,4.202-3.39,7.221c-1.607,13.239-3.755,26.415-5.802,39.599
		c-0.882,5.679-2.048,11.312-2.989,16.982c-1.086,6.544,0.295,13.378-2.136,19.754c-3.879,10.177-5.802,20.874-8.203,31.419
		c-1.274,5.596-1.28,11.503-1.583,17.284c-0.116,2.22-0.047,4.771,3.387,4.981c1.937,0.119,1.653,1.901,1.483,3.125
		c-1.844,13.229-3.817,26.441-5.643,39.674c-1.512,10.95-2.843,21.925-4.307,32.882c-1.527,11.443-3.15,22.874-4.672,34.317
		c-1.479,11.126-2.842,22.268-4.331,33.393c-1.729,12.922-3.466,25.844-5.335,38.747
		C368.859,784.625,366.859,796.985,365.021,809.369z M405.595,592.165c0.953,12.977-0.311,25.9-1.128,38.777
		c-0.526,8.286-0.383,16.588-1.162,24.895c-1.441,15.366-1.51,30.856-2.328,46.286c-1.248,23.549-2.659,47.088-3.957,70.634
		c-0.094,1.702-0.633,2.683-2.352,3.265c-12.144,4.114-21.597,14.027-25.46,29.91C379.868,734.434,393.122,663.374,405.595,592.165z
		 M431.873,795.606c4.897,5.37,7.553,11.983,7.128,19.109c-0.031,15.333-9.483,28.979-22.232,32.252
		c-13.512,3.47-30.945-4.237-35.759-21.394c-4.322-15.405-0.672-26.927,11.802-36.934c2.3-1.846,4.639-2.767,7.681-2.731
		c4.47,0.051,8.971-0.936,13.415-0.691C421.497,785.635,427.092,790.364,431.873,795.606z M419.008,545.97
		c0.001,10.724-0.052,32.112-0.422,49.331c0.015-0.036,0.025-0.074,0.041-0.111c-0.026,0.42-0.042,0.839-0.066,1.259
		c-0.14,6.181-0.322,11.769-0.561,16.052l-0.036,0.021c-0.205,10.412-0.167,20.827-0.436,31.235
		c-0.514,19.96-1.279,39.914-2.013,59.868c-0.472,12.803-1.121,25.599-1.591,38.401l-0.38,13.187
		c0.253,7.483,0.255,14.975,0.35,22.464c0.028,2.24-0.931,3.407-3.312,3.258c-1.322-0.083-2.665-0.042-3.984,0.087
		c-6.474,0.629-6.618,0.644-6.527-6.238c0.325-24.778,1.511-49.522,2.977-74.257c1.437-24.223,2.876-48.447,4.022-72.685
		c0.957-20.25,1.482-40.52,2.219-60.78c0.271-7.477,0.504-14.955,0.936-22.422c0.222-3.83,3.992-4.615,6.432-5.097l2.344-0.377
		c0,0,0.008,2.562,0.008,6.773C419.009,545.949,419.008,545.959,419.008,545.97z M439.099,379.809 M430.437,432.716
		c-0.694,5.748-0.319,11.057-3.397,15.96c-1.335,2.127-1.186,5.132-2.056,7.616c-1.639,4.673-4.959,1.317-7.571,1.402
		c-3.441,0.111-1.608-2.205-1.443-3.413c2.895-21.152,5.88-42.293,8.836-63.438c2.767-19.793,5.519-39.589,8.298-59.38
		c0.038-0.273,0.341-0.509,0.98-1.411c2.338,3.438,5.382,5.223,9.062,5.681c3.213,0.4,3.604,2.042,3.012,4.861
		c-1.539,7.321-2.868,14.688-4.231,22.045 M470.922,170.225c-0.98,8.184-2.041,16.36-3.233,24.517
		c-1.834,12.552-3.831,25.079-5.675,37.63c-1.967,13.384-3.839,26.781-5.74,40.175c-0.14,0.983-0.218,1.979-0.267,2.972
		c-0.322,6.557-0.317,6.558-8.006,6.468c-0.253-0.021-1.739-0.188-3.23-0.266c-3.61-0.188-3.977-2.096-3.529-5.317
		c2.068-14.873,3.848-29.786,5.768-44.681c1.538-11.939,3.16-23.868,4.686-35.81c1.151-9.003,2.318-18.007,3.234-27.035
		c0.247-2.426,0.968-3.266,3.347-2.844c3.898,0.69,7.807,1.362,11.735,1.844C472.066,168.128,470.996,169.604,470.922,170.225z
		 M473.069,155.619c-0.213,2.534-1.192,3.6-3.701,3.386c-3.109-0.264-6.183-2.13-9.349-0.242c-0.605-1.093-3.604,0.021-2.58-1.685
		c1.021-1.702-1.294-5.285,2.73-5.222c1.317,0.021,2.633,0.141,3.949,0.215c0.001-0.02,0.002-0.039,0.004-0.059
		c1.978,0.12,3.954,0.255,5.933,0.357C472.123,152.479,473.28,153.115,473.069,155.619z M472.479,150.521
		c-2.62,0.447-4.834-2.437-5.455-5.531c-0.919,0.085-1.839,0.169-2.758,0.253c0.021,0.04,0.043,0.079,0.064,0.119
		c-0.049-0.015-0.091-0.036-0.137-0.052c-0.175,0.756-0.349,1.512-0.522,2.268c2.889-1.103,3.561,1.318,5.446,3.356
		c-3.345-0.173-6.197,1.175-8.118-1.934c-2.138,0.54-2.02-0.887-2.004-2.27c0.022-1.982,0.006-3.965,0.006-6.345
		c2.616,1.029,2.894,4.12,5.192,4.923c0.004-0.02,0.009-0.041,0.014-0.061c0.02-0.002,0.039-0.003,0.059-0.005
		c-0.991-1.822-1.994-3.66-3.147-5.772c3.053,0.186,5.896,0.484,8.742,0.49c2.057,0.004,1.484,1.025,1.108,2.115
		c1.858-0.699,3.525-1.13,3.031,1.922C473.627,146.304,475.066,150.079,472.479,150.521z M474.558,135.632
		c-0.255,1.158-0.19,2.784-2.228,2.677c-3.481-0.183-7.034,0.126-10.438-0.464c-3.621-0.627-1.134-3.676-2.17-6.369
		c4.798,1.989,8.622,2.914,12.671,2.465C473.642,133.802,474.946,133.871,474.558,135.632z M470.354,131.582
		c-2.901,0.206-5.829-0.404-8.682-1.672c1.091-1.588,3.166-0.38,4.067-2.45c-3.147-0.846-6.555-1.061-9.496-3.307
		c4.371-3.638,9.232-4.668,14.738-3.832c-0.567,2.179-3.396,0.746-3.855,2.911c0.386,1.693,1.939,1.028,2.761,0.814
		c4.613-1.203,4.259,3.466,5.139,5.242C475.826,130.904,472.136,131.455,470.354,131.582z M480.379,115.35
		c-0.163,1.288-0.215,2.766-1.875,3.118c-1.125,0.239-2.293,0.275-3.76,0.437c-3.091-0.739-6.505-1.244-9.991-0.762
		c-1.238,0.172-1.796-0.389-1.769-1.666c0.031-1.45,0.373-2.872,1.981-2.952c4.57-0.229,9.152-0.3,13.728-0.257
		C479.636,113.276,480.531,114.142,480.379,115.35z M495.156,118.018c-1.812,0.006-3.622,0.002-5.434,0.002
		c-0.001,0.081-0.002,0.162-0.003,0.243c-1.646,0.09-3.297,0.129-4.937,0.284c-1.897,0.18-2.745-0.61-2.735-2.515
		c0.009-1.732,0.613-2.993,2.481-3.003c3.626-0.02,7.253,0.104,10.878,0.19c1.447,0.035,2.561,0.424,2.577,2.234
		C498.003,117.454,496.863,118.013,495.156,118.018z"/>
</g>
</svg>
