<?xml version="1.0" encoding="utf-8"?>
<!-- Generator: Adobe Illustrator 16.2.1, SVG Export Plug-In . SVG Version: 6.00 Build 0)  -->
<!DOCTYPE svg PUBLIC "-//W3C//DTD SVG 1.1//EN" "http://www.w3.org/Graphics/SVG/1.1/DTD/svg11.dtd">
<svg version="1.1" id="bgrMsymCwLspOZPbGtVCLcHP3Kjp_x5F_S6zabd8zosK8mo_xA0_Image_1_"
	 xmlns="http://www.w3.org/2000/svg" xmlns:xlink="http://www.w3.org/1999/xlink" x="0px" y="0px" width="640px" height="960px"
	 viewBox="0 0 640 960" enable-background="new 0 0 640 960" xml:space="preserve">
<g>
	<path d="M288.768,489.46c-5.569-1.753-6.728-6.077-7.897-10.688c-1.245-4.908-3.985-9.434-3.861-14.704
		c0.115-4.908,1.716-6.232,6.764-5.729c1.349-6.238-1.433-12.32,0.069-18.797c6.401-27.602,41.503-39.528,62.409-20.56
		c7.314,6.638,12.363,15.021,11.792,25.708c-0.257,4.806-0.043,9.637-0.043,14.511c4.628-1.305,6.155-0.381,5.923,4.427
		c-0.445,9.232-1.587,18.293-9.044,25.146c-2.147,1.975,0.164,2.679,1.688,3.304c12.021,4.925,23.668,10.826,36.399,13.875
		c4.004,0.959,7.939,2.079,11.645,3.933c1.79,0.896,2.887,0.606,3.416-1.705c1.938-8.477,4.061-16.913,6.184-25.347
		c0.318-1.267,1.401-2.941-0.348-3.409c-4.814-1.287-1.718-3.513-1.196-5.849c2.392-10.707,8.47-20.155,10.408-30.994
		c0.086-0.482,0.176-1.027,0.453-1.402c6.35-8.583,6.897-19.46,11.203-28.576c2.777-5.884,5.357-11.785,7.15-17.914
		c14.502-49.576,28.677-99.249,43.16-148.831c3.164-10.833,2.263-22.297,5.885-33.025c1.307-3.866,1.944-7.969,2.739-11.992
		c0.633-3.2,2.146-6.242-1.354-9.316c-2.605-2.289-0.662-6.064,0.011-8.923c2.706-11.504,5.825-22.911,8.83-34.345
		c0.292-1.107,0.562-2.774,1.322-3.119c7.251-3.28,6.037-10.506,7.141-16.191c2.104-10.854,8.066-20.114,11.26-30.458
		c0.426-1.381,1.294-2.387,2.343-3.135c2.479-1.771,4.868-5.288,7.798-4.229c2.076,0.75-0.152,4.402-0.129,6.796
		c0.073,7.132-1.89,14.288-0.767,21.373c1.175,7.405-0.146,14.34-2.03,21.343c-0.253,0.939-0.529,2.33-0.057,2.938
		c5.677,7.292,1.123,14.642-0.259,21.641c-3.4,17.24-8.617,34.186-10.431,51.668c-1.586,15.294-4.725,30.358-5.524,45.781
		c-0.851,16.34-3.188,32.6-4.692,48.911c-1.188,12.863-1.994,25.761-3.156,38.626c-1.146,12.69-2.573,25.356-3.789,38.042
		c-0.807,8.406-1.417,16.832-2.189,25.241c-1.244,13.513-2.577,27.018-3.82,40.528c-0.773,8.412-1.432,16.834-2.175,25.248
		c-1.252,14.186-2.585,28.362-3.776,42.552c-0.833,9.913-1.434,19.847-2.23,29.764c-1.25,15.52-2.62,31.03-3.862,46.551
		c-0.78,9.751-1.421,19.512-2.126,29.27c-1.12,15.511-2.108,31.022-4.774,46.389c-1.883,10.851-1.157,21.869-1.268,32.826
		c-0.02,1.886,0.999,2.557,2.34,3.355c16.938,10.102,24.396,25.771,24.497,44.749c0.066,12.546-3.276,24.592-12.18,34.274
		c-2.045,2.225-2.932,4.646-2.656,7.687c0.347,3.839-0.362,7.672-1.784,11.172c-1.432,3.525-3.386,7.224-8.394,5.58
		c-1.518-0.498-1.682,0.398-2.043,1.265c-1.46,3.487-3.936,4.132-7.213,2.644c-1.206-0.547-2.245-0.426-2.998,0.808
		c-2.105,3.448-5.065,2.999-8.257,1.885c-2.461-0.861-4.56-1.873-7.614-0.291c-3.076,1.593-5.646-1.145-6.604-4.265
		c-0.96-3.126-1.318-6.43-2.109-9.612c-0.625-2.514-1.045-5.352-4.697-5.583c-1.103,4.987,2.184,9.858-0.002,14.8
		c-0.652,1.476-0.412,3.427-2.518,3.792c-2.182,0.379-4.269-0.584-5.134-2.324c-3.731-7.506-9.599-14.513-5.858-23.971
		c0.892-2.255,0.264-4.634-1.202-7.016c-14.316-23.251-9.772-48.213,8.222-67.599c2.842-3.062,3.44-5.24,1.621-8.924
		c-2.76-5.592-4.929-11.476-7.365-17.228c-3.884-9.164-6.163-18.631-7.419-28.581c-1.542-12.225-8.3-22.744-13.743-33.564
		c-6.703-13.324-10.652-27.244-10.945-43.344c-5.035,6.188-8.299,12.104-9.89,18.948c-1.397,6.019,0.443,11.709,1.7,17.466
		c2.945,13.49,7.863,26.667,6.303,40.866c-1.516,13.794-1.457,27.751-4.728,41.368c-1.429,5.951,0.89,11.833,1.938,17.591
		c1.043,5.738-0.408,10.776-1.826,15.959c-2.033,7.439-4.33,14.811-6.607,22.182c-0.395,1.275-1.355,2.677-0.602,3.795
		c3.502,5.192,3.613,11.237,4.271,17.052c0.86,7.604,5.134,13.453,8.938,19.599c5.793,9.354,7.759,19.208,3.635,29.712
		c-3.121,7.947-8.895,10.551-17.084,8.267c-11.674-3.256-15.491-12.948-18.811-22.941c-1.129-3.399-1.613-7.042-2.128-10.61
		c-0.866-6-3.771-10.77-7.934-15.072c-5.367-5.553-7.944-12.415-8.056-20.122c-0.088-6.235,2.336-10.552,8.299-11.979
		c4.733-1.133,4.238-3.808,3.49-6.749c-1.494-5.868-3.367-11.642-5.115-17.443c-1.432-4.748-2.778-9.525-2.651-14.531
		c0.046-1.837-0.751-3.223-1.688-4.539c-7.791-10.932-12.718-22.983-14.369-36.331c-0.228-1.833-1.342-3.011-2.699-3.99
		c-8.616-6.209-18.596-3.008-22.418,6.924c-3.838,9.973-7.254,20.216-12.25,29.598c-3.466,6.506-6.769,12.525-7.546,20.099
		c-0.824,8.03-4.825,15.312-7.862,22.766c-0.9,2.211-0.857,3.864,1.516,5.108c1.308,0.688,2.554,1.63,3.574,2.699
		c6.837,7.17,7.967,11.37,2.553,18.271c-8.122,10.354-13.329,21.729-15.977,34.573c-1.398,6.781-4.061,13.311-8.855,18.595
		c-5.822,6.419-13.349,7.543-21.122,3.355c-6.965-3.751-10.116-11.483-8.394-19.438c2.315-10.696,8.032-19.836,12.925-29.357
		c1.966-3.827,3.939-7.542,3.683-12.112c-0.106-1.895,0.221-4.415,1.396-5.676c5.182-5.561,2.381-11.205,0.746-16.886
		c-3.082-10.708-5.043-21.562-4.237-32.763c0.225-3.134,0.312-6.338,1.063-9.359c2.248-9.052-0.032-17.865-1.596-26.562
		c-2.094-11.641-1.375-23.104,0.03-34.634c1.825-14.976,7.113-28.941,12.583-42.867c1.759-4.478,1.601-8.94-1.282-13.218
		c-2.167-3.215-3.817-6.78-6.017-10.769c-3.502,6.438-3.978,13.065-5.556,19.271c-3.706,14.571-10.5,27.296-20.545,38.374
		c-7.166,7.903-10.327,17.47-11.5,27.832c-1.304,11.523-6.1,21.803-11.53,31.781c-3.169,5.824-5.738,11.887-8.496,17.884
		c-0.944,2.053-0.759,3.468,0.785,5.228c15.265,17.397,17.745,43.343,5.992,63.095c-1.537,2.583-2.185,5.142-1.922,8.013
		c0.444,4.866-1.046,9.034-3.93,12.96c-1.426,1.941-2.224,4.398-3.037,6.716c-0.475,1.354-0.918,2.576-2.437,2.775
		c-1.601,0.21-2.764-0.553-3.764-1.893c-2.805-3.753-2.522-7.979-1.812-12.392c-3.508,0.507-4.056,2.517-4.099,5.337
		c-0.128,8.438-4.5,11.43-12.048,8.039c-1.897-0.852-2.369,0.146-3.187,0.913c-2.979,2.799-5.808,2.46-7.967-0.726
		c-1.511-2.229-3.13-3.036-5.658-2.391c-0.625,0.16-1.329-0.01-1.994,0.023c-4.326,0.217-4.359-5.853-9.778-5.771
		c-4.556,0.068-3.931-6.469-4.166-10.347c-0.203-3.356-1.336-5.829-3.186-8.543c-16.432-24.113-15.692-59.417,12.541-77.751
		c2.424-1.574,3.885-3.335,4.368-5.99c1.091-6.006,1.983-12.02,2.173-18.161c0.964-31.15,1.707-62.319,0.678-93.462
		c-0.958-28.995-0.236-57.984-0.856-86.97c-1.242-57.971-1.362-115.954-2.187-173.929c-0.285-19.988-0.498-39.978-0.724-59.966
		c-0.05-4.444-2.461-8.442-2.084-13.191c1.344-16.925-1.343-33.692-2.732-50.508c-0.205-2.484,0.151-5.031-0.203-7.484
		c-0.524-3.626,0.234-8.016-5.196-9.13c-1.816-0.372-2.336-2.402-2.446-4.41c-0.647-11.754-1.479-23.497-2.133-35.251
		c-0.264-4.738-1.028-9.497,3.394-13.341c1.833-1.593,0.634-4.795,0.313-7.111c-1.69-12.233-2.253-24.464-1.046-36.771
		c0.409-4.175-0.183-8.28-1.947-12.083c-0.95-2.048-0.412-2.59,1.603-2.842c4.47-0.56,9.271,2.26,10.787,6.537
		c3.51,9.9,8.217,19.399,10.248,29.792c0.567,2.905,0.239,5.985,0.802,8.892c0.981,5.067,0.782,10.061,5.037,14.703
		c3.481,3.797,2.588,10.781,1.405,15.969c-1.809,7.936,0.604,15.469,0.569,23.187c-0.02,4.304-0.902,8.468,2.356,13.205
		c3.757,5.461,2.892,13.504,2.986,20.333c0.218,15.807,3.426,31.293,4.149,46.966c0.732,15.891,5.575,30.831,8.735,46.141
		c6.435,31.176,13.596,62.202,20.43,93.296c1.481,6.738,2.699,13.539,4.366,20.229c0.45,1.807-0.189,5.216,3.854,4.521
		c0.725-0.125,1.54,1.475,1.784,2.729c2.092,10.768,4.671,21.441,8.394,31.745c4.438,12.283,6.847,25.003,9.337,37.735
		c0.229,1.161,0.491,2.143-0.533,3.175c-0.95,0.959-3.641,0.295-2.981,2.539c1.161,3.952,0.943,8.229,2.836,11.967
		c0.549,1.085,1.333,0.277,1.997-0.178c10.068-6.896,22.007-9.196,33.143-13.472C269.676,497.353,278.883,492.981,288.768,489.46z
		 M254.796,569.404c-2.082,2.923-2.416,5.849-1.153,9.015c0.483,1.212,0.41,2.97,1.828,3.316c1.75,0.429,2.533-1.264,3.34-2.49
		c7.17-10.903,10.196-23.272,11-35.944c0.842-13.279,0.103-26.654,0.244-39.985c0.039-3.649-1.033-3.583-4.013-2.439
		c-6.907,2.65-13.981,4.869-21.009,7.198c-19.17,6.353-32.373,18.557-38.051,38.341c-2.858,9.958-6.415,19.659-11.558,28.72
		c-4.096,7.217-6.944,15.042-8.272,23.114c-3.124,18.993-8.665,37.101-17.284,54.31c-2.897,5.784-4.123,12.189-4.757,18.524
		c-1.115,11.135,1.509,22.139,2.097,33.229c0.153,2.893,1.496,4.894,4.728,5.964c4.375,1.446,8.364,4.052,11.796,7.126
		c2.671,2.393,3.325,1.29,4.309-1.269c2.656-6.899,6.184-13.383,9.586-19.941c4.466-8.611,8.417-17.488,9.511-27.33
		c1.209-10.874,4.251-21.165,11.926-29.272c13.108-13.847,19.262-30.772,22.985-48.975
		C243.771,582.19,247.964,575.025,254.796,569.404z M165.506,657.926c1.288-3.293,2.48-6.628,3.884-9.871
		c3.851-8.896,8.847-17.324,10.907-26.947c2.644-12.353,4.271-24.976,8.839-36.83c4.313-11.194,10.931-21.386,14.264-33.058
		c3.134-10.977,6.908-21.72,15.621-29.879c1.66-1.555-2.96-17.522-5.072-18.376c-0.14-0.056-0.33,0.005-0.495,0.021
		c-2.773,0.279-2.99-1.656-3.609-3.698c-6.047-19.922-10.767-40.188-15.736-60.387c-0.863-3.511-2.441-7.666-0.863-10.706
		c1.241-2.391,1.006-4.098,0.496-6.021c-8.903-33.602-17.878-67.184-26.865-100.763c-2.131-7.963-4.365-15.897-6.701-24.385
		c-1.55,2.367-0.488,4.162-0.444,5.858c1.048,40.286-0.387,80.584,1.074,120.884c1.019,28.098,1.521,56.231,2.029,84.351
		c0.598,33.125,1.708,66.25,1.225,99.396C163.814,624.291,165.489,641.042,165.506,657.926z M382.104,568.166
		c6.058,6.871,9.324,13.723,9.871,21.723c0.817,11.943,3.519,23.329,8.431,34.323c5.681,12.715,14.194,24.423,16.07,38.527
		c1.43,10.752,4.116,20.927,8.457,30.777c2.188,4.965,4.435,9.93,6.162,15.06c1.398,4.15,2.849,4.306,6.312,1.851
		c2.869-2.032,6.515-3.036,9.909-4.233c1.588-0.562,2.419-1.164,2.73-2.964c1.545-8.896,2.979-17.828,5.033-26.612
		c1.656-7.083,1.752-13.864-1.12-20.578c-6.118-14.308-6.79-29.406-7.128-44.682c-0.15-6.836-1.582-13.772-3.356-20.417
		c-4.267-15.979-9.853-31.568-14.099-47.589c-3.496-13.192-10.319-24.817-23.539-30.902c-11.454-5.271-24.283-6.533-36.095-12.699
		c0.931,17.483-0.362,34.15,1.346,50.718c0.942,9.14,3.479,18.004,6.97,26.534c0.618,1.516,1.387,4.102,3.754,2.474
		c1.68-1.153,4.146-2.647,2.408-5.654C383.439,572.467,382.152,571.295,382.104,568.166z M456.999,700.297
		c0.008,11.629,0.007,11.63,8.677,12.896c0.659,0.096,1.419-0.006,1.966,0.291c4.217,2.292,4.41,0.021,4.41-3.443
		c-0.003-12.464-0.809-24.98,1.312-37.356c3.233-18.89,4.02-38.012,5.606-57.057c1.159-13.909,2.107-27.837,3.212-41.752
		c1.236-15.564,2.544-31.124,3.819-46.687c0.773-9.433,1.478-18.87,2.335-28.295c1.158-12.702,2.49-25.391,3.648-38.095
		c1.146-12.548,2.103-25.114,3.262-37.661c1.175-12.705,2.573-25.389,3.729-38.095c1.158-12.713,2.048-25.451,3.224-38.162
		c1.511-16.337,3.225-32.654,4.786-48.986c1.341-14.016,2.608-28.038,3.868-42.061c0.444-4.956,0.686-9.932,1.179-14.882
		c0.267-2.688-0.84-4.232-3.396-4.424c-3.966-0.298-7.895-2.933-11.902-0.36c-0.439,0.282-0.606,1.173-0.686,1.808
		c-1.699,13.777-3.389,27.556-5.037,41.339c-1.726,14.442-3.104,28.935-5.192,43.323c-2.025,13.959-2.765,28.001-3.82,42.028
		c-0.723,9.6-1.438,19.199-2.188,28.796c-1.256,16.048-2.559,32.092-3.804,48.14c-0.784,10.098-1.454,20.201-2.258,30.296
		c-1.212,15.229-2.561,30.444-3.727,45.676c-0.824,10.767-1.341,21.557-2.176,32.32c-1.192,15.403-2.622,30.787-3.82,46.19
		c-1.147,14.745-1.76,29.541-3.272,44.246C458.607,661.194,458.888,682.18,456.999,700.297z M486.038,304.988
		c-0.984,1.951-1.607,2.875-1.941,3.892c-10.7,32.599-21.434,65.188-31.959,97.843c-1.041,3.23-4.236,6.815-0.254,10.395
		c0.271,0.242,0.007,1.311-0.258,1.879c-4.131,8.866-5.921,18.346-8.246,27.782c-2.857,11.598-5.1,23.398-8.851,34.782
		c-0.722,2.186-0.195,5.877-4.708,3.62c-1.718-0.856-2.311,1.15-2.853,2.605c-3.262,8.758-6.603,17.485-9.882,26.237
		c-0.568,1.517-0.858,2.794,0.653,4.343c5.728,5.868,9.381,13.022,12.338,20.632c4.122,10.604,5.292,22.027,9.403,32.634
		c6.31,16.274,9.683,33.052,9.685,50.646c0.002,12.12,2.229,24.08,8.155,36.114c0.942-11.24,1.899-21.549,2.654-31.871
		c1.103-15.052,1.927-30.123,3.11-45.167c1.509-19.162,3.446-38.29,4.848-57.459c1.231-16.861,2.639-33.707,3.92-50.562
		c1.648-21.651,3.237-43.305,5.064-64.943c1.646-19.494,2.463-39.062,4.274-58.537c0.505-5.427,0.508-10.896,1.387-16.33
		C484.052,324.435,484.836,315.235,486.038,304.988z M387.004,577.63c-5.936,5.696-8.699,5.632-10.85,0.126
		c-5.202-13.32-8.502-27.141-7.868-41.487c0.493-11.187-0.813-22.306-0.359-33.464c0.073-1.8-0.079-3.771-2.155-4.661
		c-3.318-1.421-6.686-2.734-9.987-4.19c-2.058-0.907-2.677-0.067-2.798,1.875c-0.096,1.551,0.345,2.877,1.021,4.252
		c6.806,13.823,6.986,28.137,1.966,42.359c-8.615,24.41-34.846,34.104-55.814,20.462c-14.64-9.525-18.643-24.983-20.057-41.165
		c-0.813-9.304,1.333-18.076,7.961-25.209c1.065-1.146,1.396-2.536,0.516-3.546c-0.429-0.492-2.127-0.169-3.118,0.173
		c-3.262,1.119-6.402,2.626-9.705,3.582c-3.09,0.895-3.776,2.647-3.84,5.717c-0.329,15.953,1.267,31.954-0.937,47.856
		c-1.386,10.003-4.222,19.595-9.343,28.356c-1.37,2.344-2.958,5.318-6.169,5.104c-3.018-0.202-3.102-3.41-4.071-5.61
		c-0.195-0.444-0.083-1.422-1.213-1.295c-0.137,0.609-0.582,1.375-0.37,1.839c3.385,7.391,6.861,14.756,13.131,20.261
		c6.755,5.933,14.53,10.369,22.373,14.617c17.732,9.604,36.379,13.139,56.391,8.563c17.384-3.977,29.738-14.511,39.201-28.938
		C383.818,588.766,387.018,584.214,387.004,577.63z M254.452,613.2c-0.279,0.262-0.81,0.534-0.982,0.954
		c-6.95,16.904-10.832,34.489-11.455,52.765c-0.375,11.003,2.506,21.668,3.713,32.508c0.307,2.759-1.241,6.239,1.786,8.376
		c10.846,7.66,24.948,11.207,37.895,4.784c1.73-0.858,2.86-2.125,3.578-3.929c3.586-9.009,8.141-17.748,10.654-27.041
		c3.76-13.902,16.167-12.867,25.425-8.669c2.371,1.075,3.656,3.351,3.902,5.955c0.998,10.549,5.352,19.929,10.024,29.205
		c1.182,2.344,3.239,3.69,5.508,4.802c10.429,5.106,27.258,1.729,35.162-7.05c1.239-1.377,2-2.9,2.378-4.766
		c1.984-9.765,2.062-19.725,3.209-29.559c1.604-13.781,0.936-27.099-4.119-40.76c-1.214,2.474-2.168,4.497-3.189,6.486
		c-4.276,8.32-10.137,14.983-19.168,18.36c-8.877,3.318-18.117,5.021-27.518,5.275c-8.447,0.229-16.896,0.103-25.384-0.723
		c-11.092-1.077-21.938-2.938-32.06-7.459c-9.53-4.256-18.062-10.15-20.228-21.425C252.426,625.27,254.456,619.211,254.452,613.2z
		 M355.749,486.734c3.601-8.827,7.396-16.525,5.892-25.728c-5.888,1.597-3.5,7.455-6.195,10.527
		c1.271-9.85,0.328-19.619,0.529-29.366c0.037-1.79,0.004-3.527-0.654-5.359c-6.928-19.312-23.262-28.162-43.203-23.882
		c-16.646,3.573-29.859,24.504-26.539,37.949c1.525,6.174,1.033,12.85,1.399,19.302c0.057,0.996,0.329,2.188-0.861,3.179
		c-1.821-1.919-0.978-3.994-1.075-5.835c-0.126-2.402-0.729-4.522-2.356-6.339c-1.402-1.562-2.52-1.339-3.382,0.472
		c-1.734,3.643,4.277,21.728,8.071,24.177c1.531-1.171-0.515-4.019,2.231-4.925c0.629,5.602,0.854,11.038,1.912,16.308
		c2.299,11.447,10.868,18.784,18.876,26.032c5.534,5.009,17.029,4.833,22.21,0.188c7.486-6.71,14.582-13.89,17.504-24.135
		c1.817-6.378,2.045-13.009,3.397-19.81C356.143,481.413,354.234,483.867,355.749,486.734z M158,379.742
		c0-19.827,0.028-39.654-0.008-59.48c-0.031-16.827-0.109-33.654-0.252-50.479c-0.013-1.525,0.799-3.526-1.111-4.516
		c-3.269-1.694-11.638,3.47-11.616,7.143c0.148,25.153-0.131,50.305,0.603,75.463c0.665,22.809,0.299,45.646,0.568,68.468
		c0.894,75.958,2.096,151.914,2.642,227.874c0.125,17.428,0.039,34.933-1.685,52.361c-0.475,4.802-2.082,9.377-2.142,14.199
		c-0.022,1.81-0.413,4.021,2.439,3.885c3.024-0.146,6.039-0.847,9.051-0.803c3.061,0.044,3.994-1.796,4.273-4.113
		c0.854-7.075,2.107-14.173,2.132-21.265c0.095-26.647-0.033-53.295-0.525-79.943c-0.758-40.964-0.843-81.936-2.22-122.896
		C158.96,450.356,158.674,415.043,158,379.742z M378.162,603.719c-1.467,1.318-2.465,1.957-3.124,2.848
		c-5.147,6.945-11.797,12.104-19.511,15.761c-14.229,6.742-28.776,11.43-44.76,6.146c-12.134-4.012-23.455-9.629-34.227-16.417
		c-6.334-3.991-12.584-8.118-19.214-12.403c-0.566,6.348-0.68,11.988-1.064,17.589c-0.322,4.705-2.008,9.396-0.688,14.274
		c3.029,11.193,11.682,16.777,21.448,20.303c23.247,8.388,47.237,9.155,71.426,4.857c15.63-2.775,25.518-12.229,30.727-27.042
		c0.822-2.338,0.976-4.471,0.489-6.758C378.378,616.812,376.462,610.823,378.162,603.719z M463.463,797.188
		c0.461,0.026,0.921,0.054,1.382,0.08c-0.121,4.408,0.534,8.815-0.777,13.223c-0.938,3.146,1.18,4.592,3.769,5.328
		c2.762,0.784,3.586-0.782,4.32-3.288c1.697-5.782,1.438-12.061,4.693-18.019c0.266,4.995-1.464,9.178-1.909,13.525
		c-0.173,1.684,0.056,3.055,1.61,3.759c1.403,0.635,2.613-0.131,3.488-1.229c0.916-1.15,2.137-2.306,2.457-3.642
		c1.469-6.12,2.535-12.286,0.563-18.559c-2.36-7.52-5.178-14.955-6.766-22.642c-3.021-14.614-10.049-28.269-10.337-43.517
		c-0.048-2.529-2.036-2.373-3.631-2.166c-4.283,0.555-8.507,0.356-12.816,0.146c-4.586-0.226-8.431,2.867-11.456,6.064
		c-1.79,1.893,0.465,4.547,0.929,6.85c0.646,3.218,1.402,6.411,2.065,9.625c3.854,18.692,7.135,15.821-8.911,30.638
		c-0.244,0.226-0.442,0.514-0.715,0.693c-2.702,1.802-2.582,3.836-0.53,6.045c1.128,1.215,2.042,2.875,3.435,3.546
		c3.354,1.615,3.953,4.725,4.576,7.692c0.675,3.221,0.583,6.595,1.152,9.844c0.793,4.514,1.796,8.995,2.904,13.442
		c0.452,1.815,1.662,3.536,3.784,3.275c1.932-0.238,2.838-1.801,3.342-3.784c0.872-3.441,0.952-6.896,0.923-10.392
		c-0.017-1.955-0.322-4.022,1.824-5.598c0.179,4.953,0.538,9.68-0.736,14.403c-1.424,5.274,2.899,5.589,6.078,6.157
		c4.052,0.726,3.7-2.428,3.869-5.162C462.383,808.076,462.976,802.635,463.463,797.188z M161.531,797.574
		c0.587,0.001,1.174,0.002,1.761,0.003c0,4.617-0.051,9.234,0.022,13.852c0.034,2.157,0.905,4.117,3.254,4.334
		c2.367,0.218,4.45-0.576,5.599-3.109c0.573-1.264,0.79-2.456,0.848-3.789c0.313-7.129,2.245-13.955,3.968-20.82
		c0.379-1.512,0.919-2.938,2.487-3.485c7.617-2.656,8.938-7.607,3.45-13.091c-1.415-1.413-2.754-2.908-4.231-4.252
		c-4.847-4.412-5.86-9.811-3.962-15.83c1.681-5.332,3.411-10.667,5.531-15.832c1.01-2.459,0.796-3.983-1.232-5.582
		c-6.35-5-12.398-10.403-21.627-8.098c-2.426,0.606-3.961,0.478-4.592,3.683c-3.183,16.174-8.034,31.79-15.362,46.689
		c-4.611,9.376-7.308,19.434-4.701,30.2c0.646,2.666,0.977,5.318,4.399,4.445c3.493-0.891,1.222-3.469,1.174-5.513
		c-0.066-2.802-3.074-5.739,1.068-9.643c-1.452,6.262,1.306,10.701,1.858,15.587c0.327,2.894,1.573,5.375,5.508,4.692
		c4.326-0.749,3.241-3.864,3.124-6.524c-0.057-1.291-0.814-2.565-0.799-3.841c0.016-1.266-0.768-2.778,1.117-4.278
		c0.92,4.467,1.916,8.58,1.778,12.858c-0.093,2.884,0.44,5.736,3.374,6.456c2.768,0.68,4.121-2.077,5.649-4.032
		c1.062-1.357,1.04-2.593,0.618-4.152C160.626,804.86,160.638,801.19,161.531,797.574z M289.482,497.888
		c-3.711,4.562-5.553,8.49-6.515,12.939c-2.713,12.55,0.23,24.355,5.444,35.508c10.729,22.948,39.53,28.175,57.278,9.367
		c11-11.657,12.696-26.063,10.861-41.178c-0.556-4.58-1.572-9.191-4.636-13.697c-1.789,4.267-3.313,8.104-5.884,11.279
		c-2.609,3.223-5.75,6.022-8.273,9.305c-8.341,10.847-25.627,8.587-32.714-0.125C299.294,514.218,291.793,508.37,289.482,497.888z
		 M494.012,241.072c-0.749-1.111,1.094-3.098-1.502-4.175c-4.673-1.942-3.866,2.383-4.344,4.018
		c-10.362,35.468-20.54,70.99-30.723,106.511c-5.636,19.657-11.091,39.368-16.913,58.971c-1.349,4.538,1.35,4.507,4.174,5.748
		c3.694,1.624,3.635-0.614,4.396-2.925c8.611-26.123,17.492-52.157,25.903-78.344c4.865-15.146,11.673-29.737,13.489-45.793
		c0.613-5.417,1.438-10.81,2.113-16.219C491.752,259.69,492.857,250.511,494.012,241.072z M375.282,767.859
		c-0.159,1.341-0.257,1.832-0.271,2.324c-0.191,7.288-2.529,11.025-7.394,11.793c-7.567,1.194-13.524-2.607-16.017-9.237
		c-1.457-3.884,1.076-7.169,0.369-10.739c-0.201-1.015,0.963-2.846-1.562-2.7c-4.447,0.258-9.132,4.805-9.405,9.328
		c-0.42,6.919,1.316,13.635,5.91,18.445c6.646,6.957,9.729,14.938,11.182,24.133c1.059,6.691,3.654,12.976,7.594,18.603
		c4.104,5.863,12.678,9.572,18.1,7.83c5.7-1.832,8.796-7.854,9.307-16.041c0.528-8.479-2.701-15.541-7.218-22.16
		c-4.769-6.99-7.55-14.461-8.028-22.965C377.705,773.902,377.634,770.896,375.282,767.859z M247.429,768.848
		c-1.297,8.543-2.594,15.485-6.229,22.043c-4.752,8.573-9.779,17.15-11.834,26.991c-1.415,6.774,1.188,13.763,6.779,16.706
		c6.458,3.402,13.713,4.287,19.258-2.312c4.15-4.938,6.959-10.646,8.247-16.668c2.91-13.608,8.005-25.919,16.813-36.845
		c4.315-5.353,3.355-9.435-1.667-14.444c-1.626-1.623-3.408-3.057-5.538-3.954c-1.208,1.299-1.512,2.94-1.014,4.287
		c1.376,3.709,0.263,7.309-0.378,10.815c-0.729,3.988-2.93,6.707-7.778,6.604C255.106,781.879,251.218,779.249,247.429,768.848z
		 M380.219,708.72c-10.455,6.534-21.498,12.034-34.828,7.034c0.789,3.771,3.075,6.379,4.555,9.599
		c-2.807-0.268-2.369-3.436-4.903-3.937c0.628,6.512,2.671,12.473,4.438,18.523c2.523,8.64,5.985,17.252,4.006,26.488
		c-0.607,2.84-0.137,5.305,0.681,7.728c1.425,4.228,8.282,7.084,13.59,5.754c4.601-1.154,5.406-4.856,5.222-8.896
		c-0.209-4.559,1.256-8.76,2.573-12.982C380.59,741.877,387.499,725.927,380.219,708.72z M245.426,708.938
		c-2.004,13.089-2.174,25.418,1.32,37.83c1.853,6.582,4.838,13.22,4.115,20.197c-0.945,9.122,1.955,11.683,12.439,13.028
		c4.439,0.57,6.907-1.693,6.627-5.897c-0.887-13.299,4.145-25.058,8.757-37.025c1.739-4.514,3.202-9.328,2.198-14.512
		c-1.555,0.372-2.943,0.704-4.604,1.102c1.879-3.347,5.98-3.928,7.528-7.808C269.677,720.444,257.43,717.002,245.426,708.938z
		 M200.938,425.736c-0.246-7.111-2.359-12.809-3.607-18.622c-7.398-34.464-14.936-68.898-22.517-103.322
		c-2.495-11.326-5.254-22.595-7.911-33.886c-0.225-0.958-0.021-2.838-1.859-1.556c-1.064,0.742-2.574-1.576-3.19,0.757
		c-1.83,6.925-3.2,14.058-1.406,21.01c5.814,22.54,11.873,45.021,18.278,67.399c3.303,11.541,5.684,23.316,11.319,34.27
		c3.482,6.77,3.988,15.032,6.17,22.523C197.256,417.882,197.026,422.077,200.938,425.736z M504.957,180.845
		c-4.238,1.347-6.604,4.438-6.022,8.146c0.576,3.692,4.021,2.378,6.313,2.991c1.58,0.423,3.343,0.401,4.776,1.093
		c3.442,1.66,4.971-0.091,5.706-3.007c1.846-7.322,3.515-14.688,5.281-22.03c1.498-6.227,2.077-12.919,4.856-18.515
		c2.256-4.541,0.04-4.387-2.585-4.427c-3.188-0.049-6.3-0.463-9.372-1.086c-6.095-1.236-4.98,3.882-6.565,6.885
		c-1.943,3.682,1.118,3.896,3.462,4.906c-7.239,2.678-7.526,3.885-3.835,10.925c0.625,1.191,1.174,3.837-2.1,2.71
		c-1.001-0.345-1.448,0.122-1.961,0.9C500.749,173.622,501.528,178.372,504.957,180.845z M131.313,83.158
		c-0.427,3.151,2.37,4.477,2.407,7.213c0.075,5.652-1.088,11.221-1.308,16.842c-0.319,8.167-0.045,16.194,0.873,24.196
		c0.875,7.624,1.28,7.558,8.991,6.594c2.288-0.286,4.435-1.349,6.838-1.047c1.801,0.227,2.193-0.901,2.114-2.497
		c-0.328-6.606-0.617-13.221-2.113-19.692c-2.008-8.684-6.269-16.601-8.755-25.087C138.899,84.702,136.046,83.19,131.313,83.158z
		 M133.548,774.972c8.282-15.094,13.748-30.649,16.498-47.15c0.256-1.535,2.081-3.513,0.304-4.469
		c-1.529-0.821-3.96-0.613-5.765-0.086c-1.637,0.479-3.02,1.941-4.425,3.082C126.045,737.807,126.145,761.42,133.548,774.972z
		 M529.308,93.76c-5.205,1.664-6.514,6.146-8.669,10.517c-5.417,10.979-9.313,22.319-11.164,34.4
		c-0.218,1.423-1.328,3.121,1.215,3.265c4.295,0.243,8.484,1.511,12.854,1.109c1.536-0.141,2.414-0.484,2.755-2.075
		c1.165-5.447,3.649-10.925,2.521-16.441C526.699,114.187,529.722,104.144,529.308,93.76z M480.814,776.205
		c14.701-21.307,4.09-49.049-13.062-54.499C469.293,740.365,477.445,757.172,480.814,776.205z M427.889,774.134
		c3.604-3.086,6.977-5.773,10.104-8.722c2.139-2.016,4.424-4.263,4.023-7.568c-1.192-9.849-3.837-19.359-6.539-29.16
		C424.314,738.312,422.127,759.951,427.889,774.134z M182.926,734.27c-1.721,4.52-3.148,8.14-4.484,11.794
		c-4.573,12.514-3.098,17.411,7.443,25.686c1.725,1.354,2.693,1.22,3.035-0.887C190.946,758.394,191.098,746.195,182.926,734.27z
		 M423.438,791.413c-5.111,9.562,1.321,16.715,5.124,24.259c0.99,1.966,2.985,1.873,3.868-1.232
		c1.535-5.402-1.146-10.474-0.671-15.742c0.042-0.462-0.68-1.083-1.166-1.487C428.309,795.312,425.981,793.465,423.438,791.413z
		 M191.591,793.251c-2.724,2.209-5.429,4.062-7.714,6.337c-3.081,3.066-4.246,6.895-2.849,11.176
		c0.536,1.643,0.891,4.008,3.015,3.938c1.422-0.046,1.283-2.339,1.959-3.565c1.101-1.994,2.126-4.037,3.34-5.961
		C191.587,801.617,192.745,797.894,191.591,793.251z M525.93,159.939c-2.404,7.281-4.808,14.563-5.268,22.316
		C523.891,175.174,524.795,167.528,525.93,159.939z M520.682,184.562c-0.405-0.115-0.813-0.229-1.221-0.344
		c-0.961,3.165-1.921,6.331-3.15,10.383C520.745,191.698,520.387,188.009,520.682,184.562z"/>
</g>
</svg>
