<?xml version="1.0" encoding="utf-8"?>
<!-- Generator: Adobe Illustrator 16.0.0, SVG Export Plug-In . SVG Version: 6.00 Build 0)  -->
<!DOCTYPE svg PUBLIC "-//W3C//DTD SVG 1.1//EN" "http://www.w3.org/Graphics/SVG/1.1/DTD/svg11.dtd">
<svg version="1.1" id="N8z0Q8qvXPhRst-SDrCujM263hCugycFG9eCihFiRTg_xA0_Image_1_"
	 xmlns="http://www.w3.org/2000/svg" xmlns:xlink="http://www.w3.org/1999/xlink" x="0px" y="0px" width="640px" height="960px"
	 viewBox="0 0 640 960" enable-background="new 0 0 640 960" xml:space="preserve">
<g>
	<path fill-rule="evenodd" clip-rule="evenodd" d="M204.428,445.562c0.097,0.856,0.183,1.712,0.271,2.569
		c0.045,0.083,0.104,0.152,0.156,0.227L204.428,445.562z"/>
	<path fill-rule="evenodd" clip-rule="evenodd" d="M216.918,444.374c-0.063-0.647-0.125-1.313-0.189-1.952l0.138,2.098
		C216.883,444.472,216.905,444.423,216.918,444.374z"/>
</g>
<path fill-rule="evenodd" clip-rule="evenodd" d="M540.015,78.274c2.226-9.437-0.243-19.64,4.737-28.656
	c0.684-1.236,0.643-2.984-0.894-4.034c-1.688-1.153-3.252-0.553-4.525,0.658c-9.033,8.585-17.553,17.31-19.604,30.624
	c-0.75,4.87,0.305,11.476-6.728,13.837c-0.966,0.324-1.516,2.465-1.896,3.863c-3.105,11.393-5.952,22.86-9.271,34.189
	c-1.074,3.665-0.975,6.483,2.121,8.823c1.337,1.012,1.322,2.434,0.908,3.61c-4.136,11.742-4.682,24.222-7.54,36.219
	c-6.081,25.52-12.061,51.064-18.385,76.524c-5.651,22.751-10.34,45.743-17.021,68.24c-1.405,4.735-3.184,8.408-9.262,6.888
	c-2.604-0.651-5.27,0.228-7.833,0.941c-2.225,0.62-3.386,0.908-4.055-2.409c-2.94-14.581-11.885-23.745-26.347-27.616
	c-8.875-2.377-17.807-4.687-26.442-7.782c-15.764-5.65-18.053-9.286-17.979-25.627c0.003-0.667-0.107-1.355,0.021-1.996
	c0.764-3.8,0.297-9.329,2.627-11.053c6.717-4.966,6.383-11.857,7.271-18.541c0.358-2.692,0.519-5.902-3.723-6.157
	c-1.506-0.091-1.244-1.396-1.155-2.267c0.359-3.539-0.731-6.91-1.05-10.367c-1.811-19.636-22.358-29.981-35.213-26.125
	c-11.079,3.324-21.104,8.326-24.245,20.865c-1.424,5.686-0.317,11.594-0.58,17.393c-0.057,1.271,0.946,3.27-1.351,3.629
	c-3.277,0.514-3.412,3.6-3.313,5.359c0.394,6.997,2.428,13.575,7.807,18.542c0.69,0.638,1.615,0.861,1.904,1.996
	c1.689,6.627,4.678,12.844,4.325,20.082c-0.201,4.117-1.551,6.229-4.925,8.027c-12.106,6.448-24.739,11.223-38.191,14.204
	c-13.431,2.976-21.804,11.765-25.028,25.196c-1.067,4.446-1.736,8.989-2.663,13.89c-4.474-2.818-9.225-6.263-14.029-5.673
	c-10.439,1.28-11.274-6.056-13.501-12.699c-0.749-2.232-0.678-4.556-1.15-6.779c-5.687-26.793-12.16-53.398-17.418-80.311
	c-4.374-22.387-6.806-45.249-14.173-67.065c-2.239-6.632-3.46-13.771-3.986-20.767c-0.42-5.597-5.677-11.918,1.414-17.104
	c0.679-0.496,0.5-2.587,0.262-3.852c-2.301-12.264-4.652-24.519-7.129-36.748c-0.311-1.531-0.838-3.684-2.61-3.986
	c-4.306-0.735-4.265-4.442-4.021-6.908c1.41-14.266-7.872-23.966-14.299-34.88c-1.417-2.406-4.074-3.201-6.636-4.048
	c-2.86-0.945-4.246,0.08-4.203,2.907c0.113,7.427,0.18,14.785,1.267,22.247c1.234,8.474,6.319,17.125,0.826,25.938
	c-0.439,0.705-0.148,1.978,0.037,2.941c2.076,10.809,4.844,21.479,6.042,32.467c0.312,2.866,1.189,5.968,3.944,7.777
	c2.135,1.402,2.666,3.231,3.003,5.764c0.912,6.844,3.027,13.558,3.577,20.411c0.454,5.663,4.414,11.648-0.494,17.234
	c-0.243,0.275-0.082,0.969-0.006,1.451c0.656,4.233,1.106,8.516,2.048,12.686c4.618,20.456,7.698,41.209,12.179,61.709
	c2.735,12.509,2.47,25.676,3.536,38.549c0.751,9.082,1.402,18.173,2.227,27.248c1.198,13.187,2.61,26.354,3.716,39.548
	c0.34,4.055,0.383,8.099-0.952,12.194c-5.721,17.545-5.185,34.47,5.917,50.084c0.795,1.118,0.99,2.373,1.134,3.74
	c1.318,12.482,2.678,24.962,4.131,37.43c1.549,13.291,3.303,26.56,4.801,39.856c1.48,13.139,2.638,26.313,4.144,39.448
	c1.844,16.074,4.013,32.111,5.84,48.188c1.828,16.09,3.451,32.203,5.052,48.316c0.281,2.825,3.772,6.54-1.788,8.222
	c-0.208,0.062-0.307,1.336-0.07,1.875c0.978,2.225,0.609,4.597,0.961,6.878c3.022,19.56,5.831,39.144,8.029,58.82
	c0.48,4.295-0.029,9.568,5.423,11.983c0.744,0.33,0.991,2.021,1.267,3.133c4.865,19.59,13.923,37.298,24.501,54.293
	c6.249,10.04,6.375,10.102-1.089,19.386c-0.52,0.646-1.171,1.188-1.703,1.826c-4.899,5.878-11.241,10.362-15.728,16.673
	c-7.894,11.103-2.515,21.115,7.706,22.638c8.004,1.191,15.375,0.287,22.84-2.169c3.704-1.22,6.319-3.487,7.724-7.098
	c1.389-3.571,4.013-5.935,7.167-7.935c2.359-1.495,5.159-2.452,6.892-4.771c1.778-2.38,3.5-1.991,5.87-0.795
	c9.086,4.587,18.904,6.949,28.964,7.374c18.427,0.777,35.213-4.462,50.116-15.454c3.456-2.549,6.902-5.109,10.815-8.007
	c-2.563,9.827,0.872,16.845,9.624,20.059c3.589,1.318,6.625,2.994,8.13,6.648c6.267,15.223,19.753,18.642,33.972,13.971
	c11.895-3.907,14.349-10.876,7.152-20.833c-4.982-6.894-11.041-12.855-16.932-18.96c-4.787-4.963-8.018-10.793-8.829-17.745
	c-0.278-2.386-1.145-4.628-2.542-6.343c-4.297-5.275-3.487-11.04-0.944-16.209c7.376-14.989,13.129-30.525,17.407-46.637
	c0.295-1.109,0.062-2.854,1.288-2.977c4.813-0.483,4.066-4.044,5.077-7.318c6.366-20.634,6.42-42.311,10.932-63.227
	c0.179-0.828,0.628-1.746-0.358-2.111c-4.03-1.492-2.83-4.262-2.227-7.278c1.033-5.162,1.585-10.422,2.342-15.64
	c2.106-14.518,4.158-29.042,6.337-43.549c2.153-14.336,4.514-28.641,6.641-42.979c2.466-16.628,4.719-33.286,7.172-49.916
	c2.21-14.984,4.51-29.958,6.882-44.918c1.348-8.5,1.334-17.489,8.733-23.889c1.529-1.322,2.366-3.553,3.26-5.486
	c6.511-14.092,6.356-28.456,1.357-42.89c-1.229-3.546-1.846-7.055-1.303-10.716c1.957-13.193,3.951-26.382,6.008-39.56
	c3.937-25.215,7.787-50.443,11.935-75.623c3.48-21.129,4.823-42.581,10.857-63.336c4.395-15.117,7.434-30.631,10.995-45.987
	c0.964-4.153,2.72-8.551,2.083-12.51c-0.488-3.031,0.285-4.356,1.466-6.773c2.573-5.271,5.864-11.851,2.848-16.93
	c-2.654-4.468-1.221-7.748-0.942-11.616C539.419,80.851,539.713,79.552,540.015,78.274z M465.59,330.506
	c0.9-18.483,5.28-36.15,9.53-53.903c7.795-32.557,16.03-65.009,23.674-97.601c1.185-5.05,3.163-6.578,7.946-6.077
	c2.867,0.301,5.477,1.167,8.078,2.214c1.053,0.424,2.24,0.868,2.195,1.314c-1.924,7.741-3.514,14.452-5.264,21.121
	c-9.219,35.119-18.309,70.273-27.813,105.314c-3.368,12.419-5.569,24.85-4.933,37.722c0.094,1.886,0.076,4.11-1.497,5.021
	c-1.564,0.904-2.82-1.289-4.324-1.887C467.119,341.337,465.23,337.884,465.59,330.506z M446.415,343.863
	c6.773-3.516,15.352-1.397,23.064,3.832c8.731,5.92,5.724,13.774,5.172,21.321c-0.651,8.902-1.552,17.799-2.725,26.646
	c-0.716,5.396-0.518,10.87-1.79,16.227c-0.489,2.064-1.482,2.669-3.799,2.998c3.177-4.625,3.395-8.915,2.506-14.129
	c-0.925-5.422-3.773-9.609-5.761-14.354c-0.836-1.999-2.225-3.84-3.799-4.363c-4.375-1.453-5.782-5.731-8.939-8.192
	c-2.206-1.72-0.837-3.742-0.998-5.438c-0.619-6.496-1.919-12.737-5.153-18.415C442.38,346.813,443.544,345.353,446.415,343.863z
	 M465.207,413.425c-2.297,1.867-4.204,1.102-5.473-0.369c-1.514-1.755,0.014-3.461,1.823-3.978c3.391-0.967,2.842-5.08,6.294-6.785
	C467.886,406.516,469.02,410.325,465.207,413.425z M462.009,389.284c-0.27,5.729-2.643,10.616-4.092,15.748
	c-0.322,1.141-1.233,1.051-1.972,0.7c-1.795-0.851-4.28-1.846-3.794-4.049c1.271-5.752,0.472-11.535,0.966-17.272
	c0.232-2.693,1.411-3.351,4.172-1.865C460.308,384.171,461.434,386.552,462.009,389.284z M442.546,350.947
	c3.104,5.973,4.55,12.328,4.746,18.964c0.04,1.372-0.246,2.705,0.846,3.649c5.823,5.034,3.986,11.32,3.075,17.534
	c-0.315,2.15-0.948,3.405-3.362,3.089c-2.298-0.301-3.92-1.584-3.758-3.829c0.334-4.605-1.301-8.742-3.038-12.978
	c0.546,4.922,0.619,9.958,1.774,14.732c1.091,4.509,5.029,4.336,8.797,3.305c-1.162,9.872-1.048,10.115,5.615,12.15
	c3.906-2.003,2.979-6.413,4.657-9.542c0.948-1.769,1.004-4.016,1.582-6.58c4.018,3.092,3.163,7.341,2.001,10.044
	c-1.272,2.96-2.635,8.082-8.262,6.087c0.822,1.556,2.035,3.47-1.414,2.53c-5.108-1.391-8.466-4.773-11.935-8.876
	c-8.539-10.101-10.915-21.747-10.816-34.292c0.048-6.114,2.706-11.478,6.078-16.455
	C440.459,348.523,441.411,348.764,442.546,350.947z M420.369,304.346c11.215,4.24,15.631,13.446,18.567,23.908
	c0.562,2.005,0.111,3.745-1.99,5.065c-11.565,7.268-14.13,19.259-15.821,31.455c-0.561,4.039-1.515,8.186-0.589,12.396
	c0.71,3.233-3.98,2.734-3.446,6.283c-13.435-18.222-14.091-37.724-9.7-58.427c-3.711,1.78-1.406,5.543-3.824,7.066
	c-5.784-7.775-10.728-20.549-14.211-37.064C400.062,297.986,410.376,300.568,420.369,304.346z M427.372,361.064
	c-0.674-5.868,0.52-11.105,5.389-16.467C432.105,351.384,429.079,356.001,427.372,361.064z M429.297,405.819
	c-3.204,0.197-5.395-1.197-7.678-2.467c-1.995-1.108-3.715-2.695-4.196-4.715c-0.651-2.729,2.757-1.984,3.856-3.415
	c0.491-0.639,1.213-1.1,2.092-1.872C425.357,397.53,427.246,401.505,429.297,405.819z M320.888,256.3
	c-0.243-2.379-0.975-4.709-1.54-7.326c-2.336,1.292-0.576,3.349-2.135,4.811c-3.432-6.117-7.522-11.871-4.99-19.734
	c3.992,1.902,2.111,6.247,4.91,9.304c0.876-3.608-0.156-6.674-0.567-9.652c-1.027-7.452-1.588-15.1-0.008-22.297
	c2.473-11.266,11.74-16.32,21.896-19.214c15.229-4.341,31.67,8.168,33.71,24.371c0.936,7.423,0.525,14.686-0.351,23.071
	c3.026-2.717,1.681-5.263,2.904-7.091c0.468-0.701,0.659-1.491,1.704-1.447c0.744,0.032,1.155,0.398,1.464,1.074
	c1.658,3.633-1.866,15.535-5.475,18.468c-1.53-2.118,1.149-4.317-0.001-7.154c-3.352,3.854-2.856,8.228-3.066,12.005
	c-0.643,11.565-7.457,18.038-17.269,21.918c-9.066,3.584-16.596-0.024-23.42-6.168C324.126,267.159,321.507,262.347,320.888,256.3z
	 M317.921,290.748c0.45-3.718,1.412-4.307,5.352-3.135c2.086,0.621,1.75-0.947,1.765-1.934c0.07-4.618,0.031-9.237,0.031-14.652
	c15.331,13.777,28.393,12.707,42.771-2.708c0.307,5.231-0.003,10.156,1.101,14.98c0.663,2.902,0.397,2.963,3.16,2.21
	c1.886-0.514,6.169,5.485,5.855,8.331c-0.647,5.882-4.19,9.987-8.775,13.148c-12.862,8.866-33.026,6.902-44.845-1.141
	C319.033,302.242,317.165,297.004,317.921,290.748z M315.566,289.53c0.742,13.758,4.623,18.571,17.457,22.63
	c11.595,3.667,22.962,3.974,34.102-1.719c7.821-3.997,12.643-9.952,13.033-18.948c5.143,0.756,7.184,3.757,8.276,8.766
	c2.6,11.918,6.797,23.346,13.486,33.682c1.192,1.842,1.146,3.739,1.07,5.708c-0.351,9.143,0.166,18.186,3.02,26.965
	c0.609,1.873,0.835,4.137,2.048,5.498c4.495,5.049,2.767,9.901,0.551,15.194c-4.183,9.992-4.848,20.825-6.448,31.368
	c-1.638,10.796-2.539,21.709-2.244,32.712c0.29,10.793,1.685,21.467,3.38,32.051c0.757,4.723-0.218,5.237-4.41,5.911
	c-19.921,3.204-39.793,6.942-60.062,6.572c-15.889-0.29-31.474-3.221-46.919-6.877c-2.119-0.501-2.454-1.175-2.097-3.363
	c1.646-10.084,2.928-20.227,4.458-30.33c1.279-8.44,0.843-16.865,0.222-25.318c-1.286-17.502-5.662-34.358-10.35-51.169
	c-0.916-3.282,1.257-6.074,2.602-8.84c4.566-9.39,7.348-19.031,5.295-29.599c-0.419-2.159,0.132-4.247,1.147-6.238
	c6.364-12.482,12.859-24.929,15.4-38.912C309.278,291.451,312.686,291.538,315.566,289.53z M418.249,567.537
	c-0.751,14.275-1.549,28.549-2.204,42.829c-0.103,2.244-0.988,3.103-3.063,3.73c-12.18,3.687-24.525,6.391-37.283,6.896
	c-4.64,0.184-7.711-1.407-8.487-6.584c-1.98-13.197-7.184-25.621-9.578-38.729c-1.598-8.743-2.926-17.538-4.689-26.246
	c-0.697-3.442-0.325-8.133-5.592-8.566c-3.043-0.251-6.659,4.839-7.355,9.528c-1.088,7.324-2.055,14.679-3.495,21.936
	c-2.592,13.05-7.593,25.441-10.891,38.31c-0.335,1.308-0.646,2.563-0.615,3.88c0.077,3.381-2.204,4.782-4.907,5.297
	c-13.674,2.604-26.897,0.201-39.879-4.068c-3.474-1.143-2.896-4.726-3.068-7.202c-0.913-13.102-1.719-26.226-1.989-39.354
	c-0.383-18.652,4.271-36.628,8.252-54.664c1.451-6.571,3.363-13.058,4.472-19.682c0.677-4.041,2.488-4.28,5.781-3.483
	c17.398,4.213,34.996,7.189,52.964,6.573c13.214-0.453,26.298-2.456,39.357-4.471c4.718-0.729,9.404-1.662,14.118-2.418
	c2.859-0.458,4.445-0.134,5.286,3.661c4.411,19.895,8.812,39.791,12.438,59.841c0.76,4.194,0.11,8.644,0.11,12.975
	C418.037,567.528,418.143,567.532,418.249,567.537z M310.98,679.686c2.244,5.682,1.342,12.117,0.56,18.222
	c-2.514,19.627-8.838,38.343-13.849,57.373c-1.815,6.894-2.808,13.906-2.711,21.067c0.075,5.553-2.147,7.295-7.37,5.327
	c-3.415-1.286-6.708-2.559-10.401-2.877c-1.996-0.172-3.299-1.038-2.796-3.979c1.84-10.768,0.178-21.589-0.986-32.262
	c-2.687-24.637-4.395-49.091,4.435-72.971c2.151-5.819,2.733-12.043,2.827-18.011c0.167-10.681,3.441-21.637-1.604-32.092
	c-0.252-0.522-0.032-1.273-0.032-2.146c12.496,3.364,24.442,6.386,37.065,4.766c2.514-0.322,5.475-2.639,7.45-0.693
	c1.817,1.791-0.345,4.708-0.624,7.13c-1.762,15.232-4.61,30.197-11.819,43.979C309.893,674.869,309.809,676.718,310.98,679.686z
	 M255.098,336.535c0.91-6.869,2.562-13.535,5.602-19.871c4.124-8.597,11.814-12.03,20.144-14.638
	c8.265-2.587,17.047-3.412,25.678-8.198c-2.247,15.033-8.8,26.911-15.245,39.389c-2.186-3.698-1.176-7.94-4.276-11.755
	c0.527,11.619,5.239,21.827,3.162,32.919c-1.998,10.667-9.13,19.274-10.609,31.062c-2.877-4.136-5.083-7.616-9.45-8.549
	c-1.91-0.407-0.94-2.191-1.083-3.36c-1.376-11.336-4.355-22.036-12.583-30.491C254.443,340.992,254.812,338.691,255.098,336.535z
	 M264.936,398.397c2.295-5.521,3.067-5.859,8.403-3.421c1.04,0.476,2.117,0.869,3.419,1.398c-4.078,5.019-8.485,9.306-15.771,10.767
	C262.52,403.762,263.807,401.112,264.936,398.397z M256.946,351.316c5.593,5.916,7.241,13.365,4.265,19.258
	C260.981,363.791,258.243,358.305,256.946,351.316z M268.096,386.488c0.19-1.242,0.62-3.673,0.918-6.119
	c0.245-2.012,1.375-1.424,2.439-0.907c4.972,2.417,6.243,7.858,9.39,11.769c0.823,1.022-0.556,2.336-2.04,2.738
	C275.502,394.862,268.015,390.521,268.096,386.488z M254.498,381.673c-0.403-1.258-0.667-2.08-0.967-3.018
	c-1.95,3.694-2.895,7.525-3.48,11.44c-0.352,2.352-1.786,3.511-3.917,3.842c-3.125,0.484-2.396-2.501-2.637-3.765
	c-1.023-5.388-1.182-10.78,2.304-15.61c2.35-3.255,3.866-6.612,2.839-10.999c-0.518-2.214,0.386-4.909,2.097-7.697
	C256.401,364.053,256.57,372.439,254.498,381.673z M234.257,407.072c-1.139,0.28-1.831-0.165-2.56-0.956
	c-3.121-3.385-3.846-9.952-1.056-15.587c1.658,5.574,3.016,10.21,4.426,14.829C235.342,406.261,235.356,406.801,234.257,407.072z
	 M233.224,415.693c-1.809,1.473-2.732-1.343-4.035-2.451c-3.982-3.39-3.183-7.348-1.797-11.503c2.115,2.423,2.799,5.729,5.632,7.82
	C234.936,410.971,234.959,414.28,233.224,415.693z M233.101,391.588c-0.484-4.434,1.643-9.967,7.791-10.072
	c0.384,5.562,0.737,10.794,1.112,16.024c0.121,1.688-0.085,3.294-1.056,4.719c-0.839,1.231-1.721,2.583-3.371,2.623
	c-2.389,0.059-1.585-2.228-1.979-3.372C234.491,398.29,233.468,394.954,233.101,391.588z M239.241,405.782
	c3.005-1.331,4.705-4.603,4.396-7.232c-0.352-2.988,0.645-3.258,2.721-3.299c1.71-0.033,2.894-1.123,5.331-2.496
	c-2.388,4.769-4.01,8.364-5.964,11.771c-1.063,1.853-2.663,3.545-4.704,4.32c-1.755,0.666-4.009,3.495-5.424,0.82
	C234.566,407.72,237.287,406.648,239.241,405.782z M224.759,349.707c8.343-4.457,15.628-3.523,22.834,2.621
	c1.571,1.339,1.203,2.286,0.609,3.799c-1.28,3.257-1.825,6.604-1.375,10.194c0.471,3.756-5.192,12.221-8.795,13.825
	c-6.256,2.787-8.271,9.062-10.694,14.475c-1.05,2.347-1.807,5.493-2.382,8.366c-1.262,6.305,2.324,10.576,6.386,15.329
	c-2.191,0.682-3.699,1.319-5.271,1.611c-6.117,1.134-8.688-1.281-9.131-7.414c-1.098-15.186-2.322-30.367-3.858-45.513
	c-0.771-7.61,0.303-10.705,6.88-14.693C221.517,351.366,223.155,350.563,224.759,349.707z M192.787,241.784
	c2.858-0.692,5.721-1.366,8.582-2.049c3.123-0.07,4.118,1.165,4.806,4.354c4.987,23.119,10.834,46.062,15.321,69.272
	c1.805,9.338,0.671,19.215,2.065,28.777c0.246,1.683-1.475,2.294-2.594,2.57c-2.636,0.651-4.501,2.493-6.637,3.86
	c-3.511,2.246-4.305,1.883-5.32-2.416c-1.423-6.027-1.072-12.205-1.726-18.295c-1.489-13.87-5.703-27.102-8.52-40.649
	c-2.742-13.191-5.997-26.285-9.366-39.334C188.458,244.229,189.461,242.591,192.787,241.784z M184.134,113.526
	c-0.396,3.128-0.39,5.71,1.756,8.577c2.206,2.946-0.146,6.512-3.829,6.845c-0.823,0.074-1.656,0.026-2.479,0.094
	c-7.79,0.644-9.041-0.662-8.531-8.654c0.135-2.117,0.339-4.354-0.167-6.364c-1.092-4.348,1.755-4.961,4.742-5.653
	c-1.36-1.159-3.332-2.51-2.407-4.312c1.197-2.332,3.647-1.372,6.023-0.781c-0.997,1.741-1.932,3.373-2.866,5.005
	C179.877,107.234,184.546,110.27,184.134,113.526z M179.481,95.283c-3.64,2.499-6.331,2.633-9.641,0.778
	C172.796,93.055,175.64,94.274,179.481,95.283z M166.676,83.144c-2.865,0.338-6.189,1.996-8.432,1.031
	c-2.602-1.119-1.331-5.154-1.734-7.827c-1.788-11.843-5.375-23.562-3.013-36.03c2.538,0.301,5.006,1.005,6.239,2.949
	c6.156,9.709,15.331,18.081,14.278,31.113c-0.221,2.743,2.571,6.029,0.31,7.953C172.716,83.701,169.277,82.837,166.676,83.144z
	 M176.674,170.665c-2.565,0.511-3.397,0.208-3.771-2.636c-1.114-8.467-2.209-16.988-4.229-25.265
	c-1.083-4.438-0.183-5.65,3.991-5.489c1.488,0.058,2.986-0.166,4.479-0.261c-0.001-0.048-0.002-0.096-0.003-0.145
	c0.83,0,1.724,0.203,2.48-0.033c4.413-1.376,5.668,1.159,6.314,4.792c1.493,8.403,3.007,16.805,4.7,25.169
	c0.462,2.282,0.349,2.912-2.234,2.423C184.417,168.467,180.534,169.896,176.674,170.665z M197.714,401.521
	c-3.824-2.315-2.59-5.259-1.888-7.992C197.691,395.771,197.866,398.288,197.714,401.521z M195.093,358.582
	c-3.272-36.689-6.544-73.379-9.871-110.669l2.111,2.42c0,0,18.333,70.667,18.333,86l-0.021,0.364
	C207.583,345.988,199.217,351.244,195.093,358.582z M202.457,394.31c-0.395-3.11-0.233-6.316-0.063-9.465
	c0.187-3.453,0.573-6.77,5.05-7.724c2.214-0.472,2.113-3.524,4.297-5.295c1.167,15.073,2.291,29.588,3.478,44.927
	C205.883,411.387,203.577,403.12,202.457,394.31z M228.667,637.333l-2.333,0.333c-1.333-1-1.667-7.333-1.667-7.333
	c0-5.667-6-56.667-6-56.667c-1.032-7.999-6.856-59.722-9.436-82.694c-2.52-14.101-3.043-28.498-4.532-42.841
	c-0.335-0.61-0.472-1.417-0.271-2.569l12.301-3.14c0.336,0.673,0.361,1.313,0.189,1.952c0.825,8.434,1.591,17.585,1.96,26.974
	C220.748,489.493,229,631,229,631L228.667,637.333z M265.083,776.926c-10.954-15.345-17.904-32.4-21.814-50.77
	c-0.284-1.334-0.706-3.342,0.549-3.616c6.823-1.488,3.269-6.534,2.797-9.463c-3.217-19.976-6.99-39.862-10.536-59.786
	c-0.23-1.294,0.27-2.782-0.166-3.96c-0.503-1.358,2.166-4.961-2.583-3.92c-0.771,0.169-1.156-2.896-1.25-4.516
	c-0.745-12.926-1.249-25.866-2.123-38.782c-1.154-17.043-2.67-34.062-3.854-51.103c-0.851-12.254-1.312-24.535-2.127-36.792
	c-1.188-17.872-2.611-35.729-3.789-53.602c-0.568-8.617-0.778-17.257-1.22-25.883c-0.093-1.821,0.299-2.766,2.384-2.752
	c15.889,0.097,26.878-8.751,36.243-20.268c1.382-1.701,2.51-2.48,4.706-2.827c7.166-1.129,11.91-6.097,16.335-11.328
	c2.553-3.018,6.224-5.72,2.517-10.488c-0.968-1.244,0.561-3.097,1.531-4.98c2.96,8.029,4.479,16.068,6.268,24.016
	c3.252,14.448,4.906,29.14,3.9,43.903c-0.67,9.83-2.669,19.577-4.22,29.339c-3.763,23.689-10.753,46.725-14.394,70.43
	c-0.954,6.215-1.399,12.623-1.094,18.895c0.759,15.579-0.181,31.427,3.202,46.64c2.275,10.233,2.593,20.258,2.674,30.497
	c0.095,12.032-3.406,23.366-6.317,34.853c-4.321,17.052-4.231,34.229-2.096,51.687c1.607,13.141,2.832,26.435,2.364,39.758
	c-0.04,1.136-0.556,2.249-0.651,3.39c-0.205,2.44-1.802,4.408-3.644,4.928C267.071,780.876,266.114,778.371,265.083,776.926z
	 M293.922,818.71c-1.562,1.209-3.027,2.627-4.761,3.513c-4.735,2.417-8.008,5.913-10.36,10.777
	c-3.308,6.842-10.564,6.727-16.714,7.799c-4.815,0.839-9.857,0.565-14.579-1.546c-5.788-2.587-7.61-6.665-5.804-12.742
	c1.274-4.287,3.947-7.564,6.948-10.638c6.927-7.096,14.546-13.591,19.585-23.567c7.311,9.843,15.717,17.476,25.601,23.429
	C295.625,816.81,295.218,817.706,293.922,818.71z M298.595,808.172c-5.54-2.089-9.679-6.101-14.086-9.668
	c-4.774-3.864-9.114-8.19-12.866-13.071c-0.841-1.094-2.208-2.05-0.781-3.814c1.09-1.348,2.288-1.934,3.861-1.493
	c3.937,1.101,8.017,1.508,11.872,3.11c5.762,2.395,8.815,1.001,11.379-4.17C296.951,788.787,300.418,798.243,298.595,808.172z
	 M386.326,791.922c-13.465,13.345-29.151,22.62-48.32,24.971c-2.789,0.343-5.656,0.048-8.935,0.048
	c-8.407,0.94-16.478-2.003-24.519-5.072c-2.565-0.979-4.069-2.563-3.577-5.619c1.352-8.388-2.245-16.769-0.129-25.187
	c0.136-0.541-0.149-1.435-0.56-1.829c-6.14-5.886-2.642-12.693-1.482-18.984c2.796-15.164,8.303-29.658,11.556-44.745
	c2.665-12.363,4.96-24.645,2.779-37.342c-0.388-2.257-0.237-4.514,0.83-6.793c6.343-13.545,9.743-27.936,10.953-42.752
	c1.328-16.252,6.855-31.416,11.259-46.87c2.849-9.999,4.198-20.229,5.832-30.432c0.18-1.125,0.363-2.292,0.812-3.322
	c0.993-2.277,2.119-5.146,4.949-4.827c2.676,0.302,2.648,3.481,3.16,5.584c3.188,13.082,3.6,26.672,7.723,39.632
	c3.631,11.413,6.728,23.062,8.234,34.977c1.925,15.216,4.962,30.139,10.119,44.585c1.496,4.189,2.531,8.181,2.102,12.813
	c-1.951,21.006,4.21,40.831,9.328,60.817c2.563,10.01,6.503,19.871,5.684,30.45C393.56,779.334,391.754,786.543,386.326,791.922z
	 M418.753,781.218c2.68,0.466,2.806,3.897,3.329,6.526c1.41,7.09,4.578,13.384,9.726,18.533
	c6.099,6.101,12.268,12.138,17.171,19.286c4.85,7.07,3.187,12.845-4.765,16.051c-3.976,1.604-8.227,2.334-10.705,2.405
	c-11.163-0.02-18.209-3.895-21.934-12.58c-2.102-4.9-5.111-8.229-10.334-9.767c-11.072-3.258-11.586-17.982-5.039-24.323
	c4.17-4.039,7.978-8.381,11.228-13.203C410.312,779.871,414.864,780.542,418.753,781.218z M411.604,778.65
	c1.734-2.697,3.111-4.839,4.573-7.111C418.007,778.472,417.652,779.1,411.604,778.65z M418.133,748.285
	c-0.775,3.955-3.092,6.848-5.017,10c-4.633,7.586-9.829,14.797-16.188,21.65c-0.11-25.134-10.22-47.896-14.697-71.837
	c-1.658-8.865-2.352-18.064-0.798-26.747c0.911-5.091-0.726-8.523-2.124-12.541c-5.312-15.257-8.765-30.908-10.647-47.331
	c10.64,2.395,20.535,0.24,30.406-1.931c4.469-0.982,8.893-2.197,13.292-3.463c2.289-0.659,3.075,0.089,2.564,2.259
	c-0.524,2.231-1.021,4.515-1.923,6.604c-4.223,9.783-0.567,19.673-0.508,29.5c0.068,11.17,3.872,21.631,6.867,32.198
	c1.6,5.643,2.713,11.351,2.437,17.094C421.083,718.619,421.02,733.556,418.133,748.285z M452.984,590.609
	c-1.32,14.334-2.653,28.668-4.208,42.978c-0.249,2.296-0.458,4.685-3.446,6.356c-1.69,0.945-1.759,5.051-2.277,7.787
	c-3.584,18.889-6.633,37.88-11.653,56.483c-0.739,2.739-2.593,6.534,1.802,8.662c1.099,0.532,0.678,1.616,0.317,2.631
	c-3.296,9.283-7.1,18.335-12.019,26.961c0.387-7.662,0.802-15.322,1.703-22.827c2.093-17.413-2.026-33.723-6.233-50.301
	c-4.06-15.999-4.928-32.449-0.698-48.632c2.006-7.673,2.036-15.478,2.461-23.153c0.742-13.439,2.272-26.936,1.176-40.405
	c-0.963-11.819-4.026-23.326-6.508-34.905c-3.826-17.855-8.448-35.576-10.281-53.791c-1.515-15.044-1.707-30.057,0.646-45.157
	c2.104-13.501,3.105-27.162,8.366-39.976c0.168-0.409,0.526-0.739,0.951-1.317c2.422,2.96,0.386,5.51-0.217,8.096
	c0.051-0.014,0.093-0.03,0.146-0.043c-0.006,0.033-0.009,0.064-0.015,0.097c3.65-1.847,3.509-6.925,7.668-8.862
	c0.523,2.523,0.995,4.967,1.543,7.394c0.893,3.951-1.211,5.731-4.695,6.271c-3.729,0.578-5.13-1.25-4.516-4.802
	c-0.058,0.029-0.108,0.065-0.168,0.092c0.011-0.049,0.024-0.098,0.036-0.146c-2.615,0.707-1.416,2.721-0.771,3.796
	c4.146,6.919,8.019,14.342,17.843,14.114c1.643-0.038,2.141,1.273,3.015,2.251c7.275,8.139,15.234,15.141,26.521,17.269
	c2.986,0.562,5.968-0.005,9.04,0.718c-1.846,20.242-3.579,40.444-5.56,60.622c-1.824,18.598-4.016,37.158-5.854,55.755
	C455.587,559.938,454.396,575.284,452.984,590.609z M471,496c0,0-13.666,90.332-14.333,94.666l-1.667,1l10.408-105.008
	c1.117-14.111,2.354-28.257,4.215-42.518l0.377-3.807l1.667-13.667c0,0,7.333-2.333,11-5.333
	C482.667,421.333,471.666,493.667,471,496z M484.132,394.085c-1.234,7.123-4.555,12.591-10.598,17.555
	c-0.91-9.725,0.988-18.411,2.158-27.433c0.772,3.278,2.591,5.051,5.949,5.256C484.701,389.648,484.634,391.189,484.132,394.085z
	 M481.662,370.08c3.095,2.289,1.386,5.315,3.637,8.189C480.214,376.275,481.692,373.319,481.662,370.08z M488.42,401.127
	c-0.706-3.775,1.689-6.838,2.602-10.334C492.366,394.75,490.737,398.025,488.42,401.127z M492.171,355.074
	c-3.487-4.912-6.487-9.056-9.388-13.268c-0.818-1.188-1.626-2.408-0.408-3.171c0.242-6.424,1.868-28.114,12.625-63.969l11-42
	l0.078,0.435c3.606-15.741,7.264-31.471,10.886-47.208c0.105-0.458,0.3-0.896,1.257-1.196
	C509.57,241.271,500.921,297.846,492.171,355.074z M526.977,129.289c-0.671,2.684-1.393,5.335-5.069,4.68
	c-1.272-0.227-3.412,0.777-3.437-1.648c-0.028-2.922-0.399-6.16,3.268-7.546c0.604-0.229,1.228-0.404,2.412-0.79
	c-3.08-3.322-3.08-3.322,2.432-12.022c0.311,4.722,2.402,2.438,4.526,0.956C529.624,118.795,528.289,124.04,526.977,129.289z
	 M536.191,93.607c-1.374,4.94-2.854,9.855-4.056,14.837c-0.366,1.517-0.433,2.451-2.319,1.729c-1.504-0.575-4.255-0.966-2.922-2.867
	c3.197-4.562,3.625-9.728,4.671-14.828c0.442-2.158,2.429-1.354,3.692-1.274C536.697,91.294,536.239,92.601,536.191,93.607z
	 M537.055,85.234c-0.387,3.363-2.068,4.033-5.035,3.615c-2.947-0.415-5.955-0.836-8.905-0.679c-3.029,0.161-3.465-0.979-3.156-3.631
	c1.673-14.368,7.757-26.356,18.854-35.729c0.772-0.652,1.506-1.321,3.253-0.865c-1.524,6.79-2.206,13.74-2.61,20.742
	C539.136,74.229,537.692,79.698,537.055,85.234z"/>
</svg>
