<?xml version="1.0" encoding="utf-8"?>
<!-- Generator: Adobe Illustrator 16.0.0, SVG Export Plug-In . SVG Version: 6.00 Build 0)  -->
<!DOCTYPE svg PUBLIC "-//W3C//DTD SVG 1.1//EN" "http://www.w3.org/Graphics/SVG/1.1/DTD/svg11.dtd">
<svg version="1.1" id="_x39_FvACBs6ozYJjAxpgAaxp7Ql9ZiakVS0kmN5wapclIE_xA0_Image_1_"
	 xmlns="http://www.w3.org/2000/svg" xmlns:xlink="http://www.w3.org/1999/xlink" x="0px" y="0px" width="640px" height="960px"
	 viewBox="0 0 640 960" enable-background="new 0 0 640 960" xml:space="preserve">
<g>
	<path fill-rule="evenodd" clip-rule="evenodd" d="M232.449,507.369c8.757-5.119,16.753-10.221,26.167-12.708
		c7.392-1.953,14.748-1.837,22.186-1.625c2.704,0.077,4.011-0.053,3.458-3.606c-3.436-22.087,14.128-38.716,29.374-41.86
		c25.731-5.306,48.196,13.892,47.372,36.16c-0.043,1.165,0.075,2.34-0.021,3.498c-0.241,2.886,0.174,3.538,3.753,3.298
		c9.671-0.649,19.025,2.06,27.83,5.863c4.521,1.953,5.403,0.844,6.585-3.437c4.45-16.123,9.325-32.13,14.208-48.13
		c0.84-2.751,1.401-4.889-1.59-6.643c-1.788-1.049-1.713-2.48-0.993-4.642c6.807-20.418,15.891-39.966,23.954-59.847
		c6.861-16.917,11.033-34.415,16.548-51.598c5.614-17.49,10.507-35.215,15.66-52.853c6.619-22.656,14.109-45.115,19.43-68.074
		c3.309-14.277,9.048-28.483,9.457-42.837c0.459-16.124,6.344-30.463,9.24-45.696c0.442-2.328,1.406-4.568,3.976-5.214
		c1.904-0.479,2.21-1.934,2.38-3.309c1.66-13.4,6.915-25.579,12.059-37.901c2.301-5.514,6.14-8.18,11.156-10.929
		c1.346,7.342-0.792,14.14-0.768,21.008c0.036,10.461,1.453,21.086-2.22,31.305c-0.109,0.303-0.476,0.703-0.383,0.862
		c6.903,11.883-0.396,22.604-3.234,33.411c-4.924,18.749-8.663,37.762-13.371,56.519c-3.89,15.495-3.132,31.072-4.651,46.589
		c-1.908,19.493-2.734,39.065-4.133,58.594c-1.363,19.036-2.71,38.07-3.99,57.112c-1.346,20.016-3.268,39.991-4.846,59.992
		c-1.096,13.882-1.799,27.8-3.107,41.661c-1.666,17.655-2.755,35.346-4.067,53.024c-1.326,17.856-2.877,35.694-3.941,53.575
		c-0.629,10.573-1.933,21.106-2.858,31.665c-0.187,2.118-0.125,4.181,0.855,6.284c4.335,9.296,5.507,19.362,5.958,29.396
		c0.493,10.976,0.139,21.994-0.041,32.991c-0.043,2.648,0.597,4.763,2.175,6.846c10.565,13.946,11.25,29.896,9.281,46.375
		c-0.55,4.597-1.415,9.104-2.979,13.478c-0.321,0.898-0.504,2.085-0.19,2.932c2.688,7.275-0.729,13.597-3.222,19.949
		c-1.311,3.339-4.078,5.699-8.094,4.561c-1.676-0.476-2.104,0.576-2.814,1.306c-2.211,2.272-4.84,3.05-7.698,1.819
		c-1.46-0.629-2.1-0.188-2.918,0.765c-0.429,0.498-0.977,0.901-1.502,1.307c-1.369,1.055-3.849,2.25-4.491,1.265
		c-3.737-5.733-10.315,0.365-14.145-3.728c-0.978-1.045-1.522-2.597-1.233-4.182c0.729-4.003-1.385-6.512-4.794-9.051
		c0.145,3.272,1.532,6.013-0.05,8.856c-1.259,2.261-3.014,3.77-5.324,3.898c-2.413,0.135-3.741-2.004-4.43-4.086
		c-2.554-7.726-5.545-15.214-2.749-23.838c1.317-4.063,0.517-8.94,0.139-13.403c-1.484-17.537,0.797-34.476,12.48-48.061
		c5.54-6.44,6.332-11.564,3.951-19.007c-2.235-6.984-1.839-14.572-1.054-21.778c0.86-7.89-2.783-12.021-8.858-15.967
		c-6.781-4.404-14.066-7.964-20.481-13.022c-10.652-8.398-19.285-18.029-23.121-31.412c-0.777-2.713-1.751-5.621-4.209-7.906
		c-2.485,9.608-5.104,18.853-7.194,28.215c-0.943,4.223,1.191,8.388,1.938,12.55c1.855,10.344,4.441,20.555,6.461,30.873
		c0.965,4.927,0.207,9.86-1.124,14.721c-3.867,14.124-6.983,28.447-9.323,42.875c-1.684,10.38-0.367,21.027,3.003,30.912
		c7.225,21.193,5.109,41.854-1.572,62.567c-2.568,7.964-4.799,16.031-6.403,24.257c-0.319,1.635-0.812,3.319,0.806,4.589
		c3.392,2.661,3.842,6.667,3.791,10.325c-0.24,17.062,2.479,33.473,8.647,49.45c2.016,5.221,3.459,10.897,1.69,16.941
		c-1.172,4.002-3.27,6.827-6.637,8.758c-8.741,5.013-17.939,6.236-27.647,2.994c-4.943-1.65-8.088-4.972-9.838-9.727
		c-3.223-8.761-1.916-17.798-0.709-26.583c0.914-6.657,0.51-12.815-1.981-18.885c-1.37-3.339-1.797-6.39-0.75-10.059
		c0.881-3.083,0.256-6.607,0.224-9.937c-0.029-3.158-0.363-6.479,1.721-9.091c5.655-7.087,3.603-15.258,2.93-22.938
		c-1.365-15.587-7.079-30.332-9.892-45.671c-1.029-5.615-1.09-11.289-0.76-16.885c0.312-5.288-0.513-9.971-2.843-14.741
		c-6.597-13.506-10.308-27.684-10.191-42.923c0.062-8.165-3.307-15.694-7.535-22.686c-0.68-1.125-1.552-2.47-3.043-2.189
		c-1.707,0.32-1.897,1.959-2.325,3.451c-1.909,6.652-0.439,13.567-1.866,20.295c-2.655,12.528-2.963,25.558-7.148,37.738
		c-3.357,9.769-6.361,19.116-6,29.941c0.479,14.354-5.089,28.016-9.375,41.649c-3.53,11.228-5.981,22.798-1.773,33.978
		c3.429,9.108,3.712,18.171,2.95,27.312c-0.659,7.915-2.071,15.781-1.692,23.758c0.219,4.617,0.485,9.299,1.431,13.805
		c3.016,14.366-4.17,23.886-18.993,23.887c-6.373,0-12.729-1.112-18.847-3.573c-9.104-3.663-12.634-13.925-11.312-22.01
		c1.339-8.189,4.69-15.737,6.937-23.63c2.784-9.78,3.581-19.786,4.691-29.775c0.335-3.016,1.643-5.492,2.783-8.211
		c2.073-4.944,2.86-10.435,1.983-15.922c-2.155-13.485-5.27-26.768-8.724-39.967c-4.195-16.03-0.502-31.02,5.806-45.685
		c0.451-1.05,1.232-1.913,1.205-3.187c-0.332-15.484,1.627-31.105-4.66-46.114c-2.634-6.287-4.635-12.966-5.404-19.925
		c-1.761-15.919,1.161-31.259,5.399-46.437c1.371-4.909,3.177-9.708,5.013-14.469c0.64-1.66,0.848-3.267,0.491-4.86
		c-0.572-2.555-1.322-5.09-2.234-7.545c-4.555-12.255-6.829-12.872-17.051-4.41c-7.793,6.451-15.207,13.383-23.218,19.544
		c-10.276,7.904-22.478,12.363-34.216,17.53c-3.943,1.735-4.56,4.163-4.024,7.751c1.878,12.585,1.125,25.126-0.855,37.618
		c-0.318,2.004-0.083,3.421,1.491,4.847c11.577,10.481,15.914,24.005,17.516,39.177c0.947,8.971,0.001,17.404-1.971,25.994
		c-1.001,4.363,0.097,8.949-0.933,13.41c-0.512,2.22-1.228,4.097-3,5.488c-2.381,1.868-4.097,4.197-5.613,6.828
		c-2.28,3.959-7.179,4.093-8.905,0.024c-2.12-4.996-4.421-2.302-6.752-0.739c-1.218,0.816-2.096,2.123-3.196,3.134
		c-0.863,0.793-2.187,1.937-3.051,1.298c-4.271-3.155-9.159-1.624-13.753-2.244c-1.35-0.182-2.24-1.45-2.659-2.725
		c-0.496-1.51-1.357-2.08-2.917-1.945c-2.573,0.223-4.527-0.7-5.563-3.231c-0.412-1.006-1.282-1.487-2.378-1.481
		c-4.318,0.025-5.959-3.028-6.144-6.435c-0.344-6.34-2.353-12.592,0.061-19.13c1.862-5.045-0.641-10.428-0.738-15.717
		c-0.211-11.511,0.628-23.161,7.917-32.065c6.465-7.897,5.097-15.52,3.962-23.936c-2.682-19.895-3.805-39.644,7.597-57.686
		c1.208-1.911,0.74-3.864,0.755-5.793c0.419-53.15,0.707-106.301,1.197-159.45c0.606-65.814,2.036-131.631,1.58-197.437
		c-0.106-15.312,0.34-30.982-2.471-46.391c-1.688-9.246-1.672-18.816-2.208-28.253c-0.133-2.341-0.128-3.952-3.056-4.484
		c-2.047-0.372-3.893-1.771-4.012-4.417c-0.643-14.273-1.315-28.546-2.011-42.817c-0.105-2.152,0.468-4.096,2.231-5.238
		c2.149-1.394,2.103-3.421,1.713-5.288c-3.127-14.989-1.556-30.161-1.917-45.255c-0.052-2.163,0.088-4.292-1.224-6.237
		c-1.515-2.245-0.794-3.218,1.904-3.273c4.824-0.1,8.75,2.566,10.38,7.116c1.546,4.317,3.028,8.678,4.923,12.845
		c4.808,10.57,5.688,21.916,6.965,33.2c0.11,0.977-0.066,2.457,0.488,2.84c7.403,5.115,5.716,13.678,4.84,19.702
		c-1.394,9.592,1.6,18.596,0.778,27.882c-0.24,2.71-2.793,6.434,2.406,7.811c0.54,0.144,0.33,2.775,0.629,4.22
		c1.286,6.184,1.814,12.419,1.944,18.741c0.313,15.242,3.331,30.244,4.529,45.378c2.197,27.762,11.035,54.056,16.527,81.075
		c5.491,27.014,11.896,53.842,17.909,80.749c0.178,0.795,0.2,1.89,0.724,2.304c6.514,5.148,5.656,12.593,6.269,19.596
		c0.806,9.21,3.496,18.031,5.815,26.908c2.546,9.748,4.245,19.612,5.164,29.627c0.09,0.988,0.301,2.693-0.109,2.891
		c-7.067,3.396-3.011,9.412-2.604,13.773C228.337,484.07,229.474,495.587,232.449,507.369z M384.842,600.704
		c-1.239,2.336-2.088,3.722-2.737,5.196c-2.438,5.537-6.355,9.343-12.094,11.557c-10.915,4.211-21.646,8.829-31.956,14.448
		c-7.59,4.137-16.045,4.021-24.215,2.525c-14.157-2.592-26.697-9.341-38.61-17.075c-7.825-5.08-14.36-11.588-17.114-21.189
		c-9.223,26.334-15.115,52.688-2.117,79.958c3.118-5.231,6.859-9.576,13.062-11.178c8.697-2.245,16.222,0.966,23.621,4.699
		c7.059,3.562,12.186,9.365,16.938,16.236c1.558-7.024,2.688-13.35,2.339-19.815c-0.165-3.048,0.446-5.954,1.161-8.819
		c0.447-1.794,0.938-3.887,3.453-4.319c2.581-0.443,3.934,0.902,5.248,2.828c1.118,1.639,1.461,3.947,3.762,5.032
		c0.621-4.005,2.371-7.151,4.803-9.912c7.002-7.949,15.966-12.362,26.084-15.131c6.395-1.75,11.284,0.352,15.096,4.798
		c4.822,5.626,9.152,11.712,12.706,18.272c1.116,2.06,2.426,4.141,0.91,7.68c-3.095-9.573-9.003-16.443-14.197-23.759
		c-3.293-4.637-8.28-6.159-13.887-5.068c-6.657,1.296-12.461,4.414-18.014,7.979c-6.831,4.384-12.833,10.432-11.764,18.842
		c1.141,8.976,2.108,17.945,3.118,26.935c1.494,13.306,6.328,25.793,12.911,37.538c1.49,2.658,2.534,5.567,3.978,8.793
		c-2.685-0.562-2.265-3.117-4.413-3.628c-0.184,6.799-0.594,13.423,0.839,19.938c2.854,12.977,6.225,25.85,8.726,38.892
		c1.864,9.721,3.035,19.612-0.152,29.44c-1.322,4.078,1.354,7.303,6.008,7.583c6.014,0.362,11.778-0.978,17.486-2.722
		c2.542-0.777,3.404-1.85,2.455-4.7c-1.013-3.04-1.427-6.131-0.723-9.651c1.811-9.05,4.476-17.832,7.111-26.629
		c5.198-17.344,7.616-34.738,2.332-52.558c-2.434-8.208-4.498-16.507-5.029-25.135c-0.816-13.254,3.218-25.762,5.513-38.55
		c1.708-9.523,6.353-18.602,5.412-28.476C391.602,628.012,387.226,615.032,384.842,600.704z M471.596,589.706
		c0.21-1.634,0.344-2.245,0.358-2.86c0.356-14.306,0.267-28.64,1.192-42.908c0.668-10.316,0.465-20.639,1.119-30.935
		c1.633-25.715,1.437-51.513,3.683-77.203c1.01-11.561,1.347-23.178,2.188-34.755c1.19-16.376,2.666-32.731,3.827-49.109
		c0.856-12.09,1.224-24.215,2.133-36.299c1.492-19.837,3.406-39.643,4.778-59.486c0.344-4.976,0.676-9.997,0.876-15.024
		c-0.738,0.813-1.302,1.622-1.582,2.519c-12.067,38.656-24.089,77.327-36.175,115.977c-2.256,7.214-3.011,14.925-5.317,21.894
		c-3.802,11.484-6.033,23.386-10.092,34.844c-2.702,7.63-4.593,16.059-6.193,24.271c-0.556,2.855-1.608,4.085-4.529,3.515
		c-1.957-0.382-3.251-0.042-4.116,2.308c-6.531,17.725-13.246,35.383-19.967,53.037c-0.434,1.14-1.104,2.096,0.112,3.055
		c10.038,7.909,15.548,20.01,25.349,27.973c10.843,8.809,17.954,20.202,24.93,31.874
		C459.542,571.379,463.794,581.089,471.596,589.706z M165.797,568.202c5.382-5.222,11.079-10.073,15.976-15.629
		c13.144-14.912,28.101-27.756,43.851-39.759c2.029-1.547,2.54-3.201,1.87-5.995c-3.064-12.777-5.697-25.657-8.497-38.498
		c-0.556-2.55-0.079-5.862-4.422-5.545c-1.031,0.075-1.397-1.148-1.57-2.228c-1.303-8.119-2.702-16.224-3.994-24.345
		c-2.17-13.634-4.212-27.294-8.103-40.578c-0.52-1.772-0.463-3.681-1.024-5.287c-1.475-4.224,1.554-7.902,0.403-12.349
		c-8.713-33.658-16.929-67.445-25.352-101.18c-1.969-7.888-4.137-15.725-6.213-23.585c-1.179,52.441,0.59,104.73-1.596,157.015
		c-1.071,25.615-0.813,51.285-1.173,76.931c-0.026,1.831-0.18,3.659-0.286,5.488c-1.441,24.805-0.351,49.629-0.593,74.442
		C165.072,567.347,165.387,567.596,165.797,568.202z M364.994,496.055c-3.382,2.455-5.048,4.528-5.013,7.682
		c0.032,2.859-0.661,5.56-1.793,8.146c-1.172-0.528-1.31-1.302-1.122-1.858c1.564-4.652,0.864-9.544,1.508-14.305
		c0.861-6.379,1.146-12.937-0.185-19.335c-3.128-15.043-18.644-28.846-38.942-27.551c-17.4,1.11-33.595,16.791-33.373,34.171
		c0.091,7.095,0.594,14.211,1.779,21.252c0.254,1.51,0.92,3.46-1.304,4.938c-1.089-3.546-0.1-7.378-2.874-9.99
		c-0.811-0.765-1.47-2.259-2.689-1.896c-1.602,0.478-1.379,2.274-1.079,3.416c1.783,6.789,3.669,13.555,5.736,20.262
		c0.286,0.928,1.429,2.202,3.464,1.519c-1.057-2.343-1.525-4.651-0.775-7.014c1.356,0.427,1.509,1.367,1.672,2.406
		c1.071,6.812,1.726,13.824,3.466,20.368c3.567,13.412,13.699,22.441,24.474,30.283c4.167,3.032,9.434,2.006,14.021-0.94
		c6.32-4.06,10.313-10.201,14.79-15.931c4.897-6.269,8.377-12.9,7.376-21.342c-0.354-2.987,0.704-6.173,1.334-9.224
		c0.152-0.738,0.299-2.143,1.787-1.934c1.648,0.231-0.517,2.266,1.839,2.632C360.253,513.289,366.638,506.022,364.994,496.055z
		 M279.286,495.215c-2.286-0.703-4.257-0.545-6.253-0.533c-14.126,0.085-26.199,5.788-37.644,13.417
		c-25.771,17.178-46.486,39.954-68.334,61.482c-1.697,1.671-2.085,3.584-2.087,5.859c-0.013,19.647-0.163,39.296-0.143,58.942
		c0.007,6.962,2.087,13.652,3.205,20.469c0.469,2.855,3.175,3.385,5.172,3.713c1.002,0.164,1.701-2.37,1.813-4.062
		c0.188-2.813,0.771-5.616,0.772-8.424c0.001-8.781,0.816-17.548-0.533-26.358c-0.632-4.129-2.343-8.248-1.424-13.206
		c1.551,7.158,4.915,4.947,8.738,2.742c3.266-1.883,6.911-3.104,10.379-4.639c11.863-5.253,22.785-11.744,32.179-21.001
		c7.644-7.532,16.373-13.912,26.162-18.698c8.569-4.19,8.483-4.359,14.716,2.946c0.134,0.157,0.534,0.089,0.715,0.112
		c1.013-5.09,1.488-10.202,1.292-15.382c-0.41-10.816,1.343-21.357,3.94-31.823c1.922-7.742,7.796-14.439,6.123-23.156
		C277.957,496.99,278.772,496.188,279.286,495.215z M453.27,619.145c-1.619,15.175-2.532,29.943,1.479,44.687
		c1.028,3.775,1.979,3.044,4.454,2.184c2.444-0.85,3.076-2.803,3.506-4.81c4.573-21.319,9.684-42.568,8.354-64.664
		c-0.143-2.381-0.46-4.328-1.987-6.348c-5.082-6.721-9.324-13.972-13.484-21.322c-7.807-13.795-15.486-27.787-28.675-37.588
		c-2.61-1.939-4.864-4.47-6.743-7.297c-10.545-15.863-24.1-27.537-43.665-30.441c-4.531-0.673-9.08-1.852-13.747-0.613
		c-1.099,0.291-1.938,0.461-1.758,1.78c0.05,0.362-0.063,0.775,0.776,0.831c5.942,0.392,6.501,1.129,5.252,7.296
		c-0.582,2.871-0.195,5.252,1.376,7.851c5.834,9.645,9.194,19.97,8.705,31.501c-0.241,5.691,0.706,11.435,1.131,17.376
		c5.597-4.26,5.765-4.207,10.262-0.569c5.401,4.369,9.365,9.619,11.553,16.329c2.73,8.38,7.169,15.52,13.441,22.114
		c10.727,11.278,25.62,16.213,36.706,26.642C451.642,622.469,450.103,619.886,453.27,619.145z M257.361,723.213
		c-4.946,11.639-7.991,22.482-7.054,33.744c0.688,8.277,3.416,16.375,5.108,24.579c2.615,12.676,7.113,25.104,4.653,38.443
		c-0.718,3.895-0.265,8.082,4.545,9.136c5.409,1.187,10.836,2.793,16.575,1.224c4.299-1.176,5.957-3.33,5.07-7.865
		c-1.497-7.661-1.933-15.373-0.53-23.176c2.188-12.163,6.988-23.581,9.752-35.594c2.102-9.136,2.746-18.224,2.765-27.525
		c0.004-2.069-3.67-1.755-1.562-4.531c7.206-9.485,9.258-20.956,11.093-32.309c0.792-4.898,2.5-9.74-1.571-14.998
		c-7.852-10.139-17.689-16.112-30.073-18.221c-8.76-1.492-22.715,8.624-18.073,19.194c0.98,2.231,0.953,4.507,0.955,6.818
		c0.011,11.489,0.013,22.979-0.012,34.467c0,0.182-0.373,0.361-0.688,0.647C258.085,726.272,257.873,725.373,257.361,723.213z
		 M472.873,601.828c-0.186,13.14-0.213,26.309-1.897,39.346c-0.599,4.626-1.284,9.189-0.853,13.809
		c0.445,4.774,1.272,9.513,1.939,14.266c0.135,0.956,0.029,2.495,1.194,2.419c3.281-0.217,6.888,2.726,9.036,1.351
		c1.821-1.164,0.814-5.534,0.295-8.487c-0.086-0.487-0.324-0.946-0.438-1.431c-1.023-4.332-2.845-8.659-2.893-13.004
		c-0.118-10.968,0.282-21.962,0.991-32.911c1.008-15.558,2.562-31.08,3.724-46.629c0.841-11.256,1.295-22.542,2.155-33.796
		c1.529-20.019,3.26-40.021,4.859-60.034c1.085-13.571,2.06-27.151,3.139-40.724c1.593-20.023,3.369-40.034,4.819-60.068
		c1.534-21.202,2.673-42.433,4.181-63.638c1.495-21.02,3.455-42.007,4.793-63.035c0.938-14.74,1.538-29.501,3.074-44.197
		c0.301-2.878-0.526-4.437-3.547-5.432c-9.608-3.166-11.137-2.011-11.513,8.182c-0.397,10.776-1.247,21.54-2.047,32.298
		c-1.229,16.531-2.626,33.05-3.871,49.579c-0.811,10.758-1.454,21.528-2.214,32.29c-1.249,17.715-2.56,35.426-3.791,53.143
		c-0.759,10.932-1.337,21.877-2.143,32.805c-1.221,16.556-2.859,33.086-3.774,49.658c-0.771,13.957-0.343,27.984-1.236,41.93
		c-0.673,10.488-0.635,20.972-1.07,31.451C474.804,554.587,473.843,578.207,472.873,601.828z M167,291.432c-0.218,0-0.436,0-0.653,0
		c0-6.164,0.031-12.329-0.006-18.492c-0.098-16.328-0.199-32.655-0.391-48.982c-0.015-1.26,0.981-3.554-1.118-3.669
		c-4.216-0.232-7.046,3.718-11.244,4.336c-1.375,0.202-0.533,3.291-0.552,5.038c-0.621,54.144-1.232,108.287-1.758,162.433
		c-0.793,81.63-1.579,163.262-2.167,244.894c-0.046,6.475,0.353,12.85-1.539,19.158c-0.86,2.867-1.589,6.365,0.262,8.646
		c1.08,1.33,4.014-1.716,6.021-1.279c3.867,0.844,4.156-1.169,4.177-3.996c0.008-1.144,0.475-2.278,0.528-3.427
		c0.324-7.014,3.801-13.422,4.066-20.392c0.342-8.98,0.222-17.979,0.339-26.968c0.481-36.982-0.316-73.963,0.675-110.954
		c1.311-48.946,1.969-97.911,3.273-146.862C167.44,331.1,167,311.26,167,291.432z M365.578,509.789
		c-2.912,3.731-2.812,8.107-4.487,11.813c-0.411,0.912,0.208,1.845,0.769,2.747c6.379,10.27,6.163,21.368,3.471,32.529
		c-5.31,22.01-28.569,31.972-45.701,30.801c-29.109-1.988-49.468-26.919-37.603-58.041c1.293-3.394,3.12-6.505,1.062-10.43
		c-1.656-3.158-1.304-7.188-3.691-10.491c-2.195,3.059-3.4,6.093-4.43,9.239c-4.222,12.891-5.05,26.152-5.117,39.623
		c-0.036,7.301,0.168,15.144-5.88,20.896c-1.717,1.633-0.366,2.786,0.318,3.863c5.231,8.244,10.517,16.512,17.555,23.342
		c9.427,9.149,20.857,13.938,34.073,13.198c6.557-0.366,13.042-1.938,19.571-2.881c22.276-3.213,37.069-15.935,46.049-36.103
		c0.887-1.991,1.544-3.452-1.121-4.992c-3.161-1.828-4.385-5.081-4.458-8.873c-0.203-10.481-0.295-20.982-1.057-31.431
		C374.244,525.634,370.421,517.639,365.578,509.789z M257.727,825.962c-1.418,2.014-1.525,3.933-1.808,5.914
		c-0.978,6.87-1.203,13.808-2.489,20.669c-1.769,9.439-5.372,18.276-7.958,27.438c-3.161,11.197-1.023,19.602,6.424,23.888
		c7.359,4.235,15.478,5.229,23.892,4.432c13.612-1.291,15.552-10.646,13.894-20.514c-2.117-12.594-2.253-25.042,0.098-37.551
		c0.977-5.197,0.108-17.699-1.567-21.644C280.136,835.497,264.881,834.305,257.727,825.962z M475.666,747.266
		c-0.002,3.938,1.021,7.761-0.304,11.512c-0.96,2.721-0.356,5.203,2.507,6.064c2.78,0.837,5.187-0.784,5.644-3.493
		c1.264-7.503,4.833-14.741,2.927-22.69c1.345,2.903,3.28,5.482,1.773,9.125c-1.175,2.842-1.664,6.013-2.116,9.088
		c-0.247,1.683-0.854,3.979,1.329,4.88c1.979,0.816,3.455-0.755,4.667-2.104c0.753-0.839,1.246-1.949,1.717-2.999
		c3.53-7.864,3.802-15.681,0.809-23.942c-3.187-8.792-6.468-17.645-5.853-27.379c0.227-3.572-0.523-7.274-1.268-10.826
		c-1.873-8.935-8.735-13.33-16.393-16.268c-5.29-2.029-13.505,3.916-12.059,8.29c1.831,5.532,0.675,11.238,0.931,16.86
		c0.26,5.708-1.808,10.356-6.835,13.376c-2.178,1.307-3.431,2.856-3.134,5.609c1.419,13.138,4.088,26.147,4.021,39.439
		c-0.011,2.067,0.443,4.299,3.15,4.068c2.082-0.178,3.767-0.868,3.946-3.89c0.354-5.972,1.439-11.899,2.222-17.846
		c0.401,3.994,1.04,7.92,0.018,11.874c-0.66,2.556-0.838,5.281,0.182,7.85c0.871,2.194,1.941,4.562,4.845,4.05
		c2.53-0.446,3.935-1.969,4.78-4.841C474.721,757.82,472.652,752.104,475.666,747.266z M156.117,732.599
		c1.554,2.901,1.974,5.262,1.903,7.775c-0.085,2.995,0.033,5.996-0.034,8.992c-0.052,2.339,0.526,4.638,2.735,5.4
		c2.428,0.839,3.805-1.412,5.159-3.067c1.826-2.23,2.581-4.952,3.084-7.683c1.232-6.692,3.369-13.006,6.86-18.881
		c4.403-7.409,6.925-14.91,0.46-22.613c-0.695-0.827-0.909-2.074-1.292-3.146c-1.969-5.498-0.73-11.192-0.923-16.793
		c-0.092-2.657-0.772-4.749-2.607-6.696c-4.572-4.854-14.042-7.119-19.964-3.479c-3.267,2.008-6.941,4.656-5.863,10.348
		c1.591,8.405-0.664,16.397-5.467,23.527c-2.4,3.563-4.953,7.027-7.527,10.469c-5.84,7.808-2.684,16.166-1.514,24.384
		c0.175,1.229,1.339,1.888,2.646,1.831c1.942-0.084,1.26-1.558,1.262-2.6c0.011-4.329-0.016-8.659-0.033-12.989
		c-0.012-2.92,0.913-5.349,4.11-7.471c-4.084,8.587-2.396,16.678-0.851,24.713c0.433,2.252,1.986,3.607,4.708,3.428
		c2.871-0.188,1.564-2.276,2.078-3.602c1.665-4.288,0.085-8.785,0.817-13.147c2.085,5.289,0.802,10.723,1.111,16.062
		c0.164,2.831-0.451,5.868,4.096,5.688c4.143-0.165,5.27-2.26,5.096-6.038C155.957,742.449,156.117,737.872,156.117,732.599z
		 M348.941,825.344c0,6.295,0.744,11.364-0.223,16.083c-0.862,4.207-0.27,7.639,1.169,11.436c2.192,5.79,2.312,11.721,1.56,17.996
		c-1.014,8.45-2.393,17.076,0.459,25.589c1.547,4.617,4.433,7.6,8.997,9.047c8.435,2.673,16.585,1.812,24.368-2.252
		c6.058-3.163,8.805-8.751,7.506-15.298c-0.767-3.87-1.506-7.828-2.966-11.463c-6.009-14.958-8.059-30.521-7.845-46.505
		c0.019-1.391,0.576-2.959-0.618-4.231C372.181,833.742,355.692,834.19,348.941,825.344z M364.994,544.146
		c0.24-4.701-0.724-9.252-2.153-13.652c-0.828-2.548-1.745-6.423-4.725-6.044c-1.912,0.243-2.111,4.255-2.128,6.877
		c-0.027,4.105,0.507,8.26-1.709,12.11c-4.811,8.357-10.174,16.352-17.251,22.915c-8.754,8.117-17.737,7.701-26.186-0.701
		c-2.714-2.699-5.286-5.539-7.97-8.269c-6.633-6.744-12.153-13.99-11.956-24.154c0.038-1.931-0.618-3.881-1.014-5.811
		c-0.243-1.186-0.762-2.188-2.16-2.373c-1.507-0.2-2.066,0.888-2.517,1.95c-5.524,13.039-7.563,26.376,0.6,38.843
		c9.766,14.913,23.851,21.986,41.968,19.136C348.718,581.681,365.209,568.301,364.994,544.146z M447.422,374.133
		c0.827-2.214,1.657-4.151,2.283-6.151c12.113-38.718,24.262-77.426,36.251-116.182c2.423-7.831,6.089-15.382,6.92-23.585
		c0.835-8.233,0.999-16.536,1.96-24.78c0.238-2.044,1.36-4.614-2.697-5.668c-4.551-1.183-3.48,2.589-3.854,3.865
		c-15.231,52.17-30.176,104.423-45.426,156.587c-1.815,6.212-3.615,11.635,3.53,15.436
		C446.535,373.732,446.688,373.794,447.422,374.133z M210.933,380.315c-5.322-23.747-10.562-47.46-15.962-71.137
		c-6.232-27.328-12.609-54.623-18.903-81.938c-0.291-1.265-0.021-2.86-1.706-3.251c-1.607-0.372-1.998,1.139-2.942,2.008
		c-5.83,5.366-4.492,12.672-2.911,18.251c7.588,26.774,11.612,54.488,22.269,80.494c6.091,14.864,8.491,30.994,11.163,46.874
		C202.785,376.641,202.997,382.095,210.933,380.315z M521.212,121.301c5.6,0.147,6.118-3.738,7.332-6.796
		c0.947-2.386,0.862-4.116-2.723-4.715c-4.11-0.686-8.243-0.845-12.347-1.246c-4.146-0.405-8.907,4.974-6.937,7.866
		c1.746,2.562,0.649,1.627-0.722,3.17c-2.458,2.766-0.74,7.561-1.59,10.727c-0.972,3.621-4.974,6.685-3.612,11.222
		c0.315,1.053,0.856,0.969-0.319,1.777c-3.276,2.255-2.753,6.277-2.83,9.372c-0.057,2.291,3.604,2.018,5.84,2.415
		c2.753,0.489,5.47,1.188,8.19,1.843c6.149,1.481,6.872,0.822,8.095-5.415c0.588-2.999-1.964-3.736-3.31-5.539
		c5.148-0.598,6.991-3.389,6.07-8.35c-0.358-1.927-2.038-4.144,0.145-5.834C526.442,128.739,526.468,125.234,521.212,121.301z
		 M139.223,38.021c1.752,3,1.737,5.636,1.799,8.306c0.313,13.578-0.724,27.172,0.901,40.744c0.87,7.269,1.133,7.766,8.351,6.258
		c3.169-0.662,7.436,0.442,9.265-2.205c1.952-2.825-0.389-6.718-0.54-10.169c-0.101-2.305-0.094-4.577-0.517-6.907
		c-1.924-10.609-6.874-20.163-10.107-30.297C146.88,39.063,143.953,38.273,139.223,38.021z M381.629,602.41
		c-10.1,7.742-19.793,13.062-30.123,17.223c-7.525,3.029-15.445,5.53-23.457,5.07c-12.632-0.727-25.25-2.607-37.29-6.831
		c-12.205-4.282-22.623-10.713-26.961-24.052c-0.635-1.951-1.41-4.348-3.556-5.854c-0.473,8.412,1.771,14.341,7.202,20.006
		c10.362,10.809,23.669,16.646,37.234,21.94c9.118,3.558,19.062,5.435,28.104,1.697c13.659-5.646,26.999-12.142,40.562-18.095
		C377.374,611.746,379.22,607.605,381.629,602.41z M532.37,59.45c-1.683,2.36-5.351,1.608-6.421,4.867
		c-4.115,12.532-11.245,24.062-12.331,37.62c-0.152,1.906-1.685,4.697,1.38,4.473c5.022-0.368,10.229,4.399,14.949-0.367
		c0.798-0.806,0.687-2.49,1.047-3.755c1.773-6.237,1.897-12.519,1.061-18.942C531.029,75.474,533.603,67.618,532.37,59.45z
		 M147.475,595.101c-10.99,14.074-7.941,46.315-3.128,66.076c0.461-6.329,4.354-12.146,3.481-18.461
		c-1.29-9.334-0.407-18.576-0.36-27.86C147.501,608.308,147.475,601.76,147.475,595.101z M483.538,610.916
		c-1.663,1.506-1.489,2.929-1.495,4.183c-0.041,8.477-0.194,16.931-0.913,25.399c-0.446,5.256-1.294,10.712,1.254,15.894
		c1.602,3.258,2.242,6.875,2.601,10.494c0.135,1.359,0.111,3.021,1.88,2.895c1.693-0.122,0.902-1.931,0.92-2.835
		c0.172-8.479,0.179-16.961,0.213-25.442C488.04,631.224,486.578,621.169,483.538,610.916z M456.455,687.044
		c-5.577,8.991-7.189,18.461-6.168,28.845C457.961,711.468,461.104,696.457,456.455,687.044z M437.423,737.883
		c-4.415,8.117-0.501,15.203,1.742,22.364c0.426,1.358,0.861,3.742,2.969,3.369c2.028-0.358,3.286-2.195,3.751-4.248
		c0.292-1.29-0.18-2.588-0.383-3.895C444.48,748.888,439.693,744.156,437.423,737.883z M377.933,567.255
		c0.192,1.895,1.011,4.08,2.727,5.71c0.987,0.938,2.455,2.127,3.434-0.335c1.336-3.363,2.561-6.792,2.839-10.383
		c0.219-2.831-1.949-4.476-4.254-3.172C380.023,560.576,378.018,563.252,377.933,567.255z M190.94,734.466
		c-2.497,3.32-4.022,5.868-6.058,7.907c-2.069,2.073-4.634,3.654-6.997,5.431c-1.273,0.957-2.178,2.139-1.743,3.779
		c0.344,1.296,1.03,2.357,2.699,2.431c1.774,0.078,2.803-0.815,3.473-2.245c0.917-1.958,1.762-4.108,3.674-5.163
		C190.515,744.11,190.857,739.984,190.94,734.466z M259.113,564.1c-1.951-0.173-2.073,0.772-2.106,1.85
		c-0.126,4.019,2.008,7.192,3.903,10.446c0.739,1.269,1.684,0.849,2.366-0.026c1.24-1.59,3.394-2.949,1.957-5.467
		C263.61,568.062,262.182,565,259.113,564.1z M179.792,703.488c0.471-8.77-0.741-14.601-3.79-18.479
		C176.346,691.252,174.525,697.686,179.792,703.488z M408.277,472.123c-0.362-0.115-0.725-0.23-1.087-0.346
		c-2.745,9.265-5.491,18.53-8.236,27.796c0.515,0.149,1.03,0.299,1.545,0.448C403.092,490.723,405.685,481.423,408.277,472.123z
		 M143.316,684.586c-2.43,4.959-2.728,10.303-2.684,15.708C143.482,695.432,144.328,690.194,143.316,684.586z M152.071,221.028
		c1.3-3.947,0.947-7.999,0.362-12.065C152.583,213.002,149.736,216.852,152.071,221.028z"/>
</g>
</svg>
