<?xml version="1.0" encoding="utf-8"?>
<!-- Generator: Adobe Illustrator 16.0.0, SVG Export Plug-In . SVG Version: 6.00 Build 0)  -->
<!DOCTYPE svg PUBLIC "-//W3C//DTD SVG 1.1//EN" "http://www.w3.org/Graphics/SVG/1.1/DTD/svg11.dtd">
<svg version="1.1" id="PtYui2sZC7b_x5F_sA_x5F_iks8F8gnnSvH_x5F_SL0nBhQnMGsPCXk_xA0_Image_1_"
	 xmlns="http://www.w3.org/2000/svg" xmlns:xlink="http://www.w3.org/1999/xlink" x="0px" y="0px" width="640px" height="960px"
	 viewBox="0 0 640 960" enable-background="new 0 0 640 960" xml:space="preserve">
<path fill-rule="evenodd" clip-rule="evenodd" d="M571.639,304.356c5.867,4.678,9.153,0.471,12.425-2.096
	c3.974-3.116,5.892-7.564,4.693-12.743c-0.785-3.395-4.211-4.688-7.437-2.971c-1.251,0.666-2.311,1.693-4.507,3.345
	c1.002-4.345,3.337-5.465,6.03-5.83c2.822-0.384,5.594-0.39,7.122,2.944c2.284,4.981,0.863,11.664-3.833,16.261
	c-2.369,2.318-5.223,3.938-8.279,5.213C574.71,309.79,573.093,308.435,571.639,304.356z"/>
<path fill-rule="evenodd" clip-rule="evenodd" d="M614.151,273.657c-1.018-14.304-10.792-27.245-24.645-30.631
	c-6.784-1.658-13.693-1.952-20.672-2.098c-22.804-0.474-32.217,11.531-38.835,30.026c-0.438,1.225-1.299,3.034-0.796,3.742
	c3.543,4.985-0.271,7.811-2.898,11.015c-2.108,2.57-4.252,5.112-6.39,7.659c-1.566,1.866-2.271,4.649-0.172,5.598
	c4.822,2.179,4.405,6.986,4.289,10.073c-0.12,3.202,2.382,5.74,1.042,9.047c-2.341,5.778,0.367,10.135,6.449,11.914
	c4.014,1.174,8.147,0.722,12.607,1.304c-1.111,2.545-2.392,4.688-2.981,7.005c-1.002,3.937-3.314,5.786-7.262,6.604
	c-33.551,6.939-59.88,24.001-76.952,54.449c-5.902,10.525-6.354,10.154-16.53,3.574c-2.714-1.755-3.688-3.754-3.466-6.918
	c0.41-5.846-1.314-11.405-2.999-16.917c-0.526-1.724-1.362-3.381-2.883-4.514c-6.209-4.625-12.92-8.074-20.912-7.523
	c-4.169,0.287-6.157-1.307-7.677-5.183c-10.655-27.179-42.298-38.071-67.31-23.077c-3.746,2.246-6.317,2.093-9.737-0.165
	c-20.346-13.436-41.301-25.906-61.689-39.303c-21.081-13.853-41.845-28.172-64.341-40.003
	c-22.712-11.944-43.909-26.777-65.732-40.405C89.427,191.309,45.219,163.646,1,136c0,11,0,22,0,33
	c0.487,0.062,1.062-0.025,1.45,0.205c14.198,8.421,28.505,16.668,42.539,25.356c50.223,31.093,101.854,59.854,151.417,92.05
	c20.553,13.351,41.48,26.153,62.439,38.894c18.045,10.969,35.094,23.574,52.646,35.361c1.905,1.278,2.665,2.06,1.571,4.559
	c-3.155,7.212-3.415,15.023-1.733,22.463c6.834,30.218,35.262,48.302,66.28,36.162c4.623-1.81,8.619-6.255,12.972-6.49
	c4.39-0.237,8.441,5.114,13.383,5.653c8.382,0.915,14.755,5.227,20.789,10.497c1.367,1.194,2.675,2.55,4.243,3.402
	c2.899,1.576,2.955,2.813,0.961,5.614c-10.608,14.903-21.797,29.462-28.763,46.649c-3.513,8.666-6.659,17.478-11.542,25.587
	c-7.766,12.896-16.767,24.894-25.371,37.202c-14.088,20.153-24.315,42.569-35.034,64.622c-3.273,6.734-5.642,13.992-6.443,21.653
	c-0.26,2.479-1.312,4.933-2.623,7.34c-7.602,13.96-11.472,28.493-7.484,44.651c2.06,8.345,2.442,17.254,1.097,25.784
	c-4.1,25.989-9.681,51.697-15.593,77.337c-0.792,3.435-1.926,5.442-5.29,6.51c-3.537,1.121-5.479,4.037-6.983,7.323
	c-1.574,3.435-4.181,5.993-7.705,7.381c-6.283,2.475-12.787,4.237-19.469,5.217c-9.63,1.411-19.305,2.537-28.91,4.099
	c-4.277,0.696-8.316,2.24-9.829,7.116c-1.853,5.973,0.688,10.827,7.723,13.89c4.702,2.047,9.545,3.768,15.734,6.185
	c-6.591,1.473-11.622,2.737-16.709,3.695c-5.459,1.028-10.456,2.666-14.325,7.024c-4.66,5.246-4.249,10.236,1.881,13.952
	c10.816,6.558,22.877,9.476,35.312,9.941c22.968,0.86,45.825-2.062,68.75-2.927c5.503-0.207,9.089-5.107,8.533-11.269
	c-0.916-10.159-3.348-20.282-0.017-30.493c0.637-1.954,0.647-4.521-0.069-6.421c-1.314-3.482-0.216-6.358,0.784-9.563
	c6.929-22.217,16.345-43.332,27.475-63.742c5.625-10.315,8.493-21.34,7.995-33.282c-0.519-12.446-2.649-24.793-2.114-37.301
	c0.182-4.238,1.102-8.049,3.834-11.446c5.136-6.385,10.892-12.08,17.604-16.792c14.401-10.111,28.93-20.059,40.773-33.312
	c8.761-9.804,17.232-19.916,26.935-28.795c7.486-6.852,15.196-13.44,21.361-21.552c9.078-11.943,18.89-23.509,22.115-38.788
	c1.223-5.792,2.097-11.662,3.461-17.418c1.516-6.395,2.609-13.155,8.334-17.502c8.816-6.694,17.791-13.181,26.633-19.843
	c1.531-1.153,2.898-1.566,4.428-0.361c2.717,2.143,3.79,0.461,4.499-1.898c2.091-6.966,6.124-11.827,13.628-13.324
	c2.627-0.524,4.241-2.593,3.305-5.174c-0.964-2.656,0.073-4.133,1.608-5.958c4.795-5.702,8.762-11.951,12.035-18.664
	c1.001-2.054,2.277-4.185,3.971-5.653c7.854-6.813,12.625-15.577,16.526-24.97c4.823-11.613,7.602-23.447,5.051-36.141
	c-1.328-6.606-2.225-13.313-3.033-20.01c-2.017-16.705,2.833-31.884,11.583-45.743C612.266,297.014,615.036,286.094,614.151,273.657
	z M197.629,268.977c-1.764,2.168-3.385,4.624-4.367,7.217c-1.61,4.251-3.779,3.26-6.647,1.517
	c-39.695-24.123-79.432-48.179-119.123-72.308c-4.663-2.834-8.929-6.381-13.76-8.854C52.461,195.897,39.266,187.816,39,187
	l-16.25-11.25L22.5,156l4.523,3.393c0.452,0.129,0.895,0.593,1.306,0.979l0.75,0.562c32.845,18.882,64.838,39.176,97.239,58.795
	c23.124,14.001,46.249,28.003,69.488,41.812C199.439,263.7,200.488,265.463,197.629,268.977z M455.689,404.977
	c5.09-7.507,9.828-15.29,15.396-22.427c14.701-18.845,35.144-28.725,57.612-34.381c17.379-4.375,35.247-2.611,52.908-1.061
	c4.834,0.425,8.732,3.092,10.281,8.169c-8.604-7.037-18.925-6.922-28.942-6.759c-8.19,0.134-16.471,0.49-24.409,3.5
	c-13.561,5.142-20.913,18.892-21.518,27.53c-0.489,6.999,3.354,11.973,8.286,16.133c2.454,2.068,2.271,3.48,0.667,6.011
	c-7.592,11.974-15.062,24.044-18.964,37.874c-0.883,3.131-2.371,1.042-3.517,0.396c-15.226-8.584-30.44-17.189-45.624-25.849
	C451.854,410.686,451.873,410.605,455.689,404.977z M434.782,400.597c-2.689-4.341-2.6-8.606-3.587-12.435
	c-2.726-10.561-10.488-16.993-21.384-17.196c-1.509-0.028-3.381,0.764-4.66-1.609C425.367,367.648,436.445,376.46,434.782,400.597z
	 M387.747,369.638c-8.916-2.001-16.159-7.686-24.396-11.247C373.563,357.453,381.811,360.912,387.747,369.638z M365.922,351.655
	c8.037-1.975,18.463,2.422,21.755,9.872C381.005,355.262,373.938,353.167,365.922,351.655z M343.871,348.051
	c9.035-3.86,18.102-4.09,27.193-0.865C361.975,344.308,352.97,352.134,343.871,348.051z M384.024,346.466
	c-13.714-9.3-28.307-10.259-44.418-4.589C348.37,330.501,373.42,333.283,384.024,346.466z M332.421,361.205
	c1.5-4.16,5.092-8.06,9.949-9.646c3.42-1.117,11.07,3.843,10.786,6.15c-0.912,5.232-3.265,8.879-6.527,12.129
	c-1.201,1.197-1.971,0.762-2.955,0.186c-1.561-0.914-3.299-1.675-4.563-2.908C336.88,364.941,331.209,364.564,332.421,361.205z
	 M336.835,369.28c-0.24,0.432-0.424,1.317-0.895,1.513c-3.408,1.418-4.785-2.371-7.444-3.081c-1.181-0.315-2.245-1.529-1.208-3.106
	c0.265-0.402,0.59-0.876,1-1.05C329.505,363.042,336.831,367.853,336.835,369.28z M267.42,305.851
	c0.056-0.308,0.721-0.505,1.031-0.705c0.849,0.488,1.581,0.879,2.284,1.316c18.246,11.354,36.499,22.695,54.704,34.112
	c0.986,0.618,3.494,0.854,2.017,2.959c-1.059,1.507-2.583,1.313-4.273,0.198c-17.923-11.818-35.914-23.534-53.87-35.304
	C268.395,307.826,267.158,307.29,267.42,305.851z M318.03,363.231c-17.839-11.969-35.602-24.049-53.374-36.116
	c-6.632-4.504-6.62-4.523-2.881-11.925c3.589-7.107,3.63-7.171,10.444-2.731c18.561,12.093,37.084,24.24,55.616,36.375
	c1.49,0.976,3.13,1.825,3.788,3.578c-2.852,4.424-5.304,9.025-8.591,12.921C321.782,366.815,319.54,364.244,318.03,363.231z
	 M325.653,374.161c-0.734,3.094-1.396,6.205-2.088,9.309c-0.188-0.012-0.374-0.023-0.562-0.034c0-3.199-0.034-6.399,0.024-9.598
	c0.016-0.813-0.404-2.256,1.268-1.86C325.25,372.204,325.952,372.903,325.653,374.161z M326.848,405.668
	c5.4,5.881,11.832,9.71,19.712,11.252c7.713,1.51,15.41,0.75,23.188,0.651C359.873,426.378,335.392,419.488,326.848,405.668z
	 M376.497,410.255c-5.362,3.15-11.153,4.778-17.385,4.771c-19.184-0.079-30.974-18.616-23.225-36.271
	c1.254-2.858,2.481-2.88,4.697-1.469c12.089,7.695,24.206,15.347,36.289,23.051C379.073,401.739,378.779,408.914,376.497,410.255z
	 M227.852,842.945c-3.976-1.608-6.734-4.393-6.407-8.986c0.376-5.273,4.295-7.18,8.77-7.893c7.482-1.19,15.022-2.015,22.525-3.078
	c8.799-1.248,17.513-2.894,25.817-6.202c4.326-1.723,7.44-4.69,9.393-8.979c1.476-3.239,3.68-5.845,8.511-6.817
	c-1.7,6.192-3.208,11.687-4.723,17.18c-0.043,0.156-0.125,0.323-0.238,0.436c-12.722,12.485-23.511,27.634-42.848,31.012
	c-1.163,0.203-2.229,0.521-3.372,0.08C239.469,847.452,233.626,845.282,227.852,842.945z M324.574,869.592
	c0.642,8.06-1.475,11.126-9.333,11.454c-20.424,0.853-40.781,2.938-61.254,3.023c-11.788,0.05-22.845-2.807-33.634-7.072
	c-4.105-1.623-8.673-3.31-8.965-8.729c-0.191-3.543,6.086-9.165,11.093-10.234c12.189-2.602,24.338-5.264,35.97-9.938
	c10.817-4.347,20.618-9.804,26.121-20.785c0.505-1.009,1.46-1.799,2.231-2.669c1.834-2.07,2.932-3.305,5.205,0.267
	c4.667,7.332,10.723,13.433,19.679,15.618c5.165,1.26,9.727-0.348,13.14-5.034c0.308,3.409,0.161,6.138-0.733,8.912
	C321.383,852.81,323.909,861.241,324.574,869.592z M363.201,678.122c-2.843,3.688-4.071,7.794-4.236,12.416
	c-0.414,11.67,1.202,23.209,2.061,34.795c0.971,13.096-1.926,25.325-8.4,36.605c-12.948,22.558-21.77,46.808-29.927,71.356
	c-1.437,4.324-5.896,6.58-10.457,5.396c-8.393-2.178-13.864-8.116-18.703-14.783c-1.032-1.423-0.647-3.126-0.167-4.775
	c8.933-30.639,14.849-61.938,20.841-93.244c2.867-14.974,1.185-29.513-0.721-44.309c-1.639-12.718,1.323-24.601,9.751-34.78
	c1.854-2.239,0.983-5.388,1.417-8.056c1.096-6.74,3.334-13.041,5.941-20.036c16.054,16.29,34.365,28.579,53.76,39.806
	C376.728,664.278,369.185,670.363,363.201,678.122z M473.892,572.584c-7.263,9.98-16.166,18.343-25.275,26.649
	c-13.149,11.989-24.035,26.24-36.878,38.599c-6.854,6.597-14.72,11.796-22.384,17.3c-1.844,1.324-3.597,0.958-5.57,0.247
	c-5.534-1.991-10.192-5.441-14.961-8.705c-11.76-8.048-23.543-16.055-33.764-26.115c-2.574-2.534-3.362-4.547-1.54-8.123
	c10.945-21.488,20.763-43.659,35.213-63.106c10.563-14.216,20.797-28.532,28.301-44.628c3.494-7.497,3.463-7.631,10.731-3.331
	c18.175,10.749,36.211,21.733,54.471,32.334c8.676,5.037,17.671,9.562,27.795,11.777
	C486.815,555.915,480.07,564.091,473.892,572.584z M493.043,532.456c-1.843,12.293-1.696,12.276-13.029,7.698
	c-16.588-6.701-31.153-16.981-46.42-26.027c-9.775-5.793-19.568-11.567-29.546-16.998c-2.711-1.476-2.771-2.661-1.782-5.145
	c7.233-18.154,18.914-33.563,30.071-49.316c1.648-2.327,2.547-1.123,3.792-0.021c8.822,7.808,17.636,15.625,26.456,23.436
	c11.808,10.457,25.643,18.017,38.575,26.86c3.527,2.412,7.845,3.139,12.525,3.657C498.193,503.875,495.211,517.995,493.043,532.456z
	 M581.144,424.692c-7.431,9.907-13.876,20.397-21.2,30.312c-2.455,3.322-5.315,6.344-7.773,9.664
	c-1.934,2.611-4.03,1.252-5.562,0.123c-2.215-1.634,0.132-2.93,1.112-3.914c6.343-6.37,11.729-13.533,17.388-20.479
	c4.477-5.495,7.484-11.689,8.756-18.578c1.802-9.761,6.257-17.984,13.101-25.052c0.813-0.841,2.411-1.462,1.406-3.821
	c-6.332,6.137-12.751,12.055-14.237,20.844c-2.69,15.92-11.537,28.27-22.138,39.481c-9.498,10.045-17.289,21.409-26.197,31.897
	c-8.245,9.706-16.491,10.933-27.282,3.948c-19.38-12.542-37.587-26.434-54.535-42.217c-9.834-9.158-20.29-17.957-32.359-24.531
	c-2.885-1.571-5.081,0.436-7.669-0.859c-4.864-2.435-9.768-4.78-14.428-7.594c-2.824-1.706-5.629-3.452-8.366-5.293
	c-1.83-1.231-1.915-3.02-0.953-4.84c0.956-1.809,2.578-1.351,3.899-0.69c1.887,0.941,3.743,1.134,6.329,0.518
	c-3-1.163-5.521-2.149-8.048-3.117c-3.117-1.193-6.421-3.009-5.081-6.675c1.196-3.273,4.671-1.973,7.397-1.203
	c1.854,0.523,3.753,0.887,6.482,1.52c-2.307-2.62-4.788-2.547-6.961-3.167c-2.943-0.84-5.451-2.442-4.463-5.794
	c0.957-3.245,3.719-3.686,6.889-2.729c3.27,0.987,6.569,2.318,11.395,0.845c-4.838-0.009-8.087-1.533-11.528-2.315
	c-2.727-0.619-3.854-2.454-3.48-5.126c0.381-2.723,2.046-4.019,4.832-3.853c6.668,0.397,12.667,3.188,18.815,5.368
	c3.642,1.292,7.088,3.134,10.821,4.364c-2.983-4.529-9.221-4.291-13.066-8.39c9.051-2.038,15.473,1.313,21.363,6.843
	c3.139,2.946,2.579,6.999,4.095,10.393c0.319,0.716,0.151,1.644,0.239,2.47c0.859,8.115,5.236,13.211,12.21,17.653
	c16.426,10.463,33.252,20.063,50.897,28.277c12.403,5.774,12.368,5.85,15.631,18.626c0-2.124,0.397-4.342-0.07-6.357
	c-1.807-7.779,0.696-14.698,3.893-21.498c3.919-8.338,8.105-16.537,13.187-24.249c4.113-6.244,7.296-12.881,8.386-20.374
	c1.094-7.513,4.858-14.117,7.104-21.259c-7.998,9.089-7.995,21.39-12.344,32.038c-13.422-9.383-12.724-19.894-2.199-33.16
	c5.779-7.286,14.098-10.604,22.896-11.405c9.853-0.896,19.815-1.448,29.766,0.508c7.455,1.466,11.275,5.766,13.519,12.676
	C600.257,386.843,594.354,407.078,581.144,424.692z M592.519,334.364c-0.942,4.808,0.058,9.617-0.871,15.136
	c-6.472-4.689-13.381-5.617-20.605-5.529c-9.82,0.119-19.644,0.029-30.522,0.029c3.871-5.374,2.758-13.255,11.19-14.374
	c-0.88-1.63-1.878-1.218-3.119-1.059c-5.441,0.698-10.903,0.943-16.288-0.564c-5.454-1.526-7.684-4.933-5.101-9.828
	c1.788-3.391-1.955-5.448-0.631-8.727c0.543-1.346-1.137-3.994,0.191-6.473c0.798-1.488-1.604-2.153-2.83-2.863
	c-3.543-2.054-4.099-4.361-1.083-7.451c2.313-2.37,4.206-5.156,6.556-7.484c2.812-2.785,4.712-5.563,2.216-9.492
	c-0.464-0.731-0.618-1.499-0.308-2.363c4.483-12.475,9.491-24.52,23.904-28.714c8.123-2.363,16.421-1.999,24.667-1.118
	c3.724,0.398,7.51,0.727,11.136,2.014c14.528,5.155,21.763,17.596,21.384,35.839c-0.167,8.062-2.771,15.022-6.663,21.888
	C600.159,313.074,594.742,323.02,592.519,334.364z"/>
</svg>
