<?xml version="1.0" encoding="utf-8"?>
<!-- Generator: Adobe Illustrator 16.0.0, SVG Export Plug-In . SVG Version: 6.00 Build 0)  -->
<!DOCTYPE svg PUBLIC "-//W3C//DTD SVG 1.1//EN" "http://www.w3.org/Graphics/SVG/1.1/DTD/svg11.dtd">
<svg version="1.1" id="Z4TNzeRS4g7JXgNTwMcykgAp48jnEu5BFCkPeaN38Bg_xA0_Image_1_"
	 xmlns="http://www.w3.org/2000/svg" xmlns:xlink="http://www.w3.org/1999/xlink" x="0px" y="0px" width="640px" height="960px"
	 viewBox="0 0 640 960" enable-background="new 0 0 640 960" xml:space="preserve">
<g>
	<path fill-rule="evenodd" clip-rule="evenodd" d="M1,170c14.875,12.707,29.725,25.443,44.632,38.113
		c17.071,14.507,34.239,28.9,51.279,43.443c17.056,14.555,33.971,29.275,51.015,43.846c16.914,14.459,33.911,28.82,50.87,43.226
		c5.181,4.401,10.363,8.801,15.53,13.218c1.541,1.317,2.569,3.556,5.343,2.262c0.987-0.461,1.746,0.764,2.38,1.491
		c11.532,13.225,26.985,22.305,38.492,35.292c8.74,9.863,20.045,16.256,28.973,25.464c4.878,5.03,10.501,3.978,15.995,4.434
		c6.006,0.499,11.792,1.683,17.138,4.255c12.336,5.938,25.006,11.65,29.963,26.113c0.9,2.626,1.759,5.266,2.635,7.894
		c5.128-3.69,11.693-3.505,16.116-1.219c6.71,3.469,15.251,7.168,15.129,16.951c-0.133,10.738,7.226,15.808,14.398,21.438
		c13.621,10.695,29.533,17.335,44.521,25.612c2.186,1.207,2.954,0.305,3.608-1.847c7.526-24.771,23.311-43.249,45.069-56.413
		c6.251-3.781,9.174-7.889,9.965-14.712c0.863-7.44,1.154-7.512-6.501-7.755c-2.853-0.091-5.644-0.335-8.251-1.393
		c-4.027-1.634-6.391-5.061-5.045-9.043c1.311-3.875-0.146-6.733-1.232-9.941c-0.259-0.765-1.114-1.594-0.952-2.191
		c1.117-4.111-1.211-6.149-4.256-8.11c-2.139-1.378-2.283-3.45-0.712-5.555c1.287-1.724,2.537-3.476,3.777-5.234
		c3.036-4.304,5.647-8.048,5.514-14.352c-0.314-14.789,11.074-29.266,25.013-33.966c14.443-4.871,28.939-5.588,42.571,2.456
		c20.133,11.88,25.432,35.815,12.261,57.047c-4.982,8.031-8.031,16.52-9.995,25.504c-1.557,7.123-2.139,14.398-0.3,21.657
		c0.25,0.987,0.404,1.873,1.157,2.626c9.668,9.671,12.43,22.121,12.774,34.97c0.975,36.324-13.545,66.518-36.474,94
		c-12.532,15.021-24.852,31.071-26.305,52.056c-0.861,12.436-1.339,24.896-2.113,37.338c-0.944,15.15-5.427,28.842-16.936,39.471
		c-10.824,9.999-23.521,13.33-38.023,11.083c-6.862-1.062-13.828-1.414-20.814-1.635c-18.19-0.577-36.477-0.41-54.332-4.884
		c-12.968-3.249-25.265-8.264-37.296-13.999c-1.612-0.769-3.256-1.475-5.57-2.519c0.145,5.762,1.13,10.752,0.117,15.882
		c-2.493,12.639-3.983,25.438-4.633,38.325c-0.427,8.491,0.577,17.003,2.032,25.186c0.741,4.164,5.562,7.914,5.914,13.012
		c0.666,9.663,3.154,19.333-0.257,29.009c-1.942,5.508-5.068,9.245-11.357,9.069c-2.646-0.073-2.474,0.683-2.196,3.167
		c0.821,7.338,2.958,14.55,1.662,22.156c-0.865,5.075-3.686,7.347-8.135,8.733c-9.451,2.944-19.244,3.209-28.958,3.38
		c-15.455,0.271-30.667,3.251-46.093,3.581c-11.126,0.238-20.58-3.995-28.769-11.222c-3.452-3.046-6.334-6.901-5.171-11.718
		c1.501-6.214,6.49-9.362,12.313-11.018c13.104-3.726,26.281-7.211,39.005-12.141c3.027-1.173,5.929-2.669,9.586-4.334
		c-8.778-2.353-17.01-3.834-24.205-8.129c-4.711-2.812-10.824-4.941-9.689-12.207c0.923-5.912,6.753-9.795,14.661-10.196
		c8.674-0.44,16.833-2.825,24.799-6.086c1.944-0.796,2.833-1.479,2.604-4.258c-2.061-25.061-8.505-49.211-14.645-73.438
		c-2.982-11.769-5.869-23.562-8.682-35.373c-4.811-20.199,5.879-33.684,22.497-39.614c10.943-3.905,22.465-6.18,33.706-9.268
		c5.689-1.562,11.307-3.384,16.993-4.958c9.243-2.558,18.517-0.344,27.742,0.186c8.911,0.51,17.758,2.146,26.669,2.682
		c8.454,0.508,16.887,1.532,25.406,1.188c3.854-0.155,5.966-1.343,7.167-5.203c2.543-8.177,6.051-16.007,9.897-23.659
		c1.11-2.209,1.059-3.654-0.792-5.628c-17.186-18.328-34.367-36.663-51.249-55.27c-7.796-8.592-14.562-18.152-25.028-23.935
		c-3.593-1.984-7.077-4.17-10.585-6.307c-1.81-1.102-3.426-0.143-5.107,0.322c-8.828,2.441-17.047,6.816-26.668,6.693
		c-21.566-0.274-40.433-14.411-46.481-35.699c-3.355-11.809-1.796-23.197,4.174-33.874c1.234-2.208,1.359-3.441-0.439-5.407
		c-11.899-13.003-23.751-26.053-35.404-39.276c-8.76-9.94-19.914-17.353-28.501-27.441c-9.953-11.693-22.184-21.012-33.009-31.704
		c-7.444-7.353-14.899-14.757-22.626-21.823c-14.346-13.119-28.997-25.905-43.497-38.855c-10.545-9.418-21.035-18.898-31.581-28.315
		c-14.88-13.289-29.803-26.531-44.68-39.823c-4.466-3.989-8.835-8.086-13.261-12.121C5.314,198.991,3.699,196.781,1,196
		C1,187.333,1,178.667,1,170z M73.757,239.144c4.95,4.413,9.829,8.909,14.86,13.227c26.129,22.427,52.316,44.786,78.422,67.24
		c2.46,2.116,4.463,4.926,7.865,1.167c-31.861-27.123-63.703-54.25-95.604-81.309c-1.222-1.036-2.707-2.868-4.742-1.017
		c1.487-1.299,0.639-2.244-0.458-3.188c-5.419-4.668-11.307-8.78-16.351-13.898c-1.401-1.422-2.978-1.638-4.388,0.642
		C60.159,227.718,66.958,233.431,73.757,239.144z M81.571,255.309c0.875,4.678,5.601,6.229,7.908,9.743
		c0.513-0.363,1.026-0.728,1.539-1.091c2.129-0.167,3.227,1.574,4.545,2.678c9.655,8.079,19.321,16.151,28.771,24.47
		c6.655,5.858,12.974,12.098,19.398,18.126c-1.213,1.52-2.145-0.789-3.372,0.577c5.676,4.55,10.22,9.856,15.179,14.748
		c1.888,1.862,3.772,3.762,5.867,5.371c3.423,2.63,3.941-1.486,5.511-2.763c1.703-1.383,1.399-3.053-0.477-4.518
		c-5.146-4.021-10.286-8.059-15.261-12.285c-17.766-15.094-35.533-30.188-53.163-45.439c-15.08-13.047-29.95-26.334-44.976-39.444
		c-1.676-1.462-3.184-3.767-6.646-2.787c3.984,4.371,8.03,7.98,12.205,11.539C66.507,240.973,74.63,247.506,81.571,255.309z
		 M331.604,628.633c-6.809-1.725-11.722,3.391-15.27,11.365c-4.542,10.209-6.417,20.593-4.481,31.732
		c0.9,5.18,1.766,10.395,2.385,15.647c0.579,4.922,1.469,10.386,7.395,12.446c6.072,2.112,11.791,5.005,17.564,7.792
		c22.703,10.958,46.347,17.424,71.868,17.657c13.706,0.125,27.563,0.124,41.247,2.516c4.803,0.84,9.995,0.94,14.875-0.301
		c24.378-6.2,35.892-29.089,35.845-50.976c-0.004-1.933-0.719-2.39-2.522-2.707c-7.776-1.366-15.554-2.781-23.255-4.513
		c-16.075-3.613-31.141-10.42-46.878-15.082c-8.791-2.604-15.237-7.695-19.847-15.405c-0.751-1.257-1.116-2.718-3.055-2.828
		c-3.967-0.227-7.925-0.613-11.882-0.983c-7.748-0.726-15.511-1.335-23.234-2.266C359.704,631.205,347.063,629.581,331.604,628.633z
		 M327.045,494.309c-0.062,4.43,2.028,7.384,4.939,9.661c2.722,2.13,5.727,3.931,8.734,5.656c8.227,4.72,15.883,9.958,22.146,17.361
		c6.429,7.6,12.916,15.18,19.858,22.367c11.206,11.603,21.917,23.681,32.96,35.442c5.638,6.005,10.585,12.933,19.086,15.452
		c4.894,1.45,9.774,3.409,14.602-0.137c18.077-13.279,38.896-22.69,54.837-38.997c5.45-5.576,12.233-10.188,15.724-17.224
		c5.343-10.771,14.701-16.335,24.667-21.493c-6.102,6.05-14.948,9.119-19.572,17.414c15.554,0.643,31.546-5.203,34.902-21.462
		c3.218-15.591,3.053-30.101-6.18-43.617c-4.492-6.576-10.449-10.836-18.762-9.662c-19.24,2.717-35.539,10.96-47.271,26.859
		c-3.622,4.908-6.323,10.429-5.268,18.068c6.74-6.942,9.501-15.023,13.804-22.145c0.535,0.73,0.702,1.239,0.558,1.632
		c-5.254,14.225-14.135,25.584-26.605,34.269c-13.956,9.719-23.25,22.747-27.262,39.436c-0.945,3.931-2.125,7.863-4.635,11.545
		c-0.798-2.23,0.321-4.056,0.968-5.458c2.522-5.47,0.632-9.897-2.64-14.053c-4.02-5.104-8.57-9.749-13.961-13.406
		c-14.995-10.174-29.353-21.16-42.146-34.007c-2.9-2.912-9.193-4.967-4.756-11.752c1.584-2.422-0.445-6.593,0.715-9.773
		c1.11-3.043,0.042-5.564-1.312-8.007c-1.434-2.586-3.505-4.837-4.8-7.479c-2.517-5.133-7.547-4.611-11.862-5.698
		c-1.335-0.336-1.992,0.916-2.731,1.8c-1.071,1.279-0.234,2.236,0.643,2.975c3.303,2.784,6.461,5.844,11.064,6.751
		c-2.941,0.52-5.354,4.028-8.521,1.983c-6.624-4.277-12.96-8.998-19.515-13.384c-1.092-0.73-2.372-1.599-4.14-0.779
		c-3.378,1.567-3.74,3.931-1.004,7.379c2.244,2.826,6.302,4.373,6.652,9.135c-2.737-2.563-5.151-4.775-7.509-7.046
		c-2.117-2.04-3.541-0.936-4.789,0.982c-1.528,2.347-0.189,3.927,1.342,5.666c1.856,2.109,4.944,3.488,4.346,7.377
		c-1.505-1.042-2.454-2.612-3.741-3.822c-1.014-0.951-1.903-3.208-3.973-1.22c-1.806,1.734-1.486,3.598-0.016,5.122
		c2.728,2.828,3.723,6.557,6.309,9.979C330.016,497.59,329.397,495.136,327.045,494.309z M320.47,629.74
		c-11.164-0.903-20.842,5.126-31.528,6.739c-4.717,0.712-9.396,1.715-13.83,3.534c-18.847,7.732-24.913,20.034-21.567,36.396
		c3.346,16.365,7.948,32.478,12.154,48.661c5.177,19.92,9.373,39.998,11.419,60.521c0.84,8.424,1.134,16.872,1.931,25.286
		c0.339,3.572,0.969,6.977,3.944,9.787c7.129,6.738,21.413,7.571,29.41,1.695c1.744-1.282,0.822-2.103,0.633-3.207
		c-0.92-5.367-2.084-10.699-2.038-16.188c0.131-15.454,4.053-30.356,6.531-45.473c1.255-7.656,3.206-15.372,2.286-23.137
		c-1.237-10.444-4.608-20.436-7.858-30.429c-1.691-5.198-4.791-8.542-9.771-10.901c-7.101-3.364-13.858-7.452-20.762-11.231
		c11.825,2.916,21.321,10.652,32.87,14.953c-0.238-1.276-0.425-2.229-0.593-3.184c-1.568-8.889-3.929-17.725-4.515-26.678
		C308.289,653.185,311.618,640.318,320.47,629.74z M553.875,457.935c-2.802-12.301,1.469-33.589,8.897-45.205
		c2.942-4.601,5.369-9.444,6.754-14.701c3.985-15.126,1.07-29.595-12.53-39.766c-12.102-9.05-25.402-10.088-39.45-6.539
		c-8.903,2.249-17.532,5.107-22.301,14.07c-3.111,5.848-4.893,12.189-7.059,18.387c-0.31,0.884-0.398,2.169,0.024,2.926
		c1.716,3.07,0.135,5.438-1.433,7.771c-2.204,3.28-4.288,6.705-6.921,9.619c-3.021,3.344-1.309,5.077,1.699,6.216
		c1.737,0.658,3.637,1.43,2.918,3.146c-1.698,4.053,1.495,6.791,2.262,10.11c0.338,1.464,0.89,2.735,0.23,4.066
		c-2.934,5.928,0.104,10.215,8.001,10.96c7.396,0.698,14.782,0.928,22.614-1.152c-1.941,2.692-4.525,2.855-6.525,2.967
		c-2.925,0.162-3.712,1.117-4.384,3.896c-1.612,6.662-1.685,13.651-4.944,21.304C519.014,459.867,535.556,454.201,553.875,457.935z
		 M520.697,603.506c-1.176-0.861-2.248-1.369-3.613-1.544c-14.852-1.895-28.575-7.274-41.88-13.851
		c-1.646-0.814-2.803-0.925-4.404,0.089c-5.725,3.626-11.495,7.163-16.87,11.319c-3.999,3.092-8.372,5.582-13.692,4.369
		c-4.298-0.98-8.717-1.964-12.348-4.614c-2.265-1.652-3.236-1.41-4.365,1.139c-3.932,8.869-7.519,17.853-10.957,26.935
		c-3.122,8.248,0.668,13.318,5.715,18.257c2.673,2.615,6.046,4.523,9.732,5.69c23.271,7.367,45.798,17.206,70.407,20.123
		c4.931,0.585,5.416-0.979,5.55-4.645c0.223-6.133,0.508-12.273,0.791-18.393C505.534,631.685,510.287,616.671,520.697,603.506z
		 M316.994,822.045c-2.531,1.464-4.466,2.714-6.512,3.743c-7.932,3.99-24.055,3.746-30.523-5.247
		c-2.869-3.988-4.353-3.784-5.859,1.067c-1.618,5.212-5.303,7.521-9.853,9.56c-14.616,6.549-30.083,10.414-45.382,14.833
		c-4.961,1.434-9.406,3.983-10.671,9.263c-1.211,5.055,2.525,8.413,5.963,11.291c7.18,6.009,15.504,9.201,24.96,9.472
		c12.831,0.367,25.323-2.987,38.136-3.146c11.404-0.142,22.846-0.615,34.119-2.868c7.949-1.589,11.108-4.511,10.382-12.278
		C320.653,845.954,318.669,834.256,316.994,822.045z M441.614,558.719c0.253-0.236,0.586-0.421,0.722-0.701
		c0.282-0.58,0.465-1.209,0.679-1.82c3.831-10.954,9.57-20.669,18.594-28.173c5.611-4.666,11.339-9.192,17.045-13.743
		c1.336-1.065,2.792-2.047,2.216-4.044c-2.341-8.122,1.585-14.603,6.046-20.492c11.904-15.717,28.312-23.945,47.55-26.587
		c6.414-0.88,12.51,0.686,17.141,5.926c11.621,13.151,14.863,28.375,11.019,45.208c-1.407,6.162-2.099,12.74-6.986,17.57
		c-7.249,7.162-16.412,9.592-26.155,10.027c-3.84,0.171-6.698,0.387-8.715,4.441c-1.576,3.169-4.4,5.832-7.034,8.338
		c-6.376,6.065-12.964,11.907-19.583,17.945c10.385,6.275,19.509,14.647,32.15,16.809c2.984,0.511,4.261-0.419,5.9-1.984
		c10.362-9.894,17.169-22.246,23.258-34.914c8.834-18.38,13.959-37.751,12.477-58.372c-0.677-9.422-2.626-18.598-7.875-26.738
		c-2.567-3.98-5.481-8.035-10.521-8.272c-8.243-0.389-16.513-0.734-24.696,1.607c-9.625,2.755-18.981,6.438-28.841,8.382
		c-1.222,0.241-2.751,1.602-3.476-0.149c-1.224-2.954-2.526-0.822-3.468-0.147c-8.282,5.936-15.576,12.916-21.903,20.92
		c-14.929,18.886-20.649,41.512-26.174,64.221C440.578,555.638,439.438,557.436,441.614,558.719z M314.965,496.977
		c1.1,0,2.931,0.05,4.755-0.028c0.63-0.026,1.244-0.38,1.868-0.573c4.553-1.406,5.61-3.691,3.212-7.533
		c-1.445-2.315-2.305-5.021-0.063-6.588c3.263-2.282,1.109-3.305-0.467-4.434c-10.186-7.298-18.402-16.713-27.374-25.314
		c-4.179-4.006-5.961-3.816-8.623,1.355C276.695,476.355,295.894,498.74,314.965,496.977z M280.631,435.275
		c-1.054-1.293-1.902-2.525-2.937-3.573c-15.183-15.392-30.377-30.771-45.597-46.125c-6.557-6.614-6.46-6.498-11.654,0.963
		c-3.05,4.381,0.379,6.739,2.542,9.341c12.749,15.331,26.272,29.979,39.749,44.667c1.905,2.076,3.615,5.353,5.876,5.814
		c2.641,0.539,3.847-3.352,5.687-5.322c1.458-1.562,3.179-2.877,4.778-4.307C279.54,436.317,279.986,435.881,280.631,435.275z
		 M385.179,490.774c1.849-3.447,1.358-6.67,0.619-9.846c-1.003-4.307-1.585-8.845-3.409-12.794
		c-2.386-5.168-16.747-10.446-22.707-9.12c-0.861,0.191-1.694,0.291-1.622,1.385c0.052,0.797,0.054,2.001,0.523,2.284
		c1.097,0.662,2.484,1.272,3.716,1.205c4.799-0.26,7.808,2.333,9.864,6.129c2.47,4.561,7.893,8.494,6.548,13.926
		c-1.564,6.318,2.169,8.482,5.812,11.371c8.561,6.79,17.083,13.627,25.687,20.362c10.384,8.129,20.834,16.173,31.634,24.547
		c0.971-2.852,1.721-5.188,2.558-7.494c2.896-7.976,2.934-8.022-4.6-11.706c-17.362-8.488-34.544-17.265-48.881-30.569
		C388.839,488.522,387.254,489.781,385.179,490.774z M275.831,791.728c-7.672,3.36-14.943,5.719-22.604,6.841
		c-3.581,0.524-7.239,0.322-10.764,1.461c-4.014,1.296-6.582,3.878-7.385,7.927c-0.751,3.781,2.036,5.562,4.718,7.388
		c8.643,5.881,18.664,7.91,28.529,10.403c0.96,0.243,1.862-0.042,2.111-0.801c2.155-6.562,8.943-11.603,6.543-19.658
		C275.728,801.089,276.106,796.741,275.831,791.728z M311.833,698.179c0.79,2.101,1.416,3.576,1.905,5.096
		c3.781,11.741,8.458,23.375,8.14,35.932c-0.251,9.887-2.536,19.605-4.309,29.338c-1.355,7.443-3.108,14.82-3.574,22.403
		c-0.09,1.458-0.539,3.151,1.906,3.062c2.82-0.103,5.681,0.073,8.447-0.36c1.413-0.221,3.75-0.814,3.196-3.028
		c-0.99-3.961-0.079-7.976-0.764-11.91c-2.387-13.724-0.729-27.366,0.755-41.022c1.026-9.45,4.424-18.615,2.649-28.441
		c-0.565-3.136-1.671-4.769-4.32-5.78C321.416,701.766,316.951,700.104,311.833,698.179z M331.072,790.628
		c-3.42,4.554-4.737,5.24-9.309,5.371c-9.147,0.263-9.147,0.263-8.754,9.519c0.007,0.166-0.021,0.34,0.017,0.498
		c1.027,4.168-0.27,9.4,2.602,12.427c3.188,3.362,4.005,6.857,4.369,10.926c0.171,1.914-0.707,4.455,1.634,5.312
		c2.323,0.852,4.892,0.62,7.16-0.872c2.506-1.649,4.03-4.106,4.645-6.825C336.152,814.941,334.7,803.149,331.072,790.628z
		 M289.458,421.147c-3.966-3.241-7.361-6.11-10.856-8.854c-14.976-11.757-29.963-23.5-45.029-35.14
		c-0.723-0.559-1.626-2.809-3.093-0.938c-1.104,1.408-2.127,3.093,0.051,4.653c0.661,0.474,1.125,1.214,1.708,1.805
		c12.135,12.298,24.264,24.602,36.415,36.884c7.077,7.153,7.091,7.13,16.472,3.17C286.309,422.228,287.541,421.842,289.458,421.147z
		 M295.817,502.698c-5.68-4.293-11.078-8.819-14.99-14.887c-8.54-13.248-8.152-26.66-0.702-40.119c1.065-1.925,1.535-3.4-0.387-4.64
		c-1.935-1.247-2.492,0.951-3.377,1.873c-10.133,10.542-11.705,22.748-6.742,36.103
		C274.164,493.254,282.481,501.009,295.817,502.698z M409.728,629.645c-11.141,1.363-21.896-0.132-32.628-0.901
		c-14.671-1.052-29.252-3.271-43.983-3.765c-2.84-0.095-5.496,0.367-9.107,2.032c11.495-0.243,21.816,0.557,32.148,1.881
		c15.721,2.016,31.523,3.392,47.294,5.017C406.348,634.207,409.27,634.427,409.728,629.645z M292.817,437.078
		c0.64,4.42,3.159,7.721,6.331,8.964c3.634,1.425,2.876-2.305,4.264-3.257c1.61-1.104,3.664-1.945,2.39-3.715
		c-1.396-1.939-4.548-3.186-6.616-1.949C296.821,438.534,295.005,438.028,292.817,437.078z M329.454,436.473
		c-7.401-8.687-16.118-14.234-27.969-12.117C311.199,427.464,321.3,429.647,329.454,436.473z M214.018,354.218
		c-11.043-9.447-22.086-18.896-33.129-28.343C191.04,336.422,201.752,346.301,214.018,354.218z M278.066,500.873
		c6.649,4.596,13.456,8.923,22.212,6.255C293.036,504.565,285.426,503.254,278.066,500.873z M329.494,447.623
		c-4.924-8.023-7.304-9.711-12.358-9.333C321.348,441.471,325.421,444.547,329.494,447.623z M280.73,440.351
		c1.397,2.803,3.539,4.353,5.389,6.117c0.369,0.353,1.265,0.499,1.736,0.303c0.491-0.204,1.122-0.962,0.473-1.597
		C286.276,443.166,284.941,439.988,280.73,440.351z M294.707,495.452c4.268,3.129,8.325,5.399,14.463,5.518
		c-4.967-2.278-8.95-4.116-12.951-5.914C296.006,494.96,295.644,495.194,294.707,495.452z"/>
	<path fill-rule="evenodd" clip-rule="evenodd" d="M81.571,255.309c4.115,1.829,7.027,4.973,9.447,8.652
		c-0.513,0.363-1.026,0.728-1.539,1.091C87.172,261.537,82.445,259.986,81.571,255.309z"/>
	<path fill-rule="evenodd" clip-rule="evenodd" d="M529.753,403.524c-0.474-3.929,1.746-5.609,4.681-6.464
		c2.885-0.84,5.143,0.392,6.867,2.751c3.447,4.718,3.147,10.97-0.931,15.273c-1.816,1.918-3.77,3.777-5.923,5.289
		c-4.012,2.818-5.582,2.208-8.784-4.084c3.791,3.662,6.698,4.486,9.579,1.01c2.76-3.331,7.46-5.627,6.343-10.988
		c-0.586-2.813-1.107-6.341-4.421-7.226C533.752,398.176,531.277,400.185,529.753,403.524z"/>
</g>
</svg>
