<?xml version="1.0" encoding="utf-8"?>
<!-- Generator: Adobe Illustrator 16.0.0, SVG Export Plug-In . SVG Version: 6.00 Build 0)  -->
<!DOCTYPE svg PUBLIC "-//W3C//DTD SVG 1.1//EN" "http://www.w3.org/Graphics/SVG/1.1/DTD/svg11.dtd">
<svg version="1.1" id="F3qONjyzTsXDbJzQ4u8MDsoMKFS8R9QNDwEXnk6qKXM_xA0_Image_1_"
	 xmlns="http://www.w3.org/2000/svg" xmlns:xlink="http://www.w3.org/1999/xlink" x="0px" y="0px" width="640px" height="960px"
	 viewBox="0 0 640 960" enable-background="new 0 0 640 960" xml:space="preserve">
<g>
	<path fill-rule="evenodd" clip-rule="evenodd" d="M1,223c8.522,3.223,15.858,8.607,23.662,13.119
		c30.857,17.84,61.604,35.872,92.407,53.808c2.004,1.167,3.883,3.078,6.437,0.414c1.053-1.099,2.285,0.837,3.319,1.477
		c20.637,12.78,41.294,25.529,61.82,38.485c25.047,15.81,52.37,28.361,79.802,36.704c12.708,3.865,24.184,10.329,34.988,17.979
		c1.288,0.911,3.597,1.564,1.982,4.169c-1.039,1.675,0.54,2.259,1.735,2.844c17.022,8.324,34.07,16.599,51.04,25.03
		c2.547,1.266,3.157-0.101,3.771-1.876c6.387-18.464,17.907-34.453,25.203-52.5c5.169-12.784,14.151-23.042,23.579-32.864
		c4.613-4.807,9.548-9.311,14.067-14.2c4.637-5.017,10.304-8.29,16.605-10.485c2.457-0.856,3.979-2.168,4.427-4.589
		c1.077-5.82,4.396-10.289,8.459-14.296c7.587-7.482,15.849-14.17,24.679-20.112c2.986-2.009,4.167-3.488,2.031-7.195
		c-4.718-8.188-3.999-8.633,1.898-16.291c2.311-3,3.293-6.619,7.92-6.738c1.507-0.039,0.119-1.183,0.234-1.802
		c0.801-4.307,4.678-6.585,8.721-5.086c1.331,0.494,2.402,1.301,4.057,0.204c1.268-0.84,3.657-1.54,4.701-0.906
		c5.902,3.577,9.779-0.672,14.323-3.018c19.159-9.893,37.007-5.699,53.036,8.164c3.4,2.941,6.286,6.39,8.962,10.011
		c5.744,7.771,6.144,16.565,4.613,25.574c-0.792,4.661-2.303,9.202-3.537,13.785c-0.208,0.775-0.458,1.843-1.033,2.17
		c-7.337,4.174-4.646,11.135-4.902,17.268c-0.049,1.165,0,2.333-0.008,3.5c-0.041,5.521-1.301,6.838-6.695,6.425
		c-2.247-0.172-3.323,0.063-4.441,2.525c-1.127,2.481-3.597,4.872-6.073,6.07c-2.308,1.116-3.095,2.566-3.865,4.622
		c-2.29,6.112-6.738,8.137-13.052,5.737c-2.482-0.943-3.872-0.786-5.738,1.425c-4.683,5.544-11.714,7.905-17.55,11.928
		c-13.989,9.643-13.625,9.536-14.69,26.012c-1.555,24.031-8.227,46.036-26.811,63.07c-9.303,8.525-17.863,17.855-26.885,26.694
		c-5.691,5.576-11.333,11.104-14.473,18.672c-0.645,1.554-1.118,3.668-4.322,2.446c-2.141-0.816-4.206,2.216-4.809,4.146
		c-0.476,1.521,2.282,1.889,3.712,2.376c13.751,4.684,27.89,7.594,42.331,9.131c9.134,0.973,17.708,3.929,25.546,8.604
		c10.445,6.229,22.349,10.018,31.115,19.095c11.458,11.863,11.846,33.201,0.396,45.051c-13.309,13.773-26.623,27.545-40.167,41.084
		c-5.394,5.393-11.299,10.296-17.164,15.19c-15.961,13.319-28.028,30.077-40.988,46.052c-0.609,0.751-1.754,1.427-1.166,2.516
		c1.928,3.57-0.243,6.464-1.703,9.237c-1.606,3.055-1.513,5.734-0.595,8.962c3.916,13.781,12.896,24.361,21.559,35.201
		c4.415,5.525,9.257,10.79,12.236,17.329c2.456,5.392,4.292,10.967,0.116,16.289c-4.57,5.825-10.69,5.658-17.104,3.733
		c-11.01-3.304-20.673-9.349-28.685-17.152c-14.315-13.943-29.797-26.551-44.266-40.279c-4.461-4.232-9.414-8.466-9.817-15.498
		c-0.369-6.432,2.257-11.407,7.454-14.786c5.246-3.411,9.547-7.43,12.759-12.9c1.879-3.2,4.585-6.357,9.164-5.742
		c2.442,0.328,3.044-1.769,4.1-3.046c12.563-15.182,23.3-31.547,31.992-49.265c2.727-5.558,3.53-11.626,5.418-17.398
		c1.273-3.893,2.463-7.792,4.377-11.756c-2.442-0.598-4.138,0.948-5.89,1.726c-9.272,4.119-18.631,7.601-29.073,6.756
		c-8.165-0.661-15.529-4.066-23.15-6.534c-9.891-3.202-9.85-3.4-13.119,6.718c-3.033,9.386-4.927,19.066-7.379,28.601
		c-4.188,16.281-11.911,31.005-21.749,44.521c-2.069,2.843-1.688,5.799-2.647,8.609c-4.364,12.777-12.639,22.719-22.133,31.767
		c-2.737,2.607-4.782,5.312-6.062,8.788c-11.587,31.44-21.674,63.333-30.317,95.727c-1.942,7.281,1.296,12.845,2.25,19.107
		c0.64,4.199,5.195,6.155,9.141,7.564c11.47,4.097,23.03,7.942,34.46,12.145c7.426,2.73,14.204,6.409,16.561,14.931
		c1.521,5.504-0.623,11.194-5.59,13.913c-3.499,1.915-7.292,2.859-11.309,3.146c-15.375,1.098-30.312-1.329-45.106-5.228
		c-9.467-2.495-19.286-2.509-28.935-3.72c-4.433-0.557-8.86-1.137-13.057-2.53c-8.775-2.912-12.078-9.608-8.897-19.383
		c2.21-6.79,3.267-13.75,4.72-20.657c0.35-1.659,0.556-3.831,1.739-4.471c6.371-3.443,5.892-9.934,6.928-15.472
		c2.875-15.368,6.389-30.64,7.669-46.287c0.25-3.046,0.159-6.065-0.358-8.94c-3.256-18.12,3.093-33.76,12.017-48.854
		c5.038-8.521,9.872-17.162,14.752-25.775c5.308-9.365,7.387-19.732,8.226-30.22c2.632-32.917,0.316-65.918,1.191-98.865
		c0.452-16.992,1.753-33.97,8.888-49.867c3.039-6.771,7.506-12.466,12.542-17.766c12.379-13.025,24.825-25.986,37.276-39.007
		c-8.658-4.285-18.497-9.134-28.315-14.021c-4.907-2.443-9.937-4.692-14.628-7.502c-7.567-4.53-16.387-5.908-24.084-10.031
		c-1.166-0.625-2.386-0.699-3.1,0.459c-2.112,3.426-4.672,1.973-7.309,0.915c-9.27-3.718-16.234-10.769-23.95-16.688
		c-12.676-9.725-27.614-15.475-41.042-23.86c-4.734-2.957-9.691-5.555-14.844-8.486c-0.736,2.787,1.029,4.648,1.764,6.574
		c4.791,12.557,10.627,24.755,12.182,38.345c1.345,11.753,1.471,23.489-0.118,35.23c-1.197,8.842-2.558,17.608-7.897,25.157
		c-6.32,8.937-13.91,8.693-19.89-0.605c-4.203-6.536-6.335-13.93-7.375-21.367c-2.588-18.499-1.987-36.988,2.849-55.157
		c0.707-2.656,1.822-5.343,3.345-7.615c4.838-7.219,3.64-15.765,5.527-23.617c0.45-1.872-1.352-2.887-2.814-3.678
		c-8.13-4.396-16.319-8.686-24.41-13.154c-2.761-1.525-3.595-1.155-3.764,2.146c-0.573,11.208,3.925,21.256,6.995,31.6
		c4.685,15.784,6.003,31.806,4.509,48.136c-0.66,7.219-0.894,14.485-3.393,21.423c-1.445,4.013-3.136,8.51-7.828,8.521
		c-4.504,0.01-6.74-4.166-8.293-8.156c-2.002-5.144-2.857-10.561-2.857-15.997c0.001-14.808-0.988-29.679,1.049-44.398
		c1.145-8.272,3.246-16.431,5.231-24.563c1.572-6.442-0.014-12.31-2.206-18.229c-0.728-1.964-2.287-2.712-3.841-3.642
		c-15.136-9.044-30.379-17.967-45.403-27.132C61.495,290.657,30.705,275.313,1,258c0-0.667,0-1.333,0-2
		c2.007-0.195,3.42,1.186,4.961,2.039c26.646,14.77,53.249,29.616,79.889,44.396c1.503,0.834,3.198,2.999,4.869-0.034
		c1.56-2.833-0.706-3.35-2.381-4.277c-19.262-10.676-38.442-21.501-57.82-31.962C20.79,260.911,11.213,255.324,1,251c0-1,0-2,0-3
		c33.978,18.199,67.917,36.471,101.958,54.551c9.31,4.944,9.231,4.552,14.428-4.313c2.13-3.634,1.435-5.26-1.941-7.221
		c-30.863-17.933-61.616-36.054-92.5-53.95C15.729,232.885,9.012,227.748,1,225C1,224.333,1,223.667,1,223z M401.32,514.398
		c-7.132,1.822-13.43,2.765-19.444-0.982c-21.416-13.344-43.476-25.721-62.919-42.009c-1.18-0.988-1.902-1.604-3.219-0.204
		c-9.059,9.634-18.198,18.979-22.022,32.414c-3.801,13.353-5.353,26.912-5.604,40.603c-0.386,21.146-0.031,42.306,0.01,63.461
		c0.032,16.461,0.109,16.224,16.133,21.42c12.177,3.948,24.786,5.219,37.323,6.759c10.734,1.318,10.807,0.808,15.152-9.21
		c0.52-1.197,0.999-2.436,1.302-3.702c5.233-21.854,12.095-43.23,18.948-64.609c0.71-2.211,0.949-4.622,3.204-7.254
		c-0.619,3.521-1.209,6.069-1.492,8.651c-0.563,5.143-5.646,10.956-2.642,14.737c2.762,3.477,9.576,3.602,14.472,5.541
		c12.675,5.022,25.257,5.695,37.907-0.032c14.095-6.382,28.438-12.047,43.689-15.119c2-0.403,3.188-1.965,3.886-3.983
		c5.733-16.57,10.704-33.248,10.052-51.11c-0.334-9.144-0.896-9.893-9.999-10.799c-14.439-1.437-28.717-4.092-42.244-9.297
		c-4.729-1.819-6.773-0.56-9.492,2.548c-6.014,6.872-12.103,13.689-18.418,20.282c-6.093,6.36-11.354,12.985-11.185,22.411
		c0.013,0.684-0.297,1.279-1.393,1.286C391.669,527.775,395.825,521.367,401.32,514.398z M491.569,307.54
		c-6.413-3.632-13.118-6.861-20.496-6.433c-19.78,1.151-37.429,6.548-51.579,22.197c-13.397,14.815-26.764,29.286-34.334,48.137
		c-2.773,6.905-5.966,13.644-9.964,19.953c-4.779,7.542-7.758,15.911-11.276,24.043c-1.337,3.089-0.428,4.229,2.41,5.479
		c9.329,4.115,18.689,8.214,27.738,12.896c16.867,8.729,33.039,18.691,49.078,28.852c2.491,1.578,4.179,1.952,6.459-0.573
		c5.777-6.398,11.429-13.035,17.963-18.6c17.616-15.003,32.269-31.64,35.965-55.618c1.363-8.847,2.797-17.656,3.112-26.65
		c-2.588,6.952-5.005,13.9-9.065,20.117c-7.321,11.209-16.046,14.474-27.478,10.18c-17.01-6.391-28.862-18.429-36.807-34.425
		c-4.266-8.59-5.322-17.655-1.293-26.748c3.004-6.78,8.53-11.344,14.521-15.259c11.041-7.215,22.772-11.923,36.414-9.133
		C485.794,306.54,488.339,308.707,491.569,307.54z M475.152,358.815c2.928-0.271,5.89-0.346,8.776-0.852
		c9.492-1.664,19.505-1.591,27.608-8.062c6.343-5.064,13.244-9.275,20.24-13.368c2.812-1.645,5.682-3.245,7.807-6.004
		c5.007-6.5,5.551-13.564,4.567-21.484c-1.454-11.705-3.01-23.258-9.985-33.17c-5.322-7.563-10.003-15.402-12.699-24.306
		c-0.047-0.155,0.276-0.423,0.429-0.638c1.43,0.137,1.646,1.747,3.029,2.609c0.749-7.732-1.999-13.94-7.017-18.977
		c-4.389-4.407-10.688-5.019-14.604-2.212c1,2.565,5.855,2.739,4.307,7.024c-2.32-2.464-4.745-4.733-6.796-7.302
		c-1.925-2.412-3.854-2.94-6.311-1.043c-2.629,2.031-1.396,4.127,0.119,6.011c1.436,1.783,3.006,3.4,1.923,6.251
		c-0.532-0.979-1.075-1.646-1.279-2.405c-1.291-4.79-4.751-4.012-7.735-2.56c-3.322,1.615-1.843,4.313-0.54,6.723
		c0.889,1.643,2.536,3.257,0.405,5.411c-0.642-2.556-0.864-5.92-3.982-6.039c-2.588-0.1-4.251,5.429-2.907,8.973
		c1.529,4.033,3.573,7.814,6.193,11.263c1.593,2.096,3.733,3.539,6.325,3.303c2.383-0.217,2.112-0.463,3.111,2.144
		c0.871,2.275,0.975,4.53,0.838,6.827c-0.472,7.941-1.344,15.859-0.993,23.839c0.138,3.147,0.694,5.463,5.03,3.401
		c-7.566,6.142-16.087,9.581-24.802,14.601c2.051-3.607,5.54-4,8.008-7.295c-5.231,1.423-9.548,2.386-13.714,3.791
		c-4.088,1.378-7.881,3.468-11.367,6.108c2.778-4.65,7.314-6.674,12.107-8.446c4.71-1.742,9.619-2.53,15.98-3.446
		c-6.071-1.931-10.769-2.972-15.797-2.209c-10.692,1.623-19.894,6.336-28.444,12.823c-9.091,6.896-14.087,18.35-10.544,28.804
		c6.918,20.409,20.401,34.879,41.267,41.512c6.073,1.931,12.246,1.094,17.084-3.763c4.37-4.387,7.479-9.639,9.746-15.389
		c0.176-0.447,0.45-0.996,0.333-1.396c-0.843-2.873-0.868-2.863,0.539-5.656c1.244-2.471,2.479-4.945,3.862-7.704
		C494.964,357.726,485.261,360.832,475.152,358.815z M486.03,562.582c-0.978,0.659-1.455,1.206-2.026,1.334
		c-9.931,2.225-19.638,5.35-29.51,7.699c-8.404,2.002-12.841,6.889-14.524,14.727c-3.188,14.847-10.472,27.892-17.368,41.157
		c-5.79,11.138-15.017,19.709-21.91,30.024c-1.636,2.447-1.415,3.416,0.447,5.176c5.886,5.56,12.57,9.654,20.582,11.101
		c4.824,0.871,9.637,1.642,13.001-3.875c2.652-4.351,6.211-8.159,9.456-12.136c10.299-12.621,20.557-25.355,33.302-35.61
		c20.438-16.444,37.656-36.104,55.641-54.979c9.906-10.397,9.011-29.203-0.343-40.134c-6.647-7.77-16.134-10.75-24.342-15.862
		c-6.597-4.11-13.579-7.583-21.295-9.908c3.423,21.742-2.932,41.615-9.584,61.591C480.732,563.055,482.995,560.997,486.03,562.582z
		 M287.963,624.591c0.101,7.104,0.119,13.233-0.934,19.324c-1.85,10.693-3.207,21.411-8.887,31.11
		c-7.476,12.766-14.726,25.691-21.421,38.879c-4.685,9.229-6.801,19.37-5.277,29.763c1.001,6.829,1.4,13.706,0.35,20.353
		c-2.644,16.721-5.992,33.333-9.288,49.944c-0.446,2.248-0.353,2.726,1.956,3.142c7.806,1.409,15.567,2.979,23.559,2.917
		c3.716-0.029,6.077-1.308,7.04-5.243c2.378-9.722,4.836-19.435,7.629-29.044c7.333-25.23,15.086-50.33,24.276-74.963
		c0.43-1.153,1.835-3.262,0.618-3.555c-4.581-1.104-0.835-2.225-0.07-2.901c2.233-1.974,4.812-3.571,6.963-5.622
		c10.008-9.543,18.47-20.136,22.621-34.116c-1.805,1.012-3.128,1.754-4.451,2.495c7.678-8.772,13.614-18.252,18.447-28.698
		C329.208,636.919,308.154,634.667,287.963,624.591z M367.878,691.915c-0.367,4.418,2.813,8.126,6.176,11.571
		c9.763,10.005,20.847,18.552,31.187,27.925c7.123,6.457,13.171,14.056,21.196,19.56c8.441,5.79,16.713,11.854,27.258,13.276
		c8.709,1.175,14.439-5.34,11.981-13.793c-0.724-2.49-1.792-5.005-3.251-7.131c-3.174-4.623-6.646-9.048-10.098-13.474
		c-5.188-6.652-11.097-12.873-15.071-20.297c-5.079-9.487-12.131-19.021-4.717-30.633c0.712-1.116,1.439-2.853-1.546-2.677
		c-12.028,0.707-22.215-3.665-30.977-11.73c-5.563-5.122-8.168-4.884-12.353,1.69c-3.261,5.124-7.135,9.369-12.374,12.579
		C370.916,681.461,367.997,685.45,367.878,691.915z M389.938,514.197c9.728-0.509,16.177-4.09,21.397-10.084
		c6.293-7.227,12.424-14.6,18.896-21.661c2.32-2.531,1.711-3.294-0.877-4.933c-23.845-15.104-49.004-27.794-74.048-40.704
		c-2.39-1.231-3.741-0.688-5.559,1.143c-8.438,8.498-17.069,16.807-25.632,25.182c-5.982,5.853-6.032,6.044,0.848,10.979
		c18.379,13.181,37.421,25.352,56.842,36.931C384.787,512.825,387.884,514.499,389.938,514.197z M542.956,277.4
		c-1.358-1.703-0.411-2.675-0.203-3.767c0.365-1.913,0.998-4.227-1.287-5.332c-2.656-1.286-5.422-0.531-7.29,1.509
		c-1.542,1.685,0.626,3,1.445,4.415c9.497,16.397,13.292,33.782,8.879,52.522c-0.267,1.128-0.387,1.585,0.792,2.271
		c4.498,2.613,10.009,0.802,11.65-4.166c0.805-2.435,1.853-4.3,4.186-5.774c2.38-1.503,4.808-3.573,6.098-5.991
		c1.501-2.814,3.164-3.501,5.955-2.86c3.469,0.797,4.987-0.655,4.839-4.189c-0.173-4.159-0.185-8.324-0.276-12.487
		c-0.062-2.875-0.113-5.966,2.85-7.409c2.645-1.287,3.326-3.326,3.862-5.856c0.781-3.693,1.947-7.304,2.775-10.989
		c1.962-8.732,1.337-17.016-4.013-24.646c-2.804-3.999-6.134-7.485-9.77-10.607c-16.736-14.373-37.44-16.961-55.865-2.802
		c6.359,6.239,10.673,13.575,9.245,22.687c-0.751,4.791,0.905,8.169,3.043,11.897c1.271,2.216,2.344,2.801,4.657,1.363
		c3.002-1.864,6.539-2.586,9.093,0.344C546.175,270.463,545.357,273.88,542.956,277.4z M277.434,815.33
		c-1.839,6.555-7.074,7.18-12.583,6.61c-7.371-0.762-14.752-1.659-22.024-3.05c-4.385-0.838-6.081,0.997-6.812,4.73
		c-1.58,8.06-3.069,16.117-5.632,23.97c-1.769,5.421,1.197,10.953,6.603,13.367c4.406,1.968,9.176,2.437,13.911,3.066
		c9.979,1.328,20.107,1.485,29.955,3.845c11.379,2.726,22.727,5.683,34.581,5.33c6.745-0.201,13.607,0.483,19.9-2.938
		c4.138-2.25,6.118-6.962,4.913-11.522c-2.021-7.649-8.036-11.077-14.624-13.577c-12.105-4.594-24.623-8.041-36.592-13.047
		c-6.162-2.577-10.511-6.294-10.035-13.66C279.071,817.261,278.998,816.113,277.434,815.33z M494.986,306.739
		c-1.224-4.31-0.754-7.62-1.025-10.883c-0.567-6.824,1.382-13.499,1.009-20.288c-0.086-1.561,0.932-3.856-0.874-4.546
		c-3.811-1.456-7.381-3.151-10.448-5.866c-0.076-0.066-0.741,0.557-1.146,0.836c-10.633,7.341-20.975,15.062-29.616,24.749
		c-2.976,3.336-5.12,7.319-5.396,12.744C463.81,297.296,479.385,297.085,494.986,306.739z M183.607,456.045
		c1.818-2.18,2.694-4.431,3.527-6.759c1.961-5.481,2.461-11.196,3.202-16.916c1.884-14.558-0.843-28.572-4.499-42.502
		c-0.248-0.945-0.54-2.519-1.859-2.611c-1.385-0.098-1.624,1.303-2.084,2.374c-2.956,6.868-4.471,14.043-4.91,21.493
		c-0.579,9.826,1.054,19.503,2.231,29.168C179.848,445.488,180.393,450.995,183.607,456.045z M231.5,356.742
		c0.311-1.534-0.915-1.775-1.713-2.144c-12.142-5.596-24.311-11.132-36.462-16.706c-3.373-1.546-4.513,1.621-4.747,3.225
		c-0.313,2.147-4.393,4.805,0.389,6.987c12.019,5.487,23.92,11.23,35.895,16.816c0.715,0.333,1.705,1.544,2.476,0.088
		C228.799,362.246,230.155,359.427,231.5,356.742z M218.818,368.171c0.152-1.409-1.698-1.577-2.841-2.209
		c-9.082-5.023-18.175-10.029-27.346-14.886c-1.579-0.836-3.69-3.463-5.07-1.481c-1.604,2.3,1.066,4.377,2.659,6.169
		c0.419,0.471,1.119,0.693,1.693,1.025c8.564,4.958,17.228,9.754,25.65,14.942C217.666,374.259,217.806,371.233,218.818,368.171z
		 M180.022,351.721c2.349,8.869,4.792,17.716,6.985,26.623c0.592,2.405,2.003,1.478,3.374,1.537
		c2.587,0.112,1.624-1.908,1.348-2.716C188.705,368.315,185.547,359.508,180.022,351.721z M172.964,394.222
		c-2.578,3.889-3.668,7.963-1.554,13.75C173.04,402.65,174.475,398.62,172.964,394.222z M143.063,366.832
		c5.974-2.073,5.974-2.073,1.404-9.509C143.884,360.658,142.593,363.422,143.063,366.832z M196.008,431.812"/>
</g>
</svg>
