<?xml version="1.0" encoding="utf-8"?>
<!-- Generator: Adobe Illustrator 16.0.0, SVG Export Plug-In . SVG Version: 6.00 Build 0)  -->
<!DOCTYPE svg PUBLIC "-//W3C//DTD SVG 1.1//EN" "http://www.w3.org/Graphics/SVG/1.1/DTD/svg11.dtd">
<svg version="1.1" id="l_x5F_0Tqr9wcyXu60zVUGvl4o8TJfwrywPi6EWA_x5F_kyx9-w_xA0_Image_1_"
	 xmlns="http://www.w3.org/2000/svg" xmlns:xlink="http://www.w3.org/1999/xlink" x="0px" y="0px" width="640px" height="960px"
	 viewBox="0 0 640 960" enable-background="new 0 0 640 960" xml:space="preserve">
<g>
	<path fill-rule="evenodd" clip-rule="evenodd" d="M1,210c41.409,25.011,82.82,50.019,124.223,75.038
		c4.654,2.812,9.192,5.825,13.928,8.491c2.374,1.337,4.529,3.927,7.998,1.649c1.36-0.894,2.977,1.031,4.326,1.9
		c19.565,12.613,39.415,24.815,58.571,38.023c25.919,17.87,54.54,29.661,84.027,39.896c11.412,3.961,21.783,10.183,31.575,17.275
		c0.901,0.652,2.325,2.099,2.125,2.524c-2.161,4.576,1.903,4.896,4.177,6.07c13.173,6.808,26.431,13.45,39.643,20.183
		c2.287,1.165,4.176,2.443,4.451-1.846c0.896-13.931,4.331-27.14,10.548-39.778c7.854-15.966,14.347-32.623,22.629-48.349
		c6.191-11.753,13.582-22.892,19.855-34.671c5.628-10.566,6.508-21.538,5.62-33.124c-1.181-15.415-2.828-30.921-1.476-46.325
		c1.148-13.079,5.612-25.645,9.144-38.299c1.449-5.19,2.602-10.456,4.526-15.542c3.312-8.753,10.618-12.405,18.606-14.932
		c5.469-1.729,9.627,1.849,13.142,5.431c7.338,7.477,14.272,15.349,21.613,22.821c11.073,11.27,17.962,25.264,25.729,38.697
		c3.306,5.719,6.585,11.454,9.781,17.233c1.321,2.389,3.135,4.184,5.335,5.756c4.072,2.908,6.962,3.809,12.381,0.503
		c21.392-13.049,47.472-1.463,52.854,19.475c2.35,9.143,2.265,17.924-2.978,26.205c-2.5,3.948-1.604,8.481-1.185,12.646
		c1.023,10.169,4.625,19.776,7.124,29.626c6.283,24.771,16.527,48.485,19.758,74.061c0.431,3.41,1.186,6.81,2.115,10.122
		c2.401,8.551-0.008,15.815-6.215,21.66c-6.737,6.344-14.137,11.324-24.308,10.366c-4.532-0.426-9.213,0.8-13.832,1.201
		c-12.379,1.074-22.6-3.874-31.618-11.735c-2.092-1.824-4.144-2.519-6.734-2.255c-6.919,0.704-13.933,0.922-20.733,2.236
		c-6.361,1.229-10.657,6.443-15.598,10.235c-7.264,5.575-13.345,12.297-18.941,19.617c-5.536,7.239-14.132,10.871-21.69,15.592
		c-4.14,2.586-7.867,5.432-11.097,9.039c-1.912,2.135-3.387,4.967-7.174,4.188c-1.145-0.235-1.86,1.241-2.429,2.251
		c-1.671,2.97-3.295,5.965-5.186,9.399c25.559,3.936,49.809,10.812,73.536,19.475c11.026,4.026,21.241,9.75,30.051,17.687
		c1.629,1.468,3.433,2.604,5.455,3.393c12.91,5.033,17.896,15.62,20.466,28.284c2.526,12.453,0.409,23.08-10.27,30.933
		c-4.644,3.415-9.642,6.35-14.254,9.804c-23.346,17.485-50.308,29.222-73.81,46.402c-12.011,8.78-23.37,18.447-35.19,27.496
		c-2.184,1.672-0.086,3.291-0.896,4.87c-4.796,9.353-0.748,16.557,4.972,24.131c7.468,9.89,14.818,19.872,22.463,29.633
		c2.67,3.409,4.799,7.247,5.744,11.422c2.147,9.484-7.365,17.594-17.498,15.495c-10.272-2.128-18.54-8.042-26.253-14.391
		c-16.014-13.185-31.562-26.944-47.039-40.762c-4.549-4.061-7.911-9.248-10.424-14.989c-3.604-8.229-0.188-14.373,4.078-18.426
		c5.4-5.13,11.318-9.73,17.16-14.373c3.667-2.915,7.765-5.056,12.713-4.64c1.24,0.104,2.15-0.387,3.119-1.17
		c19.514-15.775,36.608-33.687,49.205-55.577c3.281-5.702,6.8-11.24,12.045-17.228c-6.191,0.467-11.215,0.474-16.104,1.287
		c-11.686,1.944-23.243-0.222-34.836-0.738c-8.245-0.367-16.473-1.5-24.658-2.646c-4.385-0.614-5.312,2.079-6.268,5.199
		c-5.688,18.551-13.375,36.362-20.284,54.458c-2.436,6.379-6.255,12.06-10.985,17.041c-1.072,1.13-1.659,2.364-2.1,3.848
		c-4.606,15.523-14.548,27.245-26.974,37.046c-1.931,1.523-3.244,3.1-4.104,5.272c-13.056,32.995-27.551,65.44-37.782,99.511
		c-2.516,8.381,3.036,20.56,11.172,23.654c11.283,4.292,22.392,8.962,32.804,15.104c6.432,3.795,12.747,7.756,15.275,15.539
		c2.187,6.73-0.343,12.422-7.14,14.36c-11.893,3.393-23.851,2.644-35.805,0.057c-17.184-3.718-34.389-7.343-51.591-10.979
		c-3.108-0.657-5.984-1.918-8.721-3.423c-7.887-4.34-10.693-12.054-7.946-20.679c1.792-5.629,3.41-11.325,4.807-17.064
		c1.115-4.582,2.06-9.014,7.207-10.953c1.693-0.638,1.476-2.741,1.997-4.192c3.733-10.408,5.864-21.194,7.563-32.096
		c2.111-13.546,4.811-27.067,5.288-40.756c0.363-10.424,3.228-19.684,8.226-28.606c6.057-10.812,12.394-21.495,19.796-31.386
		c9.476-12.661,12.296-26.973,13.269-42.203c0.823-12.882,2.585-25.7,3.672-38.568c0.936-11.075,1.425-22.188,2.254-33.273
		c1.291-17.277,1.247-34.598,5.569-51.679c4.63-18.295,15.501-31.8,29.112-43.771c7.478-6.576,15.036-13.062,22.602-19.54
		c2.094-1.793,2.208-2.673-0.584-4.091c-16.916-8.599-33.64-17.579-50.613-26.062c-5.088-2.542-10.851-3.681-15.891-6.517
		c-0.96-0.54-2.432-1.038-3.053,0.372c-1.848,4.203-4.536,1.983-6.998,1.022c-8.674-3.384-15.107-10.012-22.116-15.716
		c-13.475-10.967-29.563-17.541-44.024-26.83c-3.994-2.564-8.171-4.843-12.202-7.217c-1.385,1.282-0.648,2.248-0.265,3.321
		c4.299,12.032,9.852,23.679,11.876,36.425c1.748,11.005,2.156,22.035,0.89,33.203c-0.877,7.733-1.928,15.373-4.43,22.714
		c-1.756,5.152-4,10.225-8.756,13.461c-5.411,3.682-10.555,2.462-14.499-3.213c-5.226-7.521-7.236-16.2-8.562-24.996
		c-2.552-16.924-0.737-33.662,2.928-50.259c0.821-3.719,1.996-7.317,4.238-10.438c5.291-7.364,3.986-16.394,6.275-24.512
		c0.357-1.266-0.759-1.785-1.565-2.244c-9.429-5.375-18.885-10.702-28.389-16.074c-2.939,11.044,0.759,20.935,4.062,30.372
		c6.253,17.871,5.848,36.134,5.229,54.459c-0.23,6.831-1.32,13.742-3.741,20.327c-0.822,2.233-1.936,4.216-3.457,5.89
		c-2.617,2.879-5.47,3.17-8.616,0.412c-3.913-3.431-5.188-8.175-5.822-12.793c-1.47-10.717-0.963-21.529-0.888-32.35
		c0.119-17.064,5.295-33.151,7.67-49.745c1.186-8.283-0.423-15.906-9.331-20.825c-14.156-7.817-27.747-16.708-41.452-25.275
		C77.181,289.522,38.566,269.179,1,247c0-0.667,0-1.333,0-2c9.566,5.225,19.219,10.299,28.683,15.702
		c26.481,15.121,52.875,30.396,79.35,45.528c1.364,0.779,2.988,3.404,4.819,0.229c1.842-3.194-0.917-3.504-2.626-4.527
		C84.26,285.784,56.76,270.576,29.265,255.36C19.883,250.168,10.424,245.116,1,240c0-1,0-2,0-3c5.777,3.214,11.6,6.352,17.325,9.655
		c35.322,20.382,71.072,39.995,106.844,59.565c10.289,5.629,10.264,5.409,16.13-4.73c1.481-2.561,1.528-3.729-1.188-5.339
		c-12.524-7.422-24.899-15.095-37.356-22.632C68.844,253.001,34.919,232.505,1,212C1,211.333,1,210.667,1,210z M545.947,346.665
		c-2.485,4.102-4.766,7.724-6.899,11.432c-1.755,3.051-4.767,4.857-7.776,4.639c-9.969-0.725-19.103-3.521-25.106-12.584
		c-5.69-8.589-7.524-18.25-8.084-28.2c-0.381-6.784-0.555-13.668,1.032-20.354c0.622-2.618-1.583-2.452-2.547-3.503
		c-1.217-1.326-1.5,0.083-1.979,0.77c-7.012,10.071-17.062,16.022-28.221,20.163c-7.981,2.961-15.201,7.06-22.018,12.059
		c-2.105,1.544-4.495,2.713-6.801,3.97c-5.442,2.966-10.173,1.428-14.442-2.464c-1.599-1.457-3.47-2.828-4.512-4.644
		c-2.848-4.966-4.113-2.396-5.922,0.767c-5.912,10.335-10.128,21.452-15.086,32.224c-7.826,16.999-17.1,33.392-19.415,52.557
		c-1.162,9.623-1.53,10.108,6.984,14.456c11.212,5.726,22.945,10.489,33.557,17.33c15.259,9.837,30.342,19.946,45.498,29.942
		c1.633,1.078,3.17,2.719,5.354,1.303c7.621-4.941,16.544-8.444,22.049-15.882c7.945-10.735,18.035-18.934,28.511-26.826
		c1.356-1.021,2.301-1.905,1.706-3.612c-1.17-3.358-0.022-6.567,0.819-9.678c4.344-16.05,10.708-31.416,16.149-47.096
		c1.414-4.073,2.788-8.161,5.715-11.427C550.261,355.595,550.301,355.63,545.947,346.665z M402.75,507.916
		c-17.892,1.215-30.726-6.473-42.57-17.016c-5.557-4.946-10.772-10.34-17.027-14.514c-1.593-1.062-2.684-1.82-4.093,0.034
		c-5.476,7.207-14.277,11.853-15.05,22.672c-0.41,5.74-2.382,11.504-3.294,17.37c-2.149,13.819-0.472,26.727,7.413,38.489
		c7.967,11.885,17.119,22.429,32.009,25.603c12.267,2.614,24.703,4.114,37.161,5.617c14.996,1.809,30.013,3.178,45.082,3.742
		c11.959,0.448,23.841-2.928,35.654-2.512c9.632,0.339,13.858-3.263,15.84-11.656c0.148-0.631,0.45-1.227,0.686-1.837
		c5.981-15.48,11.688-31.043,15.123-47.345c0.792-3.76,0.41-6.092-3.948-7.249c-10.626-2.821-21.104-6.197-31.696-9.15
		c-18.878-5.263-38.06-6.568-57.52-4.169c-6.751,0.832-12.672,2.838-17.395,8.219c-3.774,4.301-8.227,8.013-11.95,12.436
		C390.678,519.587,396.168,514.177,402.75,507.916z M521.266,284.191c2.611-3.64,2.552-3.613,0.924-7.339
		c-0.37-0.847-0.446-2.026-0.184-2.912c1.814-6.109,2.666-12.558,6.762-17.857c1.979-2.56,4.808-4.256,7.225-2.787
		c2.886,1.754,3.447,0.105,4.656-1.443c1.427-1.826,2.826-3.677,4.325-5.442c1.678-1.976,1.567-3.206-1.036-4.311
		c-5.914-2.51-9.531-7.234-12.349-12.892c-13.821-27.761-31.149-52.991-54.126-74.071c-3.183-2.92-6.54-6.364-11.258-5.003
		c-8.298,2.394-15.646,6.312-18.2,15.604c-1.652,6.011-2.936,12.157-5.057,17.999c-9.409,25.919-8.858,52.521-6.209,79.377
		c1.114,11.297,0.615,22.478-5.308,32.786c-3.616,6.294-6.669,12.91-10.201,19.256c-4.521,8.121-4.625,8.071,1.919,14.716
		c0.814,0.827,1.672,1.628,2.593,2.332c3.093,2.363,6.487,3.248,10.122,1.441c2.503-1.243,4.969-2.624,7.261-4.217
		c6.26-4.35,12.487-8.806,19.792-11.207c6.003-1.973,11.498-4.807,16.818-8.143c9.405-5.898,15.433-13.079,14.504-25.422
		c-0.884-11.759-2.979-22.868-8.684-33.188c-2.796-5.058-2.923-10.24-1.961-15.849c1.959-11.424,1.871-22.678-5.174-32.755
		c-0.559-0.798-1.03-1.679,0.34-2.698c4.143,4.944,6.335,10.661,7.213,16.925c0.417,2.974,0.81,5.765,3.258,8.009
		c8.229,7.545,15.982,15.57,23.661,23.676c2.396,2.529,3.248,4.791,2.647,8.376C513.949,266.656,514.695,275.885,521.266,284.191z
		 M535.983,587.98c-1.701,0.227-2.675,0.514-3.63,0.461c-17.334-0.972-34.636,0.989-51.959,0.522
		c-4.514-0.122-7.617,1.296-10.452,5.17c-6.171,8.431-10.938,17.723-16.908,26.238c-12.097,17.258-26.749,32.095-43.399,44.989
		c-1.276,0.988-3.487,1.465-1.853,4.141c4.812,7.877,10.132,15.076,19.219,18.551c3.895,1.488,7.346,1.359,10.661-1.275
		c2.98-2.368,6.025-4.654,9.046-6.972c13.523-10.378,26.004-22.102,40.732-30.929c23.648-14.172,47.751-27.62,70.154-43.798
		c7.004-5.058,14.325-9.806,16.019-19.181c0.982-5.445,0.676-10.956-0.711-16.288c-2.831-10.881-7.496-20.41-19.042-24.702
		c-2.591-0.964-4.875-2.641-7.046-4.508c-9.367-8.058-20.077-13.785-31.73-17.835c-1.779-0.618-2.711-0.762-3.095,1.479
		c-3.519,20.571-11.155,39.833-19.095,58.969c-1.58,3.81-0.407,4.183,2.927,3.899c11.303-0.958,22.635-0.94,33.964-0.659
		C531.648,586.3,533.761,585.661,535.983,587.98z M346.382,673.709c8.844-7.777,16.091-16.362,20.588-26.879
		c-21.444-2.528-41.417-8.981-60.441-18.514c-2.46,6.151-1.443,12.536-2.376,18.691c-1.445,9.533-3.265,18.74-8.787,26.909
		c-5.256,7.774-10.398,15.634-15.354,23.604c-6.34,10.197-13.406,20.179-15.366,32.354c-1.156,7.178-0.58,14.641-1.809,21.8
		c-3.608,21.026-4.958,42.53-12.717,62.725c-0.69,1.796-0.871,3.243,2.036,3.733c5.652,0.952,11.154,2.783,16.801,3.779
		c10.764,1.898,11.872,1.009,15.066-9.438c2.357-7.71,4.688-15.443,7.462-23.009c9.173-25.015,19.221-49.69,29.197-74.394
		c0.448-1.109,1.759-2.269,0.961-3.608c-0.826-1.39-2.138,1.444-3.176-0.086c14.587-10.724,27.599-22.676,34.559-40.547
		C350.121,671.356,349.366,674.399,346.382,673.709z M599.891,290.862c-0.598-0.46-1.194-0.92-1.791-1.379
		c-7.014,7.501-14.136,14.904-21.007,22.532c-5.729,6.358-12.408,11.543-19.706,15.789c-3.422,1.991-1.467,2.808,0.026,3.887
		c1.009,0.729,2.39,1.009,3.646,1.319c5.575,1.377,11.202,2.564,16.729,4.107c1.622,0.453,4.214,0.155,4.217,3.155
		c0.004,4.482,0.866,8.896,1.121,13.38c0.823,14.481-0.527,28.928-0.24,43.396c0.078,3.979,2.005,7.707,1.384,13.073
		c-2.891-5.089-3.664-9.403-3.18-13.741c0.574-5.136-2.122-6.382-6.316-6.356c-2.308,0.014-4.586,0.16-6.912,0.527
		c-3.757,0.594-7.172,2.392-10.975,2.646c6.512-5.028,14.132-5.604,22.858-4.945c-8.312-8.446-18.588-11.367-27.197-15.276
		c2.967-5.573-1.06-9.408-1.86-13.856c-8.5,6.008-10.261,15.19-13.088,23.684c-4.767,14.319-11.272,28.069-14.052,43.053
		c-0.642,3.462,0.218,4.644,3.729,4.247c7.67-0.863,15.358-1.56,23.151-2.336c-0.453-2.057-2.729-3.172-2.137-5.453
		c1.761,0.653,2.429,2.255,3.444,3.482c6.646,8.03,15.013,13.47,25.139,15.759c7.746,1.752,15.551-1.411,23.26-0.787
		c10.391,0.841,17.757-4.129,24.402-10.885c4.957-5.039,6.562-11.212,4.837-18.21c-0.944-3.825-1.835-7.691-2.345-11.593
		c-3.211-24.583-12.967-47.428-19.107-71.236C604.675,316.25,600.159,304.057,599.891,290.862z M529.901,270.854
		c0.349,4.291-1.781,7.455-3.83,10.291c-5.683,7.867-7.635,15.981-6.299,25.927c3.03,22.559,23.635,25.521,39.696,16.888
		c6.431-3.456,11.799-8.535,16.864-13.87c5.036-5.304,10.591-10.098,15.852-15.164c9.188-8.85,15.89-18.815,12.979-32.927
		c-2.645-12.816-9.903-21.024-22.004-24.971c-12.604-4.109-24.173-1.76-33.935,7.353c-4.983,4.652-8.492,10.566-12.023,16.369
		c-0.919,1.508-1.464,3.253-4.025,3.143c0.597-1.198,1.052-2.027,1.431-2.891c0.827-1.886,2.833-4.349,0.515-5.69
		c-2.272-1.314-3.838,1.117-5.429,3.029c-3.703,4.453-3.34,10.257-5.667,15.122c-0.495,1.033-0.495,2.541,0.714,3.089
		c1.424,0.646,1.826-0.833,2.475-1.764C528.047,273.591,527.979,271.852,529.901,270.854z M320.475,502.841
		c-4.967,12.681-8.058,25.83-8.336,39.358c-0.294,14.296-1.587,28.514-2.36,42.767c-0.708,13.035-2.393,26.02-3.72,39.019
		c-0.227,2.215,1.209,2.831,2.729,3.577c16.935,8.307,34.927,13.348,53.304,17.143c3.61,0.746,6.464-0.61,7.793-4.347
		c1.646-4.627,3.213-9.285,4.982-13.864c4.669-12.085,9.633-24.061,13.229-36.534c0.375-1.301,1.874-2.688-1.049-2.992
		c-4.914-0.511-9.838-1.097-14.688-2.021c-9.163-1.746-18.621-2.634-26.595-8.263c-5.743-4.055-10.797-8.828-15.014-14.45
		c-7.651-10.201-13.215-21.09-12.85-34.416C318.134,519.39,319.176,511.127,320.475,502.841z M438.287,689.04
		c-6.542,4.184-12.368,1.278-18.075-2.234c-6.412-3.947-11.056-9.803-13.935-16.394c-2.446-5.601-4.962-3.921-8.318-2.001
		c-1.286,0.735-2.61,1.462-3.739,2.405c-5.591,4.673-11.348,9.181-16.607,14.206c-4.717,4.507-5.749,10.063-2.912,16.256
		c2.233,4.873,5.228,9.215,9.023,12.862c15.314,14.719,31.801,28.122,48.048,41.769c7.255,6.094,15.223,11.601,24.86,13.741
		c8.886,1.973,17.204-5.152,15.231-13.396c-0.867-3.619-2.788-7.014-5.134-9.995c-8.271-10.516-16.224-21.264-24.144-32.046
		c-4.92-6.697-8.537-13.232-4.594-21.671C438.399,691.672,439.488,690.591,438.287,689.04z M284.609,817.687
		c-3.296,6.863-4.585,7.235-12.094,6.521c-7.422-0.706-14.486-2.926-21.743-4.3c-6.158-1.166-7.105-0.707-8.759,5.606
		c-1.663,6.346-3.233,12.721-5.12,19c-2.408,8.014-0.439,13.979,6.668,18.18c2.369,1.4,4.994,2.64,7.662,3.218
		c20.547,4.456,41.04,9.279,61.752,12.796c8.468,1.438,17.563,1.323,26.053-1.772c5.057-1.844,6.948-6.367,5.333-11.604
		c-1.569-5.089-5.314-8.32-9.387-11.178c-12.079-8.477-25.768-13.701-39.353-19.103c-4.71-1.873-8.089-4.52-9.023-10.089
		C286.22,822.707,287.039,819.856,284.609,817.687z M434.773,503.1c5.754,1.536,10.937-0.895,12.996-8.705
		c0.042-0.16,0.07-0.354,0.176-0.462c3.575-3.653,2.316-5.639-1.757-8.231c-22.407-14.261-44.942-28.274-68.726-40.168
		c-1.369-0.685-2.531-2.235-4.262-0.28c-8.521,9.629-19.036,17.066-28.499,25.665c-1.831,1.664-1.989,2.821,0.04,4.246
		c7.501,5.269,13.651,12.121,20.796,17.799c10.48,8.328,21.906,14.081,35.881,13.079C411.967,505.285,422.315,502.533,434.773,503.1
		z M509.154,299.579c-3.168,1.422-7.222-1.831-8.067,2.979c-2.03,11.545-1.799,23.141,1.321,34.444
		c3.635,13.167,11.388,22.07,26.017,23.422c2.476,0.229,4.967,0.545,6.518-1.066c4.371-4.541,7.589-9.927,9.777-15.884
		c0.418-1.139-0.185-2.105-0.822-2.704c-1.106-1.04-2.076,0.191-2.862,0.782c-1.765,1.325-3.402,2.807-6.558,3.552
		c5.702-5.497,12.071-8.885,16.409-15.117c-9.908-0.101-19.561,1.572-26.719-7.184c-6.489-7.937-5.865-17.675-7.699-27.07
		c-2.065,2.198-3.899,4.078-5.649,6.032c-1.755,1.96-3.426,3.994-5.515,6.443C505.079,304.42,508.176,303.151,509.154,299.579z
		 M487.266,226.512c-2.503,5.967-3.506,17.596-0.948,21.981c7.829,13.427,10.515,27.893,9.666,43.19
		c-0.239,4.314,2.252,5.79,5.971,6.325c7.13,1.026,12.417-1.51,16.287-7.639c1.396-2.211,1.978-3.907,0.424-6.178
		c-5.869-8.573-6.803-18.065-4.952-28.013c0.357-1.919,0.243-3.589-1.242-5.036C504.046,242.933,495.641,234.701,487.266,226.512z
		 M580.613,386.368c1.113-15.239,1.26-29.291-0.453-43.337c-0.307-2.516-1.068-3.523-3.718-4.199
		c-6.66-1.7-13.573-2.449-19.984-5.165c-1.4-0.593-2.468-4.272-4.517-1.023c-1.886,2.991-7.446,3.613-5.22,9.369
		c3.601,9.309,7.449,18.582,9.328,28.466c0.378,1.987,1.904,2.688,3.379,3.253C566.952,376.612,574.129,380.071,580.613,386.368z
		 M205.5,392.217c-8.411,14.158-8.779,59.265-0.764,68.35C215.018,450.225,213.692,402.74,205.5,392.217z M254.018,362.672
		c-0.21-1.87-1.953-2.021-3.152-2.597c-11.308-5.433-22.691-10.71-33.941-16.258c-2.594-1.279-4.742-1.488-5.421,1.42
		c-0.639,2.732-5.011,5.981,0.385,8.59c11.744,5.676,23.457,11.414,35.196,17.1c0.777,0.376,1.759,1.517,2.515,0.191
		C251.152,368.399,252.515,365.573,254.018,362.672z M207.108,354.118c-1.483,0.373-2.011,1-1.33,2.471
		c1.044,2.253,2.08,4.327,4.422,5.686c8.426,4.884,16.726,9.985,25.142,14.886c1.279,0.745,2.896,3.193,4.4,0.575
		c1.167-2.031,2.166-4.1-1.314-5.929c-10.05-5.283-19.824-11.092-29.705-16.699C208.158,354.786,207.612,354.428,207.108,354.118z
		 M202.494,357.302c2.159,8.412,4.551,16.776,6.343,25.267c0.578,2.74,1.818,3.563,3.9,2.973c2.21-0.628,1.24-2.844,0.78-4.133
		C210.548,373.085,207.75,364.676,202.494,357.302z M167.316,362.072c-1.579,3.157-2.106,6.228-2.288,9.496
		C170.6,369.956,170.6,369.956,167.316,362.072z M163.583,393.764c-2.992,5.334-0.493,10.507-1.135,15.464
		C162.508,404.23,165.272,399.418,163.583,393.764z"/>
</g>
</svg>
