<?xml version="1.0" encoding="utf-8"?>
<!-- Generator: Adobe Illustrator 16.0.0, SVG Export Plug-In . SVG Version: 6.00 Build 0)  -->
<!DOCTYPE svg PUBLIC "-//W3C//DTD SVG 1.1//EN" "http://www.w3.org/Graphics/SVG/1.1/DTD/svg11.dtd">
<svg version="1.1" id="_x35_LAlV_x5F_w7GE_x5F_IzPVIRTgHU9Z-0Rv3tVbThOV1zXCyIuU_xA0_Image_1_"
	 xmlns="http://www.w3.org/2000/svg" xmlns:xlink="http://www.w3.org/1999/xlink" x="0px" y="0px" width="640px" height="960px"
	 viewBox="0 0 640 960" enable-background="new 0 0 640 960" xml:space="preserve">
<g>
	<path fill-rule="evenodd" clip-rule="evenodd" d="M1,176c11.245,6.336,21.406,14.29,31.999,21.588
		c41.634,28.685,83.123,57.581,124.704,86.342c1.744,1.206,3.441,3.041,6.193,1.254c1.517-0.985,3.098,0.869,4.355,1.792
		c19.318,14.193,38.711,28.29,57.818,42.764c21.797,16.51,51.749,33.072,76.294,42.453c12.738,4.869,23.949,12.617,34.516,21.216
		c0.717,0.584,1.827,1.888,1.643,2.199c-3.015,5.087,1.974,5.25,4.236,6.624c12.413,7.538,24.938,14.891,37.449,22.266
		c4.551,2.683,5,2.526,4.747-2.558c-0.799-16.057,3.109-31.511,5.675-47.148c1.603-9.768,2.435-19.683,4.449-29.357
		c4.762-22.861,13.449-43.79,31.687-59.555c0.851-0.735,1.72-1.246,1.46-2.801c-2.22-13.271,3.597-23.752,11.658-33.521
		c3.046-3.69,5.538-7.832,8.449-11.641c2.23-2.919,1.312-4.939-1.25-6.969c-7.169-5.678-5.812-7.512-4.397-15.897
		c0.996-5.908,7.321-8.259,6.513-14.251c-0.104-0.772,1.258-1.839,2.082-2.62c1.519-1.438,14.147-5.547,16.104-4.947
		c1.935,0.593,3.15,0.302,4.114-1.423c13.047-23.359,43.739-24.146,64.557-11.302c16.573,10.227,18.989,25.435,17.895,42.585
		c-5.289,6.465-0.312,12.357,1.177,18.352c1.857,7.478,1.568,8.445-5.475,10.538c-0.891,0.264-1.609,0.438-1.597,1.466
		c0.059,4.839-2.875,8.205-5.533,11.786c-0.687,0.925-0.559,2.541-0.596,3.846c-0.198,7.133-1.798,9.041-8.758,8.82
		c-4.069-0.13-6.06,0.942-7.358,5.097c-2.344,7.493-8.717,12.409-13.67,18.071c-5.692,6.508-7.309,12.304-4.719,21.162
		c4.582,15.675,6.647,32.031,5.564,48.538c-0.385,5.858-2.543,11.331-5.512,16.211c-9.387,15.43-15.65,32.255-22.447,48.84
		c-5.3,12.931-12.16,25.187-16.312,38.63c-1.11,3.594-1.029,6.014,2.196,7.896c2.33,1.359,2.391,2.666,0.649,4.657
		c-9.228,10.552-11.415,23.669-13.406,36.896c-2.686,17.835-9.727,34.343-15.75,51.178c-9.631,26.917-25.261,50.315-42.191,72.952
		c-3.16,4.226-7.054,8.104-11.253,11.296c-4.821,3.665-7.377,8.186-9.762,13.685c-5.109,11.782-12.359,22.372-23.931,28.946
		c-5.29,3.006-8.82,7.202-11.618,12.464c-14.731,27.698-29.639,55.304-44.366,83.004c-1.756,3.303-5.909,6.825-4.723,9.83
		c1.306,3.307,6.75,3.349,10.417,4.635c10.225,3.585,20.542,6.912,31.396,8.188c2.759,0.324,5.096,1.904,6.117,4.521
		c1.681,4.31,2.8,8.807,2.773,13.492c-0.019,3.297-2.358,4.877-4.803,6.429c-1.655,1.05-3.846,1.168-5.226,3.046
		c2.155,0.906,4.254,1.715,6.291,2.656c5.494,2.541,7.26,7.283,7.474,12.9c0.2,5.268-2.518,8.745-6.95,11.08
		c-9.827,5.178-20.543,6.986-31.425,7.752c-19.614,1.38-37.58-5.556-55.731-11.491c-7.207-2.356-14.506-4.335-20.073-10.063
		c-4.361-4.488-5.943-9.522-3.444-15.283c1.382-3.187,1.784-5.711-0.734-8.53c-1.847-2.067-1.826-4.504-0.911-7.404
		c2.117-6.712,3.442-13.668,5.304-20.466c1.579-5.765,3.433-11.459,9.909-13.769c1.421-0.507,1.5-2.026,2.17-3.095
		c7.835-12.498,11.624-26.49,14.848-40.66c2.805-12.329,5.464-24.691,8.048-37.068c3.337-15.979,12.652-28.277,23.283-40.139
		c11.191-12.487,22.628-25.087,26.456-42.288c2.423-10.892,4.602-21.841,7.234-32.682c4.225-17.396,8.938-34.698,11.741-52.383
		c2.011-12.68,3.021-25.502,6.933-37.845c5.896-18.604,16.214-34.954,25.947-51.612c0.417-0.713,0.853-1.423,1.352-2.08
		c2.525-3.328,1.923-5.258-1.926-7.478c-15.15-8.738-30.022-17.956-45.061-26.891c-5.524-3.282-11.969-4.725-17.327-8.406
		c-0.856-0.588-2.084-0.622-2.708,0.316c-2.498,3.761-5.03,1.371-7.67,0.252c-6.284-2.662-11.04-7.485-15.597-12.138
		c-11.871-12.119-26.63-20.088-40.387-29.508c-6.516-4.462-13.087-8.842-20.254-13.677c2.353,8.202,4.143,15.797,6.713,23.118
		c5.367,15.283,4.868,30.862,3.417,46.613c-0.867,9.405-2.816,18.527-6.373,27.229c-1.995,4.88-4.413,9.675-9.188,12.685
		c-4.812,3.033-9.105,2.552-12.89-1.618c-4.751-5.235-6.578-11.851-7.578-18.472c-3.059-20.256-1.004-40.211,4.965-59.752
		c1.298-4.249,2.888-8.545,6.578-11.465c1.985-1.571,1.37-3.968,2.076-5.915c1.22-3.364,1.062-7.266,2.467-10.517
		c2.386-5.523,0.59-8.457-4.334-11.23c-6.896-3.884-13.358-8.537-20.038-12.812c-2.276-1.457-3.193-1.898-4.129,1.898
		c-2.172,8.821,1.368,16.685,2.891,24.814c2.13,11.367,5.191,22.624,4.314,34.277c-1.062,14.109-1.578,28.36-6.868,41.806
		c-1.584,4.026-3.833,8.328-8.229,8.354c-4.796,0.029-6.611-4.513-7.979-8.84c-2.413-7.631-2.34-15.459-1.619-23.17
		c1.031-11.023,2.008-22.062,3.646-33.042c1.207-8.091,4.486-15.47,6.546-23.248c1.178-4.448,3.077-8.773,2.554-13.498
		c-0.704-6.36-1.864-11.861-8.304-16.04c-13.566-8.805-26.559-18.529-39.773-27.881C89.423,271.51,46.172,244.882,4.037,216.56
		C3.099,215.929,2.016,215.515,1,215c0-1,0-2,0-3c16.114,10.484,32.273,20.899,48.331,31.469
		c25.635,16.873,51.193,33.862,76.828,50.735c1.197,0.788,2.606,3.237,4.332,0.257c1.297-2.24,0.209-3.2-1.539-4.344
		c-18.438-12.068-36.781-24.285-55.265-36.284C49.512,238.139,25.234,222.604,1,207c0-0.667,0-1.333,0-2
		c1.918-0.304,3.023,1.224,4.348,2.082c26.097,16.917,52.096,33.986,78.241,50.828c20.602,13.271,41.366,26.29,62.076,39.392
		c5.239,3.314,6.012,3.101,9.663-2.112c0.38-0.543,0.76-1.085,1.131-1.634c3.793-5.606,3.815-5.64-1.976-9.663
		c-38.697-26.886-77.347-53.84-116.143-80.582C25.961,194.778,13.924,185.73,1,178C1,177.333,1,176.667,1,176z M359.732,489.989
		c-0.973,2.787-1.91,5.327-2.748,7.898c-4.057,12.442-5.223,25.403-7.222,38.251c-3.819,24.54-8.536,48.938-12.678,73.43
		c-0.651,3.855-3.581,8.147-1.544,11.445c2.051,3.321,7.126,3.686,10.723,5.655c0.428,0.233,0.906,0.371,1.354,0.57
		c14.871,6.6,29.607,13.553,45.579,17.251c3.135,0.726,6.289,1.451,8.539-1.764c11.338-16.2,23.283-32.058,31.206-50.341
		c11.452-26.426,22.01-53.151,25.748-82.032c0.315-2.441-0.151-3.148-2.295-3.748c-15.959-4.463-31.878-9.08-48.084-12.597
		c-15.545-3.374-31.568-5.142-45.732-13.19c-2.31-1.312-2.601,0.309-3.184,1.428c-6.151,11.814-11.648,23.855-14.483,37.014
		c-2.433,11.292-3.348,22.793-5.364,34.137c-3.278,18.443-8.781,36.363-12.646,54.667c-0.724,3.424,2.097,8.416,5.207,8.236
		c3.508-0.202,1.302-4.071,2.836-5.753c0.171-0.188,0.005-0.653,0.062-0.979c2.615-14.737,5.317-29.46,7.837-44.215
		c2.159-12.65,4.492-25.291,6.04-38.021c1.396-11.488,3.727-22.699,7.34-33.65C356.68,492.299,356.94,490.024,359.732,489.989z
		 M465.472,478.199c3.772-14.361,10.763-26.918,16.41-40.025c7.549-17.517,13.637-35.667,23.881-52.013
		c3.515-5.607,5.603-12.239,5.549-19.244c-0.08-10.299-1.043-20.509-2.836-30.632c-0.988-5.577-1.617-11.274-4.126-16.531
		c0.072,6.812,0.062,13.56-1.36,20.236c-3.533,16.584-16.99,24.688-33.523,20.171c-14.252-3.893-25.984-12.072-36.591-21.923
		c-5.773-5.362-9.238-12.519-8.662-20.376c0.792-10.795,5.393-20.354,12.813-28.364c9.771-10.548,22.498-14.446,36.873-15.807
		c-2.868-2.21-5.737-2.631-8.645-2.67c-15.495-0.209-27.229,7.844-38.262,17.471c-17.286,15.084-25.203,35.173-29.881,56.793
		c-2.087,9.648-2.743,19.598-4.408,29.35c-2.807,16.434-6.705,32.705-5.812,49.596c0.154,2.918,0.627,4.693,3.382,6.154
		c9.026,4.789,17.974,9.742,26.796,14.9C433.767,455.047,449.215,466.675,465.472,478.199z M397.806,647.47
		c-2.239-0.465-3.687-0.722-5.112-1.067c-19.134-4.635-36.787-13.062-54.455-21.415c-3.149-1.488-4.536-1.683-5.323,2.415
		c-5.087,26.49-15.565,49.983-35.579,69.133c-14.329,13.711-22.902,30.969-25.458,51.172c-2.905,22.956-8.806,45.159-20.735,65.328
		c-1.876,3.172-1.008,5.273,1.762,7.113c5.286,3.513,11.201,5.6,17.333,6.735c6.192,1.147,13.372-3.054,16.104-8.685
		c1.731-3.567,3.328-7.206,5.172-10.714c16.308-31.017,33.779-61.41,49.557-92.711c3.101-6.151,7.108-11.433,13.422-14.815
		c10.873-5.826,16.641-16.174,22.541-26.33c1.062-1.829,1.683-3.848,1.816-6.092c-1.973,0.532-3.247,2.418-5.723,1.875
		C381.877,662.611,390.669,656.409,397.806,647.47z M467.191,277.135c-0.82-0.055-1.444-0.151-2.062-0.123
		c-0.824,0.038-1.666,0.085-2.463,0.279c-17.226,4.218-28.737,14.729-34.624,31.447c-3.126,8.875-2.609,17.418,3.572,24.709
		c10.749,12.678,24.397,21.472,40.467,25.307c13.079,3.12,23.266-2.862,27.33-13.968c3.428-9.368,3.248-19.012,2.236-29.515
		c-6.005,6.477-12.917,9.598-21.758,10.964c0.951-1.142,1.112-1.503,1.382-1.624c0.591-0.267,1.231-0.433,1.862-0.604
		c7.172-1.944,13.384-5.284,17.878-11.494c3.789-5.234,7.775-10.333,11.845-15.354c4.15-5.124,9.353-9.442,11.605-15.968
		c1.887-5.466,4.107-10.949,1.645-16.726c-5.711-13.391-13.532-25.239-24.77-34.819c-5.642-4.811-11.776-9.267-15.876-15.696
		c-0.554-0.87-2.318-2.259-0.891-2.691c3.967-1.202,1.133-3.436,0.593-4.37c-3.741-6.466-9.163-10.83-16.822-11.742
		c-2.421-0.288-5.519-1.045-6.831,1.521c-1.105,2.16,2.279,2.803,3.082,4.545c0.198,0.431,0.267,0.611-0.402,0.778
		c-1.646,0.055-2.697-1.315-4.029-2.256c-3.601-2.541-7.413-2.042-8.885,1.305c-1.642,3.732,1.274,4.778,3.896,6.048
		c1.481,0.718,4.064,1.209,2.069,4.185c-0.674-0.561-1.334-1.031-1.901-1.596c-2.678-2.669-5.729-3.588-8.614-0.747
		c-3.123,3.074-0.986,5.709,1.514,7.945c2.616,2.34,4.451,5.093,5.717,9.505c-3.575-2.523-4.068-6.159-6.712-8.088
		c-1.595-1.163-3.225-1.985-3.893,0.206c-0.684,2.24-1.25,4.977,0.753,7.073c6.542,6.848,12.863,14.025,22.775,16.593
		c-0.217-2.263-2.125-3.916-1.647-6.627c2.992,3.444,4.293,7.07,4.823,11.205c0.854,6.657,0.649,13.594,5.019,19.423
		c1.868,2.493,3.397,4.99,7.382,3.201c-7.529,4.658-13.539,10.509-18.282,17.854c-1.104-2.66,1.724-3.877,1.632-6.749
		c-7.51,4.492-15.533,7.191-18.729,15.739C448.745,284.753,459.658,282.876,467.191,277.135z M511.492,228.379
		c-2.002-2.109-1.023-3.844-1.787-5.076c-0.823-1.328-1.066-3.443-3.26-3.241c-2.696,0.249-4.421,1.997-5.742,4.242
		c-1.204,2.044,0.834,2.591,1.695,3.521c2.486,2.683,5.355,5.028,7.699,7.822c9.483,11.307,19.308,22.5,18.835,38.666
		c-0.02,0.682-0.122,1.172,0.642,1.593c4.355,2.402,10.179-0.992,10.362-6.079c0.06-1.635-0.277-3.287,0.573-4.867
		c2.232-4.15,5.989-7.609,5.633-12.955c-0.086-1.28,1.405-1.674,2.559-1.965c6.074-1.53,6.341-1.996,4.384-8.281
		c-1.026-3.298-2.071-6.595-3.284-9.827c-0.477-1.271-1.388-2.72-0.576-3.765c4.366-5.624,2.925-12.144,2.636-18.271
		c-0.379-8.011-2.452-15.767-8.877-21.338c-6.018-5.217-12.614-9.615-20.305-12.08c-18.397-5.896-37.151-1.223-47.642,13.356
		c-1.839,2.557-2.5,3.745,1.219,5.636c7.216,3.668,11.964,9.514,12.868,18.149c0.509,4.854,5.284,6.979,8.426,10.037
		c1.153,1.122,1.292-0.907,1.853-1.519c2.43-2.652,5.2-5.371,8.958-3.761C512.249,220.045,511.535,224.013,511.492,228.379z
		 M287.091,823.275c-8.927,6.187-17.551,7.083-26.749,2.792c-3.889-1.813-8.854-2.777-10.803-6.562
		c-3.076-5.975-4.378-2.405-5.962,0.458c-4.721,8.532-7.379,17.893-10.711,26.989c-1.444,3.944-0.312,7.149,1.838,10.204
		c2.231,3.17,5.34,5.3,8.824,7.038c4.736,2.364,9.834,3.63,14.796,5.292c16.877,5.653,33.715,11.734,51.957,10.471
		c10.528-0.729,20.903-2.445,30.466-7.294c3.921-1.988,6.631-4.865,6.268-9.732c-0.366-4.903-1.827-9.055-6.877-10.993
		c-2.599-0.997-5.128-2.319-7.817-2.917c-13.224-2.938-25.709-7.717-37.693-14.02C289.845,832.487,286.379,829.554,287.091,823.275z
		 M460.023,501.605c1.239-2.756-1.26-3.545-2.68-4.586c-6.648-4.873-13.461-9.522-20.153-14.336
		c-16.892-12.147-34.741-22.801-52.417-33.729c-2.813-1.739-4.801-2.768-6.935,1.299c-4.056,7.728-8.781,15.104-13.229,22.626
		c-3.205,5.417-3.208,5.427,2.393,8.109c0.879,0.421,1.804,0.744,2.703,1.123c10.047,4.234,20.655,6.291,31.303,8.314
		c18.538,3.523,36.638,8.852,54.794,13.903C458.887,505.188,460.28,505.107,460.023,501.605z M325.606,614.737
		c-1.996,8.209-3.405,16.48-6.047,24.338c-4.971,14.788-15.316,26.31-25.742,37.272c-13.019,13.689-20.315,29.471-24.019,47.816
		c-4.753,23.547-8.316,47.604-20.897,68.827c-1.218,2.054-0.896,3.218,1.415,4.132c3.387,1.34,5.842,1.902,7.736-2.532
		c6.392-14.965,9.584-30.756,11.796-46.668c2.658-19.116,10.161-35.508,23.233-49.68c6.848-7.424,13.815-14.794,19.759-23.035
		c11.703-16.227,14.563-35.622,19.752-54.2c0.442-1.582-0.138-2.427-1.261-2.674C328.936,617.809,327.693,615.532,325.606,614.737z
		 M343.338,837.04c-0.562-1.909-0.85-4.115-1.049-6.15c-0.612-6.258-4.025-9.094-9.871-9.674
		c-11.253-1.118-21.661-5.271-32.202-8.935c-7.939-2.761-7.921-2.812-11.302,5.184c-2.045,4.838,0.458,12.182,5.167,14.627
		c6.148,3.193,12.143,6.915,18.637,9.149c8.904,3.063,18.05,7.738,27.611,1.12C342.379,840.941,343.333,839.492,343.338,837.04z
		 M475.798,270.9c-6.152-6.529-7.104-14.759-7.659-22.956c-0.192-2.83-0.975-4.198-3.58-4.794
		c-3.736-0.853-7.145-2.418-10.006-5.016c-1.994-1.811-3.206-1.299-4.7,0.863c-4.788,6.931-9.825,13.688-14.752,20.523
		c-4.901,6.801-5.781,14.427-4.749,23.098C444.128,272.785,458.082,265.064,475.798,270.9z M211.378,454.418
		c3.15-2.898,4.313-6.551,5.535-10.076c4.822-13.914,4.572-28.378,3.854-42.764c-0.223-4.468-0.584-9.235-2.623-13.507
		c-0.325-0.681-0.05-1.942-1.188-1.814c-0.676,0.076-1.553,0.759-1.852,1.396c-1.462,3.122-2.95,6.254-4.083,9.502
		c-5.126,14.693-3.025,29.88-2.553,44.89C208.591,445.934,208.352,450.378,211.378,454.418z M266.866,359.206
		c-0.223-1.572-1.397-1.923-2.383-2.474c-11.55-6.458-23.095-12.928-34.66-19.358c-0.659-0.367-1.407-1.24-2.211-0.628
		c-2.527,1.923-3.357,4.898-4.248,7.715c-0.768,2.427,1.54,3.006,3.042,3.859c10.044,5.711,20.093,11.413,30.204,17.004
		c1.622,0.896,3.678,3.351,5.035,2.032C263.928,365.14,265.223,361.903,266.866,359.206z M255.091,800.673
		c-2.456-0.782-4.858-1.077-6.717-2.24c-3.609-2.257-5.824-0.969-7.696,2.168c-0.761,1.274-1.753,2.499-2.151,3.888
		c-2.565,8.945-5.074,17.91-7.412,26.917c-0.571,2.197,0.559,4.087,2.899,5.641c1.044-2.731,1.939-5.334,3.023-7.854
		c2.142-4.98,3.339-11.207,7.901-13.978C250.891,811.601,252.231,805.884,255.091,800.673z M250.538,374.754
		c2.946-3.449,3.192-5.713-1.154-8.29c-8.821-5.229-17.25-11.117-25.856-16.711c-1.22-0.793-2.673-2.437-3.925-1.509
		c-1.708,1.265,0.134,2.996,0.493,4.508c0.279,1.174,1.099,2.002,2.101,2.683C231.634,361.854,241.061,368.29,250.538,374.754z
		 M215.747,350.631c1.758,8.989,3.591,17.965,5.219,26.979c0.386,2.137,1.642,1.627,2.87,1.517c1.748-0.158,2.135-1.105,1.675-2.773
		C223.073,367.518,220.633,358.689,215.747,350.631z M205.598,392.068c-5.11,7.93-3.273,16.873-4.301,25.396
		C201.668,408.802,205.434,400.721,205.598,392.068z M177.13,362.767c8.694-0.876,3.373-5.855,3.897-10.024
		C178.186,356.053,178.411,359.45,177.13,362.767z M174.641,384.03c-2.741,5.911-1.257,11.056-2.011,15.935
		C173.036,395.078,175.909,390.559,174.641,384.03z"/>
</g>
</svg>
