<?xml version="1.0" encoding="utf-8"?>
<!-- Generator: Adobe Illustrator 16.2.1, SVG Export Plug-In . SVG Version: 6.00 Build 0)  -->
<!DOCTYPE svg PUBLIC "-//W3C//DTD SVG 1.1//EN" "http://www.w3.org/Graphics/SVG/1.1/DTD/svg11.dtd">
<svg version="1.1" id="YJXSsG6an_x5F_GafEWcctdprWZRHUIFHamMZU1YnTeEFEE_xA0_Image_1_"
	 xmlns="http://www.w3.org/2000/svg" xmlns:xlink="http://www.w3.org/1999/xlink" x="0px" y="0px" width="390px" height="236px"
	 viewBox="0 0 390 236" enable-background="new 0 0 390 236" xml:space="preserve">
<path d="M279.837,196.993c-4.122-2.449-8.407-4.899-13.229-1.38c-0.089,0.065-0.258,0.019-0.389,0.03
	c-3.135,0.264-6.265,0.603-9.405,0.78c-9.117,0.514-17.902-1.673-26.761-3.319c-3.84-0.714-7.678-1.366-11.683-0.734
	c-2.699,0.426-5.358,1.021-8.246,1.713c0.309-0.479,0.448-0.7,0.594-0.916c0.47-0.701,0.886-1.447,1.425-2.09
	c5.42-6.457,8.073-14.034,9.104-22.284c0.481-3.858,1.465-7.36,4.418-10.338c7.102-7.163,9.681-15.9,8.312-25.926
	c-0.406-2.972-0.663-6.205,0.077-9.042c1.597-6.128,4.004-12.034,8.495-16.751c1.474-1.55,2.815-3.098,3.644-5.113
	c1.155-2.81,3.199-4.87,5.847-6.376c1.665-0.947,3.06-2.27,4.279-3.73c2.812-3.369,5.436-6.876,7.943-10.485
	c5.3-7.63,7.151-15.775,4.421-24.827c-0.739-2.45-1.105-5.013-1.641-7.511c0.764-0.193,0.971,0.332,1.324,0.586
	c2.518,1.811,4.681,1.276,5.756-1.635c1.839-4.992,2.713-10.323,4.888-15.182c2.011-4.491,2.79-9.039,2.299-13.901
	c-0.631-6.267-3.183-11.468-10.314-13.391c-5.375-1.449-10.782-0.914-16.185-0.096c-0.825,0.124-1.444,0.505-1.537,1.261
	c-0.133,1.074-0.827,1.488-1.611,2.017c-3.225,2.18-5.404,5.082-5.965,9.045c-0.168,1.183-0.612,2.252-1.461,3.15
	c-1.136,1.201-2.425,2.202-3.78,3.138c-1.233,0.852-1.535,1.976-0.563,3.183c0.497,0.616,0.39,1.153,0.452,1.848
	c0.114,1.296-1.27,2.268-0.572,3.518c0.539,0.965,0.407,1.736-0.131,2.704c-1.236,2.225-0.646,3.63,1.803,4.56
	c1.267,0.48,2.591,0.81,3.895,1.187c2.751,0.794,2.73,3.235,3.098,5.362c0.305,1.765-0.419,3.161-1.997,4.144
	c-4.039,2.52-8.224,4.854-12.016,7.708c-4.087,3.077-8.274,5.938-12.702,8.483c-3.039,1.747-5.784,3.843-7.28,7.182
	c-0.234,0.522-0.594,0.862-1.244,0.588c-1.902-0.799-3.985-1.102-5.718-2.381c-3.097-2.286-6.29-4.442-9.419-6.686
	c-0.477-0.342-1.263-0.688-0.646-1.535c0.819-1.124,0.187-1.719-0.728-2.353c-1.179-0.818-2.232-1.796-3.5-2.515
	c-2.143-1.214-3.704-3.3-4.662-5.292c-1.711-3.561-3.66-6.774-6.746-9.223c-6.349-5.038-14.05-6.998-21.655-2.894
	c-1.189,0.642-2.019,0.487-3.057-0.144c-9.221-5.605-18.976-10.218-28.053-16.173c-9.02-5.919-18.551-11.138-28.207-16.14
	C84.191,0.209,68.234-9.669,52-19.016c0,0.396,0,0.791,0,1.186c0.06,0.038,0.12,0.075,0.179,0.112L84.812,1.015
	c1.538,0.543-1.045-1.016,0.003-0.034c0.226,0.212,0.459,0.408,0.695,0.597l4.052,2.346c1.975,0.892,4.003,1.654,5.783,2.896
	c1.553,1.084,3.231,2.012,4.929,2.858c0.878,0.437,0.812,0.901,0.535,1.612c-0.576,1.474-1.162,3.203-2.379,3.975
	c-1.372,0.872-2.498-0.772-3.644-1.512l-0.394-0.231c-2.24-1.262-4.721-2.391-6.698-3.931L52-11.358c0,1.928,0,3.856,0,5.784
	c0.577,0.297,1.167,0.571,1.728,0.896c19.267,11.142,38.2,22.842,57.22,34.394c1.223,0.744,3.039,1.214,3.539,2.294
	c0.977,2.109,2.746,2.986,4.5,3.781c6.506,2.946,12.21,7.115,17.9,11.321c3.368,2.49,6.588,5.191,10.063,7.517
	c1.725,1.156,2.045,2.429,1.878,4.274c-0.25,2.753,0.046,5.458,1.088,8.077c1.235,3.106,3.244,5.771,4.901,8.623
	c2.896,4.987,7.651,7.235,13.29,7.339c6.836,0.124,12.323-3.006,16.854-7.881c1.009-1.086,1.632-0.958,2.724-0.321
	c9.197,5.363,17.354,12.142,25.66,18.723c0.799,0.632,0.817,1.151,0.497,1.998c-0.786,2.083-1.703,4.104-2.978,5.924
	c-3.299,4.708-6.702,9.347-9.964,14.081c-0.744,1.079-1.677,1.667-2.833,1.874c-3.332,0.596-6.668,1.214-10.03,1.583
	c-5.701,0.626-11.3,1.725-16.879,3.03c-9.785,2.29-18.867,6.558-28.299,9.839c-3.52,1.226-6.069,3.613-8.13,6.528
	c-3.022,4.275-2.924,9.022-1.025,13.6c3.569,8.605,4.52,17.605,4.944,26.773c0.13,2.818,0.154,5.653,0.417,8.464
	c0.523,5.585,0.379,11.177,0.258,16.767c-0.018,0.815,0.017,2.013-0.988,2.345c-2.303,0.761-3.852,2.404-5.426,4.096
	c-3.014,3.243-6.59,5.084-11.201,5.137c-2.873,0.032-5.928-0.044-8.558,1.635c-3.686,2.353-3.722,6.989,0.115,8.971
	c6.457,3.335,13.378,3.52,20.44,2.61c3.479-0.449,6.999-0.919,10.248,1.244c2.038,1.357,4.449,1.369,6.832,1.272
	c2.652-0.107,4.616-1.579,5.178-4.191c0.505-2.35,0.849-4.738,1.18-7.121c0.463-3.323-0.844-6.276-2.087-9.224
	c-0.292-0.694-0.807-1.214-1.645-1.209c-0.815,0.004-0.938-0.53-0.995-1.174c-0.626-6.97-0.065-13.848,1.343-20.7
	c1.575-7.661,3.283-15.309,3.039-23.227c-0.083-2.702-0.747-5.118-2.086-7.441c-1.521-2.637-3.459-4.974-5.449-7.609
	c14.665,1.191,29.052,4.041,43.291-0.815c0.441,1.63-0.133,2.868-0.434,4.108c-1.982,8.164-3.404,16.438-4.459,24.757
	c-0.828,6.537-1.859,13.046-2.592,19.6c-0.666,5.949,0.305,11.327,4.001,16.049c2.447,3.127,5.498,5.182,9.79,4.787
	c2.229-0.206,4.348-0.812,6.481-1.35c8.85-2.23,17.749-4.102,26.891-4.663c3.061-0.188,6.101-0.703,9.149-1.078
	c4.406-0.542,8.814-1.068,13.214-1.656c1.459-0.194,2.116,0.298,2.63,1.744c1.303,3.667,0.973,7.5,1.43,11.247
	c0.104,0.854-0.315,1.767-1.354,2.168c-1.427,0.552-2.576,1.573-3.659,2.599c-1.418,1.344-3.013,2.849-2.645,4.973
	c0.427,2.474,2.673,3.219,4.79,3.743c4.294,1.063,8.354,0.124,12.396-1.455c3.62-1.413,6.148-3.757,7.101-7.5
	c1.554-6.107,4-11.71,7.463-17.045C286.24,204.162,285.186,200.174,279.837,196.993z M115.419,30.354
	c-0.608,1.141-1.388,0.262-1.962-0.087c-15.125-9.193-30.23-18.42-45.351-27.62c-3.113-1.894-6.28-3.7-9.421-5.546
	c-0.328-0.192-0.707-0.332-0.811-0.939c1.119-0.333,1.903,0.284,2.725,0.604C73.626,1.824,84.952,9.908,96.521,17.46
	c5.912,3.859,12.057,7.355,17.833,11.417C114.865,29.235,115.954,29.353,115.419,30.354z M255.947,5.534
	c2.503,0.009,4.95-0.828,7.218-0.382c3.294-0.248,6.22,0.269,9.111,1.233c5.457,1.821,7.487,6.338,8.227,11.335
	c0.759,5.129-0.217,9.893-2.24,14.674c-1.76,4.157-2.753,8.637-4.098,12.971c-0.211,0.682-0.462,1.354-0.735,2.014
	c-0.973,2.335-2.314,2.789-4.401,1.39c-2.981-1.997-5.913-4.062-9.103-5.733c-3.371-1.765-7.064-2.622-10.596-3.932
	c-2.98-1.105-3.416-1.999-2.441-5.043c1.126-3.516,2.783-6.803,5.084-9.659c2.588-3.21,2.742-6.796,2.28-10.572
	c-0.23-1.878-0.629-3.73-0.653-5.639C253.579,6.531,254.321,5.529,255.947,5.534z M246.349,51.15
	c1.878-1.143,3.148-2.652,2.862-4.927c-0.359-2.865-0.699-5.827-4.45-6.459c-1.195-0.201-2.38-0.618-3.495-1.109
	c-1.41-0.621-1.959-1.704-1.091-3.159c0.691-1.159,1.299-2.285,0.222-3.548c-0.112-0.131-0.158-0.521-0.152-0.524
	c1.784-0.557,0.256-2.178,0.994-3.104c0.348-0.437,0.108-0.994-0.355-1.385c-1.322-1.118-0.785-2.113,0.351-2.853
	c1.069-0.695,1.835-1.691,2.805-2.463c1.538-1.222,2.117-2.832,2.499-4.703c0.739-3.61,2.656-6.457,6.208-8.291
	c0.489,4.152,1.689,8.103,0.447,12.124c-0.82,2.657-3.027,4.512-4.278,6.95c-1.162,2.267-2.311,4.521-3.002,6.983
	c-0.702,2.504-0.207,3.743,2.157,4.727c1.916,0.796,3.909,1.42,5.896,2.027c3.905,1.194,7.438,3.113,10.855,5.3
	c0.852,0.545,1.236,1.272,1.448,2.195c0.632,2.766,1.287,5.527,1.935,8.291c-4.773-5.024-10.499-4.478-16.371-3.326
	c-3.369,0.66-6.738,1.457-10.757,0.75C243.086,53.306,244.679,52.165,246.349,51.15z M214.615,75.143
	c0.881-3.128,3.078-5.203,5.646-7.001c3.373-2.36,7.291-3.854,10.471-6.491c2.683-2.222,5.494-4.227,8.497-5.982
	c0.799-0.468,1.406-0.6,2.434-0.251c2.474,0.84,5.051,0.13,7.562-0.223c2.831-0.399,5.626-1.047,8.459-1.417
	c4.41-0.574,10.542,3.094,10.793,6.625c-3.194-4.357-7.53-6.128-12.739-5.877c-6.108,0.295-13.474,5.265-14.695,12.293
	c-0.236,1.355,0.305,2.585,1.087,3.651c0.469,0.64,0.578,1.093-0.025,1.693c-3.415,3.408-5.68,7.652-8.364,11.591
	c-2.229,3.273-3.236,3.596-6.785,1.751c-2.831-1.472-5.58-3.101-8.389-4.614c-1.364-0.734-1.087-2.042-1.025-3.114
	c0.209-3.617,2.32-6.261,4.804-8.654c0.468-0.451,1.018-0.815,1.53-1.218c-4.539,2.024-6.657,5.606-7.135,11.637
	C214.516,78.797,213.919,77.616,214.615,75.143z M212.782,74.72c1.865,0.467,0.386,2.006,0.862,3.035
	c-4.68-2.34-9.113-4.916-13.215-8.031C204.527,71.496,208.432,73.632,212.782,74.72z M177.424,44.113
	c-3.424-1.715-7.226-1.749-11.013-2.604C169.065,39.626,174.073,40.848,177.424,44.113z M181.65,52.882
	c-5.656-2.531-11.15-5.139-16.823-7.479C170.353,42.958,180.14,47.376,181.65,52.882z M160.148,48.846
	c1.441-1.16,3.011-1.967,4.178-1.779c2.66-0.017,3.302,0.837,2.491,2.52c-0.585,1.214-0.866,2.543-1.715,3.68
	c-0.662,0.884-1.133,0.87-1.902,0.352c-0.972-0.656-1.963-1.286-2.95-1.92C158.866,50.81,158.831,49.907,160.148,48.846z
	 M159.78,53.052c0.005,1.006-0.737,2.149-1.55,2.938c-0.411,0.037-2.983-1.977-2.853-2.183c0.603-0.947,0.708-2.607,1.877-2.682
	C158.207,51.064,159.775,51.84,159.78,53.052z M130.397,28.048c0.306-0.539,0.635-0.238,0.975-0.057
	c2.023,1.069,4.063,2.11,6.072,3.206c6.795,3.71,13.58,7.438,20.417,11.188c-3.081,2.546-3.082,2.547-6.301,0.475
	c-6.536-4.206-13.071-8.411-19.604-12.621c-0.495-0.319-0.96-0.683-1.447-1.016C129.993,28.87,130.153,28.477,130.397,28.048z
	 M143.107,50.602c-1.879-0.868-3.319-2.396-4.84-3.9c1.713,1.154,3.426,2.308,5.139,3.463
	C143.306,50.31,143.206,50.456,143.107,50.602z M143.576,50.978c2.349,0.237,5.373,2.52,5.477,4.071
	C147.038,53.984,145.424,52.553,143.576,50.978z M152.774,53.957c-1.067-0.053-2.092-1.22-3.105-1.933
	c-7.275-5.121-14.527-10.275-21.831-15.355c-1.237-0.861-1.631-1.609-0.732-2.952c0.724-1.082,1.242-2.3,1.861-3.452
	c0.142-0.263,0.162-0.672,0.631-0.604c0.335,0.186,0.689,0.354,1.016,0.565c7.773,5.059,15.559,10.099,23.308,15.194
	c3.441,2.263,3.454,2.348,1.058,5.675C154.258,52.096,154.259,54.033,152.774,53.957z M155.979,59.656
	c-0.789-0.3-1.632-0.889-1.6-2.001c0.013-0.477,0.042-0.996,0.716-0.88c0.964,0.166,1.754,0.57,1.794,1.754
	C156.691,58.995,156.658,59.914,155.979,59.656z M163.449,79.076c2.484,0.49,4.973,0.935,8.067,0.703
	C168.534,80.683,165.9,80.41,163.449,79.076z M161.672,75.229c1.378-0.375,5.752,0.03,8.792,0.814
	C168.648,77.572,164.469,77.184,161.672,75.229z M168.827,74.618c-3.493,0.046-6.741-0.991-9.743-2.979
	c-3.388-2.244-3.438-8.248-1.573-11.21c1.721-2.735,1.672-2.783,4.387-1.022c1.957,1.271,4.113,2.278,5.485,4.317
	c0.442,0.657,1.19,0.994,2.005,1.065c2.477,0.214,3.981,1.817,5.167,3.753c0.743,1.212,1.601,2.198,3.189,2.743
	C175.176,73.88,172.035,74.575,168.827,74.618z M200.627,82.533c-5.59-4.351-11.541-8.354-18.128-11.219
	c-1.475-0.642-3.017-0.793-4.558-0.958c-0.845-0.09-1.542-0.38-2.057-0.976c-1.208-1.398-0.868-2.072,1.975-3.62
	c-0.881-0.074-1.46-0.149-2.042-0.163c-0.953-0.024-1.397-0.555-1.583-1.428c-0.191-0.895,0.4-1.276,0.995-1.725
	c0.907-0.686,2.245-0.001,3.078-0.938c-0.581-0.766-2.078,0.48-2.135-0.995c-0.055-1.411,1.131-1.78,2.234-2.021
	c0.89-0.194,1.773-0.352,2.534-0.881c-0.378-0.892-1.437,0.453-1.597-0.462c-0.17-0.971,0.815-1.231,1.483-1.589
	c1.619-0.866,3.165-1.04,4.672,0.354c1.944,1.795,4.19,3.071,6.844,3.536c2.29,0.402,3.61,1.958,3.877,4.083
	c0.558,4.447,3.38,6.985,6.9,9.159c7.55,4.662,15.365,8.858,23.042,13.297c0.619,0.357,1.297,0.62,1.967,0.88
	c2.508,0.972,4.017,0.521,5.55-1.725c2.211-3.237,4.272-6.582,6.605-9.727c1.865-2.515,4.182-4.685,5.884-7.344
	c1.07-1.672,1.122-3.445,0.735-5.826c-1.405,5.967-1.643,6.481-3.779,8.364c-1.653-1.74-1.665-3.756-0.806-5.775
	c2.318-5.451,6.672-8.551,12.333-9.448c6.067-0.961,11.042,1.46,14.046,6.783c1.183,2.096,0.868,4.917,0.145,7.431
	c-1.784,6.2-5.287,11.45-9.102,16.518c-2.009,2.667-4.088,5.28-6.644,7.479c-2.434,2.093-4.909,3.864-8.547,2.009
	c3.998-3.935,8.195-7.802,12.08-11.962c3.817-4.087,7.349-8.446,9.819-13.567c-1.875,2.49-3.744,4.983-5.625,7.469
	c-3.62,4.781-7.743,9.096-12.159,13.143c-4.316,3.956-8.042,8.516-12.512,12.314c-3.002,2.55-5.543,2.961-8.708,0.41
	C218.625,96.302,209.566,89.491,200.627,82.533z M205.01,110.771c2.495-3.411,4.877-6.907,7.282-10.383
	c0.97-1.402,1.634-2.973,2.172-4.572c0.367-1.092,0.853-0.938,1.538-0.41c3.469,2.674,6.974,5.305,10.397,8.037
	c4.106,3.278,6.635,3.389,10.52-0.103c1.188-1.068,1.99-1.114,3.104-0.229c0.15,0.119,0.348,0.176,0.519,0.271
	c2.749,1.497,2.68,1.436,0.629,3.733c-3.37,3.774-5.159,8.424-6.901,13.07c-0.589,1.573-1.246,3.141-1.224,4.896
	c0.033,2.577-0.008,2.577-2.645,2.584c-2.533-0.044-4.817-1.033-7.067-2.018c-6.868-3.005-13.301-6.648-18.163-12.589
	C204.461,112.19,204.308,111.73,205.01,110.771z M152.849,210.705c0.336-0.755,1.072-0.637,1.552,0.343
	c1.518,3.099,2.413,6.353,1.915,9.839c-0.303,2.119-0.635,4.245-1.149,6.319c-0.507,2.046-2.048,3.103-4.126,3.235
	c-2.866,0.181-5.585-0.149-8.055-1.81c-1.536-1.032-3.323-1.116-4.524-0.989c-4.729,0.028-8.807,1.061-12.949,0.799
	c-3.907-0.247-7.73-0.949-11.308-2.667c-1.731-0.832-3.244-1.9-3.172-4.021c0.07-2.047,2.023-4.181,4.126-4.736
	c2.092-0.551,4.251-0.807,6.402-0.787c4.445,0.038,8.118-1.588,11.238-4.696c1.34-1.334,2.492-2.887,4.185-3.847
	c0.45-0.254,0.902-0.797,1.403-0.443c0.454,0.321,0.153,0.979,0.175,1.485c0.015,0.316-0.092,0.642-0.166,0.959
	c-0.975,4.236,1.513,7.183,5.764,6.455C147.702,215.535,151.167,214.482,152.849,210.705z M186.569,149.344
	c-7.584,1.405-15.172,1.597-22.842,0.528c-4.982-0.693-10.038-0.856-15.06-1.274c-1.508-0.125-2.992-0.622-4.544-0.377
	c0.064,0.46,0.401,0.402,0.619,0.4c3.621-0.016,5.112,2.854,7.066,5.138c4.592,5.364,4.672,11.627,3.923,18.173
	c-0.913,7.965-3.144,15.703-4.009,23.649c-0.495,4.542-0.613,9.178,0.255,13.749c0.215,1.131,0.024,2.148-0.984,2.992
	c-2.393,2.005-5.067,3.199-8.217,3.075c-2.425-0.095-3.824-1.615-3.8-4.013c0.019-1.834,0.537-3.606,0.757-5.412
	c0.719-5.885,0.593-11.784,0.108-17.683c-0.242-2.945-0.245-5.905-0.399-8.855c-0.492-9.482-1.375-18.8-5.078-27.732
	c-3.759-9.07,1.456-16.454,8.503-19.054c8.402-3.1,16.563-6.881,25.269-9.125c4.143-1.067,8.325-1.993,12.501-2.923
	c1.29-0.288,2.13-0.101,2.707,1.556c2.508,7.219,3.999,14.642,5.049,22.179c0.089,0.642,0.288,1.269,0.38,1.911
	C189.146,148.832,189.145,148.867,186.569,149.344z M192.412,154.622c1.29-5.174,1.867-10.401,2.049-15.693
	c0.046-1.359-0.141-2.727-0.373-4.097c-0.177,2.104-0.269,4.205-0.497,6.297c-0.198,1.815-0.317,3.658-0.395,5.48
	c-0.083,1.922-1.537,1.539-2.491,1.789c-1.193,0.312-0.988-0.898-1.109-1.538c-1.163-6.186-1.742-12.483-3.586-18.538
	c-0.699-2.294-1.364-4.601-2.15-6.865c-0.327-0.943-0.238-1.216,0.822-1.349c3.553-0.446,7.075-1.198,10.637-1.495
	c3.329-0.277,5.865-1.539,7.448-4.504c0.634-1.188,1.072-1.436,2.131-0.252c6.396,7.155,14.462,11.606,23.583,14.31
	c1.491,0.442,2.949,0.295,4.448,0.087c0.575,5.783,1.145,11.627-0.333,17.365c-1.428,5.543-5.092,9.805-8.782,13.978
	c-1.421,1.607-2.54,3.291-2.617,5.503c-0.03,0.868-0.517,1.101-1.323,1.375c-2.457,0.836-4.883,0.152-7.229-0.164
	c-5.529-0.747-11.016-1.793-16.173-4.138C191.345,159.842,191.115,159.826,192.412,154.622z M254.334,208.391
	c-5.115,0.657-10.213,1.441-15.354,1.884c-12.155,1.046-24.285,2.467-35.966,6.064c-10.167,3.13-15.336-4.555-16.983-11.403
	c-1.13-4.705-0.101-9.394,0.468-14.041c0.571-4.653,1.282-9.294,1.935-13.94c0.786-5.594,1.578-11.196,2.871-16.875
	c6.094,4.191,12.864,5.709,19.803,6.704c2.837,0.407,5.663,1.066,8.562,0.429c0.601-0.132,1.284-0.083,1.096,0.854
	c-1.241,6.185-2.217,12.491-5.878,17.84c-3.098,4.526-6.32,8.968-9.232,13.62c-1.273,2.033-2.5,4.095-3.861,6.328
	c1.221-0.131,1.469-1.062,1.883-1.69c1.359-2.065,2.797-4.105,3.888-6.312c1.148-2.321,3.101-3.155,5.354-3.793
	c6.484-1.837,12.935-1.226,19.384,0.158c7.727,1.657,15.462,3.295,23.432,2.989c2.812-0.109,5.62-0.424,8.42-0.724
	c3.986-0.427,5.536,0.579,6.464,5.857c0.47,2.672-1.013,4.339-2.898,5.791c-0.719,0.554-1.602,0.897-2.312,1.46
	c-1.261,1-2.247,1.049-3.463-0.221C259.748,207.074,256.898,208.061,254.334,208.391z M279.563,213.331
	c-2.352,3.393-3.551,7.273-4.365,11.18c-1.304,6.253-5.59,8.874-11.169,10.221c-1.453,0.351-2.944,0.665-4.466,0.396
	c-1.881,0.299-3.645-0.155-5.347-0.88c-2.753-1.175-3.269-3.249-1.365-5.581c1.258-1.541,2.798-2.804,4.568-3.686
	c1.383-0.689,1.851-1.698,1.823-3.139c-0.08-4.051-0.05-8.112-1.658-11.95c-0.385-0.918-0.126-1.263,0.914-1.22
	c1.711,0.071,2.969,1,4.067,2.11c0.661,0.667,1.178,0.624,1.86,0.248c1.724-0.949,3.414-1.963,4.903-3.25
	c3.028-2.613,2.667-8.797-0.63-11.347c-0.341-0.264-0.958-0.331-0.808-0.932c0.158-0.634,0.738-0.606,1.278-0.653
	c5.434-0.479,9.847,1.559,13.461,5.491c2.043,2.224,1.473,4.783,0.42,7.133C282.126,209.534,280.855,211.464,279.563,213.331z"/>
</svg>
