<?xml version="1.0" encoding="utf-8"?>
<!-- Generator: Adobe Illustrator 16.2.1, SVG Export Plug-In . SVG Version: 6.00 Build 0)  -->
<!DOCTYPE svg PUBLIC "-//W3C//DTD SVG 1.1//EN" "http://www.w3.org/Graphics/SVG/1.1/DTD/svg11.dtd">
<svg version="1.1" id="YvfFyKKpqhA8YBCfxv6hrBcw5qg-g8JPy3lOhpPD2tA_xA0_Image_1_"
	 xmlns="http://www.w3.org/2000/svg" xmlns:xlink="http://www.w3.org/1999/xlink" x="0px" y="0px" width="390px" height="236px"
	 viewBox="0 0 390 236" enable-background="new 0 0 390 236" xml:space="preserve">
<g>
	<path fill="none" d="M-75.014,400.544c0-134.216,0.014-268.434-0.08-402.651C-75.097-5.284-74.377-6.002-71.2-6
		c178.296,0.088,356.593,0.088,534.888,0c3.179-0.002,3.896,0.716,3.894,3.894c-0.084,268.717-0.084,537.433,0,806.148
		c0.002,3.179-0.715,3.896-3.894,3.895c-178.295-0.089-356.592-0.089-534.888,0c-3.178,0.001-3.897-0.716-3.895-3.895
		C-75,669.543-75.014,535.044-75.014,400.544z M276.006,98.193c-1.821-0.327-1.772-3.184-3.583-3.058
		c-4.154,0.287-8.142,1.452-11.896,3.31l0.155-0.158c-2.45,1.898-6.275,2.107-7.085,6.062c-0.236,1.149-1.69,0.756-2.621,0.758
		c-11.161,0.025-22.322-0.024-33.48,0.053c-2.036,0.015-2.772-0.643-2.619-2.665c0.378-5.055,0.344-10.164,1.109-15.153
		c0.307-2.003,0.356-4.339,3.83-5.566c4.63-1.635,6.979-14.857,2.433-17.78c-1.59-1.023-1.58-1.848-1.483-3.259
		c0.407-5.941-0.067-11.746-2.452-17.322c-3.539-8.267-9.25-14.236-18.388-15.296c-9.625-1.117-17.662,2.653-23.244,10.673
		c-4.326,6.214-5.319,13.413-5.076,20.862c0.047,1.443,0.611,2.905-1.42,4.299c-4.332,2.974-2.661,16.267,2.349,18.001
		c2.627,0.908,2.879,2.281,3.436,4.316c1.484,5.422,0.236,10.992,1.096,16.434c0.295,1.867-0.615,2.454-2.418,2.443
		c-9.888-0.055-19.777-0.055-29.666-0.002c-1.659,0.01-2.133-0.584-2.188-2.208c-0.107-3.13-1.631-4.887-4.88-3.465
		c-1.301,0.569-1.51,0.142-2.235-0.706c-3.039-3.559-8.3-1.674-11.705-4.566c-0.248-0.208-1.313,0.363-1.882,0.746
		c-2.135,1.442-4.626,1.838-7,2.621c-2.062,0.678-4.45,0.905-5.947,2.75c-2.905,3.581-6.495,5.266-11.183,4.846
		c-5.032-0.451-10.091-0.606-15.138-0.885c-3.096-0.17-6.54,0.866-8.624-2.688c-0.343-0.584-1.111-0.571-1.894-0.292
		c-7.455,2.666-15.227,2.162-22.933,2.091c-3.657-0.034-5.338,1.221-5.231,5.124c0.092,3.352,0.243,5.392,4.703,5.254
		c6.734-0.209,10.412,3.022,11.594,8.961c0.977,4.917,1.816,9.863,2.68,14.801c0.33,1.884-1.979,8.189-3.479,9.707
		c-2.291,2.315-0.732,8.687,1.878,10.544c2.703,1.922,5.965,3.358,6.833,7.458c5.097,24.088,10.441,48.124,15.693,72.179
		c0.257,1.18,0.925,2.492-0.561,3.357c-3.243,1.89-2.841,5.089-2.426,7.895c1.412,9.566,2.603,19.146,3.337,28.788
		c0.314,4.135,2.617,5.838,6.152,4.197c3.359-1.558,4.102-0.319,4.878,2.709c4.411,17.228,8.97,34.418,13.604,51.588
		c0.61,2.264,1.541,4.129-1.209,5.668c-1.018,0.569-0.73,2.031-0.315,3.121c2.985,7.833,4.41,16.084,6.282,24.199
		c2.427,10.524,4.584,21.089,2.068,32.045c-0.656,2.863-0.548,6.119,0.448,9.205c0.636,1.973,0.672,4.256-0.063,6.264
		c-5.023,13.708-5.921,28.146-7.165,42.444c-1.378,15.855-2.392,31.784-2.54,47.691c-0.182,19.492-0.929,38.973-0.969,58.458
		c-0.089,42.805-0.049,85.609,0.02,128.412c0.004,2.843-0.466,4.32-3.66,5.288c-6.824,2.071-12.561,6.058-16.745,12.056
		c-6.926,9.928-8.9,24.898-1.243,34.128c11.9,14.341,37.662,21.382,56.204,5.916c16.274-13.573,13.331-38.174-2.051-48.171
		c-4.64-3.016-9.803-4.619-15.135-5.719c-1.466-0.3-2.09-0.624-2.212-2.281c-0.379-5.205-0.817-10.387-0.812-15.622
		c0.021-24.576,0.339-49.148,0.793-73.723c0.481-26.127-0.083-52.26,0.423-78.395c0.748-38.549,1.16-77.107-0.194-115.658
		c-0.174-4.92-0.606-9.882,0.98-14.822c0.767,1.095,1.121,2.21,1.448,3.412c1.725,6.337,2.62,12.836,3.942,19.249
		c1.687,8.176,3.906,16.242,5.702,24.398c0.596,2.703-1.237,6.754,4.232,6.126c0.321-0.038,1.021,1.834,1.281,2.882
		c1.467,5.945,2.859,11.907,4.265,17.868c5.149,21.816,8.795,43.952,14.163,65.736c2.015,8.172,4.055,16.435,1.466,25.488
		c-2.355,8.238,0.487,14.036,11.669,13.065c5.754-0.497,11.486-0.907,17.26-0.799c4.661,0.088,9.331,0.141,13.951-0.626
		c1.6-0.265,3.036,0.081,4.524,0.581c5.694,1.919,11.602,2.015,17.5,1.71c5.602-0.29,9.391-3.234,10.214-7.127
		c2.044-9.661,4.001-19.354,6.415-28.928c6.617-26.248,13.437-52.444,20.227-78.648c0.6-2.312-0.096-6.353,4.764-4.116
		c0.921,0.424,1.404-1.036,1.633-2.042c0.216-0.955-0.56-2.17,1.156-3.194c-0.678,12.028-1.619,23.686-1.94,35.362
		c-1.02,37.117-1.367,74.247-2.483,111.363c-0.611,20.313-1.012,40.632-1.698,60.946c-0.733,21.721-0.85,43.462-1.673,65.187
		c-0.148,3.872-1.113,5.354-4.866,6.525c-8.04,2.513-13.632,8.031-14.637,16.686c-0.864,7.451,3.372,13.043,9.066,17.062
		c17.688,12.486,36.615,11.82,54.635,2.281c12.183-6.447,12.398-20.152,1.314-28.49c-7.805-5.872-16.654-8.896-26.18-10.265
		c-2.173-0.312-3.291-0.925-3.487-3.605c-0.422-5.774-0.316-11.47-0.11-17.265c0.818-22.836,2.068-45.66,2.663-68.5
		c0.582-22.436,1.403-44.878,1.567-67.311c0.201-27.673,1.369-55.348,0.453-83.02c-0.575-17.363-0.012-34.728-0.773-52.104
		c-0.786-17.944-0.186-35.916,2.233-53.83c2.15-15.937,7.052-31.398,7.498-47.643c0.182-6.619,2.09-13.197,3.3-19.778
		c1.739-9.454,3.626-18.881,5.302-28.347c0.47-2.656,1.024-3.788,4.224-2.892c5.59,1.564,6.591,0.358,6.866-5.669
		c0.376-8.296,1.134-16.575,1.49-24.871c0.136-3.13,1.629-7.033-1.302-9.199c-2.542-1.878-2.153-3.84-1.882-6.017
		c0.781-6.236,1.564-12.481,2.649-18.667c2.694-15.371,5.264-30.774,8.536-46.023c0.977-4.557-0.701-10.653,5.354-13.364
		c0.246-0.11,0.336-0.754,0.353-1.157c0.078-1.801,0.919-2.54,2.737-3.098c2.324-0.712,3.938-8.29,2.207-9.595
		c-3.517-2.652-4.126-6.462-3.999-10.325c0.135-4.012-0.485-9.282,1.731-11.734c4.614-5.104,10.189-10.079,17.831-10.453
		c2.692-0.132,3.514-1.063,3.268-3.531c-0.113-1.119-0.119-2.27,0-3.386c0.281-2.644-0.914-3.455-3.445-3.377
		c-4.791,0.147-9.591-0.03-14.382,0.071c-10.378,0.218-20.793-0.831-31.112,1.517c-2.72,0.62-6.739,1.488-8.511-0.535
		c-2.828-3.231-7.282-3.411-9.915-6.694c-1.326-1.653-3.473-1.931-4.781,0.593L276.006,98.193z"/>
	<path fill="none" d="M195.915,271.387c-14.382,0.933-28.786,0.457-43.181,0.625c-3.201,0.037-4.084-0.407-3.51-4.292
		c1.903-12.871,4.805-25.748,3.702-38.859c-1.062-12.664-3.659-25.109-7.124-37.351c-3.877-13.695-5.079-27.687-1.928-41.517
		c2.88-12.646,9.437-23.638,19.631-32.052c2.979-2.458,6.299-1.649,9.163,1.258c4.381,4.448,10.158,6.915,16.015,7.717
		c11.98,1.641,23.264,0.03,32.295-9.624c2.487-2.659,6.86-0.136,8.726,1.728c8.1,8.096,16.088,16.47,18.654,28.299
		c2.171,10,1.556,20.016,0.825,30.137c-0.795,11.024-5.931,20.906-7.426,31.65c-1.743,12.519-3.039,25.071-1.61,37.782
		c0.796,7.102,1.593,14.194,2.716,21.25c0.479,3.006-0.427,4.055-3.769,4.083C224.69,272.337,210.326,270.583,195.915,271.387z"/>
	<path fill="none" d="M195.364,318.019c0,6.808-0.172,13.391,0.04,19.96c0.303,9.337-1.552,18.383-3.104,27.493
		c-0.423,2.481-0.437,5.059-0.387,7.587c0.067,3.443-1.975,4.762-4.896,4.906c-10.946,0.542-21.882,2.061-32.857,0.162
		c-2.69-0.465-3.892-1.594-4.664-4.358c-3.797-13.585-4.851-27.492-5.928-41.467c-0.918-11.908,1.449-23.445,2.519-35.136
		c0.613-6.709,1.384-13.41,1.761-20.133c0.146-2.594,0.961-3.419,3.495-3.394c29.789,0.285,59.585-1.28,89.372,0.193
		c1.244,0.062,2.71-0.602,3.049,1.757c2.47,17.234,4.92,34.493,4.947,51.923c0.024,16.172-3.192,31.989-6.667,47.731
		c-0.715,3.236-3.583,3.331-5.549,3.466c-10.646,0.731-21.294,1.811-31.967-0.482c-4.068-0.875-5.659-2.557-5.788-6.613
		c-0.527-16.741-2.435-33.432-1.78-50.218C197.005,320.234,197.37,318.815,195.364,318.019z"/>
	<path fill="none" d="M298.493,201.579c-1.306,9.665-2.498,19.347-3.973,28.985c-0.567,3.708,0.192,7.536-3.682,10.785
		c-2.554,2.141-1.829,7.108-2.141,10.834c-1.243,14.798-2.493,29.582-4.958,44.247c-1.92,11.427-3.543,22.905-5.246,34.367
		c-0.17,1.14-0.112,2.757-1.271,2.863c-3.759,0.344-2.853,2.98-3.006,5.243c-1.089,16.071-4.469,31.748-7.91,47.44
		c-1.642,7.482-1.367,15.254-3.605,22.781c-3.012,10.123-4.903,20.579-7.446,30.848c-0.937,3.788-1.707,8.328-0.356,11.209
		c2.735,5.838,0.805,10.836-0.342,16.13c-1.238,5.713-2.741,11.368-4.14,17.046c-5.688,23.1-12.206,45.975-18.562,68.894
		c-0.205,0.739-0.484,1.285-1.324,1.775c-1.519-3.731-2.67-7.452-2.985-11.52c-0.503-6.5-0.053-13.084-2.913-19.38
		c-1.003-2.205,0.229-5.472,0.583-8.235c1.896-14.84,6.45-29.104,9.526-43.69c2.52-11.939,2.963-23.911,0.727-35.953
		c-1.638-8.815-0.784-17.622,0.115-26.448c1.833-17.976,9.631-34.579,11.877-52.466c1.731-13.791,3.632-27.461,2.474-41.513
		c-1.14-13.841-2.849-27.591-4.559-41.351c-1.243-10.005-2.701-19.98-3.997-29.978c-0.234-1.811-0.231-3.663-0.199-5.496
		c0.267-16.436,1.373-32.734,7.344-48.325c1.075-2.804,1.466-5.869,2.301-9.362c3.363,5.782,7.669,10.176,11.931,14.646
		c2.403,2.521,3.866,5.768,4.738,9.258c1.236,4.942,3.949,8.846,8.396,11.604c6.774,4.202,13.759,2.404,17.475-4.825
		c1.592-3.096,2.966-6.311,3.742-9.729c0.215-0.95,0.58-1.157,1.39-0.685L298.493,201.579z"/>
	<path fill="none" d="M141.432,180.579c2.159,11.276,5.721,22.043,7.673,33.19c2.172,12.401,2.69,24.639,0.815,37.196
		c-1.793,12.018-3.728,24.045-4.645,36.211c-0.926,12.298-2.912,24.512-3.897,36.806c-0.424,5.279,0.477,10.667,0.825,16.003
		c1.27,19.515,7.145,38.019,11.852,56.84c3.354,13.415,3.851,27.422,1.629,41.407c-2.684,16.896-0.406,33.524,4.316,49.853
		c3.188,11.028,4.419,22.425,6.47,33.668c0.433,2.366-1.673,4.022-1.673,6.395c0,3.562-1.203,7.048-1.484,10.743
		c-2.858-11.148-5.867-22.26-8.536-33.454c-3.97-16.646-7.814-33.324-11.392-50.058c-0.477-2.227-3.359-6.159,2.146-7.141
		c1.241-0.221,0.297-1.312,0.067-2.041c-5.468-17.247-9.965-34.772-14.132-52.358c-3.751-15.832-6.58-31.882-9.751-47.848
		c-0.271-1.362-0.194-2.835-0.037-4.228c0.24-2.131-0.719-3.418-2.699-3.398c-2.629,0.027-2.887-1.804-3.221-3.533
		c-5.062-26.264-10.01-52.552-15.228-78.785c-0.516-2.599,1.009-4.365,1.291-6.585c0.638-5.031-0.63-8.916-3.776-12.571
		c-1.664-1.933-1.281-4.567-1.704-6.834c-3.524-18.908-6.798-37.862-10.139-56.803c-0.63-3.572-1.333-7.135-1.804-10.728
		c-0.457-3.484,1.897-6.408,3.228-9.132c1.216-2.494,1.137-4.601,0.784-6.658c-0.699-4.054-3.646-6.79-7.216-8.564
		c-1.17-0.581-1.708-1.017-1.968-2.273c-1.015-4.893-2.204-9.749-3.255-14.635c-0.367-1.709,0.349-2.734,1.991-3.669
		c7.464-4.255,15.562-4.235,23.753-4.023c2.321,0.06,2.599,1.427,3.006,3.209c2.391,10.475,1.348,20.738-1.103,31.088
		c-3.784,15.982-7.109,32.072-10.676,48.106c-0.397,1.788,0.141,3.374,0.753,4.908c2.201,5.516,3.349,11.655,8.711,15.383
		c7.14,4.964,16.351,3.104,19.321-5.069C126.017,199.401,135.821,191.475,141.432,180.579z"/>
	<path fill="none" d="M151.087,379.246c12.722,2.409,24.727,1.397,36.715-0.143c2.113-0.271,3.427-0.372,3.405,2.489
		c-0.133,17.387,0.503,34.837-5.913,51.508c-1.019,2.649,1.654,4.411,2.087,6.942c2.151,12.591,1.884,24.97-0.089,37.585
		c-2.052,13.119-4.401,26.298-2.97,39.752c0.741,6.967-0.061,7.432-6.954,5.633c-0.671-0.175-1.31-0.471-1.969-0.694
		c-2.403-0.812-5.482,1.238-7.341-1.271c-1.538-2.075-0.929-4.938-1.224-7.372c-1.642-13.477-5.591-26.428-8.424-39.628
		c-2.68-12.49-2.46-25.028-0.619-37.678c1.316-9.045,1.169-18.237-0.121-27.345c-0.292-2.05-1.053-4.022,0.456-6.022
		c0.849-1.126-0.157-2.371-0.61-3.503C154.936,393.059,152.87,386.466,151.087,379.246z"/>
	<path fill="none" d="M204.508,434.625c1.556,1.508,0.913,3.763,3.902,4.618c-8.127-19.685-7.346-40.006-8.878-60.546
		c13.835,3.538,27.443,2.516,41.364,0.952c-0.68,3.485-1.125,6.932-2.83,9.871c-4.444,7.669-3.39,16.252-4.617,24.482
		c-1.752,11.775,1.131,23.196,1.72,34.784c0.762,15.018-3.243,29.365-7.051,43.693c-2.334,8.781-3.903,17.696-4.715,26.734
		c-0.269,2.979-0.988,4.64-4.25,2.801c-2.879-1.623-5.419,0.281-8.047,0.882c-4.526,1.031-5.363,0.509-4.675-3.862
		c1.755-11.139,0.416-22.113-1.465-33.081C202.065,469.043,200.791,452.112,204.508,434.625z"/>
	<path fill="none" d="M268.786,680.807c-2.08,6.441-0.896,12.759-1.686,18.808c-0.372-0.006-0.745-0.01-1.117-0.018
		c-0.429-6.153-0.858-12.309-1.287-18.463c-0.078-0.013-0.157-0.024-0.234-0.035c-0.323,3.878-0.851,7.755-0.909,11.637
		c-0.059,3.898,0.27,7.799-0.959,11.626c3.514-86.683,2.31-173.5,8.21-260.132c0.086,1.93,0.171,3.861,0.258,5.791
		c0.132,0,0.265,0,0.396,0.001c0.043-0.813,0.058-1.629,0.136-2.438c0.144-1.501-0.354-3.742,1.271-4.142
		c2.217-0.544,0.891,2.682,2.589,3.123c0.182-0.446,0.438-1.071,0.686-1.678c0.69-0.021,0.596,0.493,0.676,0.874
		c3.03,14.59,0.521,29.43,1.982,44.103c0.969,9.716-0.033,19.475-0.123,29.21c-0.263,27.815-0.629,55.632-1.29,83.44
		c-0.659,27.794-1.627,55.58-2.712,83.362c-0.181,4.637-0.953,9.292-0.574,13.927c0.332,4.041-1.062,5.72-5.093,5.194
		c-0.817-0.106-1.659-0.015-2.6-0.261c2.225,0.122,2.703-2.397,4.569-2.754l-0.194-0.091c1.125,1.612,2.04,1,1.931-0.511
		c-0.548-7.596,1.433-15.138,0.527-22.89c-1.727,1.164-1.259,2.85-1.592,4.285c-0.749,3.232-0.094,6.713-1.719,9.788l0.104,0.034
		 M269.57,466.271c-0.362,1.618,0.002,3.518,0.188,5.469c0.487,5.066,5.708,6.646,7.593,11.298
		C278.394,475.257,278.007,468.788,269.57,466.271z M275.375,536.376c0.834-2.995,0.947-4.999,0.418-7.081
		c-0.641-2.52-3.052-1.454-4.523-2.29c-0.901-0.512-1.762,0.309-1.744,1.202c0.038,1.801,0.289,5.122,1.003,5.026
		C272.843,532.919,273.813,534.15,275.375,536.376z M275.837,508.169c1.184-1.146,0.895-2.587,0.801-3.92
		c-0.119-1.72-1.509-2.192-2.894-2.574c-0.709-0.195-1.5-0.212-1.806,0.553c-0.623,1.561,1.103,1.678,1.702,2.49
		C274.44,505.802,274.389,507.425,275.837,508.169z"/>
	<path fill="none" d="M217.205,76.25c-0.795,1.421-1.291,2.634-1.48,4.033c-1.164,8.61-5.083,12.816-13.699,13.693
		c-5.414,0.551-10.944,0.517-16.317-0.938c-5.178-1.403-7.961-5.05-8.802-10.086c-0.369-2.208-1.581-4.191-0.87-6.829
		c-2.815,0.893-1.046,3.327-2.671,4.502c-3.303-3.464-4.103-7.685-4.236-12.156c-0.035-1.2,0.626-2.711,1.374-2.77
		c1.415-0.109,1.799,1.399,1.998,2.679c0.142,0.9-0.337,2.026,1.328,2.734c0.565-1.753,0.198-3.334-0.003-5.064
		c-1.121-9.62-1.071-19.062,5.039-27.4c6.796-9.274,24.631-14.604,34.848-0.084c5.079,7.219,6.521,15.381,4.926,24.059
		c-0.42,2.288-0.602,4.534,0.209,7.801c1.076-2.25,1.696-3.548,2.342-4.899c2.409,3.564,1.63,11.554-1.312,14.403
		c-0.439,0.426-0.864,0.691-1.472,0.491c-0.917-0.305-0.895-0.94-0.548-1.661C218.25,77.951,218.492,77.171,217.205,76.25z"/>
	<path fill="none" d="M262.624,131.492c-3.139-3.783-6.591-7.355-9.321-11.413c-2.305-3.426-1.485-7.524-0.353-11.283
		c0.594-1.974,1.664-3.836,2.737-5.619c0.452-0.752,0.447-2.243,1.679-2.11c1.414,0.154,1.948,1.54,2.315,2.725
		c1.009,3.263-1.405,5.728-2.815,9.528c2.324-2.362,3.606-3.934,4.016,0.112c0.336,3.305,2.005,5.691,6.395,3.805
		c1.68-0.723,3.997-0.715,6.419,0.874c2.843,1.865,6.681-0.278,8.707-2.706c1.822-2.186,3.833-2.248,5.492-1.512
		c1.603,0.712,0.86,3.049,0.47,4.604c-1.735,6.9-4.108,13.699-3.055,20.994c1.375,9.52,3.467,18.895,5.49,28.295
		c1.811,8.417,4.604,16.625,5.518,25.236c0.71,6.689-1.558,12.727-4.562,18.412c-1.942,3.676-5.49,6.891-9.708,6.194
		c-5.38-0.89-9.583-4.518-11.924-9.709c-2.286-5.07-1.334-10.581-1.741-15.878c-0.917-11.964,1.379-23.91,0.704-35.876
		c-0.409-7.241-1.288-14.478-4.101-21.291c-0.416-1.007-0.669-2.161-1.806-2.703C262.993,131.942,262.809,131.717,262.624,131.492z"
		/>
	<path fill="none" d="M113.936,116.093c5.127,3.47,7.037,3.444,8.801-0.119l-0.146,0.136c2.387,2.137,5.679,1.124,8.407,2.372
		c1.139,0.52,2.465-1.267,3.594-2.39c1.626-1.622,0.008-5.334,3.767-5.527c0.542-0.027-0.3-1.109-0.625-1.676
		c-1.428-2.491-2.648-5.08-0.233-7.607c1.542-1.614,3.067-2.067,3.924,0.811c2.827,9.494,1.258,19.004-7.324,24.384
		c-2.969,1.861-6.258,4.359-7.364,8.31c-0.275,0.97-0.55,1.941-0.826,2.911c-3.134,6.452-4.089,13.387-3.218,20.335
		c0.858,6.849,0.746,13.723,1.354,20.571c0.478,5.394,0.501,10.905-0.513,16.387c-0.321,1.731-1.92,4.328,0.706,5.996l-0.13-0.093
		c-1.968,4.68-2.668,9.977-6.991,13.484c-5.411,4.391-8.998,4.796-14.133,0.231c-5.087-4.522-7.533-10.931-8.203-17.418
		c-0.437-4.221,1.353-8.731,2.43-13.041c3.847-15.389,7.112-30.897,9.926-46.504c1.234-6.847-0.398-13.583-0.854-20.364
		c-0.082-1.213-1.931-2.961,0.223-3.46c1.841-0.425,4.159-0.976,5.948,0.66c0.587,0.538,0.631,1.598,1.636,1.768L113.936,116.093z"
		/>
	<path fill="none" d="M112.927,510.683c-1.757,4.5-1.702,4.812,1.832,8.242C114.619,515.71,116.086,512.883,112.927,510.683z
		 M117.429,520.247c1.236-2.927-0.127-5.781-0.255-8.67C114.692,514.538,116.659,517.375,117.429,520.247z"/>
	<path fill="none" d="M195.818,355.431c2.08,8.614,1.241,16.56,2,24.394c1.578,16.315,0.997,32.856,5.23,48.886
		c0.73,2.769-0.53,5.202-0.862,7.793c-1.562,12.168-2.522,24.355-0.845,36.595c1.234,8.994,2.463,17.99,3.834,26.966
		c0.994,6.511,2.008,14.058-0.978,19.114c-4.742,8.026-3.839,16.461-5.598,24.658c-0.248,1.156-0.331,2.259,0.129,3.302
		c2.406,5.441,0.31,10.873,0.1,16.315c-0.087,2.291-1.498,2.04-2.861,1.936c-1.501-0.115-3.776,0.841-3.792-1.957
		c-0.029-5.231-2.115-10.377,0.317-15.746c1.456-3.217-0.69-6.86-0.686-10.401c0.005-3.45-0.917-6.911-1.524-10.352
		c-0.264-1.501-0.288-3.437-1.224-4.36c-4.665-4.603-3.631-10.462-3.382-15.84c0.701-15.131,3.751-30.022,5.316-45.071
		c0.729-7.035-0.971-13.99-1.932-20.928c-0.688-4.978-1.486-9.671,0.265-14.747c2.948-8.55,3.064-17.663,3.419-26.594
		c0.418-10.564-0.113-21.173,1-31.715C194.153,363.822,195.027,360.015,195.818,355.431z"/>
	<path fill="none" d="M115.415,749.437c-7.486-0.39-14.801-1.54-20.517-6.961c-8.815-8.359-7.566-23.231,2.143-30.584
		c4.065-3.078,8.469-4.228,13.416-4.693c10.47-0.989,20.304-0.144,27.456,8.734c6.541,8.125,5.12,20.183-3.184,26.578
		C129.128,746.821,122.833,749.798,115.415,749.437z"/>
	<path fill="none" d="M218.494,573.892c-2.45,0.082-5.477-0.23-8.55-0.772c-8.504-1.506-10.545-4.906-9.013-14.067
		c0.566-3.382,0.544-6.327,0.012-9.688c-1.283-8.085,0.152-16.121,1.996-24.043c0.2-0.854,0.443-1.873,1.568-1.097
		c3.346,2.314,6.581,0.31,9.61-0.492c5.896-1.563,11.078,2.508,11.136,8.6c0.086,9.166,0.414,18.517,5.204,26.893
		c0.901,1.571,1.311,3.305,1.443,5.197c0.509,7.207-2.68,8.383-8.536,9.435C221.998,574.1,220.55,573.892,218.494,573.892z"/>
	<path fill="none" d="M168.855,573.14c-9.384,0.653-10.308-5.347-8.491-13.378c1.341-5.936,4.345-11.434,4.85-17.638
		c0.363-4.467,1.087-8.911,1.298-13.382c0.172-3.651,1.979-4.829,5.343-4.916c2.16-0.055,4.24,0.307,6.14,1.042
		c2.728,1.053,5.393,1.087,7.655-0.444c2.136-1.445,2.666,0.106,2.714,1.254c0.366,8.655,4.412,17.114,1.254,25.996
		c-0.617,1.733-0.087,3.852,0.189,5.83c1.49,10.76,1.125,12.906-9.258,14.498C176.686,572.595,172.756,572.772,168.855,573.14z"/>
	<path fill="none" d="M125.912,137.698c0.275-0.97,0.551-1.941,0.826-2.912c4.973-5.247,11.462-8.913,15.453-15.222
		c1.713-2.71,5.082-1.945,7.733-2.386c3.438-0.572,6.882,0.273,11.193,0.813c-9.349,7.738-14.561,17.446-17.858,28.022
		c-2.881,9.243-3.468,18.928-2.307,28.632c0.097,0.8,0.137,1.749-0.195,2.435c-4.257,8.833-10.053,16.604-16.646,23.812
		c0,0.001,0.13,0.094,0.13,0.094c0.778-4.116,1.461-8.231,1.677-12.439c0.728-14.203-2.761-28.299-0.957-42.542
		C125.312,143.251,126.494,140.563,125.912,137.698z"/>
	<path fill="none" d="M262.624,131.492c0.186,0.226,0.371,0.451,0.554,0.676c1.011,6.163,2.786,12.153,3.642,18.386
		c0.874,6.362,1.109,12.744,0.428,18.939c-1.005,9.173-0.14,18.303-0.795,28.086c-5.509-6.319-12-11.44-14.905-19.124
		c-1.115-2.949-0.48-6.702-0.137-10.037c1.907-18.505-3.397-34.293-17.229-47.003c-0.914-0.838-1.651-1.865-2.518-2.859
		c9.848-3.501,17.521-1.253,24.112,6.56C257.765,127.475,258.91,130.922,262.624,131.492z"/>
	<path fill="none" d="M279.801,765.51c-7.777-0.465-16.878-2.037-24.653-8.087c-3.883-3.019-6.149-7.27-5.186-10.229
		c1.338-4.114,6.607-7.221,11.305-7.841c5.159-0.682,10.526-0.982,15.526-1.274c8.962-0.522,18.431,1.7,25.459,8.511
		c4.32,4.19,3.237,10.721-1.961,14.11C294.602,764.407,288.176,765.519,279.801,765.51z"/>
	<path fill="none" d="M305.302,241.406c-0.364,0.039-0.517,0.097-0.643,0.061c-10.518-2.957-10.325-3.05-8.242-15.28
		c1.739-10.202,2.713-20.534,4.103-30.797c1.5-11.071,3.074-22.131,4.648-33.192c0.591-4.147,1.206-8.292,1.944-12.415
		c0.419-2.349,0.703-4.802,4.038-1.811c1.288,1.154,4.484,0.783,5.856,0.425c4.259-1.112,4.057,1.491,3.764,3.699
		c-0.752,5.651-1.958,11.241-2.926,16.866c-3.505,20.35-8.041,40.521-10.592,61.039C306.79,233.739,305.99,237.436,305.302,241.406z
		"/>
	<path fill="none" d="M96.096,236.301c-1.585,0.654-3.112,0.311-4.593,0.926c-5.565,2.31-5.702,2.203-6.919-3.497
		c-5.55-25.985-10.858-52.025-16.974-77.89c-0.594-2.509-1.733-5.976,3.544-5.733c2.866,0.13,6.394-2.501,8.548-1.523
		c2.576,1.171,1.784,5.416,2.302,8.367c3.611,20.576,7.215,41.155,10.847,61.726C93.887,224.541,95.006,230.388,96.096,236.301z"/>
	<path fill="none" d="M298.502,201.582c-0.664-18.986-7.473-36.789-10.679-55.292c-1.793-10.349-0.805-20.356,2.215-30.295
		c0.426-1.404,0.605-2.486,2.583-2.444c5.886,0.126,11.789-0.15,16.956,3.512c1.062,0.754,2.229,1.188,1.916,2.823
		c-0.941,4.925-1.771,9.872-2.818,14.774c-0.291,1.364-0.766,2.431-2.858,2.859c-4.79,0.977-7.721,10.472-5.465,14.83
		c2.561,4.952,3.969,10.122,2.762,16.053c-2.228,10.934-3.736,22.016-4.626,33.168C298.493,201.579,298.502,201.582,298.502,201.582
		z"/>
	<path fill="none" d="M197.636,107.037c16.788,0,33.576-0.021,50.364,0.049c1.146,0.004,3.182-1.063,3.276,1.31
		c0.087,2.183-1.817,1.645-3.128,1.774c-28.607,2.789-57.297,1.682-85.941,1.217c-4.862-0.08-10.029-0.726-15.049-1.168
		c-1.193-0.105-2.69,0.335-2.632-1.73c0.06-2.102,1.589-1.536,2.746-1.542c10.157-0.044,20.314-0.068,30.471-0.086
		c6.632-0.012,13.263-0.003,19.895-0.003C197.636,106.917,197.636,106.978,197.636,107.037z"/>
	<path fill="none" d="M290.245,258.156c0,4.903,0.679,9.929-0.188,14.675c-0.898,4.927,0.927,9.026,3.624,11.908
		c2.89,3.088,2.165,5.882,1.637,8.819c-2.205,12.277-5.646,24.316-6.832,36.802c-0.397,4.185-4.873,5.754-8.291,3.271
		c-0.98-0.713-0.254-1.501-0.137-2.264c1.62-10.531,3.297-21.055,4.847-31.595c1.509-10.265,3.055-20.529,3.74-30.895
		C288.885,265.276,289.94,261.783,290.245,258.156z"/>
	<path fill="none" d="M195.752,113.604c6.625,0,13.252,0.032,19.877-0.022c1.611-0.014,3.35,0.149,4.001,1.569
		c0.601,1.312-1.176,2.034-1.955,2.923c-4.13,4.708-9.938,6.25-15.661,7.256c-8.767,1.541-17.216,0.09-24.85-4.855
		c-0.348-0.226-0.863-0.251-1.127-0.531c-1.392-1.479-4.052-2.543-3.275-4.947c0.783-2.419,3.405-1.315,5.228-1.35
		C183.909,113.531,189.832,113.604,195.752,113.604z"/>
	<path fill="none" d="M178.569,91.368c8.398,5.983,28.469,6.46,35.143-1.013c1.061,4.69-0.987,9.011-0.575,13.4
		c0.136,1.442-1.114,1.359-2.088,1.36c-9.856,0.01-19.711-0.025-29.566,0.038c-1.796,0.012-2.397-0.651-2.606-2.399
		C178.441,99.104,178.339,95.469,178.569,91.368z"/>
	<path fill="none" d="M102.745,273.833c3.851,20.59,7.652,41.012,11.523,61.42c0.299,1.58,1.025,3.099-1.278,3.576
		c-2.366,0.487-1.888-1.763-2.159-2.745c-4.359-15.73-8.589-31.497-12.813-47.265c-0.647-2.418-1.256-4.79,1.249-6.805
		C101.733,280.029,100.887,276.458,102.745,273.833z"/>
	<path fill="none" d="M78.336,138.025c0.183,1.762-0.024,2.67-1.605,2.809c-1.529,0.134-3.036,0.54-4.551,0.826
		c-7.307,1.374-7.222,1.362-8.199-5.644c-0.596-4.273-1.468-8.511-2.286-12.751c-0.403-2.085-0.53-3.109,2.346-2.232
		c2.182,0.665,4.967,0.717,7.078-0.062c3.393-1.253,3.664,0.175,4.122,2.891C76.071,128.79,77.354,133.642,78.336,138.025z"/>
	<path fill="none" d="M316.606,121.265c1.978,3.154,5.348,1.849,8.201,2.554c-0.5,4.682-0.964,9.382-1.519,14.072
		c-0.252,2.125-0.524,4.432-3.716,2.926c-0.121-0.057-0.277-0.034-0.418-0.049c-10.48-1.088-10.545-1.104-8.001-11.359
		c0.473-1.902,0.896-3.972,0.926-5.722c0.075-4.656,2.114-3.607,4.672-2.275L316.606,121.265z"/>
	<path fill="none" d="M118.638,701.581c-2.484-1.838-5.05-1.056-7.297-0.193c-3.719,1.43-4.14-0.22-4.073-3.309
		c0.13-6.028,0.038-12.061,0.038-18.656c1.93,2.212-0.934,5.981,3.09,6.348c2.485,0.228,5.066,0.548,7.425-1.217
		C118.888,690.215,119.322,695.739,118.638,701.581z"/>
	<path fill="none" d="M127.881,115.733c-2.781,0.941-5.154,1.287-3.36-2.91c1.879-4.397-1.148-7.667-2.279-11.41
		c-0.534-1.772-3.852-4.088,0.418-5.554c3.606-1.238,4.78,1.271,5.386,3.937c1.206,5.299,3.675,10.683-0.188,15.945L127.881,115.733
		z"/>
	<path fill="none" d="M275.852,98.344c0.826-0.013,1.663-0.114,2.477-0.021c3.204,0.37,4.238,2.39,2.771,5.163
		c-0.76,1.434-1.364,2.95-2.038,4.43l0.142-0.134c-2.179,1.087-1.607,2.987-1.372,4.755c0.277,2.088,0.881,4.541-2.045,4.974
		c-2.756,0.407-2.071-2.209-2.632-3.781c-2.056-5.764,1.527-10.43,2.852-15.535C276.006,98.193,275.852,98.344,275.852,98.344z"/>
	<path fill="none" d="M272.867,718.171c0.969,2.341,1.051,4.445,1.113,6.542c0.062,2.103,0.013,4.209,0.013,6.381
		c-1.928,0.195-3.465-1.162-5.56-0.913c-3.032,0.361-6.53-3.87-6.25-6.868c0.127-1.373,1.267-1.643,2.47-1.805
		C267.528,721.128,270.216,720.204,272.867,718.171z"/>
	<path fill="none" d="M122.736,115.975c-1.465-0.039-1.955,3.061-4.181,1.061c-1.776-1.595-0.277-2.85,0.041-4.067
		c1.094-4.207-2.28-10.138-7.591-12.597c1.631-0.69,3.068-1.531,4.616-1.898c2.189-0.52,3.878-0.1,5.074,2.39
		c2.376,4.945,4.412,9.77,1.891,15.25C122.59,116.11,122.736,115.975,122.736,115.975z"/>
	<path fill="none" d="M273.903,100.017c-0.733,2.263-1.534,4.5-2.175,6.78c-0.518,1.837-1.347,3.577-0.22,5.666
		c0.801,1.483,0.125,3.162-1.831,3.482c-2.022,0.332-2.244-1.207-2.213-2.693c0.08-3.534-1.214-6.929-0.919-10.507
		c0.13-1.588,0.396-3.066,1.094-4.455c0.794-1.573,1.763-2.939,3.917-2.349C273.722,96.532,273.373,98.497,273.903,100.017z"/>
	<path fill="none" d="M316.752,121.413c-1.784-2.571,1.229-2.077,2.185-3.312c-2.677-1.035-5.775-0.73-8.204-2.946
		c3.874-2.981,7.968-3.738,12.644-3.041c-0.848,1.581-2.936,0.73-3.493,2.42c0.757,1.504,2.27,0.838,3.272,0.735
		c2.993-0.307,2.278,3.227,4.276,3.813c-0.778,1.819-2.313,2.289-4.102,2.272c-2.243-0.019-4.485-0.062-6.727-0.092
		C316.606,121.265,316.752,121.413,316.752,121.413z"/>
	<path fill="none" d="M127.857,115.741c3.1-2.622,4.427-5.792,3.093-9.821c-0.52-1.572-1.01-3.158-1.432-4.758
		c-0.372-1.408-0.621-3.01,1.175-3.527c1.581-0.456,3.319-0.054,3.741,1.798c1.238,5.419,2.115,10.907-0.905,16.072
		c-1.653,2.825-3.7,1.386-5.639,0.224C127.881,115.733,127.857,115.741,127.857,115.741z"/>
	<path fill="none" d="M260.527,98.445c4.141-1.301,5.048-0.552,5.26,3.829c0.188,3.881-0.747,7.824,0.704,11.655
		c0.525,1.387-0.218,2.434-1.651,2.885c-1.594,0.501-1.951-0.786-2.311-1.776c-1.971-5.426-2.332-11.046-1.847-16.752
		C260.682,98.288,260.527,98.445,260.527,98.445z"/>
	<path fill="none" d="M71.405,115.988c1.322,0.074,2.72-1.408,4.617-0.045c-3.338,1.048-6.055,3.249-9.533,3.02
		c-3.994-0.264-3.53-5.176-7.311-6.469c6.9-2.02,13.046-1.869,19.617-0.491c-1.388,1.312-2.53,0.525-3.586,0.451
		c-1.252-0.088-2.489-0.471-3.737-0.501c-1.252-0.031-2.391,0.462-3.171,1.354C68.247,115.39,72.055,112.468,71.405,115.988z"/>
	<path fill="none" d="M52.684,105.429c1.687,0,3.377-0.083,5.056,0.024c1.592,0.102,1.979,1.236,2.043,2.667
		c0.061,1.36-0.5,1.92-1.78,2.342c-3.753,1.239-7.508,0.119-11.252,0.134c-1.293,0.004-1.389-1.61-1.332-2.73
		c0.068-1.344,0.51-2.497,2.202-2.483c1.687,0.014,3.374,0.003,5.062,0.003C52.684,105.4,52.684,105.414,52.684,105.429z"/>
	<path fill="none" d="M114.091,116.25c-0.167-3.171-1.242-5.961-3.404-8.33c-1.048-1.147-1.818-3.048-3.724-1.046l-0.344-0.004
		c-0.352-0.68-1.845-0.636-1.437-1.641c1.031-2.53,7.376-3.347,9.015-1.14c2.213,2.984,5.409,5.689,2.854,10.179
		c-0.812,1.431-1.504,2.176-3.116,1.826L114.091,116.25z"/>
	<path fill="none" d="M307.947,110.71c-1.633,0.337-3.142,0.305-4.691,0.081c-1.311-0.191-2.046-0.572-1.916-2.066
		c0.11-1.269-0.091-2.62,1.759-2.721c3.35-0.182,6.697-0.423,10.049-0.518c0.971-0.027,2.802-0.34,2.316,1.37
		c-0.375,1.329,0.334,3.729-2.244,3.839C311.431,110.772,309.635,110.71,307.947,110.71z"/>
	<path fill="none" d="M221.739,113.604c9.442,0,17.732,0.008,26.023-0.006c1.446-0.002,3.016-0.125,2.802,1.995
		c-0.232,2.298-1.603,0.894-2.719,0.812c-4.856-0.353-9.621-1.684-14.623-0.465C229.714,116.795,226.05,116.271,221.739,113.604z"/>
	<path fill="none" d="M73.122,102.793c1.846,5.534,1.501,5.958-3.974,6.608c-2.253,0.267-4.573-1.172-6.793,0.469
		c-0.74,0.548-1.289-0.345-1.215-1.079c0.127-1.269-1.033-2.958,0.807-3.704c1.126-0.458,3.206-1.017,3.55-0.554
		c2.697,3.609,3.967-1.021,5.991-0.895C71.958,103.667,72.461,103.153,73.122,102.793z"/>
	<path fill="none" d="M339.521,105.532c1.249-0.199,3.312,0.129,5.374,0.539c1.259,0.25,1.384,1.188,1.366,2.231
		c-0.02,1.224-0.675,1.715-1.844,1.763c-2.925,0.12-5.85,0.255-8.772,0.431c-1.452,0.087-2.878,0.318-2.907-1.859
		c-0.024-1.82,0.63-2.994,2.574-3.093C336.427,105.485,337.545,105.532,339.521,105.532z"/>
	<path fill="none" d="M81.834,105.979c1.537,0,3.08,0.076,4.61-0.02c1.606-0.101,2.323,0.47,2.15,2.135
		c-0.13,1.249,0.024,2.272-1.858,2.597c-3.424,0.592-6.638-0.316-9.922-0.722c-1.616-0.199-1.785-1.513-1.632-2.862
		c0.18-1.581,1.252-1.534,2.463-1.41c1.389,0.142,2.791,0.145,4.186,0.207C81.834,105.929,81.834,105.955,81.834,105.979z"/>
	<path fill="none" d="M279.061,107.916c2.122-0.777,2.246-3.063,3.422-4.559c1.213-1.542,2.387-2.347,4.158-0.713
		c1.337,1.232,1.743,1.517,0.016,3.386c-1.748,1.893-3.938,4.233-4.362,7.348c-0.137,1-0.565,2.571-2.659,2.634
		c-0.305-2.723-1.153-5.404-0.429-8.236C279.202,107.782,279.061,107.916,279.061,107.916z"/>
	<path fill="none" d="M323.574,110.211c-1.537,0-3.081,0.073-4.611-0.027c-0.939-0.062-2.381,0.58-2.365-1.355
		c0.013-1.42,0.374-2.605,1.96-2.684c3.615-0.176,7.238-0.258,10.857-0.276c1.36-0.006,2.036,1.042,1.974,2.248
		c-0.056,1.094-0.437,2.237-1.965,2.218c-1.95-0.021-3.899-0.006-5.849-0.006C323.574,110.29,323.574,110.25,323.574,110.211z"/>
	<path fill="none" d="M275.477,417.204c1.977,0.199,2.128,1.475,2.148,2.772c0.065,4.049,0.126,8.1,0.097,12.149
		c-0.007,0.731,0.204,2.094-0.64,2.084c-0.857-0.011-2.095-0.29-2.469-1.702c-0.676-2.554-1.735-5.029-1.057-7.753
		C274.188,422.221,274.844,419.691,275.477,417.204z"/>
	<path fill="none" d="M106.62,106.87l0.344,0.004c1.16,0.532,2.638,1.133,2.124,2.623c-0.461,1.334-1.996,0.499-3.018,0.508
		c-4.638,0.05-9.275-0.036-13.915-0.065c-0.971-0.007-2.48,0.999-2.47-0.987c0.009-1.66,1.332-1.828,2.728-1.815
		C97.15,107.184,101.902,107.833,106.62,106.87z"/>
	<path fill="none" d="M168.821,113.606c-3.102,1.922-6.412,2.771-9.878,2.386c-4.327-0.48-8.603-1.13-12.938,0.049
		c-0.723,0.196-2.34,0.89-2.473-0.818c-0.113-1.452,1.062-1.642,2.316-1.635C153.505,113.625,161.164,113.606,168.821,113.606z"/>
	<path fill="none" d="M294.76,106.931c1.459,0.854,4.646-1.216,4.768,1.333c0.131,2.737-2.98,1.176-4.657,1.47
		c-1.518,0.266-3.091,0.425-4.624,0.338c-1.089-0.062-2.937,0.988-3.14-0.835c-0.16-1.415,1.714-1.741,2.851-2
		C291.439,106.898,293.024,107.018,294.76,106.931z"/>
	<path fill="none" d="M107.234,752.079c4.033-0.456,7.731,0.143,11.642,0.791C115.774,754.568,111.412,754.262,107.234,752.079z"/>
	<path fill="none" d="M270.972,701.982c-4.202-2.736-1.695-6.148-0.941-9.383l-0.104-0.035c1.159,3.029,1.523,6.13,0.852,9.327
		L270.972,701.982z"/>
	<path d="M125.912,137.698c0.582,2.865-0.601,5.553-0.95,8.308c-1.805,14.243,1.685,28.339,0.956,42.542
		c-0.216,4.208-0.898,8.322-1.678,12.439c-2.627-1.668-1.027-4.264-0.706-5.995c1.015-5.482,0.991-10.994,0.514-16.387
		c-0.607-6.848-0.494-13.723-1.354-20.572C121.823,151.085,122.778,144.151,125.912,137.698z"/>
</g>
<path d="M347.999,110.154c-0.112-1.118-0.12-2.269,0-3.385c0.282-2.644-0.913-3.455-3.446-3.376
	c-4.79,0.146-9.588-0.031-14.382,0.069c-10.378,0.219-20.792-0.83-31.112,1.519c-2.719,0.619-6.739,1.488-8.511-0.536
	c-2.827-3.23-7.281-3.41-9.915-6.693c-1.294-1.615-3.37-1.911-4.684,0.428c0.019,0.003,0.036,0.012,0.056,0.016
	c-0.013,0.048-0.028,0.098-0.042,0.146c0.791-0.019,1.589-0.107,2.365-0.018c3.204,0.37,4.238,2.389,2.771,5.163
	c-0.747,1.41-1.345,2.898-2.006,4.354c0.039-0.021,0.073-0.044,0.114-0.064c-0.006,0.024-0.009,0.049-0.016,0.072
	c1.985-0.828,2.142-3.033,3.291-4.492c1.213-1.542,2.387-2.347,4.158-0.715c1.336,1.234,1.742,1.518,0.016,3.387
	c-1.748,1.893-3.938,4.233-4.362,7.348c-0.138,1.001-0.564,2.572-2.659,2.635c-0.303-2.701-1.134-5.358-0.443-8.164
	c-0.046,0.02-0.082,0.049-0.131,0.067c0.012-0.025,0.021-0.051,0.032-0.075c-2.04,1.1-1.494,2.961-1.263,4.695
	c0.277,2.088,0.881,4.541-2.045,4.974c-2.756,0.408-2.071-2.209-2.632-3.781c-2.035-5.708,1.456-10.34,2.81-15.389
	c-0.036,0.001-0.073,0.003-0.111,0.003c0.03-0.06,0.063-0.109,0.097-0.167c-1.761-0.379-1.735-3.167-3.525-3.043
	c-4.099,0.284-8.034,1.424-11.745,3.24c-0.001,0.007-0.001,0.018-0.002,0.025c4.009-1.232,4.901-0.452,5.112,3.873
	c0.187,3.882-0.748,7.824,0.705,11.656c0.524,1.387-0.219,2.434-1.652,2.885c-1.594,0.502-1.951-0.785-2.312-1.775
	c-1.958-5.391-2.325-10.972-1.854-16.638c-0.051,0.016-0.098,0.028-0.149,0.044c0.05-0.024,0.101-0.046,0.151-0.069
	c0.002-0.03,0.003-0.059,0.006-0.088c-2.452,1.898-6.277,2.107-7.088,6.063c-0.235,1.15-1.689,0.755-2.62,0.758
	c-11.161,0.025-22.322-0.026-33.48,0.053c-2.036,0.014-2.772-0.644-2.619-2.666c0.378-5.054,0.344-10.163,1.109-15.153
	c0.307-2.003,0.356-4.339,3.83-5.565c4.63-1.635,6.979-14.857,2.433-17.781c-1.59-1.022-1.58-1.846-1.483-3.258
	c0.407-5.941-0.067-11.747-2.452-17.322c-3.539-8.267-9.25-14.236-18.388-15.297c-9.625-1.116-17.662,2.654-23.244,10.673
	c-4.326,6.214-5.319,13.414-5.076,20.863c0.047,1.443,0.611,2.905-1.42,4.299c-4.332,2.975-2.661,16.267,2.349,18.001
	c2.627,0.908,2.879,2.28,3.436,4.315c1.484,5.422,0.236,10.992,1.096,16.433c0.295,1.867-0.615,2.454-2.418,2.444
	c-9.888-0.055-19.777-0.055-29.666-0.003c-1.659,0.01-2.133-0.584-2.188-2.207c-0.107-3.13-1.631-4.887-4.88-3.466
	c-1.301,0.568-1.51,0.143-2.235-0.706c-3.039-3.559-8.3-1.674-11.705-4.566c-0.248-0.209-1.313,0.363-1.882,0.745
	c-2.135,1.443-4.626,1.839-7,2.621c-2.062,0.678-4.45,0.906-5.947,2.75c-2.905,3.581-6.495,5.266-11.183,4.845
	c-5.032-0.451-10.091-0.605-15.139-0.884c-3.095-0.171-6.539,0.866-8.623-2.688c-0.343-0.584-1.111-0.572-1.894-0.292
	c-7.455,2.666-15.227,2.162-22.933,2.091c-3.657-0.033-5.338,1.221-5.231,5.124c0.092,3.352,0.243,5.392,4.703,5.254
	c6.734-0.209,10.412,3.022,11.594,8.96c0.977,4.917,1.816,9.863,2.68,14.802c0.33,1.884-1.979,8.188-3.479,9.706
	c-2.291,2.316-0.732,8.688,1.878,10.545c2.703,1.922,5.965,3.357,6.833,7.458c5.097,24.089,10.441,48.125,15.693,72.18
	c0.257,1.18,0.925,2.492-0.561,3.355c-3.243,1.89-2.841,5.091-2.427,7.896c1.413,9.566,2.603,19.146,3.337,28.788
	c0.315,4.135,2.618,5.838,6.153,4.198c3.359-1.558,4.102-0.319,4.878,2.709c4.411,17.228,8.97,34.419,13.604,51.588
	c0.61,2.263,1.541,4.129-1.209,5.668c-1.018,0.569-0.73,2.031-0.315,3.121c2.985,7.833,4.41,16.084,6.282,24.199
	c2.427,10.524,4.584,21.089,2.068,32.045c-0.656,2.863-0.548,6.119,0.448,9.204c0.636,1.973,0.672,4.257-0.063,6.263
	c-5.023,13.708-5.921,28.147-7.165,42.445c-1.378,15.854-2.393,31.784-2.54,47.691c-0.182,19.491-0.929,38.972-0.969,58.458
	c-0.089,42.805-0.049,85.607,0.02,128.411c0.004,2.844-0.466,4.319-3.66,5.288c-6.824,2.07-12.561,6.057-16.745,12.057
	c-6.926,9.927-8.9,24.896-1.243,34.126c11.9,14.342,37.663,21.384,56.205,5.917c16.274-13.574,13.331-38.174-2.051-48.171
	c-4.64-3.015-9.803-4.619-15.135-5.718c-1.466-0.303-2.09-0.625-2.212-2.281c-0.379-5.205-0.817-10.388-0.812-15.622
	c0.021-24.579,0.339-49.149,0.793-73.724c0.481-26.126-0.083-52.26,0.423-78.395c0.748-38.55,1.16-77.107-0.194-115.657
	c-0.174-4.92-0.606-9.883,0.98-14.822c0.767,1.093,1.121,2.21,1.448,3.412c1.725,6.337,2.62,12.836,3.942,19.249
	c1.687,8.176,3.905,16.242,5.702,24.399c0.596,2.703-1.237,6.754,4.232,6.126c0.321-0.038,1.021,1.834,1.281,2.882
	c1.466,5.945,2.859,11.908,4.265,17.868c5.149,21.816,8.795,43.952,14.163,65.737c2.015,8.171,4.055,16.434,1.466,25.487
	c-2.355,8.239,0.486,14.035,11.669,13.066c5.754-0.499,11.486-0.907,17.26-0.8c4.661,0.089,9.331,0.142,13.951-0.626
	c1.6-0.266,3.036,0.08,4.524,0.581c5.694,1.919,11.602,2.015,17.5,1.71c5.602-0.289,9.391-3.234,10.214-7.127
	c2.044-9.662,4.001-19.354,6.415-28.928c6.617-26.248,13.437-52.444,20.227-78.648c0.599-2.312-0.096-6.354,4.764-4.116
	c0.92,0.424,1.404-1.035,1.633-2.042c0.216-0.954-0.56-2.169,1.156-3.193c-0.678,12.028-1.619,23.687-1.94,35.363
	c-1.02,37.116-1.367,74.246-2.483,111.363c-0.611,20.311-1.012,40.63-1.698,60.946c-0.733,21.72-0.85,43.462-1.673,65.187
	c-0.148,3.872-1.113,5.354-4.866,6.525c-8.04,2.513-13.632,8.031-14.637,16.686c-0.864,7.451,3.372,13.043,9.065,17.061
	c17.689,12.488,36.616,11.821,54.636,2.283c12.183-6.448,12.398-20.152,1.314-28.491c-7.805-5.874-16.654-8.897-26.18-10.265
	c-2.173-0.312-3.291-0.924-3.487-3.605c-0.422-5.775-0.316-11.471-0.11-17.264c0.818-22.837,2.068-45.661,2.663-68.5
	c0.582-22.437,1.403-44.879,1.567-67.313c0.201-27.671,1.369-55.347,0.453-83.017c-0.575-17.365-0.014-34.729-0.773-52.104
	c-0.786-17.945-0.186-35.916,2.233-53.83c2.15-15.937,7.052-31.398,7.497-47.643c0.183-6.62,2.091-13.197,3.301-19.779
	c1.739-9.454,3.626-18.881,5.302-28.346c0.47-2.657,1.024-3.789,4.224-2.893c5.59,1.565,6.591,0.359,6.866-5.669
	c0.376-8.295,1.134-16.574,1.49-24.871c0.136-3.13,1.629-7.034-1.302-9.199c-2.542-1.878-2.153-3.84-1.882-6.017
	c0.781-6.236,1.564-12.48,2.649-18.668c2.694-15.37,5.264-30.774,8.536-46.022c0.977-4.557-0.701-10.653,5.354-13.365
	c0.246-0.11,0.336-0.755,0.353-1.156c0.078-1.801,0.919-2.541,2.737-3.098c2.324-0.712,3.938-8.29,2.207-9.595
	c-3.517-2.652-4.127-6.463-3.999-10.326c0.135-4.011-0.485-9.281,1.731-11.733c4.614-5.103,10.188-10.078,17.831-10.452
	C347.425,113.553,348.245,112.622,347.999,110.154z M301.34,108.725c0.11-1.269-0.091-2.62,1.759-2.721
	c3.35-0.182,6.697-0.423,10.049-0.518c0.971-0.027,2.802-0.34,2.316,1.37c-0.375,1.329,0.334,3.729-2.244,3.839
	c-1.79,0.077-3.586,0.015-5.272,0.015c-1.634,0.337-3.143,0.305-4.692,0.081C301.945,110.6,301.21,110.218,301.34,108.725z
	 M289.957,107.236c1.482-0.338,3.067-0.219,4.803-0.306c1.459,0.854,4.646-1.216,4.768,1.333c0.131,2.737-2.98,1.176-4.657,1.47
	c-1.518,0.266-3.091,0.425-4.624,0.338c-1.089-0.062-2.937,0.988-3.14-0.835C286.946,107.823,288.82,107.496,289.957,107.236z
	 M266.545,102.744c0.13-1.588,0.396-3.066,1.094-4.455c0.794-1.573,1.763-2.939,3.917-2.349c2.166,0.592,1.817,2.557,2.348,4.077
	c-0.733,2.263-1.534,4.5-2.176,6.78c-0.517,1.837-1.346,3.577-0.219,5.666c0.801,1.483,0.124,3.162-1.831,3.482
	c-2.022,0.332-2.244-1.207-2.213-2.693C267.544,109.718,266.25,106.323,266.545,102.744z M252.951,108.796
	c0.594-1.974,1.664-3.836,2.737-5.619c0.452-0.752,0.447-2.243,1.679-2.11c1.414,0.154,1.948,1.54,2.315,2.725
	c1.009,3.263-1.405,5.728-2.815,9.528c2.324-2.362,3.606-3.934,4.016,0.112c0.335,3.305,2.005,5.691,6.395,3.805
	c1.68-0.723,3.997-0.715,6.419,0.874c2.843,1.865,6.681-0.278,8.707-2.706c1.822-2.186,3.833-2.248,5.492-1.512
	c1.603,0.712,0.86,3.049,0.47,4.604c-1.735,6.9-4.108,13.699-3.055,20.994c1.375,9.52,3.467,18.895,5.49,28.295
	c1.811,8.417,4.604,16.625,5.518,25.236c0.71,6.689-1.558,12.727-4.562,18.412c-1.942,3.676-5.49,6.891-9.708,6.194
	c-5.38-0.89-9.583-4.518-11.924-9.709c-2.286-5.07-1.334-10.581-1.741-15.878c-0.917-11.964,1.379-23.91,0.704-35.876
	c-0.409-7.241-1.288-14.478-4.101-21.291c-0.416-1.007-0.669-2.161-1.806-2.703c1.011,6.164,2.786,12.154,3.643,18.386
	c0.874,6.362,1.108,12.743,0.428,18.939c-1.006,9.174-0.14,18.303-0.795,28.086c-5.509-6.318-12-11.439-14.905-19.124
	c-1.116-2.949-0.481-6.701-0.137-10.036c1.906-18.505-3.397-34.294-17.23-47.003c-0.913-0.839-1.65-1.866-2.518-2.859
	c9.848-3.502,17.522-1.253,24.112,6.559c1.991,2.36,3.136,5.807,6.849,6.375c-3.139-3.783-6.59-7.355-9.321-11.413
	C250.999,116.652,251.818,112.554,252.951,108.796z M240.146,246.887c0.798,7.102,1.594,14.194,2.716,21.25
	c0.477,3.006-0.427,4.055-3.769,4.083c-14.403,0.116-28.767-1.636-43.178-0.834c-14.382,0.933-28.786,0.457-43.181,0.625
	c-3.201,0.037-4.084-0.406-3.51-4.292c1.903-12.872,4.805-25.748,3.702-38.86c-1.062-12.663-3.659-25.109-7.124-37.35
	c-3.877-13.696-5.079-27.687-1.928-41.517c2.88-12.646,9.437-23.639,19.631-32.052c2.979-2.459,6.299-1.649,9.163,1.258
	c4.381,4.447,10.158,6.915,16.015,7.717c11.98,1.64,23.264,0.029,32.295-9.624c2.487-2.659,6.86-0.137,8.726,1.728
	c8.1,8.095,16.088,16.469,18.654,28.299c2.171,10,1.556,20.014,0.825,30.137c-0.795,11.024-5.931,20.905-7.426,31.65
	C240.014,221.624,238.717,234.176,240.146,246.887z M235.17,448.785c0.762,15.018-3.243,29.365-7.051,43.693
	c-2.334,8.781-3.903,17.696-4.715,26.734c-0.269,2.979-0.988,4.64-4.25,2.801c-2.879-1.623-5.419,0.281-8.047,0.882
	c-4.526,1.031-5.363,0.509-4.675-3.862c1.755-11.139,0.416-22.113-1.465-33.081c-2.901-16.909-4.176-33.84-0.458-51.328
	c1.556,1.508,0.913,3.763,3.902,4.618c-8.127-19.685-7.346-40.006-8.878-60.546c13.835,3.538,27.443,2.516,41.364,0.952
	c-0.68,3.485-1.125,6.932-2.83,9.871c-4.444,7.669-3.39,16.252-4.617,24.482C231.695,425.776,234.581,437.197,235.17,448.785z
	 M236.493,378.709c-10.647,0.73-21.295,1.81-31.966-0.483c-4.068-0.875-5.66-2.557-5.789-6.612
	c-0.527-16.742-2.436-33.433-1.78-50.219c0.046-1.161,0.41-2.58-1.595-3.375c0,6.808-0.172,13.391,0.041,19.961
	c0.303,9.336-1.552,18.382-3.105,27.491c-0.422,2.481-0.436,5.059-0.386,7.587c0.066,3.444-1.975,4.762-4.896,4.906
	c-10.945,0.542-21.882,2.061-32.856,0.162c-2.691-0.465-3.892-1.593-4.664-4.357c-3.797-13.586-4.851-27.491-5.928-41.468
	c-0.918-11.908,1.449-23.445,2.519-35.135c0.614-6.709,1.385-13.41,1.762-20.132c0.146-2.595,0.961-3.418,3.494-3.395
	c29.79,0.285,59.585-1.28,89.373,0.193c1.245,0.061,2.709-0.602,3.047,1.757c2.471,17.234,4.921,34.493,4.947,51.922
	c0.025,16.172-3.191,31.99-6.667,47.731C241.33,378.479,238.461,378.574,236.493,378.709z M187.382,440.042
	c2.151,12.591,1.884,24.97-0.089,37.585c-2.052,13.119-4.401,26.298-2.97,39.752c0.741,6.967-0.061,7.432-6.954,5.633
	c-0.671-0.175-1.31-0.471-1.969-0.694c-2.403-0.812-5.482,1.238-7.341-1.271c-1.538-2.075-0.929-4.938-1.224-7.372
	c-1.642-13.478-5.591-26.428-8.424-39.628c-2.68-12.49-2.46-25.028-0.619-37.678c1.316-9.045,1.169-18.237-0.121-27.345
	c-0.292-2.05-1.053-4.022,0.456-6.022c0.849-1.126-0.157-2.371-0.61-3.503c-2.582-6.438-4.647-13.032-6.43-20.252
	c12.722,2.409,24.727,1.397,36.715-0.142c2.113-0.272,3.427-0.372,3.405,2.487c-0.133,17.387,0.503,34.838-5.913,51.509
	C184.275,435.747,186.948,437.51,187.382,440.042z M172.763,114.996c0.783-2.419,3.405-1.315,5.228-1.35
	c5.919-0.115,11.842-0.042,17.763-0.042c6.626,0,13.253,0.032,19.877-0.022c1.613-0.014,3.35,0.149,4.001,1.569
	c0.601,1.312-1.175,2.034-1.955,2.923c-4.129,4.708-9.938,6.25-15.66,7.256c-8.768,1.541-17.216,0.09-24.85-4.855
	c-0.348-0.226-0.864-0.251-1.128-0.531C174.646,118.463,171.986,117.4,172.763,114.996z M221.739,113.604
	c9.442,0,17.732,0.008,26.023-0.006c1.446-0.002,3.016-0.125,2.802,1.995c-0.232,2.298-1.603,0.894-2.719,0.812
	c-4.856-0.353-9.621-1.684-14.623-0.465C229.714,116.795,226.05,116.271,221.739,113.604z M176.907,82.952
	c-0.369-2.208-1.583-4.19-0.87-6.828c-2.815,0.893-1.046,3.327-2.671,4.502c-3.304-3.464-4.103-7.685-4.235-12.155
	c-0.035-1.2,0.626-2.711,1.374-2.77c1.414-0.11,1.799,1.399,1.998,2.679c0.142,0.9-0.337,2.026,1.328,2.734
	c0.565-1.753,0.198-3.334-0.003-5.064c-1.121-9.621-1.071-19.062,5.039-27.401c6.796-9.274,24.631-14.603,34.848-0.083
	c5.079,7.219,6.521,15.381,4.926,24.059c-0.42,2.288-0.602,4.534,0.209,7.801c1.076-2.249,1.696-3.547,2.342-4.899
	c2.409,3.564,1.63,11.554-1.312,14.403c-0.439,0.427-0.864,0.692-1.472,0.492c-0.917-0.305-0.895-0.941-0.548-1.661
	c0.393-0.81,0.635-1.59-0.652-2.512c-0.796,1.422-1.292,2.635-1.48,4.033c-1.164,8.61-5.083,12.816-13.698,13.694
	c-5.415,0.551-10.945,0.517-16.318-0.937C180.53,91.636,177.747,87.988,176.907,82.952z M213.137,103.754
	c0.136,1.442-1.113,1.358-2.088,1.36c-9.856,0.01-19.711-0.026-29.566,0.038c-1.796,0.012-2.397-0.65-2.606-2.399
	c-0.435-3.65-0.537-7.284-0.307-11.385c8.398,5.983,28.469,6.46,35.143-1.013C214.772,95.045,212.723,99.365,213.137,103.754z
	 M147.271,106.946c10.157-0.045,20.314-0.07,30.471-0.087c6.632-0.011,13.263-0.002,19.895-0.002c0,0.06,0,0.121,0,0.18
	c16.788,0,33.576-0.021,50.364,0.048c1.146,0.006,3.182-1.062,3.276,1.312c0.087,2.183-1.817,1.645-3.128,1.772
	c-28.607,2.79-57.297,1.683-85.941,1.218c-4.862-0.079-10.029-0.726-15.049-1.168c-1.193-0.104-2.69,0.336-2.632-1.73
	C144.583,106.385,146.114,106.951,147.271,106.946z M145.848,113.588c7.658,0.037,15.316,0.018,22.975,0.018
	c-3.102,1.923-6.412,2.772-9.879,2.386c-4.327-0.48-8.603-1.13-12.938,0.048c-0.723,0.197-2.341,0.891-2.474-0.817
	C143.419,113.771,144.593,113.582,145.848,113.588z M122.66,95.859c3.606-1.238,4.78,1.271,5.385,3.937
	c1.205,5.298,3.674,10.68-0.185,15.941c0,0,0.001,0,0.002,0c3.096-2.621,4.421-5.791,3.089-9.817
	c-0.521-1.572-1.01-3.158-1.433-4.758c-0.371-1.408-0.62-3.01,1.177-3.527c1.58-0.456,3.317-0.054,3.74,1.798
	c1.238,5.419,2.114,10.907-0.906,16.072c-1.653,2.825-3.7,1.386-5.63,0.219c-0.013,0.004-0.024,0.008-0.036,0.013
	c-0.002,0.001-0.004,0.003-0.005,0.004c0.001,0,0.001-0.003,0.002-0.003c-2.782,0.94-5.125,1.263-3.339-2.914
	c1.878-4.397-1.149-7.667-2.278-11.41C121.707,99.642,118.389,97.325,122.66,95.859z M92.414,107.137
	c4.736,0.046,9.488,0.696,14.205-0.268c-0.352-0.68-1.845-0.636-1.437-1.641c1.031-2.53,7.376-3.347,9.015-1.14
	c2.213,2.984,5.409,5.689,2.854,10.179c-0.787,1.384-1.468,2.119-2.972,1.847c0.002,0.026,0.006,0.052,0.008,0.078
	c4.916,3.302,6.832,3.302,8.55-0.032c-0.018-0.016-0.037-0.028-0.054-0.044c0.02-0.043,0.035-0.087,0.054-0.131
	c-1.389,0.101-1.908,3.003-4.081,1.051c-1.776-1.595-0.276-2.85,0.04-4.067c1.094-4.207-2.28-10.138-7.59-12.597
	c1.631-0.69,3.067-1.531,4.614-1.898c2.19-0.52,3.878-0.1,5.075,2.39c2.358,4.905,4.373,9.694,1.941,15.121
	c0.033-0.002,0.064-0.011,0.099-0.01c-0.034,0.067-0.066,0.122-0.099,0.186c2.39,2.069,5.651,1.083,8.36,2.322
	c1.139,0.52,2.466-1.267,3.594-2.39c1.627-1.622,0.009-5.334,3.767-5.527c0.542-0.027-0.299-1.108-0.624-1.675
	c-1.428-2.491-2.648-5.079-0.233-7.607c1.543-1.614,3.068-2.067,3.925,0.811c2.827,9.494,1.257,19.004-7.324,24.385
	c-2.968,1.861-6.258,4.359-7.363,8.309c4.973-5.247,11.462-8.913,15.453-15.222c1.713-2.71,5.082-1.945,7.733-2.385
	c3.438-0.572,6.882,0.272,11.193,0.812c-9.349,7.738-14.561,17.446-17.858,28.022c-2.881,9.243-3.468,18.928-2.307,28.632
	c0.097,0.8,0.137,1.749-0.195,2.435c-4.257,8.833-10.053,16.604-16.646,23.812c-1.969,4.68-2.669,9.979-6.991,13.485
	c-5.411,4.391-8.999,4.796-14.133,0.231c-5.087-4.523-7.535-10.932-8.204-17.419c-0.436-4.221,1.354-8.731,2.43-13.04
	c3.847-15.389,7.113-30.897,9.927-46.503c1.233-6.849-0.4-13.584-0.855-20.365c-0.081-1.214-1.931-2.961,0.224-3.461
	c1.84-0.425,4.158-0.976,5.947,0.66c0.588,0.538,0.63,1.598,1.636,1.769c-0.001-0.019-0.004-0.037-0.005-0.058
	c-0.051-0.035-0.099-0.063-0.15-0.099c0.051,0.012,0.094,0.013,0.142,0.021c-0.191-3.115-1.261-5.861-3.391-8.194
	c-1.048-1.147-1.817-3.048-3.724-1.046c1.159,0.532,2.638,1.133,2.123,2.623c-0.46,1.334-1.995,0.499-3.018,0.508
	c-4.637,0.05-9.275-0.036-13.914-0.065c-0.97-0.007-2.48,0.999-2.47-0.987C89.695,107.292,91.018,107.124,92.414,107.137z
	 M75.183,107.107c0.18-1.581,1.252-1.534,2.464-1.41c1.388,0.142,2.791,0.145,4.186,0.207c0,0.025,0.002,0.05,0.002,0.074
	c1.537,0,3.078,0.076,4.61-0.02c1.606-0.101,2.323,0.47,2.15,2.135c-0.13,1.249,0.023,2.272-1.858,2.597
	c-3.423,0.592-6.637-0.316-9.923-0.722C75.199,109.77,75.029,108.456,75.183,107.107z M61.949,105.086
	c1.126-0.457,3.205-1.016,3.551-0.555c2.697,3.61,3.966-1.021,5.99-0.895c0.468,0.03,0.971-0.483,1.632-0.843
	c1.846,5.534,1.501,5.958-3.974,6.608c-2.253,0.267-4.573-1.172-6.793,0.469c-0.74,0.548-1.289-0.345-1.215-1.079
	C61.269,107.521,60.108,105.832,61.949,105.086z M58.003,110.463c-3.753,1.238-7.508,0.118-11.252,0.133
	c-1.293,0.005-1.389-1.61-1.332-2.73c0.068-1.344,0.51-2.497,2.202-2.482c1.687,0.013,3.374,0.002,5.062,0.002
	c0,0.014,0,0.028,0,0.043c1.685,0,3.376-0.083,5.056,0.024c1.592,0.102,1.978,1.236,2.043,2.667
	C59.844,109.482,59.283,110.041,58.003,110.463z M59.178,112.493c6.9-2.019,13.046-1.868,19.617-0.491
	c-1.388,1.313-2.53,0.525-3.586,0.451c-1.252-0.088-2.489-0.471-3.737-0.501c-1.252-0.03-2.391,0.463-3.171,1.354
	c-0.053,2.083,3.755-0.838,3.105,2.682c1.322,0.074,2.72-1.408,4.617-0.045c-3.338,1.048-6.055,3.249-9.533,3.02
	C62.494,118.7,62.958,113.787,59.178,112.493z M63.981,136.016c-0.596-4.273-1.467-8.51-2.286-12.751
	c-0.402-2.084-0.529-3.109,2.346-2.232c2.182,0.666,4.968,0.717,7.078-0.062c3.393-1.253,3.664,0.175,4.122,2.89
	c0.831,4.928,2.114,9.779,3.095,14.163c0.183,1.763-0.024,2.67-1.605,2.809c-1.529,0.135-3.035,0.54-4.551,0.826
	C64.873,143.035,64.959,143.022,63.981,136.016z M91.503,237.228c-5.565,2.31-5.702,2.203-6.919-3.497
	c-5.55-25.985-10.858-52.025-16.974-77.89c-0.594-2.509-1.733-5.976,3.544-5.733c2.866,0.13,6.394-2.501,8.548-1.523
	c2.576,1.171,1.784,5.416,2.302,8.367c3.611,20.576,7.215,41.155,10.847,61.726c1.035,5.862,2.154,11.709,3.246,17.623
	C94.511,236.956,92.984,236.612,91.503,237.228z M112.99,338.828c-2.366,0.488-1.888-1.763-2.159-2.745
	c-4.359-15.73-8.589-31.497-12.813-47.264c-0.647-2.418-1.256-4.79,1.249-6.806c2.465-1.984,1.62-5.555,3.478-8.18
	c3.851,20.59,7.652,41.012,11.523,61.421C114.567,336.833,115.293,338.353,112.99,338.828z M107.594,553.635
	c0.189-15.809,0.213-31.634,0.782-47.437c0.563-15.642,1.638-31.265,2.508-46.894c0.022-0.396,0.284-0.777,0.434-1.165l-0.071,0.137
	c0.359-5.194,0.753-10.385,1.061-15.582l2.886-16.497c0.896-3.062,1.837-6.114,3.408-9.127c1.464,34.421,1.36,68.81,0.825,103.208
	c-0.352,22.595-0.429,45.193-0.495,67.792c-0.079,27.963-0.019,55.928-0.745,83.931c-0.016-0.095-0.037-0.19-0.053-0.288
	l-0.088,3.27c-2.808,1.631-8.312-0.295-10.104-0.854c-0.191-0.05-0.383-0.098-0.573-0.146c-0.289,0.044-0.117-7.821-0.001-12.178
	C107.363,625.747,107.162,589.687,107.594,553.635z M107.306,679.423c1.93,2.212-0.934,5.981,3.09,6.348
	c2.485,0.228,5.066,0.548,7.425-1.217c1.068,5.661,1.501,11.184,0.817,17.026c-2.484-1.837-5.05-1.055-7.297-0.192
	c-3.719,1.43-4.14-0.222-4.073-3.311C107.397,692.051,107.306,686.019,107.306,679.423z M107.234,752.079
	c4.033-0.456,7.731,0.143,11.642,0.791C115.774,754.568,111.412,754.262,107.234,752.079z M137.912,715.933
	c6.541,8.125,5.12,20.183-3.184,26.578c-5.599,4.312-11.895,7.288-19.313,6.927c-7.486-0.39-14.801-1.541-20.517-6.961
	c-8.815-8.359-7.566-23.232,2.143-30.585c4.065-3.078,8.469-4.226,13.416-4.693C120.926,706.209,130.761,707.055,137.912,715.933z
	 M154.778,505.434c-3.97-16.646-7.813-33.323-11.391-50.057c-0.477-2.228-3.36-6.16,2.146-7.141
	c1.241-0.221,0.297-1.312,0.067-2.041c-5.468-17.248-9.965-34.773-14.132-52.36c-3.751-15.831-6.58-31.881-9.751-47.848
	c-0.271-1.361-0.194-2.834-0.036-4.227c0.24-2.132-0.718-3.419-2.699-3.399c-2.629,0.027-2.888-1.804-3.221-3.533
	c-5.061-26.264-10.009-52.552-15.227-78.785c-0.517-2.598,1.009-4.365,1.29-6.585c0.638-5.031-0.63-8.915-3.776-12.571
	c-1.664-1.932-1.28-4.568-1.703-6.834c-3.524-18.908-6.798-37.862-10.14-56.803c-0.629-3.571-1.333-7.135-1.804-10.727
	c-0.457-3.485,1.898-6.408,3.228-9.132c1.217-2.495,1.137-4.602,0.784-6.658c-0.699-4.055-3.646-6.791-7.215-8.564
	c-1.17-0.582-1.708-1.017-1.968-2.273c-1.015-4.894-2.204-9.75-3.254-14.635c-0.369-1.71,0.348-2.734,1.99-3.67
	c7.464-4.254,15.562-4.235,23.753-4.023c2.322,0.061,2.6,1.427,3.006,3.21c2.392,10.475,1.348,20.737-1.103,31.087
	c-3.784,15.982-7.109,32.074-10.676,48.107c-0.397,1.788,0.142,3.373,0.753,4.906c2.201,5.517,3.349,11.655,8.712,15.383
	c7.14,4.964,16.351,3.104,19.321-5.068c4.287-11.794,14.09-19.719,19.701-30.617c2.159,11.277,5.721,22.043,7.673,33.19
	c2.172,12.401,2.69,24.639,0.815,37.197c-1.793,12.017-3.728,24.043-4.645,36.21c-0.926,12.297-2.912,24.513-3.897,36.807
	c-0.424,5.279,0.477,10.666,0.825,16.003c1.27,19.514,7.145,38.018,11.852,56.839c3.354,13.414,3.851,27.422,1.629,41.407
	c-2.684,16.895-0.406,33.523,4.316,49.853c3.188,11.029,4.419,22.425,6.47,33.668c0.433,2.366-1.673,4.022-1.673,6.394
	c0,3.562-1.203,7.049-1.484,10.744C160.458,527.74,157.447,516.627,154.778,505.434z M189.809,557.504
	c1.49,10.76,1.125,12.906-9.258,14.498c-3.865,0.593-7.794,0.771-11.695,1.138c-9.384,0.653-10.308-5.347-8.491-13.378
	c1.341-5.936,4.345-11.434,4.85-17.638c0.363-4.467,1.088-8.911,1.298-13.382c0.172-3.651,1.98-4.829,5.343-4.916
	c2.16-0.055,4.24,0.307,6.14,1.042c2.728,1.053,5.393,1.087,7.655-0.444c2.136-1.445,2.666,0.106,2.714,1.254
	c0.366,8.655,4.412,17.114,1.254,25.996C189.004,553.407,189.533,555.525,189.809,557.504z M198.829,563.454
	c-0.087,2.291-1.498,2.04-2.861,1.935c-1.501-0.114-3.776,0.841-3.792-1.957c-0.029-5.23-2.114-10.377,0.317-15.745
	c1.456-3.217-0.689-6.861-0.685-10.401c0.003-3.45-0.917-6.91-1.525-10.352c-0.263-1.501-0.288-3.437-1.223-4.36
	c-4.665-4.603-3.631-10.462-3.382-15.84c0.7-15.132,3.752-30.021,5.316-45.071c0.73-7.035-0.97-13.991-1.93-20.928
	c-0.69-4.978-1.486-9.67,0.264-14.747c2.948-8.55,3.065-17.663,3.42-26.594c0.419-10.565-0.114-21.172,1-31.715
	c0.406-3.857,1.281-7.666,2.071-12.248c2.08,8.614,1.24,16.56,1.999,24.394c1.58,16.315,0.997,32.856,5.23,48.886
	c0.732,2.769-0.53,5.202-0.862,7.793c-1.562,12.168-2.521,24.355-0.843,36.595c1.232,8.994,2.462,17.99,3.833,26.966
	c0.993,6.511,2.008,14.058-0.979,19.114c-4.742,8.026-3.838,16.461-5.598,24.658c-0.247,1.156-0.331,2.259,0.131,3.302
	C201.136,552.58,199.039,558.011,198.829,563.454z M223.365,573.855c-1.367,0.244-2.815,0.036-4.871,0.036
	c-2.45,0.082-5.477-0.23-8.55-0.772c-8.504-1.506-10.545-4.906-9.013-14.067c0.566-3.382,0.544-6.327,0.012-9.688
	c-1.283-8.086,0.152-16.122,1.996-24.044c0.2-0.854,0.443-1.873,1.568-1.097c3.346,2.314,6.581,0.31,9.61-0.492
	c5.896-1.563,11.078,2.508,11.136,8.6c0.086,9.166,0.414,18.517,5.204,26.893c0.901,1.571,1.311,3.305,1.443,5.197
	C232.411,571.628,229.222,572.804,223.365,573.855z M262.182,723.312c0.127-1.373,1.267-1.643,2.47-1.803
	c2.876-0.382,5.563-1.306,8.214-3.338c0.969,2.34,1.051,4.445,1.113,6.543c0.062,2.103,0.013,4.21,0.013,6.379
	c-1.928,0.195-3.465-1.161-5.559-0.911C265.399,730.542,261.903,726.311,262.182,723.312z M276.793,738.079
	c8.962-0.522,18.431,1.7,25.459,8.511c4.321,4.19,3.237,10.721-1.962,14.11c-5.688,3.708-12.113,4.819-20.488,4.811
	c-7.776-0.464-16.878-2.038-24.654-8.086c-3.882-3.02-6.147-7.271-5.185-10.23c1.338-4.114,6.606-7.22,11.304-7.84
	C266.425,738.672,271.792,738.371,276.793,738.079z M278.673,519.073c-0.263,27.815-0.63,55.632-1.29,83.44
	c-0.66,27.794-1.628,55.58-2.713,83.362c-0.181,4.637-0.953,9.292-0.573,13.927c0.331,4.041-1.062,5.72-5.094,5.194
	c-0.817-0.106-1.659-0.015-2.6-0.26l-3.809-0.376c3.435-84.712,2.38-169.553,7.835-254.222c0.105-1.923,0.307-5.504,0.374-5.91
	c0,0,0.356-2.518,5.812-1.618c0,0,1.112,0.053,1.432,1.22c0,0,0.35,13.922,0.32,17.614c0.187,9.468-0.512,18.979,0.43,28.419
	C279.765,499.579,278.764,509.338,278.673,519.073z M273.557,424.756c0.632-2.535,1.287-5.065,1.92-7.551
	c1.977,0.197,2.129,1.475,2.148,2.771c0.065,4.05,0.126,8.099,0.097,12.149c-0.007,0.732,0.204,2.094-0.64,2.084
	c-0.857-0.011-2.095-0.29-2.469-1.702C273.938,429.954,272.878,427.479,273.557,424.756z M278.494,330.798
	c-0.17,1.141-0.112,2.757-1.271,2.863c-3.759,0.344-2.853,2.981-3.006,5.243c-1.089,16.072-4.469,31.748-7.91,47.44
	c-1.642,7.482-1.367,15.255-3.605,22.781c-3.012,10.125-4.903,20.578-7.446,30.849c-0.937,3.789-1.707,8.328-0.356,11.209
	c2.735,5.838,0.805,10.836-0.342,16.129c-1.238,5.713-2.741,11.369-4.14,17.047c-5.688,23.099-12.206,45.975-18.562,68.893
	c-0.205,0.739-0.484,1.285-1.324,1.776c-1.519-3.73-2.67-7.453-2.985-11.52c-0.503-6.5-0.053-13.085-2.913-19.38
	c-1.003-2.205,0.229-5.471,0.583-8.235c1.896-14.841,6.45-29.104,9.526-43.69c2.52-11.94,2.963-23.911,0.727-35.953
	c-1.638-8.815-0.784-17.622,0.115-26.447c1.833-17.976,9.631-34.58,11.877-52.466c1.731-13.791,3.632-27.461,2.474-41.513
	c-1.14-13.841-2.849-27.591-4.559-41.351c-1.243-10.005-2.701-19.98-3.997-29.978c-0.234-1.81-0.231-3.663-0.199-5.494
	c0.267-16.437,1.373-32.735,7.344-48.327c1.075-2.804,1.466-5.869,2.301-9.361c3.363,5.782,7.669,10.175,11.931,14.645
	c2.403,2.521,3.866,5.768,4.738,9.259c1.236,4.941,3.949,8.845,8.396,11.604c6.774,4.201,13.759,2.403,17.475-4.825
	c1.592-3.097,2.966-6.311,3.742-9.729c0.212-0.941,0.575-1.15,1.366-0.695c0.002-0.003,0.002-0.008,0.003-0.013
	c0.003-0.045,0.008-0.09,0.011-0.136c-0.695-18.927-7.474-36.682-10.669-55.133c-1.793-10.348-0.805-20.356,2.216-30.294
	c0.426-1.405,0.605-2.487,2.582-2.445c5.886,0.127,11.79-0.15,16.956,3.512c1.063,0.753,2.229,1.188,1.916,2.824
	c-0.941,4.924-1.771,9.872-2.818,14.773c-0.291,1.364-0.765,2.432-2.859,2.859c-4.789,0.977-7.719,10.472-5.464,14.831
	c2.561,4.951,3.97,10.123,2.762,16.052c-2.218,10.889-3.724,21.924-4.619,33.021c0.002,0.053,0.007,0.106,0.009,0.16
	c-0.008-0.004-0.015-0.007-0.021-0.012c-1.293,9.681-2.487,19.358-3.959,28.993c-0.567,3.708,0.192,7.537-3.682,10.785
	c-2.554,2.142-1.829,7.108-2.141,10.836c-1.243,14.797-2.493,29.58-4.958,44.246C281.821,307.859,280.198,319.336,278.494,330.798z
	 M295.318,293.558c-2.205,12.277-5.646,24.316-6.832,36.802c-0.397,4.185-4.873,5.754-8.291,3.271
	c-0.98-0.713-0.254-1.501-0.137-2.264c1.62-10.531,3.297-21.055,4.847-31.595c1.509-10.265,3.055-20.529,3.74-30.895
	c0.239-3.601,1.295-7.094,1.6-10.719c0,4.903,0.679,9.928-0.188,14.674c-0.898,4.927,0.927,9.026,3.624,11.909
	C296.571,287.826,295.847,290.621,295.318,293.558z M320.771,152.097c-0.752,5.651-1.957,11.241-2.926,16.866
	c-3.505,20.35-8.041,40.521-10.592,61.039c-0.464,3.738-1.264,7.435-1.952,11.405c-0.364,0.039-0.517,0.097-0.642,0.061
	c-10.519-2.957-10.326-3.05-8.243-15.28c1.739-10.202,2.713-20.534,4.103-30.797c1.5-11.071,3.074-22.131,4.648-33.192
	c0.591-4.147,1.206-8.292,1.944-12.415c0.419-2.349,0.703-4.802,4.038-1.811c1.288,1.154,4.484,0.783,5.856,0.425
	C321.266,147.284,321.064,149.888,320.771,152.097z M323.33,121.355c-2.224-0.019-4.449-0.06-6.673-0.093
	c0.033,0.052,0.057,0.097,0.095,0.151c-0.022-0.011-0.042-0.021-0.063-0.034c1.991,2.997,5.305,1.744,8.119,2.439
	c-0.5,4.682-0.964,9.382-1.519,14.072c-0.252,2.125-0.524,4.432-3.716,2.926c-0.121-0.057-0.277-0.034-0.418-0.049
	c-10.48-1.088-10.545-1.104-8.001-11.359c0.473-1.902,0.896-3.972,0.926-5.722c0.074-4.616,2.082-3.623,4.608-2.308
	c-0.027-0.042-0.058-0.075-0.085-0.118c0.018,0,0.035,0,0.053,0.001c-1.551-2.393,1.344-1.952,2.279-3.161
	c-2.677-1.036-5.776-0.73-8.203-2.946c3.873-2.981,7.967-3.737,12.643-3.041c-0.847,1.582-2.936,0.73-3.493,2.42
	c0.758,1.504,2.269,0.837,3.273,0.735c2.993-0.307,2.276,3.227,4.274,3.812C326.653,120.901,325.119,121.372,323.33,121.355z
	 M329.42,110.336c-1.948-0.021-3.897-0.005-5.846-0.005c0-0.041,0-0.08,0-0.12c-1.537,0-3.081,0.073-4.611-0.027
	c-0.939-0.062-2.381,0.58-2.365-1.355c0.013-1.42,0.374-2.605,1.96-2.684c3.615-0.176,7.238-0.258,10.857-0.276
	c1.36-0.006,2.036,1.042,1.974,2.248C331.331,109.211,330.95,110.354,329.42,110.336z M344.419,110.064
	c-2.925,0.12-5.849,0.255-8.771,0.431c-1.453,0.087-2.88,0.319-2.909-1.858c-0.023-1.82,0.631-2.995,2.574-3.094
	c1.113-0.057,2.232-0.01,4.209-0.01c1.249-0.199,3.312,0.129,5.374,0.539c1.259,0.25,1.384,1.188,1.366,2.231
	C346.242,109.525,345.588,110.017,344.419,110.064z"/>
</svg>
