<?xml version="1.0" encoding="utf-8"?>
<!-- Generator: Adobe Illustrator 16.2.1, SVG Export Plug-In . SVG Version: 6.00 Build 0)  -->
<!DOCTYPE svg PUBLIC "-//W3C//DTD SVG 1.1//EN" "http://www.w3.org/Graphics/SVG/1.1/DTD/svg11.dtd">
<svg version="1.1" id="l_x5F_0Tqr9wcyXu60zVUGvl4o8TJfwrywPi6EWA_x5F_kyx9-w_xA0_Image_1_"
	 xmlns="http://www.w3.org/2000/svg" xmlns:xlink="http://www.w3.org/1999/xlink" x="0px" y="0px" width="188px" height="240px"
	 viewBox="0 0 188 240" enable-background="new 0 0 188 240" xml:space="preserve">
<g>
	<path d="M0,36.921c11.253,6.797,22.507,13.593,33.758,20.392c1.265,0.764,2.498,1.583,3.785,2.307
		c0.645,0.364,1.231,1.067,2.173,0.448c0.37-0.243,0.809,0.28,1.176,0.516c5.317,3.428,10.711,6.744,15.917,10.333
		c7.044,4.856,14.822,8.061,22.835,10.842c3.101,1.076,5.919,2.767,8.581,4.694c0.245,0.177,0.632,0.571,0.578,0.686
		c-0.588,1.244,0.517,1.331,1.135,1.65c3.58,1.85,7.183,3.655,10.773,5.484c0.622,0.317,1.135,0.664,1.209-0.501
		c0.244-3.786,1.177-7.376,2.867-10.81c2.134-4.339,3.899-8.865,6.149-13.139c1.683-3.194,3.691-6.221,5.396-9.423
		c1.53-2.871,1.769-5.853,1.527-9.001c-0.321-4.189-0.768-8.403-0.401-12.589c0.312-3.554,1.526-6.969,2.486-10.408
		c0.394-1.41,0.707-2.841,1.229-4.224c0.9-2.378,2.886-3.371,5.057-4.058c1.486-0.47,2.616,0.502,3.571,1.476
		c1.994,2.032,3.879,4.171,5.874,6.202c3.009,3.062,4.881,6.865,6.992,10.516c0.898,1.554,1.79,3.113,2.658,4.683
		c0.359,0.649,0.852,1.137,1.45,1.564c1.106,0.791,1.892,1.035,3.365,0.137c5.813-3.546,12.901-0.397,14.363,5.292
		c0.639,2.485,0.616,4.871-0.81,7.122c-0.679,1.073-0.436,2.305-0.322,3.437c0.278,2.763,1.257,5.374,1.936,8.051
		c1.708,6.731,4.491,13.176,5.369,20.126c0.117,0.926,0.323,1.851,0.575,2.75c0.653,2.324-0.002,4.298-1.688,5.886
		c-1.831,1.724-3.842,3.078-6.606,2.817c-1.231-0.115-2.503,0.217-3.759,0.327c-3.364,0.292-6.142-1.053-8.592-3.189
		c-0.568-0.496-1.126-0.685-1.83-0.613c-1.881,0.191-3.787,0.25-5.635,0.607c-1.729,0.334-2.896,1.751-4.239,2.781
		c-1.974,1.516-3.626,3.342-5.147,5.332c-1.504,1.967-3.84,2.954-5.894,4.237c-1.125,0.703-2.138,1.477-3.016,2.457
		c-0.52,0.58-0.921,1.35-1.95,1.138c-0.312-0.064-0.505,0.337-0.66,0.612c-0.454,0.807-0.895,1.621-1.409,2.554
		c6.945,1.07,13.536,2.938,19.984,5.292c2.996,1.094,5.772,2.649,8.167,4.807c0.442,0.398,0.933,0.708,1.482,0.922
		c3.508,1.368,4.863,4.245,5.562,7.687c0.687,3.384,0.111,6.272-2.791,8.406c-1.262,0.928-2.62,1.726-3.874,2.665
		c-6.345,4.751-13.671,7.941-20.058,12.61c-3.264,2.386-6.351,5.013-9.563,7.472c-0.593,0.455-0.023,0.895-0.243,1.324
		c-1.303,2.542-0.203,4.5,1.351,6.558c2.029,2.688,4.027,5.4,6.104,8.053c0.726,0.926,1.304,1.969,1.561,3.104
		c0.583,2.578-2.001,4.781-4.755,4.211c-2.792-0.578-5.038-2.185-7.134-3.911c-4.352-3.583-8.577-7.322-12.783-11.077
		c-1.236-1.104-2.15-2.513-2.833-4.074c-0.979-2.236-0.051-3.906,1.108-5.007c1.467-1.394,3.076-2.644,4.664-3.906
		c0.996-0.792,2.11-1.374,3.455-1.261c0.337,0.028,0.584-0.105,0.848-0.318c5.303-4.288,9.949-9.155,13.372-15.104
		c0.892-1.55,1.848-3.055,3.273-4.682c-1.682,0.127-3.048,0.129-4.376,0.35c-3.176,0.528-6.316-0.06-9.467-0.2
		c-2.241-0.1-4.477-0.408-6.701-0.719c-1.191-0.167-1.443,0.565-1.703,1.413c-1.546,5.042-3.635,9.881-5.512,14.799
		c-0.663,1.733-1.7,3.277-2.985,4.631c-0.291,0.307-0.451,0.643-0.57,1.046c-1.252,4.218-3.954,7.404-7.331,10.067
		c-0.524,0.414-0.881,0.842-1.115,1.433c-3.548,8.967-7.487,17.783-10.268,27.042c-0.684,2.277,0.825,5.587,3.036,6.428
		c3.066,1.167,6.085,2.436,8.915,4.104c1.748,1.031,3.464,2.107,4.151,4.223c0.595,1.829-0.093,3.375-1.94,3.902
		c-3.232,0.922-6.481,0.718-9.73,0.016c-4.67-1.01-9.345-1.996-14.02-2.984c-0.845-0.178-1.626-0.521-2.37-0.93
		c-2.144-1.18-2.906-3.276-2.159-5.62c0.487-1.53,0.927-3.078,1.306-4.637c0.303-1.245,0.56-2.45,1.958-2.977
		c0.46-0.173,0.401-0.745,0.542-1.139c1.015-2.829,1.594-5.76,2.055-8.723c0.574-3.681,1.308-7.355,1.438-11.075
		c0.099-2.833,0.877-5.35,2.235-7.774c1.646-2.938,3.368-5.841,5.38-8.529c2.575-3.441,3.341-7.331,3.605-11.469
		c0.224-3.5,0.703-6.984,0.999-10.481c0.254-3.01,0.387-6.03,0.612-9.042c0.351-4.695,0.339-9.402,1.513-14.044
		c1.258-4.972,4.213-8.642,7.911-11.895c2.033-1.788,4.087-3.55,6.143-5.311c0.569-0.487,0.6-0.727-0.159-1.112
		c-4.597-2.336-9.142-4.777-13.754-7.082c-1.383-0.691-2.949-1-4.318-1.771c-0.261-0.147-0.661-0.283-0.83,0.101
		c-0.502,1.142-1.232,0.539-1.901,0.277c-2.357-0.92-4.105-2.721-6.01-4.271c-3.662-2.98-8.034-4.767-11.964-7.291
		c-1.085-0.697-2.221-1.316-3.316-1.961c-0.376,0.348-0.176,0.61-0.072,0.902c1.168,3.27,2.678,6.435,3.228,9.898
		c0.475,2.991,0.586,5.988,0.242,9.023c-0.238,2.102-0.524,4.178-1.204,6.173c-0.477,1.4-1.087,2.779-2.379,3.658
		c-1.471,1.001-2.869,0.669-3.94-0.873c-1.42-2.043-1.966-4.402-2.327-6.792c-0.694-4.599-0.2-9.148,0.796-13.658
		c0.223-1.011,0.542-1.988,1.151-2.837c1.438-2.001,1.083-4.455,1.706-6.661c0.097-0.344-0.206-0.485-0.425-0.61
		c-2.562-1.461-5.132-2.909-7.715-4.369c-0.799,3.001,0.206,5.689,1.104,8.254c1.699,4.856,1.589,9.82,1.421,14.799
		c-0.062,1.856-0.358,3.735-1.016,5.524c-0.224,0.607-0.526,1.146-0.939,1.601c-0.711,0.782-1.486,0.861-2.342,0.112
		c-1.063-0.932-1.41-2.222-1.582-3.477c-0.399-2.913-0.262-5.851-0.242-8.792c0.033-4.637,1.439-9.009,2.085-13.518
		c0.322-2.251-0.115-4.323-2.536-5.66c-3.847-2.124-7.541-4.541-11.265-6.869C20.703,58.532,10.209,53.003,0,46.976
		c0-0.182,0-0.362,0-0.543c2.6,1.42,5.223,2.799,7.795,4.267c7.196,4.109,14.369,8.26,21.563,12.373
		c0.371,0.211,0.812,0.925,1.31,0.062c0.501-0.868-0.249-0.952-0.713-1.23c-7.328-4.388-14.802-8.521-22.273-12.656
		c-2.55-1.411-5.12-2.784-7.681-4.174c0-0.272,0-0.544,0-0.816c1.57,0.874,3.152,1.727,4.708,2.624
		c9.599,5.539,19.314,10.869,29.036,16.188c2.796,1.529,2.79,1.47,4.383-1.286c0.402-0.696,0.416-1.013-0.323-1.451
		c-3.403-2.017-6.767-4.102-10.152-6.15C18.437,48.607,9.218,43.037,0,37.465C0,37.283,0,37.103,0,36.921z M148.093,74.061
		c-0.675,1.115-1.295,2.099-1.875,3.107c-0.477,0.829-1.295,1.32-2.113,1.26c-2.709-0.197-5.191-0.957-6.823-3.419
		c-1.546-2.334-2.044-4.959-2.197-7.664c-0.104-1.844-0.15-3.714,0.281-5.531c0.169-0.711-0.43-0.667-0.692-0.952
		c-0.331-0.36-0.407,0.022-0.538,0.209c-1.905,2.736-4.636,4.354-7.669,5.479c-2.169,0.805-4.131,1.918-5.984,3.277
		c-0.572,0.42-1.221,0.737-1.848,1.079c-1.479,0.806-2.765,0.388-3.925-0.67c-0.435-0.396-0.943-0.769-1.227-1.262
		c-0.773-1.35-1.117-0.651-1.609,0.208c-1.607,2.809-2.752,5.83-4.1,8.758c-2.127,4.619-4.646,9.074-5.276,14.282
		c-0.315,2.615-0.416,2.747,1.898,3.928c3.047,1.557,6.235,2.851,9.119,4.71c4.147,2.673,8.246,5.42,12.365,8.137
		c0.443,0.293,0.861,0.739,1.455,0.354c2.071-1.342,4.496-2.295,5.992-4.315c2.159-2.918,4.901-5.146,7.748-7.291
		c0.369-0.277,0.625-0.518,0.464-0.981c-0.318-0.913-0.006-1.785,0.223-2.63c1.18-4.362,2.91-8.538,4.388-12.799
		c0.384-1.107,0.758-2.218,1.553-3.106C149.265,76.487,149.276,76.497,148.093,74.061z M109.178,117.882
		c-4.863,0.33-8.351-1.759-11.569-4.624c-1.51-1.344-2.927-2.811-4.627-3.945c-0.433-0.288-0.729-0.495-1.112,0.009
		c-1.489,1.958-3.88,3.221-4.09,6.161c-0.111,1.56-0.647,3.126-0.895,4.721c-0.584,3.755-0.128,7.263,2.015,10.459
		c2.165,3.23,4.652,6.095,8.699,6.958c3.333,0.71,6.713,1.119,10.099,1.527c4.075,0.492,8.156,0.863,12.251,1.017
		c3.25,0.122,6.479-0.796,9.689-0.683c2.618,0.092,3.766-0.887,4.304-3.167c0.041-0.172,0.123-0.334,0.187-0.5
		c1.625-4.207,3.176-8.436,4.109-12.867c0.215-1.022,0.112-1.655-1.073-1.97c-2.888-0.767-5.735-1.684-8.614-2.486
		c-5.13-1.43-10.343-1.785-15.631-1.133c-1.834,0.227-3.444,0.771-4.727,2.233c-1.025,1.169-2.236,2.178-3.248,3.38
		C105.897,121.053,107.389,119.583,109.178,117.882z M141.386,57.083c0.709-0.989,0.693-0.981,0.251-1.995
		c-0.101-0.23-0.122-0.55-0.05-0.791c0.493-1.661,0.725-3.413,1.837-4.853c0.538-0.696,1.307-1.157,1.964-0.757
		c0.784,0.477,0.937,0.028,1.266-0.393c0.387-0.496,0.768-0.999,1.175-1.479c0.456-0.537,0.426-0.871-0.281-1.171
		c-1.607-0.683-2.59-1.966-3.356-3.504c-3.756-7.543-8.465-14.4-14.709-20.129c-0.864-0.793-1.777-1.729-3.059-1.359
		c-2.255,0.65-4.252,1.715-4.946,4.24c-0.449,1.634-0.798,3.304-1.375,4.891c-2.557,7.044-2.407,14.273-1.687,21.572
		c0.302,3.07,0.167,6.108-1.443,8.909c-0.982,1.71-1.812,3.509-2.772,5.233c-1.229,2.207-1.257,2.193,0.522,3.999
		c0.221,0.225,0.455,0.442,0.705,0.634c0.84,0.643,1.763,0.882,2.751,0.392c0.68-0.337,1.35-0.713,1.973-1.146
		c1.701-1.182,3.393-2.393,5.378-3.046c1.631-0.536,3.125-1.306,4.571-2.212c2.555-1.603,4.193-3.555,3.941-6.909
		c-0.241-3.196-0.81-6.214-2.36-9.019c-0.76-1.375-0.794-2.783-0.533-4.307c0.532-3.104,0.508-6.163-1.406-8.901
		c-0.152-0.217-0.28-0.456,0.093-0.733c1.126,1.343,1.721,2.897,1.96,4.599c0.113,0.808,0.22,1.567,0.885,2.176
		c2.236,2.05,4.343,4.231,6.43,6.435c0.652,0.687,0.883,1.302,0.72,2.276C139.397,52.318,139.6,54.826,141.386,57.083z
		 M145.385,139.64c-0.462,0.062-0.728,0.14-0.987,0.125c-4.711-0.265-9.413,0.269-14.121,0.142c-1.226-0.034-2.069,0.352-2.84,1.405
		c-1.677,2.291-2.973,4.816-4.595,7.13c-3.287,4.69-7.269,8.722-11.794,12.226c-0.347,0.269-0.947,0.398-0.503,1.125
		c1.308,2.141,2.753,4.097,5.223,5.042c1.059,0.404,1.997,0.37,2.897-0.346c0.81-0.644,1.638-1.265,2.458-1.895
		c3.675-2.821,7.067-6.006,11.069-8.405c6.426-3.852,12.977-7.506,19.064-11.902c1.903-1.375,3.893-2.665,4.354-5.213
		c0.267-1.479,0.184-2.977-0.193-4.426c-0.77-2.957-2.037-5.546-5.175-6.713c-0.705-0.262-1.325-0.718-1.915-1.225
		c-2.546-2.189-5.456-3.746-8.623-4.847c-0.483-0.167-0.737-0.207-0.841,0.402c-0.956,5.59-3.031,10.825-5.189,16.025
		c-0.429,1.036-0.11,1.138,0.795,1.06c3.072-0.26,6.151-0.256,9.23-0.179C144.207,139.183,144.781,139.01,145.385,139.64z
		 M93.859,162.937c2.404-2.114,4.373-4.447,5.596-7.305c-5.828-0.687-11.256-2.441-16.426-5.031
		c-0.668,1.671-0.392,3.406-0.646,5.079c-0.392,2.59-0.887,5.092-2.387,7.312c-1.429,2.113-2.826,4.249-4.173,6.415
		c-1.723,2.771-3.643,5.484-4.176,8.792c-0.314,1.95-0.158,3.979-0.492,5.924c-0.98,5.714-1.347,11.558-3.456,17.046
		c-0.188,0.488-0.237,0.881,0.553,1.015c1.536,0.258,3.031,0.756,4.565,1.026c2.925,0.516,3.227,0.274,4.094-2.564
		c0.641-2.095,1.274-4.197,2.028-6.253c2.492-6.798,5.223-13.503,7.934-20.217c0.122-0.301,0.478-0.616,0.261-0.98
		c-0.225-0.377-0.581,0.393-0.863-0.023c3.964-2.915,7.5-6.163,9.392-11.019C94.876,162.297,94.67,163.125,93.859,162.937z
		 M162.752,58.896c-0.163-0.125-0.325-0.25-0.487-0.375c-1.906,2.039-3.842,4.05-5.709,6.123c-1.557,1.728-3.372,3.137-5.355,4.291
		c-0.93,0.541-0.399,0.763,0.007,1.057c0.274,0.198,0.649,0.274,0.991,0.358c1.515,0.374,3.044,0.697,4.546,1.116
		c0.441,0.124,1.145,0.042,1.146,0.857c0.001,1.218,0.235,2.417,0.305,3.636c0.224,3.935-0.143,7.861-0.065,11.793
		c0.021,1.082,0.545,2.094,0.376,3.553c-0.785-1.383-0.996-2.555-0.864-3.734c0.157-1.396-0.576-1.734-1.716-1.727
		c-0.627,0.004-1.247,0.043-1.878,0.143c-1.021,0.161-1.949,0.65-2.983,0.719c1.77-1.366,3.841-1.523,6.212-1.344
		c-2.259-2.295-5.051-3.089-7.391-4.152c0.806-1.514-0.289-2.556-0.506-3.765c-2.31,1.633-2.788,4.128-3.557,6.437
		c-1.295,3.891-3.063,7.628-3.818,11.7c-0.175,0.94,0.059,1.262,1.013,1.154c2.084-0.235,4.173-0.424,6.291-0.635
		c-0.123-0.559-0.741-0.862-0.58-1.481c0.478,0.177,0.66,0.613,0.936,0.946c1.806,2.182,4.08,3.66,6.832,4.282
		c2.105,0.476,4.226-0.384,6.321-0.213c2.824,0.229,4.826-1.123,6.631-2.958c1.347-1.369,1.783-3.047,1.314-4.949
		c-0.256-1.039-0.499-2.09-0.637-3.15c-0.873-6.681-3.524-12.889-5.192-19.359C164.052,65.795,162.825,62.481,162.752,58.896z
		 M143.732,53.458c0.095,1.167-0.484,2.026-1.041,2.796c-1.544,2.138-2.075,4.343-1.711,7.046c0.823,6.13,6.423,6.935,10.788,4.589
		c1.748-0.939,3.206-2.319,4.583-3.77c1.369-1.441,2.878-2.744,4.308-4.121c2.497-2.405,4.318-5.113,3.527-8.948
		c-0.719-3.483-2.691-5.713-5.979-6.786c-3.426-1.116-6.569-0.478-9.222,1.998c-1.354,1.265-2.308,2.872-3.268,4.449
		c-0.25,0.41-0.397,0.884-1.094,0.854c0.162-0.326,0.286-0.551,0.389-0.786c0.225-0.512,0.77-1.182,0.14-1.546
		c-0.618-0.357-1.043,0.303-1.475,0.822c-1.006,1.21-0.908,2.788-1.54,4.11c-0.135,0.281-0.135,0.691,0.194,0.839
		c0.387,0.176,0.497-0.226,0.672-0.479C143.229,54.203,143.209,53.73,143.732,53.458z M86.819,116.502
		c-1.35,3.446-2.19,7.02-2.265,10.696c-0.08,3.885-0.432,7.749-0.642,11.622c-0.192,3.542-0.65,7.071-1.011,10.604
		c-0.062,0.603,0.329,0.77,0.742,0.972c4.602,2.258,9.492,3.627,14.486,4.659c0.981,0.203,1.757-0.166,2.118-1.181
		c0.447-1.257,0.873-2.523,1.354-3.768c1.269-3.284,2.618-6.539,3.595-9.928c0.102-0.354,0.51-0.731-0.285-0.813
		c-1.335-0.139-2.674-0.298-3.992-0.549c-2.49-0.475-5.06-0.716-7.228-2.246c-1.56-1.102-2.934-2.399-4.08-3.926
		c-2.079-2.772-3.591-5.732-3.492-9.353C86.183,121,86.466,118.754,86.819,116.502z M118.835,167.103
		c-1.778,1.137-3.361,0.348-4.912-0.607c-1.743-1.073-3.004-2.664-3.787-4.455c-0.665-1.522-1.348-1.065-2.261-0.543
		c-0.35,0.199-0.709,0.396-1.016,0.653c-1.52,1.27-3.084,2.495-4.513,3.86c-1.282,1.225-1.562,2.734-0.792,4.418
		c0.606,1.324,1.421,2.504,2.452,3.495c4.162,4,8.642,7.642,13.057,11.351c1.972,1.656,4.137,3.152,6.756,3.734
		c2.415,0.536,4.675-1.4,4.139-3.641c-0.236-0.983-0.758-1.906-1.396-2.716c-2.248-2.858-4.409-5.778-6.561-8.709
		c-1.337-1.82-2.32-3.595-1.248-5.889C118.866,167.818,119.162,167.524,118.835,167.103z M77.073,202.063
		c-0.896,1.865-1.247,1.966-3.287,1.772c-2.017-0.192-3.937-0.795-5.908-1.168c-1.674-0.317-1.931-0.192-2.38,1.523
		c-0.452,1.725-0.879,3.458-1.392,5.164c-0.654,2.178-0.12,3.799,1.812,4.941c0.644,0.38,1.357,0.717,2.082,0.874
		c5.584,1.211,11.153,2.522,16.782,3.478c2.301,0.391,4.772,0.36,7.08-0.481c1.375-0.501,1.889-1.73,1.45-3.154
		c-0.427-1.382-1.444-2.261-2.551-3.037c-3.283-2.304-7.003-3.723-10.695-5.191c-1.28-0.509-2.198-1.229-2.452-2.742
		C77.511,203.428,77.733,202.653,77.073,202.063z M117.88,116.572c1.564,0.418,2.972-0.243,3.532-2.365
		c0.011-0.043,0.019-0.096,0.048-0.125c0.971-0.993,0.629-1.532-0.478-2.237c-6.089-3.875-12.214-7.684-18.677-10.916
		c-0.372-0.187-0.688-0.607-1.158-0.076c-2.315,2.616-5.173,4.638-7.745,6.975c-0.498,0.452-0.541,0.767,0.011,1.154
		c2.039,1.432,3.71,3.294,5.651,4.837c2.848,2.263,5.953,3.827,9.751,3.554C111.683,117.167,114.495,116.419,117.88,116.572z
		 M138.094,61.265c-0.86,0.387-1.962-0.498-2.192,0.81c-0.551,3.137-0.488,6.289,0.359,9.36c0.988,3.578,3.095,5.998,7.07,6.365
		c0.673,0.062,1.35,0.148,1.771-0.29c1.188-1.234,2.062-2.698,2.657-4.317c0.113-0.309-0.05-0.572-0.223-0.735
		c-0.301-0.282-0.564,0.052-0.778,0.213c-0.479,0.36-0.925,0.763-1.782,0.965c1.549-1.494,3.28-2.415,4.459-4.108
		c-2.693-0.027-5.316,0.427-7.261-1.952c-1.763-2.157-1.594-4.804-2.092-7.357c-0.562,0.598-1.06,1.109-1.535,1.64
		c-0.477,0.533-0.931,1.085-1.499,1.751C136.986,62.58,137.828,62.235,138.094,61.265z M132.146,41.409
		c-0.68,1.621-0.953,4.782-0.257,5.973c2.127,3.649,2.857,7.58,2.626,11.737c-0.065,1.172,0.612,1.573,1.623,1.718
		c1.938,0.279,3.375-0.41,4.426-2.076c0.379-0.601,0.537-1.062,0.115-1.679c-1.595-2.33-1.849-4.909-1.346-7.613
		c0.097-0.521,0.066-0.976-0.337-1.368C136.706,45.871,134.422,43.634,132.146,41.409z M157.514,84.85
		c0.302-4.141,0.342-7.96-0.124-11.777c-0.083-0.684-0.291-0.958-1.01-1.142c-1.81-0.462-3.688-0.665-5.431-1.403
		c-0.38-0.161-0.67-1.161-1.227-0.278c-0.513,0.813-2.023,0.981-1.418,2.546c0.979,2.53,2.024,5.05,2.535,7.736
		c0.103,0.54,0.518,0.73,0.918,0.884C153.801,82.199,155.751,83.139,157.514,84.85z M55.574,86.44
		c-2.286,3.848-2.386,16.105-0.208,18.574C58.161,102.204,57.8,89.299,55.574,86.44z M68.759,78.411
		c-0.057-0.508-0.531-0.549-0.856-0.706c-3.073-1.477-6.167-2.911-9.224-4.418c-0.705-0.348-1.289-0.405-1.473,0.386
		c-0.173,0.742-1.361,1.625,0.105,2.334c3.191,1.543,6.375,3.102,9.564,4.647c0.211,0.103,0.478,0.413,0.684,0.052
		C67.98,79.967,68.351,79.199,68.759,78.411z M56.011,76.086c-0.403,0.102-0.547,0.272-0.361,0.672
		c0.283,0.612,0.565,1.176,1.202,1.545c2.29,1.328,4.545,2.714,6.833,4.045c0.347,0.203,0.787,0.868,1.195,0.156
		c0.317-0.552,0.589-1.114-0.357-1.611c-2.731-1.435-5.387-3.014-8.073-4.538C56.296,76.268,56.148,76.17,56.011,76.086z
		 M54.757,76.951c0.586,2.286,1.237,4.559,1.724,6.867c0.157,0.745,0.494,0.968,1.06,0.808c0.601-0.17,0.337-0.772,0.212-1.123
		C56.946,81.24,56.186,78.955,54.757,76.951z M45.197,78.248c-0.429,0.858-0.572,1.693-0.622,2.581
		C46.09,80.39,46.09,80.39,45.197,78.248z M44.183,86.86c-0.812,1.45-0.134,2.855-0.308,4.203
		C43.891,89.705,44.642,88.396,44.183,86.86z"/>
</g>
</svg>
