<?xml version="1.0" encoding="utf-8"?>
<!-- Generator: Adobe Illustrator 16.2.1, SVG Export Plug-In . SVG Version: 6.00 Build 0)  -->
<!DOCTYPE svg PUBLIC "-//W3C//DTD SVG 1.1//EN" "http://www.w3.org/Graphics/SVG/1.1/DTD/svg11.dtd">
<svg version="1.1" id="_x33_lCwgNvOG4UqHYAit0kw4k4bG9uFQeVaAynyyqTIjR0_xA0_Image_1_"
	 xmlns="http://www.w3.org/2000/svg" xmlns:xlink="http://www.w3.org/1999/xlink" x="0px" y="0px" width="188px" height="240px"
	 viewBox="0 0 188 240" enable-background="new 0 0 188 240" xml:space="preserve">
<g>
	<path d="M0,37.85c3.245,1.563,6.204,3.617,9.293,5.446c4.693,2.778,9.331,5.649,13.996,8.475c0.237,0.144,0.657,0.404,0.731,0.334
		c1.167-1.098,1.827,0.129,2.558,0.594c5.534,3.517,11.126,6.952,16.525,10.666c7.151,4.919,15.016,8.23,23.16,11.023
		c3.603,1.235,6.887,3.125,9.966,5.362c0.218,0.159,0.55,0.537,0.498,0.632c-0.72,1.32,0.514,1.399,1.139,1.722
		c4.768,2.458,9.571,4.848,14.337,7.309c0.88,0.455,1.101,0.427,1.309-0.645c0.584-3.01-0.315-5.85-0.787-8.731
		c-0.697-4.258-1.817-8.452-1.851-12.805c-0.006-0.807-0.247-1.329-1.132-1.716c-2.233-0.977-3.987-2.659-5.376-4.618
		c-1.282-1.808-2.661-3.346-4.671-4.435c-1.856-1.006-3.501-2.373-4.175-4.64c-0.248-0.833-1.505-1.365-0.529-2.512
		c0.09-0.106-0.343-0.72-0.6-1.046c-0.686-0.871-1.229-1.704,0.233-2.334c0.257-0.111,0.356-0.155,0.254-0.482
		c-0.392-1.26,0.553-1.617,1.46-1.999c-0.797-1.264-1.597-2.5-2.357-3.76c-0.177-0.294-0.321-0.556-0.658-0.7
		c-3.209-1.376-5.068-4.276-7.38-6.648c-0.618-0.634-1.016-1.63-1.17-2.52c-0.125-0.719-0.426-1.276-0.835-1.748
		c-1.208-1.395-1.662-3.03-1.813-4.809c-0.069-0.812-0.495-1.507-0.819-2.238c-0.271-0.61-0.753-1.212-0.127-1.964
		c0.587-0.704,1.222-0.446,1.888-0.245c-0.03-0.486-0.101-0.903-0.074-1.313c0.077-1.13,0.99-1.636,1.988-1.143
		c0.709,0.35,1.261,0.898,1.689,1.522c1.325,1.927,2.817,3.712,4.357,5.47c1.101,1.257,2.823,1.484,4.062,2.863
		c-0.093-1.49-0.826-2.434-1.438-3.41c-0.678-1.08-1.352-2.147-1.811-3.35c-0.447-1.172-0.357-2.14,0.775-2.847
		c1.133-0.708,1.823,0.011,2.561,0.753c1.008,1.015,1.251,2.458,2.089,3.555c1.012,1.324,2.082,2.604,3.064,3.949
		c1.933,2.646,2.396,5.549,1.169,8.601c-0.349,0.869-0.203,1.313,0.424,1.923c3.632,3.541,7.229,7.119,10.809,10.712
		c0.455,0.457,0.984,0.649,1.532,0.629c0.835-0.03,1.605,0.237,2.386,0.394c1.933,0.387,2.33,0.035,2.168-1.958
		c-0.142-1.745-0.914-3.142-2.023-4.438c-2.234-2.608-4.368-5.32-5.556-8.575c-2.438-6.681,1.249-13.42,8.313-15.267
		c2.427-0.634,4.865-1.163,7.452-0.729c2.501,0.42,4.272,1.657,5.543,3.788c0.872,1.461,2.351,2.779,2.625,4.326
		c0.409,2.301,1.913,3.483,3.369,4.845c1,0.934,1.202,1.806,0.046,2.73c-0.942,0.755,0.037,1.722-0.322,2.618
		c-0.44,1.099-0.458,2.272,0.417,3.39c0.472,0.603-0.679,2.494-1.58,2.855c-1.002,0.401-2.026,0.747-3.042,1.113
		c-0.716,0.258-0.985,0.605-0.816,1.49c0.497,2.601,0.834,5.234,1.212,7.857c0.072,0.502,0.275,0.913,0.629,1.245
		c3.278,3.083,5.092,7.071,6.83,11.096c1.256,2.908,2.539,5.803,3.036,8.984c0.243,1.556-0.543,2.858-0.725,4.3
		c-0.49,3.905-1.072,7.796-1.808,11.665c-0.876,4.604-2.811,8.791-4.74,13.021c-1.207,2.646-2.51,5.255-3.634,7.942
		c-1.113,2.663-2.899,4.885-4.828,6.982c-2.42,2.632-3.837,5.68-4.406,9.212c-0.619,3.847-2.282,7.387-3.575,11.032
		c-2.294,6.466-4.792,12.846-8.331,18.759c-0.462,0.773-0.849,1.708-1.532,2.211c-1.993,1.462-2.369,3.677-3.014,5.78
		c-1.041,3.389-3.137,6.084-5.733,8.36c-1.661,1.456-2.968,2.969-3.516,5.184c-1.11,4.493-2.669,8.868-3.644,13.402
		c-0.139,0.643-0.215,1.182,0.323,1.699c0.394,0.379,0.489,0.923,0.417,1.468c-0.22,1.687,0.742,2.521,2.148,3.108
		c2.971,1.239,6.129,1.861,9.176,2.846c1.082,0.35,2.13,0.734,3.123,1.323c1.7,1.01,1.875,2.574,1.628,4.24
		c-0.219,1.48-1.57,1.846-2.735,2.132c-3.664,0.898-7.368,0.744-11.073,0.198c-2.417-0.356-4.85-0.361-7.261-0.002
		c-1.294,0.193-2.635,0.153-4.031,0.681c0.796,0.842,1.008,1.8,1.017,2.88c0.012,1.375,1.047,2.08,2.14,2.609
		c3.662,1.775,7.432,3.275,11.359,4.371c1.515,0.423,3.025,0.926,4.01,2.28c2.234,3.07,0.41,6.766-3.729,7.463
		c-3.979,0.672-7.907,0.496-11.875-0.436c-3.632-0.853-7.375-1.234-11.063-1.854c-1.677-0.282-3.306-0.737-4.884-1.4
		c-3.154-1.325-4.383-3.628-3.233-6.864c0.928-2.616,1.968-5.196,2.861-7.829c0.232-0.686,0.608-1.296,1.367-1.534
		c0.508-0.159,0.709-0.583,0.883-1.021c1.649-4.158,2.483-8.508,3.256-12.898c0.676-3.84,0.254-7.721,0.808-11.549
		c0.365-2.52,1.084-4.895,2.525-7.024c0.828-1.222,1.637-2.457,2.428-3.702c0.931-1.465,1.915-2.818,2.116-4.718
		c0.242-2.288,1.669-4.227,3.047-6.021c2.008-2.612,2.234-5.638,2.565-8.713c0.542-5.036,0.643-10.098,1.072-15.14
		c0.183-2.144,0.111-4.296,0.293-6.451c0.285-3.381,0.139-6.797,0.364-10.185c0.373-5.611,1.03-11.175,4.514-15.918
		c2.085-2.839,4.882-4.948,7.471-7.27c0.566-0.508,1.155-0.99,1.693-1.45c-0.048-0.529-0.433-0.542-0.701-0.682
		c-4.665-2.442-9.308-4.928-14.01-7.296c-1.596-0.804-3.412-1.132-4.998-2.007c-0.26-0.144-0.624-0.221-0.775,0.079
		c-0.603,1.193-1.372,0.582-2.157,0.273c-2.414-0.949-4.2-2.783-6.15-4.37c-4.083-3.324-8.966-5.318-13.348-8.142
		c-0.984-0.634-2.015-1.195-3.106-1.838c-0.218,0.868,0.273,1.402,0.475,2c1.049,3.123,2.483,6.122,3.011,9.413
		c0.524,3.267,0.603,6.535,0.253,9.836c-0.261,2.459-0.647,4.87-1.564,7.172c-0.372,0.935-0.885,1.791-1.606,2.515
		c-1.619,1.624-3.494,1.467-4.803-0.421c-1.471-2.121-2.072-4.578-2.432-7.05c-0.755-5.196-0.196-10.325,1.061-15.413
		c0.354-1.435,1.59-2.355,1.818-3.82c0.27-1.726,0.632-3.438,0.989-5.148c0.07-0.338,0.024-0.526-0.263-0.708
		c-2.706-1.722-5.527-3.231-8.358-4.713c-0.781,3.078,0.186,5.858,1.116,8.492c1.862,5.273,1.807,10.661,1.541,16.078
		c-0.104,2.102-0.401,4.235-1.338,6.207c-0.433,0.911-0.953,1.818-2.001,1.768c-1.062-0.051-1.708-0.947-2.141-1.894
		c-0.956-2.087-1.035-4.35-1.057-6.562c-0.062-6.009,0.319-11.986,2.096-17.787c0.597-1.949,0.266-3.821-0.366-5.698
		c-0.19-0.564-0.553-0.821-1.01-1.105c-4.355-2.704-8.701-5.426-13.061-8.118c-4.825-2.979-9.801-5.678-14.647-8.608
		C0.464,48.009,0.22,47.983,0,47.916c0-0.288,0-0.575,0-0.863c4.631,2.64,9.258,5.287,13.901,7.904
		c0.39,0.22,0.857,0.976,1.346,0.002c0.408-0.812-0.175-0.952-0.669-1.235C9.715,50.931,4.858,48.128,0,45.327
		c0-0.191,0-0.383,0-0.575c6.353,3.481,12.697,6.978,19.061,10.438c2.908,1.581,2.008,1.412,3.894-1.294
		c0.664-0.953,0.572-1.438-0.477-2.057c-4.788-2.826-9.499-5.785-14.282-8.62C5.473,41.606,2.877,39.774,0,38.425
		C0,38.233,0,38.042,0,37.85z M67.879,24.039c-1.057-0.817-2.013-1.732-2.797-2.821c-0.653-0.908-1.445-1.656-2.533-2.002
		c-0.479-0.153-0.984-0.135-1.243,0.394c-0.171,0.348,1.373,2.949,1.773,2.985c1.544,0.139,2.534,1.075,3.179,2.347
		c0.268,0.528,0.582,0.89,1.008,1.271c1.152,1.028,2.302,2.092,2.467,3.806c-0.831-2.055-2.993-3-3.992-4.928
		c-0.415-0.8-1.089-1.458-1.956-1.821c-0.348-0.146-0.744-0.188-1.086,0.083c-0.423,0.338-0.122,0.669-0.002,1.012
		c0.216,0.62,0.346,1.279,0.635,1.861c0.457,0.92,0.894,2.227,1.957,2.232c1.366,0.006,2.13,0.576,2.763,1.567
		c0.36,0.565,0.825,0.991,1.303,1.447c0.891,0.85,2.194,1.417,2.474,3.233c-1.651-2.218-3.703-3.536-5.17-5.432
		c-0.31-0.4-0.874-0.557-1.256-0.176c-0.308,0.307-0.184,0.833,0.065,1.203c0.604,0.893,0.936,1.938,1.774,2.707
		c2.227,2.043,3.912,4.743,7.026,5.696c0.129,0.04,0.432-0.097,0.361,0.245c-0.189,0.914,0.507,1.454,0.904,2.109
		c2.898,4.789,6.413,9.196,8.779,14.318c0.523,1.133,1.493,1.921,2.74,2.347c1.891,0.646,3.752,1.398,5.403,2.538
		c3.104,2.142,6.369,2.076,9.8,0.975c2.176-0.698,4.407-1.225,6.613-1.828c-2.109,1.331-4.583,1.671-7.09,2.662
		c2.253,0.581,4.257,0.517,6.25,0.657c-1.364,0.677-2.782,0.484-4.177,0.292c-1.263-0.173-2.57-0.824-3.75-0.627
		c-2.178,0.362-4.208,0.067-6.294-0.574c1.167,4.118,4.79,5.943,7.908,6.241c2.925,0.279,5.786-0.142,8.667-0.564
		c5.085-0.744,6-3.321,5.359-7.842c-0.516-3.64-2.639-6.397-4.648-9.284c-1.438-2.066-3.304-3.092-5.696-3.298
		c-2.084-0.179-4.124,0.163-6.24,0.747c0.513,0.728,1.637,0.716,1.802,1.774c-1.184-0.574-2.229-1.253-3.376-1.588
		c-1.163-0.339-2.357-0.9-3.677-0.571c0.223,0.682,0.855,1.111,0.736,1.758c-4.096-5.053-9.279-9.073-13.583-13.907
		c-0.615,0.457-0.488,1.239-1.354,1.462c0.427-1.169,0.791-2.221,1.194-3.259c1.03-2.654,0.937-5.25-0.638-7.641
		c-1.768-2.683-3.98-5.061-5.426-7.976c-0.35-0.704-1.029-1.384-1.99-0.819c-0.943,0.556-0.764,1.36-0.436,2.245
		c0.522,1.407,1.392,2.598,2.168,3.853c1.527,2.468,1.39,4.105-0.549,6.461c0.036-0.717,0.204-1.364,0.539-1.925
		c0.39-0.654,0.343-1.094-0.331-1.501c-0.485-0.293-0.865-0.792-1.373-1.012c-1.773-0.769-2.762-2.326-4.009-3.662
		c-1.244-1.333-2.108-2.951-3.42-4.2c-0.404-0.385-0.903-1.072-1.581-0.531c-0.64,0.511-0.665,1.203-0.114,1.869
		c1.017,1.228,1.73,2.699,3.046,3.691c0.559,0.421,1.067,0.936,1.069,1.73L67.879,24.039z M75.124,122.147
		c-0.212,3.722-0.447,7.445-0.63,11.168c-0.221,4.486-0.332,8.979-0.638,13.458c-0.074,1.069,0.18,1.448,1.11,1.841
		c5.677,2.4,11.699,3.38,17.705,4.446c0.793,0.14,1.095-0.315,1.405-0.913c4.112-7.917,7.007-16.315,9.736-24.771
		c0.868-2.689,0.954-5.615,2.523-8.101c1.122-1.778,1.102-1.827-0.737-3c-6.516-4.16-12.813-8.665-19.587-12.421
		c-0.964-0.535-1.793-1.272-2.286-2.291c-0.322-0.664-0.614-0.852-1.227-0.254c-2.137,2.081-3.984,4.363-5.12,7.152
		C75.592,112.849,75.195,117.475,75.124,122.147z M112.935,51.196c-0.167,0.269-0.221,0.324-0.21,0.341
		c0.165,0.283,0.318,0.575,0.512,0.838c2.175,2.959,3.331,6.237,3.25,9.945c-0.061,2.781-1.612,4.844-4.309,5.416
		c-2.747,0.583-5.523,0.953-8.34,1.006c-5.516,0.104-8.3-1.759-10.725-7.194c-0.261-0.586-0.89-1.052-1.448-1.006
		c-0.543,0.043-0.498,0.783-0.497,1.293c0.006,1.768,0.157,3.53,0.234,5.291c0.191,4.391,1.205,8.632,1.933,12.931
		c0.511,3.022,1.509,6.057,0.661,9.155c-0.252,0.921,0.102,1.158,0.734,1.477c2.491,1.255,5.05,2.397,7.441,3.821
		c4.444,2.646,8.789,5.459,13.175,8.204c0.406,0.254,0.745,0.518,1.073-0.162c1.892-3.925,4.008-7.745,4.96-12.069
		c1.001-4.543,1.691-9.132,2.272-13.74c0.165-1.313,1.03-2.524,0.75-3.867c-1.387-6.669-4.176-12.748-8.084-18.294
		C115.42,53.309,114.096,52.338,112.935,51.196z M86.512,161.827c-0.068-0.066-0.136-0.132-0.204-0.198
		c0.412-0.382,0.801-0.794,1.24-1.142c1.657-1.312,3.149-2.786,4.363-4.516c1.435-2.044,1.412-2.054-1.011-2.551
		c-5.551-1.14-11.158-2.076-16.394-4.385c-0.551-0.243-0.827-0.304-0.899,0.473c-0.242,2.602-0.485,5.208-0.872,7.791
		c-0.371,2.476-0.916,4.905-2.371,7.058c-1.992,2.948-3.717,6.085-5.834,8.937c-3.159,4.255-4.338,8.988-4.135,14.17
		c0.098,2.493-0.293,4.953-0.67,7.391c-0.686,4.437-1.726,8.803-3.526,12.947c-0.342,0.787-0.106,1.286,0.655,1.577
		c1.189,0.456,2.367,0.947,3.578,1.331c2.297,0.729,5.438-0.821,6.309-3.059c3.699-9.502,7.298-19.042,10.634-28.68
		c1.051-3.035,2.471-5.722,5.098-7.881c3.232-2.657,5.364-6.207,6.078-10.627C87.798,160.967,87.155,161.396,86.512,161.827z
		 M113.877,51.279c-0.419-2.855-0.703-5.443-1.215-7.985c-0.23-1.145,0.245-1.62,1.093-1.971c0.96-0.397,1.967-0.678,2.934-1.062
		c1.375-0.546,1.804-2.037,0.88-3.161c-0.453-0.55-0.537-0.905-0.169-1.612c0.342-0.658,0.397-1.606,0.23-2.348
		c-0.174-0.777-0.071-1.268,0.524-1.714c0.82-0.614,0.719-1.148,0.006-1.846c-1.523-1.491-3.512-2.708-3.452-5.256
		c0.003-0.12-0.132-0.247-0.21-0.365c-1.027-1.535-2.083-3.05-3.076-4.607c-0.936-1.468-2.317-2.152-3.952-2.507
		c-3.507-0.763-6.806,0.061-9.953,1.468c-5.337,2.388-7.619,7.833-5.785,13.404c0.862,2.617,2.494,4.769,4.109,6.944
		c1.391,1.872,3.271,3.427,3.51,6.049c0.068,0.755-0.59,1.918,0.281,2.241c0.734,0.271,1.743-0.202,2.63-0.346
		c0.046-0.008,0.09-0.042,0.136-0.045c3.103-0.234,6.071-0.113,8.424,2.412C111.61,49.817,112.685,50.395,113.877,51.279z
		 M76.892,227.51c2.361-0.112,4.75-0.096,6.993-1.056c1.382-0.591,2.026-1.666,2.103-3.118c0.132-2.499-1.198-4.047-4.268-4.852
		c-4-1.047-7.791-2.625-11.517-4.384c-1.63-0.769-2.749-1.888-2.612-3.846c0.033-0.468-0.11-0.968-0.416-1.162
		c-0.478-0.302-0.696,0.324-1,0.575c-2.786,2.301-7.517,2.246-10.234-0.133c-1.271-1.113-1.282-1.117-1.892,0.68
		c-0.71,2.096-1.475,4.163-2.32,6.214c-1.44,3.499-0.385,6.208,3.257,7.231c0.949,0.267,1.884,0.589,2.837,0.84
		c3.307,0.872,6.726,1.09,10.078,1.704C70.88,226.749,73.807,227.67,76.892,227.51z M114.092,107.585
		c0.046-0.346-0.431-0.366-0.73-0.529c-7.376-3.996-14.765-7.971-22.125-11.997c-0.849-0.464-1.354-0.281-1.981,0.326
		c-1.166,1.129-2.354,2.247-3.624,3.255c-2.173,1.729-2.228,2.334-0.109,4.153c0.355,0.306,0.789,0.523,1.194,0.77
		c2.07,1.259,4.17,2.471,6.208,3.78c4.674,3.002,9.331,6.033,13.962,9.1c0.81,0.536,1.315,0.461,1.877-0.276
		c0.866-1.138,1.816-2.212,2.667-3.359C112.569,111.276,113.466,109.606,114.092,107.585z M67.584,207.183
		c0.32,0.016,0.566,0.082,0.785,0.03c4.433-1.051,8.887-0.649,13.327-0.124c2.742,0.324,5.411,0.038,8.054-0.62
		c0.898-0.223,1.915-0.459,1.989-1.704c0.081-1.363,0.054-2.646-1.345-3.49c-1.48-0.892-3.122-1.299-4.738-1.783
		c-2.749-0.823-5.579-1.391-8.18-2.665c-1.271-0.622-1.96-1.581-1.853-3.061c0.034-0.463,0.203-1.042-0.449-1.362
		c-0.52,1.22-0.411,2.898-2.215,3.142c-0.941,0.127-1.317,0.742-1.606,1.522C70.125,200.385,68.885,203.695,67.584,207.183z
		 M75.201,49.743c-0.244,0.912,0.179,1.142,0.567,1.429c0.776,0.577,1.544,1.29,1.808,2.169c0.444,1.48,1.503,2.271,2.728,2.835
		c1.995,0.92,3.231,2.52,4.423,4.255c1.253,1.823,2.918,3.245,4.814,4.394c0.717,0.434,1.123,0.474,1.06-0.564
		c-0.049-0.81-0.224-1.702,0.032-2.425c0.707-2.001-0.744-2.361-1.994-2.929c-0.171-0.078-0.36-0.117-0.543-0.163
		c-2.552-0.648-4.045-2.328-5.119-4.698c-1.489-3.288-3.729-6.157-5.663-9.196c-0.378-0.595-0.918-0.928-1.555-0.567
		c-0.783,0.443-0.336,1.069-0.04,1.607c0.389,0.705,0.822,1.375,1.344,2.001c0.457,0.547,1.06,1.105,0.725,2.013
		c-0.298-1.3-1.615-1.843-2.108-2.987c-0.262-0.608-0.756-0.564-1.173-0.277c-0.571,0.395-0.006,0.694,0.166,1.046
		c0.758,1.553,2.177,2.632,2.896,4.241C76.826,51.24,76.081,50.553,75.201,49.743z M43.416,89.528
		c0.158-2.51-0.246-5.131-0.864-7.723c-0.168-0.707-0.198-1.856-0.877-1.902c-0.727-0.049-0.86,1.097-1.079,1.77
		c-1.814,5.578-0.922,11.141,0.164,16.697c0.073,0.373,0.115,0.915,0.484,0.955c0.47,0.05,0.597-0.504,0.76-0.887
		C43.192,95.642,43.526,92.704,43.416,89.528z M55.467,71.247c0.02-0.613-0.501-0.675-0.853-0.846
		c-3.36-1.631-6.73-3.242-10.1-4.854c-0.199-0.095-0.502-0.275-0.613-0.202c-0.872,0.58-0.867,1.633-1.189,2.488
		c-0.223,0.594,0.535,0.708,0.914,0.894c3.287,1.62,6.59,3.204,9.892,4.794c0.232,0.112,0.523,0.468,0.732,0.113
		C54.705,72.86,55.072,72.034,55.467,71.247z M51.749,74.632c0.051-0.63-0.494-0.678-0.825-0.869
		c-2.584-1.488-5.177-2.966-7.793-4.398c-0.434-0.238-1.002-0.965-1.417-0.406c-0.344,0.465,0.216,1.133,0.595,1.611
		c0.173,0.218,0.419,0.394,0.662,0.538c2.447,1.454,4.896,2.905,7.355,4.338C51.141,75.921,51.763,75.533,51.749,74.632z
		 M72.164,195.154c1.325-0.173,2.021-0.684,2.086-1.919c0.032-0.598,0.268-1.186,0.409-1.778c0.602-2.529,1.204-5.058,1.805-7.586
		c-0.054-0.016-0.107-0.031-0.162-0.046C74.943,187.547,73.583,191.27,72.164,195.154z M40.675,69.479
		c0.628,2.465,1.294,4.922,1.858,7.402c0.144,0.635,0.266,0.951,0.973,0.801c0.785-0.165,0.527-0.781,0.396-1.122
		C42.976,74.142,42.239,71.637,40.675,69.479z M67.781,167.125c1.413-2.292,3.297-4.351,3.728-7.171
		C70.064,162.231,68.217,164.291,67.781,167.125z M37.7,88.98c-0.077-2.444,1.05-4.774,0.812-7.236
		C37.078,84.024,38.031,86.579,37.7,88.98z M30.673,70.839c-0.446,0.935-0.69,1.871-0.718,2.882
		C32.681,73.283,30.634,71.809,30.673,70.839z M29.202,84.558c-0.076-1.388,0.8-2.72,0.264-4.46
		C28.731,81.763,29.329,83.182,29.202,84.558z"/>
	<path d="M67.851,24.066c1.43,0.564,1.739,2.279,2.961,3.054c-1.451-0.55-2.233-1.775-2.933-3.082L67.851,24.066z"/>
	<path d="M103.332,28.577c-0.504,0.03-0.931-0.015-1.315,0.093c-1.033,0.29-1.492,1.068-1.228,2.059
		c0.463,1.731,1.819,2.817,3.311,3.54c1.252,0.608,1.065-0.721,1.286-1.455c0.721,0.477,0.5,0.97,0.134,1.463
		c-0.424,0.572-1.043,0.725-1.608,0.39c-1.436-0.852-2.829-1.827-3.425-3.472c-0.332-0.917-0.291-1.928,0.652-2.574
		C101.786,28.176,102.492,27.649,103.332,28.577z"/>
</g>
</svg>
