<?xml version="1.0" encoding="utf-8"?>
<!-- Generator: Adobe Illustrator 16.2.1, SVG Export Plug-In . SVG Version: 6.00 Build 0)  -->
<!DOCTYPE svg PUBLIC "-//W3C//DTD SVG 1.1//EN" "http://www.w3.org/Graphics/SVG/1.1/DTD/svg11.dtd">
<svg version="1.1" id="r3ut3NRkctod-5BQpeNCUjueNaWsCZ570_x5F_V4ZvcASyI_xA0_Image_1_"
	 xmlns="http://www.w3.org/2000/svg" xmlns:xlink="http://www.w3.org/1999/xlink" x="0px" y="0px" width="188px" height="134px"
	 viewBox="0 0 188 134" enable-background="new 0 0 188 134" xml:space="preserve">
<g>
	<path d="M130.437,61.868c-5.305,2.046-10.821-2.716-10.419-7.155c0.267-2.944,3.037-6.687,5.989-7.651
		c-1.51,0.987-2.859,2.142-3.843,3.662c-1.514,2.335-2.433,4.815-0.78,7.411c1.722,2.703,4.245,4.051,7.535,3.737
		C129.322,61.834,129.733,61.868,130.437,61.868z"/>
</g>
<path d="M164.742,12.143c-1.232-4.479-3.639-7.767-9.158-8.066c-3.719-0.203-7.202,0.736-10.698,1.733
	c-0.4,0.114-0.864,0.422-0.798,0.835c0.177,1.124-0.646,1.646-1.226,2.316c-1.305,1.508-2.419,3.255-2.556,5.174
	c-0.187,2.615-1.402,4.468-3.161,6.16c-0.765,0.737-0.831,1.533-0.007,2.242c0.435,0.374,0.386,0.788,0.51,1.254
	c0.245,0.928-0.806,1.909,0.138,2.691c0.533,0.44,0.327,0.829,0.159,1.302c-0.712,2.003,0.052,3.232,2.159,3.38
	c0.734,0.052,1.453,0.136,2.175,0.277c1.767,0.345,2.933,1.878,2.869,3.852c-0.048,1.469-1.386,2.967-2.994,3.024
	c-1.441,0.051-2.647,0.618-3.84,1.252c-4.104,2.181-8.297,4.121-12.767,5.469c-1.97,0.594-3.778,1.678-5.118,3.301
	c-1.843,2.234-3.519,4.747-1.971,7.665c1.076,2.031,0.331,3.65-0.152,5.44c-0.108,0.399-0.338,0.794-0.881,0.607
	c-2.746-0.947-5.584-1.658-7.957-3.487c-2.156-1.66-4.277-3.466-7.11-3.821c-0.952-0.119-1.507-0.521-2.09-1.222
	c-4.559-5.474-11.042-6.578-17.135-2.924c-0.746,0.447-1.259,0.333-1.933-0.104c-5.732-3.718-11.595-7.228-17.307-10.986
	c-5.95-3.916-11.981-7.702-18.157-11.296C32.887,20.734,20.453,12.545,7.82,4.695C5.239,3.092,2.765,1.301,0,0
	c0,0.643,0,1.288,0,1.932c2.596,1.045,4.84,2.713,7.211,4.146c12.611,7.615,25.182,15.299,37.801,22.899
	c1.146,0.69,1.382,1.229,0.505,2.221c-0.209,0.237-0.346,0.537-0.516,0.809c-1.326,2.125-1.326,2.124-3.522,0.797
	c-8.667-5.239-17.346-10.46-26.002-15.719L0,7.727c0,0.275,0,0.551,0,0.828c1.018,0.599,2.044,1.182,3.052,1.797
	c13.801,8.427,27.879,16.394,41.485,25.146c5.859,3.769,11.764,7.47,17.758,11.037c5.044,3.001,9.767,6.541,14.625,9.852
	c0.463,0.315,0.743,0.636,0.487,1.36c-0.692,1.951-0.84,3.941-0.456,6.041c1.009,5.513,6.075,11.011,12.337,11.057
	c3.707,0.026,7.043-0.848,9.845-3.326c1.571-1.39,2.824-1.597,4.592-0.516c1.244,0.76,2.472,1.547,3.719,2.299
	c1.805,1.092,1.812,1.085,0.579,2.727c-2.052,2.732-3.82,5.66-5.949,8.349c-5.532,6.987-10.353,14.425-14.188,22.508
	c-2.59,5.457-4.464,11.22-7.322,16.553c-0.939,1.755-1.909,3.482-2.509,5.42c-0.932,3.008-0.163,6.063-0.497,9.081
	c-0.242,2.195,0.362,4.398,0.211,6.577c-0.2,2.855-0.7,5.691-1.111,8.53c-0.607,4.178-1.22,8.356-1.888,12.526
	c-0.507,3.158-0.927,6.192-4.646,7.671c-3.484,1.387-6.913,2.698-10.661,3.107c-1.8,0.195-3.613,0.439-5.315,1.114
	c-2.91,1.156-3.385,4.04-1.037,6.052c0.605,0.52,1.331,0.769,2.025,1.112c0.827,0.411,1.847,0.296,2.604,0.919
	c-1.517,0.646-3.148,0.611-4.625,1.232c-1.472,0.619-3.008,1.291-3.119,3.074c-0.115,1.829,1.312,2.785,2.745,3.596
	c2.155,1.221,4.543,1.637,6.947,1.765c2.778,0.146,5.532,0.69,8.36,0.246c1.908-0.299,3.875-0.709,5.84-0.095
	c1.788,0.559,3.643,0.293,5.466,0.247c1.024-0.025,1.941-0.512,2.553-1.403c1.336-1.95,2.014-4.045,1.532-6.445
	c-0.206-1.024-0.303-2.076-0.368-3.122c-0.085-1.389,0.25-2.857-1.002-3.966c-0.233-0.206-0.1-0.6-0.021-0.922
	c1.315-5.38,3.388-10.435,6.233-15.2c2.271-3.806,3.52-7.96,3.61-12.424c0.073-3.579-0.827-7.06-1.087-10.608
	c-0.113-1.547-0.125-2.866,1.077-4.074c1.788-1.797,3.944-3.115,5.84-4.767c3.941-3.437,7.987-6.805,10.652-11.387
	c1.914-3.291,4.261-5.989,7.765-7.585c0.414-0.189,0.793-0.45,1.191-0.671c4.984-2.754,7.943-7.188,9.833-12.343
	c1.507-4.111,1.454-8.534,1.618-12.842c0.08-2.088,1.819-3.128,2.171-4.936c0.081-0.41,0.688-0.101,1.065,0.07
	c1.284,0.581,2.572,1.152,3.877,1.683c3.516,1.429,3.994,1.219,6.02-2.023c3.358-5.374,6-11.133,9.034-16.679
	c2.129-3.893,3.57-8.127,6.421-11.678c1.638-2.039,2.211-4.727,2.147-7.464c-0.101-4.234-1.129-8.344-1.557-12.508
	c0.212-0.13,0.36-0.01,0.525,0.065c3.219,1.454,3.915,1.121,4.739-2.271c0.075-0.307,0.1-0.626,0.139-0.942
	c0.373-3.021,0.562-6.074,1.323-9.035C165.54,18.803,165.66,15.476,164.742,12.143z M21.034,13.857c-1.4-0.853-2.8-1.707-4.199-2.56
	c0.062-0.104,0.123-0.208,0.185-0.311c1.389,0.86,2.779,1.72,4.168,2.58C21.137,13.663,21.085,13.76,21.034,13.857z M119.123,60.582
	c0.385-0.741,0.163-1.721,0.886-2.353c0.412-0.359-0.077-0.523-0.209-0.702c-2.284-3.089-1.563-5.652,0.781-8.52
	c1.609-1.969,3.757-3.063,6.178-3.803c3.752-1.146,7.317-2.776,10.762-4.648c1.071-0.582,2.042-0.993,3.38-0.842
	c1.608,0.181,3.293,0.201,4.929-0.205c0.538-0.134,1.137-0.021,1.707-0.021c-2.078,0.749-4.071,1.512-5.7,3.076
	c-2.1,2.013-2.52,4.492-2.123,7.17c0.293,1.969,0.786,3.915,1.736,5.699c0.247,0.462,0.144,0.873-0.035,1.311
	c-1.62,3.994-3.282,7.97-4.561,12.091c-0.203,0.655-0.59,0.856-1.241,0.638c-5.645-1.896-11.322-3.715-16.052-7.566
	C119.064,61.5,118.783,61.241,119.123,60.582z M118.389,62.656c0.208-0.469,0.375-0.776,0.971-0.298
	c4.695,3.771,10.244,5.737,15.891,7.509c0.357,0.112,1.127-0.026,1.061,0.783c0.079,1.604-1.166,2.642-2.627,2.158
	c-5.383-1.783-10.744-3.634-16.015-5.738c-0.918-0.366-1.212-0.624-0.577-1.573C117.665,64.643,117.966,63.609,118.389,62.656z
	 M106.579,57.092c3.132,2.49,6.514,4.439,10.461,5.303c0.656,0.144,0.755,0.526,0.496,1.157c-1.233,3.003-1.213,3.002-3.84,1.166
	c-1.833-1.282-3.66-2.541-4.997-4.41c-0.988-1.383-2.342-1.908-4.09-1.332c-1.029,0.339-1.946,0.196-2.148-1.254
	c-0.114-0.823-0.578-1.598-0.92-2.49C103.502,55.256,105.151,55.958,106.579,57.092z M98.81,57.983
	c-0.102,0.636-0.601,0.7-1.001,0.765c-0.557,0.091-0.937-0.439-0.875-0.792c0.107-0.607,0.674-1.254,1.218-1.254
	C98.729,56.702,98.384,57.655,98.81,57.983z M92.203,53.963c1.761-0.65,4.749,0.537,5.413,2.116
	C96.05,54.902,94.261,54.301,92.203,53.963z M96.284,57.955c-0.358,0.635-0.724,0.02-0.984-0.104
	c-1.379-0.656-2.721-1.392-4.076-2.1c1.665-0.187,3.223,0.127,4.685,0.879C96.526,56.946,96.588,57.417,96.284,57.955z
	 M87.484,53.481c-0.618,0.226-1.113-0.167-1.722-0.692c2.61-0.946,5.05-1.057,7.523-0.182
	C91.305,52.619,89.361,52.795,87.484,53.481z M97.199,52.507c-3.889-2.583-8.007-2.902-12.625-1.245
	C87.571,48.104,92.474,48.63,97.199,52.507z M82.874,56.291c0.602-1.053,1.309-1.954,2.555-2.289
	c0.562-0.152,2.785,0.635,3.035,1.129c0.059,0.115,0.057,0.262,0.064,0.296c-0.227,1.457-0.828,2.607-1.864,3.524
	c-0.195,0.172-0.417,0.231-0.625,0.102c-1.043-0.649-2.075-1.316-3.111-1.977C82.551,56.837,82.695,56.604,82.874,56.291z
	 M83.824,59.119c-0.113,0.257-0.399,0.278-0.583,0.171c-0.625-0.363-1.227-0.766-1.823-1.174c-0.194-0.131-0.295-0.316-0.098-0.561
	c0.142-0.174,0.224-0.398,0.622-0.396c0.619,0.412,1.343,0.859,2.023,1.367C84.183,58.69,83.906,58.933,83.824,59.119z
	 M64.883,40.889c5.66,3.517,11.214,6.967,16.824,10.453c-0.573,0.72-0.979,0.695-1.552,0.317c-4.933-3.257-9.887-6.478-14.832-9.712
	C65.058,41.772,64.779,41.59,64.883,40.889z M80.402,62.529c-0.583-1.132-0.074-2.09-0.071-3.104
	C80.835,59.995,80.835,59.995,80.402,62.529z M80.101,57.67c-0.918,0.292-1.998-1.027-2.973-1.683
	c-4.655-3.136-9.266-6.337-13.935-9.451c-0.806-0.537-0.898-0.975-0.445-1.742c0.441-0.748,0.805-1.542,1.204-2.315
	c0.121-0.232,0.188-0.527,0.523-0.482c0.237,0.131,0.443,0.231,0.634,0.355c5.5,3.592,10.999,7.183,16.493,10.783
	c0.628,0.412,1.229,0.705,0.477,1.709C81.381,55.778,80.972,57.393,80.101,57.67z M81.011,68.636
	c3.361,3.955,7.851,3.78,12.696,3.261C90.312,74.54,84.369,72.917,81.011,68.636z M94.554,70.29c-1.359,0.834-2.91,0.959-4.446,1.12
	c-4.479-0.059-6.759-2.39-6.773-6.916c-0.003-1.006-0.042-2.012,0.327-2.979c0.276-0.724,0.645-1.011,1.403-0.522
	c2.603,1.679,5.304,3.218,7.805,5.034c1.13,0.82,1.924,2.111,2.148,3.655C95.096,70.224,94.725,70.186,94.554,70.29z
	 M79.503,126.549c2.689-4.958,4.815-10.158,6.978-15.355c1.675-4.03,3.769-7.876,5.853-11.714c0.127-0.236,0.317-0.437,0.501-0.686
	c0.517,0.582,0.802,1.349,1.494,1.642c1.185,0.504,0.932,1.064,0.355,1.951c-5.123,7.873-9,16.402-13.007,24.864
	c-1.093,2.308-2.289,4.568-3.515,7.002C77.886,131.43,78.246,128.868,79.503,126.549z M72.587,173.147
	c2.155-2.837,2.517-6.257,3.02-9.622c0.63-4.218,1.25-8.437,1.865-12.657c0.071-0.489,0.083-0.988,0.124-1.482
	c0.454,2.737-0.028,5.502-0.389,8.241c-0.561,4.265-1.379,8.497-2.164,12.729c-0.454,2.454-1.212,4.833-2.224,7.116
	c-0.176,0.397-0.268,1.171-0.915,0.979c-0.533-0.157-0.443-0.832-0.432-1.334C71.503,175.699,71.681,174.341,72.587,173.147z
	 M54.687,183.893c-1.387-0.637-2.579-1.456-2.526-3.215c0.045-1.462,0.98-2.364,2.912-2.98c1.875-0.598,3.83-0.767,5.754-1.03
	c3.741-0.512,7.213-1.696,10.453-3.61c0.189-0.111,0.398-0.188,0.879-0.41c-1.026,1.876-1.428,3.564-1.121,5.37
	c0.051,0.301,0.097,0.45-0.208,0.654c-2.675,1.79-5.332,3.588-8.159,5.159C59.918,185.358,57.354,185.117,54.687,183.893z
	 M82.271,181.189c0.211,2.33,0.24,4.346,0.61,6.298c0.417,2.202-0.039,4.138-1.068,6.039c-0.562,1.035-1.461,1.488-2.556,1.559
	c-1.873,0.122-3.777,0.268-5.594-0.289c-1.804-0.553-3.562-0.136-5.292,0.122c-3.093,0.461-6.126-0.101-9.181-0.251
	c-1.579-0.079-3.144-0.417-4.652-0.949c-1.221-0.432-2.32-1.045-3.215-1.992c-1.254-1.328-1.089-2.622,0.394-3.681
	c1.621-1.158,3.566-1.292,5.397-1.752c4.524-1.139,8.529-3.275,12.263-6.019c0.652-0.479,1.186-1.775,2.391-0.781
	c1.132,0.934,1.015,2.028,0.253,3.03c-0.683,0.896-0.355,1.385,0.324,2.026c1.036,0.978,2.014,1.933,3.486,2.308
	c3.279,0.84,5.472-0.597,5.838-3.977C81.72,182.416,81.775,181.978,82.271,181.189z M109.672,118.42
	c-3.998,7.192-10.124,12.333-16.525,17.207c-2.448,1.863-4.222,4.635-2.989,8.435c2.412,7.438,1.207,14.47-2.887,21.188
	c-2.792,4.582-4.74,9.608-5.799,14.916c-0.176,0.886-0.213,1.809-0.315,2.711c-0.46,4.087-3.829,4.281-6.348,3.033
	c-0.604-0.3-1.166-0.739-1.656-1.209c-0.656-0.627-1.242-1.272-0.483-2.31c0.632-0.865,0.678-1.896-0.044-2.79
	c-0.275-0.339-0.134-0.5,0.03-0.796c2.004-3.584,2.798-7.543,3.499-11.522c0.566-3.221,1.195-6.438,1.569-9.681
	c0.583-5.041,1.044-10.081,0.456-15.189c-0.369-3.2-0.397-6.471,1.222-9.502c3.837-7.19,6.887-14.771,10.808-21.921
	c1.105-2.018,2.296-3.991,3.536-6.135c1.506,2.028,3.243,3.652,4.981,5.272c3.102,2.889,6.745,4.964,10.548,6.747
	C110.276,117.344,110.085,117.677,109.672,118.42z M127.909,93.644c-0.273,1.473-0.287,2.983-0.619,4.458
	c-1.471,6.531-5.038,11.519-10.836,14.896c-1.926,1.121-4.011,2.007-5.576,3.664c-0.376,0.398-0.679,0.132-0.949-0.003
	c-4.212-2.094-8.356-4.278-11.676-7.745c-1.167-1.217-2.542-2.218-3.564-3.602c-0.566-0.764-0.468-1.273-0.023-2.029
	c1.105-1.881,2.748-3.433,3.446-5.559c0.223-0.681,0.611-1.343,0.267-2.298c-0.434,1.14-0.766,2.158-1.206,3.127
	c-1.099,2.422-1.807,2.496-3.508,0.508c-0.545-0.638-0.5-1.166-0.087-1.833c2.354-3.806,5.058-7.367,7.689-10.978
	c1.931-2.646,4.137-5.095,5.734-7.975c0.437-0.787,0.692-0.743,1.369-0.164c5.482,4.692,11.273,8.965,17.52,12.597
	c0.237,0.137,0.482,0.315,0.74,0.351C128.351,91.3,128.139,92.405,127.909,93.644z M128.625,85.738
	c-0.584,1.325-0.221,2.797-0.482,4.196c-0.19,1.013-0.487,1.047-1.296,0.669c-2.405-1.125-4.535-2.683-6.718-4.163
	c-3.963-2.687-7.799-5.537-11.414-8.687c-0.751-0.653-0.878-1.064-0.069-1.645c0.541-0.388,0.704-1.199,1.465-1.35
	c0.307,0.161,0.589,0.305,0.868,0.457c5.677,3.073,11.351,6.153,17.038,9.208C128.601,84.739,128.967,84.963,128.625,85.738z
	 M158.286,50.443c-1.131,1.927-2.575,3.745-3.429,5.814c-3.023,7.33-6.879,14.236-10.541,21.243c-1.14,2.18-2.415,4.285-3.789,6.331
	c-0.677,1.007-1.395,1.37-2.644,0.968c-3.177-1.022-6.167-2.458-9.13-3.947c-5.778-2.904-11.456-6.001-17.037-9.271
	c-2.213-1.297-4.561-1.944-7.173-1.794c-2.509,0.144-5.035-0.075-7.539,0.306c-0.87,0.132-1.602-0.073-1.769-1.043
	c-0.165-0.949,0.632-1.019,1.274-1.272c0.387-0.153,0.939-0.12,1.172-0.769c-0.819-0.043-1.518,0.471-2.295,0.342
	c-0.477-0.08-1.082,0.119-1.255-0.551c-0.18-0.695,0.234-1.091,0.808-1.407c0.714-0.394,1.667-0.384,2.275-1.398
	c-0.764,0.254-1.366,0.387-1.901,0.654c-0.521,0.261-0.917,0.2-1.152-0.284c-0.209-0.431,0.065-0.773,0.411-1.063
	c0.863-0.723,2.098-0.917,2.817-1.983c-0.731-0.104-1.103,0.471-1.626,0.67c-0.319,0.122-0.611,0.501-0.954,0.074
	c-0.27-0.338-0.142-0.67,0.038-1.019c0.229-0.443,0.659-0.603,1.029-0.867c2.245-1.598,4.662-1.459,7.13-0.729
	c0.412,0.122,0.837,0.255,1.207,0.12c1.87-0.682,3.159-0.004,4.433,1.428c3.969,4.462,9.199,6.885,14.724,8.799
	c3.639,1.261,7.25,2.593,10.944,3.696c0.808,0.242,1.214,0.024,1.602-0.561c0.224-0.34,0.516-0.676,0.607-1.055
	c1.523-6.299,4.393-12.106,6.61-18.15c1.064-2.904,1.417-5.5,0.88-7.774c-0.184,3.169-0.597,6.264-2.086,9.258
	c-1.401-2.958-2.292-5.983-1.596-9.08c0.792-3.537,3.853-5.25,7.969-6.104c2.868-0.595,5.445,0.023,7.811,1.833
	C158.74,43.866,159.792,47.879,158.286,50.443z M158.611,43.884c-1.662-2.25-3.664-3.87-6.59-4.51
	C155.625,39.088,158.735,41.239,158.611,43.884z M158.388,41.018c-1.167-0.682-2.1-1.613-3.403-1.857
	c-1.665-0.314-3.312-0.539-5.027-0.383c-3.046,0.276-6.104,0.409-9.352,0.614c0.771-0.808,1.67-0.417,2.402-0.711
	c1.55-0.625,2.798-2.128,2.689-3.587c-0.18-2.418-1.478-3.968-3.488-4.192c-0.407-0.045-0.802-0.175-1.207-0.241
	c-2.974-0.487-2.986-0.487-2.299-3.344c0.078-0.327,0.031-0.521-0.185-0.717c-0.494-0.443-0.269-0.925-0.294-1.465
	c-0.04-0.88,0.551-2.086-0.556-2.79c-0.834-0.529-0.637-1.089-0.102-1.693c0.394-0.446,0.745-0.934,1.166-1.352
	c1.329-1.323,1.812-2.943,2.039-4.776c0.285-2.307,1.467-4.241,3.214-6.046c0.601,2.115,1.266,4.04,1.67,6.019
	c0.304,1.492-0.028,2.995-0.784,4.361c-1.354,2.443-2.15,5.088-2.713,7.801c-0.467,2.255,0.314,3.277,2.642,3.706
	c2.719,0.501,5.502,0.696,8.125,1.653c1.15,0.42,2.263,0.945,3.425,1.324c0.767,0.25,1.057,0.808,1.162,1.469
	C157.832,36.827,158.088,38.854,158.388,41.018z M163.878,23.67c-0.44,2.458-0.761,4.939-1.037,7.421
	c-0.072,0.639-0.192,1.263-0.328,1.877c-0.358,1.606-1.315,2.097-2.785,1.405c-3.041-1.428-6.048-2.942-9.385-3.582
	c-1.914-0.366-3.846-0.639-5.761-0.998c-1.291-0.243-2.293-0.779-1.912-2.428c0.33-2.783,1.174-5.455,2.496-7.957
	c1.15-2.175,1.362-4.347,0.606-6.703c-0.522-1.632-1.178-3.238-1.234-5.011c-0.033-1.018,0.294-1.39,1.282-1.668
	c2.671-0.753,5.384-1.533,8.124-1.542c5.395-0.018,8.793,1.604,10.549,8.681C165.392,16.778,164.504,20.188,163.878,23.67z"/>
<polyline points="0,0 0,8.555 8.278,13.383 8.187,5.52 1.656,1.932 "/>
</svg>
