<?xml version="1.0" encoding="utf-8"?>
<!-- Generator: Adobe Illustrator 16.2.1, SVG Export Plug-In . SVG Version: 6.00 Build 0)  -->
<!DOCTYPE svg PUBLIC "-//W3C//DTD SVG 1.1//EN" "http://www.w3.org/Graphics/SVG/1.1/DTD/svg11.dtd">
<svg version="1.1" id="cPuAx3svUTILs0Cf1aY8MQg3kRjYy-1lHAxV1kS858E_xA0_Image_1_"
	 xmlns="http://www.w3.org/2000/svg" xmlns:xlink="http://www.w3.org/1999/xlink" x="0px" y="0px" width="188px" height="134px"
	 viewBox="0 0 188 134" enable-background="new 0 0 188 134" xml:space="preserve">
<g>
	<path d="M0,0c2.184,1.29,4.206,2.823,6.293,4.256c6.326,4.342,12.618,8.732,18.925,13.101c0.144,0.1,0.385,0.277,0.457,0.23
		c0.841-0.552,1.257,0.242,1.735,0.59c3.215,2.339,6.436,4.673,9.578,7.107c4.471,3.463,9.437,5.994,14.646,8.116
		c2,0.814,3.772,2.045,5.459,3.384c0.304,0.241,0.709,0.489,0.391,1.031c-0.151,0.256,0.166,0.341,0.332,0.439
		c2.05,1.218,4.108,2.422,6.153,3.649c0.733,0.441,0.858-0.304,1.167-0.591c2.092-1.942,2.975-4.552,3.864-7.151
		c1.694-4.957,4.888-8.467,9.843-10.322c0.948-0.355,1.964-0.531,2.722-1.389c0.763-0.863,1.142-1.798,1.168-2.902
		c0.026-1.11-0.127-2.219-0.399-3.283c-0.841-3.283,0.255-5.837,2.792-7.904c3.793-3.09,10.53-0.846,12.195,1.989
		c0.812,1.381,1.154,2.85,0.843,4.466c-0.15,0.782-0.196,1.55-0.53,2.322c-0.201,0.465,0.185,1.191,0.326,1.796
		c0.094,0.403,0.227,0.797,0.332,1.198c0.167,0.643,0.08,1.185-0.722,1.2c-1.018,0.019-0.688,1.065-1.207,1.508
		c-0.526,0.448-0.818,1.156-0.985,1.903c-0.213,0.956-0.992,1.351-1.975,1.178c-2.443-0.431-2.835-0.033-4.27,1.99
		c-1.201,1.693-1.261,3.323-0.736,5.122c0.155,0.531-0.13,1.189,0.263,1.55c0.39,0.359,0.962-0.095,1.475-0.062
		c1.334,0.087,2.333,0.829,3.332,1.591c0.071,0.055,0.122,0.138,0.195,0.187c0.649,0.426,1.267,1.113,1.96,1.201
		c0.852,0.108,0.848-1.031,1.296-1.567c2.398-2.871,4.226-6.13,6.226-9.272c0.142-0.222,0.245-0.47,0.381-0.698
		c0.4-0.669,0.406-1.233-0.259-1.79c-1.965-1.644-1.947-3.76-1.314-5.984c0.067-0.236,0.065-0.473,0.127-0.696
		c0.082-0.294-0.298-0.782,0.312-0.865c0.498-0.069,0.892,0.145,1.098,0.596c0.329,0.72,0.246,1.519,0.378,2.278
		c0.041,0.229,0.03,0.468,0.043,0.691c0.325,0.102,0.433-0.116,0.485-0.3c0.568-1.994,1.565-3.834,2.075-5.853
		c0.149-0.591,0.466-1.146,0.925-1.611c0.449-0.455,0.856-0.805,1.406-0.186c0.215,0.242,0.324,0.098,0.493-0.047
		c0.298-0.254,0.472-0.781,1.005-0.582c0.565,0.211,0.668,0.714,0.639,1.256c1.257-0.239,1.622,0.008,1.384,1.242
		c-0.125,0.653,0.351,0.939,0.41,1.433c0.119,0.998-0.065,1.967-0.212,2.943c-0.415,2.755-1.518,5.231-3.048,7.531
		c-2.187,3.284-3.731,6.896-5.424,10.437c-1.193,2.495-2.386,4.997-4.097,7.208c-0.647,0.835-1.308,1.144-2.387,0.858
		c-1.242-0.33-2.554-0.314-3.846-0.261c-1.661,0.069-3.272-0.199-4.828-0.761c-0.357-0.129-0.546-0.137-0.688,0.23
		c-1.349,3.476-3.675,6.332-5.89,9.257c-2.207,2.916-3.564,6.214-4.447,9.732c-0.094,0.373-0.195,0.745-0.323,1.231
		c0.855,0,1.679-0.021,2.5,0.004c4.109,0.122,8.148,0.656,11.941,2.341c2.3,1.022,4.479,2.384,6.394,3.941
		c2.518,2.048,3.38,4.987,2.058,8.148c-0.628,1.504-2.041,2.227-3.278,3.095c-4.447,3.121-9.189,5.777-13.773,8.682
		c-2.363,1.498-4.383,3.44-6.588,5.143c-0.379,0.292,0.046,0.539-0.1,0.797c-1.14,2.025,0.224,3.394,1.246,4.893
		c1.328,1.948,2.733,3.838,4.119,5.743c0.674,0.926,0.573,2.159-0.182,3.14c-0.718,0.933-1.658,1.252-2.769,0.899
		c-2.363-0.75-4.337-2.173-6.043-3.889c-1.62-1.629-3.47-2.945-5.232-4.382c-0.977-0.796-2.013-1.54-2.773-2.562
		c-1.684-2.267-1.41-4.155,0.852-5.852c0.794-0.595,1.537-1.241,2.262-1.917c0.649-0.604,1.314-1.266,2.367-0.801
		c0.257,0.114,0.488-0.15,0.708-0.307c1.997-1.424,3.618-3.206,5.1-5.15c1.507-1.977,3.231-3.78,4.744-5.758
		c0.637-0.832,1.547-1.394,2.591-2.092c-1.062,0.067-1.931,0.088-2.792,0.182c-4.072,0.446-8.058,0.262-11.812-1.601
		c-0.602-0.298-0.863-0.245-1.023,0.488c-0.787,3.599-2.781,6.53-5.136,9.284c-1.16,1.356-2.08,2.916-3.21,4.301
		c-0.688,0.844-1.216,1.755-1.674,2.723c-0.963,2.034-2.68,3.335-4.453,4.576c-0.436,0.304-0.765,0.69-0.988,1.146
		c-2.811,5.75-5.451,11.578-7.965,17.463c-0.423,0.99,0.493,3.454,1.514,4.109c1.393,0.891,3.015,1.25,4.505,1.919
		c0.974,0.438,1.958,0.851,2.836,1.475c1.27,0.904,1.864,2.152,1.534,3.265c-0.423,1.423-1.458,1.974-3.181,2.117
		c-1.233,0.102-2.427-0.238-3.586-0.642c-1.819-0.634-3.692-0.858-5.609-0.998c-2.246-0.164-4.541-0.295-6.545-1.533
		c-1.237-0.764-1.725-2-1.311-3.393c0.397-1.335,0.893-2.641,1.3-3.973c0.257-0.839,0.616-1.576,1.508-1.858
		c0.345-0.11,0.365-0.389,0.436-0.612c1.371-4.272,2.924-8.487,3.013-13.076c0.038-1.963,1.125-3.675,2.083-5.358
		c1.211-2.13,2.549-4.187,4.196-6.004c1.563-1.725,1.968-3.886,2.526-6.009c0.844-3.209,0.857-6.508,1.096-9.785
		c0.039-0.522-0.252-0.698-0.602-1.02c-0.445-0.41-0.655-0.286-1.062-0.069c-0.829,0.44-1.237,0.15-1.243-0.77
		c-0.003-0.472,0.207-0.858,0.367-1.267c-0.046-0.03-0.103-0.086-0.119-0.076c-0.505,0.322-1.014,0.757-1.612,0.229
		c-0.561-0.495-0.103-0.997,0.093-1.463c0.636-1.51,1.296-3.012,2.648-4.3c-1.201,0.293-1.714,1.215-2.481,1.781
		c-0.239,0.176-0.43,0.421-0.677,0.583c-0.453,0.299-0.918,0.271-1.306-0.118c-0.418-0.421,0.027-0.738,0.22-1.013
		c1.095-1.555,2.159-3.096,4.124-3.785c0.901-0.315,1.447-1.319,2.156-2.009c0.687-0.669,1.302-1.41,2.115-1.946
		c0.217-0.143,0.397-0.375,0.531-0.604c1.948-3.343,3.672-6.801,5.32-10.301c0.594-1.261,1.253-2.494,1.936-3.709
		c0.279-0.498,0.25-0.77-0.259-1.068c-1.901-1.118-3.771-2.29-5.675-3.402c-1.026-0.599-2.209-0.892-3.203-1.563
		c-0.184-0.125-0.369-0.119-0.47,0.053c-0.395,0.669-0.839,0.309-1.304,0.11c-1.251-0.536-2.147-1.526-3.09-2.44
		c-2.163-2.1-4.786-3.549-7.252-5.221c-1.131-0.766-2.258-1.538-3.444-2.346c-0.006,0.694,0.323,1.236,0.49,1.818
		c0.809,2.804,1.74,5.585,1.507,8.57c-0.192,2.47-0.481,4.921-1.439,7.242c-0.267,0.647-0.65,1.215-1.109,1.729
		c-1.056,1.182-2.361,1.012-3.223-0.396c-0.634-1.034-0.902-2.196-1.074-3.363c-0.519-3.525,0.022-6.954,1.049-10.33
		c0.22-0.723,0.572-1.354,1.048-1.943c0.705-0.874,0.534-2.043,0.936-3.029c0.362-0.891,0.155-1.497-0.788-1.988
		c-1.238-0.643-2.368-1.494-3.545-2.253c-0.728-0.47-0.815-0.403-0.891,0.498c-0.104,1.243,0.104,2.454,0.428,3.629
		c0.756,2.741,1.034,5.529,0.818,8.345c-0.15,1.951-0.32,3.922-1.048,5.778c-0.318,0.81-0.631,1.807-1.667,1.711
		c-0.927-0.086-1.236-1.001-1.426-1.857c-0.369-1.667-0.237-3.361-0.121-5.021c0.125-1.776,0.328-3.561,0.654-5.326
		c0.294-1.586,0.972-3.048,1.343-4.608c0.272-1.146,0.143-2.255-0.115-3.36c-0.124-0.533-0.7-0.734-1.099-1.008
		c-2.461-1.689-4.887-3.434-7.319-5.158C13.509,15.568,6.661,11.359,0,6.865c0-0.12,0-0.241,0-0.361
		c0.085,0.024,0.182,0.03,0.253,0.076c4.135,2.712,8.269,5.428,12.402,8.144c2.207,1.45,4.416,2.896,6.618,4.353
		c0.357,0.236,0.661,0.439,0.867-0.154c0.177-0.509-0.295-0.529-0.522-0.683C14.566,14.798,9.434,11.48,4.255,8.236
		C2.841,7.351,1.528,6.3,0,5.601C0,5.42,0,5.239,0,5.059c1.933,1.239,3.863,2.48,5.798,3.717c5.405,3.452,10.806,6.91,16.22,10.348
		c1.848,1.174,1.844,1.136,2.999-0.527c0.366-0.527,0.337-0.754-0.224-1.141C19.179,13.59,13.599,9.675,7.996,5.796
		C5.347,3.961,2.666,2.171,0,0.361C0,0.241,0,0.12,0,0z M76.222,29.224c-0.295,1.458-1.418,1.91-2.442,2.374
		c-1.586,0.718-2.786,1.816-3.764,3.234c-0.948,1.375-1.52,2.976-2.606,4.263c-1.374,1.627-2.815,3.204-4.085,4.907
		c-1.9,2.549-3.165,5.473-4.582,8.3c-0.891,1.776-1.613,3.633-2.629,5.35c-1.226,2.069-2.506,4.081-4.424,5.611
		c-0.771,0.615-1.246,1.692-2.156,2.009c-1.936,0.674-2.999,2.173-4.08,3.713c-0.122,0.174-0.442,0.298-0.169,0.587
		c0.228,0.241,0.497,0.207,0.739,0.06c0.647-0.395,1.172-0.938,1.701-1.473c0.36-0.364,0.701-0.782,1.239-0.846
		c0.8-0.095,1.268-0.575,1.63-1.232c0.097-0.176,0.26-0.314,0.393-0.469c-0.369,0.907-0.795,1.75-1.48,2.374
		c-1.305,1.189-1.841,2.827-2.64,4.311c-0.138,0.256-0.216,0.662,0.063,0.819c0.258,0.146,0.629,0.117,0.908-0.166
		c0.441-0.447,0.79-0.955,1.149-1.468c0.876-1.252,1.661-2.58,2.792-3.651c-0.004,0.156-0.056,0.286-0.136,0.394
		c-1.15,1.56-2.083,3.244-2.876,5.009c-0.24,0.534-0.835,1.268-0.271,1.632c0.774,0.5,1.306-0.364,1.67-0.938
		c0.652-1.026,1.366-2.015,1.88-3.131c0.483-1.051,1.196-1.792,2.165-2.36c-1.669,1.633-2.397,3.881-3.79,5.694
		c-0.226,0.293-0.263,0.514-0.004,0.781c0.243,0.251,0.487,0.331,0.784,0.083c0.229-0.191,0.529-0.322,0.702-0.552
		c0.604-0.807,1.178-1.638,1.744-2.474c1.005-1.486,2.132-2.852,3.75-3.974c-0.135,0.48-0.554,0.678-0.334,1.161
		c0.41,0.901,0.3,1.839-0.045,2.766c-0.201,0.54-0.181,1.116-0.002,1.672c0.118,0.366,0.392,0.484,0.762,0.505
		c0.467,0.028,0.42-0.342,0.514-0.6c0.154-0.424,0.068-0.875,0.194-1.324c0.746-2.655,1.33-5.325,0.437-8.086
		c-0.193-0.597-0.022-1.227,0.313-1.814c0.802-1.405,1.759-2.695,2.707-4.001c1.711-2.357,3.569-4.603,4.807-7.295
		c1.074-2.336,2.668-4.295,5.05-5.504c2.304-1.17,4.496-2.478,5.941-4.758c0.551-0.868,0.987-1.892,1.853-2.484
		c1.951-1.337,4.263-2.125,6.013-4.154c-0.127,0.822-0.56,1.097-0.931,1.416c-1.236,1.061-2.708,1.739-4.106,2.541
		c-0.198,0.114-0.544,0.164-0.5,0.431c0.042,0.266,0.362,0.337,0.629,0.377c0.739,0.109,1.48,0.33,2.215,0.307
		c1.305-0.041,2.718-0.049,3.332-1.559c0.714-1.757,0.889-3.618,0.534-5.458c-0.481-2.495-1.939-4.521-3.516-6.441
		c-0.904-1.102-2.106-1.413-3.467-0.938c-2.335,0.817-4.225,2.224-5.519,4.349c-0.385,0.632-0.781,1.308-0.712,2.148
		C74.887,30.732,75.279,30.437,76.222,29.224z M77.487,78.021c2.21,0.159,4.375-0.289,6.561-0.347
		c1.159-0.031,1.81-0.572,2.207-1.732c1.05-3.062,2.058-6.123,2.67-9.314c0.174-0.905-0.027-1.074-0.84-1.268
		c-2.007-0.479-4.027-0.743-6.082-0.927c-3.254-0.292-6.496-0.109-9.722,0.143c-2.105,0.165-3.964-0.156-5.689-1.323
		c-1.013-0.686-1.985-1.434-3.018-2.084c-0.748-0.47-1.464-1.504-2.217-1.309c-0.736,0.192-1.045,1.364-1.529,2.116
		c-0.453,0.703-0.735,1.416-0.513,2.272c0.528,2.03,0.628,4.059-0.031,6.089c-0.146,0.449-0.049,0.776,0.461,1.067
		c3.058,1.745,6.158,3.403,9.364,4.859C71.775,77.472,74.527,78.281,77.487,78.021z M92.337,77.682c-1.62,0-3.246-0.088-4.858,0.03
		c-1.163,0.085-2.399-0.084-3.474,0.6c-1.014,0.646-2.037,1.302-2.777,2.258c-1.209,1.563-2.547,3.019-3.772,4.564
		c-1.94,2.444-3.85,4.907-6.534,6.603c-0.575,0.364-0.506,0.74-0.145,1.16c0.392,0.455,0.836,0.864,1.225,1.322
		c1.725,2.034,3.14,2.083,5.138,0.386c2.272-1.93,4.567-3.828,7.121-5.412c4.661-2.89,9.371-5.698,13.903-8.801
		c2.628-1.799,2.989-5.35,1.84-7.447c-0.762-1.393-1.686-2.539-3.14-3.313c-2.196-1.171-4.118-2.826-6.523-3.649
		c-0.796-0.272-0.986-0.006-1.104,0.701c-0.322,1.929-0.784,3.826-1.398,5.688c-0.559,1.69-1.121,3.378-1.793,5.003
		C88.184,77.33,90.244,77.178,92.337,77.682z M42.713,118.634c0.445-0.037,0.895-0.285,1.119-0.846
		c0.21-0.523,0.384-1.062,0.605-1.581c2.243-5.255,4.557-10.479,7.072-15.61c0.535-1.091,0.962-2.258,2.016-3.006
		c0.559-0.397,1.114-0.801,1.663-1.213c1.2-0.902,2.3-2.036,2.604-3.444c0.224-1.042,0.946-1.441,1.439-2.131
		c0.574-0.799,1.135-1.607,1.739-2.384c0.29-0.372,0.113-0.507-0.214-0.586c-3.382-0.821-6.728-1.733-9.656-3.73
		c-0.257-0.175-0.459-0.203-0.532,0.245c-0.131,0.818-0.304,1.635-0.543,2.427c-0.459,1.516-0.594,3.129-1.66,4.456
		c-1.906,2.373-3.731,4.812-5.2,7.496c-0.832,1.519-1.736,3.065-1.755,4.806c-0.03,2.758-0.676,5.371-1.42,7.978
		c-0.488,1.71-1.066,3.394-1.583,5.095c-0.099,0.327-0.445,0.789,0.122,0.983C39.849,118.039,41.186,118.451,42.713,118.634z
		 M87.648,29.868c0.504-0.873,0.923-1.695,1.43-2.459c1.498-2.26,2.172-2.397,4.277-1.878c0.832,0.205,1.711-0.125,1.735-1.003
		c0.037-1.287,1.411-1.939,1.438-3.213c0.003-0.146,0.229-0.144,0.375-0.181c1.236-0.311,1.23-0.313,0.88-1.512
		c-0.191-0.653-0.375-1.31-0.534-1.971c-0.055-0.226-0.13-0.58-0.016-0.692c0.713-0.702,0.515-1.645,0.625-2.459
		c0.236-1.745-0.173-3.387-1.443-4.7c-1.456-1.505-3.352-2.036-5.337-2.441c-4.023-0.822-8.598,2.021-8.693,7.15
		c-0.023,1.286,0.517,2.488,0.641,3.768c0.168,1.72,0.024,3.278-1.318,4.528c-0.121,0.113-0.303,0.227-0.221,0.366
		C85.145,23.943,85.948,27.224,87.648,29.868z M95.621,38.659c0.254-0.419,0.124-0.676-0.275-0.843
		c-0.867-0.362-1.549-0.996-2.281-1.559c-0.806-0.62-1.645-1.186-2.686-1.354c-1.208-0.196-1.69,0.172-1.672,1.345
		c0.009,0.57,0.049,1.141,0.117,1.707c0.179,1.478,0.013,2.944-0.216,4.392c-0.083,0.521,0.007,0.689,0.46,0.839
		c1.338,0.443,2.699,0.723,4.115,0.717c1.497-0.007,3.009-0.114,4.472,0.282c0.877,0.237,1.457-0.001,2.007-0.716
		c1.358-1.763,2.323-3.745,3.344-5.699c1.804-3.457,3.124-7.152,5.243-10.454c1.737-2.707,3.465-5.427,3.868-8.734
		c0.129-1.065,0.508-2.117,0.073-3.485c-0.873,1.536-1.072,3.013-1.395,4.474c-0.285-0.353-0.231-0.689-0.127-1.096
		c0.361-1.404,0.711-2.809,1.35-4.119c0.242-0.498,0.205-1.071-0.215-1.263c-0.473-0.215-0.719,0.344-0.919,0.746
		c-0.599,1.202-0.815,2.527-1.248,3.781c-0.132,0.381-0.062,0.608,0.188,0.902c-0.33-0.195-0.753,0.004-0.983-0.376
		c0.289-0.123,0.402-0.326,0.484-0.651c0.266-1.063,0.616-2.105,0.939-3.154c0.139-0.453,0.302-0.899,0.435-1.354
		c0.123-0.42,0.009-0.799-0.366-1.017c-0.386-0.223-0.594,0.114-0.814,0.359c-0.639,0.708-0.93,1.564-1.13,2.478
		c-0.245,1.118-0.61,2.196-1.203,3.191c0.327-1.495,0.778-2.95,1.194-4.416c0.114-0.399,0.777-0.866,0.109-1.223
		c-0.654-0.35-0.913,0.332-1.202,0.757c-0.25,0.367-0.427,0.764-0.545,1.207c-0.143,0.538-0.274,1.08-0.501,1.605
		c-0.597,1.377-1.112,2.789-1.667,4.205c0.474,0.165,0.99,0.078,1.273,0.666c-0.536-0.257-1.047-0.266-1.529-0.189
		c-0.73,0.117-0.89-0.208-0.812-0.829c0.095-0.759-0.106-1.492-0.245-2.224c-0.053-0.279-0.269-0.585-0.617-0.544
		c-0.359,0.042-0.205,0.387-0.196,0.587c0.017,0.38-0.179,0.692-0.248,1.042c-0.362,1.839-0.503,3.588,1.08,5.06
		c1.257,1.169,1.208,1.334,0.348,2.845C101.234,30.744,98.314,34.593,95.621,38.659z M56.639,69
		c-0.618,0.669-1.207,1.212-1.733,1.833c-1.194,1.409-1.908,3.187-3.386,4.372c-0.18,0.144-0.22,0.336-0.217,0.56
		c0.02,1.383-0.235,2.751-0.197,4.142c0.024,0.923-0.041,1.871-0.236,2.771c-0.129,0.595,0.001,0.844,0.479,1.153
		c2.503,1.624,5.271,2.528,8.125,3.321c1.448,0.403,2.475,0.51,3.166-1.006c0.047-0.104,0.166-0.172,0.246-0.263
		c2.35-2.68,4.184-5.634,4.922-9.182c0.063-0.305,0.217-0.525-0.189-0.719c-2.789-1.332-5.513-2.789-8.178-4.356
		c-0.356-0.21-0.486-0.104-0.542,0.25c-0.097,0.617-0.231,1.23-0.278,1.852c-0.057,0.737-0.503,0.787-1.065,0.706
		c-0.688-0.101-0.937-0.59-1.001-1.196c-0.06-0.57-0.035-1.148,0.179-1.687C57.06,70.723,56.987,69.917,56.639,69z M61.614,59.364
		c1.729,1.207,3.411,2.392,5.104,3.56c1.5,1.035,3.174,1.565,4.984,1.354c1.583-0.184,3.174-0.144,4.757-0.303
		c0.544-0.055,0.732-0.208,0.892-0.734c0.688-2.263,1.209-4.589,2.309-6.707c0.238-0.458-0.092-0.494-0.307-0.646
		c-3.279-2.321-6.514-4.707-9.983-6.75c-0.634-0.374-0.922-0.369-1.332,0.277c-0.334,0.525-0.697,1.037-0.96,1.599
		c-0.62,1.322-1.242,2.636-2.132,3.811C63.815,56.313,62.73,57.837,61.614,59.364z M71.462,46.096
		c3.477,2.13,6.698,4.436,9.876,6.801c0.413,0.307,0.574,0.082,0.779-0.197c1.009-1.368,1.981-2.765,3.034-4.097
		c3.138-3.973,3.79-8.518,3.167-13.373c-0.137-1.066-0.149-2.164-0.417-3.195c-0.662-2.54-1.958-4.787-3.565-6.842
		c-1.077-1.377-2.543-1.91-4.234-1.394c-3.558,1.088-6.532,3.031-8.641,6.174c-1.203,1.792-2.096,3.712-2.645,6.028
		c1.136-1.778,2.186-3.337,3.921-4.256c0.225-0.118,0.345-0.351,0.39-0.585c0.53-2.79,2.406-4.521,4.688-5.906
		c1.344-0.816,2.784-1.464,4.388-0.804c1.191,0.49,1.82,1.597,2.548,2.588c2.181,2.968,3.145,6.186,2.145,9.848
		c-0.33,1.209-0.959,2.16-2.224,2.436c-1.448,0.316-2.945,0.309-4.324-0.249c-0.782-0.316-1.018-0.062-1.424,0.522
		c-1.106,1.589-2.106,3.299-3.801,4.37C73.97,44.692,72.766,45.341,71.462,46.096z M76.246,95.972
		c-1.237,0.287-2.467,0.36-3.458-0.434c-0.951-0.763-1.736-1.731-2.461-2.724c-0.15-0.205-0.343-0.479-0.2-0.75
		c0.349-0.658-0.198-0.5-0.438-0.441c-0.309,0.075-0.645,0.231-0.862,0.457c-1.028,1.065-2.259,1.887-3.35,2.873
		c-1.247,1.129-1.448,2.542-0.622,4.028c0.581,1.044,1.463,1.82,2.36,2.565c2.187,1.818,4.514,3.452,6.541,5.48
		c1.494,1.496,3.281,2.686,5.337,3.368c1.135,0.376,1.832,0.145,2.562-0.84c0.638-0.861,0.677-1.754,0.056-2.645
		c-1.437-2.057-2.853-4.129-4.356-6.136c-1.035-1.381-1.973-2.72-1.112-4.538C76.272,96.169,76.246,96.076,76.246,95.972z
		 M44.404,117.574c-0.458,0.889-0.945,1.522-1.838,1.426c-1.48-0.161-2.896-0.635-4.296-1.105c-1.04-0.35-1.197-0.4-1.604,0.666
		c-0.57,1.493-1.104,3.004-1.564,4.533c-0.372,1.238,0.237,2.497,1.4,3.098c1.397,0.723,2.922,1.014,4.463,1.158
		c2.672,0.249,5.349,0.386,7.915,1.313c1.499,0.542,3.06,0.836,4.599,0.065c1.203-0.603,1.591-1.828,0.97-3.015
		c-0.328-0.625-0.847-1.057-1.425-1.449c-1.426-0.965-3.051-1.48-4.627-2.104c-1.025-0.405-2.053-0.787-2.945-1.464
		C44.468,119.952,44.504,118.853,44.404,117.574z M34.501,48.204c2.231-2.371,2.494-10.664,1.034-12.674
		C33.318,39.593,33.881,43.777,34.501,48.204z M37.775,26.738c-0.749,0.173-0.641,0.92-0.988,1.34
		c-0.235,0.285,0.098,0.473,0.333,0.606c2.057,1.167,4.119,2.325,6.169,3.503c0.332,0.191,0.52,0.219,0.672-0.191
		c0.092-0.247,0.267-0.471,0.434-0.68c0.396-0.494,0.271-0.788-0.277-1.076c-1.591-0.835-3.161-1.712-4.735-2.579
		C38.835,27.359,38.296,27.038,37.775,26.738z M36.341,28.748c-0.237,0.017-0.411,0.103-0.305,0.33
		c0.182,0.389,0.228,0.821,0.671,1.109c1.503,0.977,2.954,2.036,4.455,3.016c0.181,0.118,0.447,0.755,0.82,0.108
		c0.265-0.46,0.278-0.745-0.242-1.067c-1.7-1.056-3.365-2.17-5.043-3.262C36.572,28.901,36.449,28.819,36.341,28.748z
		 M35.468,29.165c0.286,1.624,0.586,3.245,0.849,4.873c0.062,0.387,0.286,0.368,0.562,0.394c0.538,0.052,0.338-0.377,0.3-0.545
		C36.811,32.245,36.318,30.643,35.468,29.165z M33.649,36.748c-0.657,0.638-0.725,1.405-0.596,2.427
		C33.602,38.314,33.683,37.543,33.649,36.748z M28.518,31.409c1.131-0.294,1.156-0.396,0.497-1.589
		C28.743,30.289,28.668,30.802,28.518,31.409z M27.727,37.821c0.033-0.77,0.617-1.485,0.297-2.453
		C27.565,36.23,27.727,37.032,27.727,37.821z"/>
	<path d="M88.608,14.703c-0.815-0.322-1.409-0.567-1.872,0.039c-0.524,0.686-0.536,1.479-0.116,2.187
		c0.209,0.353,0.414,0.714,0.62,1.072c0.35,0.609,0.375,0.626,1.052,0.341c-0.374,0.658-0.843,0.78-1.129,0.216
		c-0.374-0.735-0.922-1.385-1.129-2.204c-0.297-1.18,0.614-2.367,1.718-2.27C88.085,14.113,88.269,14.281,88.608,14.703z"/>
</g>
</svg>
