<?xml version="1.0" encoding="utf-8"?>
<!-- Generator: Adobe Illustrator 16.2.1, SVG Export Plug-In . SVG Version: 6.00 Build 0)  -->
<!DOCTYPE svg PUBLIC "-//W3C//DTD SVG 1.1//EN" "http://www.w3.org/Graphics/SVG/1.1/DTD/svg11.dtd">
<svg version="1.1" id="LuAMIIVySwwQqMAl7CDti_x5F_k9Xi5oYBWGVoNblSU1IFg_xA0_Image_1_"
	 xmlns="http://www.w3.org/2000/svg" xmlns:xlink="http://www.w3.org/1999/xlink" x="0px" y="0px" width="188px" height="282px"
	 viewBox="0 0 188 282" enable-background="new 0 0 188 282" xml:space="preserve">
<g>
	<path d="M175.81-28.683c-0.304,2.016-0.501,3.999-0.921,5.933c-0.555,2.562-0.583,5.048-0.099,7.652
		c0.401,2.161-0.793,4.237-1.179,6.372c-0.082,0.45-0.377,0.992-0.054,1.292c2.065,1.911,0.963,4.17,0.56,6.196
		c-1.228,6.173-2.801,12.277-4.015,18.452c-0.684,3.48-0.644,7.11-1.419,10.563c-1.985,8.85-1.794,17.889-2.71,26.828
		c-0.654,6.389-1.047,12.798-1.585,19.194c-0.68,8.075-1.311,16.154-1.967,24.23c-0.646,7.948-1.309,15.895-1.952,23.844
		c-0.507,6.264-1.051,12.525-1.554,18.791c-0.675,8.403-1.37,16.804-1.978,25.213c-0.351,4.85-0.739,9.703-1.198,14.543
		c-0.213,2.25-0.015,4.548-0.623,6.767c-0.255,0.933-0.137,1.479,1.141,1.625c1.576,0.179,3.136,0.724,4.638,1.286
		c3.175,1.188,4.513,3.447,4.737,6.813c0.454,6.827-1.471,13.159-3.781,19.416c-0.544,1.475-0.48,2.577,0.389,3.944
		c4.812,7.575,3.873,18.668-2.088,25.301c-0.903,1.004-1.947,2.035-3.142,2.589c-2.139,0.993-2.551,2.893-3.137,4.787
		c-0.719,2.323-1.076,2.562-3.385,1.831c-0.658-0.208-0.795,0.22-1.113,0.438c-0.942,0.647-1.867,1.215-2.995,0.388
		c-0.149-0.11-0.471-0.25-0.513-0.202c-2.446,2.79-4.653-0.868-7.13-0.296c-1.188,0.274-1.618-1.441-1.678-2.629
		c-0.093-1.794-0.238-3.568-0.711-5.47c-0.842,1.15-0.792,1.153-0.886,3.125c-0.083,1.757-0.216,3.541-2.186,4.393
		c-1.42,0.615-2.089,0.244-2.084-1.3c0.004-1.314-0.206-2.542-0.638-3.796c-0.506-1.469-0.138-2.955,0.665-4.265
		c1.011-1.652,1.079-3.139,0.229-5.011c-4.519-9.943,0.596-21.299,8.221-26.007c0.764-0.472,1.608-0.841,2.457-1.144
		c2.591-0.926,2.813-1.24,2.603-4.38c-2.6,1.268-5.328,1.393-8.08,1.229c-1.221-0.074-2.5-0.057-3.639-0.43
		c-2.045-0.669-3.57-0.087-5.134,1.245c-2.277,1.938-5.158,2.92-7.693,4.466c-0.798,0.487-1.595,0.859-1.641,1.942
		c-0.005,0.115-0.141,0.219-0.187,0.338c-0.779,2.002-2.906,3.621-2.958,5.544c-0.055,2.008,0.639,4.161,0.508,6.288
		c-0.211,3.419-0.46,6.799,0.201,10.237c0.304,1.58-0.681,3.237-1.279,4.812c-0.82,2.161-0.394,4.148,0.118,6.45
		c0.81,3.645,2.999,5.523,5.666,7.514c2.306,1.721,3.978,4.115,4.672,6.983c0.827,3.415-1.41,4.7-4.654,5.206
		c-1.704,0.265-3.455,0.302-5.238,0.128c-2.526-0.246-4.198-1.344-4.875-3.708c-0.795-2.773-2.307-4.665-4.996-5.962
		c-1.978-0.956-1.589-3.47-2.095-5.342c-0.148-0.547-0.121-1.188-0.003-1.75c0.28-1.346,0.621-2.586-0.824-3.611
		c-1.014-0.72-1.525-2.085-3.111-2.068c-0.635,0.007-1.097-0.699-1.352-1.292c-1.288-2.992-3.875-4.122-6.792-4.397
		c-2.054-0.195-4.118-0.465-6.221-0.376c-5.47,0.231-8.17,4.667-11.888,7.562c-0.498,0.389-0.519,1.068-0.311,1.433
		c1.59,2.795,0.719,5.646,0.198,8.443c-0.408,2.192-2.143,3.513-3.908,4.628c-1.442,0.912-2.5,2.057-2.976,3.679
		c-1.456,4.958-9.929,5.181-12.988,2.394c-1.586-1.444-1.268-3.236-0.748-5.03c0.878-3.031,3.51-4.766,5.294-7.125
		c1.365-1.806,2.884-3.496,4.131-5.395c0.711-1.084,0.979-2.268,0.777-3.531c-0.644-4.022-1.031-8.093-1.403-12.128
		c-0.393-4.272,0.387-8.637,2.375-12.576c1.188-2.354,1.84-4.548,0.708-7.178c-0.52-1.21-0.982-1.997-2.238-2.527
		c-2.804-1.181-5.312-2.934-7.86-4.58c-1.15-0.743-2.303-1.069-3.639-1.073c-1.821-0.005-3.658,0.212-5.405,0.502
		c-4.242,0.703-8.066-0.236-11.81-2.032c-0.225-0.108-0.494-0.126-0.78-0.195c-0.146,1.246-0.007,2.474-0.401,3.687
		c-0.524,1.61,0.001,2.612,1.651,3.549c6.602,3.753,9.777,9.607,10.066,17.184c0.181,4.754-0.658,9.134-3.629,12.958
		c-0.65,0.837-0.479,1.834-0.222,2.62c0.467,1.424,0.259,2.599-0.415,3.879c-0.566,1.075-0.868,2.29-1.294,3.439
		c-0.236,0.638-0.616,1.202-1.316,1.308c-0.796,0.121-1.342-0.403-1.765-1.003c-1.227-1.742-0.803-3.546-0.158-5.352
		c-1.19,0.23-1.167,0.237-1.413,1.113c-0.312,1.11-0.53,2.274-1.032,3.296c-0.766,1.556-1.727,3.008-3.898,2.024
		c-0.52-0.234-0.98,0.115-1.471,0.291c-0.602,0.216-1.469,0.484-1.873,0.023c-1.05-1.198-2.577-1.011-3.805-1.608
		c-1.289-0.627-2.521-1.113-4.021-1.151c-1.426-0.036-2.307-1.048-2.279-2.611c0.003-0.196-0.017-0.393,0.002-0.587
		c0.272-2.781-0.527-5.086-2.029-7.566c-4.85-8.003-4.687-18.906,2.143-25.834c0.501-0.508,0.793-0.965,0.523-1.708
		c-1.572-4.318-1.506-8.771-1.094-13.263c0.13-1.424,0.171-2.878,0.039-4.298c-0.305-3.29,1.833-6.84,5.721-8.041
		c1.106-0.341,1.353-0.741,1.369-1.803c0.221-14.6,0.213-29.205,0.479-43.802c0.229-12.647,0.106-25.293,0.351-37.938
		c0.399-20.66,0.635-41.321,0.701-61.984c0.004-1.253,0.037-2.435-0.646-3.707c-0.69-1.288,0.276-2.916,0.253-4.406
		c-0.077-5.13-0.604-10.23-1.088-15.333c-0.233-2.455-0.362-4.922-0.44-7.387c-0.029-0.894-0.203-1.461-1.156-1.677
		c-0.953-0.215-1.589-0.713-1.622-1.856c-0.154-5.39-0.935-10.75-0.779-16.159c0.033-1.126-0.067-2.268,1.182-2.851
		c0.588-0.274,0.445-0.796,0.363-1.175c-1.275-5.923-0.572-11.924-0.748-17.889c-0.023-0.778,0.053-1.558-0.368-2.278
		c-0.924-1.583-0.13-1.967,1.298-1.72c1.561,0.271,2.866,0.789,3.411,2.617c0.787,2.642,1.788,5.228,2.828,7.785
		c1.017,2.501,1.28,5.11,1.432,7.752c0.095,1.65,0.067,3.284,1.584,4.494c0.708,0.565,0.814,1.551,0.783,2.515
		c-0.082,2.48-0.007,4.948-0.212,7.443c-0.191,2.325,0.604,4.732,0.586,7.141c-0.002,0.326,0.087,0.688-0.023,0.972
		c-0.403,1.039-0.415,1.603,0.728,2.463c0.982,0.74,0.738,2.609,0.848,4c0.609,7.674,1.512,15.333,2.108,22.989
		c0.477,6.114,1.743,12.025,2.64,18.023c1.083,7.249,2.489,14.449,3.745,21.671c1.092,6.279,2.173,12.56,3.25,18.841
		c0.284,1.649,0.533,3.304,0.809,4.954c0.03,0.185,0.09,0.483,0.201,0.517c3.066,0.925,2.444,4.029,2.7,5.892
		c0.66,4.805,1.823,9.472,2.769,14.199c0.556,2.777,0.938,5.592,1.329,8.399c0.157,1.128,0.019,2.222-1.244,2.784
		c-0.52,0.231-0.645,0.561-0.539,1.231c1.815,11.518,3.546,23.049,5.347,34.569c0.985,6.298,2.062,12.582,3.106,18.871
		c0.298,1.796,1.968,2.981,3.665,2.348c4.162-1.554,8.472-2.582,12.732-3.782c1.079-0.303,1.3-0.889,1.209-1.836
		c-0.114-1.2,0.285-2.007,1.64-1.62c1.073,0.306,0.663-0.466,0.69-0.834c0.172-2.319-0.262-4.653,0.388-6.969
		c1.793-6.396,9.676-10.972,16.19-9.696c5.232,1.023,9.138,3.468,11.018,8.559c1.134,3.072,1.362,6.286,0.58,9.463
		c0.848,0.33,1.285-1.116,2.006-0.302c0.603,0.683,1.008,1.548,0.57,2.499c-0.51,1.111-0.114,1.349,1.012,1.576
		c2.956,0.597,5.867,1.412,8.793,2.151c1.034,0.261,1.49,0.174,1.779-1.162c4.456-20.598,9.015-41.172,13.541-61.755
		c0.214-0.969,0.342-1.877-1.077-2.136c-0.932-0.17-1.345-0.665-0.938-1.834c0.608-1.748,0.871-3.614,1.295-5.427
		c0.087-0.372,0.132-0.853,0.383-1.07c2.007-1.752,1.839-4.149,1.963-6.449c0.028-0.546,0.17-1.015,0.441-1.451
		c1.805-2.91,2.516-6.175,3.114-9.482c0.32-1.771,1.758-2.966,2.191-4.804c4.389-18.61,8.845-37.205,13.495-55.751
		c2.062-8.226,3.199-16.637,5.366-24.833c0.129-0.487,0.24-1.11-0.184-1.49c-1.37-1.225-0.922-2.624-0.627-4.121
		c0.931-4.739,2.503-9.306,3.644-13.987c0.102-0.417,0.355-1.049,0.657-1.128c2.241-0.589,2.036-2.593,2.355-4.15
		c0.9-4.388,2.39-8.448,4.765-12.319C171.99-26.084,172.902-28.186,175.81-28.683z M30.206,53.788
		c-0.186,7.62-0.681,15.169-0.706,22.722c-0.101,29.852-0.042,59.702-0.079,89.554c-0.009,7.103-0.163,14.206-0.244,21.309
		c-0.009,0.783-0.1,1.739,1.125,1.557c2.255-0.336,4.53-0.133,6.802-0.427c3.517-0.456,7.048-0.917,10.647-0.252
		c2.399,0.444,4.696,1.364,7.204,1.394c1.159,0.013,1.099-0.106,0.887-1.105c-1.411-6.667-2.768-13.346-4.065-20.036
		c-2.13-10.982-4.202-21.976-6.301-32.964c-0.112-0.584-0.236-1.174-1.034-1.175c-2.32-0.003-2.538-1.689-2.502-3.359
		c0.036-1.7,0.068-3.333-0.652-4.95c-0.325-0.73-0.414-1.603-0.465-2.465c-0.236-3.983-1.101-7.905-1.131-11.919
		c-0.017-2.318-1.139-4.53-0.848-6.903c0.446-3.648-0.767-7.103-1.341-10.613c-1.371-8.37-2.999-16.699-4.518-25.045
		C32.054,64.003,31.132,58.896,30.206,53.788z M156.733,65.153c-0.124-0.034-0.248-0.067-0.372-0.102
		c-0.178,0.599-0.397,1.188-0.527,1.797c-2.49,11.651-5.905,23.08-8.149,34.8c-0.927,4.845-1.827,9.725-2.626,14.572
		c-0.625,3.794-1.691,7.541-1.756,11.445c-2.746-0.626-2.712-0.616-3.524,2.131c-3.927,13.296-7.25,26.757-10.946,40.116
		c-1.761,6.367-3.457,12.752-5.273,19.104c-0.383,1.337-0.186,1.653,1.158,1.313c1.118-0.284,2.268-0.437,3.403-0.655
		c4.418-0.854,8.732-2.383,13.326-2.105c1.681,0.102,3.361,0.238,5.034,0.433c0.875,0.102,1.083-0.205,1.144-1.046
		c0.484-6.661,1.117-13.313,1.513-19.979c0.324-5.438,0.791-10.866,1.151-16.299c0.495-7.446,1.036-14.886,1.583-22.327
		c0.49-6.658,0.993-13.312,1.561-19.964c0.65-7.622,1.014-15.269,1.652-22.894c0.173-2.068,0.271-4.141,0.442-6.208
		C155.915,74.572,156.33,69.864,156.733,65.153z M147.572,205.341c0,2.802,0.021,5.605-0.012,8.406
		c-0.011,1.009,0.002,1.676,1.411,1.475c1.171-0.168,2.421,0.03,3.61,0.224c1.06,0.172,1.189-0.194,1.123-1.14
		c-0.745-10.625,0.355-21.195,1.055-31.773c0.398-6.025,0.969-12.04,1.449-18.06c0.303-3.822,0.562-7.649,0.874-11.47
		c0.477-5.824,1.001-11.644,1.471-17.467c0.433-5.372,0.801-10.749,1.235-16.12c0.481-5.948,1.01-11.891,1.507-17.838
		c0.302-3.622,0.578-7.246,0.877-10.869c0.486-5.881,0.988-11.761,1.47-17.643c0.307-3.752,0.574-7.507,0.884-11.258
		c0.477-5.75,0.973-11.499,1.466-17.248c0.349-4.068,0.589-8.151,1.099-12.199c0.413-3.274,0.335-3.563-2.986-4.088
		c-0.384-0.061-0.767-0.153-1.143-0.256c-1.587-0.436-2.265,0.312-2.391,1.808c-0.408,4.841-0.818,9.682-1.23,14.523
		c-0.28,3.291-0.553,6.583-0.851,9.872c-0.49,5.417-1.027,10.829-1.485,16.248c-0.334,3.946-0.552,7.901-0.858,11.849
		c-0.485,6.272-1.007,12.542-1.496,18.813c-0.302,3.883-0.56,7.768-0.857,11.65c-0.489,6.408-1.01,12.812-1.489,19.22
		c-0.314,4.212-0.554,8.429-0.865,12.641c-0.479,6.477-1.018,12.948-1.478,19.426c-0.323,4.537-0.504,9.085-0.847,13.621
		C148.419,186.897,147.458,196.088,147.572,205.341z M91.423,238.498c2.264-0.273,4.893-0.334,7.384-0.952
		c3.65-0.905,7.157-2.294,9.375-5.663c2.554-3.878,4.9-7.897,7.726-11.591c0.564-0.738,0.181-0.824-0.333-1.249
		c-1.288-1.065-2.613-2.117-3.125-3.867c-1.433-4.901-2.265-9.915-2.764-14.978c-0.373-3.787-1.314-7.569-0.44-11.414
		c0.065-0.286,0.067-0.665-0.351-0.791c-0.413-0.124-0.82-0.076-1.008,0.335c-0.239,0.523-0.396,1.085-0.57,1.637
		c-0.347,1.092-0.294,2.506-1.202,3.174c-1.205,0.887-0.961,1.607-0.393,2.614c0.243,0.433,0.292,0.98,0.413,1.479
		c0.753,3.123,0.146,6.216-0.435,9.249c-1.288,6.743-6.554,13.654-15.875,12.365c-4.531-0.627-8.242-2.729-10.367-6.901
		c-2.81-5.516-3.405-11.262-1.155-17.167c0.117-0.307,0.507-0.608,0.208-1.043c-1.226-1.782-1.531-3.907-2.149-5.912
		c-0.356-1.151-1.068-0.805-1.883-0.675c-1.106,0.175-0.919,0.799-0.768,1.539c0.271,1.323,0.708,2.656,0.701,3.984
		c-0.034,6.094-0.319,12.215-2.033,18.078c-0.966,3.305-1.763,7.042-5.609,8.618c-0.461,0.189-0.379,0.492-0.267,0.934
		c1.319,5.149,3.182,9.881,7.793,13.164C79.376,237.08,85.127,238.045,91.423,238.498z M76.694,183.73
		c-0.438,3.219,1.241,5.931,1.967,8.864c0.04,0.16,0.249,0.392,0.384,0.396c1.772,0.046,1.508,1.437,1.658,2.515
		c0.487,3.509,0.674,7.114,3.347,9.879c1.445,1.494,2.83,3.056,4.365,4.452c0.955,0.868,2.164,1.266,3.55,1.295
		c2.593,0.053,4.391-0.992,5.792-3.171c1.822-2.835,4.861-4.884,5.494-8.49c0.334-1.905,0.619-3.819,0.928-5.728
		c0.071-0.436-0.229-1.104,0.761-0.853c0.788,0.2,0.89-0.694,1.047-1.136c0.708-1.998,1.292-4.038,1.923-6.063
		c0.176-0.57,0.399-1.271-0.195-1.597c-0.719-0.394-0.863,0.447-1.217,0.842c-0.603,0.67-0.619,1.478-0.807,2.299
		c-0.367,1.606,0.064,3.406-1.133,4.834c0.071-2.303,0.352-4.573,0.637-6.841c0.418-3.328,0.929-6.618-0.059-9.977
		c-1.681-5.713-5.836-8.333-11.316-9.126c-5.184-0.751-9.364,1.433-12.652,5.317c-3.317,3.918-2.553,8.619-2.172,13.18
		c0.205,2.461,0.653,4.902,0.992,7.352C77.999,189.512,79.5,185.857,76.694,183.73z M29.462,46.001c0-1.695,0.012-3.389-0.009-5.083
		c-0.005-0.414,0.179-0.928-0.37-1.179c-1.356-0.622-4.695,1.523-4.701,3.046c-0.023,6.711-0.027,13.421-0.257,20.133
		c-0.424,12.376-0.137,24.76-0.372,37.143c-0.487,25.671-0.543,51.349-0.931,77.022c-0.185,12.203,0.877,24.469-1.565,36.584
		c-0.249,1.24-0.662,3.017,1.769,1.717c0.207-0.111,0.638,0.262,0.904,0.189c1.318-0.361,3.308,0.513,3.525-1.934
		c0.229-2.585,0.709-5.157,0.791-7.744c0.194-6.117,0.241-12.237,0.302-18.356C29.021,140.36,28.06,93.173,29.462,46.001z
		 M31.81,201.299c0.107-0.007,0.215-0.014,0.323-0.021c0.153,1.326,0.331,2.649,0.449,3.977c0.047,0.528,0.021,0.985,0.614,1.288
		c3.332,1.7,6.795,2.816,10.595,2.448c1.934-0.187,3.856-0.498,5.791-0.67c1.552-0.137,3.114-0.106,4.504,0.761
		c1.423,0.889,2.799,1.854,4.245,2.704c1.438,0.846,2.89,1.7,4.423,2.345c1.442,0.606,2.997,0.943,4.583,1.423
		c-0.69,0.465-2.08-0.432-1.845,1.154c0.09,0.611,0.119,1.423,0.702,1.717c0.75,0.379,1.29-0.275,1.835-0.752
		c0.745-0.649,1.3-1.41,1.728-2.298c3.537-7.336,3.675-15.244,3.862-23.132c0.027-1.133-0.403-2.277-0.625-3.416
		c-0.105-0.542-0.271-1.057-0.988-0.88c-3.232,0.797-6.471,1.577-9.885,3.019c0.533,0.391,0.818,0.56,1.052,0.784
		c0.228,0.219,0.403,0.493,0.602,0.743c-2.256-1.344-4.57-1.848-7.09-1.908c-2.446-0.059-4.869-0.506-7.25-1.15
		c-1.237-0.335-2.521-0.618-3.795-0.671c-5.139-0.214-10.196,0.904-15.314,1.035c-1.147,0.029-1.192,0.66-1.189,1.52
		c0.01,3.06-0.083,6.123-0.015,9.182c0.086,3.884,0.658,7.729,1.128,11.58c0.048,0.391,0.041,0.861,0.566,0.842
		c0.471-0.017,0.583-0.437,0.598-0.856c0.056-1.614,0.526-3.177,0.427-4.823C31.719,205.267,31.81,203.28,31.81,201.299z
		 M138.244,209.054c1.803,0.3,3.673-0.211,5.519-0.834c0.88-0.297,1.381-0.716,1.565-1.865c0.864-5.415,1.85-10.807,2.183-16.294
		c0.053-0.871-0.266-1.221-1.03-1.288c-1.807-0.157-3.614-0.353-5.425-0.415c-5.233-0.178-10.119,1.755-15.193,2.55
		c-1.391,0.218-2.934,1.109-4.158,0.474c-2.4-1.248-4.988-1.631-7.525-2.228c-4.323-1.018-4.856-0.473-4.506,4.099
		c0.009,0.129,0.018,0.26,0.033,0.389c0.375,3.341,0.644,6.698,1.157,10.018c0.599,3.872,1.172,7.763,2.444,11.498
		c0.479,1.407,1.362,2.483,2.694,3.167c0.446,0.229,0.872,0.253,1.178-0.241c0.202-0.326,0.501-0.987,0.33-1.014
		c-2.057-0.315-0.099-0.902-0.007-1.104c0.265-0.581,0.891-0.839,1.476-1.154c3.346-1.801,6.893-3.262,9.803-5.812
		c0.883-0.773,1.992-0.837,3.131-0.605C133.94,208.807,135.972,209.21,138.244,209.054z M146.462,233.295
		c-3.331,1.752-5.949,4.251-9.376,5.332c-0.753,0.237-0.625,1.198-0.368,1.491c0.907,1.037,0.36,2.078,0.39,3.169
		c0.09,3.24,0.435,6.476,0.759,9.705c0.105,1.046,0.816,1.541,1.924,1.471c1.273-0.08,0.73-1.027,0.749-1.6
		c0.074-2.334-0.078-4.687,0.731-7.298c0.207,0.503,0.35,0.675,0.322,0.811c-0.446,2.258-0.244,4.542-0.213,6.808
		c0.019,1.346,0.873,2.309,2.259,2.413c1.372,0.104,1.532-0.876,1.694-2.042c0.181-1.295,0.083-2.592,0.276-3.867
		c0.146-0.965-0.319-2.074,0.866-3.245c-0.152,2.392-0.253,4.408-0.418,6.418c-0.081,0.983-0.013,1.88,1.058,2.234
		c1.17,0.387,1.839-0.46,2.341-1.279c0.319-0.521,0.315-1.234,0.498-1.849c0.588-1.977,0.453-4.146,1.679-6.463
		c-0.04,2.671-0.422,4.816-1.007,6.881c-0.303,1.069-0.147,1.683,0.771,1.991c1.116,0.375,1.424-0.51,1.687-1.358
		c0.379-1.223,0.542-2.6,1.225-3.627c1.984-2.988,1.727-6.049,0.936-9.295c-0.361-1.479-0.709-3.014-0.478-4.612
		c0.536-3.705,1.478-7.287,2.919-10.741c0.24-0.574,0.468-1.17,0.033-1.789c-2.453-3.485-5.421-5.918-10.071-5.235
		c-0.86,0.127-1.175,0.284-1.25,1.23c-0.319,4.053-0.774,8.102-1.64,12.077C144.431,232.526,143.875,233.812,146.462,233.295z
		 M23.706,246.431c0.657,0.229,0.645,0.63,0.67,1.023c0.128,2.007,0.244,4.015,0.4,6.02c0.082,1.045,0.297,2.229,1.568,2.249
		c1.336,0.021,2.084-0.798,1.964-2.294c-0.099-1.23-0.074-2.477-0.004-3.71c0.064-1.146-0.331-2.372,0.547-3.434
		c0.22,2.239,0.168,4.472,0.245,6.701c0.031,0.886-0.58,2.248,0.694,2.533c1.266,0.283,1.79-1.025,2.321-1.974
		c0.217-0.387,0.356-0.833,0.454-1.27c0.535-2.387,1.034-4.78,1.211-7.229c0.081-1.115,0.17-2.104,1.506-2.723
		c1.492-0.69,1.394-1.655,0.051-2.668c-1.911-1.443-3.809-2.902-5.698-4.373c-0.352-0.273-1.128-0.621-0.612-1.084
		c0.766-0.688,0.398-1.441,0.416-2.136c0.108-4.157-0.224-8.33,0.468-12.463c0.265-1.588-0.162-2.026-1.712-1.817
		c-1.987,0.268-3.98,0.516-5.979,0.659c-2.662,0.19-4.322,2.54-4.062,5.178c0.522,5.311,1.432,10.682-0.852,15.86
		c-1.664,3.774-1.11,7.776-1.095,11.704c0.007,1.686,1.455,1.872,2.717,1.672c1.523-0.241,0.415-1.275,0.351-1.916
		c-0.19-1.92-0.521-3.825-0.742-5.743c-0.075-0.644-0.132-1.367,0.752-1.776c-0.078,3.144,0.565,6.1,1.159,9.07
		c0.352,1.76,1.906,1.83,2.983,1.835c1.164,0.005,0.543-1.374,0.51-2.069C23.845,250.318,23.349,248.401,23.706,246.431z
		 M157.847,28.037c-1.43,5.831-2.845,11.559-4.24,17.29c-4.054,16.663-8.102,33.327-12.137,49.995
		c-0.123,0.508-0.496,1.171,0.317,1.489c1.112,0.435,1.927,1.312,2.926,1.902c1.499,0.884,2.493,0.453,2.902-1.202
		c2.347-9.492,4.663-18.992,7.034-28.479c1.531-6.126,3.019-12.249,3.497-18.58c0.439-5.811,1.149-11.603,1.521-17.417
		C159.776,31.339,160.814,29.037,157.847,28.037z M65.573,222.607c-0.026,0.014-0.197,0.044-0.245,0.138
		c-2.502,4.857-3.767,9.958-3.042,15.455c0.177,1.344,0.139,2.734,0.474,4.034c0.42,1.638-0.116,3.422,0.711,4.938
		c1.37,2.511,6.377,3.832,8.813,2.048c2.275-1.667,4.575-3.438,6.531-5.42c1.432-1.451,2.925-1.976,4.864-2.436
		C74.685,237.793,68.162,232.085,65.573,222.607z M30.28,46.526c-0.25,5.104,1.178,9.997,2.041,14.947
		c2.31,13.251,4.858,26.46,7.328,39.683c0.123,0.661-0.373,1.976,1.059,1.587c1.174-0.318,3.288,0.322,2.832-2.225
		c-1.391-7.758-2.763-15.519-4.118-23.284c-1.512-8.665-2.993-17.336-4.496-26.003c-0.52-2.999-1.14-5.983-1.569-8.995
		c-0.204-1.425-1.169-0.951-1.938-1.075c0.111,0.996-1.131,1.307-1.137,2.239C30.274,44.441,30.28,45.484,30.28,46.526z
		 M79.784,193.919c-1.651,2.479-1.95,4.78-1.948,7.082c0.005,5.276,0.857,10.229,5.097,14.066c5.29,4.788,14.552,4.004,18.823-1.617
		c3.165-4.165,3.697-8.995,3.882-13.915c0.042-1.126,0.001-2.464-0.893-3.62c-0.795,2.641-0.594,5.455-2.488,7.648
		c-1.733,2.006-3.229,4.215-4.916,6.265c-1.748,2.123-5.917,2.952-8.17,1.393c-4.224-2.922-7.771-6.468-8.747-11.823
		C80.125,197.764,80.031,196.092,79.784,193.919z M160.553,217.71c2.337-6.642,4.676-13.022,4.304-20.062
		c-0.216-4.084-1.481-6.089-5.339-7.281c-0.979-0.303-1.984-0.528-2.98-0.776c-1.02-0.255-1.594-0.035-1.538,1.208
		c0.035,0.761-0.344,1.538-0.329,2.304c0.116,5.863-0.584,11.7-0.481,17.568c0.033,1.872,0.462,2.919,2.238,3.644
		C157.984,214.949,159.097,216.337,160.553,217.71z M114.624,224.059c-0.932,2.428-1.762,4.566-2.575,6.711
		c-1.141,3.009-3.041,5.162-6.063,6.587c-4.05,1.908-8.156,3.522-12.643,4.499c2.739,0.796,4.556,2.571,5.783,5.01
		c0.083,0.166,0.245,0.357,0.409,0.407c2.519,0.76,4.772,2.134,7.747,1.402c5.234-1.288,8.266-4.949,7.862-10.357
		c-0.177-2.369-0.496-4.686-0.119-7.128C115.365,228.984,115.526,226.585,114.624,224.059z M63.032,252.769
		c-1.795,2.196-3.642,4.278-5.281,6.511c-1.479,2.015-3.667,3.467-4.495,6.013c-0.927,2.853,0.077,4.913,2.949,5.575
		c0.63,0.145,1.269,0.351,1.904,0.354c3.02,0.014,6.621-0.546,7.615-4.217c0.346-1.277,1.125-2.405,2.304-3.025
		c4.833-2.541,5.26-6.801,4.716-11.645c-1.488,2.001-1.674,5.183-5.097,4.882C64.931,256.979,63.373,255.449,63.032,252.769z
		 M114.702,252.324c-0.55,2.521-2.014,4.216-4.259,4.752c-3.446,0.822-4.362-2.259-5.834-4.763c-0.821,2.383-0.293,4.275,0.3,6.189
		c0.234,0.756,0.321,1.531,1.182,1.85c2.875,1.066,4.35,3.289,5.141,6.121c0.483,1.731,1.51,2.929,3.404,3.245
		c2.074,0.346,4.147,0.268,6.197-0.042c3.624-0.547,4.628-2.593,3.119-5.898c-1.084-2.373-2.805-4.235-4.796-5.757
		C117.176,256.508,114.647,255.594,114.702,252.324z M135.087,232.023c0,0.584-0.081,1.183,0.013,1.752
		c0.851,5.149,0.228,4.89,4.639,2.749c0.752-0.365,1.444-0.853,2.188-1.236c1.207-0.624,1.562-1.649,1.806-2.938
		c0.765-4.049,1.408-8.109,1.79-12.211c0.075-0.806,0.539-1.827-0.222-2.343c-0.703-0.476-1.623,0.004-2.372,0.414
		C137.467,221.197,135.104,225.945,135.087,232.023z M30.245,228.381c0,1.757,0.007,3.515-0.004,5.273
		c-0.003,0.591-0.053,1.212,0.542,1.558c1.975,1.146,3.644,2.689,5.387,4.131c1.155,0.955,1.512,0.435,1.911-0.715
		c0.87-2.511,0.803-5.09,0.768-7.675c-0.069-5.059-2.409-8.83-6.562-11.593c-1.176-0.781-1.481-0.428-1.682,0.86
		C30.182,222.935,30.263,225.656,30.245,228.381z M22.027,195.975c0-1.562-0.035-3.124,0.013-4.683
		c0.029-0.944-0.391-1.108-1.189-0.907c-2.542,0.64-5.052,3.764-5.066,6.477c-0.015,2.863-0.183,5.717-0.309,8.575
		c-0.133,3.025,0.034,6.065,1.065,8.98c0.155,0.438,0.312,1.122,0.799,0.72c1.269-1.049,3.158-1.353,3.56-3.479
		C21.882,206.463,21.77,201.21,22.027,195.975z M165.398,6.871c-0.733,0.079-1.062,0.061-1.353,0.155
		c-1.536,0.5-1.326,1.979-1.499,3.086c-0.162,1.037,0.945,0.506,1.47,0.652c1.112,0.31,2.267,0.464,3.383,0.764
		c1.236,0.33,1.862,0.075,2.169-1.332c0.925-4.223,2.003-8.413,3.046-12.609c1.095-4.405,1.982-4.895-3.904-4.811
		c-0.717,0.01-2.022-0.619-2.084,0.617c-0.061,1.235-1.745,3.011,1.015,3.692c-2.531,0.777-2.875,1.741-1.816,3.971
		c0.256,0.538,0.375,1.165-0.644,1.628C163.373,3.51,163.371,5.696,165.398,6.871z M19.617-22.443
		c0.063,4.182-0.034,7.624,0.462,11.043c0.193,1.33,0.523,2.208,2.234,1.579c1.121-0.412,2.396-0.477,3.61-0.54
		c0.949-0.048,1.291-0.424,1.189-1.316c-0.219-1.928-0.438-3.855-0.652-5.783c-0.493-4.432-2.878-8.245-4.081-12.445
		c-0.345-1.204-1.542-1.269-2.504-1.565c-0.444-0.138-0.742,0.107-0.586,0.653C20.142-27.807,19.436-24.736,19.617-22.443z
		 M174.881-27.443c-2.452,0.28-2.426,2.48-3.474,3.822c-3.27,4.187-4.157,9.164-5.276,14.104c-0.162,0.714-0.097,1.037,0.667,1.255
		c1.776,0.507,3.629-0.04,5.41,0.496c0.532,0.16,0.659-0.611,0.717-0.973c0.433-2.682,1.495-5.218,0.954-8.112
		C173.221-20.374,174.384-23.873,174.881-27.443z M103.691,249.811c-0.129,0.166-0.26,0.332-0.389,0.497
		c0.749,0.603,1.62,1.105,2.21,1.835c0.592,0.731,0.898,1.692,1.337,2.548c0.709,1.382,1.872,1.98,3.36,1.65
		c2.14-0.476,3.617-2.564,3.457-4.77c-0.115-1.592-0.308-3.179-0.471-4.819C109.776,248.901,107.352,249.674,103.691,249.811z
		 M158.562,224.473c-1.96,5.681-4.159,10.887-2.186,16.73C159.786,239.181,161.979,230.539,158.562,224.473z M63.503,248.574
		c0.191,1.907,0.253,3.437,0.517,4.929c0.31,1.742,1.628,2.489,3.228,2.918c1.675,0.449,2.484-0.54,3.286-1.732
		c0.867-1.288,1.243-2.689,1.417-4.213C69,250.486,66.069,251.195,63.503,248.574z M16.818,238.475
		c2.061-5.384,0.663-10.614,0.649-16.127C14.146,225.672,14.399,234.948,16.818,238.475z M132.941,243.502
		c-0.915,1.928-2.315,3.604-1.619,5.744c0.408,1.25,0.708,2.465,0.648,3.778c-0.016,0.343-0.179,0.821,0.342,0.981
		c0.417,0.128,0.726-0.105,1.043-0.366c1.117-0.916,1.261-2.175,1.354-3.494c0.067-0.945-0.405-1.985,0.302-2.822
		c0.71-0.841,0.247-1.425-0.304-2.018C134.18,244.738,133.624,244.195,132.941,243.502z M39.083,246.558
		c-2.523,0.698-3.138,2.783-3.657,4.911c-0.291,1.194-0.06,2.301,0.765,3.259c0.605,0.704,1.263,0.609,1.427-0.208
		C38.155,251.838,40.759,249.541,39.083,246.558z M38.019,220.202c-0.532-1.335-1.313-2.423-3.016-3.385
		C36.009,218.406,36.92,219.396,38.019,220.202z"/>
</g>
</svg>
